<svg width="20" height="20" viewBox="0 0 20 20" fill="none" xmlns="http://www.w3.org/2000/svg">
<path d="M4.21049 11.1874L4.69727 11.0732L4.21049 11.1874ZM4.21049 7.54933L4.69727 7.66352L4.21049 7.54933ZM14.5262 7.54934L15.013 7.43515L14.5262 7.54934ZM14.5262 11.1874L15.013 11.3016L14.5262 11.1874ZM11.1874 14.5262L11.0732 14.0394L11.1874 14.5262ZM7.54934 14.5262L7.43515 15.013L7.54934 14.5262ZM7.54933 4.21049L7.43515 3.7237L7.54933 4.21049ZM11.1874 4.21048L11.3016 3.7237L11.1874 4.21048ZM15.6464 16.3536C15.8417 16.5488 16.1583 16.5488 16.3536 16.3536C16.5488 16.1583 16.5488 15.8417 16.3536 15.6464L15.6464 16.3536ZM4.69727 11.0732C4.43424 9.95185 4.43424 8.78485 4.69727 7.66352L3.7237 7.43515C3.42543 8.70669 3.42543 10.03 3.7237 11.3016L4.69727 11.0732ZM14.0394 7.66352C14.3025 8.78486 14.3025 9.95185 14.0394 11.0732L15.013 11.3016C15.3113 10.03 15.3113 8.70669 15.013 7.43515L14.0394 7.66352ZM11.0732 14.0394C9.95185 14.3025 8.78486 14.3025 7.66352 14.0394L7.43515 15.013C8.70669 15.3113 10.03 15.3113 11.3016 15.013L11.0732 14.0394ZM7.66352 4.69727C8.78485 4.43424 9.95185 4.43424 11.0732 4.69727L11.3016 3.7237C10.03 3.42543 8.70669 3.42543 7.43515 3.7237L7.66352 4.69727ZM7.66352 14.0394C6.19171 13.6942 5.04251 12.545 4.69727 11.0732L3.7237 11.3016C4.15567 13.1431 5.59358 14.581 7.43515 15.013L7.66352 14.0394ZM11.3016 15.013C13.1431 14.581 14.581 13.1431 15.013 11.3016L14.0394 11.0732C13.6942 12.545 12.545 13.6942 11.0732 14.0394L11.3016 15.013ZM11.0732 4.69727C12.545 5.04251 13.6942 6.19171 14.0394 7.66352L15.013 7.43515C14.581 5.59358 13.1431 4.15567 11.3016 3.7237L11.0732 4.69727ZM7.43515 3.7237C5.59358 4.15567 4.15567 5.59358 3.7237 7.43515L4.69727 7.66352C5.04251 6.19171 6.19171 5.04251 7.66352 4.69727L7.43515 3.7237ZM13.2032 13.9103L15.6464 16.3536L16.3536 15.6464L13.9103 13.2032L13.2032 13.9103Z" fill="#5D270D"/>
</svg>
