
<svg xmlns="http://www.w3.org/2000/svg" viewBox="0 0 267.96 305.27"><defs><style>.cls-1{fill:#ffffff;}</style></defs><g id="Layer_2" data-name="Layer 2"><g id="Layer_1-2" data-name="Layer 1"><path class="cls-1" d="M268,284.27v4.67a2.93,2.93,0,0,0-.16,1.63c0,3.77,0,7.54,0,11.31,0,1.45-.45,2-1.72,1.78a43,43,0,0,0-11.27-.09,17.77,17.77,0,0,1-6.11-.49,7.86,7.86,0,0,0-3-.09,17.07,17.07,0,0,1-5.29-.12c-1.72-.35-3.43.16-5.14.07-9.71-.55-19.36.39-29,.93-3,.16-6.1.05-9.15.1-4.26.08-8.52.36-12.78.41-2.93,0-5.86,0-8.78.22-4.76.31-9.55-.39-14.26.08-5.93.6-11.85.26-17.77.42H96.13a3.41,3.41,0,0,0-1.79.16H91.67a2.57,2.57,0,0,0-2,0h-.33c-2.68-.38-5.36-.07-8-.17-5-.31-10.12-.38-15.17-.65-3-.16-6.1-.16-9.13-.31-5.6-.29-11.2-.17-16.8-.34-3-.09-6.08,0-9.11,0-4.71,0-9.42.05-14.12-.34a76.37,76.37,0,0,0-13.61.28c-2.29.21-3.15-.39-3.14-2.7,0-6.16-.22-12.32.13-18.48a7.63,7.63,0,0,0,0-.83c-.08-9,.06-18.08,0-27.12,0-11.87-.18-23.75-.3-35.62C-.07,201.71,0,184.44,0,167.18c0-6.44,0-12.88,0-19.32C0,130.43.17,113,.25,95.57.29,87.3.1,79,.43,70.77.64,65.61.5,60.45.72,55.29,1.26,42.37.38,29.44.65,16.52.74,12.08.81,7.64.58,3.2A1.6,1.6,0,0,1,2,1.42a10.19,10.19,0,0,1,2-.34c5.11,0,10.21-.25,15.31.15,3,.23,6.06.8,9.12.18A20.26,20.26,0,0,1,32,1.48C40,1.36,48,1.41,56,1.09,62.15.83,68.35.7,74.55.42,76.91.31,79.3.33,81.67.21,84.44,0,87.23.4,90,0h1.67a.43.43,0,0,0,.67,0h2a3.41,3.41,0,0,0,1.79.16h47.62a11.89,11.89,0,0,0,3,.16c5.32,0,10.64,0,16,.28,4.41.21,8.85-.24,13.27.08,6,.43,12.07.06,18.09.61,2.27.21,4.55,0,6.82,0,7.77,0,15.5.7,23.24,1.29,2.76.21,5.52-.43,8.3-.27,4.93.28,9.85-.09,14.78,0,2.38,0,4.68-.9,7.1-.64a43.27,43.27,0,0,0,7.46.35,27,27,0,0,0,3.8-.34c1.73-.36,2.19.1,2.25,1.86.08,2.82-.23,5.65.16,8.46V25.66a1.78,1.78,0,0,0-.17,1.13c0,8.31.09,16.63-.18,24.94-.13,4,0,8-.11,11.94-.08,3,0,6.08,0,9.12-.13,6.82.08,13.64.19,20.45.14,8,0,16,.12,23.94a1.85,1.85,0,0,0,.17,1.13V241.62a2.52,2.52,0,0,0-.16,1.46q0,19.86,0,39.73A2.52,2.52,0,0,0,268,284.27Z"/></g></g></svg>