<svg width="241" height="40" viewBox="0 0 241 40" fill="none" xmlns="http://www.w3.org/2000/svg">
<g clip-path="url(#clip0_1259_1699)">
<path d="M50.8983 23.9445C50.9512 23.8997 50.9937 23.8438 51.0228 23.7807C51.0518 23.7177 51.0667 23.6491 51.0665 23.5797V9.07547C51.0667 9.00608 51.0518 8.93746 51.0228 8.87445C50.9937 8.81143 50.9512 8.75552 50.8983 8.71065L49.6158 7.53925C49.5677 7.4966 49.5338 7.44032 49.5185 7.37792C49.5033 7.31553 49.5073 7.24997 49.5302 7.18995C49.5531 7.12992 49.5938 7.0783 49.6467 7.04193C49.6997 7.00555 49.7624 6.98616 49.8267 6.98633H59.7308C65.4311 6.98633 68.6717 8.58524 68.6717 12.9117C68.6717 17.2382 65.4425 19.182 59.7308 19.182H55.9231C55.8394 19.1812 55.7587 19.2133 55.6985 19.2714C55.6383 19.3296 55.6033 19.409 55.601 19.4927V23.5398C55.6011 23.6178 55.62 23.6945 55.6562 23.7635C55.6925 23.8325 55.7449 23.8917 55.8091 23.936L57.3966 25.076C57.4482 25.1166 57.486 25.172 57.5049 25.2348C57.5239 25.2976 57.523 25.3647 57.5024 25.427C57.4819 25.4893 57.4426 25.5437 57.39 25.5829C57.3374 25.6221 57.2741 25.6442 57.2085 25.6461H49.7982C49.7339 25.6462 49.6712 25.6268 49.6182 25.5905C49.5653 25.5541 49.5246 25.5025 49.5017 25.4424C49.4788 25.3824 49.4748 25.3169 49.49 25.2545C49.5053 25.1921 49.5392 25.1358 49.5873 25.0931L50.8983 23.9445ZM58.967 7.98387H55.9231C55.8384 7.98387 55.7572 8.01751 55.6974 8.07737C55.6375 8.13724 55.6039 8.21842 55.6039 8.30308V17.8624C55.6039 17.9471 55.6375 18.0282 55.6974 18.0881C55.7572 18.148 55.8384 18.1816 55.9231 18.1816H58.967C62.3586 18.1816 63.6384 16.7565 63.6384 13.0827C63.6384 9.48019 62.1449 7.98387 58.967 7.98387Z" fill="#98772E"/>
<path d="M73.4712 23.9433C73.5189 23.8982 73.5568 23.8438 73.5828 23.7835C73.6087 23.7233 73.6222 23.6584 73.6223 23.5928V9.05716C73.6222 8.99154 73.6087 8.92662 73.5828 8.86636C73.5568 8.8061 73.5189 8.75174 73.4712 8.70658L72.277 7.52094C72.2328 7.47648 72.2026 7.41996 72.1903 7.35845C72.178 7.29694 72.1841 7.23316 72.2078 7.17508C72.2315 7.117 72.2718 7.0672 72.3237 7.0319C72.3755 6.99659 72.4366 6.97735 72.4994 6.97658H79.2997C79.3631 6.97597 79.4252 6.9944 79.4779 7.02948C79.5307 7.06456 79.5717 7.11465 79.5956 7.17331C79.6196 7.23196 79.6254 7.29645 79.6123 7.35843C79.5991 7.42041 79.5677 7.47703 79.522 7.52094L78.3136 8.7009C78.2647 8.74581 78.2258 8.80045 78.1993 8.86132C78.1728 8.92218 78.1593 8.98792 78.1597 9.05431V15.279C78.1597 15.3631 78.1929 15.4439 78.2522 15.5037C78.3114 15.5635 78.3919 15.5974 78.4761 15.5982H87.8815C87.9656 15.5974 88.0461 15.5635 88.1053 15.5037C88.1646 15.4439 88.1978 15.3631 88.1978 15.279V9.05431C88.1982 8.98792 88.1847 8.92218 88.1582 8.86132C88.1317 8.80045 88.0928 8.74581 88.0439 8.7009L86.8326 7.52094C86.7869 7.47703 86.7555 7.42041 86.7424 7.35843C86.7293 7.29645 86.7351 7.23196 86.759 7.17331C86.783 7.11465 86.824 7.06456 86.8767 7.02948C86.9295 6.9944 86.9916 6.97597 87.0549 6.97658H93.8724C93.9358 6.97597 93.9978 6.9944 94.0506 7.02948C94.1033 7.06456 94.1443 7.11465 94.1683 7.17331C94.1922 7.23196 94.198 7.29645 94.1849 7.35843C94.1718 7.42041 94.1404 7.47703 94.0947 7.52094L92.8863 8.7009C92.8379 8.74624 92.7993 8.80097 92.7729 8.86174C92.7464 8.9225 92.7326 8.98803 92.7324 9.05431V23.5899C92.7326 23.6562 92.7464 23.7217 92.7729 23.7825C92.7993 23.8433 92.8379 23.898 92.8863 23.9433L94.0947 25.1233C94.1404 25.1672 94.1718 25.2238 94.1849 25.2858C94.198 25.3478 94.1922 25.4123 94.1683 25.4709C94.1443 25.5296 94.1033 25.5797 94.0506 25.6147C93.9978 25.6498 93.9358 25.6683 93.8724 25.6676H87.0549C86.9916 25.6683 86.9295 25.6498 86.8767 25.6147C86.824 25.5797 86.783 25.5296 86.759 25.4709C86.7351 25.4123 86.7293 25.3478 86.7424 25.2858C86.7555 25.2238 86.7869 25.1672 86.8326 25.1233L88.0411 23.9433C88.0899 23.8984 88.1289 23.8438 88.1554 23.7829C88.1819 23.722 88.1954 23.6563 88.195 23.5899V16.9919C88.195 16.9077 88.1617 16.8269 88.1025 16.7672C88.0432 16.7074 87.9628 16.6734 87.8786 16.6727H78.4732C78.389 16.6734 78.3086 16.7074 78.2493 16.7672C78.1901 16.8269 78.1568 16.9077 78.1568 16.9919V23.5899C78.1564 23.6563 78.1699 23.722 78.1964 23.7829C78.2229 23.8438 78.2619 23.8984 78.3107 23.9433L79.5192 25.1233C79.5649 25.1672 79.5963 25.2238 79.6094 25.2858C79.6225 25.3478 79.6167 25.4123 79.5928 25.4709C79.5688 25.5296 79.5278 25.5797 79.4751 25.6147C79.4223 25.6498 79.3602 25.6683 79.2969 25.6676H72.4994C72.4366 25.6669 72.3755 25.6476 72.3237 25.6123C72.2718 25.577 72.2315 25.5272 72.2078 25.4691C72.1841 25.4111 72.178 25.3473 72.1903 25.2858C72.2026 25.2243 72.2328 25.1677 72.277 25.1233L73.4712 23.9433Z" fill="#98772E"/>
<path d="M99.1652 17.2885V8.98321C99.1655 8.90325 99.136 8.82604 99.0826 8.7666L97.9254 7.5211C97.8843 7.47547 97.8572 7.41892 97.8474 7.35826C97.8375 7.2976 97.8455 7.23541 97.8701 7.17913C97.8948 7.12286 97.9352 7.07489 97.9865 7.04101C98.0377 7.00713 98.0977 6.98877 98.1591 6.98813H105.624C105.693 6.98712 105.761 7.00903 105.817 7.05046C105.873 7.09189 105.913 7.15054 105.932 7.21735C105.951 7.28416 105.948 7.35541 105.923 7.4201C105.897 7.48479 105.851 7.53932 105.792 7.57525L103.942 8.7153C103.869 8.75767 103.809 8.81838 103.767 8.8914C103.725 8.96441 103.703 9.04718 103.703 9.13142V17.2628C103.703 21.8828 105.492 24.2029 109.602 24.2029C114.328 24.2029 115.588 21.1618 115.588 17.7986V9.15992C115.587 9.06756 115.56 8.97734 115.509 8.90002C115.459 8.82271 115.387 8.76155 115.303 8.72384L113.04 7.58379C112.977 7.55062 112.927 7.49752 112.898 7.43283C112.869 7.36815 112.862 7.29559 112.879 7.22662C112.895 7.15766 112.934 7.09621 112.99 7.05199C113.045 7.00777 113.114 6.98328 113.185 6.98242H117.839C117.901 6.98307 117.961 7.00144 118.012 7.03532C118.063 7.0692 118.104 7.11715 118.128 7.17343C118.153 7.2297 118.161 7.29191 118.151 7.35257C118.141 7.41323 118.114 7.46976 118.073 7.51539L116.916 8.76375C116.861 8.8229 116.831 8.90007 116.83 8.98036V16.9379C116.83 22.1707 115.203 26.121 108.448 26.121C102.309 26.121 99.1595 23.3165 99.1595 17.2856" fill="#98772E"/>
<path d="M121.507 16.3252C121.507 9.89244 126.019 6.5293 132.053 6.5293C134.6 6.53683 137.119 7.05432 139.463 8.05125C139.519 8.07493 139.568 8.11447 139.602 8.16505C139.637 8.21564 139.656 8.2751 139.657 8.33626L139.674 13.039C139.674 13.1126 139.649 13.1841 139.602 13.2411C139.556 13.2981 139.491 13.337 139.419 13.3512C139.346 13.3654 139.271 13.3539 139.207 13.3188C139.142 13.2836 139.092 13.227 139.064 13.1587C137.554 9.64448 135.755 7.58953 132.475 7.58953C128.55 7.61518 126.524 10.7646 126.524 16.3166C126.524 21.8686 128.55 25.0209 132.475 25.0465C135.279 25.0465 137.933 21.0934 139.084 19.1211C139.118 19.0594 139.172 19.011 139.237 18.9835C139.302 18.9559 139.375 18.951 139.443 18.9693C139.511 18.9877 139.571 19.0283 139.613 19.0847C139.656 19.1412 139.678 19.2102 139.677 19.2807L139.657 24.2998C139.656 24.3609 139.637 24.4204 139.602 24.471C139.568 24.5216 139.519 24.5611 139.463 24.5848C137.119 25.5817 134.6 26.0992 132.053 26.1068C126.022 26.1068 121.507 22.7436 121.507 16.3081" fill="#98772E"/>
<path d="M152.078 23.9433C152.125 23.8982 152.163 23.8438 152.189 23.7835C152.215 23.7233 152.229 23.6584 152.229 23.5928V9.05716C152.229 8.99154 152.215 8.92663 152.189 8.86636C152.163 8.8061 152.125 8.75174 152.078 8.70658L150.883 7.52094C150.839 7.4763 150.809 7.41953 150.797 7.35775C150.784 7.29598 150.791 7.23197 150.815 7.17378C150.839 7.11558 150.88 7.0658 150.932 7.03071C150.984 6.99562 151.046 6.9768 151.109 6.97658H157.92C157.984 6.97597 158.046 6.9944 158.099 7.02948C158.151 7.06456 158.192 7.11465 158.216 7.17331C158.24 7.23196 158.246 7.29645 158.233 7.35843C158.22 7.42041 158.188 7.47703 158.143 7.52094L156.934 8.7009C156.886 8.74624 156.847 8.80097 156.821 8.86174C156.794 8.9225 156.781 8.98803 156.78 9.05431V24.274C156.78 24.3586 156.814 24.4398 156.874 24.4997C156.934 24.5595 157.015 24.5932 157.1 24.5932H163.424C163.507 24.5933 163.588 24.5718 163.66 24.5308C163.732 24.4898 163.792 24.4308 163.834 24.3595L166.442 20.1299C166.479 20.0711 166.534 20.0259 166.598 20.001C166.663 19.9762 166.734 19.973 166.801 19.992C166.867 20.0109 166.926 20.0511 166.968 20.1063C167.009 20.1615 167.032 20.2288 167.032 20.298V25.3427C167.031 25.4269 166.998 25.5074 166.938 25.5666C166.878 25.6259 166.797 25.6591 166.713 25.6591H151.109C151.046 25.6589 150.984 25.64 150.932 25.605C150.88 25.5699 150.839 25.5201 150.815 25.4619C150.791 25.4037 150.784 25.3397 150.797 25.2779C150.809 25.2161 150.839 25.1594 150.883 25.1147L152.078 23.9433Z" fill="#98772E"/>
<path d="M170.646 16.3252C170.646 10.1603 175.206 6.5293 181.511 6.5293C187.815 6.5293 192.407 10.1603 192.407 16.3252C192.407 22.49 187.846 26.1239 181.516 26.1239C175.186 26.1239 170.652 22.4928 170.652 16.3252M187.388 16.3252C187.388 11.3602 185.199 7.59809 181.516 7.59809C177.834 7.59809 175.671 11.3602 175.671 16.3252C175.671 21.2901 177.86 25.0551 181.516 25.0551C185.173 25.0551 187.388 21.2929 187.388 16.3252Z" fill="#98772E"/>
<path d="M198.914 11.0206V23.5041C198.914 23.5934 198.939 23.6809 198.985 23.7569C199.032 23.8329 199.099 23.8944 199.179 23.9345L201.328 25.0745C201.392 25.1069 201.443 25.1599 201.472 25.225C201.502 25.2901 201.509 25.3633 201.492 25.4328C201.475 25.5022 201.434 25.5638 201.378 25.6075C201.321 25.6511 201.251 25.6742 201.18 25.6731H196.397C196.333 25.6723 196.271 25.6525 196.219 25.6161C196.166 25.5797 196.126 25.5285 196.103 25.469C196.08 25.4095 196.075 25.3444 196.09 25.2822C196.104 25.22 196.137 25.1636 196.183 25.1201L197.483 23.9487C197.536 23.9039 197.578 23.848 197.607 23.7849C197.636 23.7219 197.651 23.6533 197.651 23.5839V9.07965C197.652 9.0102 197.637 8.94148 197.608 8.8784C197.579 8.81532 197.536 8.75946 197.483 8.71485L196.183 7.54345C196.137 7.49999 196.104 7.44352 196.09 7.38134C196.075 7.31916 196.08 7.25413 196.103 7.19461C196.126 7.1351 196.166 7.08384 196.219 7.04746C196.271 7.01108 196.333 6.99126 196.397 6.99053H202.166C202.248 6.99034 202.328 7.02198 202.388 7.07888L214.139 18.5791C214.184 18.6227 214.241 18.6522 214.302 18.6638C214.364 18.6753 214.428 18.6685 214.485 18.6442C214.543 18.6199 214.592 18.5792 214.627 18.5271C214.662 18.4749 214.68 18.4137 214.681 18.3511V9.15661C214.681 9.06701 214.656 8.97918 214.609 8.90275C214.562 8.82633 214.495 8.76426 214.416 8.72339L212.249 7.58334C212.186 7.55099 212.135 7.49797 212.105 7.4329C212.075 7.36783 212.068 7.29458 212.085 7.22511C212.103 7.15564 212.143 7.09404 212.2 7.0504C212.256 7.00676 212.326 6.98364 212.398 6.98482H217.203C217.271 6.98124 217.338 6.99934 217.395 7.0365C217.451 7.07367 217.495 7.12796 217.519 7.1915C217.543 7.25504 217.546 7.32453 217.527 7.38986C217.509 7.4552 217.47 7.51299 217.417 7.55484L216.103 8.72339C216.05 8.76812 216.007 8.82394 215.977 8.88694C215.948 8.94995 215.932 9.01863 215.932 9.08821V25.1914C215.932 25.2546 215.919 25.3173 215.895 25.3757C215.871 25.4341 215.835 25.4872 215.791 25.532C215.746 25.5767 215.693 25.6122 215.634 25.6364C215.576 25.6606 215.513 25.6731 215.45 25.6731H215.117C214.904 25.6738 214.699 25.5909 214.547 25.4422L199.47 10.7983C199.425 10.7547 199.368 10.7252 199.306 10.7137C199.245 10.7021 199.181 10.7088 199.123 10.7332C199.066 10.7575 199.016 10.7982 198.982 10.8503C198.947 10.9025 198.928 10.9637 198.928 11.0263" fill="#98772E"/>
<path d="M221.176 16.3252C221.176 9.89245 226.061 6.52931 231.958 6.52931C234.628 6.52583 237.265 7.10965 239.684 8.23938C239.737 8.26608 239.782 8.30679 239.813 8.35707C239.844 8.40734 239.861 8.46524 239.861 8.5244L239.881 12.8537C239.882 12.9256 239.858 12.9955 239.813 13.0519C239.769 13.1084 239.706 13.148 239.636 13.1642C239.566 13.1805 239.493 13.1724 239.428 13.1414C239.363 13.1103 239.311 13.0581 239.28 12.9934C237.467 9.45068 235.241 7.6038 232.2 7.6038C228.623 7.62945 226.192 10.7532 226.192 16.1713C226.192 21.538 228.062 25.0608 232.28 25.0608C233.568 25.0983 234.844 24.8039 235.985 24.2057C236.036 24.1778 236.078 24.1364 236.107 24.0862C236.136 24.036 236.151 23.9788 236.15 23.9207V18.7535C236.15 18.6842 236.135 18.6158 236.106 18.5528C236.077 18.4899 236.035 18.4339 235.982 18.3887L234.682 17.2201C234.635 17.1769 234.601 17.1202 234.586 17.0575C234.571 16.9948 234.576 16.9291 234.599 16.8689C234.622 16.8088 234.663 16.7571 234.716 16.7206C234.769 16.6841 234.832 16.6644 234.896 16.6643H240.183C240.267 16.6651 240.348 16.699 240.407 16.7588C240.466 16.8186 240.5 16.8994 240.5 16.9835V23.4818C240.503 23.5383 240.491 23.5947 240.465 23.645C240.439 23.6952 240.4 23.7373 240.351 23.7668C237.861 25.3056 234.993 26.1244 232.066 26.1324C225.365 26.1324 221.176 22.6353 221.176 16.3337" fill="#98772E"/>
<path d="M98.6465 39.0349V32.8359H99.5528V38.1286H103.324V39.0349H98.6465Z" fill="#98772E"/>
<path d="M110.959 38.2626C110.429 38.9608 109.44 39.1604 108.608 39.1604C107.775 39.1604 106.781 38.8753 106.273 38.1372C106.001 37.7041 105.877 37.1934 105.923 36.6836V32.8359H106.821V36.6836C106.821 37.1168 106.846 37.4731 107.171 37.798C107.562 38.1885 108.226 38.254 108.75 38.254C109.89 38.254 110.512 37.9063 110.512 36.6836V32.8359H111.401V36.6836C111.401 37.3163 111.358 37.7467 110.959 38.2626Z" fill="#98772E"/>
<path d="M119.068 39.0349L117.164 36.4271L115.194 39.0349H114.04L116.582 35.6718L114.539 32.8359H115.636L117.164 34.9051L118.72 32.8359H119.84L117.739 35.6718L120.213 39.0349H119.068Z" fill="#98772E"/>
<path d="M127.9 38.2626C127.367 38.9608 126.381 39.1604 125.549 39.1604C124.717 39.1604 123.722 38.8753 123.215 38.1372C122.942 37.7041 122.819 37.1934 122.864 36.6836V32.8359H123.762V36.6836C123.762 37.1168 123.788 37.4731 124.113 37.798C124.503 38.1885 125.167 38.254 125.692 38.254C126.832 38.254 127.453 37.9063 127.453 36.6836V32.8359H128.342V36.6836C128.342 37.3163 128.299 37.7467 127.9 38.2626Z" fill="#98772E"/>
<path d="M136.191 36.4356L137.479 39.0349H136.456L135.211 36.4698H132.902V39.0349H131.984V32.8359H135.658C136.798 32.8359 137.611 33.4829 137.611 34.6657C137.631 35.0841 137.497 35.4953 137.234 35.8216C136.972 36.1478 136.599 36.3663 136.185 36.4356M135.67 33.7423H132.902V35.5692H135.67C136.282 35.5692 136.724 35.2842 136.724 34.623C136.724 33.9617 136.26 33.7423 135.67 33.7423Z" fill="#98772E"/>
<path d="M142.937 36.353V39.0349H142.04V36.353L139.523 32.8359H140.612L142.504 35.4609L144.377 32.8359H145.497L142.937 36.353Z" fill="#98772E"/>
<path d="M156.863 39.0349V36.2589H153.215V39.0349H152.317V32.8359H153.215V35.3469H156.863V32.8359H157.769V39.0349H156.863Z" fill="#98772E"/>
<path d="M164.339 39.1842C163.9 39.1891 163.464 39.1062 163.057 38.9401C162.65 38.7741 162.28 38.5284 161.97 38.2174C161.659 37.9064 161.414 37.5364 161.249 37.1293C161.084 36.7222 161.001 36.2861 161.007 35.8467C161.007 34.0254 162.569 32.6545 164.347 32.6545C164.783 32.6493 165.215 32.7305 165.619 32.8936C166.023 33.0566 166.391 33.2983 166.701 33.6045C167.011 33.9107 167.257 34.2754 167.425 34.6774C167.593 35.0794 167.679 35.5107 167.679 35.9464C167.663 36.818 167.303 37.6479 166.677 38.2547C166.051 38.8614 165.211 39.1956 164.339 39.1842ZM164.339 33.5694C164.02 33.5566 163.701 33.6091 163.403 33.7237C163.104 33.8383 162.832 34.0126 162.604 34.2359C162.375 34.4592 162.194 34.7269 162.073 35.0225C161.951 35.3181 161.891 35.6354 161.896 35.955C161.914 36.5872 162.183 37.1865 162.642 37.621C163.102 38.0556 163.715 38.2898 164.347 38.2721C164.664 38.2774 164.978 38.2199 165.272 38.1031C165.566 37.9862 165.834 37.8122 166.06 37.5912C166.286 37.3701 166.467 37.1065 166.591 36.8153C166.714 36.5242 166.779 36.2115 166.781 35.8951C166.778 35.5808 166.711 35.2704 166.586 34.9822C166.46 34.6939 166.278 34.4338 166.051 34.217C165.823 34.0002 165.554 33.8313 165.26 33.72C164.966 33.6088 164.653 33.5576 164.339 33.5694Z" fill="#98772E"/>
<path d="M173.254 33.7423V39.0349H172.373V33.7423H170.162V32.8359H175.44V33.7423H173.254Z" fill="#98772E"/>
<path d="M178.387 39.0349V32.8359H183.489V33.7508H179.294V35.3697H181.405V36.2675H179.294V38.1286H183.649V39.0349H178.387Z" fill="#98772E"/>
<path d="M186.672 39.0349V32.8359H187.576V38.1286H191.349V39.0349H186.672Z" fill="#98772E"/>
<path d="M38.9278 15.7184L36.1518 9.02352C35.1232 6.54419 33.1532 4.57411 30.6738 3.54558L23.9647 0.769567C21.4844 -0.256522 18.6983 -0.256522 16.218 0.769567L9.52311 3.53133C7.04324 4.55907 5.07292 6.52939 4.04518 9.00926L1.26916 15.7042C0.24166 18.1852 0.24166 20.9727 1.26916 23.4537L4.04518 30.1515C4.55311 31.3792 5.29812 32.4946 6.2376 33.4341C7.17707 34.3736 8.29257 35.1186 9.52026 35.6265L16.2266 38.4025C17.4541 38.9113 18.7698 39.1732 20.0985 39.1732C21.4272 39.1732 22.7429 38.9113 23.9704 38.4025L30.671 35.6294C31.8995 35.1209 33.0159 34.3755 33.9562 33.4356C34.8966 32.4957 35.6427 31.3797 36.1518 30.1515L38.9278 23.4822C39.4373 22.2534 39.6995 20.9362 39.6995 19.606C39.6995 18.2758 39.4373 16.9586 38.9278 15.7298M36.2886 22.9378L33.9059 28.6922C33.4684 29.7488 32.8268 30.7088 32.0179 31.5172C31.209 32.3256 30.2487 32.9666 29.1918 33.4034L23.4317 35.789C22.3759 36.2264 21.2442 36.4515 20.1013 36.4515C18.9585 36.4515 17.8268 36.2264 16.771 35.789L11.0052 33.4006C9.94811 32.9623 8.98787 32.3198 8.17945 31.5099C7.37102 30.7 6.73029 29.7386 6.29392 28.6808L3.91122 22.9121C3.47312 21.856 3.24761 20.7238 3.24761 19.5804C3.24761 18.4369 3.47312 17.3047 3.91122 16.2486L6.29392 10.5027C7.17816 8.37017 8.87261 6.67571 11.0052 5.79148L16.7681 3.40593C18.8998 2.52394 21.2943 2.52394 23.426 3.40593L29.1918 5.79148C31.3242 6.67451 33.0187 8.36804 33.903 10.4999L36.2886 16.26C37.1721 18.3933 37.1721 20.7902 36.2886 22.9235" fill="#98772E"/>
<path d="M35.4283 16.4389L33.1681 10.9866C32.3304 8.96864 30.7262 7.36549 28.7077 6.52906L23.2497 4.26892C21.2312 3.4338 18.9638 3.4338 16.9452 4.26892L11.4901 6.52621C10.49 6.94003 9.58119 7.54698 8.81582 8.31235C8.05046 9.07772 7.4435 9.98647 7.02968 10.9866L4.77239 16.4361C4.35757 17.4357 4.14404 18.5074 4.14404 19.5897C4.14404 20.672 4.35757 21.7437 4.77239 22.7434L7.03253 28.1957C7.44633 29.195 8.05299 30.1031 8.81784 30.8679C9.58269 31.6328 10.4907 32.2394 11.4901 32.6532L16.9481 34.9134C17.9474 35.3275 19.0186 35.5407 20.1003 35.5407C21.1821 35.5407 22.2532 35.3275 23.2526 34.9134L28.7077 32.6532C29.7082 32.2395 30.6174 31.6326 31.3832 30.8672C32.1491 30.1019 32.7566 29.1931 33.171 28.1928L35.4283 22.7434C36.262 20.7236 36.262 18.4559 35.4283 16.4361M30.013 26.5141C29.9974 26.5773 29.9606 26.6333 29.9088 26.6727C29.8569 26.7121 29.7931 26.7326 29.728 26.7307H17.4725C17.4482 26.7295 17.4249 26.7205 17.4061 26.7052C17.3872 26.6898 17.3738 26.6688 17.3678 26.6452C17.3617 26.6216 17.3634 26.5967 17.3725 26.5742C17.3816 26.5516 17.3977 26.5326 17.4184 26.5198C17.7721 26.3271 18.078 26.0573 18.3133 25.7303C18.3575 25.6691 18.3948 25.6031 18.4245 25.5337V25.5166C18.4245 25.5166 18.4245 25.4909 18.4245 25.4767C18.4496 25.4154 18.4706 25.3526 18.4872 25.2885C18.5497 25.003 18.5813 24.7116 18.5812 24.4192V22.0822C18.5805 22.0373 18.5621 21.9945 18.5301 21.9631C18.4981 21.9316 18.4551 21.914 18.4102 21.914H16.1045C16.0821 21.9136 16.06 21.9177 16.0392 21.926C16.0185 21.9342 15.9996 21.9466 15.9837 21.9622C15.9678 21.9779 15.9551 21.9965 15.9465 22.0171C15.9379 22.0377 15.9334 22.0598 15.9335 22.0822C15.9335 22.8175 15.9335 25.7531 15.9335 27.2694C15.9377 27.4603 15.9548 27.6508 15.9848 27.8394C16.1131 28.3414 16.4087 28.7847 16.8227 29.0963C16.9343 29.176 17.0504 29.2493 17.1704 29.3158C17.1913 29.3287 17.2074 29.348 17.2164 29.3708C17.2255 29.3936 17.2269 29.4188 17.2205 29.4424C17.2141 29.4661 17.2002 29.4871 17.1809 29.5023C17.1616 29.5175 17.1379 29.526 17.1134 29.5267H11.8692C11.8449 29.5255 11.8216 29.5165 11.8028 29.5011C11.7839 29.4857 11.7705 29.4647 11.7644 29.4412C11.7584 29.4176 11.76 29.3927 11.7691 29.3701C11.7782 29.3476 11.7943 29.3285 11.815 29.3158C12.1688 29.1231 12.4747 28.8532 12.71 28.5263C12.7541 28.465 12.7914 28.3991 12.8211 28.3296V28.3125C12.8225 28.2993 12.8225 28.2859 12.8211 28.2726C12.8467 28.2116 12.8677 28.1487 12.8838 28.0845C12.9436 27.8082 12.9751 27.5265 12.9779 27.2437C12.9779 23.2821 12.9779 19.3213 12.9779 15.3616C12.9769 15.074 12.9454 14.7874 12.8838 14.5065C12.8677 14.4424 12.8467 14.3795 12.8211 14.3184C12.8211 14.3184 12.8211 14.2928 12.8211 14.2785V14.2614C12.7914 14.192 12.7541 14.126 12.71 14.0648C12.4747 13.7378 12.1688 13.468 11.815 13.2753C11.7943 13.2625 11.7782 13.2435 11.7691 13.2209C11.76 13.1983 11.7584 13.1734 11.7644 13.1499C11.7705 13.1263 11.7839 13.1053 11.8028 13.0899C11.8216 13.0746 11.8449 13.0656 11.8692 13.0644H18.4444C18.4898 13.0644 18.5333 13.0464 18.5653 13.0143C18.5974 12.9822 18.6154 12.9387 18.6154 12.8934C18.6154 12.7651 18.6154 12.6397 18.6154 12.5143V12.0184C18.6136 11.7216 18.583 11.4257 18.5242 11.1348C18.5095 11.0765 18.4905 11.0193 18.4672 10.9638C18.4699 10.9459 18.4699 10.9276 18.4672 10.9097C18.4642 10.9012 18.4593 10.8934 18.453 10.8869C18.4266 10.8244 18.3931 10.7651 18.3532 10.7102C18.1057 10.3629 17.7808 10.0779 17.4041 9.87795C17.3825 9.86581 17.3655 9.84677 17.356 9.82389C17.3464 9.801 17.3448 9.77557 17.3513 9.75164C17.3579 9.72772 17.3722 9.70667 17.3921 9.69185C17.412 9.67704 17.4363 9.6693 17.4611 9.66988H22.825C22.8487 9.67093 22.8714 9.67952 22.8899 9.69439C22.9083 9.70927 22.9216 9.72965 22.9276 9.75256C22.9336 9.77548 22.9322 9.79974 22.9235 9.82178C22.9148 9.84382 22.8993 9.86251 22.8792 9.8751C22.4968 10.0809 22.1641 10.3679 21.9045 10.7159C21.8529 10.8025 21.8063 10.8919 21.7648 10.9838C21.6835 11.1644 21.6316 11.3568 21.6109 11.5538C21.5938 11.7438 21.5852 11.9262 21.5852 12.101V19.6539C21.5845 19.6836 21.5722 19.7119 21.5509 19.7326C21.5296 19.7534 21.501 19.765 21.4712 19.765H18.7323C18.7033 19.765 18.6754 19.7537 18.6547 19.7335C18.6339 19.7132 18.6219 19.6857 18.6211 19.6567C18.6211 19.0525 18.6211 16.1083 18.6211 14.4438C18.6211 14.4219 18.6167 14.4002 18.6083 14.3799C18.5998 14.3597 18.5873 14.3413 18.5717 14.3259C18.556 14.3105 18.5375 14.2984 18.5171 14.2903C18.4967 14.2821 18.4749 14.2782 18.453 14.2785H16.1301C16.1079 14.2782 16.0859 14.2822 16.0653 14.2905C16.0447 14.2989 16.026 14.3112 16.0103 14.3269C15.9947 14.3426 15.9823 14.3613 15.974 14.3819C15.9657 14.4025 15.9616 14.4245 15.962 14.4467V20.4775C15.962 20.4996 15.9663 20.5215 15.9748 20.5419C15.9832 20.5623 15.9956 20.5808 16.0112 20.5964C16.0268 20.6121 16.0454 20.6244 16.0658 20.6329C16.0862 20.6413 16.108 20.6457 16.1301 20.6457H17.5552C18.9232 20.6457 20.2884 20.6685 21.6565 20.6599C22.2737 20.661 22.8905 20.6248 23.5034 20.5516C23.9512 20.5054 24.3852 20.3698 24.7798 20.1529C25.1744 19.9361 25.5215 19.6423 25.8006 19.289C26.0591 18.9582 26.2441 18.576 26.343 18.1679C26.442 17.7599 26.4527 17.3354 26.3745 16.9229C26.2963 16.5104 26.1308 16.1193 25.8893 15.7758C25.6478 15.4324 25.3358 15.1444 24.974 14.9312C24.4644 14.6263 23.8963 14.432 23.3067 14.3612L22.6968 14.3241C22.6683 14.3227 22.6415 14.3103 22.6218 14.2896C22.6022 14.2689 22.5913 14.2415 22.5913 14.213V13.1613C22.5913 13.1318 22.603 13.1035 22.6239 13.0827C22.6447 13.0618 22.673 13.0501 22.7025 13.0501C22.7025 13.0501 22.882 13.0501 23.3096 13.0501C23.7371 13.0501 23.7428 13.0501 23.9594 13.0786C24.931 13.1211 25.8912 13.3055 26.8095 13.6258C27.6525 13.9072 28.4104 14.3975 29.0126 15.0509C29.341 15.4303 29.5889 15.8724 29.7413 16.3505C29.8937 16.8285 29.9474 17.3326 29.8992 17.832C29.851 18.3315 29.7018 18.8159 29.4607 19.2559C29.2196 19.696 28.8917 20.0825 28.4968 20.392C27.7117 21.0034 26.7973 21.4275 25.8234 21.6318C24.8964 21.8377 23.9483 21.9334 22.9989 21.9169H21.7391C21.7168 21.9169 21.6947 21.9213 21.6741 21.9299C21.6535 21.9385 21.6349 21.9512 21.6192 21.9671C21.6036 21.983 21.5912 22.0019 21.583 22.0226C21.5747 22.0434 21.5706 22.0655 21.571 22.0879V24.1542C21.571 24.385 21.571 24.5931 21.5881 24.7242C21.6166 25.1774 21.8361 25.3769 22.2921 25.4311C22.4435 25.4472 22.5958 25.4548 22.7481 25.4538C24.2757 25.4538 25.2448 25.4538 26.7696 25.4538C28.1662 25.4538 29.8078 24.2169 30.5175 23.5015C30.5345 23.4835 30.5571 23.4717 30.5816 23.4679C30.6061 23.4642 30.6311 23.4687 30.6527 23.4808C30.6743 23.493 30.6913 23.5119 30.7009 23.5348C30.7104 23.5576 30.7121 23.5831 30.7056 23.607C30.4757 24.5703 30.2429 25.5346 30.0073 26.4998" fill="#98772E"/>
</g>
<defs>
<clipPath id="clip0_1259_1699">
<rect width="240" height="39.1863" fill="white" transform="translate(0.5)"/>
</clipPath>
</defs>
</svg>
