<svg width="80" height="80" viewBox="0 0 80 80" fill="none" xmlns="http://www.w3.org/2000/svg">
<path fill-rule="evenodd" clip-rule="evenodd" d="M47.9043 1.56766L61.5697 7.23884C66.6278 9.34666 70.6464 13.3702 72.7481 18.4309L78.4192 32.0963C80.5095 37.1594 80.5095 42.8442 78.4192 47.9072L72.7481 61.5727C70.6528 66.6376 66.6321 70.6632 61.5697 72.7647L47.9043 78.4222C45.3988 79.4638 42.7122 80 39.9988 80C37.2855 80 34.5988 79.4638 32.0933 78.4222L18.4279 72.751C15.9175 71.7205 13.6366 70.2017 11.7177 68.2828C9.79884 66.3639 8.2801 64.0831 7.24956 61.5727L1.57838 47.9072C0.536397 45.3995 0 42.7106 0 39.9949C0 37.2793 0.536397 34.5904 1.57838 32.0826L7.23588 18.4172C8.27451 15.9094 9.79771 13.6311 11.7182 11.713C13.6387 9.7948 15.9188 8.2744 18.4279 7.23884L32.0933 1.56766C37.1564 -0.522554 42.8412 -0.522554 47.9043 1.56766ZM46.8396 6.92578L58.6056 11.8044C62.9129 13.6217 66.3303 17.0636 68.1167 21.3838L72.9816 33.1361C73.8837 35.3012 74.3482 37.6234 74.3482 39.9689C74.3482 42.3143 73.8837 44.6366 72.9816 46.8016L68.1167 58.5539C66.3145 62.8793 62.8763 66.3175 58.5509 68.1197L46.785 72.9846C42.4359 74.784 37.5506 74.784 33.2015 72.9846L21.4219 68.106C17.0965 66.3038 13.6583 62.8656 11.8561 58.5402L6.97748 46.7879C6.07539 44.6229 5.61094 42.3007 5.61094 39.9552C5.61094 37.6098 6.07539 35.2875 6.97748 33.1225L11.8424 21.3702C13.6446 17.0448 17.0828 13.6066 21.4082 11.8044L33.2425 6.92578C35.3979 6.03296 37.7081 5.57344 40.0411 5.57344C42.3741 5.57344 44.6842 6.03296 46.8396 6.92578Z" fill="#98772E"/>
<path fill-rule="evenodd" clip-rule="evenodd" d="M46.4008 8.71687L57.5518 13.3358C61.6721 15.0431 64.9457 18.3167 66.653 22.437L71.2719 33.5607C72.9794 37.6865 72.9794 42.3214 71.2719 46.4472L66.653 57.5709C65.8096 59.6122 64.5715 61.4669 63.0097 63.0287C61.4479 64.5905 59.5931 65.8286 57.5518 66.6721L46.4144 71.2773C44.374 72.1232 42.1868 72.5585 39.978 72.5585C37.7692 72.5585 35.5821 72.1232 33.5416 71.2773L22.4043 66.6721C18.2805 64.9652 15.0024 61.692 13.2894 57.5709L8.68413 46.4335C7.83832 44.3931 7.40295 42.2059 7.40295 39.9971C7.40295 37.7883 7.83832 35.6011 8.68413 33.5607L13.2894 22.437C14.9962 18.3133 18.2694 15.0352 22.3906 13.3221L33.5416 8.71687C35.5798 7.87145 37.7646 7.43628 39.9712 7.43628C42.1777 7.43628 44.3626 7.87145 46.4008 8.71687ZM60.2717 54.1381C60.6954 52.1567 61.16 50.2025 61.6383 48.2347C61.6836 48.1803 61.7055 48.1102 61.699 48.0397C61.6926 47.9692 61.6585 47.9042 61.6041 47.8589C61.5498 47.8136 61.4796 47.7917 61.4091 47.7981C61.3386 47.8045 61.2736 47.8387 61.2283 47.893C59.7798 49.3552 56.4181 51.8834 53.5757 51.8834H45.3764C45.067 51.9034 44.7566 51.9034 44.4472 51.8834C43.5862 51.815 43.0806 51.3641 43.0806 50.4485V49.2459V47.7974V46.0755V45.037C43.0806 44.9427 43.118 44.8524 43.1847 44.7857C43.2513 44.7191 43.3417 44.6816 43.4359 44.6816H46.005C47.9442 44.7071 49.8796 44.5053 51.7718 44.0804C53.7631 43.6586 55.6323 42.7894 57.238 41.5386C58.0477 40.9059 58.7201 40.1151 59.2143 39.2142C59.7084 38.3133 60.0141 37.3212 60.1125 36.2984C60.211 35.2756 60.1002 34.2435 59.7869 33.2649C59.4736 32.2863 58.9644 31.3817 58.2902 30.6062C57.0576 29.2796 55.5117 28.2835 53.7943 27.7092C51.9143 27.0552 49.948 26.6823 47.9591 26.6023H46.5926H45.3627C45.3011 26.6023 45.242 26.6267 45.1984 26.6703C45.1549 26.7139 45.1304 26.773 45.1304 26.8346V29.021C45.1303 29.0804 45.1529 29.1375 45.1936 29.1807C45.2342 29.2239 45.2898 29.2499 45.349 29.2534L46.5926 29.3217C47.7973 29.4766 48.9563 29.8816 49.9953 30.5106C50.7302 30.9478 51.3634 31.5367 51.8526 32.238C52.3418 32.9394 52.6758 33.737 52.8323 34.5776C52.9888 35.4183 52.9642 36.2827 52.7601 37.1131C52.556 37.9435 52.1772 38.7208 51.6488 39.3931C51.0803 40.1144 50.3722 40.7136 49.5669 41.155C48.7615 41.5965 47.8754 41.871 46.9616 41.9622C45.7111 42.1239 44.4507 42.197 43.1899 42.1809H34.8267H31.9159C31.8253 42.1809 31.7384 42.1449 31.6743 42.0808C31.6103 42.0168 31.5743 41.9298 31.5743 41.8392V29.5403C31.5743 29.4497 31.6103 29.3628 31.6743 29.2987C31.7384 29.2347 31.8253 29.1987 31.9159 29.1987H36.6715C36.7621 29.1987 36.849 29.2347 36.9131 29.2987C36.9771 29.3628 37.0131 29.4497 37.0131 29.5403V40.1857C37.0131 40.2437 37.0362 40.2993 37.0772 40.3403C37.1182 40.3813 37.1738 40.4044 37.2318 40.4044H42.821C42.8826 40.4044 42.9417 40.3799 42.9852 40.3363C43.0288 40.2927 43.0533 40.2337 43.0533 40.172V24.7574C43.0328 24.3842 43.0328 24.0101 43.0533 23.6369C43.096 23.2311 43.2021 22.8346 43.3676 22.4616C43.3812 22.4206 43.6545 21.915 43.6545 21.915C44.1949 21.2107 44.8739 20.6246 45.6497 20.1931C45.6924 20.1695 45.7259 20.1324 45.7451 20.0875C45.7642 20.0426 45.7677 19.9926 45.7552 19.9455C45.7426 19.8983 45.7146 19.8568 45.6757 19.8273C45.6368 19.7979 45.5892 19.7824 45.5404 19.7832H34.608C34.5603 19.7875 34.5151 19.8065 34.4786 19.8375C34.4421 19.8686 34.4161 19.9101 34.4041 19.9565C34.3922 20.0029 34.3948 20.0518 34.4118 20.0966C34.4287 20.1414 34.459 20.1799 34.4987 20.2068C35.2628 20.6158 35.9222 21.1957 36.4255 21.9013C36.5069 22.0166 36.5757 22.1403 36.6305 22.2703V22.3796C36.6794 22.4939 36.716 22.613 36.7398 22.7349C36.8642 23.3465 36.9237 23.9694 36.9175 24.5934V26.3699C36.9175 26.4619 36.882 26.5502 36.8183 26.6165C36.7546 26.6827 36.6677 26.7217 36.5758 26.7252H23.1564C23.1075 26.727 23.0605 26.7442 23.022 26.7742C22.9835 26.8043 22.9555 26.8457 22.9418 26.8926C22.9282 26.9395 22.9297 26.9896 22.9462 27.0356C22.9626 27.0816 22.9931 27.1212 23.0334 27.1489C23.7575 27.5415 24.3834 28.0928 24.8645 28.7614C24.9551 28.8902 25.0329 29.0275 25.0969 29.1714C25.0949 29.1987 25.0949 29.2261 25.0969 29.2534C25.146 29.3828 25.1871 29.5151 25.2199 29.6496C25.345 30.229 25.4091 30.8198 25.4111 31.4125V55.6687C25.4023 56.2474 25.3382 56.824 25.2199 57.3905C25.1826 57.5209 25.1369 57.6487 25.0832 57.7732C25.0896 57.8001 25.0896 57.8282 25.0832 57.8551C25.0139 57.9919 24.9363 58.1242 24.8509 58.2515C24.3698 58.9201 23.7438 59.4713 23.0197 59.864C22.974 59.8884 22.9378 59.9273 22.9167 59.9747C22.8957 60.022 22.8911 60.075 22.9036 60.1253C22.9162 60.1756 22.9452 60.2202 22.9861 60.2521C23.0269 60.284 23.0772 60.3013 23.129 60.3013H33.8974C33.9505 60.3046 34.003 60.2896 34.0463 60.2589C34.0897 60.2281 34.1212 60.1835 34.1356 60.1323C34.1499 60.0812 34.1464 60.0266 34.1254 59.9778C34.1045 59.929 34.0674 59.8888 34.0204 59.864C33.7734 59.7302 33.5359 59.5796 33.3098 59.413C32.4621 58.7843 31.8584 57.8813 31.6016 56.8576C31.5321 56.4742 31.4955 56.0856 31.4923 55.696V45.1053C31.4923 45.0147 31.5283 44.9278 31.5923 44.8637C31.6564 44.7996 31.7433 44.7636 31.8339 44.7636H36.5485C36.6403 44.7672 36.7272 44.8062 36.7909 44.8724C36.8547 44.9387 36.8902 45.027 36.8901 45.119V49.8882C36.8873 50.4853 36.8232 51.0806 36.6988 51.6647C36.6661 51.7947 36.625 51.9226 36.5758 52.0473V52.1293C36.5066 52.2704 36.429 52.4073 36.3435 52.5393C35.8624 53.2079 35.2364 53.7591 34.5123 54.1518C34.4721 54.1795 34.4416 54.2191 34.4251 54.2651C34.4087 54.3111 34.4072 54.3612 34.4208 54.4081C34.4344 54.455 34.4625 54.4964 34.501 54.5264C34.5395 54.5565 34.5865 54.5736 34.6353 54.5754H59.7115C59.8398 54.5737 59.964 54.5301 60.0652 54.4511C60.1664 54.3721 60.2389 54.2622 60.2717 54.1381Z" fill="#98772E"/>
</svg>
