<?xml version="1.0" standalone="no"?>
<!DOCTYPE svg PUBLIC "-//W3C//DTD SVG 1.1//EN" "http://www.w3.org/Graphics/SVG/1.1/DTD/svg11.dtd" >
<svg xmlns="http://www.w3.org/2000/svg" xmlns:xlink="http://www.w3.org/1999/xlink" version="1.1">
<metadata>
Created by FontForge 20201107 at Fri Aug 23 08:19:07 2024
 By 
Copyright (c) 2022 by Rene Bieder. All rights reserved. Viet hoa boi STYLEno.1 Fonts
</metadata>
<defs>
<font id="SVN-RBVitruvDisplay-SemiBoldIt" horiz-adv-x="1228" >
  <font-face 
    font-family="SVN-RB Vitruv Display SmB"
    font-weight="600"
    font-style="italic"
    font-stretch="semi-condensed"
    units-per-em="2048"
    panose-1="0 0 7 6 0 0 0 0 0 0"
    ascent="1638"
    descent="-410"
    x-height="1143"
    cap-height="1434"
    bbox="-492 -819 2605 2329"
    underline-thickness="102"
    underline-position="-204"
    slope="-12"
    unicode-range="U+000D-2715"
  />
<missing-glyph horiz-adv-x="1734" 
d="M1118 248q75 0 121.5 48.5t46.5 127.5v104q0 23 -22 23h-725q-23 0 -23 -23v-41q0 -22 23 -22h389q22 0 22 -23v-18q0 -79 46.5 -127.5t121.5 -48.5zM477 760l27 -27q16 -19 31 0l100 101q18 15 33 0l100 -101q16 -17 33 0l26 27q15 16 0 31l-100 100q-17 17 0 33
l100 100q15 18 0 33l-26 26q-17 17 -33 0l-100 -100q-15 -18 -33 0l-100 100q-15 15 -31 0l-27 -26q-17 -17 0 -33l101 -100q12 -16 0 -31l-101 -102q-15 -15 0 -31zM973 760l26 -27q17 -17 33 0l101 101q15 15 32 0l101 -101q15 -18 30 0l27 27q19 16 0 31l-100 100
q-17 17 0 33l100 100q17 16 0 33l-27 26q-15 15 -30 0l-101 -100q-17 -17 -32 0l-101 100q-16 17 -33 0l-26 -26q-15 -15 0 -33l100 -100q15 -16 0 -31l-100 -102q-15 -15 0 -31zM899 1497q350 0 564 -215.5t214 -568.5q0 -350 -214 -564.5t-564 -214.5q-229 0 -405.5 97
t-273.5 274t-97 408q0 171 55 316t154.5 248.5t245.5 161.5t321 58zM1118 344q-69 0 -69 82v39h139v-39q0 -41 -15.5 -61.5t-54.5 -20.5z" />
    <glyph glyph-name="f_b" unicode="fb" horiz-adv-x="1810" 
d="M1073 16q121 0 244 205q83 135 137.5 303.5t54.5 288.5q0 129 -90 129q-42 0 -95 -42.5t-117.5 -134.5t-139.5 -266t-145 -407q83 -76 151 -76zM590 1122h330l104 383q-66 82 -156 82t-148 -99t-130 -366zM1602 1143q202 0 202 -266q0 -129 -41 -260.5t-116.5 -244.5
t-174 -201.5t-221.5 -139.5t-250 -51q-166 0 -362 112l268 989h-329l-240 -891q-50 -188 -150 -315q-98 -128 -218 -196t-238 -68q-95 0 -149 37.5t-54 93.5q0 45 35 88.5t110 73.5q17 -106 63.5 -166t112.5 -60q17 0 30 6.5t26 26.5t23 40.5t25 66.5t26 85.5t32 114.5
l285 1063h-147l10 41l153 19q77 227 267 372.5t411 145.5q152 0 213 -68l123 27h4l-309 -1143q22 56 44 105.5t57.5 120t71 128t84 118.5t96.5 102t107.5 67.5t119.5 26.5z" />
    <glyph glyph-name="f_f" unicode="ff" horiz-adv-x="1263" 
d="M625 18l288 1063h-335l-240 -891q-45 -162 -125 -278q19 -102 85 -172t140 -70q50 0 93.5 79.5t93.5 268.5zM868 1587q-90 0 -148 -99t-130 -366h336q47 152 149 283q-25 81 -80.5 131.5t-126.5 50.5zM1513 1647q95 0 149 -37.5t54 -93.5q0 -98 -145 -162
q-17 105 -61.5 165t-102.5 60q-41 0 -70 -40t-55 -134l-80 -283h232l-11 -41h-231l-240 -891q-74 -270 -254.5 -424.5t-388.5 -154.5q-92 0 -166.5 40t-74.5 97q-161 -137 -336 -137q-95 0 -149 37.5t-54 93.5q0 45 35 88.5t110 73.5q17 -106 63.5 -166t112.5 -60
q17 0 30 6.5t26 26.5t23 40.5t25 66.5t26 85.5t32 114.5l285 1063h-147l10 41l153 19q77 227 267 372.5t411 145.5q100 0 162 -30t76 -79q142 97 284 97z" />
    <glyph glyph-name="f_f_b" unicode="ffb" horiz-adv-x="2418" 
d="M621 18l288 1063h-331l-240 -891q-38 -152 -127 -282q15 -86 78.5 -162t144.5 -76q49 0 93 80.5t94 267.5zM1681 16q121 0 244 205q83 135 138 303.5t55 288.5q0 129 -88 129q-33 0 -73 -24.5t-91.5 -87t-104.5 -155.5t-113.5 -243.5t-117.5 -339.5q83 -76 151 -76z
M868 1587q-90 0 -148 -99t-130 -366h328q49 162 157 285q-27 81 -82 130.5t-125 49.5zM1198 1122h330l104 383q-66 82 -155 82q-88 0 -148 -100.5t-131 -364.5zM2210 1143q203 0 203 -266q0 -129 -41 -260t-116 -244.5t-173 -202t-221 -139.5t-250 -51q-169 0 -365 112
l269 989h-328l-242 -891q-54 -192 -151 -315q-100 -129 -227.5 -196.5t-262.5 -67.5q-93 0 -166 38t-76 95q-160 -133 -331 -133q-95 0 -149 37.5t-54 93.5q0 45 35 88.5t110 73.5q17 -106 63.5 -166t112.5 -60q17 0 30 6.5t26 26.5t23 40.5t25 66.5t26 85.5t32 114.5
l285 1063h-147l10 41l153 19q77 227 267 372.5t411 145.5q100 0 163 -32.5t77 -82.5q180 115 368 115q152 0 213 -68l123 27h4l-309 -1143q22 56 44 105.5t57.5 120t71 128t84 118.5t96.5 102t107.5 67.5t119.5 26.5z" />
    <glyph glyph-name="f_f_h" unicode="ffh" horiz-adv-x="2484" 
d="M621 18l288 1063h-331l-240 -891q-38 -152 -127 -282q15 -86 78.5 -162t144.5 -76q49 0 93 80.5t94 267.5zM868 1587q-90 0 -148 -99t-130 -366h328q49 162 157 285q-27 81 -82 130.5t-125 49.5zM1198 1122h328l104 385q-64 80 -153 80q-88 0 -148 -100.5t-131 -364.5z
M2456 432l24 -16q-114 -207 -236.5 -321.5t-236.5 -114.5q-67 0 -98 46t-11 126l185 686q27 106 -49 106q-78 0 -172 -119q-97 -122 -191 -336.5t-168 -488.5h-278l291 1081h-328l-242 -891q-54 -192 -151 -315q-100 -129 -227.5 -196.5t-262.5 -67.5q-93 0 -166 38t-76 95
q-160 -133 -331 -133q-95 0 -149 37.5t-54 93.5q0 45 35 88.5t110 73.5q17 -106 63.5 -166t112.5 -60q17 0 30 6.5t26 26.5t23 40.5t25 66.5t26 85.5t32 114.5l285 1063h-147l10 41l153 19q77 227 267 372.5t411 145.5q100 0 163 -32.5t77 -82.5q180 115 368 115
q155 0 213 -68l121 27h4l-303 -1131q129 316 279.5 486t308.5 170q93 0 138 -69.5t16 -182.5l-209 -791q67 43 142.5 129.5t146.5 202.5z" />
    <glyph glyph-name="f_f_i" unicode="ffi" horiz-adv-x="1849" 
d="M621 18l288 1063h-331l-240 -891q-38 -152 -127 -282q15 -86 78.5 -162t144.5 -76q49 0 93 80.5t94 267.5zM868 1587q-90 0 -148 -99t-130 -366h330q51 167 155 283q-25 81 -80.5 131.5t-126.5 50.5zM1200 1122h592l-274 -1024q72 52 148.5 137.5t141.5 196.5l25 -16
q-114 -207 -236.5 -321.5t-236.5 -114.5q-67 0 -98 46t-11 126l252 929h-315l-242 -891q-54 -192 -151 -315q-100 -129 -227.5 -196.5t-262.5 -67.5q-93 0 -166 38t-76 95q-160 -133 -331 -133q-95 0 -149 37.5t-54 93.5q0 45 35 88.5t110 73.5q17 -106 63.5 -166t112.5 -60
q17 0 30 6.5t26 26.5t23 40.5t25 66.5t26 85.5t32 114.5l285 1063h-147l10 41l153 19q77 227 267 372.5t411 145.5q102 0 164.5 -32.5t75.5 -84.5q179 117 371 117q117 0 180 -40t63 -103q0 -57 -51.5 -112.5t-132.5 -84.5q-5 108 -58 182t-137 74q-88 0 -139.5 -90
t-126.5 -363z" />
    <glyph glyph-name="f_f_j" unicode="ffj" horiz-adv-x="1841" 
d="M621 18l288 1063h-331l-240 -891q-38 -152 -127 -282q15 -86 78.5 -162t144.5 -76q49 0 93 80.5t94 267.5zM868 1587q-90 0 -148 -99t-130 -366h330q51 167 155 283q-25 81 -80.5 131.5t-126.5 50.5zM1200 1122h653l-245 -932q-50 -188 -150 -315q-98 -128 -218.5 -196
t-238.5 -68q-96 0 -150 37.5t-54 93.5q0 45 35.5 88.5t109.5 73.5q19 -106 65.5 -166t112.5 -60q47 0 77 68t83 272l283 1063h-375l-242 -891q-54 -192 -151 -315q-100 -129 -227.5 -196.5t-262.5 -67.5q-93 0 -166 38t-76 95q-160 -133 -331 -133q-95 0 -149 37.5t-54 93.5
q0 45 35 88.5t110 73.5q17 -106 63.5 -166t112.5 -60q17 0 30 6.5t26 26.5t23 40.5t25 66.5t26 85.5t32 114.5l285 1063h-147l10 41l153 19q77 227 267 372.5t411 145.5q102 0 164.5 -32.5t75.5 -84.5q179 117 371 117q117 0 180 -40t63 -103q0 -57 -51.5 -112.5
t-132.5 -84.5q-5 108 -58 182t-137 74q-88 0 -139.5 -90t-126.5 -363z" />
    <glyph glyph-name="f_f_k" unicode="ffk" horiz-adv-x="2471" 
d="M621 18l288 1063h-331l-240 -891q-38 -152 -127 -282q15 -86 78.5 -162t144.5 -76q49 0 93 80.5t94 267.5zM868 1587q-90 0 -148 -99t-130 -366h328q49 162 157 285q-27 81 -82 130.5t-125 49.5zM1198 1122h328l104 385q-64 80 -153 80q-88 0 -148 -100.5t-131 -364.5z
M2034 578l102 -484q155 111 293 338l25 -16q-115 -206 -237.5 -321t-236.5 -115q-63 0 -96 36.5t-47 118.5l-59 338q200 113 299.5 229t99.5 218q0 67 -72 67q-149 0 -313 -266t-289 -721h-278l291 1081h-328l-242 -891q-54 -192 -151 -315q-100 -129 -227.5 -196.5
t-262.5 -67.5q-93 0 -166 38t-76 95q-160 -133 -331 -133q-95 0 -149 37.5t-54 93.5q0 45 35 88.5t110 73.5q17 -106 63.5 -166t112.5 -60q17 0 30 6.5t26 26.5t23 40.5t25 66.5t26 85.5t32 114.5l285 1063h-147l10 41l153 19q77 227 267 372.5t411 145.5q100 0 163 -32.5
t77 -82.5q180 115 368 115q155 0 213 -68l121 27h4l-288 -1079q142 302 312.5 452t342.5 150q83 0 128.5 -33t45.5 -98q0 -93 -113.5 -206t-330.5 -226z" />
    <glyph glyph-name="f_f_l" unicode="ffl" horiz-adv-x="1859" 
d="M621 18l288 1063h-331l-240 -891q-38 -152 -127 -282q15 -86 78.5 -162t144.5 -76q49 0 93 80.5t94 267.5zM868 1587q-90 0 -148 -99t-130 -366h328q49 162 157 285q-27 81 -82 130.5t-125 49.5zM1198 1122h330l104 383q-66 82 -155 82q-88 0 -148 -100.5t-131 -364.5z
M1933 1618h4l-405 -1518q67 43 142.5 129.5t146.5 202.5l24 -16q-114 -207 -236.5 -321.5t-236.5 -114.5q-67 0 -97.5 46t-10.5 126l252 929h-328l-242 -891q-54 -192 -151 -315q-100 -129 -227.5 -196.5t-262.5 -67.5q-93 0 -166 38t-76 95q-160 -133 -331 -133
q-95 0 -149 37.5t-54 93.5q0 45 35 88.5t110 73.5q17 -106 63.5 -166t112.5 -60q17 0 30 6.5t26 26.5t23 40.5t25 66.5t26 85.5t32 114.5l285 1063h-147l10 41l153 19q77 227 267 372.5t411 145.5q100 0 163 -32.5t77 -82.5q180 115 368 115q155 0 213 -68z" />
    <glyph glyph-name="f_f_t" unicode="fft" horiz-adv-x="1951" 
d="M623 18l288 1063h-333l-240 -891q-34 -137 -125 -280q10 -54 38.5 -107.5t78.5 -93t106 -39.5q49 0 93 80.5t94 267.5zM868 1587q-90 0 -148 -99t-130 -366h336q47 152 149 283q-25 81 -80.5 131.5t-126.5 50.5zM1806 1122h267l-9 -41h-268l-270 -1028q190 91 372 379
l25 -16q-121 -208 -247.5 -322t-245.5 -114q-89 0 -133 55.5t-13 175.5l232 870h-326l-242 -891q-54 -192 -151 -315q-100 -129 -227.5 -196.5t-262.5 -67.5q-92 0 -165 39t-76 96q-163 -135 -334 -135q-95 0 -149 37.5t-54 93.5q0 45 35 88.5t110 73.5q17 -106 63.5 -166
t112.5 -60q17 0 30 6.5t26 26.5t23 40.5t25 66.5t26 85.5t32 114.5l285 1063h-147l10 41l153 19q77 227 267 372.5t411 145.5q100 0 162 -30t76 -79q142 97 282 97q96 0 150.5 -37.5t54.5 -93.5q0 -96 -145 -162q-17 105 -61.5 165t-102.5 60q-41 0 -69 -39.5t-58 -134.5
l-78 -283h201l436 224h29z" />
    <glyph glyph-name="f_h" unicode="fh" horiz-adv-x="1875" 
d="M590 1122h328l104 385q-64 80 -154 80t-148 -99t-130 -366zM1847 432l25 -16q-114 -207 -236.5 -321.5t-236.5 -114.5q-67 0 -98 46t-11 126l185 686q27 106 -50 106q-78 0 -172 -119q-97 -122 -190.5 -336.5t-167.5 -488.5h-279l291 1081h-329l-240 -891
q-50 -188 -150 -315q-98 -128 -218 -196t-238 -68q-95 0 -149 37.5t-54 93.5q0 45 35 88.5t110 73.5q17 -106 63.5 -166t112.5 -60q17 0 30 6.5t26 26.5t23 40.5t25 66.5t26 85.5t32 114.5l285 1063h-147l10 41l153 19q77 227 267 372.5t411 145.5q148 0 213 -68l119 27h4
l-299 -1120q129 311 279 478t307 167q93 0 137 -69.5t14 -182.5l-206 -791q139 90 288 332z" />
    <glyph glyph-name="f_i" unicode="fi" horiz-adv-x="1249" 
d="M1192 1122l-274 -1024q154 110 290 334l23 -16q-114 -207 -236.5 -321.5t-236.5 -114.5q-66 0 -97.5 46.5t-9.5 125.5l250 929h-323l-240 -891q-50 -188 -150 -315q-98 -128 -218 -196t-238 -68q-95 0 -149 37.5t-54 93.5q0 45 35 88.5t110 73.5q17 -106 63.5 -166
t112.5 -60q17 0 30 6.5t26 26.5t23 40.5t25 66.5t26 85.5t32 114.5l285 1063h-147l10 41l153 19q76 229 267 373.5t411 144.5q117 0 180.5 -40t63.5 -103q0 -57 -51.5 -112.5t-132.5 -84.5q-5 108 -58 182t-137 74q-61 0 -102 -41t-78 -133.5t-88 -278.5h604z" />
    <glyph glyph-name="f_j" unicode="fj" horiz-adv-x="1232" 
d="M588 1122h659l-248 -932q-50 -190 -149 -315q-98 -128 -218.5 -196t-238.5 -68q-95 0 -149 37.5t-54 93.5q0 45 35.5 88.5t110.5 73.5q17 -106 63.5 -166t112.5 -60q17 0 30 6.5t26 26.5t23 40.5t25 66.5t26 85.5t32 114.5l280 1063h-376l-240 -891q-50 -188 -150 -315
q-98 -128 -218 -196t-238 -68q-95 0 -149 37.5t-54 93.5q0 45 35 88.5t110 73.5q17 -106 63.5 -166t112.5 -60q17 0 30 6.5t26 26.5t23 40.5t25 66.5t26 85.5t32 114.5l285 1063h-147l10 41l153 19q76 229 267 373.5t411 144.5q117 0 180.5 -40t63.5 -103
q0 -57 -51.5 -112.5t-132.5 -84.5q-5 108 -58 182t-137 74q-61 0 -102 -41t-78 -133.5t-88 -278.5z" />
    <glyph glyph-name="f_k" unicode="fk" horiz-adv-x="1863" 
d="M590 1122h328l104 385q-64 80 -154 80t-148 -99t-130 -366zM1425 580l103 -486q155 111 293 338l24 -16q-115 -206 -237.5 -321t-235.5 -115q-63 0 -96 36.5t-47 118.5l-60 338q200 113 300 229t100 218q0 67 -72 67q-152 0 -314.5 -264.5t-287.5 -722.5h-279l291 1081
h-329l-240 -891q-50 -188 -150 -315q-98 -128 -218 -196t-238 -68q-95 0 -149 37.5t-54 93.5q0 45 35 88.5t110 73.5q17 -106 63.5 -166t112.5 -60q17 0 30 6.5t26 26.5t23 40.5t25 66.5t26 85.5t32 114.5l285 1063h-147l10 41l153 19q77 227 267 372.5t411 145.5
q148 0 213 -68l119 27h4l-289 -1081q143 303 313.5 453.5t342.5 150.5q174 0 174 -131q0 -93 -113 -205t-330 -225z" />
    <glyph glyph-name="f_l" unicode="fl" horiz-adv-x="1251" 
d="M590 1122h330l104 383q-66 82 -156 82t-148 -99t-130 -366zM1327 1618h4l-407 -1518q137 88 288 332l25 -16q-114 -207 -236.5 -321.5t-236.5 -114.5q-67 0 -98 46t-11 126l252 929h-329l-240 -891q-50 -188 -150 -315q-98 -128 -218 -196t-238 -68q-95 0 -149 37.5
t-54 93.5q0 45 35 88.5t110 73.5q17 -106 63.5 -166t112.5 -60q17 0 30 6.5t26 26.5t23 40.5t25 66.5t26 85.5t32 114.5l285 1063h-147l10 41l153 19q77 227 267 372.5t411 145.5q152 0 213 -68z" />
    <glyph glyph-name="f_t" unicode="ft" horiz-adv-x="1327" 
d="M1448 1122l-8 -41h-269l-270 -1026q192 91 373 377l24 -16q-121 -208 -248.5 -322t-246.5 -114q-89 0 -132 55.5t-12 175.5l232 870h-313l-240 -891q-50 -188 -150 -315q-98 -128 -218 -196t-238 -68q-95 0 -149 37.5t-54 93.5q0 45 35 88.5t110 73.5q17 -106 63.5 -166
t112.5 -60q17 0 30 6.5t26 26.5t23 40.5t25 66.5t26 85.5t32 114.5l285 1063h-147l10 41l159 19q42 119 109 216.5t145.5 160t162.5 96t165 33.5q95 0 149 -37.5t54 -93.5q0 -97 -146 -162q-17 105 -61 165t-102 60q-41 0 -70 -40t-55 -134l-80 -283h188l436 224h27
l-59 -224h266z" />
    <glyph glyph-name=".notdef" horiz-adv-x="1734" 
d="M1118 248q75 0 121.5 48.5t46.5 127.5v104q0 23 -22 23h-725q-23 0 -23 -23v-41q0 -22 23 -22h389q22 0 22 -23v-18q0 -79 46.5 -127.5t121.5 -48.5zM477 760l27 -27q16 -19 31 0l100 101q18 15 33 0l100 -101q16 -17 33 0l26 27q15 16 0 31l-100 100q-17 17 0 33
l100 100q15 18 0 33l-26 26q-17 17 -33 0l-100 -100q-15 -18 -33 0l-100 100q-15 15 -31 0l-27 -26q-17 -17 0 -33l101 -100q12 -16 0 -31l-101 -102q-15 -15 0 -31zM973 760l26 -27q17 -17 33 0l101 101q15 15 32 0l101 -101q15 -18 30 0l27 27q19 16 0 31l-100 100
q-17 17 0 33l100 100q17 16 0 33l-27 26q-15 15 -30 0l-101 -100q-17 -17 -32 0l-101 100q-16 17 -33 0l-26 -26q-15 -15 0 -33l100 -100q15 -16 0 -31l-100 -102q-15 -15 0 -31zM899 1497q350 0 564 -215.5t214 -568.5q0 -350 -214 -564.5t-564 -214.5q-229 0 -405.5 97
t-273.5 274t-97 408q0 171 55 316t154.5 248.5t245.5 161.5t321 58zM1118 344q-69 0 -69 82v39h139v-39q0 -41 -15.5 -61.5t-54.5 -20.5z" />
    <glyph glyph-name="uni0000" horiz-adv-x="0" 
 />
    <glyph glyph-name="uni0000" horiz-adv-x="0" 
 />
    <glyph glyph-name="uni000D" unicode="&#xd;" horiz-adv-x="512" 
 />
    <glyph glyph-name="space" unicode=" " horiz-adv-x="417" 
 />
    <glyph glyph-name="exclam" unicode="!" horiz-adv-x="528" 
d="M262 506h-16l10 686q-3 69 11 121.5t40.5 82t57.5 44t67 14.5q98 0 122.5 -86.5t-30.5 -200.5zM182 -12q-68 0 -112.5 45t-44.5 112q0 68 44.5 115t112.5 47t114 -47t46 -115q0 -66 -45.5 -111.5t-114.5 -45.5z" />
    <glyph glyph-name="quotedbl" unicode="&#x22;" horiz-adv-x="671" 
d="M285 1061h-4l-29 360q-10 104 30.5 159.5t106.5 55.5q86 0 107.5 -67t-29.5 -158zM623 1061h-5l-28 360q-11 104 29.5 159.5t105.5 55.5q89 0 109.5 -67t-31.5 -158z" />
    <glyph glyph-name="numbersign" unicode="#" horiz-adv-x="1216" 
d="M821 872h-256l-110 -305h256zM1083 567v-139h-266l-162 -448l-139 49l143 399h-253l-162 -448l-140 49l144 399h-168v139h219l111 305h-217v138h266l162 448l139 -49l-146 -399h256l162 448l139 -49l-145 -399h170v-138h-219l-111 -305h217z" />
    <glyph glyph-name="dollar" unicode="$" horiz-adv-x="1062" 
d="M739 262q0 83 -45 143.5t-131 124.5l-110 -510q32 -4 47 -4q102 0 170.5 73t68.5 173zM600 901l111 516q-6 2 -17 2h-18q-116 0 -184 -67t-68 -172q0 -86 45.5 -150.5t130.5 -128.5zM778 1735h41l-59 -283q192 -16 348 -119l-41 -301h-23q-28 160 -106.5 256.5
t-187.5 122.5l-113 -534q110 -79 156 -115q87 -67 134.5 -147t47.5 -193q0 -191 -151.5 -316.5t-372.5 -125.5h-7l-59 -281h-41l59 283q-108 6 -216 44.5t-185 100.5l31 301h20q41 -148 141 -257t220 -142l112 526q-76 55 -153 117q-183 141 -183 346q0 103 42 187
t113 137.5t163 82.5t194 29h17z" />
    <glyph glyph-name="percent" unicode="%" horiz-adv-x="1878" 
d="M600 1362q-52 0 -99.5 -58.5t-76.5 -157t-29 -208.5q0 -152 92 -152q52 0 99.5 59t76.5 157.5t29 207.5q0 152 -92 152zM262 -39l1243 1518h152l-1247 -1518h-148zM477 690q-138 0 -228.5 78.5t-90.5 218.5q0 111 40.5 203t106.5 149t145 88t160 31q137 0 228.5 -78
t91.5 -217q0 -112 -41 -204.5t-107.5 -149.5t-145.5 -88t-159 -31zM1317 78q52 0 99.5 58.5t76.5 157t29 208.5q0 151 -90 151q-53 0 -100.5 -59t-76 -157t-28.5 -208q0 -151 90 -151zM1442 750q137 0 228 -79t91 -218q0 -111 -41 -203t-107 -149t-145.5 -88t-160.5 -31
q-137 0 -228.5 77.5t-91.5 216.5q0 90 27 168t72.5 133.5t104.5 95t123 58.5t128 19z" />
    <glyph glyph-name="ampersand" unicode="&#x26;" horiz-adv-x="1523" 
d="M1585 1069q0 -80 -22.5 -144t-58.5 -107t-90.5 -76.5t-109 -52.5t-122.5 -34q8 -36 8 -88q0 -86 -30.5 -170.5t-90.5 -159.5t-141.5 -132.5t-191.5 -91t-232 -33.5q-225 0 -352 110t-127 277q0 170 129 302t387 205q-110 39 -180 108t-70 165q0 130 127.5 218.5
t339.5 88.5q153 0 246.5 -48.5t93.5 -121.5q0 -34 -29 -73t-86 -74q-20 122 -85 204t-161 82q-88 0 -133 -67.5t-45 -171.5q0 -77 34 -151t95 -120q90 19 141 19q80 0 80 -43q0 -51 -139 -51q-78 0 -158 18q-135 -58 -201.5 -160t-66.5 -229q0 -161 98 -256.5t260 -95.5
q188 0 317.5 130.5t129.5 319.5q0 48 -8 84q-52 -9 -166 -22q-175 -21 -228 -42q-65 -25 -65 -71q0 -80 201 -133q-11 -54 -47.5 -85.5t-90.5 -31.5q-46 0 -78 50t-32 130q0 59 17.5 110.5t46 90t73 72t88.5 56.5t104 44t108.5 34t111.5 28q24 5 62.5 13t61 12.5t54 11.5
t50.5 12.5t42.5 13t36.5 15t25.5 17t18 20t5.5 22.5q0 98 -203 143q4 56 36 85.5t83 29.5q61 0 95 -53t34 -152z" />
    <glyph glyph-name="quotesingle" unicode="'" horiz-adv-x="333" 
d="M285 1061h-4l-29 360q-10 104 30.5 159.5t106.5 55.5q86 0 107.5 -67t-29.5 -158z" />
    <glyph glyph-name="parenleft" unicode="(" horiz-adv-x="774" 
d="M133 412q0 325 175 633t462 532h188q-124 -108 -223 -239.5t-161.5 -258t-104 -260t-58 -246t-16.5 -215.5q0 -201 41 -358.5t135 -288.5h-178q-124 133 -192 319t-68 382z" />
    <glyph glyph-name="parenright" unicode=")" horiz-adv-x="774" 
d="M713 877q0 -325 -175 -633.5t-462 -532.5h-189q124 108 223 239.5t161.5 258t104 259.5t58.5 246t17 216q0 200 -41.5 358t-135.5 289h179q124 -133 192 -318.5t68 -381.5z" />
    <glyph glyph-name="asterisk" unicode="*" horiz-adv-x="1048" 
d="M1112 1196q4 -47 -27 -76.5t-86 -34.5h-16q-57 0 -164 31t-151 37q21 -30 102.5 -120t106.5 -148q20 -49 6.5 -91t-56.5 -59q-19 -8 -41 -8q-64 0 -100 76q-23 56 -31.5 173.5t-17.5 160.5q-18 -27 -76 -134.5t-104 -150.5q-40 -37 -84 -37q-43 0 -74 31
q-32 36 -27.5 78.5t43.5 79.5q47 44 160 94t141 67q-41 12 -158.5 29t-172.5 45q-47 25 -63.5 65.5t3.5 81.5q31 54 88 54q33 0 66 -17q42 -21 84 -60.5t88 -88.5t80 -76q1 45 -8 115.5t-13 112t6 108.5q9 45 36.5 71.5t64.5 26.5q16 0 24 -2q47 -10 68 -47.5t10 -91.5
q-13 -61 -74.5 -164.5t-76.5 -136.5q33 9 145.5 54t175.5 48q54 4 87.5 -22.5t35.5 -73.5z" />
    <glyph glyph-name="plus" unicode="+" horiz-adv-x="1218" 
d="M653 1214h176l-79 -376h378l-38 -179h-377l-80 -376h-176l80 376h-379l41 179h374z" />
    <glyph glyph-name="comma" unicode="," horiz-adv-x="448" 
d="M-127 -256l-2 12q106 36 172 99t66 135q0 106 -138 155q1 73 50.5 117.5t117.5 44.5q66 0 111 -44.5t45 -123.5q0 -74 -40 -142t-104.5 -116.5t-135 -82.5t-142.5 -54z" />
    <glyph glyph-name="hyphen" unicode="-" horiz-adv-x="737" 
d="M618 514h-524l49 221h525z" />
    <glyph glyph-name="period" unicode="." horiz-adv-x="442" 
d="M133 -12q-67 0 -112.5 45.5t-45.5 111.5q0 68 45.5 115t112.5 47q69 0 115.5 -47t46.5 -115q0 -66 -46.5 -111.5t-115.5 -45.5z" />
    <glyph glyph-name="slash" unicode="/" horiz-adv-x="886" 
d="M1057 1577l-965 -1866h-201l963 1866h203z" />
    <glyph glyph-name="zero" unicode="0" horiz-adv-x="1294" 
d="M539 18q69 0 131 56q97 85 174.5 280t115 399.5t37.5 368.5q0 293 -176 293q-80 0 -154.5 -78.5t-128.5 -202.5t-95.5 -272.5t-62 -293t-20.5 -259.5q0 -291 179 -291zM535 -20q-195 0 -322 152.5t-127 393.5q0 162 59 328.5t157 299t237 216.5t288 84q198 0 322.5 -151
t124.5 -396q0 -131 -37.5 -266t-107 -252.5t-159.5 -209.5t-203.5 -145.5t-231.5 -53.5z" />
    <glyph glyph-name="one" unicode="1" horiz-adv-x="780" 
d="M637 0h-703l9 35l69 8q69 7 109 30.5t51 76.5l211 983q13 66 -5 87t-87 21h-131l4 23l555 190h18l-276 -1304q-11 -53 19 -76.5t98 -30.5l67 -8z" />
    <glyph glyph-name="two" unicode="2" horiz-adv-x="1093" 
d="M821 0h-936l4 20q151 120 269 223t233 218t190 214t121 200.5t46 189.5q0 104 -58.5 159.5t-157.5 55.5q-205 0 -337 -215l-15 8q107 187 251 283t306 96q86 0 153 -26t107 -69.5t60 -96t20 -109.5q0 -90 -54 -190.5t-136 -189t-202.5 -186.5t-227.5 -171.5t-238 -155.5
v-4h402q241 0 380 199h21z" />
    <glyph glyph-name="three" unicode="3" horiz-adv-x="1085" 
d="M418 -20q-194 0 -318.5 68t-124.5 163q0 90 107 151q29 -63 69 -120.5t89.5 -107.5t110 -79.5t120.5 -29.5q101 0 167.5 93t66.5 220q0 138 -86.5 210.5t-239.5 72.5q-57 0 -133 -13l-6 25q79 40 143.5 78.5t133.5 89.5t115.5 101.5t76.5 111.5t30 123q0 82 -46 120.5
t-128 38.5q-107 0 -205.5 -62.5t-169.5 -168.5l-14 6q94 171 245 277t329 106q131 0 209.5 -61t78.5 -172q0 -193 -256 -326q-122 -66 -243 -115v-4q210 6 330 -85.5t120 -256.5q0 -87 -34 -162.5t-91 -128t-131 -90t-154 -55.5t-161 -18z" />
    <glyph glyph-name="four" unicode="4" horiz-adv-x="1155" 
d="M1100 369h-209l-47 -219q-11 -53 13.5 -76.5t80.5 -30.5l55 -8l-8 -35h-631l6 35l58 8q60 7 94 30t45 77l47 219h-606l-14 37l790 1028h297v-4l-1032 -1020h573l111 516l303 84l-127 -600h209z" />
    <glyph glyph-name="five" unicode="5" horiz-adv-x="1077" 
d="M1219 1505l-119 -325h-694l-99 -262q143 -3 260.5 -31t207.5 -81t140 -139t50 -198q0 -211 -163 -350t-421 -139q-181 0 -300.5 63.5t-119.5 163.5q0 46 25 85.5t73 65.5q30 -59 74.5 -115t98.5 -104t119 -77t128 -29q59 0 106.5 24.5t75.5 65t43 88t15 96.5
q0 156 -144.5 247.5t-416.5 92.5l303 787h520q171 0 221 71h17z" />
    <glyph glyph-name="six" unicode="6" horiz-adv-x="1189" 
d="M631 774q-133 0 -248 -115q-57 -204 -57 -397q0 -123 47 -183.5t129 -60.5q90 0 165 88.5t113.5 208t38.5 230.5q0 109 -47 169t-141 60zM1262 1452l-2 -16q-309 -27 -535 -227.5t-328 -506.5q84 84 189.5 130.5t201.5 46.5q152 0 244 -93.5t92 -248.5
q0 -241 -168.5 -399t-433.5 -158q-90 0 -172 33.5t-145.5 94.5t-101 155.5t-37.5 209.5q0 147 51 281.5t139.5 239t205.5 190t250.5 142.5t273.5 89t276 37z" />
    <glyph glyph-name="seven" unicode="7" horiz-adv-x="1030" 
d="M127 1016l149 418h934v-9l-190 -245l-674 -1180h-346v4l987 1176h-538q-116 0 -184 -37.5t-118 -126.5h-20z" />
    <glyph glyph-name="eight" unicode="8" horiz-adv-x="1196" 
d="M543 16q119 0 208 65t89 179q0 117 -125 213q-33 26 -73.5 53.5t-97.5 64t-83 54.5q-101 -50 -165.5 -143.5t-64.5 -196.5q0 -128 87.5 -208.5t224.5 -80.5zM760 840q121 55 185.5 140.5t64.5 190.5q0 113 -70.5 178.5t-183.5 65.5q-123 0 -204 -73.5t-81 -174.5
q0 -28 8.5 -55.5t19 -48.5t34.5 -47t40 -41.5t51 -41.5t52.5 -37.5t59.5 -39.5q16 -11 24 -16zM1180 1151q0 -122 -101.5 -204t-292.5 -124q54 -34 92.5 -61.5t81.5 -68t70 -80t44.5 -92.5t17.5 -111q0 -186 -157.5 -307t-404.5 -121q-230 0 -372 89t-142 238
q0 134 118.5 226.5t301.5 128.5q-98 71 -152.5 154t-54.5 196q0 188 148.5 313t372.5 125q193 0 311.5 -81.5t118.5 -219.5z" />
    <glyph glyph-name="nine" unicode="9" horiz-adv-x="1185" 
d="M870 774q58 186 58 397q0 123 -47 183.5t-129 60.5q-88 0 -163.5 -88t-115 -208t-39.5 -230q0 -108 48.5 -169t140.5 -61q132 0 247 115zM731 1454q92 0 174 -33t145.5 -93.5t100.5 -155.5t37 -211q0 -175 -72.5 -331.5t-193 -270.5t-275.5 -198.5t-323 -129t-332 -49.5
l2 16q156 14 295 75.5t247 159.5t189 224t131 274q-85 -85 -188.5 -130.5t-202.5 -45.5q-152 0 -244 93.5t-92 248.5q0 168 83 296.5t219 194.5t300 66z" />
    <glyph glyph-name="colon" unicode=":" horiz-adv-x="524" 
d="M348 1135q68 0 114 -45.5t46 -112.5q0 -68 -46 -115t-114 -47t-114 47t-46 115q0 67 46 112.5t114 45.5zM170 -12q-67 0 -112.5 45.5t-45.5 111.5q0 68 45.5 115t112.5 47q69 0 115.5 -47t46.5 -115q0 -66 -46.5 -111.5t-115.5 -45.5z" />
    <glyph glyph-name="semicolon" unicode=";" horiz-adv-x="530" 
d="M-80 -256l-2 12q104 37 170 100t66 134q0 102 -136 155q1 72 50.5 117t115.5 45t112 -45t46 -123q0 -74 -40 -142t-104.5 -116.5t-135 -82.5t-142.5 -54zM340 1135q69 0 115.5 -46t46.5 -112q0 -68 -46.5 -115t-115.5 -47q-67 0 -112.5 47t-45.5 115q0 66 45.5 112
t112.5 46z" />
    <glyph glyph-name="less" unicode="&#x3c;" horiz-adv-x="925" 
d="M152 733l4 21l768 422l-43 -215l-430 -226l331 -221l-41 -201z" />
    <glyph glyph-name="equal" unicode="=" horiz-adv-x="1243" 
d="M143 500l35 168h932l-35 -168h-932zM211 834l37 167h934l-39 -167h-932z" />
    <glyph glyph-name="greater" unicode="&#x3e;" horiz-adv-x="925" 
d="M868 754l-4 -21l-772 -420l47 217l428 222l-336 225l45 199z" />
    <glyph glyph-name="question" unicode="?" horiz-adv-x="817" 
d="M520 1454q167 0 275 -80.5t108 -218.5q0 -79 -36 -150.5t-92 -123t-131 -95t-146.5 -70t-145.5 -44.5l-65 -178h-21l53 424q206 39 351 141.5t145 202.5q0 47 -30 77.5t-97 30.5q-86 0 -215.5 -56t-255.5 -149q-34 101 4 166q34 61 114.5 92t184.5 31zM203 307
q68 0 113.5 -47t45.5 -115q0 -67 -45 -112t-114 -45q-68 0 -113 45t-45 112q0 68 45 115t113 47z" />
    <glyph glyph-name="at" unicode="@" horiz-adv-x="2107" 
d="M848 180q42 0 95 42.5t118 134.5t140 266t145 407q-70 76 -152 76q-120 0 -244 -203q-83 -138 -137.5 -306t-54.5 -288q0 -129 90 -129zM2095 838q0 -123 -35 -236t-113.5 -217t-194 -184t-286.5 -133.5t-381 -67.5l222 811q-293 -831 -641 -831q-106 0 -154.5 73
t-48.5 193q0 103 28.5 211t78.5 206.5t123.5 186.5t159.5 153t190 102.5t212 37.5q120 0 228 -43l186 43h4l-266 -996q565 34 565 705q0 305 -199 486.5t-536 181.5q-234 0 -435.5 -89t-339.5 -241.5t-216 -359t-78 -437.5q0 -384 208.5 -596.5t598.5 -212.5q188 0 373 51.5
t331 149.5l19 -31q-140 -99 -331 -153t-394 -54q-277 0 -485.5 99t-325.5 293t-117 462q0 233 91 445.5t247.5 368.5t379 248.5t472.5 92.5q132 0 256 -27t234 -85t192 -141.5t130 -203t48 -261.5z" />
    <glyph glyph-name="A" unicode="A" horiz-adv-x="1390" 
d="M807 541l-105 686l-368 -686h473zM1290 43l41 -8l-6 -35h-623l7 35l53 8q65 11 89 32t17 68l-55 357h-502l-190 -357q-27 -49 -11 -69.5t95 -30.5l69 -8l-8 -35h-399l6 35l43 8q60 11 91 32t56 68l695 1291h207l219 -1293q7 -46 30.5 -66.5t75.5 -31.5z" />
    <glyph glyph-name="B" unicode="B" horiz-adv-x="1372" 
d="M555 719l-145 -678h176q96 0 173.5 34t125.5 92t73 130t25 152q0 131 -67.5 200.5t-182.5 69.5h-178zM1075 1163q0 109 -61 169.5t-168 60.5h-150l-133 -633h142q179 0 274.5 114t95.5 289zM899 741q169 -20 274 -110t105 -219q0 -196 -165.5 -304t-459.5 -108h-729l6 35
l45 6q81 12 111.5 33t42.5 76l240 1134q12 55 -9.5 76.5t-95.5 32.5l-43 6l6 35h672q208 0 328.5 -88t120.5 -238q0 -161 -123 -256t-326 -111z" />
    <glyph glyph-name="C" unicode="C" horiz-adv-x="1386" 
d="M750 -20q-298 0 -478 162t-180 454q0 184 70.5 345t189.5 273t280.5 176t340.5 64q244 0 483 -133l-51 -334h-21q-13 197 -120.5 314.5t-272.5 117.5q-111 0 -209.5 -57t-169 -150t-122.5 -211t-77.5 -242.5t-25.5 -240.5q0 -228 100 -366t265 -138q155 0 299.5 121.5
t218.5 310.5h18l-80 -376q-241 -90 -458 -90z" />
    <glyph glyph-name="D" unicode="D" horiz-adv-x="1540" 
d="M702 1393l-286 -1352h166q140 0 259 80t196 208.5t120 286t43 316.5q0 211 -90 336t-254 125h-154zM221 1399l6 35h625q308 0 484.5 -167.5t176.5 -439.5q0 -184 -72 -339t-198.5 -262t-302.5 -166.5t-379 -59.5h-637l6 35l54 8q75 11 104 32t41 75l240 1134
q11 55 -7 78.5t-83 30.5z" />
    <glyph glyph-name="E" unicode="E" horiz-adv-x="1280" 
d="M221 1399l6 35h1049l-23 -447l-24 -6q-10 86 -34 156.5t-66.5 130t-110 92.5t-154.5 33h-166l-139 -645h127q88 0 148.5 59.5t121.5 208.5h21l-123 -578h-20q10 149 -24.5 209t-131.5 60h-127l-141 -666h184q104 0 186 20t158 68t140 131.5t120 206.5h23l-162 -467h-1135
l6 35l62 8q61 8 92.5 29.5t44.5 77.5l240 1134q12 56 -10 77t-78 30z" />
    <glyph glyph-name="F" unicode="F" horiz-adv-x="1193" 
d="M221 1399l6 35h1059l-29 -447l-24 -6q-19 199 -109.5 305.5t-249.5 106.5h-178l-141 -662h139q92 0 153 57.5t124 210.5h20l-123 -577h-20q12 154 -25 211t-137 57h-139l-115 -540q-11 -53 21.5 -76.5t105.5 -30.5l68 -8l-6 -35h-697l6 35l60 8q59 7 92.5 30t46.5 77
l240 1134q13 56 -11.5 78t-81.5 29z" />
    <glyph glyph-name="G" unicode="G" horiz-adv-x="1474" 
d="M877 643l8 35h608l-8 -35l-62 -10q-58 -11 -82 -31.5t-36 -73.5l-99 -458q-241 -90 -456 -90q-298 0 -478 162t-180 454q0 184 70.5 345t189.5 273t280.5 176t340.5 64q244 0 483 -133l-51 -334h-21q-13 197 -120.5 314.5t-272.5 117.5q-111 0 -209.5 -57t-169 -150
t-122.5 -211t-77.5 -242.5t-25.5 -240.5q0 -71 12 -140t39.5 -135.5t68.5 -116.5t103.5 -81t139.5 -31q91 0 174 45l102 469q11 54 -7.5 75.5t-84.5 31.5z" />
    <glyph glyph-name="H" unicode="H" horiz-adv-x="1648" 
d="M1130 1399l9 35h651l-8 -35l-58 -8q-60 -7 -93 -29t-46 -78l-239 -1134q-13 -53 11.5 -76.5t80.5 -30.5l55 -8l-6 -35h-651l6 35l57 8q60 7 94 30t45 77l123 575h-606l-123 -575q-11 -53 13.5 -76.5t80.5 -30.5l56 -8l-7 -35h-651l6 35l60 8q59 7 92.5 30t46.5 77
l240 1134q13 56 -11.5 78t-81.5 29l-55 8l6 35h652l-9 -35l-57 -8q-61 -7 -94.5 -29t-44.5 -78l-111 -518h606l111 518q11 56 -12 78t-82 29z" />
    <glyph glyph-name="I" unicode="I" horiz-adv-x="737" 
d="M575 0h-651l6 35l60 8q59 7 92.5 30t46.5 77l240 1134q13 56 -11.5 78t-81.5 29l-55 8l6 35h652l-9 -35l-57 -8q-61 -7 -94.5 -29t-44.5 -78l-242 -1134q-11 -53 13.5 -76.5t80.5 -30.5l56 -8z" />
    <glyph glyph-name="J" unicode="J" horiz-adv-x="712" 
d="M-190 -389q-82 0 -132.5 36t-50.5 89q0 45 31 92.5t78 81.5q59 -107 113.5 -164t93.5 -57q78 0 108 145l307 1450q12 54 -9 76.5t-89 30.5l-51 8l8 35h653l-8 -35l-57 -8q-71 -11 -99 -32t-40 -75l-240 -1130q-48 -226 -250 -390q-192 -153 -366 -153z" />
    <glyph glyph-name="K" unicode="K" horiz-adv-x="1497" 
d="M674 1284l-242 -1134q-11 -53 13.5 -76.5t80.5 -30.5l56 -8l-7 -35h-651l6 35l60 8q59 7 92.5 30t46.5 77l240 1134q11 56 -12.5 78t-80.5 29l-55 8l6 35h652l-9 -35l-57 -8q-61 -7 -94.5 -29t-44.5 -78zM1194 1399l8 35h461l-8 -35l-60 -8q-67 -8 -124 -28.5t-89 -49.5
l-454 -393l463 -906l-5 -14h-333l-377 768l647 549q71 62 -57 74z" />
    <glyph glyph-name="L" unicode="L" horiz-adv-x="1220" 
d="M1159 481l21 -4l-166 -477h-1090l6 35l60 8q59 7 92.5 30t46.5 77l240 1134q13 56 -11.5 78t-81.5 29l-55 8l6 35h652l-9 -35l-57 -8q-61 -7 -94.5 -29t-44.5 -78l-264 -1243h204q181 0 310.5 111t234.5 329z" />
    <glyph glyph-name="M" unicode="M" horiz-adv-x="1832" 
d="M868 311l570 1123h463l-7 -35l-57 -8q-62 -7 -92.5 -29t-36.5 -78l-121 -1134q-6 -53 21.5 -76.5t83.5 -30.5l55 -8l-6 -35h-654l7 35l59 8q59 7 90 30t37 77l117 1095l-625 -1245h-192l-88 1235l-345 -1085q-19 -53 8 -76.5t93 -30.5l65 -8l-8 -35h-442l6 35l63 8
q65 7 104.5 30t57.5 77l361 1134q19 56 -5 78t-88 29l-61 8l8 35h469z" />
    <glyph glyph-name="N" unicode="N" horiz-adv-x="1507" 
d="M1235 1399l6 35h428l-6 -35l-64 -8q-67 -7 -103.5 -29t-47.5 -78l-272 -1284h-201l-557 1262l-238 -1112q-11 -54 16 -77t89 -30l61 -8l-8 -35h-428l8 35l64 8q65 7 101.5 30t47.5 77l242 1134q11 56 -12 78t-78 29l-54 8l7 35h428l526 -1137l209 987q13 56 -14 78
t-91 29z" />
    <glyph glyph-name="O" unicode="O" horiz-adv-x="1464" 
d="M627 14q103 0 186 68q104 86 185.5 257t121 356.5t39.5 351.5q0 182 -66 277t-188 95q-96 0 -183 -68t-149 -178.5t-108.5 -246.5t-69 -275t-22.5 -262q0 -182 67 -278.5t187 -96.5zM907 1454q248 0 394.5 -152.5t146.5 -408.5q0 -174 -64 -340t-172.5 -292.5
t-262.5 -203.5t-324 -77q-245 0 -393 154t-148 407q0 176 64 342.5t172.5 292.5t262.5 202t324 76z" />
    <glyph glyph-name="P" unicode="P" horiz-adv-x="1314" 
d="M696 1397l-166 -781h134q133 0 229 67.5t142 180t46 258.5q0 131 -66 203t-177 72h-142zM221 1399l6 35h625q247 0 387.5 -102.5t140.5 -272.5q0 -156 -87 -264.5t-241 -160.5t-366 -52h-162l-92 -432q-10 -55 19.5 -75.5t126.5 -31.5l61 -8l-8 -35h-707l6 35l62 8
q68 10 96.5 32.5t40.5 74.5l240 1134q12 54 -7.5 75.5t-91.5 31.5z" />
    <glyph glyph-name="Q" unicode="Q" horiz-adv-x="1464" 
d="M627 14q103 0 186 68q104 86 185.5 257t121 356.5t39.5 351.5q0 182 -66 277t-188 95q-96 0 -183 -68t-149 -178.5t-108.5 -246.5t-69 -275t-22.5 -262q0 -182 67 -278.5t187 -96.5zM907 1454q248 0 394.5 -152.5t146.5 -408.5q0 -174 -64 -340t-172.5 -292.5
t-262.5 -203.5t-324 -77q-245 0 -393 154t-148 407q0 176 64 342.5t172.5 292.5t262.5 202t324 76zM279 -340q-47 -14 -80 -14q-52 0 -82 24q-33 28 -30 78.5t40 93.5q40 46 101 74.5t122 28.5q68 0 152.5 -35t160 -85t145.5 -100t127.5 -85t86.5 -35q78 0 35 113
q-26 65 -88 155q43 21 94 21t84 -28.5t33 -76.5q0 -70 -42.5 -139t-122 -115.5t-173.5 -46.5q-67 0 -143 41.5t-141 100t-124.5 117.5t-110 100.5t-79.5 41.5q-51 0 -26 -94q19 -70 61 -135z" />
    <glyph glyph-name="R" unicode="R" horiz-adv-x="1423" 
d="M696 1393l-155 -736h135q127 0 220 67t138 174t45 239q0 121 -69 188.5t-191 67.5h-123zM1378 1047q0 -148 -103.5 -250t-279.5 -146l342 -637l-2 -14h-321l-297 616h-185l-100 -466q-10 -54 9 -75t83 -32l58 -8l-7 -35h-651l6 35l54 8q75 11 104 32t41 75l240 1134
q10 54 -8.5 74.5t-86.5 32.5l-53 8l6 35h600q254 0 402.5 -105.5t148.5 -281.5z" />
    <glyph glyph-name="S" unicode="S" horiz-adv-x="1093" 
d="M463 -20q-122 0 -242.5 38.5t-206.5 108.5l31 301h21q50 -175 177.5 -293.5t268.5 -118.5q102 0 171 73t69 173q0 64 -30.5 119t-78.5 96.5t-106.5 81.5t-117.5 84t-107 94t-78.5 122.5t-30.5 158.5q0 138 73 239t187 149t252 48q221 0 405 -121l-41 -301h-20
q-34 186 -134 286.5t-237 100.5q-116 0 -184 -67t-68 -172q0 -68 30.5 -125.5t79 -99.5t107 -82t117.5 -83.5t107.5 -92.5t79 -119.5t30.5 -155.5q0 -191 -151.5 -316.5t-372.5 -125.5z" />
    <glyph glyph-name="T" unicode="T" horiz-adv-x="1392" 
d="M115 971l164 463h1206l-31 -463l-24 -4q-20 208 -108 317t-216 109h-78l-264 -1243q-13 -53 23.5 -76.5t115.5 -30.5l78 -8l-6 -35h-791l6 35l80 8q84 6 130 29.5t57 77.5l266 1243h-82q-129 0 -261.5 -108t-244.5 -318z" />
    <glyph glyph-name="U" unicode="U" horiz-adv-x="1454" 
d="M676 -20q-168 0 -295 65q-132 65 -188.5 188t-20.5 291l162 760q11 56 -10 78t-74 29l-51 8l8 35h635l-6 -35l-58 -8q-62 -7 -95 -29t-44 -78l-166 -784q-42 -198 51.5 -315t276.5 -117q164 0 259 109t140 317l168 790q11 56 -15 78t-89 29l-60 8l8 35h424l-6 -35l-63 -8
q-67 -7 -103 -29t-47 -78l-168 -790q-53 -251 -191.5 -382.5t-381.5 -131.5z" />
    <glyph glyph-name="V" unicode="V" horiz-adv-x="1335" 
d="M1159 1399l6 35h385l-6 -35l-37 -8q-42 -7 -74.5 -28t-60.5 -71l-725 -1292h-170l-231 1292q-16 84 -76 99l-27 8l9 35h583l-8 -35l-57 -8q-58 -6 -82 -27t-17 -72l168 -1020l580 1020q22 35 13.5 56t-32 30t-71.5 13z" />
    <glyph glyph-name="W" unicode="W" horiz-adv-x="2029" 
d="M1841 1399l6 35h408l-8 -35l-43 -8q-49 -7 -83 -28.5t-61 -74.5l-641 -1288h-192l-127 1141l-516 -1141h-203l-129 1288q-4 52 -21 74t-45 29l-26 8l8 35h569l-8 -35l-57 -8q-58 -6 -83 -27.5t-24 -75.5l72 -1046l539 1192h204l107 -1201l522 1055q27 53 2 74.5t-98 28.5
z" />
    <glyph glyph-name="X" unicode="X" horiz-adv-x="1445" 
d="M1098 1399l8 35h475l-6 -35l-57 -8q-135 -15 -199 -84l-436 -471l313 -705q25 -67 127 -88l41 -8l-8 -35h-635l8 35l57 8q30 3 47 8t28.5 14.5t10.5 25.5t-12 40l-219 494l-457 -498q-21 -23 -25 -38.5t10 -24.5t37 -13.5t64 -7.5l82 -8l-6 -35h-477l6 35l53 8
q139 22 193 84l502 543l-281 633q-30 69 -127 88l-39 8l6 35h633l-6 -35l-57 -8q-60 -6 -77.5 -23.5t1.5 -64.5l186 -420l398 424q21 23 25.5 38.5t-9 24.5t-36 13.5t-62.5 7.5z" />
    <glyph glyph-name="Y" unicode="Y" horiz-adv-x="1357" 
d="M1151 1399l6 35h404l-7 -35l-43 -8q-54 -7 -90 -29t-69 -66l-494 -661l-102 -485q-11 -54 15.5 -77t88.5 -30l62 -8l-9 -35h-684l9 35l63 8q65 7 102 30t48 77l102 481l-281 672q-30 69 -96 88l-24 8l6 35h594l-7 -35l-65 -8q-59 -7 -77 -24t1 -64l244 -601l450 596
q19 27 22.5 44t-9.5 27t-34 14.5t-58 7.5z" />
    <glyph glyph-name="Z" unicode="Z" horiz-adv-x="1265" 
d="M332 1434h1057l-5 -25l-1075 -1368h250q91 0 166.5 20.5t135 57t115.5 98t102 131.5t100 170h22l-192 -518h-1100l4 25l1092 1368h-252q-164 0 -292.5 -97t-269.5 -321l-22 2z" />
    <glyph glyph-name="bracketleft" unicode="[" horiz-adv-x="712" 
d="M588 1356l-301 -1413q-6 -25 -6 -47q0 -18 5 -31t18.5 -21.5t27 -14t41.5 -9.5t51 -6t65 -4l-20 -99h-463l397 1866h463l-20 -98q-50 -3 -76 -5.5t-58.5 -7.5t-49 -12.5t-33.5 -20.5t-26 -32t-15 -45z" />
    <glyph glyph-name="backslash" unicode="\" horiz-adv-x="886" 
d="M512 -289l-174 1866h192l175 -1866h-193z" />
    <glyph glyph-name="bracketright" unicode="]" horiz-adv-x="712" 
d="M188 -68l299 1414q7 29 7 47t-5 31t-18.5 21.5t-27.5 14t-42 9.5t-51 6t-65 4l20 98h463l-395 -1866h-463l20 99q43 3 66 4.5t53.5 5.5t45.5 9t33.5 13.5t28 20.5t18 29t13.5 40z" />
    <glyph glyph-name="asciicircum" unicode="^" horiz-adv-x="991" 
d="M612 1577h226l176 -594h-209l-111 403l-278 -403h-230z" />
    <glyph glyph-name="underscore" unicode="_" horiz-adv-x="901" 
d="M719 -326h-817l37 191h819z" />
    <glyph glyph-name="grave" unicode="`" 
d="M803 1225h-10l-377 329v5h366z" />
    <glyph glyph-name="a" unicode="a" horiz-adv-x="1259" 
d="M389 180q33 0 73 24.5t91.5 87t104.5 155.5t113.5 243.5t117.5 339.5q-70 76 -152 76q-119 0 -243 -203q-84 -138 -138.5 -306t-54.5 -288q0 -129 88 -129zM1227 432l22 -16q-114 -208 -235.5 -322t-235.5 -114q-69 0 -99 48t-5 138l172 637q-67 -188 -136 -332.5
t-132 -236.5t-128.5 -150t-123 -81t-117.5 -23q-106 0 -154.5 73t-48.5 193q0 123 39 252t112 243t168.5 205t218 144t251.5 53q115 0 231 -41l184 41h4l-278 -1043q67 44 143.5 130.5t147.5 201.5z" />
    <glyph glyph-name="b" unicode="b" horiz-adv-x="1177" 
d="M440 16q119 0 246 205q83 134 137 302.5t54 289.5q0 129 -89 129q-27 0 -59.5 -18t-72 -56t-83.5 -105t-90 -157.5t-96 -222t-98 -289.5q85 -78 151 -78zM969 1143q202 0 202 -266q0 -129 -41 -260t-116 -244.5t-172.5 -202t-220.5 -139.5t-250 -51q-169 0 -365 112
l356 1329l-108 109l2 4l449 125h4l-318 -1180q269 664 578 664z" />
    <glyph glyph-name="c" unicode="c" horiz-adv-x="964" 
d="M369 -20q-161 0 -244.5 109.5t-83.5 293.5q0 110 29.5 220t87.5 206.5t136 171.5t182 118.5t218 43.5q154 0 226 -66q71 -68 71 -145q0 -71 -50.5 -127.5t-137.5 -69.5q13 365 -150 365q-89 0 -168.5 -100t-124.5 -248t-45 -293q0 -140 48.5 -224.5t144.5 -84.5
q92 0 189 74.5t171 207.5l23 -16q-96 -209 -228 -322.5t-294 -113.5z" />
    <glyph glyph-name="d" unicode="d" horiz-adv-x="1247" 
d="M389 180q33 0 73 24.5t91.5 87t104.5 155.5t113.5 243.5t117.5 339.5q-70 76 -152 76q-119 0 -243 -203q-84 -138 -138.5 -306t-54.5 -288q0 -129 88 -129zM1339 1659l-417 -1559q137 89 290 332l23 -16q-114 -207 -236.5 -321.5t-236.5 -114.5q-66 0 -97.5 46.5
t-9.5 125.5l131 493q-264 -665 -577 -665q-106 0 -154.5 73t-48.5 193q0 129 41 260t116 244.5t173 202t221 139.5t250 51q53 0 111 -10l77 288l-110 109l2 4l448 125h4z" />
    <glyph glyph-name="e" unicode="e" horiz-adv-x="964" 
d="M674 1102q-76 0 -151 -80.5t-127 -201.5t-74 -251q114 32 202 85t137 112t73 115.5t24 107.5q0 52 -22 82.5t-62 30.5zM506 150q93 0 194.5 75.5t178.5 206.5l22 -16q-99 -207 -241 -321.5t-306 -114.5q-156 0 -238.5 102.5t-82.5 277.5q0 111 32.5 224t93.5 212.5
t143 177.5t188.5 123.5t220.5 45.5q129 0 201.5 -54t72.5 -135q0 -77 -70 -159q-72 -91 -224 -157.5t-376 -96.5q-6 -55 -6 -105q0 -131 52 -208.5t145 -77.5z" />
    <glyph glyph-name="f" unicode="f" horiz-adv-x="638" 
d="M899 1647q96 0 150.5 -37.5t54.5 -93.5q0 -96 -146 -162q-19 105 -62.5 165t-100.5 60q-43 0 -72 -40t-55 -134l-78 -283h217l-10 -41h-219l-240 -891q-53 -190 -152 -315q-98 -128 -217 -196t-237 -68q-96 0 -150.5 37.5t-54.5 93.5q0 45 35.5 88.5t109.5 73.5
q17 -106 63.5 -166t112.5 -60q47 0 78.5 69t83.5 271l285 1063h-145l10 41l159 19q42 119 109.5 216.5t145.5 160t162 96t163 33.5z" />
    <glyph glyph-name="g" unicode="g" horiz-adv-x="1124" 
d="M541 487q75 0 137 66t94.5 165.5t32.5 205.5q0 78 -43.5 129t-110.5 51q-68 0 -123 -45t-86 -113.5t-47 -139.5t-16 -132q0 -82 45 -134.5t117 -52.5zM580 -68l-279 101q-57 22 -86 39q-96 -27 -151.5 -80.5t-55.5 -124.5q0 -95 95 -155t257 -60q159 0 262 49t103 119
q0 59 -145 112zM1096 1360q69 0 100.5 -43t15.5 -101t-73 -100q-90 72 -158 72q-61 0 -125 -82q104 -37 162.5 -108.5t58.5 -166.5t-40.5 -166t-105 -110.5t-142 -66t-155.5 -39t-142.5 -23.5t-105 -26.5t-40.5 -39.5q0 -17 25.5 -32.5t93.5 -40.5l272 -99q228 -80 228 -223
q0 -153 -179 -253.5t-469 -100.5q-219 0 -368.5 63t-149.5 162q0 89 108.5 155t285.5 93q-84 61 -84 141q0 76 90 138.5t295 93.5q-173 14 -277 97t-104 210q0 166 145.5 272.5t372.5 106.5q102 0 200 -29q70 135 133.5 190.5t131.5 55.5z" />
    <glyph glyph-name="h" unicode="h" horiz-adv-x="1251" 
d="M1223 432l22 -16q-114 -207 -236.5 -321.5t-236.5 -114.5q-66 0 -97 46.5t-9 125.5l184 686q26 106 -51 106q-78 0 -172 -119q-97 -122 -191 -336.5t-168 -488.5h-280l381 1421l-109 109l2 4l449 125h4l-316 -1170q129 316 280 485t310 169q93 0 137 -69.5t15 -182.5
l-209 -791q139 90 291 332z" />
    <glyph glyph-name="i" unicode="i" horiz-adv-x="688" 
d="M594 971l-232 -873q159 114 289 334l23 -16q-114 -208 -235.5 -322t-235.5 -114q-68 0 -100 46.5t-9 125.5l232 872q-66 -46 -143 -133.5t-146 -200.5l-23 17q114 206 237 321t234 115q69 0 100 -45t9 -127zM545 1249q-69 0 -114.5 44t-45.5 110q0 69 45.5 113.5
t114.5 44.5t114.5 -44.5t45.5 -113.5q0 -66 -45.5 -110t-114.5 -44z" />
    <glyph glyph-name="j" unicode="j" horiz-adv-x="616" 
d="M487 1143q68 0 99 -45t8 -127l-207 -781q-50 -190 -149 -315q-98 -128 -218.5 -196t-238.5 -68q-95 0 -149 37.5t-54 93.5q0 45 35.5 88.5t110.5 73.5q17 -106 63.5 -166t112.5 -60q46 0 74.5 65t86.5 275l265 1006q-68 -51 -144.5 -137.5t-144.5 -196.5l-23 17
q118 209 239 322.5t234 113.5zM555 1561q69 0 114.5 -44.5t45.5 -113.5q0 -66 -45.5 -110t-114.5 -44t-114.5 44t-45.5 110q0 69 45.5 113.5t114.5 44.5z" />
    <glyph glyph-name="k" unicode="k" horiz-adv-x="1236" 
d="M801 580l100 -486q70 50 147 137t148 201l23 -16q-115 -206 -237.5 -321t-236.5 -115q-63 0 -96 36.5t-47 118.5l-57 338q199 113 298 228.5t99 218.5q0 67 -70 67q-152 0 -315.5 -265t-288.5 -722h-280l381 1421l-109 109l2 4l449 125h4l-301 -1122q143 303 313.5 453.5
t341.5 150.5q83 0 128.5 -33t45.5 -98q0 -93 -113 -205t-329 -225z" />
    <glyph glyph-name="l" unicode="l" horiz-adv-x="622" 
d="M713 1659l-418 -1563q71 53 148 139.5t141 196.5l24 -16q-114 -207 -236.5 -321.5t-236.5 -114.5q-67 0 -97.5 46t-10.5 126l340 1269l-109 109l2 4l449 125h4z" />
    <glyph glyph-name="m" unicode="m" horiz-adv-x="1951" 
d="M1923 432l25 -16q-114 -207 -236.5 -321.5t-236.5 -114.5q-67 0 -98 46t-11 126l184 686q26 106 -49 106q-78 0 -172 -119q-97 -122 -190.5 -336.5t-167.5 -488.5h-281l225 838q27 106 -51 106t-172 -119q-97 -122 -190.5 -336.5t-167.5 -488.5h-281l277 1026
q-68 -47 -146.5 -135t-146.5 -201l-23 17q118 209 239 322.5t234 113.5q68 0 99 -45t8 -127l-129 -479q129 313 280 482t310 169q93 0 136.5 -69.5t14.5 -182.5l-108 -412q129 319 281 491.5t311 172.5q93 0 137.5 -69.5t15.5 -182.5l-211 -793q73 52 149.5 137.5
t141.5 196.5z" />
    <glyph glyph-name="n" unicode="n" horiz-adv-x="1318" 
d="M1290 432l23 -16q-114 -208 -235.5 -322t-235.5 -114q-68 0 -100 46.5t-9 125.5l185 686q26 106 -52 106t-173 -119t-187 -333q-90 -209 -168 -492h-283l273 1026q-157 -111 -291 -336l-25 17q117 207 239.5 321.5t233.5 114.5q69 0 100 -45t9 -127l-127 -484
q129 316 280 486t310 170q93 0 136.5 -69.5t14.5 -182.5l-209 -793q72 51 149 137.5t142 196.5z" />
    <glyph glyph-name="o" unicode="o" horiz-adv-x="1159" 
d="M459 14q80 0 155 92t124.5 226t79.5 278t30 254q0 119 -37.5 181.5t-110.5 62.5q-82 0 -157.5 -91.5t-124.5 -225t-78 -278t-29 -257.5q0 -117 38 -179.5t110 -62.5zM692 1143q192 0 307 -121.5t115 -319.5q0 -138 -50.5 -269.5t-136 -231t-207 -160.5t-255.5 -61
q-195 0 -307.5 121.5t-112.5 318.5q0 185 84 350.5t234.5 269t328.5 103.5z" />
    <glyph glyph-name="p" unicode="p" horiz-adv-x="1249" 
d="M512 16q121 0 244 205q83 135 137.5 303.5t54.5 288.5q0 129 -88 129q-33 0 -73 -24.5t-91.5 -87t-104.5 -155.5t-113.5 -243.5t-117.5 -339.5q83 -76 152 -76zM1040 1143q203 0 203 -266q0 -129 -41 -260t-116 -244.5t-173 -202t-221 -139.5t-250 -51q-45 0 -110 10
l-56 -209q-17 -55 9.5 -76.5t111.5 -32.5l41 -6l-8 -35h-608l8 35l37 6q63 10 88 32.5t39 76.5l334 1243q-67 -47 -145 -134t-146 -200l-23 17q118 209 239 322.5t234 113.5q68 0 99 -45t8 -127l-131 -490q268 662 577 662z" />
    <glyph glyph-name="q" unicode="q" horiz-adv-x="1179" 
d="M389 180q33 0 73 24.5t91.5 87t104.5 155.5t113.5 243.5t117.5 339.5q-70 76 -152 76q-119 0 -243 -203q-84 -138 -138.5 -306t-54.5 -288q0 -129 88 -129zM1188 1143h14l-364 -1362q-13 -57 -2 -76.5t59 -30.5l31 -8l-8 -35h-574l8 35l62 8q71 10 100 32.5t43 74.5
l234 872q-268 -673 -582 -673q-106 0 -154.5 73t-48.5 193q0 103 28 211t78.5 207t124 187t160 152.5t191 102t213.5 37.5q111 0 215 -39z" />
    <glyph glyph-name="r" unicode="r" horiz-adv-x="927" 
d="M928 1141q73 0 102 -45.5t6.5 -113.5t-86.5 -130q-88 82 -164 82q-41 0 -85 -44.5t-99 -147t-122.5 -289.5t-145.5 -453h-281l275 1026q-67 -47 -144.5 -135t-146.5 -201l-23 17q114 206 237 321t234 115q69 0 100 -45t9 -127l-115 -426q234 596 449 596z" />
    <glyph glyph-name="s" unicode="s" horiz-adv-x="880" 
d="M295 -20q-152 0 -243 66.5t-91 158.5q0 54 34.5 100.5t100.5 65.5q27 -159 101 -248.5t188 -89.5q72 0 120 40t48 101q0 41 -22 82t-57 76.5t-77.5 72.5t-85.5 77.5t-78 83t-57 98t-22 114.5q0 154 116.5 259.5t302.5 105.5q155 0 236.5 -53.5t81.5 -128.5
q0 -53 -41 -101t-111 -72q2 74 -23.5 144.5t-80.5 120t-127 49.5q-73 0 -117.5 -45t-44.5 -113q0 -43 22.5 -85.5t59 -79.5t80 -75.5t87 -79.5t80 -84t59 -97t22.5 -111q0 -140 -126.5 -246t-334.5 -106z" />
    <glyph glyph-name="t" unicode="t" horiz-adv-x="737" 
d="M858 1122l-8 -41h-268l-271 -1028q191 92 373 379l25 -16q-121 -208 -248 -322t-246 -114q-89 0 -132.5 55.5t-12.5 175.5l231 870h-156l5 21l475 244h28l-61 -224h266z" />
    <glyph glyph-name="u" unicode="u" horiz-adv-x="1318" 
d="M1284 432l25 -16q-114 -207 -236.5 -321.5t-236.5 -114.5q-67 0 -98 46t-11 126l127 483q-129 -316 -280 -485.5t-310 -169.5q-92 0 -136 70t-15 181l209 793q-67 -47 -144.5 -134.5t-146.5 -199.5l-23 17q114 206 237 321t234 115q74 0 102 -48.5t3 -138.5l-181 -671
q-27 -107 52 -107t173.5 119t188.5 334q94 217 166 491h283l-273 -1026q72 51 149 137.5t142 198.5z" />
    <glyph glyph-name="v" unicode="v" horiz-adv-x="1105" 
d="M924 1137q93 0 137.5 -61.5t44.5 -166.5q0 -83 -29 -184.5t-80 -205t-127 -200.5t-164 -172.5t-197.5 -121t-221.5 -45.5q-102 0 -140.5 66.5t-11.5 170.5l213 805q-68 -44 -144.5 -130t-146.5 -202l-22 17q114 206 237 321t234 115q69 0 100 -45t8 -127l-211 -783
q-15 -57 -2.5 -80.5t60.5 -23.5q37 0 95.5 24.5t126.5 76.5t127 120.5t98.5 168t39.5 208.5q0 201 -141 424q67 31 117 31z" />
    <glyph glyph-name="w" unicode="w" horiz-adv-x="1755" 
d="M1571 1137q93 0 139.5 -61.5t46.5 -164.5q0 -83 -29.5 -184.5t-82 -205t-130 -201t-167.5 -173t-201.5 -121.5t-224.5 -46q-102 0 -139.5 66.5t-10.5 170.5l113 426q-129 -319 -281 -491t-311 -172q-93 0 -138 70t-16 181l209 791q-65 -44 -142 -131.5t-147 -200.5
l-24 17q117 207 239.5 321.5t233.5 114.5q69 0 100 -45t8 -127l-184 -686q-27 -107 49 -107q79 0 174 121q96 122 190.5 337t166.5 486h280l-252 -934q-14 -57 -2 -80.5t58 -23.5q37 0 96.5 25.5t127 70.5t132.5 121.5t102 165.5q35 84 40 180.5t-29 216t-109 244.5
q56 29 115 29z" />
    <glyph glyph-name="x" unicode="x" horiz-adv-x="1118" 
d="M1094 1141q60 0 94.5 -32.5t34.5 -84.5q0 -40 -26 -86t-75 -86q-46 46 -80.5 64t-70.5 18q-131 0 -281 -338l47 -496q147 96 293 332l23 -16q-115 -207 -236.5 -321.5t-234.5 -114.5q-49 0 -84 36.5t-45 118.5l-27 289q-198 -444 -391 -444q-61 0 -95 34.5t-34 87.5
q0 96 96 168q88 -82 156 -82q54 0 121.5 72t140.5 229l-51 535q-68 -44 -145.5 -131.5t-147.5 -202.5l-23 17q114 206 237 321t234 115q51 0 86.5 -36t42.5 -120l31 -330q50 120 101 210t93 141t84 82t72 41t60 10z" />
    <glyph glyph-name="y" unicode="y" horiz-adv-x="1216" 
d="M991 1135q99 0 148 -65.5t49 -178.5q0 -140 -49 -293.5t-133 -293.5t-201 -267.5t-248 -221t-280 -149t-291 -55.5q-125 0 -201 48t-76 136q0 78 58 139q199 -176 442 -176q114 0 223 41l-121 1221q-66 -45 -142 -131t-146 -199l-23 17q114 206 237 321t234 115
q62 0 92 -38.5t37 -133.5l92 -996q132 130 208.5 303t76.5 353q0 270 -121 473q64 31 135 31z" />
    <glyph glyph-name="z" unicode="z" horiz-adv-x="1017" 
d="M971 1139q43 0 68.5 -21.5t25.5 -56.5q0 -62 -82 -127l-639 -508l320 -313q135 82 280 319l25 -16q-240 -436 -457 -436q-80 0 -176 59t-225 186q-55 -70 -37 -235q-24 -8 -58 -8q-44 0 -72 22t-28 57q0 61 86 132l670 540l-287 279q-133 -85 -281 -322l-24 17
q247 436 457 436q79 0 164.5 -49.5t191.5 -153.5q40 85 22 188q22 11 56 11z" />
    <glyph glyph-name="braceleft" unicode="{" horiz-adv-x="784" 
d="M127 612l14 66q177 35 215 205l90 432q27 125 149 193.5t343 68.5l-18 -78q-86 -10 -150 -58t-84 -143l-92 -424q-23 -102 -73 -150t-161 -79q79 -26 112.5 -58.5t33.5 -94.5q0 -39 -52.5 -275t-52.5 -276q0 -69 44 -105.5t112 -44.5l-16 -80q-194 0 -290.5 54.5
t-96.5 154.5q0 47 53 275t53 274q0 116 -133 143z" />
    <glyph glyph-name="bar" unicode="|" horiz-adv-x="600" 
d="M629 1577l-398 -1866h-190l397 1866h191z" />
    <glyph glyph-name="braceright" unicode="}" horiz-adv-x="784" 
d="M717 676l-12 -66q-179 -35 -216 -204l-90 -433q-27 -125 -149 -193.5t-342 -68.5l18 78q86 10 150 58t84 143l90 424q23 102 72.5 150t160.5 79q-79 26 -112 59t-33 95q0 39 53 275t53 276q0 69 -43.5 105t-111.5 44l16 80q194 0 290.5 -54.5t96.5 -154.5q0 -47 -53 -275
t-53 -274q0 -116 131 -143z" />
    <glyph glyph-name="asciitilde" unicode="~" horiz-adv-x="1042" 
d="M715 539q-45 0 -85 19t-69 46.5t-57.5 55t-62.5 46.5t-72 19q-69 0 -120.5 -35.5t-115.5 -111.5l-33 24q67 82 128.5 123t140.5 41q98 0 186 -92q42 -46 78.5 -70t81.5 -24q111 0 241 149l31 -27q-62 -80 -126 -121.5t-146 -41.5z" />
    <glyph glyph-name="uni00A0" unicode="&#xa0;" horiz-adv-x="417" 
 />
    <glyph glyph-name="exclamdown" unicode="&#xa1;" horiz-adv-x="505" 
d="M252 616h16l-10 -686q8 -133 -45 -197.5t-131 -64.5q-98 0 -122.5 86.5t30.5 200.5zM332 1135q67 0 112 -46t45 -112q0 -68 -45 -115t-112 -47q-69 0 -115.5 47t-46.5 115q0 66 46.5 112t115.5 46z" />
    <glyph glyph-name="cent" unicode="&#xa2;" horiz-adv-x="1017" 
d="M373 623q0 -243 129 -299l200 940q-86 -5 -163.5 -105.5t-121.5 -246.5t-44 -289zM1049 1096q0 -71 -51 -127.5t-138 -69.5q6 156 -24 249t-95 112l-200 -945q4 -2 12 -2h12q92 0 189.5 75t171.5 208l22 -16q-173 -377 -442 -428l-64 -304h-41l64 297q-6 -2 -19 -2h-20
q-161 0 -244.5 110t-83.5 294q0 106 28 212t82.5 200t128 169t170.5 122t204 55l63 299h41l-63 -297q153 0 225 -66q72 -69 72 -145z" />
    <glyph glyph-name="sterling" unicode="&#xa3;" horiz-adv-x="1290" 
d="M373 254h426q129 0 236.5 51.5t174.5 147.5h25l-227 -453h-990l5 20q233 146 333 289q92 132 39 254h-309l8 41h285q-6 14 -23 49t-30 64t-23 59h-172l8 41h152q-15 73 -15 123q0 97 30.5 180.5t85 144t128.5 103.5t162 64.5t184 21.5q107 0 214 -26t180 -72l-70 -330
h-21q-13 164 -106 275.5t-238 111.5q-86 0 -150 -41t-97 -112q-33 -67 -35 -148.5t28 -155.5l58 -139h450l-8 -41h-428q29 -78 29 -139v-16q0 -11 -2 -17h366l-10 -41h-362q-37 -187 -291 -309z" />
    <glyph glyph-name="currency" unicode="&#xa4;" horiz-adv-x="1251" 
d="M344 719q0 -136 85 -220.5t222 -84.5q139 0 223 84t82 221q0 137 -84 221t-221 84t-222 -84.5t-85 -220.5zM997 719q0 -145 -82 -236l238 -235l-31 -29l-235 236q-91 -82 -236 -82q-141 0 -233 80l-234 -234l-30 29l233 231q-84 104 -84 240q0 141 84 237l-233 232l30 29
l232 -232q92 80 235 80t238 -82l233 234l31 -29l-235 -234q79 -91 79 -235z" />
    <glyph glyph-name="yen" unicode="&#xa5;" horiz-adv-x="1404" 
d="M1124 1399l9 35h423l-6 -35l-49 -8q-59 -7 -98.5 -26t-73.5 -69l-430 -616h358l-8 -41h-377l-6 -6l-45 -211h381l-8 -41h-381l-49 -231q-11 -53 16 -76.5t88 -30.5l62 -8l-6 -35h-684l6 35l63 8q65 7 102 30t48 77l49 231h-381l8 41h381l47 217h-381l8 41h361l-229 620
q-28 76 -93 91l-24 8l6 35h575l-6 -35l-59 -8q-58 -6 -77 -24.5t-3 -66.5l213 -602l422 598q19 27 22.5 44t-10 27.5t-34.5 15.5t-58 8z" />
    <glyph glyph-name="brokenbar" unicode="&#xa6;" horiz-adv-x="401" 
d="M55 -240h-49l158 744h49zM287 854h-49l157 743h49z" />
    <glyph glyph-name="section" unicode="&#xa7;" horiz-adv-x="1415" 
d="M918 -92q167 88 167 266q0 124 -155 293q-39 42 -115 116.5t-125 126t-103 117.5t-81 128.5t-27 121.5q0 47 8 80q-80 -39 -125 -107.5t-45 -158.5q0 -51 23 -104.5t74.5 -116.5t91.5 -104.5t117 -116.5q53 -53 77 -77.5t68 -72.5t65 -79t46.5 -73.5t36 -81t10.5 -77.5
q0 -44 -8 -80zM1311 375q0 -152 -116.5 -290.5t-285.5 -205.5q-39 -121 -154.5 -194.5t-277.5 -73.5q-55 0 -101 10.5t-75.5 29t-48 42t-20.5 50t9 52.5t39.5 51t71.5 43q24 -100 83 -162.5t136 -62.5q66 0 101 47q34 42 33 105.5t-43 128.5q-32 46 -88 104.5t-115.5 114
t-119.5 114t-114.5 124.5t-87.5 126q-71 134 -32 263.5t145 234t246 160.5q39 123 154 195.5t278 72.5q113 0 178 -41t65 -100q0 -81 -118 -137q-24 99 -84 162t-138 63q-61 0 -96 -44t-35 -112q0 -48 33.5 -105t87.5 -113.5t119 -117.5t130.5 -126t119.5 -129.5
t87.5 -137.5t33.5 -141z" />
    <glyph glyph-name="dieresis" unicode="&#xa8;" 
d="M575 1262q-64 0 -107.5 41.5t-43.5 103.5q0 65 43.5 107t107.5 42q66 0 109 -41.5t43 -107.5q0 -63 -43 -104t-109 -41zM1014 1262q-66 0 -109 41t-43 104q0 66 43 107.5t109 41.5t107.5 -41.5t41.5 -107.5q0 -63 -41.5 -104t-107.5 -41z" />
    <glyph glyph-name="copyright" unicode="&#xa9;" horiz-adv-x="1820" 
d="M942 -57q167 0 311 56.5t247 157.5t161.5 246.5t58.5 317.5q0 230 -100.5 408.5t-277.5 275t-400 96.5t-399.5 -96.5t-276.5 -274.5t-100 -409q0 -172 58.5 -317.5t161 -246.5t246 -157.5t310.5 -56.5zM989 279q-135 0 -247 53.5t-179 155.5t-67 233q0 201 140.5 321.5
t354.5 120.5q162 0 283 -63l6 -228h-14q-26 108 -100 180t-154 72q-100 0 -153.5 -104t-53.5 -295q0 -198 58 -303t167 -105q85 0 153.5 71t88.5 183h14v-227q-151 -65 -297 -65zM942 -94q-233 0 -418 100t-291 286.5t-106 428.5q0 179 61.5 331t169.5 257t259 164t325 59
q236 0 421.5 -101t290.5 -286t105 -424q0 -242 -105 -428t-290.5 -286.5t-421.5 -100.5z" />
    <glyph glyph-name="ordfeminine" unicode="&#xaa;" horiz-adv-x="1116" 
d="M457 694q24 0 52 17t67 64.5t79 119.5t89 194t96 277q-58 55 -111 55q-58 0 -120.5 -71t-108.5 -171.5t-75.5 -209t-29.5 -183.5q0 -92 62 -92zM1128 881l19 -13q-94 -171 -194 -262.5t-193 -91.5q-60 0 -87 43t-5 121l135 500q-54 -157 -110.5 -276t-106.5 -192
t-102.5 -118t-97 -61.5t-91.5 -16.5q-87 0 -125.5 59.5t-38.5 155.5q0 182 89.5 348t243.5 269.5t329 103.5q81 0 172 -31l157 31h2l-221 -825q121 83 225 256z" />
    <glyph glyph-name="guillemotleft" unicode="&#xab;" horiz-adv-x="966" 
d="M565 981v-2l-243 -463l63 -389l-2 -2l-309 426v4zM455 555l491 426v-2l-244 -463l64 -389l-2 -2l-309 426v4z" />
    <glyph glyph-name="uni00AD" unicode="&#xad;" horiz-adv-x="645" 
d="M618 696h-532l8 41h533z" />
    <glyph glyph-name="registered" unicode="&#xae;" horiz-adv-x="1097" 
d="M645 592q185 0 310.5 121t125.5 311t-126.5 310t-311.5 120q-119 0 -217.5 -53t-157.5 -152t-59 -225q0 -190 125.5 -311t310.5 -121zM633 1239h-27v-205h31q80 0 80 107q0 98 -84 98zM645 1485q200 0 334.5 -127.5t134.5 -333.5t-134.5 -334.5t-334.5 -128.5
q-198 0 -333.5 129t-135.5 334q0 136 63.5 242.5t170 162.5t235.5 56zM846 1145q0 -78 -88 -115l135 -186v-23h-143l-111 189h-33v-133q0 -31 35 -31l16 -2v-23h-227v23l14 2q37 0 37 31v329q0 30 -37 33h-14v25h203q100 0 156.5 -31.5t56.5 -87.5z" />
    <glyph glyph-name="macron" unicode="&#xaf;" 
d="M1079 1319h-610l8 41h610z" />
    <glyph glyph-name="degree" unicode="&#xb0;" horiz-adv-x="700" 
d="M449 909q-106 0 -174 66.5t-68 171.5q0 130 85 218.5t216 88.5q106 0 173 -67t67 -175q0 -132 -83.5 -217.5t-215.5 -85.5zM453 950q109 0 180.5 71t71.5 183q0 95 -56 152t-145 57q-111 0 -182.5 -75t-71.5 -187q0 -91 57 -146t146 -55z" />
    <glyph glyph-name="plusminus" unicode="&#xb1;" horiz-adv-x="1064" 
d="M674 1094l-70 -330h410l-8 -41h-410l-70 -326h-43l70 326h-406l9 41h405l70 330h43zM905 156h-901l8 41h901z" />
    <glyph glyph-name="twosuperior" unicode="&#xb2;" horiz-adv-x="702" 
d="M600 573h-584l7 31q84 71 149 129t132 126t110 125t70.5 114.5t27.5 105.5q0 55 -31.5 84t-81.5 29q-115 0 -200 -129l-19 10q70 120 169 183t206 63q99 0 155 -52t56 -130q0 -222 -514 -490v-6h211q171 0 250 108h22z" />
    <glyph glyph-name="threesuperior" unicode="&#xb3;" horiz-adv-x="679" 
d="M319 561q-119 0 -187.5 37.5t-68.5 95.5q0 64 74 99q41 -81 97 -137t114 -56q56 0 88.5 52.5t32.5 121.5q0 81 -49 122.5t-139 41.5q-33 0 -74 -6l-4 24q124 59 209.5 137.5t85.5 155.5q0 80 -90 80q-59 0 -114 -35.5t-97 -97.5l-19 10q66 112 165.5 176t205.5 64
q83 0 132.5 -37t49.5 -104q0 -86 -85.5 -145.5t-233.5 -104.5l2 -8q136 1 208 -51.5t72 -149.5q0 -122 -108.5 -203.5t-266.5 -81.5z" />
    <glyph glyph-name="acute" unicode="&#xb4;" 
d="M895 1559h373l-2 -5l-516 -329h-9z" />
    <glyph glyph-name="paragraph" unicode="&#xb6;" horiz-adv-x="1349" 
d="M901 1434h596l-10 -43h-195l-370 -1743h-52l371 1743h-299l-371 -1743h-51l170 803q-272 0 -424.5 121.5t-152.5 314.5q0 115 40 207.5t110 155t170 104.5t216 61t252 19z" />
    <glyph glyph-name="periodcentered" unicode="&#xb7;" horiz-adv-x="464" 
d="M266 573q-67 0 -112 46t-45 112q0 68 45 115t112 47q69 0 115.5 -47t46.5 -115q0 -66 -46.5 -112t-115.5 -46z" />
    <glyph glyph-name="cedilla" unicode="&#xb8;" 
d="M526 10l-71 -92q77 -22 124.5 -65.5t47.5 -106.5q0 -59 -37 -106t-97.5 -73.5t-129 -40t-140.5 -13.5q-28 0 -78 4l-2 77q93 -34 174 -34q66 0 104 26.5t38 81.5q0 86 -170 121l182 221h55z" />
    <glyph glyph-name="onesuperior" unicode="&#xb9;" horiz-adv-x="522" 
d="M492 573h-463l6 35l57 2q64 6 76 52l123 579q7 33 -2.5 41t-44.5 8h-78l6 29l365 125h16l-166 -782q-5 -24 8 -36.5t45 -13.5l58 -4z" />
    <glyph glyph-name="ordmasculine" unicode="&#xba;" horiz-adv-x="995" 
d="M492 543q49 0 96 50.5t83.5 132.5t64 174t44.5 187q28 163 5.5 248.5t-91.5 85.5q-60 0 -118.5 -77t-97.5 -188.5t-63 -231t-24 -207.5q0 -174 101 -174zM684 1450q159 0 252.5 -97t93.5 -257q0 -149 -70 -282.5t-193 -215.5t-267 -82q-156 0 -250 96.5t-94 257.5
q0 109 40 213.5t108.5 185.5t168 131t211.5 50z" />
    <glyph glyph-name="guillemotright" unicode="&#xbb;" horiz-adv-x="968" 
d="M199 981l309 -426v-4l-492 -426v2l244 463l-63 389zM578 979l2 2l309 -426v-4l-492 -426v2l244 463z" />
    <glyph glyph-name="onequarter" unicode="&#xbc;" horiz-adv-x="1626" 
d="M1530 260l-8 -39h-109l-29 -133q-4 -25 5.5 -35.5t37.5 -15.5l43 -2l-6 -35h-413l6 35l43 2q31 5 46 15.5t19 35.5l29 133h-348l-8 31l477 608h209l-4 -12l-627 -588h309l60 277l231 61l-72 -338h109zM440 612l58 -4l-6 -35h-463l6 35l57 2q64 6 76 52l123 579
q7 33 -2.5 41t-44.5 8h-78l6 29l365 125h16l-166 -782q-5 -24 8 -36.5t45 -13.5zM205 -25l-31 25l1280 1456l29 -24z" />
    <glyph glyph-name="onehalf" unicode="&#xbd;" horiz-adv-x="1644" 
d="M1554 301l-133 -301h-585l6 31q106 88 186.5 162.5t153 154.5t111 152t38.5 131q0 55 -30.5 83.5t-81.5 28.5q-115 0 -201 -129l-17 11q67 120 166 182.5t207 62.5q99 0 155 -52t56 -130q0 -222 -512 -489v-6h209q170 0 250 108h22zM498 608l-6 -35h-463l6 35l57 2
q64 6 76 52l123 579q7 33 -2.5 41t-44.5 8h-78l6 29l365 125h16l-166 -782q-5 -24 8 -36.5t45 -13.5zM1454 1456l29 -24l-1278 -1457l-31 25z" />
    <glyph glyph-name="threequarters" unicode="&#xbe;" horiz-adv-x="1705" 
d="M694 844q0 -122 -108.5 -203.5t-266.5 -81.5q-119 0 -187.5 37.5t-68.5 93.5q0 68 74 98q41 -80 97.5 -135t113.5 -55q56 0 88.5 52.5t32.5 119.5q0 81 -50.5 123.5t-142.5 42.5q-32 0 -69 -6l-4 24q122 58 208.5 137.5t86.5 153.5q0 82 -90 82q-59 0 -114 -35.5
t-97 -97.5l-19 10q66 112 165.5 176t205.5 64q83 0 132.5 -37t49.5 -104q0 -41 -23.5 -78t-54.5 -62t-80 -49t-82.5 -36.5t-78.5 -26.5l2 -7q136 1 208 -51t72 -149zM285 -25l-31 25l1280 1456l29 -24zM1610 260l-8 -39h-109l-29 -133q-4 -25 5.5 -35.5t37.5 -15.5l43 -2
l-6 -35h-414l7 35l43 2q31 5 46 15.5t19 35.5l29 133h-348l-8 31l477 608h209l-5 -12l-626 -588h309l59 277l232 61l-72 -338h109z" />
    <glyph glyph-name="questiondown" unicode="&#xbf;" horiz-adv-x="802" 
d="M125 -248q86 0 216 56.5t253 148.5q35 -103 -2 -166q-36 -61 -115.5 -92t-185.5 -31q-167 0 -274 80.5t-107 218.5q0 117 77.5 217.5t199.5 166.5t274 100l63 178h21l-53 -424q-136 -27 -250 -82q-114 -58 -179 -126.5t-65 -135.5q0 -47 30 -78t97 -31zM610 1135
q67 0 112.5 -46t45.5 -112q0 -68 -45.5 -115t-112.5 -47q-69 0 -115 47t-46 115q0 66 46 112t115 46z" />
    <glyph glyph-name="Agrave" unicode="&#xc0;" horiz-adv-x="1390" 
d="M807 541l-105 686l-368 -686h473zM1290 43l41 -8l-6 -35h-623l7 35l53 8q65 11 89 32t17 68l-55 357h-502l-190 -357q-27 -49 -11 -69.5t95 -30.5l69 -8l-8 -35h-399l6 35l43 8q60 11 91 32t56 68l695 1291h207l219 -1293q7 -46 30.5 -66.5t75.5 -31.5zM514 1853h367
l18 -333h-8l-377 329v4z" />
    <glyph glyph-name="Aacute" unicode="&#xc1;" horiz-adv-x="1390" 
d="M807 541l-105 686l-368 -686h473zM758 1434h207l219 -1293q7 -46 30.5 -66.5t75.5 -31.5l41 -8l-6 -35h-623l7 35l53 8q65 11 89 32t17 68l-55 357h-502l-190 -357q-27 -49 -11 -69.5t95 -30.5l69 -8l-8 -35h-399l6 35l43 8q60 11 91 32t56 68zM838 1520h-9l154 333h373
l-2 -4z" />
    <glyph glyph-name="Acircumflex" unicode="&#xc2;" horiz-adv-x="1390" 
d="M807 541l-105 686l-368 -686h473zM1290 43l41 -8l-6 -35h-623l7 35l53 8q65 11 89 32t17 68l-55 357h-502l-190 -357q-27 -49 -11 -69.5t95 -30.5l69 -8l-8 -35h-399l6 35l43 8q60 11 91 32t56 68l695 1291h207l219 -1293q7 -46 30.5 -66.5t75.5 -31.5zM1208 1528l-8 -8
l-268 127l-363 -127l-4 6l393 344h5z" />
    <glyph glyph-name="Atilde" unicode="&#xc3;" horiz-adv-x="1390" 
d="M807 541l-105 686l-368 -686h473zM1290 43l41 -8l-6 -35h-623l7 35l53 8q65 11 89 32t17 68l-55 357h-502l-190 -357q-27 -49 -11 -69.5t95 -30.5l69 -8l-8 -35h-399l6 35l43 8q60 11 91 32t56 68l695 1291h207l219 -1293q7 -46 30.5 -66.5t75.5 -31.5zM705 1645
q-77 0 -142 -78l-10 2q99 256 256 256q65 0 119 -31q16 -9 51 -31t54.5 -32.5t47.5 -20.5t52 -10q85 0 141 82l10 -2q-38 -113 -105.5 -185.5t-154.5 -72.5q-43 0 -89.5 19t-81 42.5t-75.5 42.5t-73 19z" />
    <glyph glyph-name="Adieresis" unicode="&#xc4;" horiz-adv-x="1390" 
d="M807 541l-105 686l-368 -686h473zM1290 43l41 -8l-6 -35h-623l7 35l53 8q65 11 89 32t17 68l-55 357h-502l-190 -357q-27 -49 -11 -69.5t95 -30.5l69 -8l-8 -35h-399l6 35l43 8q60 11 91 32t56 68l695 1291h207l219 -1293q7 -46 30.5 -66.5t75.5 -31.5zM709 1577
q-64 0 -108 41.5t-44 103.5q0 65 44 107.5t108 42.5q66 0 108.5 -42t42.5 -108q0 -63 -42.5 -104t-108.5 -41zM1147 1577q-66 0 -109 41t-43 104q0 66 43 108t109 42t107.5 -42t41.5 -108q0 -63 -41.5 -104t-107.5 -41z" />
    <glyph glyph-name="Aring" unicode="&#xc5;" horiz-adv-x="1390" 
d="M807 541l-105 686l-368 -686h473zM938 1874q-71 0 -119.5 -49t-48.5 -119q0 -62 42 -101.5t106 -39.5q72 0 119.5 47.5t47.5 116.5q0 63 -42 104t-105 41zM1290 43l41 -8l-6 -35h-623l7 35l53 8q65 11 89 32t17 68l-55 357h-502l-190 -357q-27 -49 -11 -69.5t95 -30.5
l69 -8l-8 -35h-399l6 35l43 8q60 11 91 32t56 68l695 1291h207l219 -1293q7 -46 30.5 -66.5t75.5 -31.5zM911 1522q-83 0 -135.5 49.5t-52.5 132.5q0 91 63.5 153t157.5 62q85 0 137 -50t52 -134q0 -91 -63 -152t-159 -61z" />
    <glyph glyph-name="AE" unicode="&#xc6;" horiz-adv-x="1982" 
d="M950 715l121 569l-450 -569h329zM983 1391l-61 8l8 35h1048l-24 -447l-23 -6q-10 86 -34 156.5t-66 130t-109.5 92.5t-154.5 33h-168l-137 -645h127q88 0 147.5 59.5t122.5 208.5h20l-123 -578h-20q10 149 -24.5 209t-131.5 60h-127l-141 -666h182q104 0 186.5 20t159 68
t140.5 131.5t118 206.5h25l-164 -467h-1132l6 35l61 8q61 8 92.5 29.5t42.5 77.5l113 524h-354l-434 -547q-32 -38 -21 -55.5t76 -24.5l55 -6l-10 -41h-363l9 41l45 6q92 12 147 78l977 1225q-17 31 -86 41z" />
    <glyph glyph-name="Ccedilla" unicode="&#xc7;" horiz-adv-x="1386" 
d="M973 1454q244 0 483 -133l-51 -334h-21q-13 197 -120.5 314.5t-272.5 117.5q-111 0 -209.5 -57t-169 -150t-122.5 -211t-77.5 -242.5t-25.5 -240.5q0 -228 100 -366t265 -138q155 0 299.5 121.5t218.5 310.5h18l-80 -376q-241 -90 -458 -90q-32 0 -86 4l-52 -66
q77 -22 124.5 -65.5t47.5 -106.5q0 -60 -36.5 -106t-96 -73t-128.5 -40.5t-142 -13.5q-30 0 -80 4v77q90 -34 174 -34q65 0 103 26.5t38 81.5q0 86 -170 121l166 201q-241 36 -380.5 192.5t-139.5 413.5q0 184 70.5 345t189.5 273t280.5 176t340.5 64z" />
    <glyph glyph-name="Egrave" unicode="&#xc8;" horiz-adv-x="1280" 
d="M221 1399l6 35h1049l-23 -447l-24 -6q-10 86 -34 156.5t-66.5 130t-110 92.5t-154.5 33h-166l-139 -645h127q88 0 148.5 59.5t121.5 208.5h21l-123 -578h-20q10 149 -24.5 209t-131.5 60h-127l-141 -666h184q104 0 186 20t158 68t140 131.5t120 206.5h23l-162 -467h-1135
l6 35l62 8q61 8 92.5 29.5t44.5 77.5l240 1134q12 56 -10 77t-78 30zM895 1853l18 -333h-8l-377 329v4h367z" />
    <glyph glyph-name="Eacute" unicode="&#xc9;" horiz-adv-x="1280" 
d="M281 1391l-60 8l6 35h1049l-23 -447l-24 -6q-10 86 -34 156.5t-66.5 130t-110 92.5t-154.5 33h-166l-139 -645h127q88 0 148.5 59.5t121.5 208.5h21l-123 -578h-20q10 149 -24.5 209t-131.5 60h-127l-141 -666h184q104 0 186 20t158 68t140 131.5t120 206.5h23l-162 -467
h-1135l6 35l62 8q61 8 92.5 29.5t44.5 77.5l240 1134q12 56 -10 77t-78 30zM803 1520l155 333h371v-4l-518 -329h-8z" />
    <glyph glyph-name="Ecircumflex" unicode="&#xca;" horiz-adv-x="1280" 
d="M221 1399l6 35h1049l-23 -447l-24 -6q-10 86 -34 156.5t-66.5 130t-110 92.5t-154.5 33h-166l-139 -645h127q88 0 148.5 59.5t121.5 208.5h21l-123 -578h-20q10 149 -24.5 209t-131.5 60h-127l-141 -666h184q104 0 186 20t158 68t140 131.5t120 206.5h23l-162 -467h-1135
l6 35l62 8q61 8 92.5 29.5t44.5 77.5l240 1134q12 56 -10 77t-78 30zM1174 1520l-269 127l-362 -127l-4 6l393 344h4l246 -342z" />
    <glyph glyph-name="Edieresis" unicode="&#xcb;" horiz-adv-x="1280" 
d="M221 1399l6 35h1049l-23 -447l-24 -6q-10 86 -34 156.5t-66.5 130t-110 92.5t-154.5 33h-166l-139 -645h127q88 0 148.5 59.5t121.5 208.5h21l-123 -578h-20q10 149 -24.5 209t-131.5 60h-127l-141 -666h184q104 0 186 20t158 68t140 131.5t120 206.5h23l-162 -467h-1135
l6 35l62 8q61 8 92.5 29.5t44.5 77.5l240 1134q12 56 -10 77t-78 30zM684 1577q-66 0 -109 41t-43 104q0 66 43 108t109 42t108 -42t42 -108q0 -63 -42 -104t-108 -41zM1120 1577q-66 0 -108.5 41t-42.5 104q0 66 42.5 108t108.5 42t108 -42t42 -108q0 -63 -42 -104
t-108 -41z" />
    <glyph glyph-name="Igrave" unicode="&#xcc;" horiz-adv-x="737" 
d="M575 0h-651l6 35l60 8q59 7 92.5 30t46.5 77l240 1134q13 56 -11.5 78t-81.5 29l-55 8l6 35h652l-9 -35l-57 -8q-61 -7 -94.5 -29t-44.5 -78l-242 -1134q-11 -53 13.5 -76.5t80.5 -30.5l56 -8zM612 1520h-8l-379 329l2 4h367z" />
    <glyph glyph-name="Iacute" unicode="&#xcd;" horiz-adv-x="737" 
d="M575 0h-651l6 35l60 8q59 7 92.5 30t46.5 77l240 1134q13 56 -11.5 78t-81.5 29l-55 8l6 35h652l-9 -35l-57 -8q-61 -7 -94.5 -29t-44.5 -78l-242 -1134q-11 -53 13.5 -76.5t80.5 -30.5l56 -8zM676 1853h373l-2 -4l-517 -329h-8z" />
    <glyph glyph-name="Icircumflex" unicode="&#xce;" horiz-adv-x="737" 
d="M276 1391l-55 8l6 35h652l-9 -35l-57 -8q-61 -7 -94.5 -29t-44.5 -78l-242 -1134q-11 -53 13.5 -76.5t80.5 -30.5l56 -8l-7 -35h-651l6 35l60 8q59 7 92.5 30t46.5 77l240 1134q13 56 -11.5 78t-81.5 29zM651 1870h4l246 -342l-8 -8l-268 127l-363 -127l-6 6z" />
    <glyph glyph-name="Idieresis" unicode="&#xcf;" horiz-adv-x="737" 
d="M575 0h-651l6 35l60 8q59 7 92.5 30t46.5 77l240 1134q13 56 -11.5 78t-81.5 29l-55 8l6 35h652l-9 -35l-57 -8q-61 -7 -94.5 -29t-44.5 -78l-242 -1134q-11 -53 13.5 -76.5t80.5 -30.5l56 -8zM401 1577q-66 0 -108.5 41t-42.5 104q0 66 42.5 108t108.5 42t108 -42
t42 -108q0 -63 -42 -104t-108 -41zM840 1577q-66 0 -109 41t-43 104q0 66 43 108t109 42t107.5 -42t41.5 -108q0 -63 -41.5 -104t-107.5 -41z" />
    <glyph glyph-name="Eth" unicode="&#xd0;" horiz-adv-x="1542" 
d="M557 696l-139 -655h164q94 0 180 37t153 101t122 150t90.5 185t55 206t19.5 212q0 211 -91 336t-255 125h-151l-140 -656h273l-9 -41h-272zM221 1399l8 35h623q310 0 485.5 -167t175.5 -440q0 -158 -51 -292.5t-140 -232t-209.5 -166.5t-260.5 -102.5t-291 -33.5h-635
l6 35l52 8q76 11 105.5 32t39.5 75l117 546h-154l8 41h154l117 547q11 55 -8 78.5t-84 30.5z" />
    <glyph glyph-name="Ntilde" unicode="&#xd1;" horiz-adv-x="1507" 
d="M1235 1399l6 35h428l-6 -35l-64 -8q-67 -7 -103.5 -29t-47.5 -78l-272 -1284h-201l-557 1262l-238 -1112q-11 -54 16 -77t89 -30l61 -8l-8 -35h-428l8 35l64 8q65 7 101.5 30t47.5 77l242 1134q11 56 -12 78t-78 29l-54 8l7 35h428l526 -1137l209 987q13 56 -14 78
t-91 29zM813 1645q-76 0 -141 -78l-13 2q99 256 259 256q64 0 118 -31q17 -10 51 -31t53 -32t47.5 -21t53.5 -10q85 0 141 82l11 -2q-40 -113 -107 -185.5t-153 -72.5q-44 0 -91.5 19t-81 42.5t-74.5 42.5t-73 19z" />
    <glyph glyph-name="Ograve" unicode="&#xd2;" horiz-adv-x="1464" 
d="M627 14q103 0 186 68q104 86 185.5 257t121 356.5t39.5 351.5q0 182 -66 277t-188 95q-96 0 -183 -68t-149 -178.5t-108.5 -246.5t-69 -275t-22.5 -262q0 -182 67 -278.5t187 -96.5zM907 1454q248 0 394.5 -152.5t146.5 -408.5q0 -174 -64 -340t-172.5 -292.5
t-262.5 -203.5t-324 -77q-245 0 -393 154t-148 407q0 176 64 342.5t172.5 292.5t262.5 202t324 76zM977 1853l18 -333h-8l-377 329v4h367z" />
    <glyph glyph-name="Oacute" unicode="&#xd3;" horiz-adv-x="1464" 
d="M627 14q103 0 186 68q104 86 185.5 257t121 356.5t39.5 351.5q0 182 -66 277t-188 95q-96 0 -183 -68t-149 -178.5t-108.5 -246.5t-69 -275t-22.5 -262q0 -182 67 -278.5t187 -96.5zM907 1454q248 0 394.5 -152.5t146.5 -408.5q0 -174 -64 -340t-172.5 -292.5
t-262.5 -203.5t-324 -77q-245 0 -393 154t-148 407q0 176 64 342.5t172.5 292.5t262.5 202t324 76zM905 1520l156 333h371v-4l-519 -329h-8z" />
    <glyph glyph-name="Ocircumflex" unicode="&#xd4;" horiz-adv-x="1464" 
d="M627 14q103 0 186 68q104 86 185.5 257t121 356.5t39.5 351.5q0 182 -66 277t-188 95q-96 0 -183 -68t-149 -178.5t-108.5 -246.5t-69 -275t-22.5 -262q0 -182 67 -278.5t187 -96.5zM907 1454q248 0 394.5 -152.5t146.5 -408.5q0 -174 -64 -340t-172.5 -292.5
t-262.5 -203.5t-324 -77q-245 0 -393 154t-148 407q0 176 64 342.5t172.5 292.5t262.5 202t324 76zM1264 1528l-9 -8l-268 127l-362 -127l-4 6l393 344h4z" />
    <glyph glyph-name="Otilde" unicode="&#xd5;" horiz-adv-x="1464" 
d="M627 14q103 0 186 68q104 86 185.5 257t121 356.5t39.5 351.5q0 182 -66 277t-188 95q-96 0 -183 -68t-149 -178.5t-108.5 -246.5t-69 -275t-22.5 -262q0 -182 67 -278.5t187 -96.5zM907 1454q248 0 394.5 -152.5t146.5 -408.5q0 -174 -64 -340t-172.5 -292.5
t-262.5 -203.5t-324 -77q-245 0 -393 154t-148 407q0 176 64 342.5t172.5 292.5t262.5 202t324 76zM1081 1522q-44 0 -91.5 19t-81.5 42.5t-75 42.5t-73 19q-74 0 -139 -78l-13 2q99 256 256 256q65 0 119 -31q16 -9 51 -31t54 -32.5t48 -20.5t54 -10q85 0 141 82l10 -2
q-40 -113 -107 -185.5t-153 -72.5z" />
    <glyph glyph-name="Odieresis" unicode="&#xd6;" horiz-adv-x="1464" 
d="M627 14q103 0 186 68q104 86 185.5 257t121 356.5t39.5 351.5q0 182 -66 277t-188 95q-96 0 -183 -68t-149 -178.5t-108.5 -246.5t-69 -275t-22.5 -262q0 -182 67 -278.5t187 -96.5zM907 1454q248 0 394.5 -152.5t146.5 -408.5q0 -174 -64 -340t-172.5 -292.5
t-262.5 -203.5t-324 -77q-245 0 -393 154t-148 407q0 176 64 342.5t172.5 292.5t262.5 202t324 76zM766 1577q-66 0 -109 41t-43 104q0 66 43 108t109 42t107.5 -42t41.5 -108q0 -63 -41.5 -104t-107.5 -41zM1202 1577q-66 0 -108.5 41t-42.5 104q0 66 42.5 108t108.5 42
t108 -42t42 -108q0 -63 -42 -104t-108 -41z" />
    <glyph glyph-name="multiply" unicode="&#xd7;" horiz-adv-x="942" 
d="M487 629l-456 -379l-27 39l455 377l-293 372l37 33l297 -375l450 375l27 -39l-451 -373l291 -370l-37 -31z" />
    <glyph glyph-name="Oslash" unicode="&#xd8;" horiz-adv-x="1517" 
d="M653 14q88 0 166.5 53.5t134.5 141t101 195t72 221.5t41.5 213t15.5 176l-785 -647q4 -172 70 -262.5t184 -90.5zM930 1419q-103 0 -192 -74.5t-148.5 -187.5t-103 -251t-64 -261.5t-23.5 -222.5l785 647q-4 171 -69.5 260.5t-184.5 89.5zM1382 1233l242 201l27 -35
l-246 -203q70 -131 70 -303q0 -174 -64 -340t-172.5 -292.5t-263.5 -203.5t-326 -77q-148 0 -263 58t-185 165l-242 -201l-25 35l244 203q-69 126 -69 301q0 176 64.5 342.5t173 292.5t263 202t324.5 76q148 0 263 -57.5t185 -163.5z" />
    <glyph glyph-name="Ugrave" unicode="&#xd9;" horiz-adv-x="1454" 
d="M676 -20q-168 0 -295 65q-132 65 -188.5 188t-20.5 291l162 760q11 56 -10 78t-74 29l-51 8l8 35h635l-6 -35l-58 -8q-62 -7 -95 -29t-44 -78l-166 -784q-42 -198 51.5 -315t276.5 -117q164 0 259 109t140 317l168 790q11 56 -15 78t-89 29l-60 8l8 35h424l-6 -35l-63 -8
q-67 -7 -103 -29t-47 -78l-168 -790q-53 -251 -191.5 -382.5t-381.5 -131.5zM1036 1520h-10l-377 329v4h367z" />
    <glyph glyph-name="Uacute" unicode="&#xda;" horiz-adv-x="1454" 
d="M676 -20q-168 0 -295 65q-132 65 -188.5 188t-20.5 291l162 760q11 56 -10 78t-74 29l-51 8l8 35h635l-6 -35l-58 -8q-62 -7 -95 -29t-44 -78l-166 -784q-42 -198 51.5 -315t276.5 -117q164 0 259 109t140 317l168 790q11 56 -15 78t-89 29l-60 8l8 35h424l-6 -35l-63 -8
q-67 -7 -103 -29t-47 -78l-168 -790q-53 -251 -191.5 -382.5t-381.5 -131.5zM1079 1853h371v-4l-518 -329h-8z" />
    <glyph glyph-name="Ucircumflex" unicode="&#xdb;" horiz-adv-x="1454" 
d="M1204 1399l8 35h424l-6 -35l-63 -8q-67 -7 -103 -29t-47 -78l-168 -790q-53 -251 -191.5 -382.5t-381.5 -131.5q-168 0 -295 65q-132 65 -188.5 188t-20.5 291l162 760q11 56 -10 78t-74 29l-51 8l8 35h635l-6 -35l-58 -8q-62 -7 -95 -29t-44 -78l-166 -784
q-42 -198 51.5 -315t276.5 -117q164 0 259 109t140 317l168 790q11 56 -15 78t-89 29zM1337 1520l-268 127l-364 -127l-5 6l394 344h4l248 -342z" />
    <glyph glyph-name="Udieresis" unicode="&#xdc;" horiz-adv-x="1454" 
d="M676 -20q-168 0 -295 65q-132 65 -188.5 188t-20.5 291l162 760q11 56 -10 78t-74 29l-51 8l8 35h635l-6 -35l-58 -8q-62 -7 -95 -29t-44 -78l-166 -784q-42 -198 51.5 -315t276.5 -117q164 0 259 109t140 317l168 790q11 56 -15 78t-89 29l-60 8l8 35h424l-6 -35l-63 -8
q-67 -7 -103 -29t-47 -78l-168 -790q-53 -251 -191.5 -382.5t-381.5 -131.5zM1282 1577q-64 0 -108 41.5t-44 103.5q0 65 44 107.5t108 42.5q66 0 109 -42t43 -108q0 -63 -43 -104t-109 -41zM846 1577q-66 0 -109 41t-43 104q0 66 43 108t109 42t107.5 -42t41.5 -108
q0 -63 -41.5 -104t-107.5 -41z" />
    <glyph glyph-name="Yacute" unicode="&#xdd;" horiz-adv-x="1357" 
d="M1151 1399l6 35h404l-7 -35l-43 -8q-54 -7 -90 -29t-69 -66l-494 -661l-102 -485q-11 -54 15.5 -77t88.5 -30l62 -8l-9 -35h-684l9 35l63 8q65 7 102 30t48 77l102 481l-281 672q-30 69 -96 88l-24 8l6 35h594l-7 -35l-65 -8q-59 -7 -77 -24t1 -64l244 -601l450 596
q19 27 22.5 44t-9.5 27t-34 14.5t-58 7.5zM1370 1853l-2 -4l-516 -329h-8l153 333h373z" />
    <glyph glyph-name="Thorn" unicode="&#xde;" horiz-adv-x="1337" 
d="M774 1108h-137l-166 -780h129q199 0 309.5 141.5t110.5 364.5q0 131 -66.5 202.5t-179.5 71.5zM625 291h-162l-31 -141q-11 -54 23 -77t110 -30l74 -8l-8 -35h-707l6 35l60 8q59 7 92.5 30t46.5 77l240 1134q13 56 -11.5 78t-81.5 29l-55 8l6 35h707l-6 -35l-76 -8
q-81 -7 -124 -29t-54 -78l-31 -141h148q247 0 387.5 -102.5t140.5 -272.5q0 -156 -87 -264.5t-241 -160.5t-366 -52z" />
    <glyph glyph-name="germandbls" unicode="&#xdf;" horiz-adv-x="1380" 
d="M1374 1194q-313 -106 -313 -256q0 -43 23.5 -94.5t57.5 -100.5t67.5 -100t57 -111t23.5 -116q0 -186 -132 -311t-324 -125q-130 0 -221 54.5t-91 129.5q0 84 117 143q16 -62 52.5 -124.5t96.5 -110t123 -47.5q68 0 116 52.5t48 137.5q0 45 -25 97t-60 102t-70.5 101.5
t-60.5 112t-25 117.5q0 106 73 191.5t232 175.5q6 110 -17 229q-26 118 -79 186t-134 68q-108 0 -176 -108.5t-137 -364.5l-250 -932q-54 -192 -151 -315q-98 -128 -217.5 -196t-237.5 -68q-96 0 -150.5 37.5t-54.5 93.5q0 45 36 88.5t110 73.5q17 -106 63.5 -166t112.5 -60
q47 0 77.5 68.5t83.5 271.5l279 1037q1 5 4 15t4 15h-158l13 41l162 15q79 240 221 368.5t366 128.5q201 0 327 -121.5t138 -322.5z" />
    <glyph glyph-name="agrave" unicode="&#xe0;" horiz-adv-x="1259" 
d="M389 180q33 0 73 24.5t91.5 87t104.5 155.5t113.5 243.5t117.5 339.5q-70 76 -152 76q-119 0 -243 -203q-84 -138 -138.5 -306t-54.5 -288q0 -129 88 -129zM1227 432l22 -16q-114 -208 -235.5 -322t-235.5 -114q-69 0 -99 48t-5 138l172 637q-67 -188 -136 -332.5
t-132 -236.5t-128.5 -150t-123 -81t-117.5 -23q-106 0 -154.5 73t-48.5 193q0 123 39 252t112 243t168.5 205t218 144t251.5 53q115 0 231 -41l184 41h4l-278 -1043q67 44 143.5 130.5t147.5 201.5zM508 1559h366l19 -334h-8l-379 329z" />
    <glyph glyph-name="aacute" unicode="&#xe1;" horiz-adv-x="1259" 
d="M389 180q33 0 73 24.5t91.5 87t104.5 155.5t113.5 243.5t117.5 339.5q-70 76 -152 76q-119 0 -243 -203q-84 -138 -138.5 -306t-54.5 -288q0 -129 88 -129zM1210 1143h4l-278 -1043q67 44 143.5 130.5t147.5 201.5l22 -16q-114 -208 -235.5 -322t-235.5 -114
q-69 0 -99 48t-5 138l172 637q-67 -188 -136 -332.5t-132 -236.5t-128.5 -150t-123 -81t-117.5 -23q-106 0 -154.5 73t-48.5 193q0 123 39 252t112 243t168.5 205t218 144t251.5 53q115 0 231 -41zM840 1225h-9l154 334h373l-2 -5z" />
    <glyph glyph-name="acircumflex" unicode="&#xe2;" horiz-adv-x="1259" 
d="M389 180q33 0 73 24.5t91.5 87t104.5 155.5t113.5 243.5t117.5 339.5q-70 76 -152 76q-119 0 -243 -203q-84 -138 -138.5 -306t-54.5 -288q0 -129 88 -129zM1227 432l22 -16q-114 -208 -235.5 -322t-235.5 -114q-69 0 -99 48t-5 138l172 637q-67 -188 -136 -332.5
t-132 -236.5t-128.5 -150t-123 -81t-117.5 -23q-106 0 -154.5 73t-48.5 193q0 123 39 252t112 243t168.5 205t218 144t251.5 53q115 0 231 -41l184 41h4l-278 -1043q67 44 143.5 130.5t147.5 201.5zM1171 1233l-8 -8l-268 127l-363 -127l-4 6l394 344h4z" />
    <glyph glyph-name="atilde" unicode="&#xe3;" horiz-adv-x="1259" 
d="M389 180q33 0 73 24.5t91.5 87t104.5 155.5t113.5 243.5t117.5 339.5q-70 76 -152 76q-119 0 -243 -203q-84 -138 -138.5 -306t-54.5 -288q0 -129 88 -129zM1227 432l22 -16q-114 -208 -235.5 -322t-235.5 -114q-69 0 -99 48t-5 138l172 637q-67 -188 -136 -332.5
t-132 -236.5t-128.5 -150t-123 -81t-117.5 -23q-106 0 -154.5 73t-48.5 193q0 123 39 252t112 243t168.5 205t218 144t251.5 53q115 0 231 -41l184 41h4l-278 -1043q67 44 143.5 130.5t147.5 201.5zM668 1374q-77 0 -142 -78l-12 2q99 256 256 256q66 0 119 -30
q16 -9 51 -31t54 -32.5t48 -20.5t54 -10q87 0 141 81l10 -2q-40 -113 -107 -185.5t-153 -72.5q-44 0 -91 19t-81 42.5t-74.5 42.5t-72.5 19z" />
    <glyph glyph-name="adieresis" unicode="&#xe4;" horiz-adv-x="1259" 
d="M389 180q33 0 73 24.5t91.5 87t104.5 155.5t113.5 243.5t117.5 339.5q-70 76 -152 76q-119 0 -243 -203q-84 -138 -138.5 -306t-54.5 -288q0 -129 88 -129zM1210 1143h4l-278 -1043q67 44 143.5 130.5t147.5 201.5l22 -16q-114 -208 -235.5 -322t-235.5 -114
q-69 0 -99 48t-5 138l172 637q-67 -188 -136 -332.5t-132 -236.5t-128.5 -150t-123 -81t-117.5 -23q-106 0 -154.5 73t-48.5 193q0 123 39 252t112 243t168.5 205t218 144t251.5 53q115 0 231 -41zM668 1262q-66 0 -109 41t-43 104q0 66 43 107.5t109 41.5t107.5 -41.5
t41.5 -107.5q0 -63 -41.5 -104t-107.5 -41zM1104 1262q-66 0 -109 41t-43 104q0 66 43 107.5t109 41.5t107.5 -41.5t41.5 -107.5q0 -63 -41.5 -104t-107.5 -41z" />
    <glyph glyph-name="aring" unicode="&#xe5;" horiz-adv-x="1259" 
d="M389 180q33 0 73 24.5t91.5 87t104.5 155.5t113.5 243.5t117.5 339.5q-70 76 -152 76q-119 0 -243 -203q-84 -138 -138.5 -306t-54.5 -288q0 -129 88 -129zM899 1591q-71 0 -119.5 -49t-48.5 -119q0 -62 42 -101.5t106 -39.5q72 0 120 47.5t48 116.5q0 63 -41 104
t-107 41zM1227 432l22 -16q-114 -208 -235.5 -322t-235.5 -114q-69 0 -99 48t-5 138l172 637q-67 -188 -136 -332.5t-132 -236.5t-128.5 -150t-123 -81t-117.5 -23q-106 0 -154.5 73t-48.5 193q0 123 39 252t112 243t168.5 205t218 144t251.5 53q115 0 231 -41l184 41h4
l-278 -1043q67 44 143.5 130.5t147.5 201.5zM874 1239q-83 0 -136.5 49.5t-53.5 132.5q0 91 63.5 153t157.5 62q86 0 138.5 -50t52.5 -134q0 -91 -63 -152t-159 -61z" />
    <glyph glyph-name="ae" unicode="&#xe6;" horiz-adv-x="1533" 
d="M602 356v4q0 180 83.5 356.5t223.5 289.5q-89 100 -172 100q-119 0 -243 -203q-84 -138 -138.5 -306t-54.5 -288q0 -129 88 -129q95 0 213 176zM1243 1102q-76 0 -151 -80.5t-127 -201.5t-74 -251q114 32 202 85t137 112t73 115.5t24 107.5q0 52 -22 82.5t-62 30.5z
M1075 150q93 0 194.5 75.5t178.5 206.5l22 -16q-100 -207 -241 -321.5t-305 -114.5q-143 0 -224.5 85.5t-95.5 235.5q-192 -321 -395 -321q-106 0 -154.5 73t-48.5 193q0 104 28 211.5t78 206.5t123.5 187t159.5 152.5t190.5 102t213.5 37.5q123 0 245 -51q114 51 236 51
q129 0 201.5 -54t72.5 -135q0 -78 -69 -159q-72 -91 -224 -157.5t-376 -96.5q-6 -55 -6 -105q0 -131 52 -208.5t144 -77.5z" />
    <glyph glyph-name="ccedilla" unicode="&#xe7;" horiz-adv-x="964" 
d="M991 932q0 -71 -50.5 -127.5t-137.5 -69.5q13 365 -150 365q-89 0 -168.5 -100t-124.5 -248t-45 -293q0 -140 48.5 -224.5t144.5 -84.5q92 0 189 74.5t171 207.5l23 -16q-96 -209 -228 -322.5t-294 -113.5h-19l-47 -60q75 -22 123.5 -66t48.5 -106q0 -60 -36.5 -106
t-96 -73t-128.5 -40.5t-142 -13.5q-30 0 -80 4l-2 78q96 -35 174 -35q141 0 141 108q0 86 -168 123l160 193q-125 24 -190.5 130.5t-65.5 266.5q0 110 29.5 220t87.5 206.5t136 171.5t182 118.5t218 43.5q154 0 226 -66q71 -68 71 -145z" />
    <glyph glyph-name="egrave" unicode="&#xe8;" horiz-adv-x="964" 
d="M674 1102q-76 0 -151 -80.5t-127 -201.5t-74 -251q114 32 202 85t137 112t73 115.5t24 107.5q0 52 -22 82.5t-62 30.5zM506 150q93 0 194.5 75.5t178.5 206.5l22 -16q-99 -207 -241 -321.5t-306 -114.5q-156 0 -238.5 102.5t-82.5 277.5q0 111 32.5 224t93.5 212.5
t143 177.5t188.5 123.5t220.5 45.5q129 0 201.5 -54t72.5 -135q0 -77 -70 -159q-72 -91 -224 -157.5t-376 -96.5q-6 -55 -6 -105q0 -131 52 -208.5t145 -77.5zM369 1559h366l21 -334h-11l-376 329v5z" />
    <glyph glyph-name="eacute" unicode="&#xe9;" horiz-adv-x="964" 
d="M674 1102q-76 0 -151 -80.5t-127 -201.5t-74 -251q114 32 202 85t137 112t73 115.5t24 107.5q0 52 -22 82.5t-62 30.5zM985 954q0 -77 -70 -159q-72 -91 -224 -157.5t-376 -96.5q-6 -55 -6 -105q0 -131 52 -208.5t145 -77.5t194.5 75.5t178.5 206.5l22 -16
q-99 -207 -241 -321.5t-306 -114.5q-156 0 -238.5 102.5t-82.5 277.5q0 111 32.5 224t93.5 212.5t143 177.5t188.5 123.5t220.5 45.5q129 0 201.5 -54t72.5 -135zM702 1225h-8l154 334h373l-2 -5z" />
    <glyph glyph-name="ecircumflex" unicode="&#xea;" horiz-adv-x="964" 
d="M674 1102q-76 0 -151 -80.5t-127 -201.5t-74 -251q114 32 202 85t137 112t73 115.5t24 107.5q0 52 -22 82.5t-62 30.5zM985 954q0 -77 -70 -159q-72 -91 -224 -157.5t-376 -96.5q-6 -55 -6 -105q0 -131 52 -208.5t145 -77.5t194.5 75.5t178.5 206.5l22 -16
q-99 -207 -241 -321.5t-306 -114.5q-156 0 -238.5 102.5t-82.5 277.5q0 111 32.5 224t93.5 212.5t143 177.5t188.5 123.5t220.5 45.5q129 0 201.5 -54t72.5 -135zM389 1231l395 344h4l246 -342l-8 -8l-268 127l-363 -127z" />
    <glyph glyph-name="edieresis" unicode="&#xeb;" horiz-adv-x="964" 
d="M674 1102q-76 0 -151 -80.5t-127 -201.5t-74 -251q114 32 202 85t137 112t73 115.5t24 107.5q0 52 -22 82.5t-62 30.5zM985 954q0 -77 -70 -159q-72 -91 -224 -157.5t-376 -96.5q-6 -55 -6 -105q0 -131 52 -208.5t145 -77.5t194.5 75.5t178.5 206.5l22 -16
q-99 -207 -241 -321.5t-306 -114.5q-156 0 -238.5 102.5t-82.5 277.5q0 111 32.5 224t93.5 212.5t143 177.5t188.5 123.5t220.5 45.5q129 0 201.5 -54t72.5 -135zM528 1262q-64 0 -107.5 41.5t-43.5 103.5q0 65 43.5 107t107.5 42q66 0 109 -41.5t43 -107.5q0 -63 -43 -104
t-109 -41zM967 1556q66 0 107.5 -41.5t41.5 -107.5q0 -63 -41.5 -104t-107.5 -41t-109 41t-43 104q0 66 43 107.5t109 41.5z" />
    <glyph glyph-name="igrave" unicode="&#xec;" horiz-adv-x="688" 
d="M651 432l23 -16q-114 -208 -235.5 -322t-235.5 -114q-68 0 -100 46.5t-9 125.5l232 872q-66 -46 -143 -133.5t-146 -200.5l-23 17q114 206 237 321t234 115q69 0 100 -45t9 -127l-232 -873q159 114 289 334zM537 1559l18 -334h-8l-379 329l2 5h367z" />
    <glyph glyph-name="iacute" unicode="&#xed;" horiz-adv-x="688" 
d="M594 971l-232 -873q159 114 289 334l23 -16q-114 -208 -235.5 -322t-235.5 -114q-68 0 -100 46.5t-9 125.5l232 872q-66 -46 -143 -133.5t-146 -200.5l-23 17q114 206 237 321t234 115q69 0 100 -45t9 -127zM494 1225l153 334h373l-2 -5l-516 -329h-8z" />
    <glyph glyph-name="icircumflex" unicode="&#xee;" horiz-adv-x="688" 
d="M594 971l-232 -873q159 114 289 334l23 -16q-114 -208 -235.5 -322t-235.5 -114q-68 0 -100 46.5t-9 125.5l232 872q-66 -46 -143 -133.5t-146 -200.5l-23 17q114 206 237 321t234 115q69 0 100 -45t9 -127zM584 1575h4l246 -342l-9 -8l-268 127l-362 -127l-5 6z" />
    <glyph glyph-name="idieresis" unicode="&#xef;" horiz-adv-x="688" 
d="M594 971l-232 -873q159 114 289 334l23 -16q-114 -208 -235.5 -322t-235.5 -114q-68 0 -100 46.5t-9 125.5l232 872q-66 -46 -143 -133.5t-146 -200.5l-23 17q114 206 237 321t234 115q69 0 100 -45t9 -127zM330 1262q-66 0 -109 41t-43 104q0 66 43 107.5t109 41.5
t107.5 -41.5t41.5 -107.5q0 -63 -41.5 -104t-107.5 -41zM766 1556q66 0 107.5 -41.5t41.5 -107.5q0 -63 -41.5 -104t-107.5 -41t-109 41t-43 104q0 66 43 107.5t109 41.5z" />
    <glyph glyph-name="eth" unicode="&#xf0;" horiz-adv-x="1161" 
d="M459 14q80 0 155 91t124.5 224.5t79.5 280.5t30 264q0 112 -36.5 173t-109.5 61q-66 0 -129 -60t-109 -155.5t-81.5 -209.5t-53.5 -226t-18 -201q0 -117 38 -179.5t110 -62.5zM1042 1569l13 -33l-281 -113q166 -129 253 -308t87 -400q0 -149 -51 -284.5t-138 -234.5
t-207.5 -157.5t-252.5 -58.5q-192 0 -306 120.5t-114 323.5q0 184 86 349.5t235.5 267.5t321.5 102q94 0 156 -29q-41 158 -150 279l-366 -148l-13 33l353 141q-116 111 -318 197l12 14q213 -66 379 -182z" />
    <glyph glyph-name="ntilde" unicode="&#xf1;" horiz-adv-x="1318" 
d="M1290 432l23 -16q-114 -208 -235.5 -322t-235.5 -114q-68 0 -100 46.5t-9 125.5l185 686q26 106 -52 106t-173 -119t-187 -333q-90 -209 -168 -492h-283l273 1026q-157 -111 -291 -336l-25 17q117 207 239.5 321.5t233.5 114.5q69 0 100 -45t9 -127l-127 -484
q129 316 280 486t310 170q93 0 136.5 -69.5t14.5 -182.5l-209 -793q72 51 149 137.5t142 196.5zM610 1374q-76 0 -141 -78l-12 2q99 256 258 256q67 0 119 -30q17 -10 51.5 -31t53.5 -32t47 -21t52 -10q86 0 142 81l10 -2q-40 -113 -107 -185.5t-153 -72.5q-44 0 -91.5 19
t-81 42.5t-74.5 42.5t-73 19z" />
    <glyph glyph-name="ograve" unicode="&#xf2;" horiz-adv-x="1159" 
d="M459 14q80 0 155 92t124.5 226t79.5 278t30 254q0 119 -37.5 181.5t-110.5 62.5q-82 0 -157.5 -91.5t-124.5 -225t-78 -278t-29 -257.5q0 -117 38 -179.5t110 -62.5zM692 1143q192 0 307 -121.5t115 -319.5q0 -138 -50.5 -269.5t-136 -231t-207 -160.5t-255.5 -61
q-195 0 -307.5 121.5t-112.5 318.5q0 185 84 350.5t234.5 269t328.5 103.5zM752 1559l18 -334h-8l-377 329v5h367z" />
    <glyph glyph-name="oacute" unicode="&#xf3;" horiz-adv-x="1159" 
d="M459 14q80 0 155 92t124.5 226t79.5 278t30 254q0 119 -37.5 181.5t-110.5 62.5q-82 0 -157.5 -91.5t-124.5 -225t-78 -278t-29 -257.5q0 -117 38 -179.5t110 -62.5zM692 1143q192 0 307 -121.5t115 -319.5q0 -138 -50.5 -269.5t-136 -231t-207 -160.5t-255.5 -61
q-195 0 -307.5 121.5t-112.5 318.5q0 185 84 350.5t234.5 269t328.5 103.5zM709 1225l155 334h371v-5l-516 -329h-10z" />
    <glyph glyph-name="ocircumflex" unicode="&#xf4;" horiz-adv-x="1159" 
d="M459 14q80 0 155 92t124.5 226t79.5 278t30 254q0 119 -37.5 181.5t-110.5 62.5q-82 0 -157.5 -91.5t-124.5 -225t-78 -278t-29 -257.5q0 -117 38 -179.5t110 -62.5zM692 1143q192 0 307 -121.5t115 -319.5q0 -138 -50.5 -269.5t-136 -231t-207 -160.5t-255.5 -61
q-195 0 -307.5 121.5t-112.5 318.5q0 185 84 350.5t234.5 269t328.5 103.5zM1051 1233l-9 -8l-268 127l-362 -127l-6 6l393 344h4z" />
    <glyph glyph-name="otilde" unicode="&#xf5;" horiz-adv-x="1159" 
d="M459 14q80 0 155 92t124.5 226t79.5 278t30 254q0 119 -37.5 181.5t-110.5 62.5q-82 0 -157.5 -91.5t-124.5 -225t-78 -278t-29 -257.5q0 -117 38 -179.5t110 -62.5zM692 1143q192 0 307 -121.5t115 -319.5q0 -138 -50.5 -269.5t-136 -231t-207 -160.5t-255.5 -61
q-195 0 -307.5 121.5t-112.5 318.5q0 185 84 350.5t234.5 269t328.5 103.5zM887 1251q-44 0 -91.5 19t-81 42.5t-74.5 42.5t-73 19q-76 0 -141 -78l-12 2q99 256 258 256q66 0 119 -30q17 -10 51.5 -31t53.5 -32t47 -21t52 -10q86 0 142 81l10 -2q-40 -113 -107 -185.5
t-153 -72.5z" />
    <glyph glyph-name="odieresis" unicode="&#xf6;" horiz-adv-x="1159" 
d="M459 14q80 0 155 92t124.5 226t79.5 278t30 254q0 119 -37.5 181.5t-110.5 62.5q-82 0 -157.5 -91.5t-124.5 -225t-78 -278t-29 -257.5q0 -117 38 -179.5t110 -62.5zM692 1143q192 0 307 -121.5t115 -319.5q0 -138 -50.5 -269.5t-136 -231t-207 -160.5t-255.5 -61
q-195 0 -307.5 121.5t-112.5 318.5q0 185 84 350.5t234.5 269t328.5 103.5zM545 1262q-66 0 -109 41t-43 104q0 66 43 107.5t109 41.5t107.5 -41.5t41.5 -107.5q0 -63 -41.5 -104t-107.5 -41zM983 1262q-66 0 -109 41t-43 104q0 66 43 107.5t109 41.5t108 -41.5t42 -107.5
q0 -63 -42 -104t-108 -41z" />
    <glyph glyph-name="divide" unicode="&#xf7;" horiz-adv-x="1064" 
d="M475 137q-68 0 -114 46t-46 110q0 68 46 116t114 48t114 -48t46 -116q0 -64 -46 -110t-114 -46zM631 872q-68 0 -113 46t-45 110q0 68 45 116t113 48t114 -48t46 -116q0 -64 -46 -110t-114 -46zM999 641h-901l8 41h902z" />
    <glyph glyph-name="oslash" unicode="&#xf8;" horiz-adv-x="1202" 
d="M481 14q68 0 129.5 60.5t103 147.5t74.5 194t50 189t24 143l-526 -435q-2 -10 -2 -28v-29q0 -242 147 -242zM723 1108q-69 0 -131 -60.5t-103.5 -148t-75 -193.5t-50.5 -189.5t-23 -143.5l526 436q2 10 2 29v26q0 119 -36.5 181.5t-108.5 62.5zM1063 971l209 174l26 -35
l-213 -176q52 -101 52 -232q0 -138 -51 -269.5t-137 -231t-208 -160.5t-256 -61q-230 0 -344 172l-213 -177l-24 35l215 178q-53 110 -52 241t50 261q76 200 237 326.5t361 126.5q234 0 348 -172z" />
    <glyph glyph-name="ugrave" unicode="&#xf9;" horiz-adv-x="1318" 
d="M1284 432l25 -16q-114 -207 -236.5 -321.5t-236.5 -114.5q-67 0 -98 46t-11 126l127 483q-129 -316 -280 -485.5t-310 -169.5q-92 0 -136 70t-15 181l209 793q-67 -47 -144.5 -134.5t-146.5 -199.5l-23 17q114 206 237 321t234 115q74 0 102 -48.5t3 -138.5l-181 -671
q-27 -107 52 -107t173.5 119t188.5 334q94 217 166 491h283l-273 -1026q72 51 149 137.5t142 198.5zM836 1559l18 -334h-8l-377 329v5h367z" />
    <glyph glyph-name="uacute" unicode="&#xfa;" horiz-adv-x="1318" 
d="M1284 432l25 -16q-114 -207 -236.5 -321.5t-236.5 -114.5q-67 0 -98 46t-11 126l127 483q-129 -316 -280 -485.5t-310 -169.5q-92 0 -136 70t-15 181l209 793q-67 -47 -144.5 -134.5t-146.5 -199.5l-23 17q114 206 237 321t234 115q74 0 102 -48.5t3 -138.5l-181 -671
q-27 -107 52 -107t173.5 119t188.5 334q94 217 166 491h283l-273 -1026q72 51 149 137.5t142 198.5zM1278 1559v-5l-516 -329h-10l155 334h371z" />
    <glyph glyph-name="ucircumflex" unicode="&#xfb;" horiz-adv-x="1318" 
d="M1284 432l25 -16q-114 -207 -236.5 -321.5t-236.5 -114.5q-67 0 -98 46t-11 126l127 483q-129 -316 -280 -485.5t-310 -169.5q-92 0 -136 70t-15 181l209 793q-67 -47 -144.5 -134.5t-146.5 -199.5l-23 17q114 206 237 321t234 115q74 0 102 -48.5t3 -138.5l-181 -671
q-27 -107 52 -107t173.5 119t188.5 334q94 217 166 491h283l-273 -1026q72 51 149 137.5t142 198.5zM1106 1225l-268 127l-363 -127l-6 6l393 344h4l248 -342z" />
    <glyph glyph-name="udieresis" unicode="&#xfc;" horiz-adv-x="1318" 
d="M1284 432l25 -16q-114 -207 -236.5 -321.5t-236.5 -114.5q-67 0 -98 46t-11 126l127 483q-129 -316 -280 -485.5t-310 -169.5q-92 0 -136 70t-15 181l209 793q-67 -47 -144.5 -134.5t-146.5 -199.5l-23 17q114 206 237 321t234 115q74 0 102 -48.5t3 -138.5l-181 -671
q-27 -107 52 -107t173.5 119t188.5 334q94 217 166 491h283l-273 -1026q72 51 149 137.5t142 198.5zM608 1262q-66 0 -108.5 41t-42.5 104q0 66 42.5 107.5t108.5 41.5t108 -41.5t42 -107.5q0 -63 -42 -104t-108 -41zM1047 1262q-66 0 -109 41t-43 104q0 66 43 107.5
t109 41.5t107.5 -41.5t41.5 -107.5q0 -63 -41.5 -104t-107.5 -41z" />
    <glyph glyph-name="yacute" unicode="&#xfd;" horiz-adv-x="1216" 
d="M991 1135q99 0 148 -65.5t49 -178.5q0 -140 -49 -293.5t-133 -293.5t-201 -267.5t-248 -221t-280 -149t-291 -55.5q-125 0 -201 48t-76 136q0 78 58 139q199 -176 442 -176q114 0 223 41l-121 1221q-66 -45 -142 -131t-146 -199l-23 17q114 206 237 321t234 115
q62 0 92 -38.5t37 -133.5l92 -996q132 130 208.5 303t76.5 353q0 270 -121 473q64 31 135 31zM741 1225l156 334h371v-5l-518 -329h-9z" />
    <glyph glyph-name="thorn" unicode="&#xfe;" horiz-adv-x="1183" 
d="M449 16q120 0 243 205q83 135 138 303.5t55 288.5q0 129 -90 129q-33 0 -73 -24.5t-91.5 -86.5t-104.5 -155t-113.5 -243.5t-117.5 -338.5q85 -78 154 -78zM975 1143q108 0 156.5 -72.5t48.5 -193.5q0 -129 -41 -260.5t-116.5 -244.5t-174 -201.5t-221.5 -139.5t-250 -51
q-46 0 -111 10l-55 -209q-13 -59 12 -79.5t115 -31.5l33 -4l-11 -35h-608l10 35l35 6q67 12 93.5 33t39.5 76l439 1640l-113 109l2 4l449 125h4l-318 -1196q23 58 45.5 110.5t58.5 124t72 130t84 119t96 102t107 68t119 26.5z" />
    <glyph glyph-name="ydieresis" unicode="&#xff;" horiz-adv-x="1216" 
d="M991 1135q99 0 148 -65.5t49 -178.5q0 -140 -49 -293.5t-133 -293.5t-201 -267.5t-248 -221t-280 -149t-291 -55.5q-125 0 -201 48t-76 136q0 78 58 139q199 -176 442 -176q114 0 223 41l-121 1221q-66 -45 -142 -131t-146 -199l-23 17q114 206 237 321t234 115
q62 0 92 -38.5t37 -133.5l92 -996q132 130 208.5 303t76.5 353q0 270 -121 473q64 31 135 31zM578 1262q-66 0 -109 41t-43 104q0 66 43 107.5t109 41.5t107.5 -41.5t41.5 -107.5q0 -63 -41.5 -104t-107.5 -41zM1016 1262q-66 0 -109 41t-43 104q0 66 43 107.5t109 41.5
t107.5 -41.5t41.5 -107.5q0 -63 -41.5 -104t-107.5 -41z" />
    <glyph glyph-name="Amacron" unicode="&#x100;" horiz-adv-x="1390" 
d="M807 541l-105 686l-368 -686h473zM1290 43l41 -8l-6 -35h-623l7 35l53 8q65 11 89 32t17 68l-55 357h-502l-190 -357q-27 -49 -11 -69.5t95 -30.5l69 -8l-8 -35h-399l6 35l43 8q60 11 91 32t56 68l695 1291h207l219 -1293q7 -46 30.5 -66.5t75.5 -31.5zM598 1602l8 40
h611l-9 -40h-610z" />
    <glyph glyph-name="amacron" unicode="&#x101;" horiz-adv-x="1259" 
d="M389 180q33 0 73 24.5t91.5 87t104.5 155.5t113.5 243.5t117.5 339.5q-70 76 -152 76q-119 0 -243 -203q-84 -138 -138.5 -306t-54.5 -288q0 -129 88 -129zM1227 432l22 -16q-114 -208 -235.5 -322t-235.5 -114q-69 0 -99 48t-5 138l172 637q-67 -188 -136 -332.5
t-132 -236.5t-128.5 -150t-123 -81t-117.5 -23q-106 0 -154.5 73t-48.5 193q0 123 39 252t112 243t168.5 205t218 144t251.5 53q115 0 231 -41l184 41h4l-278 -1043q67 44 143.5 130.5t147.5 201.5zM559 1319l8 41h611l-9 -41h-610z" />
    <glyph glyph-name="Abreve" unicode="&#x102;" horiz-adv-x="1390" 
d="M807 541l-105 686l-368 -686h473zM1290 43l41 -8l-6 -35h-623l7 35l53 8q65 11 89 32t17 68l-55 357h-502l-190 -357q-27 -49 -11 -69.5t95 -30.5l69 -8l-8 -35h-399l6 35l43 8q60 11 91 32t56 68l695 1291h207l219 -1293q7 -46 30.5 -66.5t75.5 -31.5zM903 1540
q-126 0 -199.5 89t-52.5 231h6q49 -134 267 -134q214 0 327 140h4q-37 -146 -128.5 -236t-223.5 -90z" />
    <glyph glyph-name="abreve" unicode="&#x103;" horiz-adv-x="1259" 
d="M389 180q33 0 73 24.5t91.5 87t104.5 155.5t113.5 243.5t117.5 339.5q-70 76 -152 76q-119 0 -243 -203q-84 -138 -138.5 -306t-54.5 -288q0 -129 88 -129zM1227 432l22 -16q-114 -208 -235.5 -322t-235.5 -114q-69 0 -99 48t-5 138l172 637q-67 -188 -136 -332.5
t-132 -236.5t-128.5 -150t-123 -81t-117.5 -23q-106 0 -154.5 73t-48.5 193q0 123 39 252t112 243t168.5 205t218 144t251.5 53q115 0 231 -41l184 41h4l-278 -1043q67 44 143.5 130.5t147.5 201.5zM868 1249q-126 0 -198.5 89t-51.5 231h5q49 -133 266 -133q215 0 328 139
h6q-38 -146 -130.5 -236t-224.5 -90z" />
    <glyph glyph-name="Aogonek" unicode="&#x104;" horiz-adv-x="1390" 
d="M807 541l-105 686l-368 -686h473zM1290 43l41 -8l-6 -35h-432q-116 -108 -158.5 -163t-42.5 -105q0 -28 19 -46t55 -18q38 0 94 29l2 -4q-51 -63 -120 -99t-138 -36q-65 0 -101 30.5t-36 79.5q0 77 85 149t298 183h-148l7 35l53 8q65 11 89 32t17 68l-55 357h-502
l-190 -357q-27 -49 -11 -69.5t95 -30.5l69 -8l-8 -35h-399l6 35l43 8q60 11 91 32t56 68l695 1291h207l219 -1293q7 -46 30.5 -66.5t75.5 -31.5z" />
    <glyph glyph-name="aogonek" unicode="&#x105;" horiz-adv-x="1259" 
d="M389 180q33 0 73 24.5t91.5 87t104.5 155.5t113.5 243.5t117.5 339.5q-70 76 -152 76q-119 0 -243 -203q-84 -138 -138.5 -306t-54.5 -288q0 -129 88 -129zM1227 432l22 -16q-125 -233 -297 -371q-203 -159 -243 -240q-43 -77 -2 -118q16 -19 53 -19q46 0 96 27l2 -2
q-51 -63 -120 -99t-138 -36q-66 0 -101.5 28t-35.5 74q0 80 83.5 153t260.5 169q-6 -2 -14 -2h-15q-68 0 -99.5 46t-8.5 126l176 649q-67 -188 -136 -332.5t-132 -235.5t-128.5 -149t-123 -81t-117.5 -23q-106 0 -154.5 73t-48.5 193q0 123 39 252t112 243t168.5 205
t218 144t251.5 53q115 0 231 -41l184 41h4l-278 -1045q73 52 149.5 137.5t141.5 196.5z" />
    <glyph glyph-name="Cacute" unicode="&#x106;" horiz-adv-x="1386" 
d="M750 -20q-298 0 -478 162t-180 454q0 184 70.5 345t189.5 273t280.5 176t340.5 64q244 0 483 -133l-51 -334h-21q-13 197 -120.5 314.5t-272.5 117.5q-111 0 -209.5 -57t-169 -150t-122.5 -211t-77.5 -242.5t-25.5 -240.5q0 -228 100 -366t265 -138q155 0 299.5 121.5
t218.5 310.5h18l-80 -376q-241 -90 -458 -90zM1149 1853h371v-4l-519 -329h-8z" />
    <glyph glyph-name="cacute" unicode="&#x107;" horiz-adv-x="964" 
d="M369 -20q-161 0 -244.5 109.5t-83.5 293.5q0 110 29.5 220t87.5 206.5t136 171.5t182 118.5t218 43.5q154 0 226 -66q71 -68 71 -145q0 -71 -50.5 -127.5t-137.5 -69.5q13 365 -150 365q-89 0 -168.5 -100t-124.5 -248t-45 -293q0 -140 48.5 -224.5t144.5 -84.5
q92 0 189 74.5t171 207.5l23 -16q-96 -209 -228 -322.5t-294 -113.5zM862 1548h371v-4l-516 -327h-10z" />
    <glyph glyph-name="Cdotaccent" unicode="&#x10a;" horiz-adv-x="1386" 
d="M750 -20q-298 0 -478 162t-180 454q0 184 70.5 345t189.5 273t280.5 176t340.5 64q244 0 483 -133l-51 -334h-21q-13 197 -120.5 314.5t-272.5 117.5q-111 0 -209.5 -57t-169 -150t-122.5 -211t-77.5 -242.5t-25.5 -240.5q0 -228 100 -366t265 -138q155 0 299.5 121.5
t218.5 310.5h18l-80 -376q-241 -90 -458 -90zM1053 1573q-69 0 -114.5 43.5t-45.5 109.5q0 69 45.5 113.5t114.5 44.5t113 -44.5t44 -113.5q0 -66 -44 -109.5t-113 -43.5z" />
    <glyph glyph-name="cdotaccent" unicode="&#x10b;" horiz-adv-x="964" 
d="M369 -20q-161 0 -244.5 109.5t-83.5 293.5q0 110 29.5 220t87.5 206.5t136 171.5t182 118.5t218 43.5q154 0 226 -66q71 -68 71 -145q0 -71 -50.5 -127.5t-137.5 -69.5q13 365 -150 365q-89 0 -168.5 -100t-124.5 -248t-45 -293q0 -140 48.5 -224.5t144.5 -84.5
q92 0 189 74.5t171 207.5l23 -16q-96 -209 -228 -322.5t-294 -113.5zM760 1241q-69 0 -114.5 44t-45.5 110q0 69 45.5 113t114.5 44t113.5 -44t44.5 -113q0 -66 -44.5 -110t-113.5 -44z" />
    <glyph glyph-name="Ccaron" unicode="&#x10c;" horiz-adv-x="1386" 
d="M973 1454q244 0 483 -133l-51 -334h-21q-13 197 -120.5 314.5t-272.5 117.5q-111 0 -209.5 -57t-169 -150t-122.5 -211t-77.5 -242.5t-25.5 -240.5q0 -228 100 -366t265 -138q155 0 299.5 121.5t218.5 310.5h18l-80 -376q-241 -90 -458 -90q-298 0 -478 162t-180 454
q0 184 70.5 345t189.5 273t280.5 176t340.5 64zM1401 1862l-393 -344h-4l-248 342l8 8l268 -127l365 127z" />
    <glyph glyph-name="ccaron" unicode="&#x10d;" horiz-adv-x="964" 
d="M694 1143q154 0 226 -66q71 -68 71 -145q0 -71 -50.5 -127.5t-137.5 -69.5q13 365 -150 365q-89 0 -168.5 -100t-124.5 -248t-45 -293q0 -140 48.5 -224.5t144.5 -84.5q92 0 189 74.5t171 207.5l23 -16q-96 -209 -228 -322.5t-294 -113.5q-161 0 -244.5 109.5
t-83.5 293.5q0 110 29.5 220t87.5 206.5t136 171.5t182 118.5t218 43.5zM1118 1559l-393 -345h-4l-248 340l8 11l269 -127l364 127z" />
    <glyph glyph-name="Dcaron" unicode="&#x10e;" horiz-adv-x="1540" 
d="M702 1393l-286 -1352h166q140 0 259 80t196 208.5t120 286t43 316.5q0 211 -90 336t-254 125h-154zM221 1399l6 35h625q308 0 484.5 -167.5t176.5 -439.5q0 -184 -72 -339t-198.5 -262t-302.5 -166.5t-379 -59.5h-637l6 35l54 8q75 11 104 32t41 75l240 1134
q11 55 -7 78.5t-83 30.5zM1325 1868l4 -6l-393 -344h-4l-248 342l8 8l269 -127z" />
    <glyph glyph-name="dcaron" unicode="&#x10f;" horiz-adv-x="1286" 
d="M389 180q33 0 73 24.5t91.5 87t104.5 155.5t113.5 243.5t117.5 339.5q-70 76 -152 76q-119 0 -243 -203q-84 -138 -138.5 -306t-54.5 -288q0 -129 88 -129zM1339 1659l-417 -1559q137 89 290 332l23 -16q-114 -207 -236.5 -321.5t-236.5 -114.5q-66 0 -97.5 46.5
t-9.5 125.5l131 493q-264 -665 -577 -665q-106 0 -154.5 73t-48.5 193q0 129 41 260t116 244.5t173 202t221 139.5t250 51q53 0 111 -10l77 288l-110 109l2 4l448 125h4zM1337 1188h-12l127 430h260l-4 -14z" />
    <glyph glyph-name="Dcroat" unicode="&#x110;" horiz-adv-x="1542" 
d="M557 696l-139 -655h164q94 0 180 37t153 101t122 150t90.5 185t55 206t19.5 212q0 211 -91 336t-255 125h-151l-140 -656h273l-9 -41h-272zM221 1399l8 35h623q310 0 485.5 -167t175.5 -440q0 -158 -51 -292.5t-140 -232t-209.5 -166.5t-260.5 -102.5t-291 -33.5h-635
l6 35l52 8q76 11 105.5 32t39.5 75l117 546h-154l8 41h154l117 547q11 55 -8 78.5t-84 30.5z" />
    <glyph glyph-name="dcroat" unicode="&#x111;" horiz-adv-x="1247" 
d="M389 180q33 0 73 24.5t91.5 87t104.5 155.5t113.5 243.5t117.5 339.5q-70 76 -152 76q-119 0 -243 -203q-84 -138 -138.5 -306t-54.5 -288q0 -129 88 -129zM1257 1354h129l-8 -43h-133l-323 -1211q137 89 290 332l23 -16q-114 -207 -236.5 -321.5t-236.5 -114.5
q-66 0 -97.5 46.5t-9.5 125.5l131 493q-264 -665 -577 -665q-106 0 -154.5 73t-48.5 193q0 129 41 260t116 244.5t173 202t221 139.5t250 51q53 0 111 -10l49 178h-283l8 43h285l18 67l-110 109l2 4l448 125h4z" />
    <glyph glyph-name="Emacron" unicode="&#x112;" horiz-adv-x="1280" 
d="M221 1399l6 35h1049l-23 -447l-24 -6q-10 86 -34 156.5t-66.5 130t-110 92.5t-154.5 33h-166l-139 -645h127q88 0 148.5 59.5t121.5 208.5h21l-123 -578h-20q10 149 -24.5 209t-131.5 60h-127l-141 -666h184q104 0 186 20t158 68t140 131.5t120 206.5h23l-162 -467h-1135
l6 35l62 8q61 8 92.5 29.5t44.5 77.5l240 1134q12 56 -10 77t-78 30zM580 1642h610l-8 -40h-611z" />
    <glyph glyph-name="emacron" unicode="&#x113;" horiz-adv-x="964" 
d="M674 1102q-76 0 -151 -80.5t-127 -201.5t-74 -251q114 32 202 85t137 112t73 115.5t24 107.5q0 52 -22 82.5t-62 30.5zM985 954q0 -77 -70 -159q-72 -91 -224 -157.5t-376 -96.5q-6 -55 -6 -105q0 -131 52 -208.5t145 -77.5t194.5 75.5t178.5 206.5l22 -16
q-99 -207 -241 -321.5t-306 -114.5q-156 0 -238.5 102.5t-82.5 277.5q0 111 32.5 224t93.5 212.5t143 177.5t188.5 123.5t220.5 45.5q129 0 201.5 -54t72.5 -135zM1030 1319h-608l8 41h608z" />
    <glyph glyph-name="Edotaccent" unicode="&#x116;" horiz-adv-x="1280" 
d="M221 1399l6 35h1049l-23 -447l-24 -6q-10 86 -34 156.5t-66.5 130t-110 92.5t-154.5 33h-166l-139 -645h127q88 0 148.5 59.5t121.5 208.5h21l-123 -578h-20q10 149 -24.5 209t-131.5 60h-127l-141 -666h184q104 0 186 20t158 68t140 131.5t120 206.5h23l-162 -467h-1135
l6 35l62 8q61 8 92.5 29.5t44.5 77.5l240 1134q12 56 -10 77t-78 30zM903 1573q-69 0 -114.5 43.5t-45.5 109.5q0 69 45.5 113.5t114.5 44.5t113.5 -44.5t44.5 -113.5q0 -66 -44.5 -109.5t-113.5 -43.5z" />
    <glyph glyph-name="edotaccent" unicode="&#x117;" horiz-adv-x="964" 
d="M674 1102q-76 0 -151 -80.5t-127 -201.5t-74 -251q114 32 202 85t137 112t73 115.5t24 107.5q0 52 -22 82.5t-62 30.5zM506 150q93 0 194.5 75.5t178.5 206.5l22 -16q-99 -207 -241 -321.5t-306 -114.5q-156 0 -238.5 102.5t-82.5 277.5q0 111 32.5 224t93.5 212.5
t143 177.5t188.5 123.5t220.5 45.5q129 0 201.5 -54t72.5 -135q0 -77 -70 -159q-72 -91 -224 -157.5t-376 -96.5q-6 -55 -6 -105q0 -131 52 -208.5t145 -77.5zM745 1249q-69 0 -114 44t-45 110q0 69 45 113.5t114 44.5t114.5 -44.5t45.5 -113.5q0 -66 -45.5 -110t-114.5 -44
z" />
    <glyph glyph-name="Eogonek" unicode="&#x118;" horiz-adv-x="1280" 
d="M221 1399l6 35h1049l-23 -447l-24 -6q-10 86 -34 156.5t-66.5 130t-110 92.5t-154.5 33h-166l-139 -645h127q88 0 148.5 59.5t121.5 208.5h21l-123 -578h-20q10 149 -24.5 209t-131.5 60h-127l-141 -666h184q104 0 186 20t158 68t140 131.5t120 206.5h23l-162 -467
q-117 -109 -160 -164t-43 -104q0 -28 19 -46t55 -18q45 0 94 29l4 -4q-51 -63 -121 -99t-139 -36q-64 0 -100.5 30.5t-36.5 79.5q0 76 85.5 148.5t299.5 183.5h-1092l6 35l62 8q61 8 92.5 29.5t44.5 77.5l240 1134q12 56 -10 77t-78 30z" />
    <glyph glyph-name="eogonek" unicode="&#x119;" horiz-adv-x="968" 
d="M674 1102q-76 0 -151 -80.5t-127 -201.5t-74 -251q114 32 202 85t137 112t73 115.5t24 107.5q0 52 -22 82.5t-62 30.5zM506 150q93 0 194.5 75.5t178.5 206.5l22 -16q-47 -101 -137 -217q-259 -329 -289 -414q-27 -65 6 -98q19 -19 56 -19q47 0 96 27l2 -2
q-51 -63 -120.5 -99t-141.5 -36q-63 0 -98 32.5t-35 79.5q0 68 69 146t221 198q-87 -34 -176 -34q-156 0 -238.5 102.5t-82.5 277.5q0 111 32.5 224t93.5 212.5t143 177.5t188.5 123.5t220.5 45.5q129 0 201.5 -54t72.5 -135q0 -77 -70 -159q-72 -91 -224 -157.5t-376 -96.5
q-6 -55 -6 -105q0 -131 52 -208.5t145 -77.5z" />
    <glyph glyph-name="Ecaron" unicode="&#x11a;" horiz-adv-x="1280" 
d="M221 1399l6 35h1049l-23 -447l-24 -6q-10 86 -34 156.5t-66.5 130t-110 92.5t-154.5 33h-166l-139 -645h127q88 0 148.5 59.5t121.5 208.5h21l-123 -578h-20q10 149 -24.5 209t-131.5 60h-127l-141 -666h184q104 0 186 20t158 68t140 131.5t120 206.5h23l-162 -467h-1135
l6 35l62 8q61 8 92.5 29.5t44.5 77.5l240 1134q12 56 -10 77t-78 30zM1251 1862l-393 -344h-4l-248 342l8 8l269 -127l364 127z" />
    <glyph glyph-name="ecaron" unicode="&#x11b;" horiz-adv-x="964" 
d="M674 1102q-76 0 -151 -80.5t-127 -201.5t-74 -251q114 32 202 85t137 112t73 115.5t24 107.5q0 52 -22 82.5t-62 30.5zM985 954q0 -77 -70 -159q-72 -91 -224 -157.5t-376 -96.5q-6 -55 -6 -105q0 -131 52 -208.5t145 -77.5t194.5 75.5t178.5 206.5l22 -16
q-99 -207 -241 -321.5t-306 -114.5q-156 0 -238.5 102.5t-82.5 277.5q0 111 32.5 224t93.5 212.5t143 177.5t188.5 123.5t220.5 45.5q129 0 201.5 -54t72.5 -135zM1100 1573l4 -6l-393 -344h-4l-246 342l8 8l268 -127z" />
    <glyph glyph-name="Gbreve" unicode="&#x11e;" horiz-adv-x="1474" 
d="M877 643l8 35h608l-8 -35l-62 -10q-58 -11 -82 -31.5t-36 -73.5l-99 -458q-241 -90 -456 -90q-298 0 -478 162t-180 454q0 184 70.5 345t189.5 273t280.5 176t340.5 64q244 0 483 -133l-51 -334h-21q-13 197 -120.5 314.5t-272.5 117.5q-111 0 -209.5 -57t-169 -150
t-122.5 -211t-77.5 -242.5t-25.5 -240.5q0 -71 12 -140t39.5 -135.5t68.5 -116.5t103.5 -81t139.5 -31q91 0 174 45l102 469q11 54 -7.5 75.5t-84.5 31.5zM989 1540q-128 0 -200.5 89t-51.5 231h4q49 -134 267 -134q217 0 327 140h6q-39 -147 -130 -236.5t-222 -89.5z" />
    <glyph glyph-name="gbreve" unicode="&#x11f;" horiz-adv-x="1124" 
d="M541 487q75 0 137 66t94.5 165.5t32.5 205.5q0 78 -43.5 129t-110.5 51q-68 0 -123 -45t-86 -113.5t-47 -139.5t-16 -132q0 -82 45 -134.5t117 -52.5zM580 -68l-279 101q-57 22 -86 39q-96 -27 -151.5 -80.5t-55.5 -124.5q0 -95 95 -155t257 -60q159 0 262 49t103 119
q0 59 -145 112zM1096 1360q69 0 100.5 -43t15.5 -101t-73 -100q-90 72 -158 72q-61 0 -125 -82q104 -37 162.5 -108.5t58.5 -166.5t-40.5 -166t-105 -110.5t-142 -66t-155.5 -39t-142.5 -23.5t-105 -26.5t-40.5 -39.5q0 -17 25.5 -32.5t93.5 -40.5l272 -99q228 -80 228 -223
q0 -153 -179 -253.5t-469 -100.5q-219 0 -368.5 63t-149.5 162q0 89 108.5 155t285.5 93q-84 61 -84 141q0 76 90 138.5t295 93.5q-173 14 -277 97t-104 210q0 166 145.5 272.5t372.5 106.5q102 0 200 -29q70 135 133.5 190.5t131.5 55.5zM729 1249q-126 0 -199 89.5
t-53 230.5h6q49 -133 267 -133q214 0 327 139h4q-37 -146 -128.5 -236t-223.5 -90z" />
    <glyph glyph-name="Gdotaccent" unicode="&#x120;" horiz-adv-x="1474" 
d="M877 643l8 35h608l-8 -35l-62 -10q-58 -11 -82 -31.5t-36 -73.5l-99 -458q-241 -90 -456 -90q-298 0 -478 162t-180 454q0 184 70.5 345t189.5 273t280.5 176t340.5 64q244 0 483 -133l-51 -334h-21q-13 197 -120.5 314.5t-272.5 117.5q-111 0 -209.5 -57t-169 -150
t-122.5 -211t-77.5 -242.5t-25.5 -240.5q0 -71 12 -140t39.5 -135.5t68.5 -116.5t103.5 -81t139.5 -31q91 0 174 45l102 469q11 54 -7.5 75.5t-84.5 31.5zM1014 1573q-69 0 -114.5 43.5t-45.5 109.5q0 69 45.5 113.5t114.5 44.5t114.5 -44.5t45.5 -113.5q0 -66 -45.5 -109.5
t-114.5 -43.5z" />
    <glyph glyph-name="gdotaccent" unicode="&#x121;" horiz-adv-x="1124" 
d="M541 487q75 0 137 66t94.5 165.5t32.5 205.5q0 78 -43.5 129t-110.5 51q-68 0 -123 -45t-86 -113.5t-47 -139.5t-16 -132q0 -82 45 -134.5t117 -52.5zM580 -68l-279 101q-57 22 -86 39q-96 -27 -151.5 -80.5t-55.5 -124.5q0 -95 95 -155t257 -60q159 0 262 49t103 119
q0 59 -145 112zM1096 1360q69 0 100.5 -43t15.5 -101t-73 -100q-90 72 -158 72q-61 0 -125 -82q104 -37 162.5 -108.5t58.5 -166.5t-40.5 -166t-105 -110.5t-142 -66t-155.5 -39t-142.5 -23.5t-105 -26.5t-40.5 -39.5q0 -17 25.5 -32.5t93.5 -40.5l272 -99q228 -80 228 -223
q0 -153 -179 -253.5t-469 -100.5q-219 0 -368.5 63t-149.5 162q0 89 108.5 155t285.5 93q-84 61 -84 141q0 76 90 138.5t295 93.5q-173 14 -277 97t-104 210q0 166 145.5 272.5t372.5 106.5q102 0 200 -29q70 135 133.5 190.5t131.5 55.5zM743 1249q-69 0 -114 44t-45 110
q0 69 45 113.5t114 44.5t113.5 -44.5t44.5 -113.5q0 -66 -44.5 -110t-113.5 -44z" />
    <glyph glyph-name="uni0122" unicode="&#x122;" horiz-adv-x="1474" 
d="M877 643l8 35h608l-8 -35l-62 -10q-58 -11 -82 -31.5t-36 -73.5l-99 -458q-241 -90 -456 -90q-298 0 -478 162t-180 454q0 184 70.5 345t189.5 273t280.5 176t340.5 64q244 0 483 -133l-51 -334h-21q-13 197 -120.5 314.5t-272.5 117.5q-111 0 -209.5 -57t-169 -150
t-122.5 -211t-77.5 -242.5t-25.5 -240.5q0 -71 12 -140t39.5 -135.5t68.5 -116.5t103.5 -81t139.5 -31q91 0 174 45l102 469q11 54 -7.5 75.5t-84.5 31.5zM596 -109q59 0 98 -37t39 -98q0 -106 -95 -179.5t-239 -111.5l-4 19q74 23 111 62.5t37 80.5q0 80 -103 121
q6 63 49.5 103t106.5 40z" />
    <glyph glyph-name="uni0123" unicode="&#x123;" horiz-adv-x="1124" 
d="M541 487q75 0 137 66t94.5 165.5t32.5 205.5q0 78 -43.5 129t-110.5 51q-68 0 -123 -45t-86 -113.5t-47 -139.5t-16 -132q0 -82 45 -134.5t117 -52.5zM580 -68l-279 101q-57 22 -86 39q-96 -27 -151.5 -80.5t-55.5 -124.5q0 -95 95 -155t257 -60q159 0 262 49t103 119
q0 59 -145 112zM1096 1360q69 0 100.5 -43t15.5 -101t-73 -100q-90 72 -158 72q-61 0 -125 -82q104 -37 162.5 -108.5t58.5 -166.5t-40.5 -166t-105 -110.5t-142 -66t-155.5 -39t-142.5 -23.5t-105 -26.5t-40.5 -39.5q0 -17 25.5 -32.5t93.5 -40.5l272 -99q228 -80 228 -223
q0 -153 -179 -253.5t-469 -100.5q-219 0 -368.5 63t-149.5 162q0 89 108.5 155t285.5 93q-84 61 -84 141q0 76 90 138.5t295 93.5q-173 14 -277 97t-104 210q0 166 145.5 272.5t372.5 106.5q102 0 200 -29q70 135 133.5 190.5t131.5 55.5zM727 1239q-58 0 -97.5 37t-39.5 98
q0 74 49.5 135t122 97.5t164.5 58.5l4 -18q-75 -24 -112.5 -62t-37.5 -82q0 -80 103 -121q-6 -64 -48.5 -103.5t-107.5 -39.5z" />
    <glyph glyph-name="Hbar" unicode="&#x126;" horiz-adv-x="1648" 
d="M625 1044l-60 -278h606l58 278h-604zM1188 1391l-55 8l6 35h651l-6 -35l-58 -8q-62 -7 -95 -29t-44 -78l-43 -199h162l-10 -41h-160l-190 -894q-11 -53 13.5 -76.5t80.5 -30.5l55 -8l-8 -35h-651l8 35l57 8q59 7 92.5 30t46.5 77l121 575h-604l-123 -575
q-11 -53 13.5 -76.5t80.5 -30.5l56 -8l-9 -35h-649l6 35l58 8q60 7 94 30t45 77l190 894h-159l8 41h160l43 199q11 56 -12.5 78t-82.5 29l-55 8l8 35h650l-7 -35l-57 -8q-62 -7 -95 -29t-44 -78l-43 -199h606l41 199q13 56 -11 78t-81 29z" />
    <glyph glyph-name="hbar" unicode="&#x127;" horiz-adv-x="1251" 
d="M1223 432l22 -16q-114 -207 -236.5 -321.5t-236.5 -114.5q-66 0 -97 46.5t-9 125.5l184 686q26 106 -51 106q-78 0 -172 -119q-97 -122 -191 -336.5t-168 -488.5h-280l352 1311h-139l8 43h141l19 67l-109 109l2 4l449 125h4l-82 -305h270l-10 -43h-272l-222 -822
q129 316 280 485t310 169q93 0 137 -69.5t15 -182.5l-209 -791q139 90 291 332z" />
    <glyph glyph-name="Itilde" unicode="&#x128;" horiz-adv-x="737" 
d="M416 1645q-77 0 -142 -78l-10 2q99 256 256 256q65 0 119 -31q16 -9 51 -31t54.5 -32.5t47.5 -20.5t52 -10q85 0 141 82l10 -2q-38 -113 -105.5 -185.5t-154.5 -72.5q-43 0 -89.5 19t-81 42.5t-75.5 42.5t-73 19zM575 0h-651l6 35l60 8q59 7 92.5 30t46.5 77l240 1134
q13 56 -11.5 78t-81.5 29l-55 8l6 35h652l-9 -35l-57 -8q-61 -7 -94.5 -29t-44.5 -78l-242 -1134q-11 -53 13.5 -76.5t80.5 -30.5l56 -8z" />
    <glyph glyph-name="itilde" unicode="&#x129;" horiz-adv-x="688" 
d="M651 432l23 -16q-114 -208 -235.5 -322t-235.5 -114q-68 0 -100 46.5t-9 125.5l232 872q-66 -46 -143 -133.5t-146 -200.5l-23 17q114 206 237 321t234 115q69 0 100 -45t9 -127l-232 -873q159 114 289 334zM641 1251q-44 0 -91.5 19t-82 42.5t-75.5 42.5t-73 19
q-74 0 -139 -78l-12 2q99 256 256 256q66 0 119 -30q16 -9 51 -31t54 -32.5t48 -20.5t54 -10q85 0 141 81l10 -2q-40 -113 -107 -185.5t-153 -72.5z" />
    <glyph glyph-name="Imacron" unicode="&#x12a;" horiz-adv-x="737" 
d="M575 0h-651l6 35l60 8q59 7 92.5 30t46.5 77l240 1134q13 56 -11.5 78t-81.5 29l-55 8l6 35h652l-9 -35l-57 -8q-61 -7 -94.5 -29t-44.5 -78l-242 -1134q-11 -53 13.5 -76.5t80.5 -30.5l56 -8zM899 1602h-608l8 40h608z" />
    <glyph glyph-name="imacron" unicode="&#x12b;" horiz-adv-x="688" 
d="M594 971l-232 -873q159 114 289 334l23 -16q-114 -208 -235.5 -322t-235.5 -114q-68 0 -100 46.5t-9 125.5l232 872q-66 -46 -143 -133.5t-146 -200.5l-23 17q114 206 237 321t234 115q69 0 100 -45t9 -127zM221 1319l8 41h611l-9 -41h-610z" />
    <glyph glyph-name="Iogonek" unicode="&#x12e;" horiz-adv-x="737" 
d="M221 1399l6 35h652l-9 -35l-57 -8q-61 -7 -94.5 -29t-44.5 -78l-242 -1134q-11 -53 13.5 -76.5t80.5 -30.5l56 -8l-7 -35h-174q-116 -107 -158 -162.5t-42 -105.5q0 -28 18.5 -46t54.5 -18q39 0 95 29l2 -4q-51 -63 -120 -99t-138 -36q-66 0 -102 30.5t-36 79.5
q0 77 85 149t298 183h-434l6 35l60 8q59 7 92.5 30t46.5 77l240 1134q13 56 -11.5 78t-81.5 29z" />
    <glyph glyph-name="iogonek" unicode="&#x12f;" horiz-adv-x="688" 
d="M594 971l-234 -873q69 50 145.5 136t145.5 198l23 -16q-139 -252 -303 -375q-201 -157 -240 -236q-43 -77 -2 -118q16 -19 55 -19q48 0 95 27l4 -2q-51 -63 -121 -99t-139 -36q-65 0 -101.5 28.5t-36.5 73.5q0 42 22.5 81.5t71 79.5t106.5 76.5t146 84.5q-6 -2 -14 -2
h-14q-68 0 -100 46.5t-9 125.5l232 872q-68 -51 -144.5 -137.5t-144.5 -196.5l-23 17q114 206 237 321t234 115q69 0 100 -45t9 -127zM545 1249q-69 0 -114.5 44t-45.5 110q0 69 45.5 113.5t114.5 44.5t114.5 -44.5t45.5 -113.5q0 -66 -45.5 -110t-114.5 -44z" />
    <glyph glyph-name="Idotaccent" unicode="&#x130;" horiz-adv-x="737" 
d="M575 0h-651l6 35l60 8q59 7 92.5 30t46.5 77l240 1134q13 56 -11.5 78t-81.5 29l-55 8l6 35h652l-9 -35l-57 -8q-61 -7 -94.5 -29t-44.5 -78l-242 -1134q-11 -53 13.5 -76.5t80.5 -30.5l56 -8zM623 1573q-69 0 -115.5 43.5t-46.5 109.5q0 69 46.5 113.5t115.5 44.5
q68 0 112.5 -44.5t44.5 -113.5q0 -66 -44.5 -109.5t-112.5 -43.5z" />
    <glyph glyph-name="dotlessi" unicode="&#x131;" horiz-adv-x="688" 
d="M651 432l23 -16q-114 -208 -235.5 -322t-235.5 -114q-68 0 -100 46.5t-9 125.5l232 872q-66 -46 -143 -133.5t-146 -200.5l-23 17q114 206 237 321t234 115q69 0 100 -45t9 -127l-232 -873q159 114 289 334z" />
    <glyph glyph-name="uni0136" unicode="&#x136;" horiz-adv-x="1497" 
d="M526 43l56 -8l-7 -35h-651l6 35l60 8q59 7 92.5 30t46.5 77l240 1134q11 56 -12.5 78t-80.5 29l-55 8l6 35h652l-9 -35l-57 -8q-61 -7 -94.5 -29t-44.5 -78l-242 -1134q-11 -53 13.5 -76.5t80.5 -30.5zM1194 1399l8 35h461l-8 -35l-60 -8q-67 -8 -124 -28.5t-89 -49.5
l-454 -393l463 -906l-5 -14h-333l-377 768l647 549q71 62 -57 74zM688 -109q59 0 98 -37t39 -98q0 -106 -94.5 -179.5t-238.5 -111.5l-5 19q74 23 111 62.5t37 80.5q0 80 -103 121q6 63 49.5 103t106.5 40z" />
    <glyph glyph-name="uni0137" unicode="&#x137;" horiz-adv-x="1236" 
d="M801 580l100 -486q70 50 147 137t148 201l23 -16q-115 -206 -237.5 -321t-236.5 -115q-63 0 -96 36.5t-47 118.5l-57 338q199 113 298 228.5t99 218.5q0 67 -70 67q-152 0 -315.5 -265t-288.5 -722h-280l381 1421l-109 109l2 4l449 125h4l-301 -1122q143 303 313.5 453.5
t341.5 150.5q83 0 128.5 -33t45.5 -98q0 -93 -113 -205t-329 -225zM403 -109q59 0 98.5 -37t39.5 -98q0 -106 -95 -179.5t-239 -111.5l-4 19q74 23 110.5 62t36.5 81q0 81 -102 121q6 63 49 103t106 40z" />
    <glyph glyph-name="Lacute" unicode="&#x139;" horiz-adv-x="1220" 
d="M1159 481l21 -4l-166 -477h-1090l6 35l60 8q59 7 92.5 30t46.5 77l240 1134q13 56 -11.5 78t-81.5 29l-55 8l6 35h652l-9 -35l-57 -8q-61 -7 -94.5 -29t-44.5 -78l-264 -1243h204q181 0 310.5 111t234.5 329zM1083 1853l-2 -4l-516 -329h-8l154 333h372z" />
    <glyph glyph-name="lacute" unicode="&#x13a;" horiz-adv-x="622" 
d="M260 1534l449 125h4l-418 -1563q71 53 148 139.5t141 196.5l24 -16q-114 -207 -236.5 -321.5t-236.5 -114.5q-67 0 -97.5 46t-10.5 126l340 1269l-109 109zM541 1704l153 334h373l-2 -4l-516 -330h-8z" />
    <glyph glyph-name="uni013B" unicode="&#x13b;" horiz-adv-x="1220" 
d="M1159 481l21 -4l-166 -477h-1090l6 35l60 8q59 7 92.5 30t46.5 77l240 1134q13 56 -11.5 78t-81.5 29l-55 8l6 35h652l-9 -35l-57 -8q-61 -7 -94.5 -29t-44.5 -78l-264 -1243h204q181 0 310.5 111t234.5 329zM442 -109q57 0 96.5 -37t39.5 -98q0 -106 -95 -179.5
t-239 -111.5l-4 19q74 23 111.5 62.5t37.5 80.5q0 78 -104 121q8 63 51 103t106 40z" />
    <glyph glyph-name="uni013C" unicode="&#x13c;" horiz-adv-x="622" 
d="M713 1659l-418 -1563q71 53 148 139.5t141 196.5l24 -16q-114 -207 -236.5 -321.5t-236.5 -114.5q-67 0 -97.5 46t-10.5 126l340 1269l-109 109l2 4l449 125h4zM141 -109q58 0 98 -37t40 -98q0 -55 -28 -103t-76.5 -83.5t-106 -61t-125.5 -43.5l-4 19q74 23 111.5 62.5
t37.5 80.5q0 37 -27 69t-75 52q6 63 49 103t106 40z" />
    <glyph glyph-name="Lcaron" unicode="&#x13d;" horiz-adv-x="1226" 
d="M410 41h204q181 0 310.5 111t234.5 329l21 -4l-166 -477h-1090l6 35l60 8q59 7 92.5 30t46.5 77l240 1134q13 56 -11.5 78t-81.5 29l-55 8l6 35h652l-9 -35l-57 -8q-61 -7 -94.5 -29t-44.5 -78zM924 1004l92 430h260l-2 -15l-338 -415h-12z" />
    <glyph glyph-name="lcaron" unicode="&#x13e;" horiz-adv-x="659" 
d="M713 1659l-418 -1563q71 53 148 139.5t141 196.5l24 -16q-114 -207 -236.5 -321.5t-236.5 -114.5q-67 0 -97.5 46t-10.5 126l340 1269l-109 109l2 4l449 125h4zM702 1188l129 430h261l-5 -14l-372 -416h-13z" />
    <glyph glyph-name="Lslash" unicode="&#x141;" horiz-adv-x="1247" 
d="M1184 481l22 -4l-166 -477h-1091l8 35l57 8q59 7 93 30t47 77l75 358l-198 -96l-17 37l226 110l153 725q13 56 -11 78t-81 29l-55 8l6 35h651l-8 -35l-57 -8q-60 -7 -93.5 -29t-46.5 -78l-118 -557l282 139l15 -43l-308 -149l-135 -633h207q181 0 309.5 110.5
t233.5 329.5z" />
    <glyph glyph-name="lslash" unicode="&#x142;" horiz-adv-x="718" 
d="M754 1030l20 -41l-213 -135l-203 -758q72 51 149 137.5t142 198.5l23 -16q-114 -208 -235.5 -322t-235.5 -114q-68 0 -100 46.5t-9 125.5l129 485l-182 -117l-19 37l218 141l194 723l-110 109l2 4l450 125h4l-198 -741z" />
    <glyph glyph-name="Nacute" unicode="&#x143;" horiz-adv-x="1507" 
d="M1235 1399l6 35h428l-6 -35l-64 -8q-67 -7 -103.5 -29t-47.5 -78l-272 -1284h-201l-557 1262l-238 -1112q-11 -54 16 -77t89 -30l61 -8l-8 -35h-428l8 35l64 8q65 7 101.5 30t47.5 77l242 1134q11 56 -12 78t-78 29l-54 8l7 35h428l526 -1137l209 987q13 56 -14 78
t-91 29zM1503 1853v-4l-516 -329h-10l156 333h370z" />
    <glyph glyph-name="nacute" unicode="&#x144;" horiz-adv-x="1318" 
d="M1290 432l23 -16q-114 -208 -235.5 -322t-235.5 -114q-68 0 -100 46.5t-9 125.5l185 686q26 106 -52 106t-173 -119t-187 -333q-90 -209 -168 -492h-283l273 1026q-157 -111 -291 -336l-25 17q117 207 239.5 321.5t233.5 114.5q69 0 100 -45t9 -127l-127 -484
q129 316 280 486t310 170q93 0 136.5 -69.5t14.5 -182.5l-209 -793q72 51 149 137.5t142 196.5zM1300 1559v-5l-518 -329h-8l156 334h370z" />
    <glyph glyph-name="uni0145" unicode="&#x145;" horiz-adv-x="1507" 
d="M1235 1399l6 35h428l-6 -35l-64 -8q-67 -7 -103.5 -29t-47.5 -78l-272 -1284h-201l-557 1262l-238 -1112q-11 -54 16 -77t89 -30l61 -8l-8 -35h-428l8 35l64 8q65 7 101.5 30t47.5 77l242 1134q11 56 -12 78t-78 29l-54 8l7 35h428l526 -1137l209 987q13 56 -14 78
t-91 29zM604 -109q58 0 97.5 -37t39.5 -98q0 -55 -27.5 -103t-76 -83.5t-106 -61t-125.5 -43.5l-5 19q74 23 112 62.5t38 80.5q0 37 -27 69t-75 52q6 63 49 103t106 40z" />
    <glyph glyph-name="uni0146" unicode="&#x146;" horiz-adv-x="1318" 
d="M1290 432l23 -16q-114 -208 -235.5 -322t-235.5 -114q-68 0 -100 46.5t-9 125.5l185 686q26 106 -52 106t-173 -119t-187 -333q-90 -209 -168 -492h-283l273 1026q-157 -111 -291 -336l-25 17q117 207 239.5 321.5t233.5 114.5q69 0 100 -45t9 -127l-127 -484
q129 316 280 486t310 170q93 0 136.5 -69.5t14.5 -182.5l-209 -793q72 51 149 137.5t142 196.5zM481 -109q58 0 97.5 -37t39.5 -98q0 -55 -27.5 -103t-76 -83.5t-106 -61t-125.5 -43.5l-4 19q74 23 111.5 62.5t37.5 80.5q0 37 -27 69t-75 52q6 63 49 103t106 40z" />
    <glyph glyph-name="Ncaron" unicode="&#x147;" horiz-adv-x="1507" 
d="M1235 1399l6 35h428l-6 -35l-64 -8q-67 -7 -103.5 -29t-47.5 -78l-272 -1284h-201l-557 1262l-238 -1112q-11 -54 16 -77t89 -30l61 -8l-8 -35h-428l8 35l64 8q65 7 101.5 30t47.5 77l242 1134q11 56 -12 78t-78 29l-54 8l7 35h428l526 -1137l209 987q13 56 -14 78
t-91 29zM1384 1862l-393 -344h-4l-246 342l9 8l268 -127l362 127z" />
    <glyph glyph-name="ncaron" unicode="&#x148;" horiz-adv-x="1318" 
d="M1290 432l23 -16q-114 -208 -235.5 -322t-235.5 -114q-68 0 -100 46.5t-9 125.5l185 686q26 106 -52 106t-173 -119t-187 -333q-90 -209 -168 -492h-283l273 1026q-157 -111 -291 -336l-25 17q117 207 239.5 321.5t233.5 114.5q69 0 100 -45t9 -127l-127 -484
q129 316 280 486t310 170q93 0 136.5 -69.5t14.5 -182.5l-209 -793q72 51 149 137.5t142 196.5zM1186 1567l-393 -344h-5l-247 342l8 8l268 -127l363 127z" />
    <glyph glyph-name="Eng" unicode="&#x14a;" horiz-adv-x="1507" 
d="M1235 1399l6 35h428l-6 -35l-64 -8q-67 -7 -103.5 -29t-47.5 -78l-234 -1104q-38 -177 -131 -301q-93 -127 -216 -196.5t-249 -69.5q-88 0 -134 34t-46 81q0 51 38.5 94t88.5 57q7 -84 64 -138t127 -54q85 0 149 78.5t64 175.5q0 92 -25 147l-524 1184l-240 -1122
q-10 -54 15.5 -76.5t89.5 -30.5l61 -8l-8 -35h-428l8 35l64 8q65 7 101.5 30t49.5 77l240 1134q10 54 -11.5 76.5t-78.5 30.5l-54 8l9 35h436l518 -1123l207 973q11 54 -14 76.5t-91 30.5z" />
    <glyph glyph-name="eng" unicode="&#x14b;" horiz-adv-x="1249" 
d="M1057 1143q93 0 136.5 -69.5t14.5 -182.5l-184 -701q-50 -188 -150 -315q-98 -128 -218 -196t-238 -68q-96 0 -150.5 37.5t-54.5 93.5q0 45 35.5 88.5t109.5 73.5q19 -106 66 -166t113 -60q46 0 73 63t84 269q1 5 2 8l222 820q26 106 -52 106t-173 -119t-187 -333
q-90 -209 -168 -492h-283l271 1024q-68 -51 -144.5 -137.5t-144.5 -196.5l-25 17q117 207 239.5 321.5t233.5 114.5q69 0 100 -45t9 -127l-127 -479q129 313 280 482t310 169z" />
    <glyph glyph-name="Omacron" unicode="&#x14c;" horiz-adv-x="1464" 
d="M627 14q103 0 186 68q104 86 185.5 257t121 356.5t39.5 351.5q0 182 -66 277t-188 95q-96 0 -183 -68t-149 -178.5t-108.5 -246.5t-69 -275t-22.5 -262q0 -182 67 -278.5t187 -96.5zM907 1454q248 0 394.5 -152.5t146.5 -408.5q0 -174 -64 -340t-172.5 -292.5
t-262.5 -203.5t-324 -77q-245 0 -393 154t-148 407q0 176 64 342.5t172.5 292.5t262.5 202t324 76zM1272 1642l-8 -40h-611l9 40h610z" />
    <glyph glyph-name="omacron" unicode="&#x14d;" horiz-adv-x="1159" 
d="M459 14q80 0 155 92t124.5 226t79.5 278t30 254q0 119 -37.5 181.5t-110.5 62.5q-82 0 -157.5 -91.5t-124.5 -225t-78 -278t-29 -257.5q0 -117 38 -179.5t110 -62.5zM692 1143q192 0 307 -121.5t115 -319.5q0 -138 -50.5 -269.5t-136 -231t-207 -160.5t-255.5 -61
q-195 0 -307.5 121.5t-112.5 318.5q0 185 84 350.5t234.5 269t328.5 103.5zM1055 1360l-8 -41h-611l8 41h611z" />
    <glyph glyph-name="Ohungarumlaut" unicode="&#x150;" horiz-adv-x="1464" 
d="M627 14q103 0 186 68q104 86 185.5 257t121 356.5t39.5 351.5q0 182 -66 277t-188 95q-96 0 -183 -68t-149 -178.5t-108.5 -246.5t-69 -275t-22.5 -262q0 -182 67 -278.5t187 -96.5zM907 1454q248 0 394.5 -152.5t146.5 -408.5q0 -174 -64 -340t-172.5 -292.5
t-262.5 -203.5t-324 -77q-245 0 -393 154t-148 407q0 176 64 342.5t172.5 292.5t262.5 202t324 76zM1194 1849l-432 -329h-8l151 333h289v-4zM1513 1849l-432 -329h-8l152 333h288v-4z" />
    <glyph glyph-name="ohungarumlaut" unicode="&#x151;" horiz-adv-x="1159" 
d="M459 14q80 0 155 92t124.5 226t79.5 278t30 254q0 119 -37.5 181.5t-110.5 62.5q-82 0 -157.5 -91.5t-124.5 -225t-78 -278t-29 -257.5q0 -117 38 -179.5t110 -62.5zM692 1143q192 0 307 -121.5t115 -319.5q0 -138 -50.5 -269.5t-136 -231t-207 -160.5t-255.5 -61
q-195 0 -307.5 121.5t-112.5 318.5q0 185 84 350.5t234.5 269t328.5 103.5zM999 1554l-430 -329h-8l152 334h288zM1319 1554l-430 -329h-8l151 334h289z" />
    <glyph glyph-name="OE" unicode="&#x152;" horiz-adv-x="2078" 
d="M926 150l239 1134q14 62 -13.5 85.5t-117.5 23.5q-142 0 -263 -80t-199 -208.5t-122 -286t-44 -316.5q0 -211 90 -336t254 -125q89 0 125.5 23.5t50.5 85.5zM1036 1434h1039l-25 -447l-25 -6q-47 412 -401 412h-131l-137 -645h127q90 0 149 59t121 209h21l-123 -578h-21
q11 149 -23.5 209t-131.5 60h-127l-142 -666h185q109 0 193.5 20t160.5 68t137 131.5t113 206.5h24l-164 -467h-1110q-155 0 -279.5 46t-205.5 128t-124.5 192t-43.5 240q0 183 71.5 338.5t197 262.5t300 167t375.5 60z" />
    <glyph glyph-name="oe" unicode="&#x153;" horiz-adv-x="1753" 
d="M459 14q80 0 155 92t124.5 226t79.5 278t30 254q0 119 -37.5 181.5t-110.5 62.5q-82 0 -157.5 -91.5t-124.5 -225t-78 -278t-29 -257.5q0 -117 38 -179.5t110 -62.5zM1460 1102q-76 0 -151 -80.5t-127 -201.5t-74 -251q114 32 202 85t137 112t73 115.5t24 107.5
q0 52 -22 82.5t-62 30.5zM1292 150q93 0 194.5 75.5t178.5 206.5l25 -16q-101 -207 -243 -321.5t-306 -114.5q-196 0 -277 159q-177 -159 -399 -159q-195 0 -307.5 121.5t-112.5 318.5q0 185 84 350.5t234.5 269t328.5 103.5q126 0 219.5 -53t145.5 -148q194 201 440 201
q129 0 203 -54t74 -135q0 -59 -40.5 -120.5t-119 -119.5t-211.5 -104.5t-301 -68.5q-6 -55 -6 -105q0 -131 52 -208.5t144 -77.5z" />
    <glyph glyph-name="Racute" unicode="&#x154;" horiz-adv-x="1423" 
d="M696 1393l-155 -736h135q127 0 220 67t138 174t45 239q0 121 -69 188.5t-191 67.5h-123zM1378 1047q0 -148 -103.5 -250t-279.5 -146l342 -637l-2 -14h-321l-297 616h-185l-100 -466q-10 -54 9 -75t83 -32l58 -8l-7 -35h-651l6 35l54 8q75 11 104 32t41 75l240 1134
q10 54 -8.5 74.5t-86.5 32.5l-53 8l6 35h600q254 0 402.5 -105.5t148.5 -281.5zM891 1520h-8l153 333h373l-2 -4z" />
    <glyph glyph-name="racute" unicode="&#x155;" horiz-adv-x="927" 
d="M928 1141q73 0 102 -45.5t6.5 -113.5t-86.5 -130q-88 82 -164 82q-41 0 -85 -44.5t-99 -147t-122.5 -289.5t-145.5 -453h-281l275 1026q-67 -47 -144.5 -135t-146.5 -201l-23 17q114 206 237 321t234 115q69 0 100 -45t9 -127l-115 -426q234 596 449 596zM637 1225
l156 334h370v-5l-518 -329h-8z" />
    <glyph glyph-name="uni0156" unicode="&#x156;" horiz-adv-x="1423" 
d="M696 1393l-155 -736h135q127 0 220 67t138 174t45 239q0 121 -69 188.5t-191 67.5h-123zM1378 1047q0 -148 -103.5 -250t-279.5 -146l342 -637l-2 -14h-321l-297 616h-185l-100 -466q-10 -54 9 -75t83 -32l58 -8l-7 -35h-651l6 35l54 8q75 11 104 32t41 75l240 1134
q10 54 -8.5 74.5t-86.5 32.5l-53 8l6 35h600q254 0 402.5 -105.5t148.5 -281.5zM631 -109q58 0 97.5 -37t39.5 -98q0 -55 -28 -103t-76.5 -83.5t-106 -61t-125.5 -43.5l-4 19q74 23 112 62.5t38 80.5q0 80 -103 121q6 63 49.5 103t106.5 40z" />
    <glyph glyph-name="uni0157" unicode="&#x157;" horiz-adv-x="927" 
d="M928 1141q73 0 102 -45.5t6.5 -113.5t-86.5 -130q-88 82 -164 82q-41 0 -85 -44.5t-99 -147t-122.5 -289.5t-145.5 -453h-281l275 1026q-67 -47 -144.5 -135t-146.5 -201l-23 17q114 206 237 321t234 115q69 0 100 -45t9 -127l-115 -426q234 596 449 596zM145 -109
q57 0 96.5 -37t39.5 -98q0 -106 -95 -179.5t-239 -111.5l-4 19q74 23 111.5 62.5t37.5 80.5q0 78 -104 121q8 63 51 103t106 40z" />
    <glyph glyph-name="Rcaron" unicode="&#x158;" horiz-adv-x="1423" 
d="M696 1393l-155 -736h135q127 0 220 67t138 174t45 239q0 121 -69 188.5t-191 67.5h-123zM1378 1047q0 -148 -103.5 -250t-279.5 -146l342 -637l-2 -14h-321l-297 616h-185l-100 -466q-10 -54 9 -75t83 -32l58 -8l-7 -35h-651l6 35l54 8q75 11 104 32t41 75l240 1134
q10 54 -8.5 74.5t-86.5 32.5l-53 8l6 35h600q254 0 402.5 -105.5t148.5 -281.5zM1284 1868l6 -6l-393 -344h-4l-248 342l8 8l269 -127z" />
    <glyph glyph-name="rcaron" unicode="&#x159;" horiz-adv-x="927" 
d="M928 1141q73 0 102 -45.5t6.5 -113.5t-86.5 -130q-88 82 -164 82q-41 0 -85 -44.5t-99 -147t-122.5 -289.5t-145.5 -453h-281l275 1026q-67 -47 -144.5 -135t-146.5 -201l-23 17q114 206 237 321t234 115q69 0 100 -45t9 -127l-115 -426q234 596 449 596zM1049 1567
l-396 -344h-4l-246 342l9 8l268 -127l362 127z" />
    <glyph glyph-name="Sacute" unicode="&#x15a;" horiz-adv-x="1093" 
d="M463 -20q-122 0 -242.5 38.5t-206.5 108.5l31 301h21q50 -175 177.5 -293.5t268.5 -118.5q102 0 171 73t69 173q0 64 -30.5 119t-78.5 96.5t-106.5 81.5t-117.5 84t-107 94t-78.5 122.5t-30.5 158.5q0 138 73 239t187 149t252 48q221 0 405 -121l-41 -301h-20
q-34 186 -134 286.5t-237 100.5q-116 0 -184 -67t-68 -172q0 -68 30.5 -125.5t79 -99.5t107 -82t117.5 -83.5t107.5 -92.5t79 -119.5t30.5 -155.5q0 -191 -151.5 -316.5t-372.5 -125.5zM909 1853h371v-4l-518 -329h-8z" />
    <glyph glyph-name="sacute" unicode="&#x15b;" horiz-adv-x="880" 
d="M295 -20q-152 0 -243 66.5t-91 158.5q0 54 34.5 100.5t100.5 65.5q27 -159 101 -248.5t188 -89.5q72 0 120 40t48 101q0 41 -22 82t-57 76.5t-77.5 72.5t-85.5 77.5t-78 83t-57 98t-22 114.5q0 154 116.5 259.5t302.5 105.5q155 0 236.5 -53.5t81.5 -128.5
q0 -53 -41 -101t-111 -72q2 74 -23.5 144.5t-80.5 120t-127 49.5q-73 0 -117.5 -45t-44.5 -113q0 -43 22.5 -85.5t59 -79.5t80 -75.5t87 -79.5t80 -84t59 -97t22.5 -111q0 -140 -126.5 -246t-334.5 -106zM766 1559h373l-2 -5l-516 -329h-9z" />
    <glyph glyph-name="Scedilla" unicode="&#x15e;" horiz-adv-x="1093" 
d="M715 1454q221 0 405 -121l-41 -301h-20q-34 186 -134 286.5t-237 100.5q-116 0 -184 -67t-68 -172q0 -68 30.5 -125.5t79 -99.5t107 -82t117.5 -83.5t107.5 -92.5t79 -119.5t30.5 -155.5q0 -191 -151.5 -316.5t-372.5 -125.5h-23q-16 0 -24 2l-49 -64q75 -22 123.5 -66
t48.5 -106q0 -60 -36.5 -106t-96.5 -73t-129 -40.5t-142 -13.5q-30 0 -80 4l-2 77q93 -34 174 -34q66 0 104 26.5t38 81.5q0 87 -168 121l161 197q-97 12 -189 48.5t-159 92.5l31 301h21q50 -175 177.5 -293.5t268.5 -118.5q102 0 171 73t69 173q0 64 -30.5 119t-78.5 96.5
t-106.5 81.5t-117.5 84t-107 94t-78.5 122.5t-30.5 158.5q0 138 73 239t187 149t252 48z" />
    <glyph glyph-name="scedilla" unicode="&#x15f;" horiz-adv-x="880" 
d="M891 961q0 -53 -41 -101t-111 -72q2 74 -23.5 144.5t-80.5 120t-127 49.5q-73 0 -117.5 -45t-44.5 -113q0 -43 22.5 -85.5t59 -79.5t80 -75.5t87 -79.5t80 -84t59 -97t22.5 -111q0 -140 -126.5 -246t-334.5 -106h-10l-47 -62q75 -22 123.5 -66t48.5 -106
q0 -60 -36.5 -106t-96.5 -73t-129 -40.5t-142 -13.5q-30 0 -80 4l-2 77q93 -34 174 -34q66 0 104 26.5t38 81.5q0 87 -168 121l159 195q-124 13 -197 76.5t-73 144.5q0 54 34.5 100.5t100.5 65.5q27 -159 101 -248.5t188 -89.5q72 0 120 40t48 101q0 41 -22 82t-57 76.5
t-77.5 72.5t-85.5 77.5t-78 83t-57 98t-22 114.5q0 154 116.5 259.5t302.5 105.5q155 0 236.5 -53.5t81.5 -128.5z" />
    <glyph glyph-name="Scaron" unicode="&#x160;" horiz-adv-x="1093" 
d="M203 1018q0 138 73 239t187 149t252 48q221 0 405 -121l-41 -301h-20q-34 186 -134 286.5t-237 100.5q-116 0 -184 -67t-68 -172q0 -68 30.5 -125.5t79 -99.5t107 -82t117.5 -83.5t107.5 -92.5t79 -119.5t30.5 -155.5q0 -191 -151.5 -316.5t-372.5 -125.5
q-122 0 -242.5 38.5t-206.5 108.5l31 301h21q50 -175 177.5 -293.5t268.5 -118.5q102 0 171 73t69 173q0 64 -30.5 119t-78.5 96.5t-106.5 81.5t-117.5 84t-107 94t-78.5 122.5t-30.5 158.5zM1161 1862l-393 -344h-4l-246 342l8 8l269 -127l362 127z" />
    <glyph glyph-name="scaron" unicode="&#x161;" horiz-adv-x="880" 
d="M573 1143q155 0 236.5 -53.5t81.5 -128.5q0 -53 -41 -101t-111 -72q2 74 -23.5 144.5t-80.5 120t-127 49.5q-73 0 -117.5 -45t-44.5 -113q0 -43 22.5 -85.5t59 -79.5t80 -75.5t87 -79.5t80 -84t59 -97t22.5 -111q0 -140 -126.5 -246t-334.5 -106q-152 0 -243 66.5
t-91 158.5q0 54 34.5 100.5t100.5 65.5q27 -159 101 -248.5t188 -89.5q72 0 120 40t48 101q0 41 -22 82t-57 76.5t-77.5 72.5t-85.5 77.5t-78 83t-57 98t-22 114.5q0 154 116.5 259.5t302.5 105.5zM1022 1567l-393 -344h-4l-246 342l8 8l268 -127l363 127z" />
    <glyph glyph-name="uni0162" unicode="&#x162;" horiz-adv-x="1392" 
d="M115 971l164 463h1206l-31 -463l-24 -4q-20 208 -108 317t-216 109h-78l-264 -1243q-13 -53 23.5 -76.5t115.5 -30.5l78 -8l-6 -35h-371l-63 -82q78 -22 126 -65.5t48 -106.5q0 -60 -36.5 -106t-96.5 -73t-129 -40.5t-142 -13.5q-30 0 -80 4l-2 77q93 -34 174 -34
q66 0 104 26.5t38 81.5q0 86 -170 121l174 211h-365l6 35l80 8q84 6 130 29.5t57 77.5l266 1243h-82q-129 0 -261.5 -108t-244.5 -318z" />
    <glyph glyph-name="uni0163" unicode="&#x163;" horiz-adv-x="737" 
d="M858 1122l-8 -41h-268l-271 -1028q191 92 373 379l25 -16q-121 -208 -248 -322t-246 -114h-16q-11 0 -17 2l-49 -64q77 -22 124.5 -65.5t47.5 -106.5q0 -59 -37 -105.5t-97 -73.5t-128.5 -40.5t-140.5 -13.5q-28 0 -78 4l-2 77q93 -34 174 -34q141 0 141 108
q0 86 -170 121l168 205q-51 20 -68.5 71t3.5 146l231 870h-156l5 21l475 244h28l-61 -224h266z" />
    <glyph glyph-name="Tcaron" unicode="&#x164;" horiz-adv-x="1392" 
d="M115 971l164 463h1206l-31 -463l-24 -4q-20 208 -108 317t-216 109h-78l-264 -1243q-13 -53 23.5 -76.5t115.5 -30.5l78 -8l-6 -35h-791l6 35l80 8q84 6 130 29.5t57 77.5l266 1243h-82q-129 0 -261.5 -108t-244.5 -318zM1298 1862l-393 -344h-4l-248 342l9 8l268 -127
l362 127z" />
    <glyph glyph-name="tcaron" unicode="&#x165;" horiz-adv-x="737" 
d="M625 1346h28l-61 -224h266l-8 -41h-268l-271 -1028q191 92 373 379l25 -16q-121 -208 -248 -322t-246 -114q-89 0 -132.5 55.5t-12.5 175.5l231 870h-156l5 21zM688 1178l80 256h260l-2 -9l-326 -247h-12z" />
    <glyph glyph-name="Tbar" unicode="&#x166;" horiz-adv-x="1384" 
d="M109 971l163 463h1209l-33 -463l-23 -4q-20 208 -108 317t-217 109h-76l-141 -656h256l-11 -41h-254l-116 -546q-11 -54 25 -77t116 -30l78 -8l-8 -35h-791l8 35l80 8q82 7 128 30t59 77l116 546h-260l10 41h259l139 656h-80q-129 0 -261.5 -108t-244.5 -318z" />
    <glyph glyph-name="tbar" unicode="&#x167;" horiz-adv-x="741" 
d="M860 1122l-8 -41h-268l-76 -293h215l-8 -43h-219l-183 -692q191 92 373 379l25 -16q-121 -208 -248 -322t-246 -114q-89 0 -132.5 55.5t-12.5 175.5l143 534h-141l8 43h143l78 293h-156l5 21l475 244h28l-61 -224h266z" />
    <glyph glyph-name="Utilde" unicode="&#x168;" horiz-adv-x="1454" 
d="M772 1645q-76 0 -141 -78l-10 2q99 256 256 256q64 0 118 -31q16 -9 51 -31t54.5 -32.5t47.5 -20.5t52 -10q85 0 141 82l11 -2q-38 -113 -105.5 -185.5t-154.5 -72.5q-43 0 -90 19t-81 42.5t-75.5 42.5t-73.5 19zM676 -20q-168 0 -295 65q-132 65 -188.5 188t-20.5 291
l162 760q11 56 -10 78t-74 29l-51 8l8 35h635l-6 -35l-58 -8q-62 -7 -95 -29t-44 -78l-166 -784q-42 -198 51.5 -315t276.5 -117q164 0 259 109t140 317l168 790q11 56 -15 78t-89 29l-60 8l8 35h424l-6 -35l-63 -8q-67 -7 -103 -29t-47 -78l-168 -790
q-53 -251 -191.5 -382.5t-381.5 -131.5z" />
    <glyph glyph-name="utilde" unicode="&#x169;" horiz-adv-x="1318" 
d="M1284 432l25 -16q-114 -207 -236.5 -321.5t-236.5 -114.5q-67 0 -98 46t-11 126l127 483q-129 -316 -280 -485.5t-310 -169.5q-92 0 -136 70t-15 181l209 793q-67 -47 -144.5 -134.5t-146.5 -199.5l-23 17q114 206 237 321t234 115q74 0 102 -48.5t3 -138.5l-181 -671
q-27 -107 52 -107t173.5 119t188.5 334q94 217 166 491h283l-273 -1026q72 51 149 137.5t142 198.5zM950 1251q-44 0 -91.5 19t-81.5 42.5t-75 42.5t-73 19q-75 0 -140 -78l-12 2q99 256 256 256q67 0 119 -30q16 -9 51 -31t54 -32.5t48 -20.5t54 -10q85 0 141 81l10 -2
q-40 -113 -107 -185.5t-153 -72.5z" />
    <glyph glyph-name="Umacron" unicode="&#x16a;" horiz-adv-x="1454" 
d="M676 -20q-168 0 -295 65q-132 65 -188.5 188t-20.5 291l162 760q11 56 -10 78t-74 29l-51 8l8 35h635l-6 -35l-58 -8q-62 -7 -95 -29t-44 -78l-166 -784q-42 -198 51.5 -315t276.5 -117q164 0 259 109t140 317l168 790q11 56 -15 78t-89 29l-60 8l8 35h424l-6 -35l-63 -8
q-67 -7 -103 -29t-47 -78l-168 -790q-53 -251 -191.5 -382.5t-381.5 -131.5zM1343 1602h-610l8 40h611z" />
    <glyph glyph-name="umacron" unicode="&#x16b;" horiz-adv-x="1318" 
d="M1284 432l25 -16q-114 -207 -236.5 -321.5t-236.5 -114.5q-67 0 -98 46t-11 126l127 483q-129 -316 -280 -485.5t-310 -169.5q-92 0 -136 70t-15 181l209 793q-67 -47 -144.5 -134.5t-146.5 -199.5l-23 17q114 206 237 321t234 115q74 0 102 -48.5t3 -138.5l-181 -671
q-27 -107 52 -107t173.5 119t188.5 334q94 217 166 491h283l-273 -1026q72 51 149 137.5t142 198.5zM508 1360h610l-8 -41h-610z" />
    <glyph glyph-name="Uring" unicode="&#x16e;" horiz-adv-x="1454" 
d="M1053 1565q72 0 120 47.5t48 116.5q0 63 -41 104t-107 41q-71 0 -119.5 -49t-48.5 -119q0 -62 42 -101.5t106 -39.5zM676 -20q-168 0 -295 65q-132 65 -188.5 188t-20.5 291l162 760q11 56 -10 78t-74 29l-51 8l8 35h635l-6 -35l-58 -8q-62 -7 -95 -29t-44 -78l-166 -784
q-42 -198 51.5 -315t276.5 -117q164 0 259 109t140 317l168 790q11 56 -15 78t-89 29l-60 8l8 35h424l-6 -35l-63 -8q-67 -7 -103 -29t-47 -78l-168 -790q-53 -251 -191.5 -382.5t-381.5 -131.5zM1049 1522q-83 0 -137 49.5t-54 132.5q0 91 63.5 153t157.5 62
q86 0 138.5 -50t52.5 -134q0 -91 -62.5 -152t-158.5 -61z" />
    <glyph glyph-name="uring" unicode="&#x16f;" horiz-adv-x="1318" 
d="M842 1591q-71 0 -119.5 -49t-48.5 -119q0 -62 41.5 -101.5t105.5 -39.5q72 0 120 47.5t48 116.5q0 63 -42 104t-105 41zM1284 432l25 -16q-114 -207 -236.5 -321.5t-236.5 -114.5q-67 0 -98 46t-11 126l127 483q-129 -316 -280 -485.5t-310 -169.5q-92 0 -136 70t-15 181
l209 793q-67 -47 -144.5 -134.5t-146.5 -199.5l-23 17q114 206 237 321t234 115q74 0 102 -48.5t3 -138.5l-181 -671q-27 -107 52 -107t173.5 119t188.5 334q94 217 166 491h283l-273 -1026q72 51 149 137.5t142 198.5zM815 1239q-83 0 -135.5 49.5t-52.5 132.5
q0 91 63.5 153t157.5 62q85 0 136.5 -50t51.5 -134q0 -91 -62.5 -152t-158.5 -61z" />
    <glyph glyph-name="Uhungarumlaut" unicode="&#x170;" horiz-adv-x="1454" 
d="M676 -20q-168 0 -295 65q-132 65 -188.5 188t-20.5 291l162 760q11 56 -10 78t-74 29l-51 8l8 35h635l-6 -35l-58 -8q-62 -7 -95 -29t-44 -78l-166 -784q-42 -198 51.5 -315t276.5 -117q164 0 259 109t140 317l168 790q11 56 -15 78t-89 29l-60 8l8 35h424l-6 -35l-63 -8
q-67 -7 -103 -29t-47 -78l-168 -790q-53 -251 -191.5 -382.5t-381.5 -131.5zM844 1520h-10l151 333h289v-4zM1163 1520h-10l152 333h288v-4z" />
    <glyph glyph-name="uhungarumlaut" unicode="&#x171;" horiz-adv-x="1318" 
d="M1266 1122l-273 -1026q72 51 149 137.5t142 198.5l25 -16q-114 -207 -236.5 -321.5t-236.5 -114.5q-67 0 -98 46t-11 126l127 483q-129 -316 -280 -485.5t-310 -169.5q-92 0 -136 70t-15 181l209 793q-67 -47 -144.5 -134.5t-146.5 -199.5l-23 17q114 206 237 321
t234 115q74 0 102 -48.5t3 -138.5l-181 -671q-27 -107 52 -107t173.5 119t188.5 334q94 217 166 491h283zM1065 1559l-2 -5l-430 -329h-8l151 334h289zM944 1225l152 334h288l-2 -5l-430 -329h-8z" />
    <glyph glyph-name="Uogonek" unicode="&#x172;" horiz-adv-x="1458" 
d="M1204 1399l6 35h426l-8 -35l-63 -8q-78 -11 -109 -32t-41 -75l-168 -790q-47 -215 -151 -342q-208 -252 -246 -342q-39 -86 -2 -123q19 -19 55 -19q42 0 94 27l4 -2q-51 -63 -120.5 -99t-141.5 -36q-63 0 -98 32.5t-35 79.5q0 68 77 148t251 213q-111 -51 -254 -51
q-171 0 -297 63q-133 65 -189.5 193t-19.5 309l158 739q10 54 -6 74.5t-76 32.5l-51 8l6 35h637l-8 -35l-58 -8q-70 -11 -98.5 -32t-38.5 -75l-162 -756q-47 -223 47.5 -341.5t276.5 -118.5q311 0 397 426l170 790q11 54 -9.5 75.5t-92.5 31.5z" />
    <glyph glyph-name="uogonek" unicode="&#x173;" horiz-adv-x="1318" 
d="M1284 432l25 -16q-133 -238 -299 -371q-205 -160 -244 -240q-43 -77 -2 -118q19 -19 55 -19q42 0 94 27l5 -2q-51 -63 -121.5 -99t-139.5 -36q-64 0 -99.5 28t-35.5 74q0 80 83 153t259 169q-6 -2 -14 -2h-14q-67 0 -98 46t-11 126l127 483q-129 -316 -280 -485.5
t-310 -169.5q-92 0 -136 70t-15 181l209 793q-67 -47 -144.5 -134.5t-146.5 -199.5l-23 17q114 206 237 321t234 115q74 0 102 -48.5t3 -138.5l-181 -671q-27 -107 52 -107t173.5 119t188.5 334q94 217 166 491h283l-271 -1024q168 126 289 334z" />
    <glyph glyph-name="Wcircumflex" unicode="&#x174;" horiz-adv-x="2078" 
d="M1841 1399l6 35h408l-8 -35l-43 -8q-49 -7 -83 -28.5t-61 -74.5l-641 -1288h-192l-127 1141l-516 -1141h-203l-129 1288q-4 52 -21 74t-45 29l-26 8l8 35h569l-8 -35l-57 -8q-58 -6 -83 -27.5t-24 -75.5l72 -1046l539 1192h204l107 -1201l522 1055q27 53 2 74.5t-98 28.5
zM1665 1520l-268 127l-363 -127l-4 6l393 344h4l246 -342z" />
    <glyph glyph-name="wcircumflex" unicode="&#x175;" horiz-adv-x="1755" 
d="M1571 1137q93 0 139.5 -61.5t46.5 -164.5q0 -83 -29.5 -184.5t-82 -205t-130 -201t-167.5 -173t-201.5 -121.5t-224.5 -46q-102 0 -139.5 66.5t-10.5 170.5l113 426q-129 -319 -281 -491t-311 -172q-93 0 -138 70t-16 181l209 791q-65 -44 -142 -131.5t-147 -200.5
l-24 17q117 207 239.5 321.5t233.5 114.5q69 0 100 -45t8 -127l-184 -686q-27 -107 49 -107q79 0 174 121q96 122 190.5 337t166.5 486h280l-252 -934q-14 -57 -2 -80.5t58 -23.5q37 0 96.5 25.5t127 70.5t132.5 121.5t102 165.5q35 84 40 180.5t-29 216t-109 244.5
q56 29 115 29zM1454 1225l-268 127l-363 -127l-4 6l393 344h5l245 -342z" />
    <glyph glyph-name="Ycircumflex" unicode="&#x176;" horiz-adv-x="1357" 
d="M1151 1399l6 35h404l-7 -35l-43 -8q-54 -7 -90 -29t-69 -66l-494 -661l-102 -485q-11 -54 15.5 -77t88.5 -30l62 -8l-9 -35h-684l9 35l63 8q65 7 102 30t48 77l102 481l-281 672q-30 69 -96 88l-24 8l6 35h594l-7 -35l-65 -8q-59 -7 -77 -24t1 -64l244 -601l450 596
q19 27 22.5 44t-9.5 27t-34 14.5t-58 7.5zM1296 1520l-268 127l-362 -127l-4 6l393 344h4l246 -342z" />
    <glyph glyph-name="ycircumflex" unicode="&#x177;" horiz-adv-x="1216" 
d="M991 1135q99 0 148 -65.5t49 -178.5q0 -140 -49 -293.5t-133 -293.5t-201 -267.5t-248 -221t-280 -149t-291 -55.5q-125 0 -201 48t-76 136q0 78 58 139q199 -176 442 -176q114 0 223 41l-121 1221q-66 -45 -142 -131t-146 -199l-23 17q114 206 237 321t234 115
q62 0 92 -38.5t37 -133.5l92 -996q132 130 208.5 303t76.5 353q0 270 -121 473q64 31 135 31zM1075 1225l-268 127l-365 -127l-4 6l393 344h5l247 -342z" />
    <glyph glyph-name="Ydieresis" unicode="&#x178;" horiz-adv-x="1357" 
d="M1151 1399l6 35h404l-7 -35l-43 -8q-54 -7 -90 -29t-69 -66l-494 -661l-102 -485q-11 -54 15.5 -77t88.5 -30l62 -8l-9 -35h-684l9 35l63 8q65 7 102 30t48 77l102 481l-281 672q-30 69 -96 88l-24 8l6 35h594l-7 -35l-65 -8q-59 -7 -77 -24t1 -64l244 -601l450 596
q19 27 22.5 44t-9.5 27t-34 14.5t-58 7.5zM805 1577q-64 0 -108 41.5t-44 103.5q0 65 44 107.5t108 42.5q66 0 108.5 -42t42.5 -108q0 -63 -42.5 -104t-108.5 -41zM1243 1577q-66 0 -108.5 41t-42.5 104q0 66 42.5 108t108.5 42t108 -42t42 -108q0 -63 -42 -104t-108 -41z
" />
    <glyph glyph-name="Zacute" unicode="&#x179;" horiz-adv-x="1265" 
d="M332 1434h1057l-5 -25l-1075 -1368h250q91 0 166.5 20.5t135 57t115.5 98t102 131.5t100 170h22l-192 -518h-1100l4 25l1092 1368h-252q-164 0 -292.5 -97t-269.5 -321l-22 2zM1386 1853v-4l-518 -329h-8l156 333h370z" />
    <glyph glyph-name="zacute" unicode="&#x17a;" horiz-adv-x="1017" 
d="M971 1139q43 0 68.5 -21.5t25.5 -56.5q0 -62 -82 -127l-639 -508l320 -313q135 82 280 319l25 -16q-240 -436 -457 -436q-80 0 -176 59t-225 186q-55 -70 -37 -235q-24 -8 -58 -8q-44 0 -72 22t-28 57q0 61 86 132l670 540l-287 279q-133 -85 -281 -322l-24 17
q247 436 457 436q79 0 164.5 -49.5t191.5 -153.5q40 85 22 188q22 11 56 11zM713 1225l153 334h373l-2 -5l-516 -329h-8z" />
    <glyph glyph-name="Zdotaccent" unicode="&#x17b;" horiz-adv-x="1265" 
d="M332 1434h1057l-5 -25l-1075 -1368h250q91 0 166.5 20.5t135 57t115.5 98t102 131.5t100 170h22l-192 -518h-1100l4 25l1092 1368h-252q-164 0 -292.5 -97t-269.5 -321l-22 2zM920 1573q-69 0 -114.5 43.5t-45.5 109.5q0 69 45.5 113.5t114.5 44.5t113 -44.5t44 -113.5
q0 -66 -44 -109.5t-113 -43.5z" />
    <glyph glyph-name="zdotaccent" unicode="&#x17c;" horiz-adv-x="1017" 
d="M971 1139q43 0 68.5 -21.5t25.5 -56.5q0 -62 -82 -127l-639 -508l320 -313q135 82 280 319l25 -16q-240 -436 -457 -436q-80 0 -176 59t-225 186q-55 -70 -37 -235q-24 -8 -58 -8q-44 0 -72 22t-28 57q0 61 86 132l670 540l-287 279q-133 -85 -281 -322l-24 17
q247 436 457 436q79 0 164.5 -49.5t191.5 -153.5q40 85 22 188q22 11 56 11zM764 1249q-69 0 -114.5 44t-45.5 110q0 69 45.5 113.5t114.5 44.5t114.5 -44.5t45.5 -113.5q0 -66 -45.5 -110t-114.5 -44z" />
    <glyph glyph-name="Zcaron" unicode="&#x17d;" horiz-adv-x="1265" 
d="M332 1434h1057l-5 -25l-1075 -1368h250q91 0 166.5 20.5t135 57t115.5 98t102 131.5t100 170h22l-192 -518h-1100l4 25l1092 1368h-252q-164 0 -292.5 -97t-269.5 -321l-22 2zM1268 1862l-394 -344h-4l-247 342l8 8l268 -127l365 127z" />
    <glyph glyph-name="zcaron" unicode="&#x17e;" horiz-adv-x="1017" 
d="M971 1139q43 0 68.5 -21.5t25.5 -56.5q0 -62 -82 -127l-639 -508l320 -313q135 82 280 319l25 -16q-240 -436 -457 -436q-80 0 -176 59t-225 186q-55 -70 -37 -235q-24 -8 -58 -8q-44 0 -72 22t-28 57q0 61 86 132l670 540l-287 279q-133 -85 -281 -322l-24 17
q247 436 457 436q79 0 164.5 -49.5t191.5 -153.5q40 85 22 188q22 11 56 11zM1122 1567l-393 -344h-4l-246 342l8 8l269 -127l362 127z" />
    <glyph glyph-name="florin" unicode="&#x192;" horiz-adv-x="1198" 
d="M1145 1454q57 0 99.5 -20t61 -52.5t19 -70t-25.5 -77.5t-74 -71q-33 84 -110.5 142.5t-147.5 58.5q-19 0 -43 -75.5t-68 -243.5t-80 -283h316l-11 -41h-319q-40 -119 -81.5 -216.5t-101.5 -198.5t-125.5 -170t-152.5 -112.5t-184 -43.5q-83 0 -129.5 39.5t-46.5 97.5
q0 41 24.5 81.5t73.5 71.5q34 -77 112 -138.5t142 -61.5q19 0 45.5 84t75.5 260.5t94 306.5h-295l10 41h299q251 692 623 692z" />
    <glyph glyph-name="Ohorn" unicode="&#x1a0;" horiz-adv-x="1464" 
d="M627 14q103 0 186 68q104 86 185.5 257t121 356.5t39.5 351.5q0 182 -66 277t-188 95q-96 0 -183 -68t-149 -178.5t-108.5 -246.5t-69 -275t-22.5 -262q0 -182 67 -278.5t187 -96.5zM907 1454q131 0 237 -45t177 -129q78 47 92 106q9 44 -19.5 85t-86.5 61q13 57 59 94
t98 37q60 0 89.5 -43.5t15.5 -106.5q-18 -76 -77 -144t-153 -114q109 -146 109 -362q0 -174 -64 -340t-172.5 -292.5t-262.5 -203.5t-324 -77q-245 0 -393 154t-148 407q0 176 64 342.5t172.5 292.5t262.5 202t324 76z" />
    <glyph glyph-name="ohorn" unicode="&#x1a1;" horiz-adv-x="1159" 
d="M459 14q80 0 155 92t124.5 226t79.5 278t30 254q0 119 -37.5 181.5t-110.5 62.5q-82 0 -157.5 -91.5t-124.5 -225t-78 -278t-29 -257.5q0 -117 38 -179.5t110 -62.5zM692 1143q115 0 204 -45.5t144 -128.5q87 50 101 110q9 44 -19.5 85t-87.5 61q13 57 59.5 94t98.5 37
q60 0 89 -43.5t15 -106.5q-17 -77 -79 -146t-160 -118q57 -105 57 -240q0 -138 -50.5 -269.5t-136 -231t-207 -160.5t-255.5 -61q-195 0 -307.5 121.5t-112.5 318.5q0 185 84 350.5t234.5 269t328.5 103.5z" />
    <glyph glyph-name="Uhorn" unicode="&#x1af;" horiz-adv-x="1454" 
d="M676 -20q-168 0 -295 65q-132 65 -188.5 188t-20.5 291l162 760q11 56 -10 78t-74 29l-51 8l8 35h635l-6 -35l-58 -8q-62 -7 -95 -29t-44 -78l-166 -784q-42 -198 51.5 -315t276.5 -117q164 0 259 109t140 317l168 790q11 56 -15 78t-89 29l-60 8l8 35h301l-6 -35
q-45 -12 -61.5 -33t-28.5 -82l-10 -49q81 35 125.5 71t54.5 80q9 44 -19.5 85t-86.5 61q13 57 59 94t98 37q60 0 89.5 -43.5t15.5 -106.5q-22 -97 -112 -179.5t-230 -125.5l-152 -714q-53 -251 -191.5 -382.5t-381.5 -131.5z" />
    <glyph glyph-name="uhorn" unicode="&#x1b0;" horiz-adv-x="1318" 
d="M1284 432l25 -16q-114 -207 -236.5 -321.5t-236.5 -114.5q-67 0 -98 46t-11 126l127 483q-129 -316 -280 -485.5t-310 -169.5q-92 0 -136 70t-15 181l209 793q-67 -47 -144.5 -134.5t-146.5 -199.5l-23 17q114 206 237 321t234 115q74 0 102 -48.5t3 -138.5l-181 -671
q-27 -107 52 -107t173.5 119t188.5 334q94 217 166 491h283l-52 -190q78 35 120 69.5t52 77.5q9 44 -19.5 85t-86.5 61q13 57 59.5 94t98.5 37q60 0 89 -43.5t15 -106.5q-22 -96 -110.5 -178t-223.5 -125l-215 -807q72 51 149 137.5t142 198.5z" />
    <glyph glyph-name="uni01CD" unicode="&#x1cd;" horiz-adv-x="1390" 
d="M807 541l-105 686l-368 -686h473zM1290 43l41 -8l-6 -35h-623l7 35l53 8q65 11 89 32t17 68l-55 357h-502l-190 -357q-27 -49 -11 -69.5t95 -30.5l69 -8l-8 -35h-399l6 35l43 8q60 11 91 32t56 68l695 1291h207l219 -1293q7 -46 30.5 -66.5t75.5 -31.5zM1272 1868l6 -6
l-393 -344h-4l-248 342l8 8l268 -127z" />
    <glyph glyph-name="uni01CE" unicode="&#x1ce;" horiz-adv-x="1259" 
d="M389 180q33 0 73 24.5t91.5 87t104.5 155.5t113.5 243.5t117.5 339.5q-70 76 -152 76q-119 0 -243 -203q-84 -138 -138.5 -306t-54.5 -288q0 -129 88 -129zM1227 432l22 -16q-114 -208 -235.5 -322t-235.5 -114q-69 0 -99 48t-5 138l172 637q-67 -188 -136 -332.5
t-132 -236.5t-128.5 -150t-123 -81t-117.5 -23q-106 0 -154.5 73t-48.5 193q0 123 39 252t112 243t168.5 205t218 144t251.5 53q115 0 231 -41l184 41h4l-278 -1043q67 44 143.5 130.5t147.5 201.5zM1237 1573l4 -6l-393 -344h-4l-246 342l8 8l268 -127z" />
    <glyph glyph-name="uni0218" unicode="&#x218;" horiz-adv-x="1093" 
d="M463 -20q-122 0 -242.5 38.5t-206.5 108.5l31 301h21q50 -175 177.5 -293.5t268.5 -118.5q102 0 171 73t69 173q0 64 -30.5 119t-78.5 96.5t-106.5 81.5t-117.5 84t-107 94t-78.5 122.5t-30.5 158.5q0 138 73 239t187 149t252 48q221 0 405 -121l-41 -301h-20
q-34 186 -134 286.5t-237 100.5q-116 0 -184 -67t-68 -172q0 -68 30.5 -125.5t79 -99.5t107 -82t117.5 -83.5t107.5 -92.5t79 -119.5t30.5 -155.5q0 -191 -151.5 -316.5t-372.5 -125.5zM160 -535l-4 19q74 23 110.5 62t36.5 81q0 81 -102 121q6 63 49 103t106 40
q59 0 98.5 -37t39.5 -98q0 -106 -95 -179.5t-239 -111.5z" />
    <glyph glyph-name="uni0219" unicode="&#x219;" horiz-adv-x="880" 
d="M295 -20q-152 0 -243 66.5t-91 158.5q0 54 34.5 100.5t100.5 65.5q27 -159 101 -248.5t188 -89.5q72 0 120 40t48 101q0 41 -22 82t-57 76.5t-77.5 72.5t-85.5 77.5t-78 83t-57 98t-22 114.5q0 154 116.5 259.5t302.5 105.5q155 0 236.5 -53.5t81.5 -128.5
q0 -53 -41 -101t-111 -72q2 74 -23.5 144.5t-80.5 120t-127 49.5q-73 0 -117.5 -45t-44.5 -113q0 -43 22.5 -85.5t59 -79.5t80 -75.5t87 -79.5t80 -84t59 -97t22.5 -111q0 -140 -126.5 -246t-334.5 -106zM31 -535l-4 19q74 23 110.5 62t36.5 81q0 81 -102 121q6 63 49 103
t106 40q59 0 98.5 -37t39.5 -98q0 -106 -95 -179.5t-239 -111.5z" />
    <glyph glyph-name="uni021A" unicode="&#x21a;" horiz-adv-x="1392" 
d="M115 971l164 463h1206l-31 -463l-24 -4q-20 208 -108 317t-216 109h-78l-264 -1243q-13 -53 23.5 -76.5t115.5 -30.5l78 -8l-6 -35h-791l6 35l80 8q84 6 130 29.5t57 77.5l266 1243h-82q-129 0 -261.5 -108t-244.5 -318zM532 -109q58 0 98 -37t40 -98q0 -55 -28 -103
t-76.5 -83.5t-106 -61t-125.5 -43.5l-4 19q74 23 111.5 62.5t37.5 80.5q0 81 -102 121q6 63 49 103t106 40z" />
    <glyph glyph-name="uni021B" unicode="&#x21b;" horiz-adv-x="737" 
d="M858 1122l-8 -41h-268l-271 -1028q191 92 373 379l25 -16q-121 -208 -248 -322t-246 -114q-89 0 -132.5 55.5t-12.5 175.5l231 870h-156l5 21l475 244h28l-61 -224h266zM125 -109q58 0 97.5 -37t39.5 -98q0 -55 -28 -103t-76.5 -83.5t-106 -61t-125.5 -43.5l-4 19
q74 23 112 62.5t38 80.5q0 36 -27.5 68.5t-75.5 52.5q6 63 49.5 103t106.5 40z" />
    <glyph glyph-name="uni0237" unicode="&#x237;" horiz-adv-x="616" 
d="M487 1143q68 0 99 -45t8 -127l-207 -781q-50 -190 -149 -315q-98 -128 -218.5 -196t-238.5 -68q-95 0 -149 37.5t-54 93.5q0 45 35.5 88.5t110.5 73.5q17 -106 63.5 -166t112.5 -60q46 0 74.5 65t86.5 275l265 1006q-68 -51 -144.5 -137.5t-144.5 -196.5l-23 17
q118 209 239 322.5t234 113.5z" />
    <glyph glyph-name="circumflex" unicode="&#x2c6;" 
d="M834 1575l247 -342l-8 -8l-268 127l-365 -127l-4 6l393 344h5z" />
    <glyph glyph-name="caron" unicode="&#x2c7;" 
d="M782 1446l363 127l6 -6l-393 -344h-4l-248 342l8 8z" />
    <glyph glyph-name="breve" unicode="&#x2d8;" 
d="M778 1249q-126 0 -199 89.5t-53 230.5h6q49 -133 265 -133q218 0 327 139h6q-37 -146 -128.5 -236t-223.5 -90z" />
    <glyph glyph-name="dotaccent" unicode="&#x2d9;" 
d="M795 1249q-69 0 -114.5 44t-45.5 110q0 69 45.5 113.5t114.5 44.5t113 -44.5t44 -113.5q0 -66 -44 -110t-113 -44z" />
    <glyph glyph-name="ring" unicode="&#x2da;" 
d="M784 1239q-83 0 -135.5 49.5t-52.5 132.5q0 91 63.5 153t157.5 62q85 0 137 -50t52 -134q0 -91 -63 -152t-159 -61zM791 1282q72 0 119.5 47.5t47.5 116.5q0 63 -42 104t-105 41q-71 0 -119.5 -49t-48.5 -119q0 -62 42 -101.5t106 -39.5z" />
    <glyph glyph-name="ogonek" unicode="&#x2db;" 
d="M209 -442q-64 0 -100.5 30.5t-36.5 79.5q0 78 93.5 154t326.5 196l8 -18q-117 -109 -160 -164t-43 -104q0 -28 19 -46t55 -18q45 0 94 29l4 -4q-51 -63 -121 -99t-139 -36z" />
    <glyph glyph-name="tilde" unicode="&#x2dc;" 
d="M901 1251q-44 0 -91.5 19t-81.5 42.5t-75 42.5t-73 19q-75 0 -140 -78l-12 2q99 256 256 256q66 0 119 -30q16 -9 51 -31t54 -32.5t48 -20.5t54 -10q85 0 141 81l10 -2q-40 -113 -107 -185.5t-153 -72.5z" />
    <glyph glyph-name="hungarumlaut" unicode="&#x2dd;" 
d="M600 1225h-8l151 334h289l-2 -5zM920 1225h-9l152 334h289l-2 -5z" />
    <glyph glyph-name="gravecomb" unicode="&#x300;" 
d="M803 1225h-10l-377 329v5h366z" />
    <glyph glyph-name="acutecomb" unicode="&#x301;" 
d="M895 1559h373l-2 -5l-516 -329h-9z" />
    <glyph glyph-name="uni0302" unicode="&#x302;" 
d="M834 1575l247 -342l-8 -8l-268 127l-365 -127l-4 6l393 344h5z" />
    <glyph glyph-name="tildecomb" unicode="&#x303;" 
d="M901 1251q-44 0 -91.5 19t-81.5 42.5t-75 42.5t-73 19q-75 0 -140 -78l-12 2q99 256 256 256q66 0 119 -30q16 -9 51 -31t54 -32.5t48 -20.5t54 -10q85 0 141 81l10 -2q-40 -113 -107 -185.5t-153 -72.5z" />
    <glyph glyph-name="uni0306" unicode="&#x306;" 
d="M778 1249q-126 0 -199 89.5t-53 230.5h6q49 -133 265 -133q218 0 327 139h6q-37 -146 -128.5 -236t-223.5 -90z" />
    <glyph glyph-name="hookabovecomb" unicode="&#x309;" horiz-adv-x="714" 
d="M311 1731q123 0 181 -56t40 -139q-15 -73 -96.5 -139.5t-210.5 -89.5l-32 -80h-13l8 192q222 51 248 187q5 23 -9.5 42t-49.5 19q-72 0 -232 -104q-17 50 -10 79q8 41 54 65t122 24z" />
    <glyph glyph-name="uni031B" unicode="&#x31b;" horiz-adv-x="677" 
d="M193 901l-3 23q89 37 136 73.5t57 81.5q9 44 -19.5 85t-87.5 61q13 57 59.5 94t98.5 37q60 0 89.5 -43.5t15.5 -106.5q-22 -98 -113.5 -180.5t-232.5 -124.5z" />
    <glyph glyph-name="dotbelowcomb" unicode="&#x323;" horiz-adv-x="620" 
d="M293 -451q-64 0 -107 42t-43 104q0 63 43 105t107 42q65 0 108 -42t43 -105q0 -62 -43.5 -104t-107.5 -42z" />
    <glyph glyph-name="Wgrave" unicode="&#x1e80;" horiz-adv-x="2078" 
d="M1841 1399l6 35h408l-8 -35l-43 -8q-49 -7 -83 -28.5t-61 -74.5l-641 -1288h-192l-127 1141l-516 -1141h-203l-129 1288q-4 52 -21 74t-45 29l-26 8l8 35h569l-8 -35l-57 -8q-58 -6 -83 -27.5t-24 -75.5l72 -1046l539 1192h204l107 -1201l522 1055q27 53 2 74.5t-98 28.5
zM1346 1853l18 -333h-8l-377 329v4h367z" />
    <glyph glyph-name="wgrave" unicode="&#x1e81;" horiz-adv-x="1755" 
d="M1571 1137q93 0 139.5 -61.5t46.5 -164.5q0 -83 -29.5 -184.5t-82 -205t-130 -201t-167.5 -173t-201.5 -121.5t-224.5 -46q-102 0 -139.5 66.5t-10.5 170.5l113 426q-129 -319 -281 -491t-311 -172q-93 0 -138 70t-16 181l209 791q-65 -44 -142 -131.5t-147 -200.5
l-24 17q117 207 239.5 321.5t233.5 114.5q69 0 100 -45t8 -127l-184 -686q-27 -107 49 -107q79 0 174 121q96 122 190.5 337t166.5 486h280l-252 -934q-14 -57 -2 -80.5t58 -23.5q37 0 96.5 25.5t127 70.5t132.5 121.5t102 165.5q35 84 40 180.5t-29 216t-109 244.5
q56 29 115 29zM1165 1559l19 -334h-8l-379 329l2 5h366z" />
    <glyph glyph-name="Wacute" unicode="&#x1e82;" horiz-adv-x="2078" 
d="M1841 1399l6 35h408l-8 -35l-43 -8q-49 -7 -83 -28.5t-61 -74.5l-641 -1288h-192l-127 1141l-516 -1141h-203l-129 1288q-4 52 -21 74t-45 29l-26 8l8 35h569l-8 -35l-57 -8q-58 -6 -83 -27.5t-24 -75.5l72 -1046l539 1192h204l107 -1201l522 1055q27 53 2 74.5t-98 28.5
zM1862 1853l-2 -4l-517 -329h-8l154 333h373z" />
    <glyph glyph-name="wacute" unicode="&#x1e83;" horiz-adv-x="1755" 
d="M1571 1137q93 0 139.5 -61.5t46.5 -164.5q0 -83 -29.5 -184.5t-82 -205t-130 -201t-167.5 -173t-201.5 -121.5t-224.5 -46q-102 0 -139.5 66.5t-10.5 170.5l113 426q-129 -319 -281 -491t-311 -172q-93 0 -138 70t-16 181l209 791q-65 -44 -142 -131.5t-147 -200.5
l-24 17q117 207 239.5 321.5t233.5 114.5q69 0 100 -45t8 -127l-184 -686q-27 -107 49 -107q79 0 174 121q96 122 190.5 337t166.5 486h280l-252 -934q-14 -57 -2 -80.5t58 -23.5q37 0 96.5 25.5t127 70.5t132.5 121.5t102 165.5q35 84 40 180.5t-29 216t-109 244.5
q56 29 115 29zM1649 1559v-5l-519 -329h-8l156 334h371z" />
    <glyph glyph-name="Wdieresis" unicode="&#x1e84;" horiz-adv-x="2078" 
d="M1841 1399l6 35h408l-8 -35l-43 -8q-49 -7 -83 -28.5t-61 -74.5l-641 -1288h-192l-127 1141l-516 -1141h-203l-129 1288q-4 52 -21 74t-45 29l-26 8l8 35h569l-8 -35l-57 -8q-58 -6 -83 -27.5t-24 -75.5l72 -1046l539 1192h204l107 -1201l522 1055q27 53 2 74.5t-98 28.5
zM1174 1577q-64 0 -108 41.5t-44 103.5q0 65 44 107.5t108 42.5q66 0 108.5 -42t42.5 -108q0 -63 -42.5 -104t-108.5 -41zM1612 1577q-66 0 -109 41t-43 104q0 66 43 108t109 42t107.5 -42t41.5 -108q0 -63 -41.5 -104t-107.5 -41z" />
    <glyph glyph-name="wdieresis" unicode="&#x1e85;" horiz-adv-x="1755" 
d="M1571 1137q93 0 139.5 -61.5t46.5 -164.5q0 -83 -29.5 -184.5t-82 -205t-130 -201t-167.5 -173t-201.5 -121.5t-224.5 -46q-102 0 -139.5 66.5t-10.5 170.5l113 426q-129 -319 -281 -491t-311 -172q-93 0 -138 70t-16 181l209 791q-65 -44 -142 -131.5t-147 -200.5
l-24 17q117 207 239.5 321.5t233.5 114.5q69 0 100 -45t8 -127l-184 -686q-27 -107 49 -107q79 0 174 121q96 122 190.5 337t166.5 486h280l-252 -934q-14 -57 -2 -80.5t58 -23.5q37 0 96.5 25.5t127 70.5t132.5 121.5t102 165.5q35 84 40 180.5t-29 216t-109 244.5
q56 29 115 29zM1395 1262q-64 0 -108 41.5t-44 103.5q0 65 44 107t108 42q66 0 108.5 -41.5t42.5 -107.5q0 -63 -42.5 -104t-108.5 -41zM958 1262q-66 0 -108.5 41t-42.5 104q0 66 42.5 107.5t108.5 41.5t108 -41.5t42 -107.5q0 -63 -42 -104t-108 -41z" />
    <glyph glyph-name="Germandbls" unicode="&#x1e9e;" horiz-adv-x="1503" 
d="M1462 1255l6 -12q-60 -37 -100.5 -68.5t-78 -72.5t-56.5 -89t-19 -104t21.5 -109t52 -97t60.5 -90t51.5 -106t21.5 -126q0 -172 -133 -286.5t-332 -114.5q-79 0 -180 23t-176 65l31 225h20q41 -125 130.5 -204t189.5 -79q91 0 145.5 56.5t54.5 148.5q0 48 -19 96t-46 91
t-54 87.5t-46 102t-19 117.5q0 231 289 440q-64 118 -163.5 191t-203.5 73q-121 0 -205.5 -101.5t-123.5 -287.5l-185 -874q-11 -50 7.5 -73.5t80.5 -35.5l33 -6l-8 -35h-596l6 35l49 8q61 12 86 34t37 73l154 724q26 123 86.5 229t148 184t205.5 122.5t252 44.5
q143 0 284 -55.5t242 -143.5z" />
    <glyph glyph-name="uni1EA0" unicode="&#x1ea0;" horiz-adv-x="1390" 
d="M807 541l-105 686l-368 -686h473zM1290 43l41 -8l-6 -35h-623l7 35l53 8q65 11 89 32t17 68l-55 357h-502l-190 -357q-27 -49 -11 -69.5t95 -30.5l69 -8l-8 -35h-399l6 35l43 8q60 11 91 32t56 68l695 1291h207l219 -1293q7 -46 30.5 -66.5t75.5 -31.5zM498 -430
q-64 0 -107 41.5t-43 103.5q0 63 43 105.5t107 42.5t107.5 -42.5t43.5 -105.5q0 -62 -43.5 -103.5t-107.5 -41.5z" />
    <glyph glyph-name="uni1EA1" unicode="&#x1ea1;" horiz-adv-x="1259" 
d="M389 180q33 0 73 24.5t91.5 87t104.5 155.5t113.5 243.5t117.5 339.5q-70 76 -152 76q-119 0 -243 -203q-84 -138 -138.5 -306t-54.5 -288q0 -129 88 -129zM1227 432l22 -16q-114 -208 -235.5 -322t-235.5 -114q-69 0 -99 48t-5 138l172 637q-67 -188 -136 -332.5
t-132 -236.5t-128.5 -150t-123 -81t-117.5 -23q-106 0 -154.5 73t-48.5 193q0 123 39 252t112 243t168.5 205t218 144t251.5 53q115 0 231 -41l184 41h4l-278 -1043q67 44 143.5 130.5t147.5 201.5zM436 -451q-64 0 -106.5 42t-42.5 104q0 63 42.5 105t106.5 42
q65 0 108.5 -42t43.5 -105q0 -62 -44 -104t-108 -42z" />
    <glyph glyph-name="uni1EA2" unicode="&#x1ea2;" horiz-adv-x="1390" 
d="M807 541l-105 686l-368 -686h473zM1290 43l41 -8l-6 -35h-623l7 35l53 8q65 11 89 32t17 68l-55 357h-502l-190 -357q-27 -49 -11 -69.5t95 -30.5l69 -8l-8 -35h-399l6 35l43 8q60 11 91 32t56 68l695 1291h207l219 -1293q7 -46 30.5 -66.5t75.5 -31.5zM1001 2025
q123 0 181.5 -55.5t40.5 -138.5q-15 -73 -97 -139.5t-211 -89.5l-32 -80h-13l9 192q221 51 247 187q5 23 -9.5 42t-49.5 19q-71 0 -231 -104q-18 51 -11 79q8 41 53.5 64.5t122.5 23.5z" />
    <glyph glyph-name="uni1EA3" unicode="&#x1ea3;" horiz-adv-x="1259" 
d="M389 180q33 0 73 24.5t91.5 87t104.5 155.5t113.5 243.5t117.5 339.5q-70 76 -152 76q-119 0 -243 -203q-84 -138 -138.5 -306t-54.5 -288q0 -129 88 -129zM1227 432l22 -16q-114 -208 -235.5 -322t-235.5 -114q-69 0 -99 48t-5 138l172 637q-67 -188 -136 -332.5
t-132 -236.5t-128.5 -150t-123 -81t-117.5 -23q-106 0 -154.5 73t-48.5 193q0 123 39 252t112 243t168.5 205t218 144t251.5 53q115 0 231 -41l184 41h4l-278 -1043q67 44 143.5 130.5t147.5 201.5zM995 1731q123 0 181.5 -56t40.5 -139q-15 -73 -97 -139.5t-211 -89.5
l-32 -80h-13l8 192q222 51 248 187q5 23 -9.5 42t-49.5 19q-72 0 -232 -104q-17 50 -10 79q8 41 54 65t122 24z" />
    <glyph glyph-name="uni1EA4" unicode="&#x1ea4;" horiz-adv-x="1390" 
d="M807 541l-105 686l-368 -686h473zM1290 43l41 -8l-6 -35h-623l7 35l53 8q65 11 89 32t17 68l-55 357h-502l-190 -357q-27 -49 -11 -69.5t95 -30.5l69 -8l-8 -35h-399l6 35l43 8q60 11 91 32t56 68l695 1291h207l219 -1293q7 -46 30.5 -66.5t75.5 -31.5zM1208 1528l-8 -8
l-268 127l-363 -127l-4 6l393 344h5zM1155 1722l156 334h370v-4l-518 -330h-8z" />
    <glyph glyph-name="uni1EA5" unicode="&#x1ea5;" horiz-adv-x="1259" 
d="M389 180q33 0 73 24.5t91.5 87t104.5 155.5t113.5 243.5t117.5 339.5q-70 76 -152 76q-119 0 -243 -203q-84 -138 -138.5 -306t-54.5 -288q0 -129 88 -129zM1227 432l22 -16q-114 -208 -235.5 -322t-235.5 -114q-69 0 -99 48t-5 138l172 637q-67 -188 -136 -332.5
t-132 -236.5t-128.5 -150t-123 -81t-117.5 -23q-106 0 -154.5 73t-48.5 193q0 123 39 252t112 243t168.5 205t218 144t251.5 53q115 0 231 -41l184 41h4l-278 -1043q67 44 143.5 130.5t147.5 201.5zM1171 1233l-8 -8l-268 127l-363 -127l-4 6l394 344h4zM1118 1427l156 334
h371v-4l-519 -330h-8z" />
    <glyph glyph-name="uni1EA6" unicode="&#x1ea6;" horiz-adv-x="1390" 
d="M807 541l-105 686l-368 -686h473zM1290 43l41 -8l-6 -35h-623l7 35l53 8q65 11 89 32t17 68l-55 357h-502l-190 -357q-27 -49 -11 -69.5t95 -30.5l69 -8l-8 -35h-399l6 35l43 8q60 11 91 32t56 68l695 1291h207l219 -1293q7 -46 30.5 -66.5t75.5 -31.5zM1208 1528l-8 -8
l-268 127l-363 -127l-4 6l393 344h5zM1292 2056l21 -334h-10l-377 330v4h366z" />
    <glyph glyph-name="uni1EA7" unicode="&#x1ea7;" horiz-adv-x="1259" 
d="M389 180q33 0 73 24.5t91.5 87t104.5 155.5t113.5 243.5t117.5 339.5q-70 76 -152 76q-119 0 -243 -203q-84 -138 -138.5 -306t-54.5 -288q0 -129 88 -129zM1227 432l22 -16q-114 -208 -235.5 -322t-235.5 -114q-69 0 -99 48t-5 138l172 637q-67 -188 -136 -332.5
t-132 -236.5t-128.5 -150t-123 -81t-117.5 -23q-106 0 -154.5 73t-48.5 193q0 123 39 252t112 243t168.5 205t218 144t251.5 53q115 0 231 -41l184 41h4l-278 -1043q67 44 143.5 130.5t147.5 201.5zM1171 1233l-8 -8l-268 127l-363 -127l-4 6l394 344h4zM1255 1761l21 -334
h-10l-377 330v4h366z" />
    <glyph glyph-name="uni1EA8" unicode="&#x1ea8;" horiz-adv-x="1390" 
d="M807 541l-105 686l-368 -686h473zM1290 43l41 -8l-6 -35h-623l7 35l53 8q65 11 89 32t17 68l-55 357h-502l-190 -357q-27 -49 -11 -69.5t95 -30.5l69 -8l-8 -35h-399l6 35l43 8q60 11 91 32t56 68l695 1291h207l219 -1293q7 -46 30.5 -66.5t75.5 -31.5zM1208 1528l-8 -8
l-268 127l-363 -127l-4 6l393 344h5zM1319 2226q123 0 181 -55.5t40 -138.5q-15 -73 -96.5 -140t-210.5 -90l-33 -80h-12l8 193q222 51 248 186q5 23 -10 42.5t-50 19.5q-69 0 -231 -105q-17 50 -10 80q8 41 53.5 64.5t122.5 23.5z" />
    <glyph glyph-name="uni1EA9" unicode="&#x1ea9;" horiz-adv-x="1259" 
d="M389 180q33 0 73 24.5t91.5 87t104.5 155.5t113.5 243.5t117.5 339.5q-70 76 -152 76q-119 0 -243 -203q-84 -138 -138.5 -306t-54.5 -288q0 -129 88 -129zM1227 432l22 -16q-114 -208 -235.5 -322t-235.5 -114q-69 0 -99 48t-5 138l172 637q-67 -188 -136 -332.5
t-132 -236.5t-128.5 -150t-123 -81t-117.5 -23q-106 0 -154.5 73t-48.5 193q0 123 39 252t112 243t168.5 205t218 144t251.5 53q115 0 231 -41l184 41h4l-278 -1043q67 44 143.5 130.5t147.5 201.5zM1171 1233l-8 -8l-268 127l-363 -127l-4 6l394 344h4zM1282 1931
q123 0 181 -55.5t40 -138.5q-15 -73 -96.5 -140t-210.5 -90l-33 -80h-12l8 193q222 51 248 186q5 23 -9.5 42.5t-49.5 19.5q-70 0 -232 -105q-17 50 -10 80q8 41 53.5 64.5t122.5 23.5z" />
    <glyph glyph-name="uni1EAA" unicode="&#x1eaa;" horiz-adv-x="1390" 
d="M807 541l-105 686l-368 -686h473zM1290 43l41 -8l-6 -35h-623l7 35l53 8q65 11 89 32t17 68l-55 357h-502l-190 -357q-27 -49 -11 -69.5t95 -30.5l69 -8l-8 -35h-399l6 35l43 8q60 11 91 32t56 68l695 1291h207l219 -1293q7 -46 30.5 -66.5t75.5 -31.5zM1208 1528l-8 -8
l-268 127l-363 -127l-4 6l393 344h5zM791 2054q-77 0 -142 -78l-10 2q99 256 256 256q67 0 119 -30q17 -10 51.5 -31.5t54 -32.5t47.5 -21t52 -10q85 0 141 82l10 -2q-38 -113 -105.5 -185.5t-154.5 -72.5q-43 0 -89.5 19t-81 42.5t-75.5 42.5t-73 19z" />
    <glyph glyph-name="uni1EAB" unicode="&#x1eab;" horiz-adv-x="1259" 
d="M389 180q33 0 73 24.5t91.5 87t104.5 155.5t113.5 243.5t117.5 339.5q-70 76 -152 76q-119 0 -243 -203q-84 -138 -138.5 -306t-54.5 -288q0 -129 88 -129zM1227 432l22 -16q-114 -208 -235.5 -322t-235.5 -114q-69 0 -99 48t-5 138l172 637q-67 -188 -136 -332.5
t-132 -236.5t-128.5 -150t-123 -81t-117.5 -23q-106 0 -154.5 73t-48.5 193q0 123 39 252t112 243t168.5 205t218 144t251.5 53q115 0 231 -41l184 41h4l-278 -1043q67 44 143.5 130.5t147.5 201.5zM1171 1233l-8 -8l-268 127l-363 -127l-4 6l394 344h4zM754 1759
q-77 0 -142 -78l-10 2q99 256 256 256q66 0 119 -30q16 -9 51 -31t54.5 -32.5t47.5 -20.5t52 -10q85 0 141 81l10 -2q-38 -113 -105.5 -185.5t-154.5 -72.5q-43 0 -89.5 19t-81 42.5t-75.5 42.5t-73 19z" />
    <glyph glyph-name="uni1EAC" unicode="&#x1eac;" horiz-adv-x="1390" 
d="M807 541l-105 686l-368 -686h473zM1290 43l41 -8l-6 -35h-623l7 35l53 8q65 11 89 32t17 68l-55 357h-502l-190 -357q-27 -49 -11 -69.5t95 -30.5l69 -8l-8 -35h-399l6 35l43 8q60 11 91 32t56 68l695 1291h207l219 -1293q7 -46 30.5 -66.5t75.5 -31.5zM1208 1528l-8 -8
l-268 127l-363 -127l-4 6l393 344h5zM498 -430q-64 0 -107 41.5t-43 103.5q0 63 43 105.5t107 42.5t107.5 -42.5t43.5 -105.5q0 -62 -43.5 -103.5t-107.5 -41.5z" />
    <glyph glyph-name="uni1EAD" unicode="&#x1ead;" horiz-adv-x="1259" 
d="M389 180q33 0 73 24.5t91.5 87t104.5 155.5t113.5 243.5t117.5 339.5q-70 76 -152 76q-119 0 -243 -203q-84 -138 -138.5 -306t-54.5 -288q0 -129 88 -129zM1227 432l22 -16q-114 -208 -235.5 -322t-235.5 -114q-69 0 -99 48t-5 138l172 637q-67 -188 -136 -332.5
t-132 -236.5t-128.5 -150t-123 -81t-117.5 -23q-106 0 -154.5 73t-48.5 193q0 123 39 252t112 243t168.5 205t218 144t251.5 53q115 0 231 -41l184 41h4l-278 -1043q67 44 143.5 130.5t147.5 201.5zM1171 1233l-8 -8l-268 127l-363 -127l-4 6l394 344h4zM436 -451
q-64 0 -106.5 42t-42.5 104q0 63 42.5 105t106.5 42q65 0 108.5 -42t43.5 -105q0 -62 -44 -104t-108 -42z" />
    <glyph glyph-name="uni1EAE" unicode="&#x1eae;" horiz-adv-x="1390" 
d="M807 541l-105 686l-368 -686h473zM1290 43l41 -8l-6 -35h-623l7 35l53 8q65 11 89 32t17 68l-55 357h-502l-190 -357q-27 -49 -11 -69.5t95 -30.5l69 -8l-8 -35h-399l6 35l43 8q60 11 91 32t56 68l695 1291h207l219 -1293q7 -46 30.5 -66.5t75.5 -31.5zM903 1540
q-126 0 -199.5 89t-52.5 231h6q49 -134 267 -134q214 0 327 140h4q-37 -146 -128.5 -236t-223.5 -90zM870 1825l156 334h371v-5l-518 -329h-9z" />
    <glyph glyph-name="uni1EAF" unicode="&#x1eaf;" horiz-adv-x="1259" 
d="M389 180q33 0 73 24.5t91.5 87t104.5 155.5t113.5 243.5t117.5 339.5q-70 76 -152 76q-119 0 -243 -203q-84 -138 -138.5 -306t-54.5 -288q0 -129 88 -129zM1227 432l22 -16q-114 -208 -235.5 -322t-235.5 -114q-69 0 -99 48t-5 138l172 637q-67 -188 -136 -332.5
t-132 -236.5t-128.5 -150t-123 -81t-117.5 -23q-106 0 -154.5 73t-48.5 193q0 123 39 252t112 243t168.5 205t218 144t251.5 53q115 0 231 -41l184 41h4l-278 -1043q67 44 143.5 130.5t147.5 201.5zM868 1249q-126 0 -198.5 89t-51.5 231h5q49 -133 266 -133q215 0 328 139
h6q-38 -146 -130.5 -236t-224.5 -90zM838 1534l155 334h371v-4l-518 -330h-8z" />
    <glyph glyph-name="uni1EB0" unicode="&#x1eb0;" horiz-adv-x="1390" 
d="M807 541l-105 686l-368 -686h473zM1290 43l41 -8l-6 -35h-623l7 35l53 8q65 11 89 32t17 68l-55 357h-502l-190 -357q-27 -49 -11 -69.5t95 -30.5l69 -8l-8 -35h-399l6 35l43 8q60 11 91 32t56 68l695 1291h207l219 -1293q7 -46 30.5 -66.5t75.5 -31.5zM985 2159l21 -334
h-11l-377 329v5h367zM903 1540q-126 0 -199.5 89t-52.5 231h6q49 -134 267 -134q214 0 327 140h4q-37 -146 -128.5 -236t-223.5 -90z" />
    <glyph glyph-name="uni1EB1" unicode="&#x1eb1;" horiz-adv-x="1259" 
d="M389 180q33 0 73 24.5t91.5 87t104.5 155.5t113.5 243.5t117.5 339.5q-70 76 -152 76q-119 0 -243 -203q-84 -138 -138.5 -306t-54.5 -288q0 -129 88 -129zM1227 432l22 -16q-114 -208 -235.5 -322t-235.5 -114q-69 0 -99 48t-5 138l172 637q-67 -188 -136 -332.5
t-132 -236.5t-128.5 -150t-123 -81t-117.5 -23q-106 0 -154.5 73t-48.5 193q0 123 39 252t112 243t168.5 205t218 144t251.5 53q115 0 231 -41l184 41h4l-278 -1043q67 44 143.5 130.5t147.5 201.5zM952 1868l21 -334h-10l-377 330v4h366zM868 1249q-126 0 -198.5 89
t-51.5 231h5q49 -133 266 -133q215 0 328 139h6q-38 -146 -130.5 -236t-224.5 -90z" />
    <glyph glyph-name="uni1EB2" unicode="&#x1eb2;" horiz-adv-x="1390" 
d="M807 541l-105 686l-368 -686h473zM1290 43l41 -8l-6 -35h-623l7 35l53 8q65 11 89 32t17 68l-55 357h-502l-190 -357q-27 -49 -11 -69.5t95 -30.5l69 -8l-8 -35h-399l6 35l43 8q60 11 91 32t56 68l695 1291h207l219 -1293q7 -46 30.5 -66.5t75.5 -31.5zM903 1540
q-126 0 -199.5 89t-52.5 231h6q49 -134 267 -134q214 0 327 140h4q-37 -146 -128.5 -236t-223.5 -90zM1049 2329q123 0 181 -56t40 -139q-15 -73 -96.5 -139.5t-210.5 -89.5l-33 -80h-12l8 192q222 51 248 187q5 23 -10 42t-50 19q-71 0 -231 -104q-18 52 -11 80
q8 41 54 64.5t123 23.5z" />
    <glyph glyph-name="uni1EB3" unicode="&#x1eb3;" horiz-adv-x="1259" 
d="M389 180q33 0 73 24.5t91.5 87t104.5 155.5t113.5 243.5t117.5 339.5q-70 76 -152 76q-119 0 -243 -203q-84 -138 -138.5 -306t-54.5 -288q0 -129 88 -129zM1227 432l22 -16q-114 -208 -235.5 -322t-235.5 -114q-69 0 -99 48t-5 138l172 637q-67 -188 -136 -332.5
t-132 -236.5t-128.5 -150t-123 -81t-117.5 -23q-106 0 -154.5 73t-48.5 193q0 123 39 252t112 243t168.5 205t218 144t251.5 53q115 0 231 -41l184 41h4l-278 -1043q67 44 143.5 130.5t147.5 201.5zM868 1249q-126 0 -198.5 89t-51.5 231h5q49 -133 266 -133q215 0 328 139
h6q-38 -146 -130.5 -236t-224.5 -90zM1016 2038q123 0 181 -56t40 -139q-15 -73 -96.5 -139.5t-210.5 -89.5l-33 -80h-12l8 192q222 51 248 187q5 23 -10 42t-50 19q-71 0 -231 -104q-17 50 -10 80q8 41 53.5 64.5t122.5 23.5z" />
    <glyph glyph-name="uni1EB4" unicode="&#x1eb4;" horiz-adv-x="1390" 
d="M807 541l-105 686l-368 -686h473zM1290 43l41 -8l-6 -35h-623l7 35l53 8q65 11 89 32t17 68l-55 357h-502l-190 -357q-27 -49 -11 -69.5t95 -30.5l69 -8l-8 -35h-399l6 35l43 8q60 11 91 32t56 68l695 1291h207l219 -1293q7 -46 30.5 -66.5t75.5 -31.5zM903 1540
q-126 0 -199.5 89t-52.5 231h6q49 -134 267 -134q214 0 327 140h4q-37 -146 -128.5 -236t-223.5 -90zM799 2030q-77 0 -142 -78l-10 2q99 256 256 256q65 0 119 -31q16 -9 51 -31t54.5 -32.5t47.5 -20.5t52 -10q85 0 141 82l10 -2q-38 -113 -105.5 -185.5t-154.5 -72.5
q-43 0 -89.5 19t-81 42.5t-75.5 42.5t-73 19z" />
    <glyph glyph-name="uni1EB5" unicode="&#x1eb5;" horiz-adv-x="1259" 
d="M389 180q33 0 73 24.5t91.5 87t104.5 155.5t113.5 243.5t117.5 339.5q-70 76 -152 76q-119 0 -243 -203q-84 -138 -138.5 -306t-54.5 -288q0 -129 88 -129zM1227 432l22 -16q-114 -208 -235.5 -322t-235.5 -114q-69 0 -99 48t-5 138l172 637q-67 -188 -136 -332.5
t-132 -236.5t-128.5 -150t-123 -81t-117.5 -23q-106 0 -154.5 73t-48.5 193q0 123 39 252t112 243t168.5 205t218 144t251.5 53q115 0 231 -41l184 41h4l-278 -1043q67 44 143.5 130.5t147.5 201.5zM868 1249q-126 0 -198.5 89t-51.5 231h5q49 -133 266 -133q215 0 328 139
h6q-38 -146 -130.5 -236t-224.5 -90zM766 1739q-76 0 -141 -78l-11 2q99 256 256 256q65 0 119 -31q16 -9 51 -31t54.5 -32.5t47.5 -20.5t52 -10q85 0 141 82l11 -2q-38 -113 -106 -185.5t-155 -72.5q-43 0 -89.5 19t-81 42.5t-75.5 42.5t-73 19z" />
    <glyph glyph-name="uni1EB6" unicode="&#x1eb6;" horiz-adv-x="1390" 
d="M807 541l-105 686l-368 -686h473zM1290 43l41 -8l-6 -35h-623l7 35l53 8q65 11 89 32t17 68l-55 357h-502l-190 -357q-27 -49 -11 -69.5t95 -30.5l69 -8l-8 -35h-399l6 35l43 8q60 11 91 32t56 68l695 1291h207l219 -1293q7 -46 30.5 -66.5t75.5 -31.5zM903 1540
q-126 0 -199.5 89t-52.5 231h6q49 -134 267 -134q214 0 327 140h4q-37 -146 -128.5 -236t-223.5 -90zM498 -430q-64 0 -107 41.5t-43 103.5q0 63 43 105.5t107 42.5t107.5 -42.5t43.5 -105.5q0 -62 -43.5 -103.5t-107.5 -41.5z" />
    <glyph glyph-name="uni1EB7" unicode="&#x1eb7;" horiz-adv-x="1259" 
d="M389 180q33 0 73 24.5t91.5 87t104.5 155.5t113.5 243.5t117.5 339.5q-70 76 -152 76q-119 0 -243 -203q-84 -138 -138.5 -306t-54.5 -288q0 -129 88 -129zM1227 432l22 -16q-114 -208 -235.5 -322t-235.5 -114q-69 0 -99 48t-5 138l172 637q-67 -188 -136 -332.5
t-132 -236.5t-128.5 -150t-123 -81t-117.5 -23q-106 0 -154.5 73t-48.5 193q0 123 39 252t112 243t168.5 205t218 144t251.5 53q115 0 231 -41l184 41h4l-278 -1043q67 44 143.5 130.5t147.5 201.5zM868 1249q-126 0 -198.5 89t-51.5 231h5q49 -133 266 -133q215 0 328 139
h6q-38 -146 -130.5 -236t-224.5 -90zM436 -451q-64 0 -106.5 42t-42.5 104q0 63 42.5 105t106.5 42q65 0 108.5 -42t43.5 -105q0 -62 -44 -104t-108 -42z" />
    <glyph glyph-name="uni1EB8" unicode="&#x1eb8;" horiz-adv-x="1280" 
d="M559 -430q-64 0 -106.5 41.5t-42.5 103.5q0 63 42.5 105.5t106.5 42.5q65 0 108.5 -42.5t43.5 -105.5q0 -62 -44 -103.5t-108 -41.5zM221 1399l6 35h1049l-23 -447l-24 -6q-10 86 -34 156.5t-66.5 130t-110 92.5t-154.5 33h-166l-139 -645h127q88 0 148.5 59.5
t121.5 208.5h21l-123 -578h-20q10 149 -24.5 209t-131.5 60h-127l-141 -666h184q104 0 186 20t158 68t140 131.5t120 206.5h23l-162 -467h-1135l6 35l62 8q61 8 92.5 29.5t44.5 77.5l240 1134q12 56 -10 77t-78 30z" />
    <glyph glyph-name="uni1EB9" unicode="&#x1eb9;" horiz-adv-x="964" 
d="M674 1102q-76 0 -151 -80.5t-127 -201.5t-74 -251q114 32 202 85t137 112t73 115.5t24 107.5q0 52 -22 82.5t-62 30.5zM506 150q93 0 194.5 75.5t178.5 206.5l22 -16q-99 -207 -241 -321.5t-306 -114.5q-156 0 -238.5 102.5t-82.5 277.5q0 111 32.5 224t93.5 212.5
t143 177.5t188.5 123.5t220.5 45.5q129 0 201.5 -54t72.5 -135q0 -77 -70 -159q-72 -91 -224 -157.5t-376 -96.5q-6 -55 -6 -105q0 -131 52 -208.5t145 -77.5zM334 -451q-64 0 -107 42t-43 104q0 63 43 105t107 42q65 0 108 -42t43 -105q0 -62 -43.5 -104t-107.5 -42z" />
    <glyph glyph-name="uni1EBA" unicode="&#x1eba;" horiz-adv-x="1280" 
d="M981 2025q123 0 181 -55.5t40 -138.5q-15 -73 -96.5 -139.5t-210.5 -89.5l-33 -80h-12l8 192q222 51 248 187q5 23 -9.5 42t-49.5 19q-72 0 -232 -104q-17 50 -10 79q8 41 53.5 64.5t122.5 23.5zM221 1399l6 35h1049l-23 -447l-24 -6q-10 86 -34 156.5t-66.5 130
t-110 92.5t-154.5 33h-166l-139 -645h127q88 0 148.5 59.5t121.5 208.5h21l-123 -578h-20q10 149 -24.5 209t-131.5 60h-127l-141 -666h184q104 0 186 20t158 68t140 131.5t120 206.5h23l-162 -467h-1135l6 35l62 8q61 8 92.5 29.5t44.5 77.5l240 1134q12 56 -10 77t-78 30z
" />
    <glyph glyph-name="uni1EBB" unicode="&#x1ebb;" horiz-adv-x="964" 
d="M674 1102q-76 0 -151 -80.5t-127 -201.5t-74 -251q114 32 202 85t137 112t73 115.5t24 107.5q0 52 -22 82.5t-62 30.5zM506 150q93 0 194.5 75.5t178.5 206.5l22 -16q-99 -207 -241 -321.5t-306 -114.5q-156 0 -238.5 102.5t-82.5 277.5q0 111 32.5 224t93.5 212.5
t143 177.5t188.5 123.5t220.5 45.5q129 0 201.5 -54t72.5 -135q0 -77 -70 -159q-72 -91 -224 -157.5t-376 -96.5q-6 -55 -6 -105q0 -131 52 -208.5t145 -77.5zM829 1731q123 0 181.5 -56t40.5 -139q-15 -73 -97 -139.5t-211 -89.5l-32 -80h-13l9 192q221 51 247 187
q5 23 -9.5 42t-49.5 19q-71 0 -231 -104q-18 51 -11 79q8 41 54 65t122 24z" />
    <glyph glyph-name="uni1EBC" unicode="&#x1ebc;" horiz-adv-x="1280" 
d="M690 1645q-76 0 -141 -78l-10 2q99 256 256 256q64 0 118 -31q16 -9 51 -31t54.5 -32.5t47.5 -20.5t52 -10q86 0 142 82l10 -2q-38 -113 -105.5 -185.5t-154.5 -72.5q-43 0 -90 19t-81 42.5t-75.5 42.5t-73.5 19zM221 1399l6 35h1049l-23 -447l-24 -6q-10 86 -34 156.5
t-66.5 130t-110 92.5t-154.5 33h-166l-139 -645h127q88 0 148.5 59.5t121.5 208.5h21l-123 -578h-20q10 149 -24.5 209t-131.5 60h-127l-141 -666h184q104 0 186 20t158 68t140 131.5t120 206.5h23l-162 -467h-1135l6 35l62 8q61 8 92.5 29.5t44.5 77.5l240 1134
q12 56 -10 77t-78 30z" />
    <glyph glyph-name="uni1EBD" unicode="&#x1ebd;" horiz-adv-x="964" 
d="M674 1102q-76 0 -151 -80.5t-127 -201.5t-74 -251q114 32 202 85t137 112t73 115.5t24 107.5q0 52 -22 82.5t-62 30.5zM506 150q93 0 194.5 75.5t178.5 206.5l22 -16q-99 -207 -241 -321.5t-306 -114.5q-156 0 -238.5 102.5t-82.5 277.5q0 111 32.5 224t93.5 212.5
t143 177.5t188.5 123.5t220.5 45.5q129 0 201.5 -54t72.5 -135q0 -77 -70 -159q-72 -91 -224 -157.5t-376 -96.5q-6 -55 -6 -105q0 -131 52 -208.5t145 -77.5zM848 1251q-44 0 -91.5 19t-82 42.5t-75.5 42.5t-73 19q-74 0 -139 -78l-12 2q99 256 256 256q67 0 119 -30
q17 -10 51 -31t53.5 -32t48 -21t53.5 -10q86 0 142 81l10 -2q-40 -113 -107 -185.5t-153 -72.5z" />
    <glyph glyph-name="uni1EBE" unicode="&#x1ebe;" horiz-adv-x="1280" 
d="M1284 2056h371v-4l-518 -330h-9zM221 1399l6 35h1049l-23 -447l-24 -6q-10 86 -34 156.5t-66.5 130t-110 92.5t-154.5 33h-166l-139 -645h127q88 0 148.5 59.5t121.5 208.5h21l-123 -578h-20q10 149 -24.5 209t-131.5 60h-127l-141 -666h184q104 0 186 20t158 68
t140 131.5t120 206.5h23l-162 -467h-1135l6 35l62 8q61 8 92.5 29.5t44.5 77.5l240 1134q12 56 -10 77t-78 30zM1174 1520l-269 127l-362 -127l-4 6l393 344h4l246 -342z" />
    <glyph glyph-name="uni1EBF" unicode="&#x1ebf;" horiz-adv-x="964" 
d="M674 1102q-76 0 -151 -80.5t-127 -201.5t-74 -251q114 32 202 85t137 112t73 115.5t24 107.5q0 52 -22 82.5t-62 30.5zM985 954q0 -77 -70 -159q-72 -91 -224 -157.5t-376 -96.5q-6 -55 -6 -105q0 -131 52 -208.5t145 -77.5t194.5 75.5t178.5 206.5l22 -16
q-99 -207 -241 -321.5t-306 -114.5q-156 0 -238.5 102.5t-82.5 277.5q0 111 32.5 224t93.5 212.5t143 177.5t188.5 123.5t220.5 45.5q129 0 201.5 -54t72.5 -135zM389 1231l395 344h4l246 -342l-8 -8l-268 127l-363 -127zM981 1427l156 334h370v-4l-518 -330h-8z" />
    <glyph glyph-name="uni1EC0" unicode="&#x1ec0;" horiz-adv-x="1280" 
d="M1286 1722h-10l-377 330v4h367zM221 1399l6 35h1049l-23 -447l-24 -6q-10 86 -34 156.5t-66.5 130t-110 92.5t-154.5 33h-166l-139 -645h127q88 0 148.5 59.5t121.5 208.5h21l-123 -578h-20q10 149 -24.5 209t-131.5 60h-127l-141 -666h184q104 0 186 20t158 68
t140 131.5t120 206.5h23l-162 -467h-1135l6 35l62 8q61 8 92.5 29.5t44.5 77.5l240 1134q12 56 -10 77t-78 30zM1174 1520l-269 127l-362 -127l-4 6l393 344h4l246 -342z" />
    <glyph glyph-name="uni1EC1" unicode="&#x1ec1;" horiz-adv-x="964" 
d="M674 1102q-76 0 -151 -80.5t-127 -201.5t-74 -251q114 32 202 85t137 112t73 115.5t24 107.5q0 52 -22 82.5t-62 30.5zM985 954q0 -77 -70 -159q-72 -91 -224 -157.5t-376 -96.5q-6 -55 -6 -105q0 -131 52 -208.5t145 -77.5t194.5 75.5t178.5 206.5l22 -16
q-99 -207 -241 -321.5t-306 -114.5q-156 0 -238.5 102.5t-82.5 277.5q0 111 32.5 224t93.5 212.5t143 177.5t188.5 123.5t220.5 45.5q129 0 201.5 -54t72.5 -135zM389 1231l395 344h4l246 -342l-8 -8l-268 127l-363 -127zM1118 1761l21 -334h-11l-376 330v4h366z" />
    <glyph glyph-name="uni1EC2" unicode="&#x1ec2;" horiz-adv-x="1280" 
d="M1292 2226q123 0 181 -55.5t40 -138.5q-15 -73 -96.5 -140t-210.5 -90l-32 -80h-13l8 193q222 51 248 186q5 23 -9.5 42.5t-49.5 19.5q-70 0 -232 -105q-17 50 -10 80q8 41 53.5 64.5t122.5 23.5zM221 1399l6 35h1049l-23 -447l-24 -6q-10 86 -34 156.5t-66.5 130
t-110 92.5t-154.5 33h-166l-139 -645h127q88 0 148.5 59.5t121.5 208.5h21l-123 -578h-20q10 149 -24.5 209t-131.5 60h-127l-141 -666h184q104 0 186 20t158 68t140 131.5t120 206.5h23l-162 -467h-1135l6 35l62 8q61 8 92.5 29.5t44.5 77.5l240 1134q12 56 -10 77t-78 30z
M1174 1520l-269 127l-362 -127l-4 6l393 344h4l246 -342z" />
    <glyph glyph-name="uni1EC3" unicode="&#x1ec3;" horiz-adv-x="964" 
d="M674 1102q-76 0 -151 -80.5t-127 -201.5t-74 -251q114 32 202 85t137 112t73 115.5t24 107.5q0 52 -22 82.5t-62 30.5zM985 954q0 -77 -70 -159q-72 -91 -224 -157.5t-376 -96.5q-6 -55 -6 -105q0 -131 52 -208.5t145 -77.5t194.5 75.5t178.5 206.5l22 -16
q-99 -207 -241 -321.5t-306 -114.5q-156 0 -238.5 102.5t-82.5 277.5q0 111 32.5 224t93.5 212.5t143 177.5t188.5 123.5t220.5 45.5q129 0 201.5 -54t72.5 -135zM389 1231l395 344h4l246 -342l-8 -8l-268 127l-363 -127zM1145 1931q123 0 181 -55.5t40 -138.5
q-15 -73 -96.5 -140t-210.5 -90l-33 -80h-12l8 193q222 51 248 186q5 23 -10 42.5t-50 19.5q-69 0 -231 -105q-17 50 -10 80q8 41 53.5 64.5t122.5 23.5z" />
    <glyph glyph-name="uni1EC4" unicode="&#x1ec4;" horiz-adv-x="1280" 
d="M764 2054q-76 0 -141 -78l-11 2q99 256 256 256q66 0 119 -30q17 -10 51.5 -31.5t54 -32.5t47.5 -21t52 -10q85 0 141 82l10 -2q-38 -113 -105.5 -185.5t-154.5 -72.5q-43 0 -89.5 19t-81 42.5t-75.5 42.5t-73 19zM221 1399l6 35h1049l-23 -447l-24 -6q-10 86 -34 156.5
t-66.5 130t-110 92.5t-154.5 33h-166l-139 -645h127q88 0 148.5 59.5t121.5 208.5h21l-123 -578h-20q10 149 -24.5 209t-131.5 60h-127l-141 -666h184q104 0 186 20t158 68t140 131.5t120 206.5h23l-162 -467h-1135l6 35l62 8q61 8 92.5 29.5t44.5 77.5l240 1134
q12 56 -10 77t-78 30zM1174 1520l-269 127l-362 -127l-4 6l393 344h4l246 -342z" />
    <glyph glyph-name="uni1EC5" unicode="&#x1ec5;" horiz-adv-x="964" 
d="M674 1102q-76 0 -151 -80.5t-127 -201.5t-74 -251q114 32 202 85t137 112t73 115.5t24 107.5q0 52 -22 82.5t-62 30.5zM985 954q0 -77 -70 -159q-72 -91 -224 -157.5t-376 -96.5q-6 -55 -6 -105q0 -131 52 -208.5t145 -77.5t194.5 75.5t178.5 206.5l22 -16
q-99 -207 -241 -321.5t-306 -114.5q-156 0 -238.5 102.5t-82.5 277.5q0 111 32.5 224t93.5 212.5t143 177.5t188.5 123.5t220.5 45.5q129 0 201.5 -54t72.5 -135zM389 1231l395 344h4l246 -342l-8 -8l-268 127l-363 -127zM616 1759q-76 0 -141 -78l-10 2q99 256 256 256
q67 0 119 -30q17 -10 51.5 -31t53.5 -32t47 -21t52 -10q86 0 142 81l10 -2q-38 -113 -105.5 -185.5t-154.5 -72.5q-43 0 -90 19t-81 42.5t-75.5 42.5t-73.5 19z" />
    <glyph glyph-name="uni1EC6" unicode="&#x1ec6;" horiz-adv-x="1280" 
d="M559 -430q-64 0 -106.5 41.5t-42.5 103.5q0 63 42.5 105.5t106.5 42.5q65 0 108.5 -42.5t43.5 -105.5q0 -62 -44 -103.5t-108 -41.5zM221 1399l6 35h1049l-23 -447l-24 -6q-10 86 -34 156.5t-66.5 130t-110 92.5t-154.5 33h-166l-139 -645h127q88 0 148.5 59.5
t121.5 208.5h21l-123 -578h-20q10 149 -24.5 209t-131.5 60h-127l-141 -666h184q104 0 186 20t158 68t140 131.5t120 206.5h23l-162 -467h-1135l6 35l62 8q61 8 92.5 29.5t44.5 77.5l240 1134q12 56 -10 77t-78 30zM1174 1520l-269 127l-362 -127l-4 6l393 344h4l246 -342z
" />
    <glyph glyph-name="uni1EC7" unicode="&#x1ec7;" horiz-adv-x="964" 
d="M674 1102q-76 0 -151 -80.5t-127 -201.5t-74 -251q114 32 202 85t137 112t73 115.5t24 107.5q0 52 -22 82.5t-62 30.5zM985 954q0 -77 -70 -159q-72 -91 -224 -157.5t-376 -96.5q-6 -55 -6 -105q0 -131 52 -208.5t145 -77.5t194.5 75.5t178.5 206.5l22 -16
q-99 -207 -241 -321.5t-306 -114.5q-156 0 -238.5 102.5t-82.5 277.5q0 111 32.5 224t93.5 212.5t143 177.5t188.5 123.5t220.5 45.5q129 0 201.5 -54t72.5 -135zM389 1231l395 344h4l246 -342l-8 -8l-268 127l-363 -127zM334 -451q-64 0 -107 42t-43 104q0 63 43 105
t107 42q65 0 108 -42t43 -105q0 -62 -43.5 -104t-107.5 -42z" />
    <glyph glyph-name="uni1EC8" unicode="&#x1ec8;" horiz-adv-x="737" 
d="M676 2025q123 0 181 -55.5t40 -138.5q-15 -73 -96.5 -139.5t-210.5 -89.5l-33 -80h-12l8 192q222 51 248 187q5 23 -10 42t-50 19q-71 0 -231 -104q-17 50 -10 79q8 41 53.5 64.5t122.5 23.5zM575 0h-651l6 35l60 8q59 7 92.5 30t46.5 77l240 1134q13 56 -11.5 78
t-81.5 29l-55 8l6 35h652l-9 -35l-57 -8q-61 -7 -94.5 -29t-44.5 -78l-242 -1134q-11 -53 13.5 -76.5t80.5 -30.5l56 -8z" />
    <glyph glyph-name="uni1EC9" unicode="&#x1ec9;" horiz-adv-x="688" 
d="M629 1731q123 0 181 -56t40 -139q-15 -73 -96.5 -139.5t-210.5 -89.5l-33 -80h-12l8 192q222 51 248 187q5 23 -10 42t-50 19q-71 0 -231 -104q-17 50 -10 79q8 41 54 65t122 24zM651 432l23 -16q-114 -208 -235.5 -322t-235.5 -114q-68 0 -100 46.5t-9 125.5l232 872
q-66 -46 -143 -133.5t-146 -200.5l-23 17q114 206 237 321t234 115q69 0 100 -45t9 -127l-232 -873q159 114 289 334z" />
    <glyph glyph-name="uni1ECA" unicode="&#x1eca;" horiz-adv-x="737" 
d="M203 -430q-64 0 -107 41.5t-43 103.5q0 63 43 105.5t107 42.5t107.5 -42.5t43.5 -105.5q0 -62 -43.5 -103.5t-107.5 -41.5zM575 0h-651l6 35l60 8q59 7 92.5 30t46.5 77l240 1134q13 56 -11.5 78t-81.5 29l-55 8l6 35h652l-9 -35l-57 -8q-61 -7 -94.5 -29t-44.5 -78
l-242 -1134q-11 -53 13.5 -76.5t80.5 -30.5l56 -8z" />
    <glyph glyph-name="uni1ECB" unicode="&#x1ecb;" horiz-adv-x="688" 
d="M211 -451q-64 0 -107 42t-43 104q0 63 43 105t107 42q65 0 108 -42t43 -105q0 -62 -43.5 -104t-107.5 -42zM594 971l-232 -873q159 114 289 334l23 -16q-114 -208 -235.5 -322t-235.5 -114q-68 0 -100 46.5t-9 125.5l232 872q-66 -46 -143 -133.5t-146 -200.5l-23 17
q114 206 237 321t234 115q69 0 100 -45t9 -127zM545 1249q-69 0 -114.5 44t-45.5 110q0 69 45.5 113.5t114.5 44.5t114.5 -44.5t45.5 -113.5q0 -66 -45.5 -110t-114.5 -44z" />
    <glyph glyph-name="uni1ECC" unicode="&#x1ecc;" horiz-adv-x="1464" 
d="M627 14q103 0 186 68q104 86 185.5 257t121 356.5t39.5 351.5q0 182 -66 277t-188 95q-96 0 -183 -68t-149 -178.5t-108.5 -246.5t-69 -275t-22.5 -262q0 -182 67 -278.5t187 -96.5zM907 1454q248 0 394.5 -152.5t146.5 -408.5q0 -174 -64 -340t-172.5 -292.5
t-262.5 -203.5t-324 -77q-245 0 -393 154t-148 407q0 176 64 342.5t172.5 292.5t262.5 202t324 76zM539 -451q-64 0 -107 42t-43 104q0 63 43 105t107 42q65 0 108 -42t43 -105q0 -62 -43.5 -104t-107.5 -42z" />
    <glyph glyph-name="uni1ECD" unicode="&#x1ecd;" horiz-adv-x="1159" 
d="M459 14q80 0 155 92t124.5 226t79.5 278t30 254q0 119 -37.5 181.5t-110.5 62.5q-82 0 -157.5 -91.5t-124.5 -225t-78 -278t-29 -257.5q0 -117 38 -179.5t110 -62.5zM692 1143q192 0 307 -121.5t115 -319.5q0 -138 -50.5 -269.5t-136 -231t-207 -160.5t-255.5 -61
q-195 0 -307.5 121.5t-112.5 318.5q0 185 84 350.5t234.5 269t328.5 103.5zM375 -451q-64 0 -107 42t-43 104q0 63 43 105t107 42q65 0 108 -42t43 -105q0 -62 -43.5 -104t-107.5 -42z" />
    <glyph glyph-name="uni1ECE" unicode="&#x1ece;" horiz-adv-x="1464" 
d="M627 14q103 0 186 68q104 86 185.5 257t121 356.5t39.5 351.5q0 182 -66 277t-188 95q-96 0 -183 -68t-149 -178.5t-108.5 -246.5t-69 -275t-22.5 -262q0 -182 67 -278.5t187 -96.5zM907 1454q248 0 394.5 -152.5t146.5 -408.5q0 -174 -64 -340t-172.5 -292.5
t-262.5 -203.5t-324 -77q-245 0 -393 154t-148 407q0 176 64 342.5t172.5 292.5t262.5 202t324 76zM1085 2025q123 0 181.5 -55.5t40.5 -138.5q-15 -73 -97 -139.5t-211 -89.5l-32 -80h-13l9 192q221 51 247 187q5 23 -9.5 42t-49.5 19q-71 0 -231 -104q-18 51 -11 79
q8 41 53.5 64.5t122.5 23.5z" />
    <glyph glyph-name="uni1ECF" unicode="&#x1ecf;" horiz-adv-x="1159" 
d="M459 14q80 0 155 92t124.5 226t79.5 278t30 254q0 119 -37.5 181.5t-110.5 62.5q-82 0 -157.5 -91.5t-124.5 -225t-78 -278t-29 -257.5q0 -117 38 -179.5t110 -62.5zM692 1143q192 0 307 -121.5t115 -319.5q0 -138 -50.5 -269.5t-136 -231t-207 -160.5t-255.5 -61
q-195 0 -307.5 121.5t-112.5 318.5q0 185 84 350.5t234.5 269t328.5 103.5zM885 1731q123 0 181 -56t40 -139q-15 -73 -96.5 -139.5t-210.5 -89.5l-33 -80h-12l8 192q222 51 248 187q5 23 -10 42t-50 19q-71 0 -231 -104q-17 50 -10 79q8 41 54 65t122 24z" />
    <glyph glyph-name="uni1ED0" unicode="&#x1ed0;" horiz-adv-x="1464" 
d="M627 14q103 0 186 68q104 86 185.5 257t121 356.5t39.5 351.5q0 182 -66 277t-188 95q-96 0 -183 -68t-149 -178.5t-108.5 -246.5t-69 -275t-22.5 -262q0 -182 67 -278.5t187 -96.5zM907 1454q248 0 394.5 -152.5t146.5 -408.5q0 -174 -64 -340t-172.5 -292.5
t-262.5 -203.5t-324 -77q-245 0 -393 154t-148 407q0 176 64 342.5t172.5 292.5t262.5 202t324 76zM1264 1528l-9 -8l-268 127l-362 -127l-4 6l393 344h4zM1210 1722l156 334h371v-4l-518 -330h-9z" />
    <glyph glyph-name="uni1ED1" unicode="&#x1ed1;" horiz-adv-x="1159" 
d="M459 14q80 0 155 92t124.5 226t79.5 278t30 254q0 119 -37.5 181.5t-110.5 62.5q-82 0 -157.5 -91.5t-124.5 -225t-78 -278t-29 -257.5q0 -117 38 -179.5t110 -62.5zM692 1143q192 0 307 -121.5t115 -319.5q0 -138 -50.5 -269.5t-136 -231t-207 -160.5t-255.5 -61
q-195 0 -307.5 121.5t-112.5 318.5q0 185 84 350.5t234.5 269t328.5 103.5zM1051 1233l-9 -8l-268 127l-362 -127l-6 6l393 344h4zM995 1427l156 334h371v-4l-518 -330h-9z" />
    <glyph glyph-name="uni1ED2" unicode="&#x1ed2;" horiz-adv-x="1464" 
d="M627 14q103 0 186 68q104 86 185.5 257t121 356.5t39.5 351.5q0 182 -66 277t-188 95q-96 0 -183 -68t-149 -178.5t-108.5 -246.5t-69 -275t-22.5 -262q0 -182 67 -278.5t187 -96.5zM907 1454q248 0 394.5 -152.5t146.5 -408.5q0 -174 -64 -340t-172.5 -292.5
t-262.5 -203.5t-324 -77q-245 0 -393 154t-148 407q0 176 64 342.5t172.5 292.5t262.5 202t324 76zM1264 1528l-9 -8l-268 127l-362 -127l-4 6l393 344h4zM1348 2056l20 -334h-10l-377 330v4h367z" />
    <glyph glyph-name="uni1ED3" unicode="&#x1ed3;" horiz-adv-x="1159" 
d="M459 14q80 0 155 92t124.5 226t79.5 278t30 254q0 119 -37.5 181.5t-110.5 62.5q-82 0 -157.5 -91.5t-124.5 -225t-78 -278t-29 -257.5q0 -117 38 -179.5t110 -62.5zM692 1143q192 0 307 -121.5t115 -319.5q0 -138 -50.5 -269.5t-136 -231t-207 -160.5t-255.5 -61
q-195 0 -307.5 121.5t-112.5 318.5q0 185 84 350.5t234.5 269t328.5 103.5zM1051 1233l-9 -8l-268 127l-362 -127l-6 6l393 344h4zM1133 1761l20 -334h-10l-377 330v4h367z" />
    <glyph glyph-name="uni1ED4" unicode="&#x1ed4;" horiz-adv-x="1464" 
d="M627 14q103 0 186 68q104 86 185.5 257t121 356.5t39.5 351.5q0 182 -66 277t-188 95q-96 0 -183 -68t-149 -178.5t-108.5 -246.5t-69 -275t-22.5 -262q0 -182 67 -278.5t187 -96.5zM907 1454q248 0 394.5 -152.5t146.5 -408.5q0 -174 -64 -340t-172.5 -292.5
t-262.5 -203.5t-324 -77q-245 0 -393 154t-148 407q0 176 64 342.5t172.5 292.5t262.5 202t324 76zM1264 1528l-9 -8l-268 127l-362 -127l-4 6l393 344h4zM1374 2226q123 0 181 -55.5t40 -138.5q-15 -73 -96.5 -140t-210.5 -90l-33 -80h-12l8 193q222 51 248 186
q5 23 -9.5 42.5t-49.5 19.5q-70 0 -232 -105q-17 50 -10 80q8 41 53.5 64.5t122.5 23.5z" />
    <glyph glyph-name="uni1ED5" unicode="&#x1ed5;" horiz-adv-x="1159" 
d="M459 14q80 0 155 92t124.5 226t79.5 278t30 254q0 119 -37.5 181.5t-110.5 62.5q-82 0 -157.5 -91.5t-124.5 -225t-78 -278t-29 -257.5q0 -117 38 -179.5t110 -62.5zM692 1143q192 0 307 -121.5t115 -319.5q0 -138 -50.5 -269.5t-136 -231t-207 -160.5t-255.5 -61
q-195 0 -307.5 121.5t-112.5 318.5q0 185 84 350.5t234.5 269t328.5 103.5zM1051 1233l-9 -8l-268 127l-362 -127l-6 6l393 344h4zM1159 1931q123 0 181 -55.5t40 -138.5q-15 -73 -96.5 -140t-210.5 -90l-33 -80h-12l8 193q222 51 248 186q5 23 -9.5 42.5t-49.5 19.5
q-70 0 -232 -105q-17 50 -10 80q8 41 53.5 64.5t122.5 23.5z" />
    <glyph glyph-name="uni1ED6" unicode="&#x1ed6;" horiz-adv-x="1464" 
d="M627 14q103 0 186 68q104 86 185.5 257t121 356.5t39.5 351.5q0 182 -66 277t-188 95q-96 0 -183 -68t-149 -178.5t-108.5 -246.5t-69 -275t-22.5 -262q0 -182 67 -278.5t187 -96.5zM907 1454q248 0 394.5 -152.5t146.5 -408.5q0 -174 -64 -340t-172.5 -292.5
t-262.5 -203.5t-324 -77q-245 0 -393 154t-148 407q0 176 64 342.5t172.5 292.5t262.5 202t324 76zM1264 1528l-9 -8l-268 127l-362 -127l-4 6l393 344h4zM846 2054q-76 0 -141 -78l-11 2q99 256 256 256q66 0 119 -30q17 -10 51.5 -31.5t54 -32.5t47.5 -21t52 -10
q85 0 141 82l10 -2q-38 -113 -105.5 -185.5t-154.5 -72.5q-43 0 -89.5 19t-81 42.5t-75.5 42.5t-73 19z" />
    <glyph glyph-name="uni1ED7" unicode="&#x1ed7;" horiz-adv-x="1159" 
d="M459 14q80 0 155 92t124.5 226t79.5 278t30 254q0 119 -37.5 181.5t-110.5 62.5q-82 0 -157.5 -91.5t-124.5 -225t-78 -278t-29 -257.5q0 -117 38 -179.5t110 -62.5zM692 1143q192 0 307 -121.5t115 -319.5q0 -138 -50.5 -269.5t-136 -231t-207 -160.5t-255.5 -61
q-195 0 -307.5 121.5t-112.5 318.5q0 185 84 350.5t234.5 269t328.5 103.5zM1051 1233l-9 -8l-268 127l-362 -127l-6 6l393 344h4zM631 1759q-77 0 -142 -78l-10 2q99 256 256 256q67 0 119 -30q16 -9 51 -31t54.5 -32.5t47.5 -20.5t52 -10q85 0 141 81l10 -2
q-38 -113 -105.5 -185.5t-154.5 -72.5q-43 0 -89.5 19t-81 42.5t-75.5 42.5t-73 19z" />
    <glyph glyph-name="uni1ED8" unicode="&#x1ed8;" horiz-adv-x="1464" 
d="M627 14q103 0 186 68q104 86 185.5 257t121 356.5t39.5 351.5q0 182 -66 277t-188 95q-96 0 -183 -68t-149 -178.5t-108.5 -246.5t-69 -275t-22.5 -262q0 -182 67 -278.5t187 -96.5zM907 1454q248 0 394.5 -152.5t146.5 -408.5q0 -174 -64 -340t-172.5 -292.5
t-262.5 -203.5t-324 -77q-245 0 -393 154t-148 407q0 176 64 342.5t172.5 292.5t262.5 202t324 76zM1264 1528l-9 -8l-268 127l-362 -127l-4 6l393 344h4zM539 -451q-64 0 -107 42t-43 104q0 63 43 105t107 42q65 0 108 -42t43 -105q0 -62 -43.5 -104t-107.5 -42z" />
    <glyph glyph-name="uni1ED9" unicode="&#x1ed9;" horiz-adv-x="1159" 
d="M459 14q80 0 155 92t124.5 226t79.5 278t30 254q0 119 -37.5 181.5t-110.5 62.5q-82 0 -157.5 -91.5t-124.5 -225t-78 -278t-29 -257.5q0 -117 38 -179.5t110 -62.5zM692 1143q192 0 307 -121.5t115 -319.5q0 -138 -50.5 -269.5t-136 -231t-207 -160.5t-255.5 -61
q-195 0 -307.5 121.5t-112.5 318.5q0 185 84 350.5t234.5 269t328.5 103.5zM1051 1233l-9 -8l-268 127l-362 -127l-6 6l393 344h4zM375 -451q-64 0 -107 42t-43 104q0 63 43 105t107 42q65 0 108 -42t43 -105q0 -62 -43.5 -104t-107.5 -42z" />
    <glyph glyph-name="uni1EDA" unicode="&#x1eda;" horiz-adv-x="1464" 
d="M627 14q103 0 186 68q104 86 185.5 257t121 356.5t39.5 351.5q0 182 -66 277t-188 95q-96 0 -183 -68t-149 -178.5t-108.5 -246.5t-69 -275t-22.5 -262q0 -182 67 -278.5t187 -96.5zM907 1454q131 0 237 -45t177 -129q78 47 92 106q9 44 -19.5 85t-86.5 61q13 57 59 94
t98 37q60 0 89.5 -43.5t15.5 -106.5q-18 -76 -77 -144t-153 -114q109 -146 109 -362q0 -174 -64 -340t-172.5 -292.5t-262.5 -203.5t-324 -77q-245 0 -393 154t-148 407q0 176 64 342.5t172.5 292.5t262.5 202t324 76zM905 1520l156 333h371v-4l-519 -329h-8z" />
    <glyph glyph-name="uni1EDB" unicode="&#x1edb;" horiz-adv-x="1159" 
d="M459 14q80 0 155 92t124.5 226t79.5 278t30 254q0 119 -37.5 181.5t-110.5 62.5q-82 0 -157.5 -91.5t-124.5 -225t-78 -278t-29 -257.5q0 -117 38 -179.5t110 -62.5zM692 1143q115 0 204 -45.5t144 -128.5q87 50 101 110q9 44 -19.5 85t-87.5 61q13 57 59.5 94t98.5 37
q60 0 89 -43.5t15 -106.5q-17 -77 -79 -146t-160 -118q57 -105 57 -240q0 -138 -50.5 -269.5t-136 -231t-207 -160.5t-255.5 -61q-195 0 -307.5 121.5t-112.5 318.5q0 185 84 350.5t234.5 269t328.5 103.5zM709 1225l155 334h371v-5l-516 -329h-10z" />
    <glyph glyph-name="uni1EDC" unicode="&#x1edc;" horiz-adv-x="1464" 
d="M627 14q103 0 186 68q104 86 185.5 257t121 356.5t39.5 351.5q0 182 -66 277t-188 95q-96 0 -183 -68t-149 -178.5t-108.5 -246.5t-69 -275t-22.5 -262q0 -182 67 -278.5t187 -96.5zM907 1454q131 0 237 -45t177 -129q78 47 92 106q9 44 -19.5 85t-86.5 61q13 57 59 94
t98 37q60 0 89.5 -43.5t15.5 -106.5q-18 -76 -77 -144t-153 -114q109 -146 109 -362q0 -174 -64 -340t-172.5 -292.5t-262.5 -203.5t-324 -77q-245 0 -393 154t-148 407q0 176 64 342.5t172.5 292.5t262.5 202t324 76zM977 1853l18 -333h-8l-377 329v4h367z" />
    <glyph glyph-name="uni1EDD" unicode="&#x1edd;" horiz-adv-x="1159" 
d="M459 14q80 0 155 92t124.5 226t79.5 278t30 254q0 119 -37.5 181.5t-110.5 62.5q-82 0 -157.5 -91.5t-124.5 -225t-78 -278t-29 -257.5q0 -117 38 -179.5t110 -62.5zM692 1143q115 0 204 -45.5t144 -128.5q87 50 101 110q9 44 -19.5 85t-87.5 61q13 57 59.5 94t98.5 37
q60 0 89 -43.5t15 -106.5q-17 -77 -79 -146t-160 -118q57 -105 57 -240q0 -138 -50.5 -269.5t-136 -231t-207 -160.5t-255.5 -61q-195 0 -307.5 121.5t-112.5 318.5q0 185 84 350.5t234.5 269t328.5 103.5zM752 1559l18 -334h-8l-377 329v5h367z" />
    <glyph glyph-name="uni1EDE" unicode="&#x1ede;" horiz-adv-x="1464" 
d="M627 14q103 0 186 68q104 86 185.5 257t121 356.5t39.5 351.5q0 182 -66 277t-188 95q-96 0 -183 -68t-149 -178.5t-108.5 -246.5t-69 -275t-22.5 -262q0 -182 67 -278.5t187 -96.5zM907 1454q131 0 237 -45t177 -129q78 47 92 106q9 44 -19.5 85t-86.5 61q13 57 59 94
t98 37q60 0 89.5 -43.5t15.5 -106.5q-18 -76 -77 -144t-153 -114q109 -146 109 -362q0 -174 -64 -340t-172.5 -292.5t-262.5 -203.5t-324 -77q-245 0 -393 154t-148 407q0 176 64 342.5t172.5 292.5t262.5 202t324 76zM1085 2025q123 0 181.5 -55.5t40.5 -138.5
q-15 -73 -97 -139.5t-211 -89.5l-32 -80h-13l9 192q221 51 247 187q5 23 -9.5 42t-49.5 19q-71 0 -231 -104q-18 51 -11 79q8 41 53.5 64.5t122.5 23.5z" />
    <glyph glyph-name="uni1EDF" unicode="&#x1edf;" horiz-adv-x="1159" 
d="M459 14q80 0 155 92t124.5 226t79.5 278t30 254q0 119 -37.5 181.5t-110.5 62.5q-82 0 -157.5 -91.5t-124.5 -225t-78 -278t-29 -257.5q0 -117 38 -179.5t110 -62.5zM692 1143q115 0 204 -45.5t144 -128.5q87 50 101 110q9 44 -19.5 85t-87.5 61q13 57 59.5 94t98.5 37
q60 0 89 -43.5t15 -106.5q-17 -77 -79 -146t-160 -118q57 -105 57 -240q0 -138 -50.5 -269.5t-136 -231t-207 -160.5t-255.5 -61q-195 0 -307.5 121.5t-112.5 318.5q0 185 84 350.5t234.5 269t328.5 103.5zM885 1731q123 0 181 -56t40 -139q-15 -73 -96.5 -139.5
t-210.5 -89.5l-33 -80h-12l8 192q222 51 248 187q5 23 -10 42t-50 19q-71 0 -231 -104q-17 50 -10 79q8 41 54 65t122 24z" />
    <glyph glyph-name="uni1EE0" unicode="&#x1ee0;" horiz-adv-x="1464" 
d="M627 14q103 0 186 68q104 86 185.5 257t121 356.5t39.5 351.5q0 182 -66 277t-188 95q-96 0 -183 -68t-149 -178.5t-108.5 -246.5t-69 -275t-22.5 -262q0 -182 67 -278.5t187 -96.5zM907 1454q131 0 237 -45t177 -129q78 47 92 106q9 44 -19.5 85t-86.5 61q13 57 59 94
t98 37q60 0 89.5 -43.5t15.5 -106.5q-18 -76 -77 -144t-153 -114q109 -146 109 -362q0 -174 -64 -340t-172.5 -292.5t-262.5 -203.5t-324 -77q-245 0 -393 154t-148 407q0 176 64 342.5t172.5 292.5t262.5 202t324 76zM1081 1522q-44 0 -91.5 19t-81.5 42.5t-75 42.5t-73 19
q-74 0 -139 -78l-13 2q99 256 256 256q65 0 119 -31q16 -9 51 -31t54 -32.5t48 -20.5t54 -10q85 0 141 82l10 -2q-40 -113 -107 -185.5t-153 -72.5z" />
    <glyph glyph-name="uni1EE1" unicode="&#x1ee1;" horiz-adv-x="1159" 
d="M459 14q80 0 155 92t124.5 226t79.5 278t30 254q0 119 -37.5 181.5t-110.5 62.5q-82 0 -157.5 -91.5t-124.5 -225t-78 -278t-29 -257.5q0 -117 38 -179.5t110 -62.5zM692 1143q115 0 204 -45.5t144 -128.5q87 50 101 110q9 44 -19.5 85t-87.5 61q13 57 59.5 94t98.5 37
q60 0 89 -43.5t15 -106.5q-17 -77 -79 -146t-160 -118q57 -105 57 -240q0 -138 -50.5 -269.5t-136 -231t-207 -160.5t-255.5 -61q-195 0 -307.5 121.5t-112.5 318.5q0 185 84 350.5t234.5 269t328.5 103.5zM887 1313q-44 0 -91.5 19t-81 42.5t-74.5 42.5t-73 19
q-76 0 -141 -78l-12 2q99 256 258 256q65 0 119 -31q17 -10 51.5 -31t53.5 -32t47 -21t52 -10q86 0 142 82l10 -2q-40 -113 -107 -185.5t-153 -72.5z" />
    <glyph glyph-name="uni1EE2" unicode="&#x1ee2;" horiz-adv-x="1464" 
d="M627 14q103 0 186 68q104 86 185.5 257t121 356.5t39.5 351.5q0 182 -66 277t-188 95q-96 0 -183 -68t-149 -178.5t-108.5 -246.5t-69 -275t-22.5 -262q0 -182 67 -278.5t187 -96.5zM907 1454q131 0 237 -45t177 -129q78 47 92 106q9 44 -19.5 85t-86.5 61q13 57 59 94
t98 37q60 0 89.5 -43.5t15.5 -106.5q-18 -76 -77 -144t-153 -114q109 -146 109 -362q0 -174 -64 -340t-172.5 -292.5t-262.5 -203.5t-324 -77q-245 0 -393 154t-148 407q0 176 64 342.5t172.5 292.5t262.5 202t324 76zM539 -451q-64 0 -107 42t-43 104q0 63 43 105t107 42
q65 0 108 -42t43 -105q0 -62 -43.5 -104t-107.5 -42z" />
    <glyph glyph-name="uni1EE3" unicode="&#x1ee3;" horiz-adv-x="1159" 
d="M459 14q80 0 155 92t124.5 226t79.5 278t30 254q0 119 -37.5 181.5t-110.5 62.5q-82 0 -157.5 -91.5t-124.5 -225t-78 -278t-29 -257.5q0 -117 38 -179.5t110 -62.5zM692 1143q115 0 204 -45.5t144 -128.5q87 50 101 110q9 44 -19.5 85t-87.5 61q13 57 59.5 94t98.5 37
q60 0 89 -43.5t15 -106.5q-17 -77 -79 -146t-160 -118q57 -105 57 -240q0 -138 -50.5 -269.5t-136 -231t-207 -160.5t-255.5 -61q-195 0 -307.5 121.5t-112.5 318.5q0 185 84 350.5t234.5 269t328.5 103.5zM375 -451q-64 0 -107 42t-43 104q0 63 43 105t107 42q65 0 108 -42
t43 -105q0 -62 -43.5 -104t-107.5 -42z" />
    <glyph glyph-name="uni1EE4" unicode="&#x1ee4;" horiz-adv-x="1454" 
d="M559 -451q-64 0 -106.5 42t-42.5 104q0 63 42.5 105t106.5 42q65 0 108.5 -42t43.5 -105q0 -62 -44 -104t-108 -42zM676 -20q-168 0 -295 65q-132 65 -188.5 188t-20.5 291l162 760q11 56 -10 78t-74 29l-51 8l8 35h635l-6 -35l-58 -8q-62 -7 -95 -29t-44 -78l-166 -784
q-42 -198 51.5 -315t276.5 -117q164 0 259 109t140 317l168 790q11 56 -15 78t-89 29l-60 8l8 35h424l-6 -35l-63 -8q-67 -7 -103 -29t-47 -78l-168 -790q-53 -251 -191.5 -382.5t-381.5 -131.5z" />
    <glyph glyph-name="uni1EE5" unicode="&#x1ee5;" horiz-adv-x="1318" 
d="M498 -451q-64 0 -107 42t-43 104q0 63 43 105t107 42q65 0 108 -42t43 -105q0 -62 -43.5 -104t-107.5 -42zM1284 432l25 -16q-114 -207 -236.5 -321.5t-236.5 -114.5q-67 0 -98 46t-11 126l127 483q-129 -316 -280 -485.5t-310 -169.5q-92 0 -136 70t-15 181l209 793
q-67 -47 -144.5 -134.5t-146.5 -199.5l-23 17q114 206 237 321t234 115q74 0 102 -48.5t3 -138.5l-181 -671q-27 -107 52 -107t173.5 119t188.5 334q94 217 166 491h283l-273 -1026q72 51 149 137.5t142 198.5z" />
    <glyph glyph-name="uni1EE6" unicode="&#x1ee6;" horiz-adv-x="1454" 
d="M1120 2025q123 0 181 -55.5t40 -138.5q-15 -73 -96.5 -139.5t-210.5 -89.5l-33 -80h-12l8 192q222 51 248 187q5 23 -9.5 42t-49.5 19q-72 0 -232 -104q-17 50 -10 79q8 41 53.5 64.5t122.5 23.5zM676 -20q-168 0 -295 65q-132 65 -188.5 188t-20.5 291l162 760
q11 56 -10 78t-74 29l-51 8l8 35h635l-6 -35l-58 -8q-62 -7 -95 -29t-44 -78l-166 -784q-42 -198 51.5 -315t276.5 -117q164 0 259 109t140 317l168 790q11 56 -15 78t-89 29l-60 8l8 35h424l-6 -35l-63 -8q-67 -7 -103 -29t-47 -78l-168 -790q-53 -251 -191.5 -382.5
t-381.5 -131.5z" />
    <glyph glyph-name="uni1EE7" unicode="&#x1ee7;" horiz-adv-x="1318" 
d="M926 1731q123 0 181 -56t40 -139q-15 -73 -96.5 -139.5t-210.5 -89.5l-33 -80h-12l8 192q222 51 248 187q5 23 -10 42t-50 19q-71 0 -231 -104q-17 50 -10 79q8 41 54 65t122 24zM1284 432l25 -16q-114 -207 -236.5 -321.5t-236.5 -114.5q-67 0 -98 46t-11 126l127 483
q-129 -316 -280 -485.5t-310 -169.5q-92 0 -136 70t-15 181l209 793q-67 -47 -144.5 -134.5t-146.5 -199.5l-23 17q114 206 237 321t234 115q74 0 102 -48.5t3 -138.5l-181 -671q-27 -107 52 -107t173.5 119t188.5 334q94 217 166 491h283l-273 -1026q72 51 149 137.5
t142 198.5z" />
    <glyph glyph-name="uni1EE8" unicode="&#x1ee8;" horiz-adv-x="1454" 
d="M1079 1853h371v-4l-518 -329h-8zM676 -20q-168 0 -295 65q-132 65 -188.5 188t-20.5 291l162 760q11 56 -10 78t-74 29l-51 8l8 35h635l-6 -35l-58 -8q-62 -7 -95 -29t-44 -78l-166 -784q-42 -198 51.5 -315t276.5 -117q164 0 259 109t140 317l168 790q11 56 -15 78
t-89 29l-60 8l8 35h301l-6 -35q-45 -12 -61.5 -33t-28.5 -82l-10 -49q81 35 125.5 71t54.5 80q9 44 -19.5 85t-86.5 61q13 57 59 94t98 37q60 0 89.5 -43.5t15.5 -106.5q-22 -97 -112 -179.5t-230 -125.5l-152 -714q-53 -251 -191.5 -382.5t-381.5 -131.5z" />
    <glyph glyph-name="uni1EE9" unicode="&#x1ee9;" horiz-adv-x="1318" 
d="M1278 1559v-5l-516 -329h-10l155 334h371zM1284 432l25 -16q-114 -207 -236.5 -321.5t-236.5 -114.5q-67 0 -98 46t-11 126l127 483q-129 -316 -280 -485.5t-310 -169.5q-92 0 -136 70t-15 181l209 793q-67 -47 -144.5 -134.5t-146.5 -199.5l-23 17q114 206 237 321
t234 115q74 0 102 -48.5t3 -138.5l-181 -671q-27 -107 52 -107t173.5 119t188.5 334q94 217 166 491h283l-52 -190q78 35 120 69.5t52 77.5q9 44 -19.5 85t-86.5 61q13 57 59.5 94t98.5 37q60 0 89 -43.5t15 -106.5q-22 -96 -110.5 -178t-223.5 -125l-215 -807
q72 51 149 137.5t142 198.5z" />
    <glyph glyph-name="uni1EEA" unicode="&#x1eea;" horiz-adv-x="1454" 
d="M1036 1520h-10l-377 329v4h367zM676 -20q-168 0 -295 65q-132 65 -188.5 188t-20.5 291l162 760q11 56 -10 78t-74 29l-51 8l8 35h635l-6 -35l-58 -8q-62 -7 -95 -29t-44 -78l-166 -784q-42 -198 51.5 -315t276.5 -117q164 0 259 109t140 317l168 790q11 56 -15 78
t-89 29l-60 8l8 35h301l-6 -35q-45 -12 -61.5 -33t-28.5 -82l-10 -49q81 35 125.5 71t54.5 80q9 44 -19.5 85t-86.5 61q13 57 59 94t98 37q60 0 89.5 -43.5t15.5 -106.5q-22 -97 -112 -179.5t-230 -125.5l-152 -714q-53 -251 -191.5 -382.5t-381.5 -131.5z" />
    <glyph glyph-name="uni1EEB" unicode="&#x1eeb;" horiz-adv-x="1318" 
d="M836 1559l18 -334h-8l-377 329v5h367zM1284 432l25 -16q-114 -207 -236.5 -321.5t-236.5 -114.5q-67 0 -98 46t-11 126l127 483q-129 -316 -280 -485.5t-310 -169.5q-92 0 -136 70t-15 181l209 793q-67 -47 -144.5 -134.5t-146.5 -199.5l-23 17q114 206 237 321t234 115
q74 0 102 -48.5t3 -138.5l-181 -671q-27 -107 52 -107t173.5 119t188.5 334q94 217 166 491h283l-52 -190q78 35 120 69.5t52 77.5q9 44 -19.5 85t-86.5 61q13 57 59.5 94t98.5 37q60 0 89 -43.5t15 -106.5q-22 -96 -110.5 -178t-223.5 -125l-215 -807q72 51 149 137.5
t142 198.5z" />
    <glyph glyph-name="uni1EEC" unicode="&#x1eec;" horiz-adv-x="1454" 
d="M1120 2025q123 0 181 -55.5t40 -138.5q-15 -73 -96.5 -139.5t-210.5 -89.5l-33 -80h-12l8 192q222 51 248 187q5 23 -9.5 42t-49.5 19q-72 0 -232 -104q-17 50 -10 79q8 41 53.5 64.5t122.5 23.5zM676 -20q-168 0 -295 65q-132 65 -188.5 188t-20.5 291l162 760
q11 56 -10 78t-74 29l-51 8l8 35h635l-6 -35l-58 -8q-62 -7 -95 -29t-44 -78l-166 -784q-42 -198 51.5 -315t276.5 -117q164 0 259 109t140 317l168 790q11 56 -15 78t-89 29l-60 8l8 35h301l-6 -35q-45 -12 -61.5 -33t-28.5 -82l-10 -49q81 35 125.5 71t54.5 80
q9 44 -19.5 85t-86.5 61q13 57 59 94t98 37q60 0 89.5 -43.5t15.5 -106.5q-22 -97 -112 -179.5t-230 -125.5l-152 -714q-53 -251 -191.5 -382.5t-381.5 -131.5z" />
    <glyph glyph-name="uni1EED" unicode="&#x1eed;" horiz-adv-x="1318" 
d="M926 1731q123 0 181 -56t40 -139q-15 -73 -96.5 -139.5t-210.5 -89.5l-33 -80h-12l8 192q222 51 248 187q5 23 -10 42t-50 19q-71 0 -231 -104q-17 50 -10 79q8 41 54 65t122 24zM1284 432l25 -16q-114 -207 -236.5 -321.5t-236.5 -114.5q-67 0 -98 46t-11 126l127 483
q-129 -316 -280 -485.5t-310 -169.5q-92 0 -136 70t-15 181l209 793q-67 -47 -144.5 -134.5t-146.5 -199.5l-23 17q114 206 237 321t234 115q74 0 102 -48.5t3 -138.5l-181 -671q-27 -107 52 -107t173.5 119t188.5 334q94 217 166 491h283l-52 -190q78 35 120 69.5t52 77.5
q9 44 -19.5 85t-86.5 61q13 57 59.5 94t98.5 37q60 0 89 -43.5t15 -106.5q-22 -96 -110.5 -178t-223.5 -125l-215 -807q72 51 149 137.5t142 198.5z" />
    <glyph glyph-name="uni1EEE" unicode="&#x1eee;" horiz-adv-x="1454" 
d="M772 1645q-76 0 -141 -78l-10 2q99 256 256 256q64 0 118 -31q16 -9 51 -31t54.5 -32.5t47.5 -20.5t52 -10q85 0 141 82l11 -2q-38 -113 -105.5 -185.5t-154.5 -72.5q-43 0 -90 19t-81 42.5t-75.5 42.5t-73.5 19zM676 -20q-168 0 -295 65q-132 65 -188.5 188t-20.5 291
l162 760q11 56 -10 78t-74 29l-51 8l8 35h635l-6 -35l-58 -8q-62 -7 -95 -29t-44 -78l-166 -784q-42 -198 51.5 -315t276.5 -117q164 0 259 109t140 317l168 790q11 56 -15 78t-89 29l-60 8l8 35h301l-6 -35q-45 -12 -61.5 -33t-28.5 -82l-10 -49q81 35 125.5 71t54.5 80
q9 44 -19.5 85t-86.5 61q13 57 59 94t98 37q60 0 89.5 -43.5t15.5 -106.5q-22 -97 -112 -179.5t-230 -125.5l-152 -714q-53 -251 -191.5 -382.5t-381.5 -131.5z" />
    <glyph glyph-name="uni1EEF" unicode="&#x1eef;" horiz-adv-x="1318" 
d="M1284 432l25 -16q-114 -207 -236.5 -321.5t-236.5 -114.5q-67 0 -98 46t-11 126l127 483q-129 -316 -280 -485.5t-310 -169.5q-92 0 -136 70t-15 181l209 793q-67 -47 -144.5 -134.5t-146.5 -199.5l-23 17q114 206 237 321t234 115q74 0 102 -48.5t3 -138.5l-181 -671
q-27 -107 52 -107t173.5 119t188.5 334q94 217 166 491h283l-52 -190q78 35 120 69.5t52 77.5q9 44 -19.5 85t-86.5 61q13 57 59.5 94t98.5 37q60 0 89 -43.5t15 -106.5q-22 -96 -110.5 -178t-223.5 -125l-215 -807q72 51 149 137.5t142 198.5zM950 1251q-44 0 -91.5 19
t-81.5 42.5t-75 42.5t-73 19q-75 0 -140 -78l-12 2q99 256 256 256q67 0 119 -30q16 -9 51 -31t54 -32.5t48 -20.5t54 -10q85 0 141 81l10 -2q-40 -113 -107 -185.5t-153 -72.5z" />
    <glyph glyph-name="uni1EF0" unicode="&#x1ef0;" horiz-adv-x="1454" 
d="M559 -451q-64 0 -106.5 42t-42.5 104q0 63 42.5 105t106.5 42q65 0 108.5 -42t43.5 -105q0 -62 -44 -104t-108 -42zM676 -20q-168 0 -295 65q-132 65 -188.5 188t-20.5 291l162 760q11 56 -10 78t-74 29l-51 8l8 35h635l-6 -35l-58 -8q-62 -7 -95 -29t-44 -78l-166 -784
q-42 -198 51.5 -315t276.5 -117q164 0 259 109t140 317l168 790q11 56 -15 78t-89 29l-60 8l8 35h301l-6 -35q-45 -12 -61.5 -33t-28.5 -82l-10 -49q81 35 125.5 71t54.5 80q9 44 -19.5 85t-86.5 61q13 57 59 94t98 37q60 0 89.5 -43.5t15.5 -106.5q-22 -97 -112 -179.5
t-230 -125.5l-152 -714q-53 -251 -191.5 -382.5t-381.5 -131.5z" />
    <glyph glyph-name="uni1EF1" unicode="&#x1ef1;" horiz-adv-x="1318" 
d="M498 -451q-64 0 -107 42t-43 104q0 63 43 105t107 42q65 0 108 -42t43 -105q0 -62 -43.5 -104t-107.5 -42zM1284 432l25 -16q-114 -207 -236.5 -321.5t-236.5 -114.5q-67 0 -98 46t-11 126l127 483q-129 -316 -280 -485.5t-310 -169.5q-92 0 -136 70t-15 181l209 793
q-67 -47 -144.5 -134.5t-146.5 -199.5l-23 17q114 206 237 321t234 115q74 0 102 -48.5t3 -138.5l-181 -671q-27 -107 52 -107t173.5 119t188.5 334q94 217 166 491h283l-52 -190q78 35 120 69.5t52 77.5q9 44 -19.5 85t-86.5 61q13 57 59.5 94t98.5 37q60 0 89 -43.5
t15 -106.5q-22 -96 -110.5 -178t-223.5 -125l-215 -807q72 51 149 137.5t142 198.5z" />
    </font>
</defs>
</svg>
