<?xml version="1.0" standalone="no"?>
<!DOCTYPE svg PUBLIC "-//W3C//DTD SVG 1.1//EN" "http://www.w3.org/Graphics/SVG/1.1/DTD/svg11.dtd" >
<svg xmlns="http://www.w3.org/2000/svg" xmlns:xlink="http://www.w3.org/1999/xlink" version="1.1">
<metadata>
Created by FontForge 20201107 at Fri Aug 23 08:19:06 2024
 By 
Copyright (c) 2022 by Rene Bieder. All rights reserved. Viet hoa boi STYLEno.1 Fonts
</metadata>
<defs>
<font id="SVN-RBVitruvDisplay-Italic" horiz-adv-x="1228" >
  <font-face 
    font-family="SVN-RB Vitruv Display"
    font-weight="400"
    font-style="italic"
    font-stretch="semi-condensed"
    units-per-em="2048"
    panose-1="0 0 5 6 0 0 0 0 0 0"
    ascent="1638"
    descent="-410"
    x-height="1126"
    cap-height="1434"
    bbox="-520 -768 2458 2257"
    underline-thickness="102"
    underline-position="-204"
    slope="-12"
    unicode-range="U+000D-2715"
  />
<missing-glyph horiz-adv-x="1751" 
d="M1128 248q75 0 121.5 48.5t46.5 127.5v104q0 23 -22 23h-725q-23 0 -23 -23v-41q0 -22 23 -22h389q23 0 23 -23v-18q0 -79 46 -127.5t121 -48.5zM487 760l27 -27q16 -19 31 0l100 101q18 15 33 0l100 -101q16 -17 33 0l27 27q16 16 0 31l-101 100q-17 17 0 33l101 100
q15 18 0 33l-27 26q-17 17 -33 0l-100 -100q-15 -18 -33 0l-100 100q-15 15 -31 0l-27 -26q-17 -17 0 -33l101 -100q12 -16 0 -31l-101 -102q-15 -15 0 -31zM983 760l27 -27q16 -16 32 0l101 101q15 15 33 0l100 -101q15 -19 31 0l26 27q19 16 0 31l-100 100q-17 17 0 33
l100 100q17 16 0 33l-26 26q-15 15 -31 0l-100 -100q-18 -18 -33 0l-101 100q-16 16 -32 0l-27 -26q-15 -15 0 -33l100 -100q15 -16 0 -31l-100 -102q-15 -15 0 -31zM909 1497q350 0 564.5 -215.5t214.5 -568.5q0 -350 -214.5 -564.5t-564.5 -214.5q-229 0 -405.5 97
t-273.5 274t-97 408q0 171 55 316t154.5 248.5t245.5 161.5t321 58zM1128 344q-69 0 -69 82v39h139v-39q0 -41 -15.5 -61.5t-54.5 -20.5z" />
    <glyph glyph-name="f_b" unicode="fb" horiz-adv-x="1732" 
d="M1028 16q67 0 138.5 54.5t131.5 143.5t109 194t76.5 213.5t27.5 195.5q0 166 -116 166q-52 0 -118 -52t-139 -153.5t-151.5 -273t-146.5 -387.5q97 -101 188 -101zM520 1106h391l101 379q-64 98 -189 98q-104 0 -166.5 -99.5t-136.5 -377.5zM1520 1126q101 0 148.5 -69
t47.5 -191q0 -120 -37 -246.5t-106 -240t-158.5 -203.5t-203 -143t-230.5 -53q-153 0 -340 120l258 965h-389l-244 -905q-33 -125 -94.5 -230t-137 -174t-161 -107t-168.5 -38q-91 0 -137.5 34t-46.5 85q0 96 129 151q20 -91 75.5 -137.5t135.5 -46.5q62 0 100 88t113 375
l243 905h-161l10 41l168 18q32 102 89.5 196t135 170.5t178.5 122.5t209 46q73 0 122.5 -21.5t70.5 -58.5l98 39h4l-319 -1184q147 352 300 522t298 170z" />
    <glyph glyph-name="f_f" unicode="ff" horiz-adv-x="1210" 
d="M662 160l245 905h-397l-244 -905q-40 -144 -112 -258h2q19 -94 90 -155.5t162 -61.5q66 0 124 105.5t130 369.5zM823 1583q-104 0 -166.5 -99.5t-136.5 -377.5h400q48 162 131 278q-13 90 -76.5 144.5t-151.5 54.5zM1475 1638q92 0 138 -33.5t46 -84.5q0 -43 -31 -84
t-98 -68q-19 92 -71.5 138t-119.5 46q-52 0 -87.5 -41.5t-65.5 -144.5l-74 -260h260l-10 -41h-262l-246 -905q-70 -255 -238.5 -402t-382.5 -147q-84 0 -145 36.5t-61 92.5v10q-151 -139 -322 -139q-91 0 -137.5 34t-46.5 85q0 96 129 151q20 -91 75.5 -137.5t135.5 -46.5
q62 0 100 88t113 375l243 905h-161l10 41l168 18q32 102 89.5 196t135 170.5t178.5 122.5t209 46q100 0 155.5 -40.5t55.5 -98.5q0 -15 -2 -17q73 65 156.5 100t163.5 35z" />
    <glyph glyph-name="f_f_b" unicode="ffb" horiz-adv-x="2314" 
d="M655 160l246 905h-391l-244 -905q-38 -141 -114 -264q20 -91 90.5 -151t158.5 -60q66 0 124 105.5t130 369.5zM1610 16q67 0 138.5 54.5t131.5 143.5t109 194t76.5 213.5t27.5 195.5q0 166 -117 166q-52 0 -118 -52t-139 -153.5t-151.5 -273t-146.5 -387.5
q97 -101 189 -101zM823 1583q-104 0 -166.5 -99.5t-136.5 -377.5h391q46 155 140 280q-13 90 -76 143.5t-152 53.5zM1104 1106h389l102 381q-66 96 -188 96q-104 0 -166.5 -99.5t-136.5 -377.5zM2101 1126q101 0 149 -69t48 -191q0 -120 -37 -246.5t-106 -240t-158.5 -203.5
t-203 -143t-230.5 -53q-153 0 -340 120l258 965h-387l-246 -905q-70 -255 -238.5 -402t-382.5 -147q-84 0 -145.5 36.5t-61.5 92.5v4q-151 -133 -315 -133q-91 0 -137.5 34t-46.5 85q0 96 129 151q20 -91 75.5 -137.5t135.5 -46.5q62 0 100 88t113 375l243 905h-161l10 41
l168 18q32 102 89.5 196t135 170.5t178.5 122.5t209 46q100 0 155.5 -40.5t55.5 -98.5q0 -15 -2 -19q182 158 375 158q147 0 192 -78l97 37h4l-320 -1184q147 352 300 522t298 170z" />
    <glyph glyph-name="f_f_h" unicode="ffh" horiz-adv-x="2394" 
d="M655 160l246 905h-391l-244 -905q-38 -141 -114 -264q20 -91 90.5 -151t158.5 -60q66 0 124 105.5t130 369.5zM823 1583q-104 0 -166.5 -99.5t-136.5 -377.5h391q46 155 140 280q-13 90 -76 143.5t-152 53.5zM1104 1106h389l102 381q-66 96 -188 96q-104 0 -166.5 -99.5
t-136.5 -377.5zM2357 416l23 -13q-114 -200 -230 -311.5t-215 -111.5q-50 0 -68.5 35.5t-0.5 103.5l200 745q35 133 -65 133q-65 0 -146.5 -73t-164 -200.5t-162.5 -317t-137 -406.5h-195l285 1065h-387l-246 -905q-70 -255 -238.5 -402t-382.5 -147q-84 0 -145.5 36.5
t-61.5 92.5v4q-151 -133 -315 -133q-91 0 -137.5 34t-46.5 85q0 96 129 151q20 -91 75.5 -137.5t135.5 -46.5q62 0 100 88t113 375l243 905h-161l10 41l168 18q32 102 89.5 196t135 170.5t178.5 122.5t209 46q100 0 155.5 -40.5t55.5 -98.5q0 -15 -2 -19q182 158 375 158
q147 0 192 -78l97 37h4l-318 -1186q132 322 291 508t315 186q92 0 135.5 -68t14.5 -177l-219 -824q148 91 315 359z" />
    <glyph glyph-name="f_f_i" unicode="ffi" horiz-adv-x="1740" 
d="M655 160l246 905h-391l-244 -905q-38 -141 -114 -264q20 -91 90.5 -151t158.5 -60q66 0 124 105.5t130 369.5zM823 1583q-104 0 -166.5 -99.5t-136.5 -377.5h393q46 154 138 278q-13 90 -76.5 144.5t-151.5 54.5zM1104 1106h557l-281 -1047q148 88 316 357l22 -13
q-114 -200 -229.5 -311.5t-214.5 -111.5q-50 0 -69 35.5t-1 103.5l254 946h-364l-246 -905q-70 -255 -238.5 -402t-382.5 -147q-84 0 -145.5 36.5t-61.5 92.5v4q-151 -133 -315 -133q-91 0 -137.5 34t-46.5 85q0 96 129 151q20 -91 75.5 -137.5t135.5 -46.5q62 0 100 88
t113 375l243 905h-161l10 41l168 18q32 102 89.5 196t135 170.5t178.5 122.5t209 46q100 0 155.5 -40.5t55.5 -98.5q0 -15 -2 -19q179 158 375 158q100 0 155.5 -40.5t55.5 -98.5q0 -44 -33 -85t-96 -63q-13 86 -76 138.5t-150 52.5q-36 0 -61.5 -7t-49.5 -28.5t-42.5 -51
t-40 -85t-41 -120t-47.5 -165.5z" />
    <glyph glyph-name="f_f_j" unicode="ffj" horiz-adv-x="1732" 
d="M655 160l246 905h-391l-244 -905q-38 -141 -114 -264q20 -91 90.5 -151t158.5 -60q66 0 124 105.5t130 369.5zM823 1583q-104 0 -166.5 -99.5t-136.5 -377.5h393q46 154 138 278q-13 90 -76.5 144.5t-151.5 54.5zM1386 1563q-36 0 -61.5 -7t-49.5 -28.5t-42.5 -51
t-40 -85t-41 -120t-47.5 -165.5h622l-253 -946q-33 -125 -94.5 -230t-137.5 -174t-161.5 -107t-168.5 -38q-91 0 -137.5 34t-46.5 85q0 96 129 151q20 -91 75.5 -137.5t135.5 -46.5q62 0 100 88t113 375l244 905h-430l-246 -905q-70 -255 -238.5 -402t-382.5 -147
q-84 0 -145.5 36.5t-61.5 92.5v4q-151 -133 -315 -133q-91 0 -137.5 34t-46.5 85q0 96 129 151q20 -91 75.5 -137.5t135.5 -46.5q62 0 100 88t113 375l243 905h-161l10 41l168 18q32 102 89.5 196t135 170.5t178.5 122.5t209 46q100 0 155.5 -40.5t55.5 -98.5q0 -15 -2 -19
q179 158 375 158q100 0 155.5 -40.5t55.5 -98.5q0 -44 -33 -85t-96 -63q-13 86 -76 138.5t-150 52.5z" />
    <glyph glyph-name="f_f_k" unicode="ffk" horiz-adv-x="2318" 
d="M655 160l246 905h-391l-244 -905q-38 -141 -114 -264q20 -91 90.5 -151t158.5 -60q66 0 124 105.5t130 369.5zM823 1583q-104 0 -166.5 -99.5t-136.5 -377.5h391q46 155 140 280q-13 90 -76 143.5t-152 53.5zM1104 1106h389l102 381q-66 96 -188 96q-104 0 -166.5 -99.5
t-136.5 -377.5zM2265 416l23 -13q-114 -200 -230 -311.5t-215 -111.5q-43 0 -63.5 29.5t-38.5 109.5l-70 360q213 131 313.5 237.5t100.5 209.5q0 73 -78 73q-157 0 -325 -271.5t-291 -727.5h-195l285 1065h-387l-246 -905q-70 -255 -238.5 -402t-382.5 -147
q-84 0 -145.5 36.5t-61.5 92.5v4q-151 -133 -315 -133q-91 0 -137.5 34t-46.5 85q0 96 129 151q20 -91 75.5 -137.5t135.5 -46.5q62 0 100 88t113 375l243 905h-161l10 41l168 18q32 102 89.5 196t135 170.5t178.5 122.5t209 46q100 0 155.5 -40.5t55.5 -98.5q0 -15 -2 -19
q182 158 375 158q147 0 192 -78l97 37h4l-299 -1120q131 300 289 463t319 163q73 0 113.5 -32t40.5 -91q0 -99 -118 -215.5t-323 -238.5l107 -488q140 86 313 357z" />
    <glyph glyph-name="f_f_l" unicode="ffl" horiz-adv-x="1763" 
d="M655 160l246 905h-391l-244 -905q-38 -141 -114 -264q20 -91 90.5 -151t158.5 -60q66 0 124 105.5t130 369.5zM823 1583q-104 0 -166.5 -99.5t-136.5 -377.5h391q46 155 140 280q-13 90 -76 143.5t-152 53.5zM1104 1106h389l102 381q-66 96 -188 96q-104 0 -166.5 -99.5
t-136.5 -377.5zM1819 1618h4l-418 -1561q148 91 315 359l23 -13q-114 -200 -230 -311.5t-215 -111.5q-50 0 -68.5 35.5t-0.5 103.5l254 946h-389l-246 -905q-70 -255 -238.5 -402t-382.5 -147q-84 0 -145.5 36.5t-61.5 92.5v4q-151 -133 -315 -133q-91 0 -137.5 34t-46.5 85
q0 96 129 151q20 -91 75.5 -137.5t135.5 -46.5q62 0 100 88t113 375l243 905h-161l10 41l168 18q32 102 89.5 196t135 170.5t178.5 122.5t209 46q100 0 155.5 -40.5t55.5 -98.5q0 -15 -2 -19q182 158 375 158q147 0 192 -78z" />
    <glyph glyph-name="f_f_t" unicode="fft" horiz-adv-x="1861" 
d="M657 160l246 905h-393l-244 -905q-43 -156 -114 -262q20 -93 90.5 -153t160.5 -60q66 0 124 105.5t130 369.5zM823 1583q-104 0 -166.5 -99.5t-136.5 -377.5h395q43 158 134 283q-13 90 -75 142t-151 52zM1692 1106h286l-10 -41h-289l-270 -1030q79 29 181.5 131
t201.5 250l23 -13q-126 -201 -247.5 -312t-219.5 -111q-68 0 -98.5 39t-8.5 122l244 924h-389l-246 -905q-70 -255 -238.5 -402t-382.5 -147q-84 0 -145 36.5t-61 92.5v6q-150 -135 -318 -135q-91 0 -137.5 34t-46.5 85q0 96 129 151q20 -91 75.5 -137.5t135.5 -46.5
q62 0 100 88t113 375l243 905h-161l10 41l168 18q32 102 89.5 196t135 170.5t178.5 122.5t209 46q100 0 155.5 -40.5t55.5 -98.5v-13q149 131 313 131q92 0 138.5 -33.5t46.5 -84.5q0 -43 -31 -84t-98 -68q-19 92 -71.5 138t-119.5 46q-52 0 -87.5 -41.5t-65.5 -144.5
l-74 -260h233l383 215h25z" />
    <glyph glyph-name="f_h" unicode="fh" horiz-adv-x="1812" 
d="M520 1106h391l101 379q-64 98 -189 98q-104 0 -166.5 -99.5t-136.5 -377.5zM1776 416l22 -13q-114 -200 -229.5 -311.5t-214.5 -111.5q-50 0 -69 35.5t-1 103.5l201 745q35 133 -66 133q-65 0 -146.5 -73t-164 -200.5t-162.5 -317t-137 -406.5h-195l285 1065h-389
l-244 -905q-33 -125 -94.5 -230t-137 -174t-161 -107t-168.5 -38q-91 0 -137.5 34t-46.5 85q0 96 129 151q20 -91 75.5 -137.5t135.5 -46.5q62 0 100 88t113 375l243 905h-161l10 41l168 18q32 102 89.5 196t135 170.5t178.5 122.5t209 46q73 0 122.5 -21.5t70.5 -58.5
l98 39h4l-317 -1186q132 322 291 508t315 186q92 0 135 -68t14 -177l-219 -824q149 92 316 359z" />
    <glyph glyph-name="f_i" unicode="fi" horiz-adv-x="1171" 
d="M1092 1106l-281 -1047q71 42 153 135t162 222l23 -13q-114 -200 -229.5 -311.5t-214.5 -111.5q-50 0 -69 35.5t-1 103.5l254 946h-379l-244 -905q-33 -125 -94.5 -230t-137 -174t-161 -107t-168.5 -38q-91 0 -137.5 34t-46.5 85q0 96 129 151q20 -91 75.5 -137.5
t135.5 -46.5q62 0 100 88t113 375l243 905h-161l10 41l168 18q76 237 248 386t364 149q100 0 155.5 -40.5t55.5 -98.5q0 -44 -33 -85t-96 -63q-13 86 -75.5 138.5t-149.5 52.5q-36 0 -61.5 -7t-49.5 -28.5t-42.5 -51t-40.5 -85t-41.5 -120t-47.5 -165.5h572z" />
    <glyph glyph-name="f_j" unicode="fj" horiz-adv-x="1150" 
d="M803 1563q-36 0 -61.5 -7t-49.5 -28.5t-42.5 -51t-40.5 -85t-41.5 -120t-47.5 -165.5h625l-254 -946q-33 -125 -94.5 -230t-137 -174t-161 -107t-168.5 -38q-91 0 -138 34t-47 85q0 96 129 151q20 -91 75.5 -137.5t135.5 -46.5q62 0 100 88t113 375l244 905h-432
l-244 -905q-33 -125 -94.5 -230t-137 -174t-161 -107t-168.5 -38q-91 0 -137.5 34t-46.5 85q0 96 129 151q20 -91 75.5 -137.5t135.5 -46.5q62 0 100 88t113 375l243 905h-161l10 41l168 18q76 237 248 386t364 149q100 0 155.5 -40.5t55.5 -98.5q0 -44 -33 -85t-96 -63
q-13 86 -75.5 138.5t-149.5 52.5z" />
    <glyph glyph-name="f_k" unicode="fk" horiz-adv-x="1736" 
d="M520 1106h391l101 379q-64 98 -189 98q-104 0 -166.5 -99.5t-136.5 -377.5zM1683 416l23 -13q-114 -200 -229.5 -311.5t-214.5 -111.5q-43 0 -64 29.5t-39 109.5l-69 360q212 131 312.5 237.5t100.5 209.5q0 73 -78 73q-157 0 -325 -271.5t-291 -727.5h-195l285 1065
h-389l-244 -905q-33 -125 -94.5 -230t-137 -174t-161 -107t-168.5 -38q-91 0 -137.5 34t-46.5 85q0 96 129 151q20 -91 75.5 -137.5t135.5 -46.5q62 0 100 88t113 375l243 905h-161l10 41l168 18q32 102 89.5 196t135 170.5t178.5 122.5t209 46q73 0 122.5 -21.5t70.5 -58.5
l98 39h4l-299 -1120q131 300 289 463t319 163q73 0 113.5 -32t40.5 -91q0 -99 -117.5 -216t-322.5 -238l106 -488q140 86 313 357z" />
    <glyph glyph-name="f_l" unicode="fl" horiz-adv-x="1181" 
d="M520 1106h391l101 379q-64 98 -189 98q-104 0 -166.5 -99.5t-136.5 -377.5zM1237 1618h4l-418 -1561q149 92 316 359l22 -13q-114 -200 -229.5 -311.5t-214.5 -111.5q-50 0 -69 35.5t-1 103.5l254 946h-391l-244 -905q-33 -125 -94.5 -230t-137 -174t-161 -107
t-168.5 -38q-91 0 -137.5 34t-46.5 85q0 96 129 151q20 -91 75.5 -137.5t135.5 -46.5q62 0 100 88t113 375l243 905h-161l10 41l168 18q32 102 89.5 196t135 170.5t178.5 122.5t209 46q73 0 122.5 -21.5t70.5 -58.5z" />
    <glyph glyph-name="f_t" unicode="ft" horiz-adv-x="1243" 
d="M1360 1106l-10 -41h-289l-270 -1030q79 29 181.5 131t201.5 250l22 -13q-126 -201 -247.5 -312t-219.5 -111q-68 0 -98 39t-8 122l243 924h-356l-244 -905q-33 -125 -94.5 -230t-137 -174t-161 -107t-168.5 -38q-91 0 -137.5 34t-46.5 85q0 96 129 151
q20 -91 75.5 -137.5t135.5 -46.5q62 0 100 88t113 375l243 905h-161l10 41l170 18q71 235 228 374.5t323 139.5q92 0 138 -33.5t46 -84.5q0 -43 -31 -84t-98 -68q-19 92 -71 138t-119 46q-53 0 -88.5 -41.5t-65.5 -144.5l-74 -260h199l383 215h24l-57 -215h287z" />
    <glyph glyph-name=".notdef" horiz-adv-x="1751" 
d="M1128 248q75 0 121.5 48.5t46.5 127.5v104q0 23 -22 23h-725q-23 0 -23 -23v-41q0 -22 23 -22h389q23 0 23 -23v-18q0 -79 46 -127.5t121 -48.5zM487 760l27 -27q16 -19 31 0l100 101q18 15 33 0l100 -101q16 -17 33 0l27 27q16 16 0 31l-101 100q-17 17 0 33l101 100
q15 18 0 33l-27 26q-17 17 -33 0l-100 -100q-15 -18 -33 0l-100 100q-15 15 -31 0l-27 -26q-17 -17 0 -33l101 -100q12 -16 0 -31l-101 -102q-15 -15 0 -31zM983 760l27 -27q16 -16 32 0l101 101q15 15 33 0l100 -101q15 -19 31 0l26 27q19 16 0 31l-100 100q-17 17 0 33
l100 100q17 16 0 33l-26 26q-15 15 -31 0l-100 -100q-18 -18 -33 0l-101 100q-16 16 -32 0l-27 -26q-15 -15 0 -33l100 -100q15 -16 0 -31l-100 -102q-15 -15 0 -31zM909 1497q350 0 564.5 -215.5t214.5 -568.5q0 -350 -214.5 -564.5t-564.5 -214.5q-229 0 -405.5 97
t-273.5 274t-97 408q0 171 55 316t154.5 248.5t245.5 161.5t321 58zM1128 344q-69 0 -69 82v39h139v-39q0 -41 -15.5 -61.5t-54.5 -20.5z" />
    <glyph glyph-name="uni0000" horiz-adv-x="0" 
 />
    <glyph glyph-name="uni0000" horiz-adv-x="0" 
 />
    <glyph glyph-name="uni000D" unicode="&#xd;" horiz-adv-x="512" 
 />
    <glyph glyph-name="space" unicode=" " horiz-adv-x="438" 
 />
    <glyph glyph-name="exclam" unicode="!" horiz-adv-x="514" 
d="M258 473h-25l60 797q6 88 43.5 136t99.5 48q71 0 94 -60.5t-8 -142.5zM168 -12q-51 0 -87 36t-36 87q0 54 36 90.5t87 36.5q54 0 89.5 -36.5t35.5 -90.5q0 -51 -35.5 -87t-89.5 -36z" />
    <glyph glyph-name="quotedbl" unicode="&#x22;" horiz-adv-x="606" 
d="M291 1124h-4l-15 342q-1 89 31.5 129.5t81.5 40.5q65 0 84 -49.5t-14 -118.5zM580 1124h-5l-14 342q-1 89 31.5 129.5t81.5 40.5q65 0 83.5 -49.5t-14.5 -118.5z" />
    <glyph glyph-name="numbersign" unicode="#" horiz-adv-x="1253" 
d="M850 901h-277l-133 -362h279zM1059 539v-109h-262l-162 -450l-105 36l150 414h-279l-161 -450l-105 36l150 414h-215v109h254l131 362h-222v109h261l163 450l105 -37l-150 -413h277l164 450l104 -37l-149 -413h215v-109h-254l-133 -362h223z" />
    <glyph glyph-name="dollar" unicode="$" horiz-adv-x="1044" 
d="M784 285q0 99 -55 168t-158 137l-122 -570q45 -10 79 -10q109 0 182.5 81.5t73.5 193.5zM586 852l121 567q-36 4 -56 4q-133 0 -209.5 -75t-76.5 -189q0 -54 17 -99.5t52 -83.5t67.5 -64t84.5 -60zM774 1735h41l-61 -285q176 -16 325 -117l-43 -284h-20
q-24 154 -94.5 244.5t-176.5 117.5l-122 -582q131 -82 180 -125q135 -117 142 -281q1 -11 1 -22q0 -177 -135 -299t-342 -122h-29l-59 -281h-41l61 285q-224 24 -385 155l25 277h20q28 -123 128 -232.5t223 -152.5l123 581q-134 88 -187 136q-139 128 -139 301
q0 126 67.5 220t173.5 139.5t234 45.5h31z" />
    <glyph glyph-name="percent" unicode="%" horiz-adv-x="1771" 
d="M535 1374q-67 0 -121 -57t-81.5 -142t-27.5 -176q0 -204 154 -204q67 0 121 57t81 141.5t27 175.5q0 205 -153 205zM217 -39l1256 1518h122l-1255 -1518h-123zM457 711q-135 0 -223.5 89.5t-88.5 233.5q0 95 34.5 176.5t90.5 134.5t125.5 83t141.5 30q135 0 223 -89.5
t88 -233.5q0 -95 -34.5 -176.5t-90 -134.5t-125 -83t-141.5 -30zM1278 66q67 0 121 57t81 141.5t27 175.5q0 205 -153 205q-67 0 -121 -57t-81.5 -142t-27.5 -176q0 -204 154 -204zM1356 729q135 0 223 -89.5t88 -233.5q0 -95 -34.5 -176.5t-90 -134.5t-125 -83t-141.5 -30
q-135 0 -223 89.5t-88 233.5q0 95 34.5 176.5t90 134.5t125 83t141.5 30z" />
    <glyph glyph-name="ampersand" unicode="&#x26;" horiz-adv-x="1495" 
d="M1556 1085q0 -73 -22 -132.5t-57 -99.5t-90 -72.5t-110 -52.5t-128 -38q25 -73 19 -166t-42 -180q-69 -160 -224.5 -262t-375.5 -102q-96 0 -181.5 24t-154.5 71.5t-109 125.5t-40 178q0 167 124.5 294.5t360.5 192.5q-98 44 -158.5 115.5t-60.5 161.5q0 127 116 219
t310 92q144 0 232 -49q84 -48 86.5 -115.5t-82.5 -138.5q-26 115 -100 193.5t-169 78.5t-145.5 -81.5t-50.5 -192.5q0 -70 29.5 -140t91.5 -116q87 25 161 25q82 0 82 -50q0 -51 -112 -51q-94 0 -185 31q-154 -61 -231.5 -168.5t-77.5 -241.5q0 -167 107.5 -266.5
t287.5 -99.5q155 0 258 69q102 66 157.5 173.5t55.5 226.5q0 78 -20 139q-133 -30 -207 -43q-112 -21 -168.5 -50.5t-56.5 -82.5q0 -106 170 -146q-4 -51 -37 -80.5t-84 -29.5q-44 0 -75.5 46.5t-31.5 127.5q0 88 33 157.5t82.5 112.5t126 76.5t143.5 50t156 31.5
q194 34 252 55q96 34 96 92q0 114 -178 156q1 54 29 82.5t74 28.5q57 0 90.5 -46.5t33.5 -132.5z" />
    <glyph glyph-name="quotesingle" unicode="'" horiz-adv-x="317" 
d="M291 1124h-4l-15 342q-1 89 31.5 129.5t81.5 40.5q65 0 84 -49.5t-14 -118.5z" />
    <glyph glyph-name="parenleft" unicode="(" horiz-adv-x="692" 
d="M121 383q0 334 171 653t458 541h102q-150 -131 -263 -291t-178.5 -326t-97.5 -328.5t-32 -322.5q0 -343 184 -598h-103q-119 127 -180 303t-61 369z" />
    <glyph glyph-name="parenright" unicode=")" horiz-adv-x="692" 
d="M627 905q0 -334 -171 -653t-458 -541h-102q150 131 263 291t178.5 326t97.5 328.5t32 322.5q0 343 -184 598h102q120 -127 181 -303.5t61 -368.5z" />
    <glyph glyph-name="asterisk" unicode="*" horiz-adv-x="1064" 
d="M1122 1196q4 -41 -27.5 -67t-86.5 -31h-19q-57 0 -163.5 26t-149.5 31q25 -36 69 -88t77 -97t52 -89q23 -50 12 -89t-50 -57q-24 -8 -35 -8q-57 0 -96 80q-25 61 -39 183t-19 149q-16 -22 -78.5 -129t-109.5 -150q-44 -41 -90 -41q-38 0 -62 27q-26 31 -19.5 71.5
t44.5 77.5q46 43 152 95t143 77q-34 10 -153.5 31.5t-176.5 50.5q-47 25 -65 62.5t1 74.5q22 48 80 48q28 0 68 -19q58 -30 150.5 -117t111.5 -102q1 44 -5.5 116t-8.5 112t8 108q10 53 43 79.5t72 18.5q41 -7 59 -45t6 -92q-13 -59 -68 -161t-71 -142q18 5 137 46.5
t184 45.5q53 4 87 -20t36 -66z" />
    <glyph glyph-name="plus" unicode="+" horiz-adv-x="1153" 
d="M633 1208h127l-82 -385h387l-29 -127h-385l-80 -385h-125l80 385h-387l31 127h383z" />
    <glyph glyph-name="comma" unicode="," horiz-adv-x="421" 
d="M-133 -254v12q103 27 166 90q74 73 62 146t-107 117q0 57 41 92t94 35q51 0 88 -38t37 -106q0 -82 -57.5 -157t-143 -123.5t-180.5 -67.5z" />
    <glyph glyph-name="hyphen" unicode="-" horiz-adv-x="737" 
d="M584 547h-492l41 155h492z" />
    <glyph glyph-name="period" unicode="." horiz-adv-x="405" 
d="M113 -12q-51 0 -87 36t-36 87q0 54 36 90.5t87 36.5q54 0 89.5 -36.5t35.5 -90.5q0 -51 -36 -87t-89 -36z" />
    <glyph glyph-name="slash" unicode="/" horiz-adv-x="813" 
d="M971 1577l-965 -1866h-123l963 1866h125z" />
    <glyph glyph-name="zero" unicode="0" horiz-adv-x="1251" 
d="M516 -20q-127 0 -220.5 65t-143.5 184q-47 107 -50.5 251t33.5 292q34 137 97.5 259.5t148.5 217t196 150t230 55.5q192 0 303 -142t111 -380q0 -134 -34 -271.5t-98.5 -258.5t-149.5 -216t-195.5 -150.5t-227.5 -55.5zM522 20q89 0 166 57t130.5 151t95.5 207t66 233
t36 221.5t12 179.5q0 344 -227 344q-79 0 -151.5 -49t-127 -131.5t-99 -189.5t-73 -224.5t-44 -233.5t-15.5 -220q0 -345 231 -345z" />
    <glyph glyph-name="one" unicode="1" horiz-adv-x="745" 
d="M598 0h-647l6 31l80 10q36 4 59 9.5t48.5 17.5t41 33t21.5 53l215 1003q14 67 -2.5 90t-81.5 23h-160l4 20l482 164h16l-277 -1300q-12 -59 21 -81.5t104 -31.5l76 -10z" />
    <glyph glyph-name="two" unicode="2" horiz-adv-x="1064" 
d="M803 0h-901l4 20q164 124 291 228t247.5 219t198.5 214.5t125 202t47 193.5q0 114 -65 178t-177 64q-223 0 -356 -219l-12 8q203 342 495 342q86 0 153 -28.5t104.5 -74.5t56 -97t18.5 -103q0 -240 -399 -596q-43 -39 -87.5 -77t-102 -84t-86 -68t-101.5 -78t-86 -66
l2 -4h455q53 0 97 15t84 48t72 69.5t74 94.5h21z" />
    <glyph glyph-name="three" unicode="3" horiz-adv-x="1073" 
d="M453 -20q-187 0 -322 75t-135 172q0 73 82 135q33 -64 76 -120.5t98.5 -106.5t124.5 -79t141 -29q108 0 184 90.5t76 224.5q0 137 -93.5 213t-254.5 76q-71 0 -127 -10l-6 22q69 33 121.5 61.5t116.5 68t109.5 79.5t86 87t61.5 101t21 111q0 91 -52.5 136.5t-146.5 45.5
q-120 0 -224.5 -68.5t-176.5 -174.5l-14 6q88 157 222.5 257.5t303.5 100.5q129 0 205 -61t76 -170q0 -71 -33.5 -136t-98.5 -122t-138 -103.5t-175 -99.5v-4q176 3 290 -89.5t114 -254.5q0 -122 -70.5 -222.5t-188 -156t-253.5 -55.5z" />
    <glyph glyph-name="four" unicode="4" horiz-adv-x="1134" 
d="M1079 369h-243l-45 -215q-12 -60 14 -82t84 -31l63 -10l-6 -31h-571l6 31l68 10q30 4 50 9.5t41.5 17.5t35.5 33t20 53l45 215h-629l-16 34l825 1031h213v-4l-985 -1020h600l113 530l207 59l-125 -589h243z" />
    <glyph glyph-name="five" unicode="5" horiz-adv-x="1067" 
d="M1194 1505l-96 -250h-656l-127 -333q302 -12 469.5 -126t167.5 -323q0 -101 -41 -191t-112.5 -157t-176.5 -106t-227 -39q-112 0 -209.5 31t-157 87.5t-59.5 126.5q0 82 72 137q69 -126 202.5 -227.5t264.5 -101.5q85 0 146.5 48.5t89.5 120.5t28 156q0 181 -150.5 275.5
t-416.5 103.5l266 697h490q164 0 217 71h16z" />
    <glyph glyph-name="six" unicode="6" horiz-adv-x="1148" 
d="M627 784q-186 0 -324 -161q-35 -152 -35 -299q0 -154 63 -232t165 -78q80 0 149 46t113 119.5t69 163t25 179.5q0 125 -56 193.5t-169 68.5zM1206 1452l-2 -16q-319 -15 -556 -226t-329 -532q84 91 192.5 145t203.5 54q159 0 257.5 -92.5t98.5 -256.5q0 -151 -71 -275.5
t-202.5 -198.5t-297.5 -74q-176 0 -299 131t-123 350q0 196 97 379t254 314t362 212t415 86z" />
    <glyph glyph-name="seven" unicode="7" horiz-adv-x="997" 
d="M147 1075l138 359h884v-9l-131 -168l-770 -1257h-237v4l977 1251h-510q-137 0 -205.5 -37.5t-124.5 -142.5h-21z" />
    <glyph glyph-name="eight" unicode="8" horiz-adv-x="1193" 
d="M891 297q0 46 -18 87t-44.5 70.5t-70.5 62t-81.5 55t-93 55.5t-91.5 57q-134 -52 -215.5 -151.5t-81.5 -219.5q0 -132 96.5 -213.5t247.5 -81.5q154 0 253 81.5t99 197.5zM727 801q303 112 303 356q0 123 -76 190.5t-196 67.5q-137 0 -227.5 -86.5t-90.5 -200.5
q0 -37 10 -70t33 -63.5t44 -52.5t61.5 -51t64.5 -44.5t74 -45.5zM1163 1143q0 -257 -411 -359q74 -42 122 -75.5t99 -83t76.5 -110t25.5 -132.5q0 -174 -151 -287.5t-394 -113.5q-217 0 -357 93.5t-140 243.5q0 73 34.5 136.5t95.5 110t137.5 80t166.5 54.5
q-64 46 -106.5 89.5t-72.5 108.5t-30 140q0 179 140.5 296.5t357.5 117.5q181 0 294 -83t113 -226z" />
    <glyph glyph-name="nine" unicode="9" horiz-adv-x="1144" 
d="M590 649q81 0 165 39.5t158 122.5q35 152 35 299q0 157 -62 233t-165 76q-80 0 -149 -46t-113 -119.5t-69 -163t-25 -179.5q0 -122 57.5 -192t167.5 -70zM717 1454q85 0 161 -32.5t134.5 -92.5t92.5 -152t34 -204q0 -196 -97 -379t-254.5 -314t-362.5 -212t-415 -86l2 16
q216 12 397.5 114.5t304 267.5t183.5 376q-84 -91 -192 -145t-203 -54q-159 0 -258 92t-99 256q0 113 42 213.5t116 174.5t181.5 117.5t232.5 43.5z" />
    <glyph glyph-name="colon" unicode=":" horiz-adv-x="503" 
d="M156 -12q-51 0 -87 36t-36 87q0 54 36 90.5t87 36.5q54 0 89.5 -36.5t35.5 -90.5q0 -51 -35.5 -87t-89.5 -36zM344 1118q54 0 89.5 -36t35.5 -87q0 -54 -35.5 -90.5t-89.5 -36.5q-51 0 -87 36.5t-36 90.5q0 51 36 87t87 36z" />
    <glyph glyph-name="semicolon" unicode=";" horiz-adv-x="516" 
d="M-76 -254v12q103 27 166 90q74 73 62 146t-107 117q0 57 41 92t94 35q51 0 88 -38t37 -106q0 -82 -57.5 -157t-143 -123.5t-180.5 -67.5zM334 1118q54 0 89.5 -36t35.5 -87q0 -54 -35.5 -90.5t-89.5 -36.5q-51 0 -87 36.5t-36 90.5q0 51 36 87t87 36z" />
    <glyph glyph-name="less" unicode="&#x3c;" horiz-adv-x="845" 
d="M117 745l6 21l715 387l-31 -164l-461 -241l356 -240l-30 -150z" />
    <glyph glyph-name="equal" unicode="=" horiz-adv-x="1175" 
d="M125 555l25 125h897l-27 -125h-895zM182 838l27 127h895l-25 -127h-897z" />
    <glyph glyph-name="greater" unicode="&#x3e;" horiz-adv-x="845" 
d="M793 766l-5 -21l-716 -387l34 164l457 242l-358 242l35 147z" />
    <glyph glyph-name="question" unicode="?" horiz-adv-x="796" 
d="M885 1163q0 -79 -41 -149.5t-112.5 -124.5t-162.5 -94.5t-196 -65.5l-90 -252h-21l68 418q122 25 232 77t181.5 123t71.5 142q0 129 -143 129q-85 0 -212.5 -49.5t-226.5 -128.5q-61 136 37 207q82 59 244 59q56 0 109 -10.5t101 -34t83.5 -57t56.5 -82.5t21 -107z
M193 238q54 0 89 -36.5t35 -90.5q0 -52 -35.5 -87.5t-88.5 -35.5q-51 0 -87 36t-36 87q0 54 36 90.5t87 36.5z" />
    <glyph glyph-name="at" unicode="@" horiz-adv-x="2076" 
d="M815 123q54 0 120 52.5t138.5 154.5t150.5 272.5t146 386.5q-90 101 -188 101q-83 0 -172.5 -84t-156.5 -206t-111 -262t-44 -249q0 -166 117 -166zM2056 846q0 -161 -56.5 -298.5t-168.5 -248.5t-292.5 -188.5t-416.5 -110.5l224 817h-3q-155 -425 -323 -631t-330 -206
q-101 0 -148.5 69t-47.5 191q0 120 37 246.5t106 240t158.5 203.5t203 143t230.5 53q109 0 229 -57l154 57h4l-264 -995q133 14 233.5 58.5t166.5 110.5t107.5 160t58.5 199.5t17 235.5q0 189 -90.5 332.5t-251 219t-366.5 75.5q-188 0 -354 -59t-291.5 -164.5t-216.5 -247
t-138 -311.5t-47 -353q0 -389 207 -598t598 -209q190 0 374 51.5t331 149.5l18 -29q-145 -99 -336 -153t-389 -54q-199 0 -366 53.5t-292 156.5t-195.5 266.5t-70.5 371.5q0 242 91 457.5t246.5 370t372 245t458.5 90.5q134 0 256 -28.5t226.5 -87t181.5 -141.5t121 -199.5
t44 -253.5z" />
    <glyph glyph-name="A" unicode="A" horiz-adv-x="1384" 
d="M879 588l-111 719l-397 -719h508zM1274 41l49 -10l-6 -31h-547l6 31l64 10q67 11 90 33.5t16 72.5l-61 400h-537l-221 -400q-31 -51 -13 -73.5t101 -32.5l80 -10l-6 -31h-430l6 31l51 10q66 12 98 33.5t58 72.5l714 1287h162l215 -1289q7 -49 30.5 -70.5t80.5 -33.5z" />
    <glyph glyph-name="B" unicode="B" horiz-adv-x="1323" 
d="M481 719l-143 -678h207q212 0 331 105.5t119 281.5q0 139 -78.5 215t-211.5 76h-224zM1075 1149q0 117 -68.5 180.5t-195.5 63.5h-186l-136 -633h183q199 0 301 100.5t102 288.5zM831 741q178 -17 282 -105t104 -222q0 -198 -164 -306t-465 -108h-656l7 31l49 8
q93 18 123.5 38.5t42.5 76.5l237 1126q12 58 -9.5 80t-105.5 35l-47 8l7 31h610q200 0 322 -89.5t122 -236.5q0 -87 -34.5 -154.5t-97.5 -111t-144.5 -68.5t-182.5 -33z" />
    <glyph glyph-name="C" unicode="C" horiz-adv-x="1406" 
d="M760 -20q-295 0 -474.5 166t-179.5 452q0 142 44 274t124 237t187 183.5t239.5 121t274.5 42.5q254 0 491 -139l-47 -316h-20q-20 198 -134.5 310t-297.5 112q-91 0 -173.5 -30t-147.5 -81.5t-120.5 -121.5t-95 -150t-67 -166t-41 -170.5t-13.5 -162.5q0 -235 114 -383
t300 -148q169 0 323 120t232 302h18l-75 -354q-225 -98 -461 -98z" />
    <glyph glyph-name="D" unicode="D" horiz-adv-x="1515" 
d="M629 1393l-287 -1352h219q128 0 239 44.5t193 123t141.5 183.5t89 228t29.5 254q0 233 -112.5 376t-313.5 143h-198zM229 1403l7 31h593q195 0 343.5 -78.5t227.5 -217t79 -315.5q0 -183 -73 -338t-198.5 -261t-296.5 -165t-364 -59h-615l7 31l59 10q84 13 114 35t42 78
l237 1126q11 55 -7.5 79t-86.5 34z" />
    <glyph glyph-name="E" unicode="E" horiz-adv-x="1263" 
d="M229 1403l7 31h1015l-26 -441l-23 -6q-30 406 -311 406h-266l-136 -637h199q56 0 89.5 18t64.5 70t71 160h21l-115 -537h-20q6 67 6 109.5t-6 71.5t-22 42.5t-38 19t-59 5.5h-199l-143 -674h301q88 0 156.5 19t133.5 66t122 129t114 206h23l-162 -461h-1094l7 31l67 10
q31 4 50.5 9.5t41.5 17.5t36 33t20 53l237 1126q15 59 -11.5 81.5t-86.5 31.5z" />
    <glyph glyph-name="F" unicode="F" horiz-adv-x="1163" 
d="M229 1403l7 31h1013l-26 -441l-23 -6q-38 406 -301 406h-274l-138 -650h203q56 0 90 18t66.5 70.5t71.5 159.5h20l-113 -536h-20q6 67 6 109t-6 71t-23 43t-39.5 19t-60.5 5h-203l-117 -548q-6 -32 0.5 -53t27 -33t41 -17.5t54.5 -9.5l76 -10l-6 -31h-623l7 31l67 10
q31 4 50.5 9.5t41.5 17.5t36 33t20 53l237 1126q15 59 -11.5 81.5t-86.5 31.5z" />
    <glyph glyph-name="G" unicode="G" horiz-adv-x="1505" 
d="M956 631l7 31h550l-6 -31l-67 -13q-65 -12 -91 -34t-38 -76l-92 -430q-222 -98 -459 -98q-295 0 -474.5 166t-179.5 452q0 142 44 274t124 237t187 183.5t239.5 121t274.5 42.5q254 0 491 -139l-47 -316h-20q-20 198 -134.5 310t-297.5 112q-91 0 -173.5 -30
t-147.5 -81.5t-120.5 -121.5t-95 -150t-67 -166t-41 -170.5t-13.5 -162.5q0 -235 114 -383t300 -148q163 0 313 117l82 381q12 55 -7.5 78t-90.5 35z" />
    <glyph glyph-name="H" unicode="H" horiz-adv-x="1609" 
d="M1153 1403l6 31h588l-6 -31l-68 -10q-62 -9 -96.5 -31t-50.5 -82l-238 -1126q-12 -60 14 -82t84 -31l64 -10l-6 -31h-588l6 31l68 10q30 4 50 9.5t41.5 17.5t35.5 33t20 53l121 571h-715l-121 -571q-12 -60 14.5 -82t84.5 -31l63 -10l-6 -31h-586l7 31l67 10
q31 4 50.5 9.5t41.5 17.5t36 33t20 53l237 1126q15 59 -11.5 81.5t-86.5 31.5l-64 10l7 31h585l-6 -31l-67 -10q-62 -9 -97 -31t-51 -82l-108 -514h714l109 514q15 59 -11.5 81.5t-86.5 31.5z" />
    <glyph glyph-name="I" unicode="I" horiz-adv-x="684" 
d="M518 0h-586l7 31l67 10q31 4 50.5 9.5t41.5 17.5t36 33t20 53l237 1126q15 59 -11.5 81.5t-86.5 31.5l-64 10l7 31h585l-6 -31l-67 -10q-62 -9 -97 -31t-51 -82l-238 -1126q-12 -60 14.5 -82t84.5 -31l63 -10z" />
    <glyph glyph-name="J" unicode="J" horiz-adv-x="657" 
d="M-209 -389q-67 0 -109 33.5t-42 85.5q0 44 26.5 86.5t63.5 72.5q47 -87 106.5 -138.5t110.5 -51.5q44 0 82 45.5t51 118.5l301 1417q11 55 -9.5 78t-92.5 35l-62 10l8 31h588l-8 -31l-51 -8q-87 -14 -118.5 -35.5t-43.5 -79.5l-240 -1128q-32 -143 -123.5 -269
t-209.5 -199t-228 -73z" />
    <glyph glyph-name="K" unicode="K" horiz-adv-x="1419" 
d="M600 1280l-238 -1126q-12 -60 14.5 -82t84.5 -31l63 -10l-6 -31h-586l7 31l67 10q31 4 50.5 9.5t41.5 17.5t36 33t20 53l237 1126q12 60 -14 82t-84 31l-64 10l7 31h585l-6 -31l-67 -10q-31 -4 -50.5 -9.5t-41.5 -17.5t-36 -33t-20 -53zM1145 1403l6 31h459l-6 -31
l-66 -10q-63 -10 -123.5 -33.5t-89.5 -48.5l-539 -473l508 -828l-2 -10h-239l-445 745l662 568q32 29 18.5 50.5t-67.5 29.5z" />
    <glyph glyph-name="L" unicode="L" horiz-adv-x="1175" 
d="M1112 481l18 -4l-165 -477h-1033l7 31l67 10q31 4 50.5 9.5t41.5 17.5t36 33t20 53l237 1126q15 59 -11.5 81.5t-86.5 31.5l-64 10l7 31h585l-6 -31l-67 -10q-62 -9 -97 -31t-51 -82l-262 -1239h313q144 0 248 102.5t213 337.5z" />
    <glyph glyph-name="M" unicode="M" horiz-adv-x="1828" 
d="M846 207l659 1227h389l-6 -31l-67 -10q-62 -9 -95 -31t-40 -82l-119 -1126q-7 -59 22 -81.5t88 -31.5l64 -10l-6 -31h-586l6 31l68 10q30 4 49.5 9.5t40 17.5t31.5 33t14 53l115 1126l-685 -1280h-126l-140 1255l-348 -1101q-18 -60 8.5 -82t89.5 -31l70 -10l-6 -31h-465
l6 31l74 10q34 5 55.5 10t47 17t42.5 33t27 53l356 1126q8 21 9 38t-5 28.5t-14 19.5t-23.5 13t-29.5 8t-35 6l-70 10l6 31h392z" />
    <glyph glyph-name="N" unicode="N" horiz-adv-x="1550" 
d="M1243 1403l6 31h461l-6 -31l-74 -10q-33 -5 -54.5 -10t-45.5 -17t-39 -33t-21 -53l-270 -1280h-141l-615 1286l-239 -1132q-12 -59 17.5 -81.5t92.5 -31.5l70 -10l-6 -31h-461l6 31l74 10q33 5 54.5 10t45.5 17t39 33t21 53l237 1126q12 60 -12.5 82t-81.5 31l-61 10
l6 31h354l598 -1219l225 1065q12 60 -16.5 82t-93.5 31z" />
    <glyph glyph-name="O" unicode="O" horiz-adv-x="1443" 
d="M621 8q93 0 176.5 43.5t147 118t115 172t84.5 208t50.5 223.5t17.5 220q0 212 -82 322t-235 110q-87 0 -165 -37t-136.5 -99t-107.5 -144.5t-82.5 -173.5t-56.5 -186.5t-33.5 -181.5t-10.5 -161q0 -211 83.5 -322.5t234.5 -111.5zM897 1454q241 0 380.5 -151.5
t139.5 -405.5q0 -115 -28 -229.5t-78.5 -215.5t-123.5 -188t-160 -149.5t-192.5 -98.5t-216.5 -36q-238 0 -379 153t-141 406q0 173 62 339t167 293t255 205t315 78z" />
    <glyph glyph-name="P" unicode="P" horiz-adv-x="1243" 
d="M625 1397l-160 -760h186q206 0 321 120.5t115 334.5q0 137 -78.5 221t-207.5 84h-176zM229 1403l7 31h557q231 0 371.5 -104t140.5 -275q0 -214 -173.5 -334.5t-482.5 -120.5h-192l-95 -446q-12 -59 19.5 -80t140.5 -35l64 -8l-6 -31h-648l7 31l65 10q78 12 108 34.5
t42 78.5l237 1126q12 57 -10.5 79.5t-106.5 35.5z" />
    <glyph glyph-name="Q" unicode="Q" horiz-adv-x="1443" 
d="M621 8q93 0 176.5 43.5t147 118t115 172t84.5 208t50.5 223.5t17.5 220q0 212 -82 322t-235 110q-87 0 -165 -37t-136.5 -99t-107.5 -144.5t-82.5 -173.5t-56.5 -186.5t-33.5 -181.5t-10.5 -161q0 -211 83.5 -322.5t234.5 -111.5zM897 1454q241 0 380.5 -151.5
t139.5 -405.5q0 -115 -28 -229.5t-78.5 -215.5t-123.5 -188t-160 -149.5t-192.5 -98.5t-216.5 -36q-238 0 -379 153t-141 406q0 173 62 339t167 293t255 205t315 78zM276 -334q-29 -10 -65 -10q-49 0 -80 26.5t-31 69.5q0 76 86 132.5t183 56.5q70 0 144 -38t133.5 -92
t112 -107.5t97.5 -91.5t72 -38q54 0 63 45q6 40 -15 102.5t-56 122.5q33 17 77 17q50 0 81.5 -30.5t31.5 -80.5q0 -95 -83.5 -168.5t-205.5 -73.5q-58 0 -124 40t-123 96.5t-110 113t-103 96.5t-85 40t-43.5 -38.5t5 -90.5t38.5 -99z" />
    <glyph glyph-name="R" unicode="R" horiz-adv-x="1349" 
d="M784 1393h-159l-156 -736h178q207 0 325 122.5t118 324.5q0 129 -84.5 209t-221.5 80zM1305 1042q0 -151 -115 -257t-318 -148l390 -627l-2 -10h-220l-352 616h-227l-99 -462q-12 -56 10 -78.5t97 -36.5l55 -8l-6 -31h-586l7 31l51 8q90 18 121 38.5t43 76.5l237 1126
q11 55 -7 76.5t-89 34.5l-66 12l7 31h557q230 0 371 -108.5t141 -283.5z" />
    <glyph glyph-name="S" unicode="S" horiz-adv-x="1077" 
d="M483 -20q-121 0 -239 40t-213 119l24 277h21q21 -101 92.5 -194.5t173 -152.5t201.5 -59q109 0 182.5 81.5t73.5 193.5q0 71 -32 130t-82.5 101.5t-112 82t-123 82.5t-112 91.5t-82.5 119.5t-32 157q0 126 67.5 220t173.5 139.5t234 45.5q214 0 396 -121l-43 -284h-21
q-30 186 -125.5 280t-238.5 94q-133 0 -210 -75t-77 -189q0 -56 20 -104.5t53.5 -84.5t77 -69t92 -63t97 -61t92 -68.5t77 -80t53.5 -101t20 -126.5q0 -177 -135.5 -299t-342.5 -122z" />
    <glyph glyph-name="T" unicode="T" horiz-adv-x="1359" 
d="M125 979l162 455h1161l-31 -455h-20q-25 224 -101 319t-209 95h-122l-263 -1239q-7 -31 1 -52t33 -32.5t49 -17.5t65 -11l90 -10l-6 -31h-739l6 31l94 10q43 4 70 9.5t56.5 17.5t47 33t23.5 53l262 1239h-123q-132 0 -247 -94.5t-239 -319.5h-20z" />
    <glyph glyph-name="U" unicode="U" horiz-adv-x="1468" 
d="M672 -20q-124 0 -225.5 36.5t-167.5 105t-91.5 167.5t0.5 223l164 768q12 60 -12 82t-78 31l-57 10l6 31h571l-6 -31l-67 -10q-24 -4 -40 -7.5t-35 -11.5t-31.5 -19t-23.5 -30t-16 -45l-166 -780q-27 -141 13 -242q40 -99 133 -154t221 -55q184 0 287.5 115.5
t150.5 337.5l166 778q12 60 -17 82t-94 31l-67 10l6 31h457l-6 -31l-74 -10q-26 -4 -43.5 -7.5t-38.5 -11.5t-34.5 -19t-25 -30t-16.5 -45l-166 -778q-53 -252 -196 -387t-381 -135z" />
    <glyph glyph-name="V" unicode="V" horiz-adv-x="1331" 
d="M1143 1403l6 31h401l-6 -31l-39 -10q-26 -7 -42.5 -13.5t-42.5 -30t-48 -61.5l-749 -1288h-123l-250 1288q-7 38 -21 61t-25.5 30.5t-31.5 13.5l-31 10l6 31h500l-6 -31l-68 -10q-61 -9 -87.5 -29t-16.5 -76l203 -1110l647 1110q14 24 15.5 41.5t-4.5 28t-23.5 18
t-35 10.5t-46.5 7z" />
    <glyph glyph-name="W" unicode="W" horiz-adv-x="2037" 
d="M1833 1403l6 31h432l-6 -31l-51 -10q-26 -5 -40.5 -9.5t-36.5 -15.5t-40 -32t-33 -52l-641 -1284h-163l-146 1214l-586 -1214h-161l-103 1284q-2 31 -8 52t-16.5 32t-19 15.5t-23.5 9.5l-29 10l6 31h504l-6 -31l-68 -10q-60 -9 -88 -30t-27 -79l62 -1132l620 1282h140
l137 -1301l569 1151q28 57 0 78.5t-102 30.5z" />
    <glyph glyph-name="X" unicode="X" horiz-adv-x="1417" 
d="M1067 1403l6 31h483l-6 -31l-57 -10q-126 -21 -190 -90l-467 -498l305 -670q22 -67 133 -94l45 -10l-6 -31h-561l6 31l67 10q24 4 38 7t28.5 9.5t19.5 15.5t4.5 24.5t-10.5 37.5l-239 524l-494 -528q-24 -25 -27.5 -41.5t15 -25.5t41 -13.5t63.5 -9.5h2l94 -10l-6 -31
h-483l6 31l55 10q120 21 183 90l532 569l-272 598q-31 73 -133 95l-45 10l6 31h561l-6 -31l-68 -10q-24 -4 -38 -7t-28.5 -9.5t-19.5 -16t-4.5 -25t10.5 -37.5l207 -452l430 457q24 25 27.5 42t-14 26.5t-40 13.5t-61.5 8z" />
    <glyph glyph-name="Y" unicode="Y" horiz-adv-x="1292" 
d="M1079 1403l6 31h418l-6 -31l-45 -10q-55 -12 -88 -33t-70 -66l-516 -663l-100 -477q-12 -59 17.5 -81.5t92.5 -31.5l70 -10l-6 -31h-623l7 31l73 10q33 5 54.5 10t45.5 17t39 33t21 53l98 471l-284 673q-24 69 -99 95l-28 10l6 31h520l-6 -31l-80 -10q-60 -7 -81.5 -25.5
t-0.5 -69.5l256 -610l471 606q22 28 25.5 47t-13 29t-38 15t-58.5 8z" />
    <glyph glyph-name="Z" unicode="Z" horiz-adv-x="1265" 
d="M344 1434h1030l-4 -25l-1143 -1368h355q122 0 215 45.5t184 149.5q99 117 193 282h20l-201 -518h-1065l4 25l1151 1368h-356q-52 0 -102 -14t-89.5 -34.5t-82 -57t-72 -67t-67 -80t-58.5 -80.5t-55 -83h-21z" />
    <glyph glyph-name="bracketleft" unicode="[" horiz-adv-x="638" 
d="M498 1389l-318 -1489q-4 -24 -4 -35q0 -18 5 -31.5t19 -22.5t28 -14.5t42.5 -9.5t51 -6t65.5 -4l-14 -66h-373l395 1866h373l-14 -66q-50 -3 -75.5 -5t-58.5 -7.5t-48.5 -13t-33 -20t-26 -31t-14.5 -45.5z" />
    <glyph glyph-name="backslash" unicode="\" horiz-adv-x="813" 
d="M498 -289l-174 1866h116l174 -1866h-116z" />
    <glyph glyph-name="bracketright" unicode="]" horiz-adv-x="638" 
d="M186 -100l320 1489q4 24 4 34q0 27 -12 43t-40 24.5t-62.5 12.5t-91.5 8h-5l14 66h373l-397 -1866h-373l14 66q50 3 76 5.5t58 7.5t48 12.5t33.5 20.5t26 31.5t14.5 45.5z" />
    <glyph glyph-name="asciicircum" unicode="^" horiz-adv-x="946" 
d="M618 1577h148l192 -594h-127l-153 481l-354 -481h-148z" />
    <glyph glyph-name="underscore" unicode="_" horiz-adv-x="901" 
d="M721 -246h-817l20 111h819z" />
    <glyph glyph-name="grave" unicode="`" 
d="M791 1198h-11l-299 311v4h248z" />
    <glyph glyph-name="a" unicode="a" horiz-adv-x="1210" 
d="M340 123q54 0 120 52.5t138.5 154.5t150.5 272.5t146 386.5q-90 101 -188 101q-83 0 -172.5 -84t-156.5 -206t-111 -262t-44 -249q0 -166 117 -166zM1171 416l23 -13q-114 -200 -229.5 -311.5t-214.5 -111.5q-50 0 -69 35.5t-1 103.5l190 698h-2q-155 -425 -323 -631
t-330 -206q-101 0 -149 69t-48 191q0 120 37.5 246.5t106.5 240t158.5 203.5t203 143t230.5 53q109 0 229 -57l154 57h4l-285 -1069q148 91 315 359z" />
    <glyph glyph-name="b" unicode="b" horiz-adv-x="1120" 
d="M416 16q67 0 138.5 54.5t131.5 143.5t109 194t76.5 213.5t27.5 195.5q0 166 -117 166q-52 0 -118 -52t-139 -153.5t-151.5 -273t-146.5 -387.5q97 -101 189 -101zM907 1126q101 0 149 -69t48 -191q0 -120 -37 -246.5t-106 -240t-158.5 -203.5t-203 -143t-230.5 -53
q-153 0 -340 120l358 1338l-123 100v4l371 117h4l-324 -1215q143 346 295 514t297 168z" />
    <glyph glyph-name="c" unicode="c" horiz-adv-x="944" 
d="M367 -20q-103 0 -174.5 57.5t-103.5 148.5t-32 207q0 104 26.5 208.5t79.5 198.5t125 167t170.5 116t207.5 43q141 0 212.5 -60.5t71.5 -145.5q0 -67 -47 -119t-125 -56q15 340 -145 340q-95 0 -182.5 -101.5t-139 -256.5t-51.5 -309q0 -92 20.5 -163t67 -117t115.5 -46
q99 0 200.5 87t176.5 237l22 -13q-89 -197 -219 -310t-276 -113z" />
    <glyph glyph-name="d" unicode="d" horiz-adv-x="1196" 
d="M340 123q54 0 120 52.5t138.5 154.5t150.5 272.5t146 386.5q-90 101 -188 101q-83 0 -172.5 -84t-156.5 -206t-111 -262t-44 -249q0 -166 117 -166zM1094 1006h-2l-252 -949q148 91 315 359l23 -13q-114 -200 -230 -311.5t-215 -111.5q-50 0 -68.5 35.5t-0.5 103.5
l145 547q-144 -348 -296 -517t-298 -169q-101 0 -149 69t-48 191q0 93 25.5 195t71.5 200.5t113.5 187.5t146 156t176 107t197.5 40q94 0 176 -32l92 344l-123 100v4l371 117h4z" />
    <glyph glyph-name="e" unicode="e" horiz-adv-x="923" 
d="M659 1085q-82 0 -165.5 -81.5t-143 -208t-84.5 -263.5q130 36 228.5 91t152.5 115.5t79.5 117t25.5 109.5q0 54 -26 87t-67 33zM436 92q100 0 205.5 87.5t187.5 236.5l23 -13q-99 -197 -235.5 -310t-282.5 -113q-97 0 -163.5 51t-96 133t-29.5 188q0 133 47.5 270
t129 249.5t203 183.5t257.5 71q109 0 171 -49.5t62 -126.5q0 -48 -23.5 -98.5t-75.5 -102.5t-126.5 -97.5t-185.5 -84t-244 -61.5q-10 -72 -10 -131q0 -127 45.5 -205t140.5 -78z" />
    <glyph glyph-name="f" unicode="f" horiz-adv-x="602" 
d="M885 1638q92 0 138 -33.5t46 -84.5q0 -43 -31 -84t-98 -68q-19 92 -71 138t-119 46q-53 0 -88.5 -41.5t-65.5 -144.5l-74 -260h240l-10 -41h-244l-244 -905q-33 -125 -94.5 -230t-137 -174t-161 -107t-168.5 -38q-91 0 -137.5 34t-46.5 85q0 96 129 151
q20 -91 75.5 -137.5t135.5 -46.5q62 0 100 88t113 375l243 905h-159l10 41l168 18q71 235 228 374.5t323 139.5z" />
    <glyph glyph-name="g" unicode="g" horiz-adv-x="1083" 
d="M524 483q131 0 216 114t85 284q0 92 -56 152.5t-142 60.5q-132 0 -220 -112.5t-88 -283.5q0 -94 57.5 -154.5t147.5 -60.5zM596 -20l-277 102q-35 14 -55 24q-114 -27 -185 -90.5t-71 -148.5q0 -99 89.5 -158t252.5 -59q173 0 284 59t111 146q0 70 -149 125zM1038 1317
q47 0 73 -28t26 -68q0 -58 -47 -93q-91 54 -144 54q-60 0 -129 -92q95 -39 149 -107.5t54 -157.5q0 -50 -11.5 -93t-29.5 -76t-48.5 -61.5t-58.5 -48t-70.5 -37.5t-74.5 -28.5t-80 -21.5t-76.5 -16t-74.5 -13q-45 -8 -74 -14.5t-56 -16.5t-40 -23t-13 -30q0 -21 25 -40
t90 -44l277 -106q200 -73 200 -199q0 -149 -164 -247.5t-440 -98.5q-130 0 -238.5 28t-174.5 82t-66 123q0 99 119.5 174.5t302.5 100.5q-90 54 -90 133q0 149 327 205q-156 14 -254 96.5t-98 200.5q0 162 137 267t344 105q96 0 185 -28q40 69 75.5 115t65.5 67.5t53 29
t49 7.5z" />
    <glyph glyph-name="h" unicode="h" horiz-adv-x="1206" 
d="M1169 416l23 -13q-114 -200 -229.5 -311.5t-214.5 -111.5q-50 0 -69 35.5t-1 103.5l201 745q35 133 -66 133q-65 0 -146.5 -73t-164 -200.5t-162.5 -317t-137 -406.5h-193l385 1438l-123 100v4l371 117h4l-328 -1225q132 321 290.5 506.5t314.5 185.5q92 0 135 -68
t14 -177l-219 -824q148 91 315 359z" />
    <glyph glyph-name="i" unicode="i" horiz-adv-x="647" 
d="M537 987l-248 -930q70 45 153.5 139.5t161.5 219.5l23 -13q-114 -200 -230 -311.5t-215 -111.5q-50 0 -68.5 35.5t-0.5 103.5l247 930q-70 -45 -153.5 -139.5t-161.5 -219.5l-22 12q118 202 232 313t212 111q50 0 69 -35.5t1 -103.5zM516 1257q-51 0 -86 35t-35 86
q0 53 34.5 87t86.5 34q54 0 87.5 -33.5t33.5 -87.5q0 -52 -34 -86.5t-87 -34.5z" />
    <glyph glyph-name="j" unicode="j" horiz-adv-x="571" 
d="M467 1126q50 0 69 -35.5t1 -103.5l-222 -827q-33 -125 -94.5 -230t-137 -174t-161 -107t-168.5 -38q-91 0 -137.5 34t-46.5 85q0 96 129 151q20 -91 75.5 -137.5t135.5 -46.5q62 0 100 88t113 375l237 889q-70 -45 -153.5 -139.5t-161.5 -219.5l-22 12q118 202 232 313
t212 111zM516 1499q54 0 87.5 -33.5t33.5 -87.5q0 -52 -34 -86.5t-87 -34.5q-51 0 -86 35t-35 86q0 53 34.5 87t86.5 34z" />
    <glyph glyph-name="k" unicode="k" horiz-adv-x="1130" 
d="M1077 416l23 -13q-114 -200 -230 -311.5t-215 -111.5q-43 0 -63.5 29.5t-38.5 109.5l-70 360q213 131 313.5 237.5t100.5 209.5q0 73 -78 73q-157 0 -325 -271.5t-291 -727.5h-193l385 1438l-123 100v4l371 117h4l-309 -1157q131 298 288.5 460t317.5 162q73 0 113.5 -32
t40.5 -91q0 -99 -118 -215.5t-323 -238.5l107 -488q140 86 313 357z" />
    <glyph glyph-name="l" unicode="l" horiz-adv-x="577" 
d="M647 1659l-428 -1604q70 45 154 140t162 221l22 -13q-114 -200 -229.5 -311.5t-214.5 -111.5q-50 0 -69 35.5t-1 103.5l352 1319l-125 100l2 4l371 117h4z" />
    <glyph glyph-name="m" unicode="m" horiz-adv-x="1910" 
d="M1874 416l22 -13q-114 -200 -229.5 -311.5t-214.5 -111.5q-50 0 -69 35.5t-1 103.5l201 745q35 133 -65 133q-65 0 -147 -73t-164.5 -200.5t-162.5 -317t-137 -406.5h-192l233 864q35 133 -65 133q-65 0 -147 -73t-164.5 -200.5t-162.5 -317t-137 -406.5h-192l278 1047
q-71 -46 -154 -139.5t-159 -217.5l-22 12q118 202 232 313t212 111q50 0 69 -35.5t1 -103.5l-148 -547q132 317 291 501.5t313 184.5q92 0 135.5 -68t14.5 -177l-119 -443q132 318 291 503t313 185q92 0 135.5 -68t14.5 -177l-219 -824q72 44 154.5 138t160.5 221z" />
    <glyph glyph-name="n" unicode="n" horiz-adv-x="1275" 
d="M1239 416l23 -13q-114 -200 -230 -311.5t-215 -111.5q-50 0 -68.5 35.5t-0.5 103.5l200 745q35 133 -65 133q-65 0 -147 -73t-164.5 -200.5t-162.5 -317t-137 -406.5h-192l282 1051q-71 -46 -155.5 -140.5t-161.5 -220.5l-22 12q118 202 232 313t212 111q50 0 69 -35.5
t1 -103.5l-148 -553q132 322 290 507t314 185q92 0 135.5 -68t14.5 -177l-219 -824q70 45 153.5 139.5t161.5 219.5z" />
    <glyph glyph-name="o" unicode="o" horiz-adv-x="1118" 
d="M451 12q77 0 145 51.5t116.5 134.5t84 186t52.5 208t17 199q0 147 -50 225t-148 78q-71 0 -133.5 -41t-106 -109t-78.5 -151t-55 -171.5t-30.5 -166.5t-10.5 -140q0 -144 50.5 -223.5t146.5 -79.5zM672 1126q180 0 285.5 -118t105.5 -310q0 -134 -48 -264t-129 -230
t-197 -162t-243 -62q-179 0 -284 118t-105 312q0 179 81 343.5t224 268.5t310 104z" />
    <glyph glyph-name="p" unicode="p" horiz-adv-x="1198" 
d="M494 16q67 0 138.5 54.5t131.5 143.5t109 194t76.5 213.5t27.5 195.5q0 166 -117 166q-52 0 -118 -52t-139 -153.5t-151.5 -273t-146.5 -387.5q97 -101 189 -101zM985 1126q101 0 149 -69t48 -191q0 -93 -25.5 -195t-71 -200.5t-113 -187.5t-146 -156t-176 -107
t-197.5 -40q-95 0 -177 32l-61 -227q-17 -60 11 -82.5t124 -34.5l45 -6l-6 -31h-551l6 31l41 6q73 17 99 39t39 78l337 1264q-70 -45 -153.5 -139.5t-161.5 -219.5l-22 12q118 202 232 313t212 111q50 0 69 -35.5t1 -103.5l-148 -549q144 349 297 518.5t299 169.5z" />
    <glyph glyph-name="q" unicode="q" horiz-adv-x="1124" 
d="M340 123q54 0 120 52.5t138.5 154.5t150.5 272.5t146 386.5q-90 101 -188 101q-83 0 -172.5 -84t-156.5 -206t-111 -262t-44 -249q0 -166 117 -166zM1122 1126h4l-360 -1341q-16 -60 -3.5 -80.5t68.5 -34.5l31 -8l-6 -31h-512l6 31l64 10q82 14 114 36t45 77l238 883
q-144 -349 -297 -518.5t-299 -169.5q-101 0 -149 69t-48 191q0 92 25.5 194.5t70.5 200.5t112.5 187t146 156.5t175.5 107.5t197 40q115 0 230 -53z" />
    <glyph glyph-name="r" unicode="r" horiz-adv-x="845" 
d="M860 1124q59 0 82.5 -33.5t15.5 -82t-38 -107.5q-91 55 -162 55q-61 0 -130 -92t-158 -306t-198 -558h-192l280 1051q-71 -45 -154 -139.5t-161 -221.5l-22 12q118 202 232 313t212 111q50 0 69 -35.5t1 -103.5l-138 -512q60 154 118 272t105.5 188t93 114t79 59.5
t65.5 15.5z" />
    <glyph glyph-name="s" unicode="s" horiz-adv-x="819" 
d="M258 -20q-133 0 -213 56t-80 138q0 43 24.5 84t69.5 66q18 -56 45.5 -105t66 -90.5t91 -65.5t113.5 -24q74 0 130 47.5t56 112.5q0 52 -40 106.5t-96.5 105.5t-113.5 106t-97 127.5t-40 150.5q0 136 100 233.5t271 97.5q134 0 211.5 -54.5t77.5 -127.5q0 -43 -28.5 -81
t-86.5 -62q-3 46 -21 93.5t-48.5 89t-79 67.5t-105.5 26q-82 0 -131 -52t-49 -124q0 -40 21.5 -82.5t56.5 -81t77 -78.5t83.5 -81.5t76.5 -84t56.5 -92.5t21.5 -100q0 -55 -26.5 -110.5t-76.5 -103.5t-133 -77.5t-184 -29.5z" />
    <glyph glyph-name="t" unicode="t" horiz-adv-x="700" 
d="M817 1106l-10 -41h-289l-270 -1030q79 29 181.5 131t201.5 250l22 -13q-126 -201 -247.5 -312t-219.5 -111q-68 0 -98 39t-8 122l244 924h-185l4 20l420 236h25l-58 -215h287z" />
    <glyph glyph-name="u" unicode="u" horiz-adv-x="1277" 
d="M1235 416l22 -13q-114 -200 -229.5 -311.5t-214.5 -111.5q-50 0 -69 35.5t-1 103.5l148 553q-129 -320 -288 -506t-316 -186q-92 0 -135.5 68t-14.5 177l219 824q-70 -45 -153.5 -139.5t-161.5 -219.5l-23 12q118 202 232.5 313t212.5 111q50 0 68.5 -35.5t0.5 -103.5
l-200 -745q-35 -133 65 -133q65 0 147 73t164.5 200.5t162.5 317t137 406.5h192l-282 -1051q71 46 155.5 140.5t161.5 220.5z" />
    <glyph glyph-name="v" unicode="v" horiz-adv-x="1089" 
d="M922 1116q105 0 139 -102.5t-2.5 -258.5t-128.5 -317q-74 -129 -169 -228.5t-223 -164.5t-264 -65q-89 0 -117.5 63t-2.5 160l225 846q-71 -45 -154.5 -139.5t-161.5 -219.5l-22 12q118 202 232 313t212 111q50 0 69 -35.5t1 -103.5l-227 -850q-16 -51 -5.5 -76.5
t58.5 -25.5q67 0 183 67t212 181q156 184 156 422q0 187 -111 391q53 20 101 20z" />
    <glyph glyph-name="w" unicode="w" horiz-adv-x="1724" 
d="M1559 1116q62 0 99.5 -39.5t47 -107t-2.5 -153.5t-48 -184.5t-90 -193.5q-113 -200 -284.5 -329t-371.5 -129q-89 0 -118 63t-3 160l125 463q-132 -319 -290 -502.5t-314 -183.5q-92 0 -135 68t-14 177l219 824q-71 -45 -154.5 -139.5t-161.5 -219.5l-22 12
q118 202 232 313t212 111q50 0 69 -35.5t1 -103.5l-201 -745q-35 -133 66 -133q65 0 146.5 73t164 200.5t162.5 317t137 406.5h193l-260 -969q-16 -51 -5.5 -76.5t58.5 -25.5q67 0 183 67t212 181q156 184 156 422q0 187 -111 391q53 20 103 20z" />
    <glyph glyph-name="x" unicode="x" horiz-adv-x="1110" 
d="M1004 956q-66 0 -160.5 -102.5t-198.5 -329.5l35 -473q72 41 159.5 138t168.5 227l22 -13q-114 -200 -229.5 -311.5t-214.5 -111.5q-46 0 -71.5 32t-31.5 107l-24 336q-55 -113 -112 -200t-103.5 -137.5t-91.5 -83t-77 -43.5t-59 -11q-53 0 -81.5 29.5t-28.5 74.5
q0 68 51 119q92 -56 162 -56q64 0 154 90.5t182 278.5l-41 539q-71 -38 -156.5 -133.5t-171.5 -231.5l-23 12q118 202 232.5 313t212.5 111q48 0 72 -31.5t30 -107.5l31 -405q61 131 122.5 232t110 158t95 93t78 47.5t59.5 11.5q54 0 84.5 -27t30.5 -71q0 -60 -56 -125
q-91 55 -161 55z" />
    <glyph glyph-name="y" unicode="y" horiz-adv-x="1181" 
d="M989 1116q77 0 115.5 -55.5t38.5 -155.5q0 -134 -45.5 -285t-124 -293t-189.5 -273t-236 -229t-269.5 -156t-284.5 -58q-125 0 -200 49.5t-75 140.5q0 61 35 107q172 -158 398 -158q161 0 313 82l-109 1223q-71 -38 -155.5 -133.5t-171.5 -231.5l-23 12
q118 202 232.5 313t212.5 111q48 0 71.5 -31t30.5 -108l94 -1026q151 138 241.5 327.5t90.5 379.5q0 125 -23 219.5t-71 208.5q53 20 104 20z" />
    <glyph glyph-name="z" unicode="z" horiz-adv-x="983" 
d="M922 1122q41 0 63.5 -19t22.5 -54q0 -57 -74 -119l-658 -557l279 -330q75 37 165.5 135.5t178.5 239.5l23 -15q-114 -200 -230 -311.5t-215 -111.5q-55 0 -126.5 52.5t-227.5 205.5q-45 -51 -58 -105.5t5 -142.5q-28 -8 -50 -8q-41 0 -69 22q-35 28 -24 76.5t69 99.5
l713 604l-238 279q-155 -80 -342 -373l-23 12q118 202 232.5 313t212.5 111q57 0 119.5 -41t171.5 -153q57 92 32 180q23 10 48 10z" />
    <glyph glyph-name="braceleft" unicode="{" horiz-adv-x="698" 
d="M123 629l6 33q178 36 215 204l94 449q26 123 128.5 192.5t260.5 69.5l-12 -55q-189 -23 -227 -201l-96 -447q-23 -102 -73 -150t-161 -79q78 -26 111.5 -59t33.5 -94q0 -44 -55 -287t-55 -293q0 -126 149 -145l-12 -56q-130 0 -207.5 55.5t-77.5 151.5q0 48 55.5 281.5
t55.5 281.5q0 121 -133 148z" />
    <glyph glyph-name="bar" unicode="|" horiz-adv-x="526" 
d="M561 1577l-401 -1866h-117l401 1866h117z" />
    <glyph glyph-name="braceright" unicode="}" horiz-adv-x="698" 
d="M623 659l-7 -32q-177 -35 -215 -205l-94 -449q-26 -123 -128.5 -192.5t-260.5 -69.5l12 56q191 23 228 200l96 447q23 102 72.5 150t160.5 79q-78 26 -111.5 59.5t-33.5 94.5q0 44 55.5 286.5t55.5 292.5q0 67 -41.5 102.5t-108.5 43.5l12 55q130 0 207.5 -55.5
t77.5 -151.5q0 -48 -55.5 -281.5t-55.5 -281.5q0 -121 134 -148z" />
    <glyph glyph-name="asciitilde" unicode="~" horiz-adv-x="1075" 
d="M733 539q-45 0 -85 19t-69 46.5t-57.5 55t-62.5 46.5t-72 19q-69 0 -120 -35.5t-115 -111.5l-33 24q67 82 128 123t140 41q98 0 186 -92q42 -46 78.5 -70t81.5 -24q112 0 242 149l31 -27q-62 -80 -126 -121.5t-147 -41.5z" />
    <glyph glyph-name="uni00A0" unicode="&#xa0;" horiz-adv-x="438" 
 />
    <glyph glyph-name="exclamdown" unicode="&#xa1;" horiz-adv-x="481" 
d="M238 633h24l-59 -797q-6 -87 -44 -135.5t-100 -48.5q-71 0 -93 60.5t7 142.5zM328 1118q53 0 88 -35.5t35 -87.5q0 -54 -34.5 -90.5t-88.5 -36.5t-89.5 36.5t-35.5 90.5q0 51 35.5 87t89.5 36z" />
    <glyph glyph-name="cent" unicode="&#xa2;" horiz-adv-x="991" 
d="M317 590q0 -120 37 -206.5t111 -111.5l207 985q-90 -11 -173 -114t-132.5 -253.5t-49.5 -299.5zM1008 1092q0 -67 -47 -118.5t-125 -55.5q15 313 -123 337l-209 -991h16q99 0 200.5 87t176.5 237l23 -13q-80 -177 -194.5 -286.5t-244.5 -132.5l-63 -295h-41l61 291h-14
q-101 0 -172 57t-104 148.5t-33 207.5q0 124 39.5 248.5t110 228.5t179.5 174t238 80l63 303h41l-63 -301q141 0 213 -60.5t72 -145.5z" />
    <glyph glyph-name="sterling" unicode="&#xa3;" horiz-adv-x="1294" 
d="M350 174h490q206 0 358 227h27l-213 -401h-963l4 20q105 49 205.5 134.5t153.5 181.5q62 111 20 211h-338l10 41h312q-5 10 -25 48.5t-33.5 67.5t-23.5 60h-193l9 41h172q-17 66 -17 125q0 243 147.5 383.5t387.5 140.5q235 0 403 -117l-65 -311h-21q-10 82 -34.5 149.5
t-66 122t-105.5 85t-146 30.5q-148 0 -235 -98.5t-87 -239.5q0 -18 2.5 -36.5t4.5 -33t9 -35.5t10 -32t13 -35t13.5 -31.5t15.5 -34.5t14 -32h518l-8 -41h-491q47 -110 49 -176h405l-10 -41h-397q-13 -220 -281 -373z" />
    <glyph glyph-name="currency" unicode="&#xa4;" horiz-adv-x="1257" 
d="M348 719q0 -136 85 -220.5t222 -84.5q139 0 223.5 84t82.5 221q0 136 -84.5 220.5t-221.5 84.5t-222 -84.5t-85 -220.5zM1001 719q0 -146 -81 -236l237 -235l-31 -29l-235 236q-91 -82 -236 -82q-141 0 -233 80l-234 -234l-30 29l233 231q-84 104 -84 240q0 141 84 237
l-233 232l30 29l232 -232q92 80 235 80t238 -82l233 234l31 -29l-235 -234q79 -91 79 -235z" />
    <glyph glyph-name="yen" unicode="&#xa5;" horiz-adv-x="1355" 
d="M1061 1403l6 31h436l-6 -31l-51 -10q-27 -5 -41.5 -9t-39 -14.5t-46 -30t-41.5 -47.5l-457 -624h387l-8 -41h-403l-47 -226h401l-8 -41h-404l-43 -206q-12 -59 17.5 -81.5t93.5 -31.5l70 -10l-7 -31h-622l6 31l74 10q45 6 72 14t53 33t34 66l43 206h-403l8 41h406l47 226
h-404l9 41h380l-235 628q-11 31 -37.5 59t-56.5 38l-29 10l6 31h500l-6 -31l-68 -10q-61 -9 -82.5 -27t-3.5 -70l223 -608l443 604q44 60 12 76q-39 17 -96 25z" />
    <glyph glyph-name="brokenbar" unicode="&#xa6;" horiz-adv-x="438" 
d="M76 -240h-47l157 744h47zM307 854h-47l158 743h47z" />
    <glyph glyph-name="section" unicode="&#xa7;" horiz-adv-x="1353" 
d="M860 -119q99 37 159 117.5t60 194.5q0 56 -33.5 121.5t-87 128t-118.5 128.5t-130 133t-118.5 132t-87 134t-33.5 130q0 49 14 84q-98 -34 -158.5 -114.5t-60.5 -197.5q0 -56 33.5 -121.5t87 -128t118.5 -128.5t130 -133t118.5 -132t87 -134t33.5 -130q0 -49 -14 -84z
M1243 332q0 -157 -114 -292.5t-277 -182.5q-45 -105 -159 -175.5t-263 -70.5q-89 0 -143 36t-54 83q0 34 28 63t83 49q19 -75 72 -123.5t141 -48.5q71 0 111.5 49.5t40.5 130.5q0 50 -33.5 109.5t-87 119t-118 123.5t-129.5 130.5t-118.5 131.5t-87 135.5t-33.5 133.5
q0 159 114 293.5t278 181.5q45 107 158 176.5t263 69.5q61 0 108.5 -17.5t67.5 -45t21 -58.5t-28 -61t-83 -49q-15 73 -70 122.5t-143 49.5q-71 0 -111 -50t-40 -131q0 -50 33.5 -109.5t87 -119t118 -123.5t129 -130.5t118 -131t87 -135t33.5 -133.5z" />
    <glyph glyph-name="dieresis" unicode="&#xa8;" 
d="M586 1257q-51 0 -84 33t-33 84t33 84t84 33t83.5 -33t32.5 -84t-32.5 -84t-83.5 -33zM991 1257q-51 0 -84 33t-33 84t33 84t84 33t84 -33t33 -84t-33 -84t-84 -33z" />
    <glyph glyph-name="copyright" unicode="&#xa9;" horiz-adv-x="1839" 
d="M954 -55q223 0 400 96.5t278 274.5t101 407q0 230 -101 408.5t-278 275t-400 96.5t-399.5 -96.5t-276.5 -274.5t-100 -409q0 -172 58.5 -317.5t161 -246.5t246 -157.5t310.5 -56.5zM997 281q-132 0 -240 52.5t-173.5 154.5t-65.5 235t65.5 235t175 154.5t245.5 52.5
q156 0 278 -65l10 -219h-16q-30 111 -104 182.5t-166 71.5q-118 0 -185 -110t-67 -300q0 -192 70 -303t194 -111q97 0 169.5 70.5t92.5 183.5h14v-217q-146 -67 -297 -67zM954 -92q-233 0 -418 100t-291 286.5t-106 428.5q0 179 61.5 331t169.5 257t259 164t325 59
q236 0 422 -101t291 -286t105 -424q0 -182 -61.5 -334.5t-169.5 -258t-259 -164t-328 -58.5z" />
    <glyph glyph-name="ordfeminine" unicode="&#xaa;" horiz-adv-x="1095" 
d="M432 664q37 0 84.5 38.5t102.5 116t117 215t118 316.5q-71 71 -137 71q-84 0 -172 -114.5t-141.5 -264t-53.5 -260.5q0 -118 82 -118zM1100 881l16 -11q-94 -168 -187.5 -256t-178.5 -88q-46 0 -66 34t-2 97l145 537q-125 -352 -256.5 -510t-261.5 -158q-159 0 -159 211
q0 191 105 372.5t273 276.5q112 64 228 64q95 0 186 -39l137 39h2l-225 -844q118 75 244 275z" />
    <glyph glyph-name="guillemotleft" unicode="&#xab;" horiz-adv-x="929" 
d="M545 963v-2l-252 -439l80 -377l-4 -2l-275 408v4zM442 555l451 408v-2l-252 -439l80 -377l-4 -2l-275 408v4z" />
    <glyph glyph-name="uni00AD" unicode="&#xad;" horiz-adv-x="696" 
d="M645 696h-532l8 41h532z" />
    <glyph glyph-name="registered" unicode="&#xae;" horiz-adv-x="1114" 
d="M655 592q185 0 311 121t126 311t-127 310t-312 120q-119 0 -217.5 -53t-157.5 -152t-59 -225q0 -190 125.5 -311t310.5 -121zM608 1233v-199h37q86 0 86 103q0 96 -90 96h-33zM655 1485q200 0 334.5 -127.5t134.5 -333.5t-134.5 -334.5t-334.5 -128.5q-198 0 -333.5 129
t-135.5 334q0 136 63.5 242.5t170 162.5t235.5 56zM842 1141q0 -77 -90 -115l137 -180v-21h-117l-117 185h-47v-129q0 -30 35 -33l19 -2v-21h-211v21l16 2q37 4 37 33v319q0 29 -37 33l-16 2v20h190q94 0 147.5 -30t53.5 -84z" />
    <glyph glyph-name="macron" unicode="&#xaf;" 
d="M1085 1292h-628l8 41h629z" />
    <glyph glyph-name="degree" unicode="&#xb0;" horiz-adv-x="724" 
d="M465 909q-110 0 -176 65.5t-66 174.5q0 132 86 218.5t215 86.5q108 0 173 -66.5t65 -177.5q0 -129 -84 -215t-213 -86zM469 950q109 0 180.5 71.5t71.5 180.5q0 97 -55.5 154t-147.5 57q-111 0 -182.5 -73.5t-71.5 -188.5q0 -92 55.5 -146.5t149.5 -54.5z" />
    <glyph glyph-name="plusminus" unicode="&#xb1;" horiz-adv-x="1103" 
d="M696 1094l-69 -330h411l-8 -41h-412l-69 -326h-41l70 326h-406l8 41h406l69 330h41zM930 156h-901l8 41h901z" />
    <glyph glyph-name="twosuperior" unicode="&#xb2;" horiz-adv-x="690" 
d="M592 573h-567l6 27q115 93 197.5 167t159 155.5t116 154.5t39.5 135q0 59 -34 91t-91 32q-122 0 -207 -129l-16 11q65 111 154.5 169t189.5 58q98 0 152 -52.5t54 -129.5q0 -64 -40 -132t-115 -136t-161.5 -129.5t-199.5 -129.5l2 -6h232q138 0 229 121h21z" />
    <glyph glyph-name="threesuperior" unicode="&#xb3;" horiz-adv-x="677" 
d="M336 561q-115 0 -187.5 40.5t-72.5 98.5q0 59 63 93q43 -82 104 -138.5t128 -56.5q58 0 96.5 54t38.5 126q0 79 -53 122.5t-146 43.5q-33 0 -71 -6l-5 23q131 64 216 139.5t85 154.5q0 46 -27 68.5t-73 22.5q-66 0 -124 -38.5t-99 -99.5l-16 9q60 106 153 167.5t195 61.5
q81 0 129.5 -37.5t48.5 -103.5q0 -82 -78.5 -143t-220.5 -118v-6q124 2 195 -51t71 -149q0 -119 -100.5 -198t-249.5 -79z" />
    <glyph glyph-name="acute" unicode="&#xb4;" 
d="M909 1513h256v-4l-430 -311h-10z" />
    <glyph glyph-name="paragraph" unicode="&#xb6;" horiz-adv-x="1349" 
d="M905 1434h588l-10 -41h-205l-375 -1762h-41l375 1762h-293l-375 -1762h-41l174 820h-8q-271 0 -424 121.5t-153 316.5q0 112 40.5 203.5t111.5 154.5t170.5 105.5t216 62t249.5 19.5z" />
    <glyph glyph-name="periodcentered" unicode="&#xb7;" horiz-adv-x="440" 
d="M252 590q-51 0 -87 36t-36 87q0 54 36 90.5t87 36.5q54 0 89.5 -36.5t35.5 -90.5q0 -51 -35.5 -87t-89.5 -36z" />
    <glyph glyph-name="cedilla" unicode="&#xb8;" 
d="M528 6l-67 -94q69 -21 111 -64.5t42 -101.5q0 -66 -45 -114t-117.5 -72t-144 -34.5t-145.5 -10.5l-2 71q70 -20 143 -20q81 0 129.5 30.5t48.5 92.5q0 86 -166 121l158 196h55z" />
    <glyph glyph-name="onesuperior" unicode="&#xb9;" horiz-adv-x="514" 
d="M475 573h-438l6 31l63 4q68 9 78 54l127 593q7 33 -2.5 42.5t-42.5 9.5h-90l6 24l330 113h16l-166 -782q-5 -27 9 -37t49 -15l61 -6z" />
    <glyph glyph-name="ordmasculine" unicode="&#xba;" horiz-adv-x="978" 
d="M678 1450q151 0 238.5 -95t87.5 -251q0 -147 -66 -279.5t-184 -215.5t-256 -83q-148 0 -236 96t-88 252q0 147 65.5 279t183 214.5t255.5 82.5zM496 553q75 0 141 77.5t106.5 186t61.5 232.5q30 176 -2 275t-123 99q-71 0 -133.5 -67.5t-102.5 -168.5t-63 -211.5
t-23 -203.5q0 -105 35.5 -162t102.5 -57z" />
    <glyph glyph-name="guillemotright" unicode="&#xbb;" horiz-adv-x="929" 
d="M213 963l274 -408v-4l-450 -408v2l252 439l-80 377zM557 961l4 2l275 -408v-4l-451 -408v2l252 439z" />
    <glyph glyph-name="onequarter" unicode="&#xbc;" horiz-adv-x="1656" 
d="M1559 258l-9 -37h-123l-28 -133q-6 -27 5.5 -37.5t39.5 -15.5l47 -4l-6 -31h-387l6 31l49 4q31 5 47.5 16.5t22.5 36.5l28 133h-360l-10 31l487 608h172l-2 -12l-608 -590h327l62 287l186 49l-71 -336h125zM420 610l61 -6l-6 -31h-438l6 31l63 4q68 9 78 54l127 593
q7 33 -2.5 42.5t-42.5 9.5h-90l6 24l330 113h16l-166 -782q-5 -27 9 -37t49 -15zM193 -25l-29 25l1341 1456l27 -24z" />
    <glyph glyph-name="onehalf" unicode="&#xbd;" horiz-adv-x="1650" 
d="M1552 276l-120 -276h-568l6 27q115 93 197.5 167t159 155.5t116 154.5t39.5 135q0 59 -34 91t-91 32q-121 0 -206 -129l-17 10q65 111 154.5 169t189.5 58q98 0 152.5 -52.5t54.5 -129.5q0 -64 -40 -131.5t-115 -135.5t-161.5 -129.5t-199.5 -129.5l2 -6h232
q139 0 229 120h20zM481 604l-6 -31h-438l6 31l63 4q68 9 78 54l127 593q7 33 -2.5 42.5t-42.5 9.5h-90l6 24l330 113h16l-166 -782q-5 -27 9 -37t49 -15zM1505 1456l27 -24l-1339 -1457l-29 25z" />
    <glyph glyph-name="threequarters" unicode="&#xbe;" horiz-adv-x="1744" 
d="M686 836q0 -119 -100.5 -198t-249.5 -79q-115 0 -187.5 40.5t-72.5 98.5q0 59 63 93q43 -82 104 -138.5t128 -56.5q58 0 96.5 54t38.5 126q0 79 -53 122.5t-146 43.5q-33 0 -71 -6l-5 22q61 30 112 62t95 69.5t69 80t25 83.5q0 45 -27 67.5t-73 22.5q-66 0 -124 -38
t-99 -99l-16 8q60 106 153 168t195 62q81 0 129.5 -37.5t48.5 -103.5q0 -82 -78.5 -143t-220.5 -118v-6q124 2 195 -51t71 -149zM281 -25l-29 25l1341 1456l27 -24zM1647 258l-9 -37h-122l-29 -133q-6 -27 5.5 -37.5t39.5 -15.5l47 -4l-6 -31h-387l6 31l49 4q31 5 47.5 16.5
t22.5 36.5l28 133h-360l-10 31l487 608h172l-2 -12l-608 -590h328l61 287l186 49l-71 -336h125z" />
    <glyph glyph-name="questiondown" unicode="&#xbf;" horiz-adv-x="780" 
d="M121 -260q85 0 210.5 50t227.5 128q35 -71 23 -123q-21 -72 -104 -107.5t-199 -35.5q-56 0 -109 10.5t-101 34t-83.5 57t-56.5 82.5t-21 107q0 79 41 150.5t112.5 125.5t162.5 94.5t196 63.5l90 252h20l-67 -418q-122 -25 -232 -77t-182 -123t-72 -142q0 -56 32.5 -92.5
t111.5 -36.5zM600 1118q53 0 88 -35.5t35 -87.5q0 -54 -34.5 -90.5t-88.5 -36.5t-89.5 36.5t-35.5 90.5q0 51 35.5 87t89.5 36z" />
    <glyph glyph-name="Agrave" unicode="&#xc0;" horiz-adv-x="1384" 
d="M879 588l-111 719l-397 -719h508zM1274 41l49 -10l-6 -31h-547l6 31l64 10q67 11 90 33.5t16 72.5l-61 400h-537l-221 -400q-31 -51 -13 -73.5t101 -32.5l80 -10l-6 -31h-430l6 31l51 10q66 12 98 33.5t58 72.5l714 1287h162l215 -1289q7 -49 30.5 -70.5t80.5 -33.5z
M600 1841h248l61 -315h-10l-299 311v4z" />
    <glyph glyph-name="Aacute" unicode="&#xc1;" horiz-adv-x="1384" 
d="M879 588l-111 719l-397 -719h508zM786 1434h162l215 -1289q7 -49 30.5 -70.5t80.5 -33.5l49 -10l-6 -31h-547l6 31l64 10q67 11 90 33.5t16 72.5l-61 400h-537l-221 -400q-31 -51 -13 -73.5t101 -32.5l80 -10l-6 -31h-430l6 31l51 10q66 12 98 33.5t58 72.5zM854 1528
h-10l184 315h256v-4z" />
    <glyph glyph-name="Acircumflex" unicode="&#xc2;" horiz-adv-x="1384" 
d="M879 588l-111 719l-397 -719h508zM1274 41l49 -10l-6 -31h-547l6 31l64 10q67 11 90 33.5t16 72.5l-61 400h-537l-221 -400q-31 -51 -13 -73.5t101 -32.5l80 -10l-6 -31h-430l6 31l51 10q66 12 98 33.5t58 72.5l714 1287h162l215 -1289q7 -49 30.5 -70.5t80.5 -33.5z
M1194 1544l-8 -8l-246 150l-334 -150l-4 6l363 318h4z" />
    <glyph glyph-name="Atilde" unicode="&#xc3;" horiz-adv-x="1384" 
d="M879 588l-111 719l-397 -719h508zM1274 41l49 -10l-6 -31h-547l6 31l64 10q67 11 90 33.5t16 72.5l-61 400h-537l-221 -400q-31 -51 -13 -73.5t101 -32.5l80 -10l-6 -31h-430l6 31l51 10q66 12 98 33.5t58 72.5l714 1287h162l215 -1289q7 -49 30.5 -70.5t80.5 -33.5z
M748 1661q-39 0 -77 -24.5t-63 -65.5l-14 2q102 217 223 217q34 0 66.5 -14.5t58 -36t50 -42.5t53.5 -35.5t59 -14.5q81 0 137 100l14 -2q-100 -223 -227 -223q-44 0 -85 21.5t-67.5 48t-61 48t-66.5 21.5z" />
    <glyph glyph-name="Adieresis" unicode="&#xc4;" horiz-adv-x="1384" 
d="M879 588l-111 719l-397 -719h508zM1274 41l49 -10l-6 -31h-547l6 31l64 10q67 11 90 33.5t16 72.5l-61 400h-537l-221 -400q-31 -51 -13 -73.5t101 -32.5l80 -10l-6 -31h-430l6 31l51 10q66 12 98 33.5t58 72.5l714 1287h162l215 -1289q7 -49 30.5 -70.5t80.5 -33.5z
M731 1606q-51 0 -84 32.5t-33 83.5t33 84t84 33t84 -33t33 -84t-33 -83.5t-84 -32.5zM1137 1606q-51 0 -84 32.5t-33 83.5t33 84t84 33t83.5 -33t32.5 -84t-32.5 -83.5t-83.5 -32.5z" />
    <glyph glyph-name="Aring" unicode="&#xc5;" horiz-adv-x="1384" 
d="M879 588l-111 719l-397 -719h508zM942 1853q-63 0 -107 -44t-44 -107q0 -59 38.5 -95t96.5 -36q66 0 109.5 42t43.5 105q0 60 -38.5 97.5t-98.5 37.5zM1274 41l49 -10l-6 -31h-547l6 31l64 10q67 11 90 33.5t16 72.5l-61 400h-537l-221 -400q-31 -51 -13 -73.5t101 -32.5
l80 -10l-6 -31h-430l6 31l51 10q66 12 98 33.5t58 72.5l714 1287h162l215 -1289q7 -49 30.5 -70.5t80.5 -33.5zM920 1528q-79 0 -128 47.5t-49 124.5q0 85 59.5 141.5t147.5 56.5q78 0 127 -47t49 -125q0 -85 -59 -141.5t-147 -56.5z" />
    <glyph glyph-name="AE" unicode="&#xc6;" horiz-adv-x="1955" 
d="M965 715l112 536l-424 -536h312zM985 1393l-63 10l6 31h1016l-27 -441l-23 -6q-30 406 -311 406h-266l-135 -637h198q56 0 89.5 18t65.5 70t71 160h20l-115 -537h-20q6 67 6 109.5t-6 71.5t-22 42.5t-38 19t-59 5.5h-198l-144 -674h301q118 0 204.5 35t167 128.5
t155.5 256.5h22l-162 -461h-1093l6 31l67 10q31 4 50.5 9.5t41.5 17.5t36 33t20 53l110 520h-335l-433 -547q-34 -41 -23 -58.5t81 -23.5l53 -4l-10 -41h-365l10 41l33 4q104 13 160 80l960 1202q-5 32 -31 45.5t-71 20.5z" />
    <glyph glyph-name="Ccedilla" unicode="&#xc7;" horiz-adv-x="1406" 
d="M973 1454q259 0 493 -137l-47 -316h-20q-20 198 -134.5 310t-297.5 112q-91 0 -173.5 -30t-147.5 -81.5t-120.5 -121.5t-95 -150t-67 -166t-41 -170.5t-13.5 -162.5q0 -235 114 -383t300 -148q169 0 323 120t232 302h18l-75 -354q-225 -98 -461 -98q-30 0 -84 4l-51 -72
q69 -21 111 -64.5t42 -101.5q0 -66 -45 -114t-117.5 -72t-144 -34.5t-145.5 -10.5l-2 71q70 -20 143 -20q81 0 129.5 30.5t48.5 92.5q0 86 -166 121l146 180q-238 37 -378.5 197.5t-140.5 410.5q0 182 70.5 343t188.5 272.5t276.5 176t331.5 64.5z" />
    <glyph glyph-name="Egrave" unicode="&#xc8;" horiz-adv-x="1263" 
d="M229 1403l7 31h1015l-26 -441l-23 -6q-30 406 -311 406h-266l-136 -637h199q56 0 89.5 18t64.5 70t71 160h21l-115 -537h-20q6 67 6 109.5t-6 71.5t-22 42.5t-38 19t-59 5.5h-199l-143 -674h301q88 0 156.5 19t133.5 66t122 129t114 206h23l-162 -461h-1094l7 31l67 10
q31 4 50.5 9.5t41.5 17.5t36 33t20 53l237 1126q15 59 -11.5 81.5t-86.5 31.5zM803 1841l61 -315h-10l-299 311v4h248z" />
    <glyph glyph-name="Eacute" unicode="&#xc9;" horiz-adv-x="1263" 
d="M293 1393l-64 10l7 31h1015l-26 -441l-23 -6q-30 406 -311 406h-266l-136 -637h199q56 0 89.5 18t64.5 70t71 160h21l-115 -537h-20q6 67 6 109.5t-6 71.5t-22 42.5t-38 19t-59 5.5h-199l-143 -674h301q88 0 156.5 19t133.5 66t122 129t114 206h23l-162 -461h-1094l7 31
l67 10q31 4 50.5 9.5t41.5 17.5t36 33t20 53l237 1126q15 59 -11.5 81.5t-86.5 31.5zM799 1528l184 315h256v-4l-430 -311h-10z" />
    <glyph glyph-name="Ecircumflex" unicode="&#xca;" horiz-adv-x="1263" 
d="M229 1403l7 31h1015l-26 -441l-23 -6q-30 406 -311 406h-266l-136 -637h199q56 0 89.5 18t64.5 70t71 160h21l-115 -537h-20q6 67 6 109.5t-6 71.5t-22 42.5t-38 19t-59 5.5h-199l-143 -674h301q88 0 156.5 19t133.5 66t122 129t114 206h23l-162 -461h-1094l7 31l67 10
q31 4 50.5 9.5t41.5 17.5t36 33t20 53l237 1126q15 59 -11.5 81.5t-86.5 31.5zM1141 1536l-246 150l-334 -150l-4 6l363 318h4l225 -316z" />
    <glyph glyph-name="Edieresis" unicode="&#xcb;" horiz-adv-x="1263" 
d="M229 1403l7 31h1015l-26 -441l-23 -6q-30 406 -311 406h-266l-136 -637h199q56 0 89.5 18t64.5 70t71 160h21l-115 -537h-20q6 67 6 109.5t-6 71.5t-22 42.5t-38 19t-59 5.5h-199l-143 -674h301q88 0 156.5 19t133.5 66t122 129t114 206h23l-162 -461h-1094l7 31l67 10
q31 4 50.5 9.5t41.5 17.5t36 33t20 53l237 1126q15 59 -11.5 81.5t-86.5 31.5zM686 1606q-51 0 -84 32.5t-33 83.5t33 84t84 33t84 -33t33 -84t-33 -83.5t-84 -32.5zM1092 1606q-51 0 -84 32.5t-33 83.5t33 84t84 33t83.5 -33t32.5 -84t-32.5 -83.5t-83.5 -32.5z" />
    <glyph glyph-name="Igrave" unicode="&#xcc;" horiz-adv-x="684" 
d="M518 0h-586l7 31l67 10q31 4 50.5 9.5t41.5 17.5t36 33t20 53l237 1126q15 59 -11.5 81.5t-86.5 31.5l-64 10l7 31h585l-6 -31l-67 -10q-62 -9 -97 -31t-51 -82l-238 -1126q-12 -60 14.5 -82t84.5 -31l63 -10zM571 1526h-10l-299 311v4h248z" />
    <glyph glyph-name="Iacute" unicode="&#xcd;" horiz-adv-x="684" 
d="M518 0h-586l7 31l67 10q31 4 50.5 9.5t41.5 17.5t36 33t20 53l237 1126q15 59 -11.5 81.5t-86.5 31.5l-64 10l7 31h585l-6 -31l-67 -10q-62 -9 -97 -31t-51 -82l-238 -1126q-12 -60 14.5 -82t84.5 -31l63 -10zM690 1843h256v-4l-430 -311h-10z" />
    <glyph glyph-name="Icircumflex" unicode="&#xce;" horiz-adv-x="684" 
d="M293 1393l-64 10l7 31h585l-6 -31l-67 -10q-62 -9 -97 -31t-51 -82l-238 -1126q-12 -60 14.5 -82t84.5 -31l63 -10l-6 -31h-586l7 31l67 10q31 4 50.5 9.5t41.5 17.5t36 33t20 53l237 1126q15 59 -11.5 81.5t-86.5 31.5zM627 1860h4l225 -316l-8 -8l-246 150l-334 -150
l-4 6z" />
    <glyph glyph-name="Idieresis" unicode="&#xcf;" horiz-adv-x="684" 
d="M518 0h-586l7 31l67 10q31 4 50.5 9.5t41.5 17.5t36 33t20 53l237 1126q15 59 -11.5 81.5t-86.5 31.5l-64 10l7 31h585l-6 -31l-67 -10q-62 -9 -97 -31t-51 -82l-238 -1126q-12 -60 14.5 -82t84.5 -31l63 -10zM393 1606q-51 0 -84 32.5t-33 83.5t33 84t84 33t84 -33
t33 -84t-33 -83.5t-84 -32.5zM799 1606q-51 0 -84 32.5t-33 83.5t33 84t84 33t83.5 -33t32.5 -84t-32.5 -83.5t-83.5 -32.5z" />
    <glyph glyph-name="Eth" unicode="&#xd0;" horiz-adv-x="1517" 
d="M483 696l-139 -655h219q128 0 239 44.5t193 123t141.5 183.5t89 228t29.5 254q0 233 -112.5 376t-313.5 143h-198l-139 -656h321l-8 -41h-322zM231 1403l7 31h593q195 0 343.5 -78.5t227.5 -217t79 -315.5q0 -183 -73 -338t-198.5 -261t-296.5 -165t-364 -59h-615l7 31
l59 10q84 13 114 35t42 78l114 542h-168l9 41h168l114 543q11 55 -7.5 79t-86.5 34z" />
    <glyph glyph-name="Ntilde" unicode="&#xd1;" horiz-adv-x="1550" 
d="M1243 1403l6 31h461l-6 -31l-74 -10q-33 -5 -54.5 -10t-45.5 -17t-39 -33t-21 -53l-270 -1280h-141l-615 1286l-239 -1132q-12 -59 17.5 -81.5t92.5 -31.5l70 -10l-6 -31h-461l6 31l74 10q33 5 54.5 10t45.5 17t39 33t21 53l237 1126q12 60 -12.5 82t-81.5 31l-61 10
l6 31h354l598 -1219l225 1065q12 60 -16.5 82t-93.5 31zM872 1661q-38 0 -76 -24.5t-63 -65.5l-14 2q102 217 223 217q34 0 66.5 -14.5t58 -36t50 -42.5t53.5 -35.5t59 -14.5q81 0 137 100l14 -2q-100 -223 -227 -223q-36 0 -69.5 14.5t-58.5 35t-49 40.5t-50.5 34.5
t-53.5 14.5z" />
    <glyph glyph-name="Ograve" unicode="&#xd2;" horiz-adv-x="1443" 
d="M621 8q93 0 176.5 43.5t147 118t115 172t84.5 208t50.5 223.5t17.5 220q0 212 -82 322t-235 110q-87 0 -165 -37t-136.5 -99t-107.5 -144.5t-82.5 -173.5t-56.5 -186.5t-33.5 -181.5t-10.5 -161q0 -211 83.5 -322.5t234.5 -111.5zM897 1454q241 0 380.5 -151.5
t139.5 -405.5q0 -115 -28 -229.5t-78.5 -215.5t-123.5 -188t-160 -149.5t-192.5 -98.5t-216.5 -36q-238 0 -379 153t-141 406q0 173 62 339t167 293t255 205t315 78zM889 1841l61 -315h-10l-299 311v4h248z" />
    <glyph glyph-name="Oacute" unicode="&#xd3;" horiz-adv-x="1443" 
d="M621 8q93 0 176.5 43.5t147 118t115 172t84.5 208t50.5 223.5t17.5 220q0 212 -82 322t-235 110q-87 0 -165 -37t-136.5 -99t-107.5 -144.5t-82.5 -173.5t-56.5 -186.5t-33.5 -181.5t-10.5 -161q0 -211 83.5 -322.5t234.5 -111.5zM897 1454q241 0 380.5 -151.5
t139.5 -405.5q0 -115 -28 -229.5t-78.5 -215.5t-123.5 -188t-160 -149.5t-192.5 -98.5t-216.5 -36q-238 0 -379 153t-141 406q0 173 62 339t167 293t255 205t315 78zM885 1528l184 315h256v-4l-430 -311h-10z" />
    <glyph glyph-name="Ocircumflex" unicode="&#xd4;" horiz-adv-x="1443" 
d="M621 8q93 0 176.5 43.5t147 118t115 172t84.5 208t50.5 223.5t17.5 220q0 212 -82 322t-235 110q-87 0 -165 -37t-136.5 -99t-107.5 -144.5t-82.5 -173.5t-56.5 -186.5t-33.5 -181.5t-10.5 -161q0 -211 83.5 -322.5t234.5 -111.5zM897 1454q241 0 380.5 -151.5
t139.5 -405.5q0 -115 -28 -229.5t-78.5 -215.5t-123.5 -188t-160 -149.5t-192.5 -98.5t-216.5 -36q-238 0 -379 153t-141 406q0 173 62 339t167 293t255 205t315 78zM1235 1544l-8 -8l-246 150l-334 -150l-4 6l363 318h4z" />
    <glyph glyph-name="Otilde" unicode="&#xd5;" horiz-adv-x="1443" 
d="M621 8q93 0 176.5 43.5t147 118t115 172t84.5 208t50.5 223.5t17.5 220q0 212 -82 322t-235 110q-87 0 -165 -37t-136.5 -99t-107.5 -144.5t-82.5 -173.5t-56.5 -186.5t-33.5 -181.5t-10.5 -161q0 -211 83.5 -322.5t234.5 -111.5zM897 1454q241 0 380.5 -151.5
t139.5 -405.5q0 -115 -28 -229.5t-78.5 -215.5t-123.5 -188t-160 -149.5t-192.5 -98.5t-216.5 -36q-238 0 -379 153t-141 406q0 173 62 339t167 293t255 205t315 78zM1069 1522q-36 0 -69.5 14.5t-58.5 35t-49 40.5t-50.5 34.5t-53.5 14.5q-38 0 -76 -24.5t-63 -65.5l-14 2
q102 217 223 217q34 0 66.5 -14.5t58 -36t50 -42.5t53.5 -35.5t59 -14.5q81 0 137 100l14 -2q-100 -223 -227 -223z" />
    <glyph glyph-name="Odieresis" unicode="&#xd6;" horiz-adv-x="1443" 
d="M621 8q93 0 176.5 43.5t147 118t115 172t84.5 208t50.5 223.5t17.5 220q0 212 -82 322t-235 110q-87 0 -165 -37t-136.5 -99t-107.5 -144.5t-82.5 -173.5t-56.5 -186.5t-33.5 -181.5t-10.5 -161q0 -211 83.5 -322.5t234.5 -111.5zM897 1454q241 0 380.5 -151.5
t139.5 -405.5q0 -115 -28 -229.5t-78.5 -215.5t-123.5 -188t-160 -149.5t-192.5 -98.5t-216.5 -36q-238 0 -379 153t-141 406q0 173 62 339t167 293t255 205t315 78zM772 1606q-51 0 -84 32.5t-33 83.5t33 84t84 33t84 -33t33 -84t-33 -83.5t-84 -32.5zM1178 1606
q-51 0 -84 32.5t-33 83.5t33 84t84 33t83.5 -33t32.5 -84t-32.5 -83.5t-83.5 -32.5z" />
    <glyph glyph-name="multiply" unicode="&#xd7;" horiz-adv-x="974" 
d="M506 629l-457 -379l-26 39l454 377l-293 372l37 33l297 -375l451 375l26 -39l-452 -373l293 -370l-37 -31z" />
    <glyph glyph-name="Oslash" unicode="&#xd8;" horiz-adv-x="1515" 
d="M338 442v-36q0 -25 2 -35l899 743q-20 152 -100 231.5t-209 79.5q-87 0 -165 -37t-136.5 -99t-107.5 -144.5t-82.5 -173.5t-56.5 -186.5t-33.5 -181.5t-10.5 -161zM1247 993v37q0 23 -2 33l-899 -741q23 -154 103 -234t206 -80q93 0 176.5 43.5t147.5 118t115.5 172
t84.5 207.5t50.5 223.5t17.5 220.5zM1370 1223l256 211l25 -35l-260 -215q61 -119 61 -287q0 -115 -28 -229.5t-78.5 -215.5t-123.5 -188t-160 -149.5t-192.5 -98.5t-216.5 -36q-147 0 -259 60.5t-179 172.5l-256 -211l-22 35l258 213q-62 124 -62 289q0 173 62 339t167 293
t255 205t315 78q150 0 262 -60.5t176 -170.5z" />
    <glyph glyph-name="Ugrave" unicode="&#xd9;" horiz-adv-x="1468" 
d="M672 -20q-124 0 -225.5 36.5t-167.5 105t-91.5 167.5t0.5 223l164 768q12 60 -12 82t-78 31l-57 10l6 31h571l-6 -31l-67 -10q-24 -4 -40 -7.5t-35 -11.5t-31.5 -19t-23.5 -30t-16 -45l-166 -780q-27 -141 13 -242q40 -99 133 -154t221 -55q184 0 287.5 115.5
t150.5 337.5l166 778q12 60 -17 82t-94 31l-67 10l6 31h457l-6 -31l-74 -10q-26 -4 -43.5 -7.5t-38.5 -11.5t-34.5 -19t-25 -30t-16.5 -45l-166 -778q-53 -252 -196 -387t-381 -135zM1012 1526h-11l-299 311v4h248z" />
    <glyph glyph-name="Uacute" unicode="&#xda;" horiz-adv-x="1468" 
d="M672 -20q-124 0 -225.5 36.5t-167.5 105t-91.5 167.5t0.5 223l164 768q12 60 -12 82t-78 31l-57 10l6 31h571l-6 -31l-67 -10q-24 -4 -40 -7.5t-35 -11.5t-31.5 -19t-23.5 -30t-16 -45l-166 -780q-27 -141 13 -242q40 -99 133 -154t221 -55q184 0 287.5 115.5
t150.5 337.5l166 778q12 60 -17 82t-94 31l-67 10l6 31h457l-6 -31l-74 -10q-26 -4 -43.5 -7.5t-38.5 -11.5t-34.5 -19t-25 -30t-16.5 -45l-166 -778q-53 -252 -196 -387t-381 -135zM1110 1843h256v-4l-430 -311h-10z" />
    <glyph glyph-name="Ucircumflex" unicode="&#xdb;" horiz-adv-x="1468" 
d="M1190 1403l6 31h457l-6 -31l-74 -10q-26 -4 -43.5 -7.5t-38.5 -11.5t-34.5 -19t-25 -30t-16.5 -45l-166 -778q-53 -252 -196 -387t-381 -135q-124 0 -225.5 36.5t-167.5 105t-91.5 167.5t0.5 223l164 768q12 60 -12 82t-78 31l-57 10l6 31h571l-6 -31l-67 -10
q-24 -4 -40 -7.5t-35 -11.5t-31.5 -19t-23.5 -30t-16 -45l-166 -780q-27 -141 13 -242q40 -99 133 -154t221 -55q184 0 287.5 115.5t150.5 337.5l166 778q12 60 -17 82t-94 31zM1288 1536l-246 150l-333 -150l-4 6l362 318h4l225 -316z" />
    <glyph glyph-name="Udieresis" unicode="&#xdc;" horiz-adv-x="1468" 
d="M672 -20q-124 0 -225.5 36.5t-167.5 105t-91.5 167.5t0.5 223l164 768q12 60 -12 82t-78 31l-57 10l6 31h571l-6 -31l-67 -10q-24 -4 -40 -7.5t-35 -11.5t-31.5 -19t-23.5 -30t-16 -45l-166 -780q-27 -141 13 -242q40 -99 133 -154t221 -55q184 0 287.5 115.5
t150.5 337.5l166 778q12 60 -17 82t-94 31l-67 10l6 31h457l-6 -31l-74 -10q-26 -4 -43.5 -7.5t-38.5 -11.5t-34.5 -19t-25 -30t-16.5 -45l-166 -778q-53 -252 -196 -387t-381 -135zM834 1606q-51 0 -84 32.5t-33 83.5t33 84t84 33t83.5 -33t32.5 -84t-32.5 -83.5
t-83.5 -32.5zM1239 1606q-51 0 -84 32.5t-33 83.5t33 84t84 33t84 -33t33 -84t-33 -83.5t-84 -32.5z" />
    <glyph glyph-name="Yacute" unicode="&#xdd;" horiz-adv-x="1292" 
d="M1079 1403l6 31h418l-6 -31l-45 -10q-55 -12 -88 -33t-70 -66l-516 -663l-100 -477q-12 -59 17.5 -81.5t92.5 -31.5l70 -10l-6 -31h-623l7 31l73 10q33 5 54.5 10t45.5 17t39 33t21 53l98 471l-284 673q-24 69 -99 95l-28 10l6 31h520l-6 -31l-80 -10q-60 -7 -81.5 -25.5
t-0.5 -69.5l256 -610l471 606q22 28 25.5 47t-13 29t-38 15t-58.5 8zM1253 1843v-4l-430 -311h-10l184 315h256z" />
    <glyph glyph-name="Thorn" unicode="&#xde;" horiz-adv-x="1267" 
d="M561 1098l-160 -760h187q206 0 321 120.5t115 334.5q0 137 -79 221t-208 84h-176zM600 1280l-31 -145h160q231 0 371.5 -104t140.5 -275q0 -214 -173 -334.5t-482 -120.5h-193l-31 -147q-12 -59 25 -81.5t115 -31.5l84 -10l-6 -31h-648l7 31l67 10q31 4 50.5 9.5
t41.5 17.5t36 33t20 53l237 1126q15 59 -11.5 81.5t-86.5 31.5l-64 10l7 31h647l-6 -31l-89 -10q-40 -4 -65.5 -9.5t-53 -17.5t-44.5 -33t-25 -53z" />
    <glyph glyph-name="germandbls" unicode="&#xdf;" horiz-adv-x="1320" 
d="M1319 1184q-62 -27 -102.5 -47t-86 -47.5t-72 -52.5t-44 -57t-17.5 -67q0 -53 33.5 -123t73 -129t73 -132.5t33.5 -131.5q0 -183 -125 -300t-329 -117q-117 0 -196 47.5t-79 115.5q0 77 97 138q30 -107 104.5 -180.5t159.5 -73.5t138.5 67t53.5 172q0 47 -22.5 101
t-54 104t-63.5 100.5t-54.5 106.5t-22.5 106q0 96 67.5 168.5t252.5 169.5q3 119 -19 232q-55 243 -229 243q-67 0 -121 -32t-97 -96t-76 -147.5t-65 -199.5l-258 -962q-33 -125 -94.5 -230t-137 -174t-161 -107t-168.5 -38q-91 0 -137.5 34t-46.5 85q0 96 129 151
q20 -91 75.5 -137.5t135.5 -46.5q62 0 100 88t113 375l242 905h-170l12 41l174 14q71 248 212 383t351 135q200 0 310 -124t108 -330z" />
    <glyph glyph-name="agrave" unicode="&#xe0;" horiz-adv-x="1210" 
d="M340 123q54 0 120 52.5t138.5 154.5t150.5 272.5t146 386.5q-90 101 -188 101q-83 0 -172.5 -84t-156.5 -206t-111 -262t-44 -249q0 -166 117 -166zM1171 416l23 -13q-114 -200 -229.5 -311.5t-214.5 -111.5q-50 0 -69 35.5t-1 103.5l190 698h-2q-155 -425 -323 -631
t-330 -206q-101 0 -149 69t-48 191q0 120 37.5 246.5t106.5 240t158.5 203.5t203 143t230.5 53q109 0 229 -57l154 57h4l-285 -1069q148 91 315 359zM553 1513h248l61 -315h-10l-299 311v4z" />
    <glyph glyph-name="aacute" unicode="&#xe1;" horiz-adv-x="1210" 
d="M340 123q54 0 120 52.5t138.5 154.5t150.5 272.5t146 386.5q-90 101 -188 101q-83 0 -172.5 -84t-156.5 -206t-111 -262t-44 -249q0 -166 117 -166zM1137 1126h4l-285 -1069q148 91 315 359l23 -13q-114 -200 -229.5 -311.5t-214.5 -111.5q-50 0 -69 35.5t-1 103.5
l190 698h-2q-155 -425 -323 -631t-330 -206q-101 0 -149 69t-48 191q0 120 37.5 246.5t106.5 240t158.5 203.5t203 143t230.5 53q109 0 229 -57zM807 1198h-10l184 315h256v-4z" />
    <glyph glyph-name="acircumflex" unicode="&#xe2;" horiz-adv-x="1210" 
d="M340 123q54 0 120 52.5t138.5 154.5t150.5 272.5t146 386.5q-90 101 -188 101q-83 0 -172.5 -84t-156.5 -206t-111 -262t-44 -249q0 -166 117 -166zM1171 416l23 -13q-114 -200 -229.5 -311.5t-214.5 -111.5q-50 0 -69 35.5t-1 103.5l190 698h-2q-155 -425 -323 -631
t-330 -206q-101 0 -149 69t-48 191q0 120 37.5 246.5t106.5 240t158.5 203.5t203 143t230.5 53q109 0 229 -57l154 57h4l-285 -1069q148 91 315 359zM1124 1217l-8 -9l-246 150l-333 -150l-5 6l363 318h4z" />
    <glyph glyph-name="atilde" unicode="&#xe3;" horiz-adv-x="1210" 
d="M340 123q54 0 120 52.5t138.5 154.5t150.5 272.5t146 386.5q-90 101 -188 101q-83 0 -172.5 -84t-156.5 -206t-111 -262t-44 -249q0 -166 117 -166zM1171 416l23 -13q-114 -200 -229.5 -311.5t-214.5 -111.5q-50 0 -69 35.5t-1 103.5l190 698h-2q-155 -425 -323 -631
t-330 -206q-101 0 -149 69t-48 191q0 120 37.5 246.5t106.5 240t158.5 203.5t203 143t230.5 53q109 0 229 -57l154 57h4l-285 -1069q148 91 315 359zM676 1374q-38 0 -76 -24.5t-63 -65.5l-15 2q102 217 223 217q34 0 66.5 -14.5t58 -35.5t50 -42.5t53.5 -36t59 -14.5
q81 0 137 100l15 -2q-100 -223 -228 -223q-44 0 -85 21.5t-67.5 48t-61 48t-66.5 21.5z" />
    <glyph glyph-name="adieresis" unicode="&#xe4;" horiz-adv-x="1210" 
d="M340 123q54 0 120 52.5t138.5 154.5t150.5 272.5t146 386.5q-90 101 -188 101q-83 0 -172.5 -84t-156.5 -206t-111 -262t-44 -249q0 -166 117 -166zM1171 416l23 -13q-114 -200 -229.5 -311.5t-214.5 -111.5q-50 0 -69 35.5t-1 103.5l190 698h-2q-155 -425 -323 -631
t-330 -206q-101 0 -149 69t-48 191q0 120 37.5 246.5t106.5 240t158.5 203.5t203 143t230.5 53q109 0 229 -57l154 57h4l-285 -1069q148 91 315 359zM657 1257q-51 0 -83.5 33t-32.5 84t32.5 84t83.5 33t84 -33t33 -84t-33 -84t-84 -33zM1063 1257q-51 0 -84 33t-33 84
t33 84t84 33t84 -33t33 -84t-33 -84t-84 -33z" />
    <glyph glyph-name="aring" unicode="&#xe5;" horiz-adv-x="1210" 
d="M340 123q54 0 120 52.5t138.5 154.5t150.5 272.5t146 386.5q-90 101 -188 101q-83 0 -172.5 -84t-156.5 -206t-111 -262t-44 -249q0 -166 117 -166zM870 1546q-63 0 -107 -44t-44 -107q0 -59 38.5 -95t96.5 -36q66 0 110 42t44 105q0 60 -39 97.5t-99 37.5zM1171 416
l23 -13q-114 -200 -229.5 -311.5t-214.5 -111.5q-50 0 -69 35.5t-1 103.5l190 698h-2q-155 -425 -323 -631t-330 -206q-101 0 -149 69t-48 191q0 120 37.5 246.5t106.5 240t158.5 203.5t203 143t230.5 53q109 0 229 -57l154 57h4l-285 -1069q148 91 315 359zM848 1221
q-78 0 -127 47t-49 125q0 85 59.5 141.5t147.5 56.5q78 0 127 -47t49 -125q0 -85 -59.5 -141.5t-147.5 -56.5z" />
    <glyph glyph-name="ae" unicode="&#xe6;" horiz-adv-x="1464" 
d="M586 315v37q0 177 81.5 355.5t217.5 291.5q-84 91 -178 91q-83 0 -172.5 -84t-156.5 -206t-111 -262t-44 -249q0 -166 117 -166q51 0 115 48.5t131 143.5zM1200 1085q-82 0 -165.5 -81.5t-143 -208t-84.5 -263.5q105 29 190 71.5t139 87.5t90 94.5t51 94t15 85.5
q0 54 -25.5 87t-66.5 33zM977 92q100 0 205.5 87.5t187.5 236.5l23 -13q-99 -197 -236 -310t-283 -113q-124 0 -195 79.5t-89 214.5q-193 -294 -375 -294q-101 0 -149 69t-48 191q0 92 25.5 194.5t70.5 200.5t112.5 187t146 156.5t175.5 107.5t197 40q121 0 242 -59
q109 59 236 59q109 0 171 -49.5t62 -126.5q0 -48 -23.5 -98.5t-75.5 -102.5t-126.5 -97.5t-185.5 -84t-244 -61.5q-10 -72 -10 -131q0 -127 45.5 -205t140.5 -78z" />
    <glyph glyph-name="ccedilla" unicode="&#xe7;" horiz-adv-x="944" 
d="M950 920q0 -67 -47 -119t-125 -56q15 340 -145 340q-95 0 -182.5 -101.5t-139 -256.5t-51.5 -309q0 -92 20.5 -163t67 -117t115.5 -46q99 0 200.5 87t176.5 237l22 -13q-89 -197 -219 -310t-276 -113h-23l-45 -64q69 -21 111.5 -64.5t42.5 -101.5q0 -53 -31 -95t-78 -67
t-110 -41t-120 -22t-114 -6l-2 71q70 -20 143 -20q81 0 129.5 30.5t48.5 92.5q0 86 -165 121l139 174q-114 28 -175 139.5t-61 265.5q0 104 26.5 208.5t79.5 198.5t125 167t170.5 116t207.5 43q141 0 212.5 -60.5t71.5 -145.5z" />
    <glyph glyph-name="egrave" unicode="&#xe8;" horiz-adv-x="923" 
d="M659 1085q-82 0 -165.5 -81.5t-143 -208t-84.5 -263.5q130 36 228.5 91t152.5 115.5t79.5 117t25.5 109.5q0 54 -26 87t-67 33zM436 92q100 0 205.5 87.5t187.5 236.5l23 -13q-99 -197 -235.5 -310t-282.5 -113q-97 0 -163.5 51t-96 133t-29.5 188q0 133 47.5 270
t129 249.5t203 183.5t257.5 71q109 0 171 -49.5t62 -126.5q0 -48 -23.5 -98.5t-75.5 -102.5t-126.5 -97.5t-185.5 -84t-244 -61.5q-10 -72 -10 -131q0 -127 45.5 -205t140.5 -78zM426 1513h248l61 -315h-10l-299 311v4z" />
    <glyph glyph-name="eacute" unicode="&#xe9;" horiz-adv-x="923" 
d="M659 1085q-82 0 -165.5 -81.5t-143 -208t-84.5 -263.5q130 36 228.5 91t152.5 115.5t79.5 117t25.5 109.5q0 54 -26 87t-67 33zM915 950q0 -48 -23.5 -98.5t-75.5 -102.5t-126.5 -97.5t-185.5 -84t-244 -61.5q-10 -72 -10 -131q0 -127 45.5 -205t140.5 -78
q100 0 205.5 87.5t187.5 236.5l23 -13q-99 -197 -235.5 -310t-282.5 -113q-97 0 -163.5 51t-96 133t-29.5 188q0 133 47.5 270t129 249.5t203 183.5t257.5 71q109 0 171 -49.5t62 -126.5zM639 1198h-10l184 315h256v-4z" />
    <glyph glyph-name="ecircumflex" unicode="&#xea;" horiz-adv-x="923" 
d="M659 1085q-82 0 -165.5 -81.5t-143 -208t-84.5 -263.5q130 36 228.5 91t152.5 115.5t79.5 117t25.5 109.5q0 54 -26 87t-67 33zM915 950q0 -48 -23.5 -98.5t-75.5 -102.5t-126.5 -97.5t-185.5 -84t-244 -61.5q-10 -72 -10 -131q0 -127 45.5 -205t140.5 -78
q100 0 205.5 87.5t187.5 236.5l23 -13q-99 -197 -235.5 -310t-282.5 -113q-97 0 -163.5 51t-96 133t-29.5 188q0 133 47.5 270t129 249.5t203 183.5t257.5 71q109 0 171 -49.5t62 -126.5zM385 1214l363 318h4l225 -315l-8 -9l-246 150l-334 -150z" />
    <glyph glyph-name="edieresis" unicode="&#xeb;" horiz-adv-x="923" 
d="M659 1085q-82 0 -165.5 -81.5t-143 -208t-84.5 -263.5q130 36 228.5 91t152.5 115.5t79.5 117t25.5 109.5q0 54 -26 87t-67 33zM915 950q0 -48 -23.5 -98.5t-75.5 -102.5t-126.5 -97.5t-185.5 -84t-244 -61.5q-10 -72 -10 -131q0 -127 45.5 -205t140.5 -78
q100 0 205.5 87.5t187.5 236.5l23 -13q-99 -197 -235.5 -310t-282.5 -113q-97 0 -163.5 51t-96 133t-29.5 188q0 133 47.5 270t129 249.5t203 183.5t257.5 71q109 0 171 -49.5t62 -126.5zM530 1257q-51 0 -83.5 33t-32.5 84t32.5 84t83.5 33t84 -33t33 -84t-33 -84t-84 -33z
M936 1491q51 0 84 -33t33 -84t-33 -84t-84 -33t-84 33t-33 84t33 84t84 33z" />
    <glyph glyph-name="igrave" unicode="&#xec;" horiz-adv-x="647" 
d="M604 416l23 -13q-114 -200 -230 -311.5t-215 -111.5q-50 0 -68.5 35.5t-0.5 103.5l247 930q-70 -45 -153.5 -139.5t-161.5 -219.5l-22 12q118 202 232 313t212 111q50 0 69 -35.5t1 -103.5l-248 -930q70 45 153.5 139.5t161.5 219.5zM459 1513l61 -315h-10l-299 311v4
h248z" />
    <glyph glyph-name="iacute" unicode="&#xed;" horiz-adv-x="647" 
d="M537 987l-248 -930q70 45 153.5 139.5t161.5 219.5l23 -13q-114 -200 -230 -311.5t-215 -111.5q-50 0 -68.5 35.5t-0.5 103.5l247 930q-70 -45 -153.5 -139.5t-161.5 -219.5l-22 12q118 202 232 313t212 111q50 0 69 -35.5t1 -103.5zM414 1198l184 315h256v-4l-430 -311
h-10z" />
    <glyph glyph-name="icircumflex" unicode="&#xee;" horiz-adv-x="647" 
d="M537 987l-248 -930q70 45 153.5 139.5t161.5 219.5l23 -13q-114 -200 -230 -311.5t-215 -111.5q-50 0 -68.5 35.5t-0.5 103.5l247 930q-70 -45 -153.5 -139.5t-161.5 -219.5l-22 12q118 202 232 313t212 111q50 0 69 -35.5t1 -103.5zM553 1532h4l225 -315l-8 -9l-246 150
l-333 -150l-5 6z" />
    <glyph glyph-name="idieresis" unicode="&#xef;" horiz-adv-x="647" 
d="M537 987l-248 -930q70 45 153.5 139.5t161.5 219.5l23 -13q-114 -200 -230 -311.5t-215 -111.5q-50 0 -68.5 35.5t-0.5 103.5l247 930q-70 -45 -153.5 -139.5t-161.5 -219.5l-22 12q118 202 232 313t212 111q50 0 69 -35.5t1 -103.5zM315 1257q-51 0 -83.5 33t-32.5 84
t32.5 84t83.5 33t84 -33t33 -84t-33 -84t-84 -33zM721 1491q51 0 84 -33t33 -84t-33 -84t-84 -33t-84 33t-33 84t33 84t84 33z" />
    <glyph glyph-name="eth" unicode="&#xf0;" horiz-adv-x="1122" 
d="M451 12q77 0 145 51.5t116.5 134.5t84 186t52.5 208t17 199q0 147 -50 225t-148 78q-71 0 -133.5 -41t-106 -109t-78.5 -151t-55 -171.5t-30.5 -166.5t-10.5 -140q0 -144 50.5 -223.5t146.5 -79.5zM1034 1571l13 -31l-293 -129q309 -271 309 -713q0 -190 -80.5 -354.5
t-223 -264t-313.5 -99.5q-179 0 -284 118t-105 312q0 179 81 343.5t224 268.5t310 104q110 0 198 -49q-41 182 -165 312l-355 -156l-12 31l340 149q-104 101 -299 201l12 16q197 -83 334 -196z" />
    <glyph glyph-name="ntilde" unicode="&#xf1;" horiz-adv-x="1275" 
d="M1239 416l23 -13q-114 -200 -230 -311.5t-215 -111.5q-50 0 -68.5 35.5t-0.5 103.5l200 745q35 133 -65 133q-65 0 -147 -73t-164.5 -200.5t-162.5 -317t-137 -406.5h-192l282 1051q-71 -46 -155.5 -140.5t-161.5 -220.5l-22 12q118 202 232 313t212 111q50 0 69 -35.5
t1 -103.5l-148 -553q132 322 290 507t314 185q92 0 135.5 -68t14.5 -177l-219 -824q70 45 153.5 139.5t161.5 219.5zM623 1374q-39 0 -77 -24.5t-63 -65.5l-14 2q102 217 223 217q34 0 66.5 -14.5t58 -35.5t50 -42.5t53.5 -36t59 -14.5q81 0 137 100l14 -2
q-100 -223 -227 -223q-44 0 -85 21.5t-67.5 48t-61 48t-66.5 21.5z" />
    <glyph glyph-name="ograve" unicode="&#xf2;" horiz-adv-x="1118" 
d="M451 12q77 0 145 51.5t116.5 134.5t84 186t52.5 208t17 199q0 147 -50 225t-148 78q-71 0 -133.5 -41t-106 -109t-78.5 -151t-55 -171.5t-30.5 -166.5t-10.5 -140q0 -144 50.5 -223.5t146.5 -79.5zM672 1126q180 0 285.5 -118t105.5 -310q0 -134 -48 -264t-129 -230
t-197 -162t-243 -62q-179 0 -284 118t-105 312q0 179 81 343.5t224 268.5t310 104zM680 1513l61 -315h-10l-299 311v4h248z" />
    <glyph glyph-name="oacute" unicode="&#xf3;" horiz-adv-x="1118" 
d="M451 12q77 0 145 51.5t116.5 134.5t84 186t52.5 208t17 199q0 147 -50 225t-148 78q-71 0 -133.5 -41t-106 -109t-78.5 -151t-55 -171.5t-30.5 -166.5t-10.5 -140q0 -144 50.5 -223.5t146.5 -79.5zM672 1126q180 0 285.5 -118t105.5 -310q0 -134 -48 -264t-129 -230
t-197 -162t-243 -62q-179 0 -284 118t-105 312q0 179 81 343.5t224 268.5t310 104zM635 1198l184 315h256v-4l-430 -311h-10z" />
    <glyph glyph-name="ocircumflex" unicode="&#xf4;" horiz-adv-x="1118" 
d="M451 12q77 0 145 51.5t116.5 134.5t84 186t52.5 208t17 199q0 147 -50 225t-148 78q-71 0 -133.5 -41t-106 -109t-78.5 -151t-55 -171.5t-30.5 -166.5t-10.5 -140q0 -144 50.5 -223.5t146.5 -79.5zM672 1126q180 0 285.5 -118t105.5 -310q0 -134 -48 -264t-129 -230
t-197 -162t-243 -62q-179 0 -284 118t-105 312q0 179 81 343.5t224 268.5t310 104zM1004 1217l-9 -9l-245 150l-334 -150l-4 6l362 318h4z" />
    <glyph glyph-name="otilde" unicode="&#xf5;" horiz-adv-x="1118" 
d="M451 12q77 0 145 51.5t116.5 134.5t84 186t52.5 208t17 199q0 147 -50 225t-148 78q-71 0 -133.5 -41t-106 -109t-78.5 -151t-55 -171.5t-30.5 -166.5t-10.5 -140q0 -144 50.5 -223.5t146.5 -79.5zM672 1126q180 0 285.5 -118t105.5 -310q0 -134 -48 -264t-129 -230
t-197 -162t-243 -62q-179 0 -284 118t-105 312q0 179 81 343.5t224 268.5t310 104zM836 1235q-36 0 -69.5 14.5t-58.5 35t-49 40.5t-50.5 34.5t-53.5 14.5q-38 0 -76 -24.5t-63 -65.5l-15 2q102 217 224 217q42 0 82 -22.5t67 -49t64 -49t73 -22.5q82 0 138 100l14 -2
q-100 -223 -227 -223z" />
    <glyph glyph-name="odieresis" unicode="&#xf6;" horiz-adv-x="1118" 
d="M451 12q77 0 145 51.5t116.5 134.5t84 186t52.5 208t17 199q0 147 -50 225t-148 78q-71 0 -133.5 -41t-106 -109t-78.5 -151t-55 -171.5t-30.5 -166.5t-10.5 -140q0 -144 50.5 -223.5t146.5 -79.5zM672 1126q180 0 285.5 -118t105.5 -310q0 -134 -48 -264t-129 -230
t-197 -162t-243 -62q-179 0 -284 118t-105 312q0 179 81 343.5t224 268.5t310 104zM537 1257q-51 0 -84 33t-33 84t33 84t84 33t83.5 -33t32.5 -84t-32.5 -84t-83.5 -33zM942 1257q-51 0 -84 33t-33 84t33 84t84 33t84 -33t33 -84t-33 -84t-84 -33z" />
    <glyph glyph-name="divide" unicode="&#xf7;" horiz-adv-x="1103" 
d="M500 186q-51 0 -87 36t-36 87q0 54 36 90.5t87 36.5q54 0 89.5 -36.5t35.5 -90.5q0 -51 -35.5 -87t-89.5 -36zM649 889q-51 0 -87 36t-36 87q0 54 36 90.5t87 36.5q54 0 89.5 -36.5t35.5 -90.5q0 -52 -36 -87.5t-89 -35.5zM1022 641h-901l8 41h901z" />
    <glyph glyph-name="oslash" unicode="&#xf8;" horiz-adv-x="1177" 
d="M698 1094q-93 0 -172.5 -76t-130 -193.5t-79.5 -248.5t-31 -250l610 508q-6 125 -56.5 192.5t-140.5 67.5zM481 12q75 0 143 50.5t116.5 132.5t84.5 183.5t54 206t18 197.5l-610 -508q6 -125 56.5 -193.5t137.5 -68.5zM1032 946l230 191l24 -33l-235 -195
q45 -101 43 -226t-47 -247q-73 -200 -226 -328t-344 -128q-111 0 -195.5 47.5t-134.5 134.5l-233 -195l-23 33l238 197q-41 96 -41 213q0 179 80.5 343.5t223.5 268.5t310 104q111 0 195.5 -47t134.5 -133z" />
    <glyph glyph-name="ugrave" unicode="&#xf9;" horiz-adv-x="1277" 
d="M1235 416l22 -13q-114 -200 -229.5 -311.5t-214.5 -111.5q-50 0 -69 35.5t-1 103.5l148 553q-129 -320 -288 -506t-316 -186q-92 0 -135.5 68t-14.5 177l219 824q-70 -45 -153.5 -139.5t-161.5 -219.5l-23 12q118 202 232.5 313t212.5 111q50 0 68.5 -35.5t0.5 -103.5
l-200 -745q-35 -133 65 -133q65 0 147 73t164.5 200.5t162.5 317t137 406.5h192l-282 -1051q71 46 155.5 140.5t161.5 220.5zM756 1513l61 -315h-10l-299 311v4h248z" />
    <glyph glyph-name="uacute" unicode="&#xfa;" horiz-adv-x="1277" 
d="M1235 416l22 -13q-114 -200 -229.5 -311.5t-214.5 -111.5q-50 0 -69 35.5t-1 103.5l148 553q-129 -320 -288 -506t-316 -186q-92 0 -135.5 68t-14.5 177l219 824q-70 -45 -153.5 -139.5t-161.5 -219.5l-23 12q118 202 232.5 313t212.5 111q50 0 68.5 -35.5t0.5 -103.5
l-200 -745q-35 -133 65 -133q65 0 147 73t164.5 200.5t162.5 317t137 406.5h192l-282 -1051q71 46 155.5 140.5t161.5 220.5zM1151 1513v-4l-430 -311h-10l184 315h256z" />
    <glyph glyph-name="ucircumflex" unicode="&#xfb;" horiz-adv-x="1277" 
d="M1235 416l22 -13q-114 -200 -229.5 -311.5t-214.5 -111.5q-50 0 -69 35.5t-1 103.5l148 553q-129 -320 -288 -506t-316 -186q-92 0 -135.5 68t-14.5 177l219 824q-70 -45 -153.5 -139.5t-161.5 -219.5l-23 12q118 202 232.5 313t212.5 111q50 0 68.5 -35.5t0.5 -103.5
l-200 -745q-35 -133 65 -133q65 0 147 73t164.5 200.5t162.5 317t137 406.5h192l-282 -1051q71 46 155.5 140.5t161.5 220.5zM1071 1208l-246 150l-333 -150l-5 6l363 318h4l225 -315z" />
    <glyph glyph-name="udieresis" unicode="&#xfc;" horiz-adv-x="1277" 
d="M1235 416l22 -13q-114 -200 -229.5 -311.5t-214.5 -111.5q-50 0 -69 35.5t-1 103.5l148 553q-129 -320 -288 -506t-316 -186q-92 0 -135.5 68t-14.5 177l219 824q-70 -45 -153.5 -139.5t-161.5 -219.5l-23 12q118 202 232.5 313t212.5 111q50 0 68.5 -35.5t0.5 -103.5
l-200 -745q-35 -133 65 -133q65 0 147 73t164.5 200.5t162.5 317t137 406.5h192l-282 -1051q71 46 155.5 140.5t161.5 220.5zM612 1257q-51 0 -83.5 33t-32.5 84t32.5 84t83.5 33t84 -33t33 -84t-33 -84t-84 -33zM1018 1257q-51 0 -84 33t-33 84t33 84t84 33t84 -33t33 -84
t-33 -84t-84 -33z" />
    <glyph glyph-name="yacute" unicode="&#xfd;" horiz-adv-x="1181" 
d="M989 1116q77 0 115.5 -55.5t38.5 -155.5q0 -134 -45.5 -285t-124 -293t-189.5 -273t-236 -229t-269.5 -156t-284.5 -58q-125 0 -200 49.5t-75 140.5q0 61 35 107q172 -158 398 -158q161 0 313 82l-109 1223q-71 -38 -155.5 -133.5t-171.5 -231.5l-23 12
q118 202 232.5 313t212.5 111q48 0 71.5 -31t30.5 -108l94 -1026q151 138 241.5 327.5t90.5 379.5q0 125 -23 219.5t-71 208.5q53 20 104 20zM715 1198l184 315h256v-4l-430 -311h-10z" />
    <glyph glyph-name="thorn" unicode="&#xfe;" horiz-adv-x="1130" 
d="M426 16q67 0 138.5 54.5t131.5 143.5t109 194t76.5 213.5t27.5 195.5q0 166 -116 166q-52 0 -118 -52t-139 -153.5t-151.5 -273t-146.5 -387.5q97 -101 188 -101zM918 1126q101 0 148.5 -69t47.5 -191q0 -120 -37 -246.5t-106 -240t-158.5 -203.5t-203 -143t-230.5 -53
q-90 0 -172 32l-60 -227q-17 -61 12 -83t132 -36l31 -4l-9 -31h-551l9 31l39 8q76 18 104 39t41 76l438 1653l-127 100l2 4l371 117h4l-326 -1233q144 355 298.5 527.5t302.5 172.5z" />
    <glyph glyph-name="ydieresis" unicode="&#xff;" horiz-adv-x="1181" 
d="M989 1116q77 0 115.5 -55.5t38.5 -155.5q0 -134 -45.5 -285t-124 -293t-189.5 -273t-236 -229t-269.5 -156t-284.5 -58q-125 0 -200 49.5t-75 140.5q0 61 35 107q172 -158 398 -158q161 0 313 82l-109 1223q-71 -38 -155.5 -133.5t-171.5 -231.5l-23 12
q118 202 232.5 313t212.5 111q48 0 71.5 -31t30.5 -108l94 -1026q151 138 241.5 327.5t90.5 379.5q0 125 -23 219.5t-71 208.5q53 20 104 20zM616 1257q-51 0 -83.5 33t-32.5 84t32.5 84t83.5 33t84 -33t33 -84t-33 -84t-84 -33zM1022 1257q-51 0 -84 33t-33 84t33 84t84 33
t84 -33t33 -84t-33 -84t-84 -33z" />
    <glyph glyph-name="Amacron" unicode="&#x100;" horiz-adv-x="1384" 
d="M879 588l-111 719l-397 -719h508zM1274 41l49 -10l-6 -31h-547l6 31l64 10q67 11 90 33.5t16 72.5l-61 400h-537l-221 -400q-31 -51 -13 -73.5t101 -32.5l80 -10l-6 -31h-430l6 31l51 10q66 12 98 33.5t58 72.5l714 1287h162l215 -1289q7 -49 30.5 -70.5t80.5 -33.5z
M596 1599l8 41h629l-8 -41h-629z" />
    <glyph glyph-name="amacron" unicode="&#x101;" horiz-adv-x="1210" 
d="M340 123q54 0 120 52.5t138.5 154.5t150.5 272.5t146 386.5q-90 101 -188 101q-83 0 -172.5 -84t-156.5 -206t-111 -262t-44 -249q0 -166 117 -166zM1171 416l23 -13q-114 -200 -229.5 -311.5t-214.5 -111.5q-50 0 -69 35.5t-1 103.5l190 698h-2q-155 -425 -323 -631
t-330 -206q-101 0 -149 69t-48 191q0 120 37.5 246.5t106.5 240t158.5 203.5t203 143t230.5 53q109 0 229 -57l154 57h4l-285 -1069q148 91 315 359zM524 1292l8 41h629l-8 -41h-629z" />
    <glyph glyph-name="Abreve" unicode="&#x102;" horiz-adv-x="1384" 
d="M879 588l-111 719l-397 -719h508zM1274 41l49 -10l-6 -31h-547l6 31l64 10q67 11 90 33.5t16 72.5l-61 400h-537l-221 -400q-31 -51 -13 -73.5t101 -32.5l80 -10l-6 -31h-430l6 31l51 10q66 12 98 33.5t58 72.5l714 1287h162l215 -1289q7 -49 30.5 -70.5t80.5 -33.5z
M909 1540q-119 0 -186 86.5t-47 216.5h6q21 -164 236 -164q217 0 311 168h6q-37 -140 -121 -223.5t-205 -83.5z" />
    <glyph glyph-name="abreve" unicode="&#x103;" horiz-adv-x="1210" 
d="M340 123q54 0 120 52.5t138.5 154.5t150.5 272.5t146 386.5q-90 101 -188 101q-83 0 -172.5 -84t-156.5 -206t-111 -262t-44 -249q0 -166 117 -166zM1171 416l23 -13q-114 -200 -229.5 -311.5t-214.5 -111.5q-50 0 -69 35.5t-1 103.5l190 698h-2q-155 -425 -323 -631
t-330 -206q-101 0 -149 69t-48 191q0 120 37.5 246.5t106.5 240t158.5 203.5t203 143t230.5 53q109 0 229 -57l154 57h4l-285 -1069q148 91 315 359zM848 1233q-119 0 -186.5 86.5t-47.5 216.5h7q21 -164 235 -164q217 0 311 168h7q-37 -140 -121 -223.5t-205 -83.5z" />
    <glyph glyph-name="Aogonek" unicode="&#x104;" horiz-adv-x="1384" 
d="M879 588l-111 719l-397 -719h508zM1274 41l49 -10l-6 -31h-344q-176 -160 -211 -219q-26 -43 -12.5 -82t67.5 -39q39 0 103 35l4 -6q-42 -52 -102.5 -84.5t-119.5 -32.5q-44 0 -74.5 18.5t-41.5 47.5t-6 64t28 67q57 80 322 231h-160l6 31l64 10q67 11 90 33.5t16 72.5
l-61 400h-537l-221 -400q-31 -51 -13 -73.5t101 -32.5l80 -10l-6 -31h-430l6 31l51 10q66 12 98 33.5t58 72.5l714 1287h162l215 -1289q7 -49 30.5 -70.5t80.5 -33.5z" />
    <glyph glyph-name="aogonek" unicode="&#x105;" horiz-adv-x="1210" 
d="M340 123q54 0 120 52.5t138.5 154.5t150.5 272.5t146 386.5q-90 101 -188 101q-83 0 -172.5 -84t-156.5 -206t-111 -262t-44 -249q0 -166 117 -166zM1171 416l23 -13q-139 -244 -297 -366q-224 -173 -258 -252q-33 -75 2 -107q18 -18 53 -18q53 0 103 33l4 -4
q-42 -52 -102 -84.5t-119 -32.5q-60 0 -92.5 26t-32.5 70q0 80 86 153.5t252 164.5q-21 -6 -43 -6q-50 0 -69 35.5t-1 103.5l190 698h-2q-155 -425 -323 -631t-330 -206q-101 0 -149 69t-48 191q0 120 37.5 246.5t106.5 240t158.5 203.5t203 143t230.5 53q109 0 229 -57
l154 57h4l-285 -1069q148 91 315 359z" />
    <glyph glyph-name="Cacute" unicode="&#x106;" horiz-adv-x="1406" 
d="M760 -20q-295 0 -474.5 166t-179.5 452q0 142 44 274t124 237t187 183.5t239.5 121t274.5 42.5q254 0 491 -139l-47 -316h-20q-20 198 -134.5 310t-297.5 112q-91 0 -173.5 -30t-147.5 -81.5t-120.5 -121.5t-95 -150t-67 -166t-41 -170.5t-13.5 -162.5q0 -235 114 -383
t300 -148q169 0 323 120t232 302h18l-75 -354q-225 -98 -461 -98zM1186 1843h256v-4l-430 -311h-11z" />
    <glyph glyph-name="cacute" unicode="&#x107;" horiz-adv-x="944" 
d="M367 -20q-103 0 -174.5 57.5t-103.5 148.5t-32 207q0 104 26.5 208.5t79.5 198.5t125 167t170.5 116t207.5 43q141 0 212.5 -60.5t71.5 -145.5q0 -67 -47 -119t-125 -56q15 340 -145 340q-95 0 -182.5 -101.5t-139 -256.5t-51.5 -309q0 -92 20.5 -163t67 -117t115.5 -46
q99 0 200.5 87t176.5 237l22 -13q-89 -197 -219 -310t-276 -113zM866 1499h256v-4l-430 -311h-10z" />
    <glyph glyph-name="Cdotaccent" unicode="&#x10a;" horiz-adv-x="1406" 
d="M760 -20q-295 0 -474.5 166t-179.5 452q0 142 44 274t124 237t187 183.5t239.5 121t274.5 42.5q254 0 491 -139l-47 -316h-20q-20 198 -134.5 310t-297.5 112q-91 0 -173.5 -30t-147.5 -81.5t-120.5 -121.5t-95 -150t-67 -166t-41 -170.5t-13.5 -162.5q0 -235 114 -383
t300 -148q169 0 323 120t232 302h18l-75 -354q-225 -98 -461 -98zM1053 1606q-51 0 -86 34.5t-35 85.5q0 53 34.5 87t86.5 34q54 0 87.5 -33.5t33.5 -87.5q0 -52 -34 -86t-87 -34z" />
    <glyph glyph-name="cdotaccent" unicode="&#x10b;" horiz-adv-x="944" 
d="M367 -20q-103 0 -174.5 57.5t-103.5 148.5t-32 207q0 104 26.5 208.5t79.5 198.5t125 167t170.5 116t207.5 43q141 0 212.5 -60.5t71.5 -145.5q0 -67 -47 -119t-125 -56q15 340 -145 340q-95 0 -182.5 -101.5t-139 -256.5t-51.5 -309q0 -92 20.5 -163t67 -117t115.5 -46
q99 0 200.5 87t176.5 237l22 -13q-89 -197 -219 -310t-276 -113zM743 1243q-51 0 -85.5 35t-34.5 86q0 53 34 87t86 34q54 0 87.5 -33.5t33.5 -87.5q0 -52 -34 -86.5t-87 -34.5z" />
    <glyph glyph-name="Ccaron" unicode="&#x10c;" horiz-adv-x="1406" 
d="M973 1454q259 0 493 -137l-47 -316h-20q-20 198 -134.5 310t-297.5 112q-91 0 -173.5 -30t-147.5 -81.5t-120.5 -121.5t-95 -150t-67 -166t-41 -170.5t-13.5 -162.5q0 -235 114 -383t300 -148q169 0 323 120t232 302h18l-75 -354q-225 -98 -461 -98q-295 0 -474.5 166
t-179.5 452q0 182 70.5 343t188.5 272.5t276.5 176t331.5 64.5zM1372 1849l-362 -317h-4l-226 315l8 8l246 -149l334 149z" />
    <glyph glyph-name="ccaron" unicode="&#x10d;" horiz-adv-x="944" 
d="M666 1126q141 0 212.5 -60.5t71.5 -145.5q0 -67 -47 -119t-125 -56q15 340 -145 340q-95 0 -182.5 -101.5t-139 -256.5t-51.5 -309q0 -92 20.5 -163t67 -117t115.5 -46q99 0 200.5 87t176.5 237l22 -13q-89 -197 -219 -310t-276 -113q-103 0 -174.5 57.5t-103.5 148.5
t-32 207q0 104 26.5 208.5t79.5 198.5t125 167t170.5 116t207.5 43zM1073 1507l-362 -317h-4l-226 315l8 8l246 -149l334 149z" />
    <glyph glyph-name="Dcaron" unicode="&#x10e;" horiz-adv-x="1515" 
d="M629 1393l-287 -1352h219q128 0 239 44.5t193 123t141.5 183.5t89 228t29.5 254q0 233 -112.5 376t-313.5 143h-198zM229 1403l7 31h593q195 0 343.5 -78.5t227.5 -217t79 -315.5q0 -183 -73 -338t-198.5 -261t-296.5 -165t-364 -59h-615l7 31l59 10q84 13 114 35t42 78
l237 1126q11 55 -7.5 79t-86.5 34zM1268 1855l4 -6l-363 -317h-4l-225 315l8 8l246 -149z" />
    <glyph glyph-name="dcaron" unicode="&#x10f;" horiz-adv-x="1234" 
d="M340 123q54 0 120 52.5t138.5 154.5t150.5 272.5t146 386.5q-90 101 -188 101q-83 0 -172.5 -84t-156.5 -206t-111 -262t-44 -249q0 -166 117 -166zM893 1538v4l371 117h4l-174 -653h-2l-252 -949q148 91 315 359l23 -13q-114 -200 -230 -311.5t-215 -111.5
q-50 0 -68.5 35.5t-0.5 103.5l145 547q-144 -348 -296 -517t-298 -169q-101 0 -149 69t-48 191q0 93 25.5 195t71.5 200.5t113.5 187.5t146 156t176 107t197.5 40q94 0 176 -32l92 344zM1294 1221h-12l121 397h182l-6 -19z" />
    <glyph glyph-name="Dcroat" unicode="&#x110;" horiz-adv-x="1517" 
d="M483 696l-139 -655h219q128 0 239 44.5t193 123t141.5 183.5t89 228t29.5 254q0 233 -112.5 376t-313.5 143h-198l-139 -656h321l-8 -41h-322zM231 1403l7 31h593q195 0 343.5 -78.5t227.5 -217t79 -315.5q0 -183 -73 -338t-198.5 -261t-296.5 -165t-364 -59h-615l7 31
l59 10q84 13 114 35t42 78l114 542h-168l9 41h168l114 543q11 55 -7.5 79t-86.5 34z" />
    <glyph glyph-name="dcroat" unicode="&#x111;" horiz-adv-x="1196" 
d="M340 123q54 0 120 52.5t138.5 154.5t150.5 272.5t146 386.5q-90 101 -188 101q-83 0 -172.5 -84t-156.5 -206t-111 -262t-44 -249q0 -166 117 -166zM1182 1339h139l-8 -41h-142l-77 -292h-2l-252 -949q148 91 315 359l23 -13q-114 -200 -230 -311.5t-215 -111.5
q-50 0 -68.5 35.5t-0.5 103.5l145 547q-144 -348 -296 -517t-298 -169q-101 0 -149 69t-48 191q0 93 25.5 195t71.5 200.5t113.5 187.5t146 156t176 107t197.5 40q94 0 176 -32l55 204h-297l8 41h299l27 99l-123 100v4l371 117h4z" />
    <glyph glyph-name="Emacron" unicode="&#x112;" horiz-adv-x="1263" 
d="M229 1403l7 31h1015l-26 -441l-23 -6q-30 406 -311 406h-266l-136 -637h199q56 0 89.5 18t64.5 70t71 160h21l-115 -537h-20q6 67 6 109.5t-6 71.5t-22 42.5t-38 19t-59 5.5h-199l-143 -674h301q88 0 156.5 19t133.5 66t122 129t114 206h23l-162 -461h-1094l7 31l67 10
q31 4 50.5 9.5t41.5 17.5t36 33t20 53l237 1126q15 59 -11.5 81.5t-86.5 31.5zM559 1640h629l-8 -41h-629z" />
    <glyph glyph-name="emacron" unicode="&#x113;" horiz-adv-x="923" 
d="M659 1085q-82 0 -165.5 -81.5t-143 -208t-84.5 -263.5q130 36 228.5 91t152.5 115.5t79.5 117t25.5 109.5q0 54 -26 87t-67 33zM915 950q0 -48 -23.5 -98.5t-75.5 -102.5t-126.5 -97.5t-185.5 -84t-244 -61.5q-10 -72 -10 -131q0 -127 45.5 -205t140.5 -78
q100 0 205.5 87.5t187.5 236.5l23 -13q-99 -197 -235.5 -310t-282.5 -113q-97 0 -163.5 51t-96 133t-29.5 188q0 133 47.5 270t129 249.5t203 183.5t257.5 71q109 0 171 -49.5t62 -126.5zM1026 1292h-629l9 41h628z" />
    <glyph glyph-name="Edotaccent" unicode="&#x116;" horiz-adv-x="1263" 
d="M229 1403l7 31h1015l-26 -441l-23 -6q-30 406 -311 406h-266l-136 -637h199q56 0 89.5 18t64.5 70t71 160h21l-115 -537h-20q6 67 6 109.5t-6 71.5t-22 42.5t-38 19t-59 5.5h-199l-143 -674h301q88 0 156.5 19t133.5 66t122 129t114 206h23l-162 -461h-1094l7 31l67 10
q31 4 50.5 9.5t41.5 17.5t36 33t20 53l237 1126q15 59 -11.5 81.5t-86.5 31.5zM891 1606q-51 0 -86 34.5t-35 85.5q0 53 34.5 87t86.5 34q54 0 87.5 -33.5t33.5 -87.5q0 -52 -34 -86t-87 -34z" />
    <glyph glyph-name="edotaccent" unicode="&#x117;" horiz-adv-x="923" 
d="M659 1085q-82 0 -165.5 -81.5t-143 -208t-84.5 -263.5q130 36 228.5 91t152.5 115.5t79.5 117t25.5 109.5q0 54 -26 87t-67 33zM436 92q100 0 205.5 87.5t187.5 236.5l23 -13q-99 -197 -235.5 -310t-282.5 -113q-97 0 -163.5 51t-96 133t-29.5 188q0 133 47.5 270
t129 249.5t203 183.5t257.5 71q109 0 171 -49.5t62 -126.5q0 -48 -23.5 -98.5t-75.5 -102.5t-126.5 -97.5t-185.5 -84t-244 -61.5q-10 -72 -10 -131q0 -127 45.5 -205t140.5 -78zM731 1257q-51 0 -86 35t-35 86q0 53 34.5 87t86.5 34q54 0 87.5 -33.5t33.5 -87.5
q0 -52 -34 -86.5t-87 -34.5z" />
    <glyph glyph-name="Eogonek" unicode="&#x118;" horiz-adv-x="1263" 
d="M229 1403l7 31h1015l-26 -441l-23 -6q-30 406 -311 406h-266l-136 -637h199q56 0 89.5 18t64.5 70t71 160h21l-115 -537h-20q6 67 6 109.5t-6 71.5t-22 42.5t-38 19t-59 5.5h-199l-143 -674h301q88 0 156.5 19t133.5 66t122 129t114 206h23l-162 -461
q-176 -160 -211 -219q-26 -43 -12.5 -82t67.5 -39q39 0 103 35l4 -6q-42 -52 -102 -84.5t-119 -32.5q-44 0 -74.5 18.5t-41.5 47.5t-6 64t28 67q58 81 321 231h-1051l7 31l67 10q31 4 50.5 9.5t41.5 17.5t36 33t20 53l237 1126q15 59 -11.5 81.5t-86.5 31.5z" />
    <glyph glyph-name="eogonek" unicode="&#x119;" horiz-adv-x="925" 
d="M659 1085q-82 0 -165.5 -81.5t-143 -208t-84.5 -263.5q130 36 228.5 91t152.5 115.5t79.5 117t25.5 109.5q0 54 -26 87t-67 33zM436 92q100 0 205.5 87.5t187.5 236.5l23 -13q-50 -105 -123 -194q-189 -244 -248 -324t-73 -116q-24 -63 8 -91q18 -18 53 -18q52 0 102 33
l4 -4q-42 -52 -102.5 -84.5t-122.5 -32.5q-58 0 -89.5 32.5t-31.5 78.5q0 43 37 97.5t89.5 105.5t146.5 132q-84 -38 -168 -38q-97 0 -163.5 51t-96 133t-29.5 188q0 133 47.5 270t129 249.5t203 183.5t257.5 71q109 0 171 -49.5t62 -126.5q0 -48 -23.5 -98.5t-75.5 -102.5
t-126.5 -97.5t-185.5 -84t-244 -61.5q-10 -72 -10 -131q0 -127 45.5 -205t140.5 -78z" />
    <glyph glyph-name="Ecaron" unicode="&#x11a;" horiz-adv-x="1263" 
d="M229 1403l7 31h1015l-26 -441l-23 -6q-30 406 -311 406h-266l-136 -637h199q56 0 89.5 18t64.5 70t71 160h21l-115 -537h-20q6 67 6 109.5t-6 71.5t-22 42.5t-38 19t-59 5.5h-199l-143 -674h301q88 0 156.5 19t133.5 66t122 129t114 206h23l-162 -461h-1094l7 31l67 10
q31 4 50.5 9.5t41.5 17.5t36 33t20 53l237 1126q15 59 -11.5 81.5t-86.5 31.5zM1210 1849l-362 -317h-4l-226 315l9 8l245 -149l334 149z" />
    <glyph glyph-name="ecaron" unicode="&#x11b;" horiz-adv-x="923" 
d="M659 1085q-82 0 -165.5 -81.5t-143 -208t-84.5 -263.5q130 36 228.5 91t152.5 115.5t79.5 117t25.5 109.5q0 54 -26 87t-67 33zM915 950q0 -48 -23.5 -98.5t-75.5 -102.5t-126.5 -97.5t-185.5 -84t-244 -61.5q-10 -72 -10 -131q0 -127 45.5 -205t140.5 -78
q100 0 205.5 87.5t187.5 236.5l23 -13q-99 -197 -235.5 -310t-282.5 -113q-97 0 -163.5 51t-96 133t-29.5 188q0 133 47.5 270t129 249.5t203 183.5t257.5 71q109 0 171 -49.5t62 -126.5zM1057 1528l4 -6l-363 -318h-4l-225 316l8 8l246 -150z" />
    <glyph glyph-name="Gbreve" unicode="&#x11e;" horiz-adv-x="1505" 
d="M956 631l7 31h550l-6 -31l-67 -13q-65 -12 -91 -34t-38 -76l-92 -430q-222 -98 -459 -98q-295 0 -474.5 166t-179.5 452q0 142 44 274t124 237t187 183.5t239.5 121t274.5 42.5q254 0 491 -139l-47 -316h-20q-20 198 -134.5 310t-297.5 112q-91 0 -173.5 -30
t-147.5 -81.5t-120.5 -121.5t-95 -150t-67 -166t-41 -170.5t-13.5 -162.5q0 -235 114 -383t300 -148q163 0 313 117l82 381q12 55 -7.5 78t-90.5 35zM989 1540q-119 0 -186 86.5t-47 216.5h6q21 -164 235 -164q218 0 312 168h6q-37 -140 -121 -223.5t-205 -83.5z" />
    <glyph glyph-name="gbreve" unicode="&#x11f;" horiz-adv-x="1083" 
d="M524 483q131 0 216 114t85 284q0 92 -56 152.5t-142 60.5q-132 0 -220 -112.5t-88 -283.5q0 -94 57.5 -154.5t147.5 -60.5zM596 -20l-277 102q-35 14 -55 24q-114 -27 -185 -90.5t-71 -148.5q0 -99 89.5 -158t252.5 -59q173 0 284 59t111 146q0 70 -149 125zM1038 1317
q47 0 73 -28t26 -68q0 -58 -47 -93q-91 54 -144 54q-60 0 -129 -92q95 -39 149 -107.5t54 -157.5q0 -50 -11.5 -93t-29.5 -76t-48.5 -61.5t-58.5 -48t-70.5 -37.5t-74.5 -28.5t-80 -21.5t-76.5 -16t-74.5 -13q-45 -8 -74 -14.5t-56 -16.5t-40 -23t-13 -30q0 -21 25 -40
t90 -44l277 -106q200 -73 200 -199q0 -149 -164 -247.5t-440 -98.5q-130 0 -238.5 28t-174.5 82t-66 123q0 99 119.5 174.5t302.5 100.5q-90 54 -90 133q0 149 327 205q-156 14 -254 96.5t-98 200.5q0 162 137 267t344 105q96 0 185 -28q40 69 75.5 115t65.5 67.5t53 29
t49 7.5zM709 1233q-119 0 -186.5 86.5t-47.5 216.5h6q21 -164 236 -164q217 0 311 168h6q-37 -140 -120.5 -223.5t-204.5 -83.5z" />
    <glyph glyph-name="Gdotaccent" unicode="&#x120;" horiz-adv-x="1505" 
d="M956 631l7 31h550l-6 -31l-67 -13q-65 -12 -91 -34t-38 -76l-92 -430q-222 -98 -459 -98q-295 0 -474.5 166t-179.5 452q0 142 44 274t124 237t187 183.5t239.5 121t274.5 42.5q254 0 491 -139l-47 -316h-20q-20 198 -134.5 310t-297.5 112q-91 0 -173.5 -30
t-147.5 -81.5t-120.5 -121.5t-95 -150t-67 -166t-41 -170.5t-13.5 -162.5q0 -235 114 -383t300 -148q163 0 313 117l82 381q12 55 -7.5 78t-90.5 35zM1016 1606q-51 0 -86 34.5t-35 85.5q0 53 34.5 87t86.5 34q54 0 87.5 -33.5t33.5 -87.5q0 -52 -34 -86t-87 -34z" />
    <glyph glyph-name="gdotaccent" unicode="&#x121;" horiz-adv-x="1083" 
d="M524 483q131 0 216 114t85 284q0 92 -56 152.5t-142 60.5q-132 0 -220 -112.5t-88 -283.5q0 -94 57.5 -154.5t147.5 -60.5zM596 -20l-277 102q-35 14 -55 24q-114 -27 -185 -90.5t-71 -148.5q0 -99 89.5 -158t252.5 -59q173 0 284 59t111 146q0 70 -149 125zM1038 1317
q47 0 73 -28t26 -68q0 -58 -47 -93q-91 54 -144 54q-60 0 -129 -92q95 -39 149 -107.5t54 -157.5q0 -50 -11.5 -93t-29.5 -76t-48.5 -61.5t-58.5 -48t-70.5 -37.5t-74.5 -28.5t-80 -21.5t-76.5 -16t-74.5 -13q-45 -8 -74 -14.5t-56 -16.5t-40 -23t-13 -30q0 -21 25 -40
t90 -44l277 -106q200 -73 200 -199q0 -149 -164 -247.5t-440 -98.5q-130 0 -238.5 28t-174.5 82t-66 123q0 99 119.5 174.5t302.5 100.5q-90 54 -90 133q0 149 327 205q-156 14 -254 96.5t-98 200.5q0 162 137 267t344 105q96 0 185 -28q40 69 75.5 115t65.5 67.5t53 29
t49 7.5zM719 1257q-51 0 -86 35t-35 86q0 53 34.5 87t86.5 34q54 0 87.5 -33.5t33.5 -87.5q0 -52 -34 -86.5t-87 -34.5z" />
    <glyph glyph-name="uni0122" unicode="&#x122;" horiz-adv-x="1505" 
d="M956 631l7 31h550l-6 -31l-67 -13q-65 -12 -91 -34t-38 -76l-92 -430q-222 -98 -459 -98q-295 0 -474.5 166t-179.5 452q0 142 44 274t124 237t187 183.5t239.5 121t274.5 42.5q254 0 491 -139l-47 -316h-20q-20 198 -134.5 310t-297.5 112q-91 0 -173.5 -30
t-147.5 -81.5t-120.5 -121.5t-95 -150t-67 -166t-41 -170.5t-13.5 -162.5q0 -235 114 -383t300 -148q163 0 313 117l82 381q12 55 -7.5 78t-90.5 35zM584 -121q51 0 82.5 -33t31.5 -84q0 -103 -87 -175t-224 -101l-4 22q75 18 115.5 56t40.5 82q0 72 -93 112q7 55 44.5 88
t93.5 33z" />
    <glyph glyph-name="uni0123" unicode="&#x123;" horiz-adv-x="1083" 
d="M524 483q131 0 216 114t85 284q0 92 -56 152.5t-142 60.5q-132 0 -220 -112.5t-88 -283.5q0 -94 57.5 -154.5t147.5 -60.5zM596 -20l-277 102q-35 14 -55 24q-114 -27 -185 -90.5t-71 -148.5q0 -99 89.5 -158t252.5 -59q173 0 284 59t111 146q0 70 -149 125zM1038 1317
q47 0 73 -28t26 -68q0 -58 -47 -93q-91 54 -144 54q-60 0 -129 -92q95 -39 149 -107.5t54 -157.5q0 -50 -11.5 -93t-29.5 -76t-48.5 -61.5t-58.5 -48t-70.5 -37.5t-74.5 -28.5t-80 -21.5t-76.5 -16t-74.5 -13q-45 -8 -74 -14.5t-56 -16.5t-40 -23t-13 -30q0 -21 25 -40
t90 -44l277 -106q200 -73 200 -199q0 -149 -164 -247.5t-440 -98.5q-130 0 -238.5 28t-174.5 82t-66 123q0 99 119.5 174.5t302.5 100.5q-90 54 -90 133q0 149 327 205q-156 14 -254 96.5t-98 200.5q0 162 137 267t344 105q96 0 185 -28q40 69 75.5 115t65.5 67.5t53 29
t49 7.5zM696 1227q-51 0 -82.5 32.5t-31.5 83.5q0 105 88.5 178t222.5 99l4 -23q-75 -18 -115.5 -56t-40.5 -81q0 -32 24.5 -62t68.5 -50q-7 -55 -44.5 -88t-93.5 -33z" />
    <glyph glyph-name="Hbar" unicode="&#x126;" horiz-adv-x="1611" 
d="M553 1044l-59 -278h714l60 278h-715zM1219 1393l-64 10l6 31h588l-6 -31l-68 -10q-62 -9 -96.5 -31t-50.5 -82l-41 -195h166l-11 -41h-163l-189 -890q-12 -60 14.5 -82t84.5 -31l63 -10l-6 -31h-588l6 31l68 10q30 4 50 9.5t41.5 17.5t35.5 33t20 53l121 571h-715
l-120 -571q-12 -60 14 -82t84 -31l63 -10l-6 -31h-586l7 31l67 10q31 4 50.5 9.5t41.5 17.5t36 33t20 53l188 890h-164l10 41h162l41 195q15 59 -11.5 81.5t-86.5 31.5l-64 10l7 31h585l-6 -31l-67 -10q-62 -9 -97 -31t-51 -82l-41 -195h715l41 195q15 59 -11.5 81.5
t-86.5 31.5z" />
    <glyph glyph-name="hbar" unicode="&#x127;" horiz-adv-x="1206" 
d="M1169 416l23 -13q-114 -200 -229.5 -311.5t-214.5 -111.5q-50 0 -69 35.5t-1 103.5l201 745q35 133 -66 133q-65 0 -146.5 -73t-164 -200.5t-162.5 -317t-137 -406.5h-193l348 1298h-149l8 41h152l26 99l-123 100v4l371 117h4l-86 -320h287l-8 -41h-289l-232 -864
q132 321 290.5 506.5t314.5 185.5q92 0 135 -68t14 -177l-219 -824q148 91 315 359z" />
    <glyph glyph-name="Itilde" unicode="&#x128;" horiz-adv-x="684" 
d="M399 1661q-38 0 -76 -24.5t-63 -65.5l-14 2q102 217 223 217q34 0 66.5 -14.5t58 -36t50 -42.5t53.5 -35.5t59 -14.5q81 0 137 100l14 -2q-100 -223 -227 -223q-36 0 -69.5 14.5t-58.5 35t-49 40.5t-50.5 34.5t-53.5 14.5zM518 0h-586l7 31l67 10q31 4 50.5 9.5
t41.5 17.5t36 33t20 53l237 1126q15 59 -11.5 81.5t-86.5 31.5l-64 10l7 31h585l-6 -31l-67 -10q-62 -9 -97 -31t-51 -82l-238 -1126q-12 -60 14.5 -82t84.5 -31l63 -10z" />
    <glyph glyph-name="itilde" unicode="&#x129;" horiz-adv-x="647" 
d="M604 416l23 -13q-114 -200 -230 -311.5t-215 -111.5q-50 0 -68.5 35.5t-0.5 103.5l247 930q-70 -45 -153.5 -139.5t-161.5 -219.5l-22 12q118 202 232 313t212 111q50 0 69 -35.5t1 -103.5l-248 -930q70 45 153.5 139.5t161.5 219.5zM612 1235q-44 0 -85 21.5t-67.5 48
t-61 48t-66.5 21.5q-38 0 -76 -24.5t-63 -65.5l-15 2q102 217 223 217q34 0 66.5 -14.5t58 -35.5t50 -42.5t53.5 -36t59 -14.5q81 0 137 100l15 -2q-100 -223 -228 -223z" />
    <glyph glyph-name="Imacron" unicode="&#x12a;" horiz-adv-x="684" 
d="M518 0h-586l7 31l67 10q31 4 50.5 9.5t41.5 17.5t36 33t20 53l237 1126q15 59 -11.5 81.5t-86.5 31.5l-64 10l7 31h585l-6 -31l-67 -10q-62 -9 -97 -31t-51 -82l-238 -1126q-12 -60 14.5 -82t84.5 -31l63 -10zM887 1599h-629l8 41h629z" />
    <glyph glyph-name="imacron" unicode="&#x12b;" horiz-adv-x="647" 
d="M537 987l-248 -930q70 45 153.5 139.5t161.5 219.5l23 -13q-114 -200 -230 -311.5t-215 -111.5q-50 0 -68.5 35.5t-0.5 103.5l247 930q-70 -45 -153.5 -139.5t-161.5 -219.5l-22 12q118 202 232 313t212 111q50 0 69 -35.5t1 -103.5zM182 1292l8 41h629l-8 -41h-629z" />
    <glyph glyph-name="Iogonek" unicode="&#x12e;" horiz-adv-x="684" 
d="M229 1403l7 31h585l-6 -31l-67 -10q-62 -9 -97 -31t-51 -82l-238 -1126q-12 -60 14.5 -82t84.5 -31l63 -10l-6 -31h-188q-176 -160 -211 -219q-26 -43 -12.5 -82t67.5 -39q38 0 102 35l5 -6q-42 -52 -102.5 -84.5t-119.5 -32.5q-44 0 -74.5 18.5t-41.5 47.5t-6 64t28 67
q57 80 322 231h-355l7 31l67 10q31 4 50.5 9.5t41.5 17.5t36 33t20 53l237 1126q15 59 -11.5 81.5t-86.5 31.5z" />
    <glyph glyph-name="iogonek" unicode="&#x12f;" horiz-adv-x="647" 
d="M537 987l-248 -930q70 45 153.5 139.5t161.5 219.5l23 -13q-70 -125 -151 -221.5t-154 -152.5q-221 -174 -252 -244q-33 -75 2 -107q18 -18 53 -18q52 0 102 33l4 -4q-42 -52 -102 -84.5t-119 -32.5q-60 0 -92.5 26t-32.5 70q0 80 86 153.5t252 164.5q-24 -6 -41 -6
q-50 0 -68.5 35.5t-0.5 103.5l249 930q-71 -45 -155 -139.5t-162 -219.5l-22 12q118 202 232 313t212 111q50 0 69 -35.5t1 -103.5zM516 1257q-51 0 -86 35t-35 86q0 53 34.5 87t86.5 34q54 0 87.5 -33.5t33.5 -87.5q0 -52 -34 -86.5t-87 -34.5z" />
    <glyph glyph-name="Idotaccent" unicode="&#x130;" horiz-adv-x="684" 
d="M518 0h-586l7 31l67 10q31 4 50.5 9.5t41.5 17.5t36 33t20 53l237 1126q15 59 -11.5 81.5t-86.5 31.5l-64 10l7 31h585l-6 -31l-67 -10q-62 -9 -97 -31t-51 -82l-238 -1126q-12 -60 14.5 -82t84.5 -31l63 -10zM598 1606q-51 0 -86 34.5t-35 85.5q0 53 34.5 87t86.5 34
q54 0 87.5 -33.5t33.5 -87.5q0 -52 -34 -86t-87 -34z" />
    <glyph glyph-name="dotlessi" unicode="&#x131;" horiz-adv-x="647" 
d="M604 416l23 -13q-114 -200 -230 -311.5t-215 -111.5q-50 0 -68.5 35.5t-0.5 103.5l247 930q-70 -45 -153.5 -139.5t-161.5 -219.5l-22 12q118 202 232 313t212 111q50 0 69 -35.5t1 -103.5l-248 -930q70 45 153.5 139.5t161.5 219.5z" />
    <glyph glyph-name="uni0136" unicode="&#x136;" horiz-adv-x="1419" 
d="M461 41l63 -10l-6 -31h-586l7 31l67 10q31 4 50.5 9.5t41.5 17.5t36 33t20 53l237 1126q12 60 -14 82t-84 31l-64 10l7 31h585l-6 -31l-67 -10q-31 -4 -50.5 -9.5t-41.5 -17.5t-36 -33t-20 -53l-238 -1126q-12 -60 14.5 -82t84.5 -31zM1145 1403l6 31h459l-6 -31l-66 -10
q-63 -10 -123.5 -33.5t-89.5 -48.5l-539 -473l508 -828l-2 -10h-239l-445 745l662 568q32 29 18.5 50.5t-67.5 29.5zM659 -121q51 0 83 -33t32 -84q0 -103 -87 -175t-224 -101l-4 22q75 18 115 56t40 82q0 73 -92 112q8 56 45 88.5t92 32.5z" />
    <glyph glyph-name="uni0137" unicode="&#x137;" horiz-adv-x="1130" 
d="M1077 416l23 -13q-114 -200 -230 -311.5t-215 -111.5q-43 0 -63.5 29.5t-38.5 109.5l-70 360q213 131 313.5 237.5t100.5 209.5q0 73 -78 73q-157 0 -325 -271.5t-291 -727.5h-193l385 1438l-123 100v4l371 117h4l-309 -1157q131 298 288.5 460t317.5 162q73 0 113.5 -32
t40.5 -91q0 -99 -118 -215.5t-323 -238.5l107 -488q140 86 313 357zM342 -121q51 0 83 -33t32 -84q0 -102 -87.5 -174.5t-224.5 -101.5l-4 22q75 18 115.5 56t40.5 82q0 73 -92 112q8 56 45 88.5t92 32.5z" />
    <glyph glyph-name="Lacute" unicode="&#x139;" horiz-adv-x="1175" 
d="M1112 481l18 -4l-165 -477h-1033l7 31l67 10q31 4 50.5 9.5t41.5 17.5t36 33t20 53l237 1126q15 59 -11.5 81.5t-86.5 31.5l-64 10l7 31h585l-6 -31l-67 -10q-62 -9 -97 -31t-51 -82l-262 -1239h313q144 0 248 102.5t213 337.5zM979 1843v-4l-430 -311h-10l184 315h256z
" />
    <glyph glyph-name="lacute" unicode="&#x13a;" horiz-adv-x="577" 
d="M272 1542l371 117h4l-428 -1604q70 45 154 140t162 221l22 -13q-114 -200 -229.5 -311.5t-214.5 -111.5q-50 0 -69 35.5t-1 103.5l352 1319l-125 100zM553 1712l184 316h256v-5l-430 -311h-10z" />
    <glyph glyph-name="uni013B" unicode="&#x13b;" horiz-adv-x="1175" 
d="M1112 481l18 -4l-165 -477h-1033l7 31l67 10q31 4 50.5 9.5t41.5 17.5t36 33t20 53l237 1126q15 59 -11.5 81.5t-86.5 31.5l-64 10l7 31h585l-6 -31l-67 -10q-62 -9 -97 -31t-51 -82l-262 -1239h313q144 0 248 102.5t213 337.5zM422 -121q51 0 83 -33t32 -84
q0 -102 -87.5 -174.5t-224.5 -101.5l-4 22q75 18 115.5 56t40.5 82q0 73 -92 112q8 56 45 88.5t92 32.5z" />
    <glyph glyph-name="uni013C" unicode="&#x13c;" horiz-adv-x="577" 
d="M647 1659l-428 -1604q70 45 154 140t162 221l22 -13q-114 -200 -229.5 -311.5t-214.5 -111.5q-50 0 -69 35.5t-1 103.5l352 1319l-125 100l2 4l371 117h4zM141 -121q51 0 83 -33t32 -84q0 -103 -87 -175t-224 -101l-4 22q75 18 115 56t40 82q0 73 -92 112q8 56 45 88.5
t92 32.5z" />
    <glyph glyph-name="Lcaron" unicode="&#x13d;" horiz-adv-x="1177" 
d="M338 41h313q144 0 248 102.5t213 337.5l18 -4l-165 -477h-1033l7 31l67 10q31 4 50.5 9.5t41.5 17.5t36 33t20 53l237 1126q15 59 -11.5 81.5t-86.5 31.5l-64 10l7 31h585l-6 -31l-67 -10q-62 -9 -97 -31t-51 -82zM899 1036l86 398h182l-4 -19l-252 -379h-12z" />
    <glyph glyph-name="lcaron" unicode="&#x13e;" horiz-adv-x="614" 
d="M272 1542l371 117h4l-428 -1604q70 45 154 140t162 221l22 -13q-114 -200 -229.5 -311.5t-214.5 -111.5q-50 0 -69 35.5t-1 103.5l352 1319l-125 100zM668 1221l120 397h183l-6 -19l-285 -378h-12z" />
    <glyph glyph-name="Lslash" unicode="&#x141;" horiz-adv-x="1202" 
d="M1139 481l18 -4l-166 -477h-1032l6 31l68 10q30 4 50 9.5t41.5 17.5t35.5 33t20 53l78 366l-209 -106l-16 35l235 120l150 711q15 59 -12 81.5t-87 31.5l-63 10l6 31h586l-6 -31l-68 -10q-62 -9 -96.5 -31t-50.5 -82l-125 -590l301 156l16 -39l-327 -168l-127 -598h313
q144 0 248 102.5t213 337.5z" />
    <glyph glyph-name="lslash" unicode="&#x142;" horiz-adv-x="679" 
d="M487 811l-200 -756q70 45 153 140t162 221l23 -13q-114 -200 -230 -311.5t-215 -111.5q-50 0 -68.5 35.5t-0.5 103.5l143 540l-209 -137l-18 35l243 162l193 719l-125 100l2 4l371 117h4l-209 -785l192 127l21 -40z" />
    <glyph glyph-name="Nacute" unicode="&#x143;" horiz-adv-x="1550" 
d="M1243 1403l6 31h461l-6 -31l-74 -10q-33 -5 -54.5 -10t-45.5 -17t-39 -33t-21 -53l-270 -1280h-141l-615 1286l-239 -1132q-12 -59 17.5 -81.5t92.5 -31.5l70 -10l-6 -31h-461l6 31l74 10q33 5 54.5 10t45.5 17t39 33t21 53l237 1126q12 60 -12.5 82t-81.5 31l-61 10
l6 31h354l598 -1219l225 1065q12 60 -16.5 82t-93.5 31zM1450 1843v-4l-430 -311h-10l184 315h256z" />
    <glyph glyph-name="nacute" unicode="&#x144;" horiz-adv-x="1275" 
d="M1239 416l23 -13q-114 -200 -230 -311.5t-215 -111.5q-50 0 -68.5 35.5t-0.5 103.5l200 745q35 133 -65 133q-65 0 -147 -73t-164.5 -200.5t-162.5 -317t-137 -406.5h-192l282 1051q-71 -46 -155.5 -140.5t-161.5 -220.5l-22 12q118 202 232 313t212 111q50 0 69 -35.5
t1 -103.5l-148 -553q132 322 290 507t314 185q92 0 135.5 -68t14.5 -177l-219 -824q70 45 153.5 139.5t161.5 219.5zM1184 1513v-4l-430 -311h-11l185 315h256z" />
    <glyph glyph-name="uni0145" unicode="&#x145;" horiz-adv-x="1550" 
d="M1243 1403l6 31h461l-6 -31l-74 -10q-33 -5 -54.5 -10t-45.5 -17t-39 -33t-21 -53l-270 -1280h-141l-615 1286l-239 -1132q-12 -59 17.5 -81.5t92.5 -31.5l70 -10l-6 -31h-461l6 31l74 10q33 5 54.5 10t45.5 17t39 33t21 53l237 1126q12 60 -12.5 82t-81.5 31l-61 10
l6 31h354l598 -1219l225 1065q12 60 -16.5 82t-93.5 31zM639 -121q51 0 83 -33t32 -84q0 -102 -87.5 -174.5t-224.5 -101.5l-4 22q75 18 115.5 56t40.5 82q0 73 -92 112q8 56 45 88.5t92 32.5z" />
    <glyph glyph-name="uni0146" unicode="&#x146;" horiz-adv-x="1275" 
d="M1239 416l23 -13q-114 -200 -230 -311.5t-215 -111.5q-50 0 -68.5 35.5t-0.5 103.5l200 745q35 133 -65 133q-65 0 -147 -73t-164.5 -200.5t-162.5 -317t-137 -406.5h-192l282 1051q-71 -46 -155.5 -140.5t-161.5 -220.5l-22 12q118 202 232 313t212 111q50 0 69 -35.5
t1 -103.5l-148 -553q132 322 290 507t314 185q92 0 135.5 -68t14.5 -177l-219 -824q70 45 153.5 139.5t161.5 219.5zM461 -121q51 0 82.5 -33t31.5 -84q0 -103 -87 -175t-224 -101l-4 22q75 18 115.5 56t40.5 82q0 73 -92 112q8 56 45 88.5t92 32.5z" />
    <glyph glyph-name="Ncaron" unicode="&#x147;" horiz-adv-x="1550" 
d="M1243 1403l6 31h461l-6 -31l-74 -10q-33 -5 -54.5 -10t-45.5 -17t-39 -33t-21 -53l-270 -1280h-141l-615 1286l-239 -1132q-12 -59 17.5 -81.5t92.5 -31.5l70 -10l-6 -31h-461l6 31l74 10q33 5 54.5 10t45.5 17t39 33t21 53l237 1126q12 60 -12.5 82t-81.5 31l-61 10
l6 31h354l598 -1219l225 1065q12 60 -16.5 82t-93.5 31zM1380 1849l-362 -317h-4l-226 315l9 8l245 -149l334 149z" />
    <glyph glyph-name="ncaron" unicode="&#x148;" horiz-adv-x="1275" 
d="M1239 416l23 -13q-114 -200 -230 -311.5t-215 -111.5q-50 0 -68.5 35.5t-0.5 103.5l200 745q35 133 -65 133q-65 0 -147 -73t-164.5 -200.5t-162.5 -317t-137 -406.5h-192l282 1051q-71 -46 -155.5 -140.5t-161.5 -220.5l-22 12q118 202 232 313t212 111q50 0 69 -35.5
t1 -103.5l-148 -553q132 322 290 507t314 185q92 0 135.5 -68t14.5 -177l-219 -824q70 45 153.5 139.5t161.5 219.5zM1135 1522l-363 -318h-4l-225 316l8 8l246 -150l333 150z" />
    <glyph glyph-name="Eng" unicode="&#x14a;" horiz-adv-x="1550" 
d="M1243 1403l6 31h461l-6 -31l-74 -10q-33 -5 -54.5 -10t-45.5 -17t-39 -33t-21 -53l-235 -1116q-25 -125 -85 -230.5t-137 -174t-164.5 -106.5t-172.5 -38q-83 0 -128.5 30t-45.5 72q0 40 30 77.5t66 45.5q17 -62 78 -100.5t137 -38.5q89 0 160 83t71 185q0 82 -22 137
l-573 1192l-244 -1144q-11 -57 14.5 -79t95.5 -34l70 -10l-6 -31h-461l6 31l74 10q33 5 54.5 10t45.5 17t39 33t21 53l237 1126q11 58 -12 81.5t-82 31.5l-61 10l6 31h364l592 -1205l221 1051q11 58 -15.5 81.5t-94.5 31.5z" />
    <glyph glyph-name="eng" unicode="&#x14b;" horiz-adv-x="1200" 
d="M993 1126q92 0 135.5 -68t14.5 -177l-193 -721q-33 -125 -94.5 -230t-137 -174t-161 -107t-168.5 -38q-91 0 -137.5 34t-46.5 85q0 96 129 151q20 -91 75.5 -137.5t135.5 -46.5q61 0 97 84.5t116 378.5l190 704q35 133 -65 133q-65 0 -147 -73t-164.5 -200.5t-162.5 -317
t-137 -406.5h-192l280 1049q-71 -46 -155 -140.5t-160 -218.5l-22 12q118 202 232 313t212 111q50 0 69 -35.5t1 -103.5l-148 -547q132 317 291 501.5t313 184.5z" />
    <glyph glyph-name="Omacron" unicode="&#x14c;" horiz-adv-x="1443" 
d="M621 8q93 0 176.5 43.5t147 118t115 172t84.5 208t50.5 223.5t17.5 220q0 212 -82 322t-235 110q-87 0 -165 -37t-136.5 -99t-107.5 -144.5t-82.5 -173.5t-56.5 -186.5t-33.5 -181.5t-10.5 -161q0 -211 83.5 -322.5t234.5 -111.5zM897 1454q241 0 380.5 -151.5
t139.5 -405.5q0 -115 -28 -229.5t-78.5 -215.5t-123.5 -188t-160 -149.5t-192.5 -98.5t-216.5 -36q-238 0 -379 153t-141 406q0 173 62 339t167 293t255 205t315 78zM1274 1640l-8 -41h-629l8 41h629z" />
    <glyph glyph-name="omacron" unicode="&#x14d;" horiz-adv-x="1118" 
d="M451 12q77 0 145 51.5t116.5 134.5t84 186t52.5 208t17 199q0 147 -50 225t-148 78q-71 0 -133.5 -41t-106 -109t-78.5 -151t-55 -171.5t-30.5 -166.5t-10.5 -140q0 -144 50.5 -223.5t146.5 -79.5zM672 1126q180 0 285.5 -118t105.5 -310q0 -134 -48 -264t-129 -230
t-197 -162t-243 -62q-179 0 -284 118t-105 312q0 179 81 343.5t224 268.5t310 104zM1040 1333l-8 -41h-629l9 41h628z" />
    <glyph glyph-name="Ohungarumlaut" unicode="&#x150;" horiz-adv-x="1443" 
d="M621 8q93 0 176.5 43.5t147 118t115 172t84.5 208t50.5 223.5t17.5 220q0 212 -82 322t-235 110q-87 0 -165 -37t-136.5 -99t-107.5 -144.5t-82.5 -173.5t-56.5 -186.5t-33.5 -181.5t-10.5 -161q0 -211 83.5 -322.5t234.5 -111.5zM897 1454q241 0 380.5 -151.5
t139.5 -405.5q0 -115 -28 -229.5t-78.5 -215.5t-123.5 -188t-160 -149.5t-192.5 -98.5t-216.5 -36q-238 0 -379 153t-141 406q0 173 62 339t167 293t255 205t315 78zM1176 1837l-410 -311h-10l192 315h228v-4zM1462 1837l-409 -311h-11l193 315h227v-4z" />
    <glyph glyph-name="ohungarumlaut" unicode="&#x151;" horiz-adv-x="1118" 
d="M451 12q77 0 145 51.5t116.5 134.5t84 186t52.5 208t17 199q0 147 -50 225t-148 78q-71 0 -133.5 -41t-106 -109t-78.5 -151t-55 -171.5t-30.5 -166.5t-10.5 -140q0 -144 50.5 -223.5t146.5 -79.5zM672 1126q180 0 285.5 -118t105.5 -310q0 -134 -48 -264t-129 -230
t-197 -162t-243 -62q-179 0 -284 118t-105 312q0 179 81 343.5t224 268.5t310 104zM973 1509l-410 -311h-10l192 315h228v-4zM1260 1509l-410 -311h-10l192 315h228v-4z" />
    <glyph glyph-name="OE" unicode="&#x152;" horiz-adv-x="2050" 
d="M940 154l238 1126q14 67 -16.5 90t-135.5 23q-126 0 -237 -44.5t-193.5 -123.5t-142 -184t-89.5 -228t-30 -254q0 -151 48.5 -267t146 -183.5t231.5 -67.5q92 0 129 24.5t51 88.5zM1040 1434h998l-27 -441l-22 -6q-8 95 -30.5 166t-65 127t-112 84.5t-165.5 28.5h-205
l-135 -637h199q56 0 89.5 18t64.5 70t71 160h20l-114 -537h-21q6 67 6 109.5t-6 71.5t-22 42.5t-38 19t-59 5.5h-198l-144 -674h301q96 0 168.5 19t137.5 66.5t118.5 129t102.5 205.5h22l-162 -461h-1052q-137 0 -255.5 41t-206.5 117.5t-138.5 192.5t-50.5 259
q0 184 73 340t198.5 261t296 164t363.5 59z" />
    <glyph glyph-name="oe" unicode="&#x153;" horiz-adv-x="1708" 
d="M451 12q77 0 145 51.5t116.5 134.5t84 186t52.5 208t17 199q0 147 -50 225t-148 78q-71 0 -133.5 -41t-106 -109t-78.5 -151t-55 -171.5t-30.5 -166.5t-10.5 -140q0 -144 50.5 -223.5t146.5 -79.5zM1444 1085q-82 0 -165.5 -81.5t-143 -208t-84.5 -263.5q105 29 190 71.5
t139 87.5t90 94.5t51 94t15 85.5q0 54 -25.5 87t-66.5 33zM1221 92q100 0 205.5 87.5t187.5 236.5l22 -13q-99 -197 -235.5 -310t-282.5 -113q-97 0 -163.5 51.5t-96.5 140.5q-179 -192 -412 -192q-179 0 -284 118t-105 312q0 179 81 343.5t224 268.5t310 104
q127 0 219 -60.5t135 -170.5q89 107 201.5 169t238.5 62q110 0 172 -49.5t62 -126.5q0 -48 -23.5 -98.5t-75.5 -102.5t-127 -97.5t-186 -84t-244 -61.5q-10 -72 -10 -131q0 -127 46 -205t141 -78z" />
    <glyph glyph-name="Racute" unicode="&#x154;" horiz-adv-x="1349" 
d="M784 1393h-159l-156 -736h178q207 0 325 122.5t118 324.5q0 129 -84.5 209t-221.5 80zM1305 1042q0 -151 -115 -257t-318 -148l390 -627l-2 -10h-220l-352 616h-227l-99 -462q-12 -56 10 -78.5t97 -36.5l55 -8l-6 -31h-586l7 31l51 8q90 18 121 38.5t43 76.5l237 1126
q11 55 -7 76.5t-89 34.5l-66 12l7 31h557q230 0 371 -108.5t141 -283.5zM1036 1843h256v-4l-430 -311h-10z" />
    <glyph glyph-name="racute" unicode="&#x155;" horiz-adv-x="845" 
d="M860 1124q59 0 82.5 -33.5t15.5 -82t-38 -107.5q-91 55 -162 55q-61 0 -130 -92t-158 -306t-198 -558h-192l280 1051q-71 -45 -154 -139.5t-161 -221.5l-22 12q118 202 232 313t212 111q50 0 69 -35.5t1 -103.5l-138 -512q60 154 118 272t105.5 188t93 114t79 59.5
t65.5 15.5zM616 1198l185 315h256v-4l-430 -311h-11z" />
    <glyph glyph-name="uni0156" unicode="&#x156;" horiz-adv-x="1349" 
d="M784 1393h-159l-156 -736h178q207 0 325 122.5t118 324.5q0 129 -84.5 209t-221.5 80zM1305 1042q0 -151 -115 -257t-318 -148l390 -627l-2 -10h-220l-352 616h-227l-99 -462q-12 -56 10 -78.5t97 -36.5l55 -8l-6 -31h-586l7 31l51 8q90 18 121 38.5t43 76.5l237 1126
q11 55 -7 76.5t-89 34.5l-66 12l7 31h557q230 0 371 -108.5t141 -283.5zM604 -121q51 0 83 -33t32 -84q0 -103 -87 -175t-224 -101l-5 22q75 18 115.5 56t40.5 82q0 73 -92 112q8 56 45 88.5t92 32.5z" />
    <glyph glyph-name="uni0157" unicode="&#x157;" horiz-adv-x="845" 
d="M860 1124q59 0 82.5 -33.5t15.5 -82t-38 -107.5q-91 55 -162 55q-61 0 -130 -92t-158 -306t-198 -558h-192l280 1051q-71 -45 -154 -139.5t-161 -221.5l-22 12q118 202 232 313t212 111q50 0 69 -35.5t1 -103.5l-138 -512q60 154 118 272t105.5 188t93 114t79 59.5
t65.5 15.5zM137 -121q51 0 83 -33t32 -84q0 -103 -87 -175t-224 -101l-4 22q75 18 115 56t40 82q0 73 -92 112q8 56 45 88.5t92 32.5z" />
    <glyph glyph-name="Rcaron" unicode="&#x158;" horiz-adv-x="1349" 
d="M784 1393h-159l-156 -736h178q207 0 325 122.5t118 324.5q0 129 -84.5 209t-221.5 80zM1305 1042q0 -151 -115 -257t-318 -148l390 -627l-2 -10h-220l-352 616h-227l-99 -462q-12 -56 10 -78.5t97 -36.5l55 -8l-6 -31h-586l7 31l51 8q90 18 121 38.5t43 76.5l237 1126
q11 55 -7 76.5t-89 34.5l-66 12l7 31h557q230 0 371 -108.5t141 -283.5zM1219 1855l4 -6l-363 -317h-4l-225 315l8 8l246 -149z" />
    <glyph glyph-name="rcaron" unicode="&#x159;" horiz-adv-x="845" 
d="M860 1124q59 0 82.5 -33.5t15.5 -82t-38 -107.5q-91 55 -162 55q-61 0 -130 -92t-158 -306t-198 -558h-192l280 1051q-71 -45 -154 -139.5t-161 -221.5l-22 12q118 202 232 313t212 111q50 0 69 -35.5t1 -103.5l-138 -512q60 154 118 272t105.5 188t93 114t79 59.5
t65.5 15.5zM1008 1522l-363 -318h-4l-225 316l8 8l246 -150l334 150z" />
    <glyph glyph-name="Sacute" unicode="&#x15a;" horiz-adv-x="1077" 
d="M483 -20q-121 0 -239 40t-213 119l24 277h21q21 -101 92.5 -194.5t173 -152.5t201.5 -59q109 0 182.5 81.5t73.5 193.5q0 71 -32 130t-82.5 101.5t-112 82t-123 82.5t-112 91.5t-82.5 119.5t-32 157q0 126 67.5 220t173.5 139.5t234 45.5q214 0 396 -121l-43 -284h-21
q-30 186 -125.5 280t-238.5 94q-133 0 -210 -75t-77 -189q0 -56 20 -104.5t53.5 -84.5t77 -69t92 -63t97 -61t92 -68.5t77 -80t53.5 -101t20 -126.5q0 -177 -135.5 -299t-342.5 -122zM952 1843h256v-4l-430 -311h-10z" />
    <glyph glyph-name="sacute" unicode="&#x15b;" horiz-adv-x="819" 
d="M258 -20q-133 0 -213 56t-80 138q0 43 24.5 84t69.5 66q18 -56 45.5 -105t66 -90.5t91 -65.5t113.5 -24q74 0 130 47.5t56 112.5q0 52 -40 106.5t-96.5 105.5t-113.5 106t-97 127.5t-40 150.5q0 136 100 233.5t271 97.5q134 0 211.5 -54.5t77.5 -127.5q0 -43 -28.5 -81
t-86.5 -62q-3 46 -21 93.5t-48.5 89t-79 67.5t-105.5 26q-82 0 -131 -52t-49 -124q0 -40 21.5 -82.5t56.5 -81t77 -78.5t83.5 -81.5t76.5 -84t56.5 -92.5t21.5 -100q0 -55 -26.5 -110.5t-76.5 -103.5t-133 -77.5t-184 -29.5zM756 1513h256v-4l-430 -311h-11z" />
    <glyph glyph-name="Scedilla" unicode="&#x15e;" horiz-adv-x="1077" 
d="M698 1454q214 0 396 -121l-43 -284h-21q-30 186 -125.5 280t-238.5 94q-133 0 -210 -75t-77 -189q0 -56 20 -104.5t53.5 -84.5t77 -69t92 -63t97 -61t92 -68.5t77 -80t53.5 -101t20 -126.5q0 -177 -135.5 -299t-342.5 -122q-23 0 -69 4l-52 -72q69 -21 111.5 -64.5
t42.5 -101.5q0 -53 -31 -95t-78 -67t-110 -41t-120 -22t-114 -6l-2 71q70 -20 144 -20q81 0 129.5 30.5t48.5 92.5q0 86 -166 121l145 180q-196 38 -331 149l24 277h21q21 -101 92.5 -194.5t173 -152.5t201.5 -59q109 0 182.5 81.5t73.5 193.5q0 71 -32 130t-82.5 101.5
t-112 82t-123 82.5t-112 91.5t-82.5 119.5t-32 157q0 126 67.5 220t173.5 139.5t234 45.5z" />
    <glyph glyph-name="scedilla" unicode="&#x15f;" horiz-adv-x="819" 
d="M545 1126q134 0 211.5 -54.5t77.5 -127.5q0 -43 -28.5 -81t-86.5 -62q-3 46 -21 93.5t-48.5 89t-79 67.5t-105.5 26q-82 0 -131 -52t-49 -124q0 -40 21.5 -82.5t56.5 -81t77 -78.5t83.5 -81.5t76.5 -84t56.5 -92.5t21.5 -100q0 -55 -26.5 -110.5t-76.5 -103.5t-133 -77.5
t-184 -29.5l-49 -68q69 -21 111 -64.5t42 -101.5q0 -66 -45 -114t-117.5 -72t-144 -34.5t-145.5 -10.5l-2 71q70 -20 143 -20q81 0 129.5 30.5t48.5 92.5q0 86 -166 121l140 172q-109 12 -173.5 66.5t-64.5 125.5q0 43 24.5 84t69.5 66q18 -56 45.5 -105t66 -90.5t91 -65.5
t113.5 -24q74 0 130 47.5t56 112.5q0 52 -40 106.5t-96.5 105.5t-113.5 106t-97 127.5t-40 150.5q0 136 100 233.5t271 97.5z" />
    <glyph glyph-name="Scaron" unicode="&#x160;" horiz-adv-x="1077" 
d="M223 1049q0 126 67.5 220t173.5 139.5t234 45.5q214 0 396 -121l-43 -284h-21q-30 186 -125.5 280t-238.5 94q-133 0 -210 -75t-77 -189q0 -56 20 -104.5t53.5 -84.5t77 -69t92 -63t97 -61t92 -68.5t77 -80t53.5 -101t20 -126.5q0 -177 -135.5 -299t-342.5 -122
q-121 0 -239 40t-213 119l24 277h21q21 -101 92.5 -194.5t173 -152.5t201.5 -59q109 0 182.5 81.5t73.5 193.5q0 71 -32 130t-82.5 101.5t-112 82t-123 82.5t-112 91.5t-82.5 119.5t-32 157zM1139 1849l-363 -317h-4l-225 315l8 8l246 -149l334 149z" />
    <glyph glyph-name="scaron" unicode="&#x161;" horiz-adv-x="819" 
d="M545 1126q134 0 211.5 -54.5t77.5 -127.5q0 -43 -28.5 -81t-86.5 -62q-3 46 -21 93.5t-48.5 89t-79 67.5t-105.5 26q-82 0 -131 -52t-49 -124q0 -40 21.5 -82.5t56.5 -81t77 -78.5t83.5 -81.5t76.5 -84t56.5 -92.5t21.5 -100q0 -55 -26.5 -110.5t-76.5 -103.5t-133 -77.5
t-184 -29.5q-133 0 -213 56t-80 138q0 43 24.5 84t69.5 66q18 -56 45.5 -105t66 -90.5t91 -65.5t113.5 -24q74 0 130 47.5t56 112.5q0 52 -40 106.5t-96.5 105.5t-113.5 106t-97 127.5t-40 150.5q0 136 100 233.5t271 97.5zM963 1522l-363 -318h-4l-225 316l8 8l246 -150
l333 150z" />
    <glyph glyph-name="uni0162" unicode="&#x162;" horiz-adv-x="1359" 
d="M125 979l162 455h1161l-31 -455h-20q-25 224 -101 319t-209 95h-122l-263 -1239q-7 -31 1 -52t33 -32.5t49 -17.5t65 -11l90 -10l-6 -31h-338l-64 -88q69 -21 111.5 -64.5t42.5 -101.5q0 -53 -31 -95t-78 -67t-110 -41t-120 -22t-114 -6l-2 71q70 -20 144 -20
q81 0 129.5 30.5t48.5 92.5q0 86 -166 121l154 190h-346l6 31l94 10q43 4 70 9.5t56.5 17.5t47 33t23.5 53l262 1239h-123q-132 0 -247 -94.5t-239 -319.5h-20z" />
    <glyph glyph-name="uni0163" unicode="&#x163;" horiz-adv-x="700" 
d="M817 1106l-10 -41h-289l-270 -1030q79 29 181.5 131t201.5 250l22 -13q-126 -201 -247.5 -312t-219.5 -111h-12q-10 0 -14 2l-49 -70q69 -21 111 -64.5t42 -101.5q0 -66 -45 -114t-117.5 -72t-144 -34.5t-145.5 -10.5l-2 71q70 -20 141 -20q81 0 130.5 30.5t49.5 92.5
q0 86 -166 121l150 186q-61 36 -35 145l244 924h-185l4 20l420 236h25l-58 -215h287z" />
    <glyph glyph-name="Tcaron" unicode="&#x164;" horiz-adv-x="1359" 
d="M125 979l162 455h1161l-31 -455h-20q-25 224 -101 319t-209 95h-122l-263 -1239q-7 -31 1 -52t33 -32.5t49 -17.5t65 -11l90 -10l-6 -31h-739l6 31l94 10q43 4 70 9.5t56.5 17.5t47 33t23.5 53l262 1239h-123q-132 0 -247 -94.5t-239 -319.5h-20zM1255 1849l-362 -317h-4
l-225 315l8 8l246 -149l333 149z" />
    <glyph glyph-name="tcaron" unicode="&#x165;" horiz-adv-x="700" 
d="M563 1321h25l-58 -215h287l-10 -41h-289l-270 -1030q79 29 181.5 131t201.5 250l22 -13q-126 -201 -247.5 -312t-219.5 -111q-68 0 -98 39t-8 122l244 924h-185l4 20zM639 1169l86 265h182l-4 -13l-252 -252h-12z" />
    <glyph glyph-name="Tbar" unicode="&#x166;" horiz-adv-x="1343" 
d="M117 979l162 455h1161l-31 -455h-20q-25 224 -101 319t-209 95h-123l-137 -656h287l-10 -41h-287l-115 -542q-7 -31 1 -52t33 -32.5t49 -17.5t65 -11l90 -10l-6 -31h-740l7 31l94 10q43 4 70 9.5t56 17.5t46.5 33t23.5 53l115 542h-291l10 41h291l137 656h-122
q-132 0 -247 -94.5t-239 -319.5h-20z" />
    <glyph glyph-name="tbar" unicode="&#x167;" horiz-adv-x="704" 
d="M819 1106l-10 -41h-289l-76 -287h222l-9 -41h-223l-184 -702q79 29 181.5 131t201.5 250l22 -13q-126 -201 -247.5 -312t-219.5 -111q-68 0 -98 39t-8 122l158 596h-160l10 41h160l76 287h-185l4 20l420 236h25l-58 -215h287z" />
    <glyph glyph-name="Utilde" unicode="&#x168;" horiz-adv-x="1468" 
d="M788 1661q-38 0 -76 -24.5t-63 -65.5l-14 2q102 217 223 217q34 0 66.5 -14.5t58 -36t50 -42.5t53.5 -35.5t59 -14.5q81 0 137 100l14 -2q-100 -223 -227 -223q-36 0 -69.5 14.5t-58.5 35t-49 40.5t-50.5 34.5t-53.5 14.5zM672 -20q-124 0 -225.5 36.5t-167.5 105
t-91.5 167.5t0.5 223l164 768q12 60 -12 82t-78 31l-57 10l6 31h571l-6 -31l-67 -10q-24 -4 -40 -7.5t-35 -11.5t-31.5 -19t-23.5 -30t-16 -45l-166 -780q-27 -141 13 -242q40 -99 133 -154t221 -55q184 0 287.5 115.5t150.5 337.5l166 778q12 60 -17 82t-94 31l-67 10l6 31
h457l-6 -31l-74 -10q-26 -4 -43.5 -7.5t-38.5 -11.5t-34.5 -19t-25 -30t-16.5 -45l-166 -778q-53 -252 -196 -387t-381 -135z" />
    <glyph glyph-name="utilde" unicode="&#x169;" horiz-adv-x="1277" 
d="M1235 416l22 -13q-114 -200 -229.5 -311.5t-214.5 -111.5q-50 0 -69 35.5t-1 103.5l148 553q-129 -320 -288 -506t-316 -186q-92 0 -135.5 68t-14.5 177l219 824q-70 -45 -153.5 -139.5t-161.5 -219.5l-23 12q118 202 232.5 313t212.5 111q50 0 68.5 -35.5t0.5 -103.5
l-200 -745q-35 -133 65 -133q65 0 147 73t164.5 200.5t162.5 317t137 406.5h192l-282 -1051q71 46 155.5 140.5t161.5 220.5zM911 1235q-44 0 -85 21.5t-67.5 48t-61 48t-66.5 21.5q-38 0 -76 -24.5t-63 -65.5l-15 2q102 217 223 217q34 0 66.5 -14.5t58 -35.5t50 -42.5
t53.5 -36t59 -14.5q81 0 137 100l15 -2q-100 -223 -228 -223z" />
    <glyph glyph-name="Umacron" unicode="&#x16a;" horiz-adv-x="1468" 
d="M672 -20q-124 0 -225.5 36.5t-167.5 105t-91.5 167.5t0.5 223l164 768q12 60 -12 82t-78 31l-57 10l6 31h571l-6 -31l-67 -10q-24 -4 -40 -7.5t-35 -11.5t-31.5 -19t-23.5 -30t-16 -45l-166 -780q-27 -141 13 -242q40 -99 133 -154t221 -55q184 0 287.5 115.5
t150.5 337.5l166 778q12 60 -17 82t-94 31l-67 10l6 31h457l-6 -31l-74 -10q-26 -4 -43.5 -7.5t-38.5 -11.5t-34.5 -19t-25 -30t-16.5 -45l-166 -778q-53 -252 -196 -387t-381 -135zM1327 1599h-629l9 41h628z" />
    <glyph glyph-name="umacron" unicode="&#x16b;" horiz-adv-x="1277" 
d="M1235 416l22 -13q-114 -200 -229.5 -311.5t-214.5 -111.5q-50 0 -69 35.5t-1 103.5l148 553q-129 -320 -288 -506t-316 -186q-92 0 -135.5 68t-14.5 177l219 824q-70 -45 -153.5 -139.5t-161.5 -219.5l-23 12q118 202 232.5 313t212.5 111q50 0 68.5 -35.5t0.5 -103.5
l-200 -745q-35 -133 65 -133q65 0 147 73t164.5 200.5t162.5 317t137 406.5h192l-282 -1051q71 46 155.5 140.5t161.5 220.5zM487 1333h629l-8 -41h-629z" />
    <glyph glyph-name="Uring" unicode="&#x16e;" horiz-adv-x="1468" 
d="M1028 1571q66 0 110 42t44 105q0 60 -39 97.5t-99 37.5q-63 0 -107 -44t-44 -107q0 -59 38.5 -95t96.5 -36zM672 -20q-124 0 -225.5 36.5t-167.5 105t-91.5 167.5t0.5 223l164 768q12 60 -12 82t-78 31l-57 10l6 31h571l-6 -31l-67 -10q-24 -4 -40 -7.5t-35 -11.5
t-31.5 -19t-23.5 -30t-16 -45l-166 -780q-27 -141 13 -242q40 -99 133 -154t221 -55q184 0 287.5 115.5t150.5 337.5l166 778q12 60 -17 82t-94 31l-67 10l6 31h457l-6 -31l-74 -10q-26 -4 -43.5 -7.5t-38.5 -11.5t-34.5 -19t-25 -30t-16.5 -45l-166 -778
q-53 -252 -196 -387t-381 -135zM1022 1528q-78 0 -127 47t-49 125q0 85 59.5 141.5t147.5 56.5q78 0 127 -47t49 -125q0 -85 -59.5 -141.5t-147.5 -56.5z" />
    <glyph glyph-name="uring" unicode="&#x16f;" horiz-adv-x="1277" 
d="M825 1546q-63 0 -107 -44t-44 -107q0 -59 38.5 -95t96.5 -36q66 0 110 42t44 105q0 60 -39 97.5t-99 37.5zM1235 416l22 -13q-114 -200 -229.5 -311.5t-214.5 -111.5q-50 0 -69 35.5t-1 103.5l148 553q-129 -320 -288 -506t-316 -186q-92 0 -135.5 68t-14.5 177l219 824
q-70 -45 -153.5 -139.5t-161.5 -219.5l-23 12q118 202 232.5 313t212.5 111q50 0 68.5 -35.5t0.5 -103.5l-200 -745q-35 -133 65 -133q65 0 147 73t164.5 200.5t162.5 317t137 406.5h192l-282 -1051q71 46 155.5 140.5t161.5 220.5zM803 1221q-78 0 -127 47t-49 125
q0 85 59.5 141.5t147.5 56.5q78 0 127 -47t49 -125q0 -85 -59.5 -141.5t-147.5 -56.5z" />
    <glyph glyph-name="Uhungarumlaut" unicode="&#x170;" horiz-adv-x="1468" 
d="M672 -20q-124 0 -225.5 36.5t-167.5 105t-91.5 167.5t0.5 223l164 768q12 60 -12 82t-78 31l-57 10l6 31h571l-6 -31l-67 -10q-24 -4 -40 -7.5t-35 -11.5t-31.5 -19t-23.5 -30t-16 -45l-166 -780q-27 -141 13 -242q40 -99 133 -154t221 -55q184 0 287.5 115.5
t150.5 337.5l166 778q12 60 -17 82t-94 31l-67 10l6 31h457l-6 -31l-74 -10q-26 -4 -43.5 -7.5t-38.5 -11.5t-34.5 -19t-25 -30t-16.5 -45l-166 -778q-53 -252 -196 -387t-381 -135zM827 1526h-10l193 315h227v-4zM1114 1526h-10l192 315h228v-4z" />
    <glyph glyph-name="uhungarumlaut" unicode="&#x171;" horiz-adv-x="1277" 
d="M1200 1106l-282 -1051q71 46 155.5 140.5t161.5 220.5l22 -13q-114 -200 -229.5 -311.5t-214.5 -111.5q-50 0 -69 35.5t-1 103.5l148 553q-129 -320 -288 -506t-316 -186q-92 0 -135.5 68t-14.5 177l219 824q-70 -45 -153.5 -139.5t-161.5 -219.5l-23 12
q118 202 232.5 313t212.5 111q50 0 68.5 -35.5t0.5 -103.5l-200 -745q-35 -133 65 -133q65 0 147 73t164.5 200.5t162.5 317t137 406.5h192zM1049 1513v-4l-410 -311h-10l192 315h228zM915 1198l193 315h227v-4l-409 -311h-11z" />
    <glyph glyph-name="Uogonek" unicode="&#x172;" horiz-adv-x="1472" 
d="M1190 1403l6 31h457l-6 -31l-82 -12q-77 -12 -108.5 -34.5t-41.5 -76.5l-166 -778q-50 -226 -168 -363q-250 -290 -270 -372q-18 -64 10 -89q18 -18 53 -18q53 0 103 33l4 -4q-42 -52 -102.5 -84.5t-122.5 -32.5q-58 0 -89.5 32.5t-31.5 78.5q0 36 21 74t71 88t96.5 90
t132.5 110q-133 -65 -276 -65q-126 0 -227 34.5t-170 103.5t-93.5 172.5t3.5 241.5l159 748q10 54 -6 75.5t-76 35.5l-65 12l6 31h571l-6 -31l-74 -12q-71 -12 -100 -34.5t-39 -76.5l-162 -760q-23 -120 -5 -208.5t71 -147t128.5 -87t168.5 -28.5q346 0 438 453l166 778
q11 54 -9 76t-93 35z" />
    <glyph glyph-name="uogonek" unicode="&#x173;" horiz-adv-x="1277" 
d="M1235 416l22 -13q-140 -246 -296 -366q-226 -174 -259 -252q-33 -74 3 -107q18 -18 53 -18q52 0 102 33l4 -4q-42 -52 -102 -84.5t-119 -32.5q-60 0 -92.5 26t-32.5 70q0 80 86 153.5t252 164.5q-21 -6 -43 -6q-50 0 -69 35.5t-1 103.5l148 553q-129 -320 -288 -506
t-316 -186q-92 0 -135.5 68t-14.5 177l219 824q-70 -45 -153.5 -139.5t-161.5 -219.5l-23 12q118 202 232.5 313t212.5 111q50 0 68.5 -35.5t0.5 -103.5l-200 -745q-35 -133 65 -133q65 0 147 73t164.5 200.5t162.5 317t137 406.5h192l-280 -1049q148 91 315 359z" />
    <glyph glyph-name="Wcircumflex" unicode="&#x174;" horiz-adv-x="2037" 
d="M1833 1403l6 31h432l-6 -31l-51 -10q-26 -5 -40.5 -9.5t-36.5 -15.5t-40 -32t-33 -52l-641 -1284h-163l-146 1214l-586 -1214h-161l-103 1284q-2 31 -8 52t-16.5 32t-19 15.5t-23.5 9.5l-29 10l6 31h504l-6 -31l-68 -10q-60 -9 -88 -30t-27 -79l62 -1132l620 1282h140
l137 -1301l569 1151q28 57 0 78.5t-102 30.5zM1573 1536l-246 150l-334 -150l-4 6l363 318h4l225 -316z" />
    <glyph glyph-name="wcircumflex" unicode="&#x175;" horiz-adv-x="1724" 
d="M1559 1116q62 0 99.5 -39.5t47 -107t-2.5 -153.5t-48 -184.5t-90 -193.5q-113 -200 -284.5 -329t-371.5 -129q-89 0 -118 63t-3 160l125 463q-132 -319 -290 -502.5t-314 -183.5q-92 0 -135 68t-14 177l219 824q-71 -45 -154.5 -139.5t-161.5 -219.5l-22 12
q118 202 232 313t212 111q50 0 69 -35.5t1 -103.5l-201 -745q-35 -133 66 -133q65 0 146.5 73t164 200.5t162.5 317t137 406.5h193l-260 -969q-16 -51 -5.5 -76.5t58.5 -25.5q67 0 183 67t212 181q156 184 156 422q0 187 -111 391q53 20 103 20zM1425 1208l-245 150
l-334 -150l-4 6l362 318h4l226 -315z" />
    <glyph glyph-name="Ycircumflex" unicode="&#x176;" horiz-adv-x="1292" 
d="M1079 1403l6 31h418l-6 -31l-45 -10q-55 -12 -88 -33t-70 -66l-516 -663l-100 -477q-12 -59 17.5 -81.5t92.5 -31.5l70 -10l-6 -31h-623l7 31l73 10q33 5 54.5 10t45.5 17t39 33t21 53l98 471l-284 673q-24 69 -99 95l-28 10l6 31h520l-6 -31l-80 -10q-60 -7 -81.5 -25.5
t-0.5 -69.5l256 -610l471 606q22 28 25.5 47t-13 29t-38 15t-58.5 8zM1196 1536l-246 150l-334 -150l-4 6l363 318h4l225 -316z" />
    <glyph glyph-name="ycircumflex" unicode="&#x177;" horiz-adv-x="1181" 
d="M989 1116q77 0 115.5 -55.5t38.5 -155.5q0 -134 -45.5 -285t-124 -293t-189.5 -273t-236 -229t-269.5 -156t-284.5 -58q-125 0 -200 49.5t-75 140.5q0 61 35 107q172 -158 398 -158q161 0 313 82l-109 1223q-71 -38 -155.5 -133.5t-171.5 -231.5l-23 12
q118 202 232.5 313t212.5 111q48 0 71.5 -31t30.5 -108l94 -1026q151 138 241.5 327.5t90.5 379.5q0 125 -23 219.5t-71 208.5q53 20 104 20zM1075 1208l-246 150l-333 -150l-4 6l362 318h4l225 -315z" />
    <glyph glyph-name="Ydieresis" unicode="&#x178;" horiz-adv-x="1292" 
d="M1079 1403l6 31h418l-6 -31l-45 -10q-55 -12 -88 -33t-70 -66l-516 -663l-100 -477q-12 -59 17.5 -81.5t92.5 -31.5l70 -10l-6 -31h-623l7 31l73 10q33 5 54.5 10t45.5 17t39 33t21 53l98 471l-284 673q-24 69 -99 95l-28 10l6 31h520l-6 -31l-80 -10q-60 -7 -81.5 -25.5
t-0.5 -69.5l256 -610l471 606q22 28 25.5 47t-13 29t-38 15t-58.5 8zM741 1606q-51 0 -83.5 32.5t-32.5 83.5t32.5 84t83.5 33t84 -33t33 -84t-33 -83.5t-84 -32.5zM1147 1606q-51 0 -84 32.5t-33 83.5t33 84t84 33t84 -33t33 -84t-33 -83.5t-84 -32.5z" />
    <glyph glyph-name="Zacute" unicode="&#x179;" horiz-adv-x="1265" 
d="M344 1434h1030l-4 -25l-1143 -1368h355q122 0 215 45.5t184 149.5q99 117 193 282h20l-201 -518h-1065l4 25l1151 1368h-356q-52 0 -102 -14t-89.5 -34.5t-82 -57t-72 -67t-67 -80t-58.5 -80.5t-55 -83h-21zM1313 1843v-4l-430 -311h-11l185 315h256z" />
    <glyph glyph-name="zacute" unicode="&#x17a;" horiz-adv-x="983" 
d="M922 1122q41 0 63.5 -19t22.5 -54q0 -57 -74 -119l-658 -557l279 -330q75 37 165.5 135.5t178.5 239.5l23 -15q-114 -200 -230 -311.5t-215 -111.5q-55 0 -126.5 52.5t-227.5 205.5q-45 -51 -58 -105.5t5 -142.5q-28 -8 -50 -8q-41 0 -69 22q-35 28 -24 76.5t69 99.5
l713 604l-238 279q-155 -80 -342 -373l-23 12q118 202 232.5 313t212.5 111q57 0 119.5 -41t171.5 -153q57 92 32 180q23 10 48 10zM709 1198l184 315h256v-4l-430 -311h-10z" />
    <glyph glyph-name="Zdotaccent" unicode="&#x17b;" horiz-adv-x="1265" 
d="M344 1434h1030l-4 -25l-1143 -1368h355q122 0 215 45.5t184 149.5q99 117 193 282h20l-201 -518h-1065l4 25l1151 1368h-356q-52 0 -102 -14t-89.5 -34.5t-82 -57t-72 -67t-67 -80t-58.5 -80.5t-55 -83h-21zM924 1606q-51 0 -86 34.5t-35 85.5q0 53 34.5 87t86.5 34
q54 0 87 -33.5t33 -87.5q0 -52 -33.5 -86t-86.5 -34z" />
    <glyph glyph-name="zdotaccent" unicode="&#x17c;" horiz-adv-x="983" 
d="M922 1122q41 0 63.5 -19t22.5 -54q0 -57 -74 -119l-658 -557l279 -330q75 37 165.5 135.5t178.5 239.5l23 -15q-114 -200 -230 -311.5t-215 -111.5q-55 0 -126.5 52.5t-227.5 205.5q-45 -51 -58 -105.5t5 -142.5q-28 -8 -50 -8q-41 0 -69 22q-35 28 -24 76.5t69 99.5
l713 604l-238 279q-155 -80 -342 -373l-23 12q118 202 232.5 313t212.5 111q57 0 119.5 -41t171.5 -153q57 92 32 180q23 10 48 10zM770 1257q-51 0 -86 35t-35 86q0 53 34.5 87t86.5 34q54 0 87.5 -33.5t33.5 -87.5q0 -52 -34 -86.5t-87 -34.5z" />
    <glyph glyph-name="Zcaron" unicode="&#x17d;" horiz-adv-x="1265" 
d="M344 1434h1030l-4 -25l-1143 -1368h355q122 0 215 45.5t184 149.5q99 117 193 282h20l-201 -518h-1065l4 25l1151 1368h-356q-52 0 -102 -14t-89.5 -34.5t-82 -57t-72 -67t-67 -80t-58.5 -80.5t-55 -83h-21zM1243 1849l-362 -317h-4l-226 315l8 8l246 -149l334 149z" />
    <glyph glyph-name="zcaron" unicode="&#x17e;" horiz-adv-x="983" 
d="M922 1122q41 0 63.5 -19t22.5 -54q0 -57 -74 -119l-658 -557l279 -330q75 37 165.5 135.5t178.5 239.5l23 -15q-114 -200 -230 -311.5t-215 -111.5q-55 0 -126.5 52.5t-227.5 205.5q-45 -51 -58 -105.5t5 -142.5q-28 -8 -50 -8q-41 0 -69 22q-35 28 -24 76.5t69 99.5
l713 604l-238 279q-155 -80 -342 -373l-23 12q118 202 232.5 313t212.5 111q57 0 119.5 -41t171.5 -153q57 92 32 180q23 10 48 10zM1100 1522l-363 -318h-4l-225 316l8 8l246 -150l334 150z" />
    <glyph glyph-name="florin" unicode="&#x192;" horiz-adv-x="1161" 
d="M1133 1454q70 0 111.5 -33t41.5 -84q0 -69 -80 -137q-32 65 -107 108.5t-149 43.5q-23 0 -53 -82q-16 -43 -72.5 -218t-99.5 -290h326l-11 -41h-329q-267 -741 -615 -741q-68 0 -110.5 33t-42.5 83q0 74 80 137q37 -54 113.5 -102.5t142.5 -48.5q19 0 50 80.5t90 259
t105 299.5h-297l11 41h301q45 113 89 205t102 186t117.5 157.5t133.5 103.5t152 40z" />
    <glyph glyph-name="Ohorn" unicode="&#x1a0;" horiz-adv-x="1443" 
d="M621 8q93 0 176.5 43.5t147 118t115 172t84.5 208t50.5 223.5t17.5 220q0 212 -82 322t-235 110q-87 0 -165 -37t-136.5 -99t-107.5 -144.5t-82.5 -173.5t-56.5 -186.5t-33.5 -181.5t-10.5 -161q0 -211 83.5 -322.5t234.5 -111.5zM897 1454q255 0 397 -172q76 50 90 104
q18 84 -94 134q9 46 48.5 77t82.5 31q52 0 76 -38t12 -95q-14 -68 -65 -128.5t-133 -104.5q106 -142 106 -365q0 -115 -28 -229.5t-78.5 -215.5t-123.5 -188t-160 -149.5t-192.5 -98.5t-216.5 -36q-238 0 -379 153t-141 406q0 173 62 339t167 293t255 205t315 78z" />
    <glyph glyph-name="ohorn" unicode="&#x1a1;" horiz-adv-x="1118" 
d="M451 12q77 0 145 51.5t116.5 134.5t84 186t52.5 208t17 199q0 147 -50 225t-148 78q-71 0 -133.5 -41t-106 -109t-78.5 -151t-55 -171.5t-30.5 -166.5t-10.5 -140q0 -144 50.5 -223.5t146.5 -79.5zM672 1126q202 0 311 -151q88 53 102 112q18 84 -94 134q9 46 48.5 77
t82.5 31q52 0 76 -38t12 -95q-15 -72 -69.5 -135.5t-143.5 -106.5q66 -107 66 -256q0 -134 -48 -264t-129 -230t-197 -162t-243 -62q-179 0 -284 118t-105 312q0 179 81 343.5t224 268.5t310 104z" />
    <glyph glyph-name="Uhorn" unicode="&#x1af;" horiz-adv-x="1468" 
d="M672 -20q-124 0 -225.5 36.5t-167.5 105t-91.5 167.5t0.5 223l164 768q12 60 -12 82t-78 31l-57 10l6 31h571l-6 -31l-67 -10q-24 -4 -40 -7.5t-35 -11.5t-31.5 -19t-23.5 -30t-16 -45l-166 -780q-27 -141 13 -242q40 -99 133 -154t221 -55q184 0 287.5 115.5
t150.5 337.5l166 778q12 60 -17 82t-94 31l-67 10l6 31h334l-6 -31q-53 -16 -74.5 -38t-34.5 -85l-8 -41q157 67 176 147q18 84 -94 134q9 46 48.5 77t82.5 31q52 0 76 -38t12 -95q-19 -90 -98.5 -163.5t-208.5 -112.5l-152 -717q-53 -252 -196 -387t-381 -135z" />
    <glyph glyph-name="uhorn" unicode="&#x1b0;" horiz-adv-x="1277" 
d="M1235 416l22 -13q-114 -200 -229.5 -311.5t-214.5 -111.5q-50 0 -69 35.5t-1 103.5l148 553q-129 -320 -288 -506t-316 -186q-92 0 -135.5 68t-14.5 177l219 824q-70 -45 -153.5 -139.5t-161.5 -219.5l-23 12q118 202 232.5 313t212.5 111q50 0 68.5 -35.5t0.5 -103.5
l-200 -745q-35 -133 65 -133q65 0 147 73t164.5 200.5t162.5 317t137 406.5h192l-45 -164q154 62 174 145q18 84 -94 134q9 46 48.5 77t82.5 31q52 0 76 -38t12 -95q-19 -90 -97.5 -163t-207.5 -113l-231 -865q71 46 155.5 140.5t161.5 220.5z" />
    <glyph glyph-name="uni01CD" unicode="&#x1cd;" horiz-adv-x="1384" 
d="M879 588l-111 719l-397 -719h508zM1274 41l49 -10l-6 -31h-547l6 31l64 10q67 11 90 33.5t16 72.5l-61 400h-537l-221 -400q-31 -51 -13 -73.5t101 -32.5l80 -10l-6 -31h-430l6 31l51 10q66 12 98 33.5t58 72.5l714 1287h162l215 -1289q7 -49 30.5 -70.5t80.5 -33.5z
M1251 1855l4 -6l-362 -317h-4l-225 315l8 8l246 -149z" />
    <glyph glyph-name="uni01CE" unicode="&#x1ce;" horiz-adv-x="1210" 
d="M340 123q54 0 120 52.5t138.5 154.5t150.5 272.5t146 386.5q-90 101 -188 101q-83 0 -172.5 -84t-156.5 -206t-111 -262t-44 -249q0 -166 117 -166zM1171 416l23 -13q-114 -200 -229.5 -311.5t-214.5 -111.5q-50 0 -69 35.5t-1 103.5l190 698h-2q-155 -425 -323 -631
t-330 -206q-101 0 -149 69t-48 191q0 120 37.5 246.5t106.5 240t158.5 203.5t203 143t230.5 53q109 0 229 -57l154 57h4l-285 -1069q148 91 315 359zM1184 1528l4 -6l-363 -318h-4l-225 316l8 8l246 -150z" />
    <glyph glyph-name="uni0218" unicode="&#x218;" horiz-adv-x="1077" 
d="M483 -20q-121 0 -239 40t-213 119l24 277h21q21 -101 92.5 -194.5t173 -152.5t201.5 -59q109 0 182.5 81.5t73.5 193.5q0 71 -32 130t-82.5 101.5t-112 82t-123 82.5t-112 91.5t-82.5 119.5t-32 157q0 126 67.5 220t173.5 139.5t234 45.5q214 0 396 -121l-43 -284h-21
q-30 186 -125.5 280t-238.5 94q-133 0 -210 -75t-77 -189q0 -56 20 -104.5t53.5 -84.5t77 -69t92 -63t97 -61t92 -68.5t77 -80t53.5 -101t20 -126.5q0 -177 -135.5 -299t-342.5 -122zM147 -514l-4 22q75 18 115.5 56t40.5 82q0 73 -92 112q8 56 45 88.5t92 32.5q51 0 83 -33
t32 -84q0 -102 -87.5 -174.5t-224.5 -101.5z" />
    <glyph glyph-name="uni0219" unicode="&#x219;" horiz-adv-x="819" 
d="M258 -20q-133 0 -213 56t-80 138q0 43 24.5 84t69.5 66q18 -56 45.5 -105t66 -90.5t91 -65.5t113.5 -24q74 0 130 47.5t56 112.5q0 52 -40 106.5t-96.5 105.5t-113.5 106t-97 127.5t-40 150.5q0 136 100 233.5t271 97.5q134 0 211.5 -54.5t77.5 -127.5q0 -43 -28.5 -81
t-86.5 -62q-3 46 -21 93.5t-48.5 89t-79 67.5t-105.5 26q-82 0 -131 -52t-49 -124q0 -40 21.5 -82.5t56.5 -81t77 -78.5t83.5 -81.5t76.5 -84t56.5 -92.5t21.5 -100q0 -55 -26.5 -110.5t-76.5 -103.5t-133 -77.5t-184 -29.5zM-6 -514l-4 22q75 18 115 56t40 82q0 73 -92 112
q8 56 45 88.5t92 32.5q51 0 83 -33t32 -84q0 -103 -87 -175t-224 -101z" />
    <glyph glyph-name="uni021A" unicode="&#x21a;" horiz-adv-x="1359" 
d="M125 979l162 455h1161l-31 -455h-20q-25 224 -101 319t-209 95h-122l-263 -1239q-7 -31 1 -52t33 -32.5t49 -17.5t65 -11l90 -10l-6 -31h-739l6 31l94 10q43 4 70 9.5t56.5 17.5t47 33t23.5 53l262 1239h-123q-132 0 -247 -94.5t-239 -319.5h-20zM514 -121q51 0 83 -33
t32 -84q0 -102 -87.5 -174.5t-224.5 -101.5l-4 22q75 18 115.5 56t40.5 82q0 73 -92 112q8 56 45 88.5t92 32.5z" />
    <glyph glyph-name="uni021B" unicode="&#x21b;" horiz-adv-x="700" 
d="M817 1106l-10 -41h-289l-270 -1030q79 29 181.5 131t201.5 250l22 -13q-126 -201 -247.5 -312t-219.5 -111q-68 0 -98 39t-8 122l244 924h-185l4 20l420 236h25l-58 -215h287zM92 -121q51 0 83 -33t32 -84q0 -103 -87 -175t-224 -101l-5 22q75 18 115.5 56t40.5 82
q0 73 -92 112q8 56 45 88.5t92 32.5z" />
    <glyph glyph-name="uni0237" unicode="&#x237;" horiz-adv-x="571" 
d="M467 1126q50 0 69 -35.5t1 -103.5l-222 -827q-33 -125 -94.5 -230t-137 -174t-161 -107t-168.5 -38q-91 0 -137.5 34t-46.5 85q0 96 129 151q20 -91 75.5 -137.5t135.5 -46.5q62 0 100 88t113 375l237 889q-70 -45 -153.5 -139.5t-161.5 -219.5l-22 12q118 202 232 313
t212 111z" />
    <glyph glyph-name="circumflex" unicode="&#x2c6;" 
d="M827 1532l226 -315l-9 -9l-245 150l-334 -150l-4 6l362 318h4z" />
    <glyph glyph-name="caron" unicode="&#x2c7;" 
d="M778 1378l334 150l4 -6l-362 -318h-4l-226 316l8 8z" />
    <glyph glyph-name="breve" unicode="&#x2d8;" 
d="M776 1233q-119 0 -186 86.5t-47 216.5h6q21 -164 235 -164q218 0 312 168h6q-37 -140 -121 -223.5t-205 -83.5z" />
    <glyph glyph-name="dotaccent" unicode="&#x2d9;" 
d="M791 1257q-51 0 -86 35t-35 86q0 53 34.5 87t86.5 34q54 0 87 -33.5t33 -87.5q0 -52 -33.5 -86.5t-86.5 -34.5z" />
    <glyph glyph-name="ring" unicode="&#x2da;" 
d="M780 1221q-78 0 -127 47t-49 125q0 85 59.5 141.5t147.5 56.5q78 0 127 -47t49 -125q0 -85 -59.5 -141.5t-147.5 -56.5zM786 1264q66 0 110 42t44 105q0 60 -38.5 97.5t-98.5 37.5q-63 0 -107.5 -44t-44.5 -107q0 -59 38.5 -95t96.5 -36z" />
    <glyph glyph-name="ogonek" unicode="&#x2db;" 
d="M233 -428q-59 0 -91.5 31t-32.5 78q0 70 80.5 140.5t304.5 196.5l10 -18q-176 -160 -211 -219q-26 -43 -12.5 -82t67.5 -39q39 0 103 35l4 -6q-42 -52 -102.5 -84.5t-119.5 -32.5z" />
    <glyph glyph-name="tilde" unicode="&#x2dc;" 
d="M893 1235q-36 0 -69.5 14.5t-58.5 35t-49 40.5t-50.5 34.5t-53.5 14.5q-38 0 -76 -24.5t-63 -65.5l-14 2q102 217 223 217q34 0 66.5 -14.5t58 -35.5t50 -42.5t53.5 -36t59 -14.5q81 0 137 100l14 -2q-100 -223 -227 -223z" />
    <glyph glyph-name="hungarumlaut" unicode="&#x2dd;" 
d="M612 1198h-10l193 315h227v-4zM899 1198h-10l192 315h228v-4z" />
    <glyph glyph-name="gravecomb" unicode="&#x300;" 
d="M791 1198h-11l-299 311v4h248z" />
    <glyph glyph-name="acutecomb" unicode="&#x301;" 
d="M909 1513h256v-4l-430 -311h-10z" />
    <glyph glyph-name="uni0302" unicode="&#x302;" 
d="M827 1532l226 -315l-9 -9l-245 150l-334 -150l-4 6l362 318h4z" />
    <glyph glyph-name="tildecomb" unicode="&#x303;" 
d="M893 1235q-36 0 -69.5 14.5t-58.5 35t-49 40.5t-50.5 34.5t-53.5 14.5q-38 0 -76 -24.5t-63 -65.5l-14 2q102 217 223 217q34 0 66.5 -14.5t58 -35.5t50 -42.5t53.5 -36t59 -14.5q81 0 137 100l14 -2q-100 -223 -227 -223z" />
    <glyph glyph-name="uni0306" unicode="&#x306;" 
d="M776 1233q-119 0 -186 86.5t-47 216.5h6q21 -164 235 -164q218 0 312 168h6q-37 -140 -121 -223.5t-205 -83.5z" />
    <glyph glyph-name="hookabovecomb" unicode="&#x309;" horiz-adv-x="665" 
d="M297 1659q107 0 156.5 -49.5t33.5 -126.5q-13 -64 -84 -121t-188 -88l-25 -76h-14l12 170q106 26 163 75t69 103q3 23 -11 40.5t-44 17.5q-39 0 -100 -23.5t-118 -64.5q-11 28 -2 65q8 37 47 57.5t105 20.5z" />
    <glyph glyph-name="uni031B" unicode="&#x31b;" horiz-adv-x="604" 
d="M111 915v19q175 67 194 153q18 84 -94 134q9 46 48.5 77t82.5 31q52 0 76 -38t12 -95q-19 -92 -102 -167t-217 -114z" />
    <glyph glyph-name="dotbelowcomb" unicode="&#x323;" horiz-adv-x="550" 
d="M270 -399q-51 0 -85.5 34.5t-34.5 85.5q0 53 34 87t86 34q54 0 87.5 -33.5t33.5 -87.5q0 -52 -34 -86t-87 -34z" />
    <glyph glyph-name="Wgrave" unicode="&#x1e80;" horiz-adv-x="2037" 
d="M1833 1403l6 31h432l-6 -31l-51 -10q-26 -5 -40.5 -9.5t-36.5 -15.5t-40 -32t-33 -52l-641 -1284h-163l-146 1214l-586 -1214h-161l-103 1284q-2 31 -8 52t-16.5 32t-19 15.5t-23.5 9.5l-29 10l6 31h504l-6 -31l-68 -10q-60 -9 -88 -30t-27 -79l62 -1132l620 1282h140
l137 -1301l569 1151q28 57 0 78.5t-102 30.5zM1235 1841l61 -315h-10l-299 311v4h248z" />
    <glyph glyph-name="wgrave" unicode="&#x1e81;" horiz-adv-x="1724" 
d="M1559 1116q62 0 99.5 -39.5t47 -107t-2.5 -153.5t-48 -184.5t-90 -193.5q-113 -200 -284.5 -329t-371.5 -129q-89 0 -118 63t-3 160l125 463q-132 -319 -290 -502.5t-314 -183.5q-92 0 -135 68t-14 177l219 824q-71 -45 -154.5 -139.5t-161.5 -219.5l-22 12
q118 202 232 313t212 111q50 0 69 -35.5t1 -103.5l-201 -745q-35 -133 66 -133q65 0 146.5 73t164 200.5t162.5 317t137 406.5h193l-260 -969q-16 -51 -5.5 -76.5t58.5 -25.5q67 0 183 67t212 181q156 184 156 422q0 187 -111 391q53 20 103 20zM1110 1513l61 -315h-10
l-299 311v4h248z" />
    <glyph glyph-name="Wacute" unicode="&#x1e82;" horiz-adv-x="2037" 
d="M1833 1403l6 31h432l-6 -31l-51 -10q-26 -5 -40.5 -9.5t-36.5 -15.5t-40 -32t-33 -52l-641 -1284h-163l-146 1214l-586 -1214h-161l-103 1284q-2 31 -8 52t-16.5 32t-19 15.5t-23.5 9.5l-29 10l6 31h504l-6 -31l-68 -10q-60 -9 -88 -30t-27 -79l62 -1132l620 1282h140
l137 -1301l569 1151q28 57 0 78.5t-102 30.5zM1712 1843v-4l-430 -311h-10l184 315h256z" />
    <glyph glyph-name="wacute" unicode="&#x1e83;" horiz-adv-x="1724" 
d="M1559 1116q62 0 99.5 -39.5t47 -107t-2.5 -153.5t-48 -184.5t-90 -193.5q-113 -200 -284.5 -329t-371.5 -129q-89 0 -118 63t-3 160l125 463q-132 -319 -290 -502.5t-314 -183.5q-92 0 -135 68t-14 177l219 824q-71 -45 -154.5 -139.5t-161.5 -219.5l-22 12
q118 202 232 313t212 111q50 0 69 -35.5t1 -103.5l-201 -745q-35 -133 66 -133q65 0 146.5 73t164 200.5t162.5 317t137 406.5h193l-260 -969q-16 -51 -5.5 -76.5t58.5 -25.5q67 0 183 67t212 181q156 184 156 422q0 187 -111 391q53 20 103 20zM1546 1513v-4l-430 -311h-10
l184 315h256z" />
    <glyph glyph-name="Wdieresis" unicode="&#x1e84;" horiz-adv-x="2037" 
d="M1833 1403l6 31h432l-6 -31l-51 -10q-26 -5 -40.5 -9.5t-36.5 -15.5t-40 -32t-33 -52l-641 -1284h-163l-146 1214l-586 -1214h-161l-103 1284q-2 31 -8 52t-16.5 32t-19 15.5t-23.5 9.5l-29 10l6 31h504l-6 -31l-68 -10q-60 -9 -88 -30t-27 -79l62 -1132l620 1282h140
l137 -1301l569 1151q28 57 0 78.5t-102 30.5zM1118 1606q-51 0 -84 32.5t-33 83.5t33 84t84 33t84 -33t33 -84t-33 -83.5t-84 -32.5zM1524 1606q-51 0 -84 32.5t-33 83.5t33 84t84 33t83.5 -33t32.5 -84t-32.5 -83.5t-83.5 -32.5z" />
    <glyph glyph-name="wdieresis" unicode="&#x1e85;" horiz-adv-x="1724" 
d="M1559 1116q62 0 99.5 -39.5t47 -107t-2.5 -153.5t-48 -184.5t-90 -193.5q-113 -200 -284.5 -329t-371.5 -129q-89 0 -118 63t-3 160l125 463q-132 -319 -290 -502.5t-314 -183.5q-92 0 -135 68t-14 177l219 824q-71 -45 -154.5 -139.5t-161.5 -219.5l-22 12
q118 202 232 313t212 111q50 0 69 -35.5t1 -103.5l-201 -745q-35 -133 66 -133q65 0 146.5 73t164 200.5t162.5 317t137 406.5h193l-260 -969q-16 -51 -5.5 -76.5t58.5 -25.5q67 0 183 67t212 181q156 184 156 422q0 187 -111 391q53 20 103 20zM967 1257q-51 0 -84 33
t-33 84t33 84t84 33t83.5 -33t32.5 -84t-32.5 -84t-83.5 -33zM1372 1257q-51 0 -84 33t-33 84t33 84t84 33t84 -33t33 -84t-33 -84t-84 -33z" />
    <glyph glyph-name="Germandbls" unicode="&#x1e9e;" horiz-adv-x="1458" 
d="M1417 1264l6 -13q-124 -91 -191 -178.5t-67 -198.5q0 -70 24.5 -124.5t70.5 -118.5q94 -130 94 -262q0 -169 -124.5 -279t-314.5 -110q-91 0 -193 24t-175 72l22 190h21q56 -125 147.5 -190.5t198.5 -65.5q109 0 179.5 69t70.5 175q0 51 -18 100t-43.5 90t-51 83.5
t-43.5 98t-18 115.5q0 125 72.5 238t191.5 195q-61 103 -165 172t-214 69q-145 0 -253 -127.5t-152 -337.5l-168 -796q-11 -51 12.5 -75.5t101.5 -41.5l31 -6l-6 -31h-547l6 31l55 10q72 14 99 36t39 77l159 757q50 238 226 390.5t418 152.5q146 0 277 -53t222 -137z" />
    <glyph glyph-name="uni1EA0" unicode="&#x1ea0;" horiz-adv-x="1384" 
d="M879 588l-111 719l-397 -719h508zM1274 41l49 -10l-6 -31h-547l6 31l64 10q67 11 90 33.5t16 72.5l-61 400h-537l-221 -400q-31 -51 -13 -73.5t101 -32.5l80 -10l-6 -31h-430l6 31l51 10q66 12 98 33.5t58 72.5l714 1287h162l215 -1289q7 -49 30.5 -70.5t80.5 -33.5z
M496 -379q-51 0 -86 35t-35 86q0 53 34.5 87t86.5 34q54 0 87 -33.5t33 -87.5q0 -52 -33.5 -86.5t-86.5 -34.5z" />
    <glyph glyph-name="uni1EA1" unicode="&#x1ea1;" horiz-adv-x="1210" 
d="M340 123q54 0 120 52.5t138.5 154.5t150.5 272.5t146 386.5q-90 101 -188 101q-83 0 -172.5 -84t-156.5 -206t-111 -262t-44 -249q0 -166 117 -166zM1171 416l23 -13q-114 -200 -229.5 -311.5t-214.5 -111.5q-50 0 -69 35.5t-1 103.5l190 698h-2q-155 -425 -323 -631
t-330 -206q-101 0 -149 69t-48 191q0 120 37.5 246.5t106.5 240t158.5 203.5t203 143t230.5 53q109 0 229 -57l154 57h4l-285 -1069q148 91 315 359zM414 -399q-51 0 -86 34.5t-35 85.5q0 53 34.5 87t86.5 34q54 0 87.5 -33.5t33.5 -87.5q0 -52 -34 -86t-87 -34z" />
    <glyph glyph-name="uni1EA2" unicode="&#x1ea2;" horiz-adv-x="1384" 
d="M879 588l-111 719l-397 -719h508zM1274 41l49 -10l-6 -31h-547l6 31l64 10q67 11 90 33.5t16 72.5l-61 400h-537l-221 -400q-31 -51 -13 -73.5t101 -32.5l80 -10l-6 -31h-430l6 31l51 10q66 12 98 33.5t58 72.5l714 1287h162l215 -1289q7 -49 30.5 -70.5t80.5 -33.5z
M995 1989q107 0 157 -50t34 -127q-12 -64 -83.5 -120.5t-189.5 -87.5l-24 -76h-15l13 170q106 26 162.5 75t68.5 103q3 22 -11 39.5t-44 17.5q-39 0 -99.5 -23.5t-117.5 -64.5q-11 28 -2 66q8 37 47 57.5t104 20.5z" />
    <glyph glyph-name="uni1EA3" unicode="&#x1ea3;" horiz-adv-x="1210" 
d="M340 123q54 0 120 52.5t138.5 154.5t150.5 272.5t146 386.5q-90 101 -188 101q-83 0 -172.5 -84t-156.5 -206t-111 -262t-44 -249q0 -166 117 -166zM1171 416l23 -13q-114 -200 -229.5 -311.5t-214.5 -111.5q-50 0 -69 35.5t-1 103.5l190 698h-2q-155 -425 -323 -631
t-330 -206q-101 0 -149 69t-48 191q0 120 37.5 246.5t106.5 240t158.5 203.5t203 143t230.5 53q109 0 229 -57l154 57h4l-285 -1069q148 91 315 359zM973 1659q107 0 156.5 -49.5t33.5 -126.5q-13 -64 -84 -121t-188 -88l-25 -76h-14l12 170q106 26 163 75t69 103
q3 22 -11.5 40t-44.5 18q-39 0 -99.5 -23.5t-117.5 -64.5q-11 28 -2 65q8 37 47 57.5t105 20.5z" />
    <glyph glyph-name="uni1EA4" unicode="&#x1ea4;" horiz-adv-x="1384" 
d="M879 588l-111 719l-397 -719h508zM1274 41l49 -10l-6 -31h-547l6 31l64 10q67 11 90 33.5t16 72.5l-61 400h-537l-221 -400q-31 -51 -13 -73.5t101 -32.5l80 -10l-6 -31h-430l6 31l51 10q66 12 98 33.5t58 72.5l714 1287h162l215 -1289q7 -49 30.5 -70.5t80.5 -33.5z
M1194 1544l-8 -8l-246 150l-334 -150l-4 6l363 318h4zM1167 1718l185 316h256v-4l-430 -312h-11z" />
    <glyph glyph-name="uni1EA5" unicode="&#x1ea5;" horiz-adv-x="1210" 
d="M340 123q54 0 120 52.5t138.5 154.5t150.5 272.5t146 386.5q-90 101 -188 101q-83 0 -172.5 -84t-156.5 -206t-111 -262t-44 -249q0 -166 117 -166zM1171 416l23 -13q-114 -200 -229.5 -311.5t-214.5 -111.5q-50 0 -69 35.5t-1 103.5l190 698h-2q-155 -425 -323 -631
t-330 -206q-101 0 -149 69t-48 191q0 120 37.5 246.5t106.5 240t158.5 203.5t203 143t230.5 53q109 0 229 -57l154 57h4l-285 -1069q148 91 315 359zM1124 1217l-8 -9l-246 150l-333 -150l-5 6l363 318h4zM1098 1391l184 315h256v-4l-430 -311h-10z" />
    <glyph glyph-name="uni1EA6" unicode="&#x1ea6;" horiz-adv-x="1384" 
d="M879 588l-111 719l-397 -719h508zM1274 41l49 -10l-6 -31h-547l6 31l64 10q67 11 90 33.5t16 72.5l-61 400h-537l-221 -400q-31 -51 -13 -73.5t101 -32.5l80 -10l-6 -31h-430l6 31l51 10q66 12 98 33.5t58 72.5l714 1287h162l215 -1289q7 -49 30.5 -70.5t80.5 -33.5z
M1194 1544l-8 -8l-246 150l-334 -150l-4 6l363 318h4zM1217 2034l61 -316h-10l-299 312v4h248z" />
    <glyph glyph-name="uni1EA7" unicode="&#x1ea7;" horiz-adv-x="1210" 
d="M340 123q54 0 120 52.5t138.5 154.5t150.5 272.5t146 386.5q-90 101 -188 101q-83 0 -172.5 -84t-156.5 -206t-111 -262t-44 -249q0 -166 117 -166zM1171 416l23 -13q-114 -200 -229.5 -311.5t-214.5 -111.5q-50 0 -69 35.5t-1 103.5l190 698h-2q-155 -425 -323 -631
t-330 -206q-101 0 -149 69t-48 191q0 120 37.5 246.5t106.5 240t158.5 203.5t203 143t230.5 53q109 0 229 -57l154 57h4l-285 -1069q148 91 315 359zM1124 1217l-8 -9l-246 150l-333 -150l-5 6l363 318h4zM1147 1706l61 -315h-10l-299 311v4h248z" />
    <glyph glyph-name="uni1EA8" unicode="&#x1ea8;" horiz-adv-x="1384" 
d="M879 588l-111 719l-397 -719h508zM1274 41l49 -10l-6 -31h-547l6 31l64 10q67 11 90 33.5t16 72.5l-61 400h-537l-221 -400q-31 -51 -13 -73.5t101 -32.5l80 -10l-6 -31h-430l6 31l51 10q66 12 98 33.5t58 72.5l714 1287h162l215 -1289q7 -49 30.5 -70.5t80.5 -33.5z
M1194 1544l-8 -8l-246 150l-334 -150l-4 6l363 318h4zM1290 2179q107 0 157 -50t34 -126q-12 -64 -83.5 -121t-189.5 -88l-24 -76h-15l13 170q106 26 162.5 75t68.5 103q3 23 -11 40.5t-44 17.5q-39 0 -99.5 -23.5t-117.5 -64.5q-11 28 -2 65q8 37 47 57.5t104 20.5z" />
    <glyph glyph-name="uni1EA9" unicode="&#x1ea9;" horiz-adv-x="1210" 
d="M340 123q54 0 120 52.5t138.5 154.5t150.5 272.5t146 386.5q-90 101 -188 101q-83 0 -172.5 -84t-156.5 -206t-111 -262t-44 -249q0 -166 117 -166zM1171 416l23 -13q-114 -200 -229.5 -311.5t-214.5 -111.5q-50 0 -69 35.5t-1 103.5l190 698h-2q-155 -425 -323 -631
t-330 -206q-101 0 -149 69t-48 191q0 120 37.5 246.5t106.5 240t158.5 203.5t203 143t230.5 53q109 0 229 -57l154 57h4l-285 -1069q148 91 315 359zM1124 1217l-8 -9l-246 150l-333 -150l-5 6l363 318h4zM1221 1851q107 0 156.5 -49.5t33.5 -126.5q-13 -64 -84 -121
t-188 -88l-25 -75h-14l12 170q106 26 162.5 75t68.5 103q3 22 -11 39.5t-44 17.5q-39 0 -99.5 -23.5t-117.5 -64.5q-11 28 -2 66q16 77 152 77z" />
    <glyph glyph-name="uni1EAA" unicode="&#x1eaa;" horiz-adv-x="1384" 
d="M879 588l-111 719l-397 -719h508zM1274 41l49 -10l-6 -31h-547l6 31l64 10q67 11 90 33.5t16 72.5l-61 400h-537l-221 -400q-31 -51 -13 -73.5t101 -32.5l80 -10l-6 -31h-430l6 31l51 10q66 12 98 33.5t58 72.5l714 1287h162l215 -1289q7 -49 30.5 -70.5t80.5 -33.5z
M1194 1544l-8 -8l-246 150l-334 -150l-4 6l363 318h4zM1130 1915q-44 0 -85 21.5t-67.5 48t-61 48t-66.5 21.5q-38 0 -76 -24.5t-63 -65.5l-15 2q102 217 224 217q42 0 82 -22.5t67 -49t64 -49t73 -22.5q81 0 137 100l15 -2q-100 -223 -228 -223z" />
    <glyph glyph-name="uni1EAB" unicode="&#x1eab;" horiz-adv-x="1210" 
d="M340 123q54 0 120 52.5t138.5 154.5t150.5 272.5t146 386.5q-90 101 -188 101q-83 0 -172.5 -84t-156.5 -206t-111 -262t-44 -249q0 -166 117 -166zM1171 416l23 -13q-114 -200 -229.5 -311.5t-214.5 -111.5q-50 0 -69 35.5t-1 103.5l190 698h-2q-155 -425 -323 -631
t-330 -206q-101 0 -149 69t-48 191q0 120 37.5 246.5t106.5 240t158.5 203.5t203 143t230.5 53q109 0 229 -57l154 57h4l-285 -1069q148 91 315 359zM1124 1217l-8 -9l-246 150l-333 -150l-5 6l363 318h4zM1061 1587q-36 0 -69.5 14.5t-58.5 35t-49 40.5t-50.5 34.5
t-53.5 14.5q-38 0 -76 -24.5t-63 -65.5l-14 2q102 217 223 217q34 0 66.5 -14.5t58 -35.5t50 -42.5t53.5 -36t59 -14.5q81 0 137 100l14 -2q-100 -223 -227 -223z" />
    <glyph glyph-name="uni1EAC" unicode="&#x1eac;" horiz-adv-x="1384" 
d="M879 588l-111 719l-397 -719h508zM1274 41l49 -10l-6 -31h-547l6 31l64 10q67 11 90 33.5t16 72.5l-61 400h-537l-221 -400q-31 -51 -13 -73.5t101 -32.5l80 -10l-6 -31h-430l6 31l51 10q66 12 98 33.5t58 72.5l714 1287h162l215 -1289q7 -49 30.5 -70.5t80.5 -33.5z
M1194 1544l-8 -8l-246 150l-334 -150l-4 6l363 318h4zM496 -379q-51 0 -86 35t-35 86q0 53 34.5 87t86.5 34q54 0 87 -33.5t33 -87.5q0 -52 -33.5 -86.5t-86.5 -34.5z" />
    <glyph glyph-name="uni1EAD" unicode="&#x1ead;" horiz-adv-x="1210" 
d="M340 123q54 0 120 52.5t138.5 154.5t150.5 272.5t146 386.5q-90 101 -188 101q-83 0 -172.5 -84t-156.5 -206t-111 -262t-44 -249q0 -166 117 -166zM1171 416l23 -13q-114 -200 -229.5 -311.5t-214.5 -111.5q-50 0 -69 35.5t-1 103.5l190 698h-2q-155 -425 -323 -631
t-330 -206q-101 0 -149 69t-48 191q0 120 37.5 246.5t106.5 240t158.5 203.5t203 143t230.5 53q109 0 229 -57l154 57h4l-285 -1069q148 91 315 359zM1124 1217l-8 -9l-246 150l-333 -150l-5 6l363 318h4zM414 -399q-51 0 -86 34.5t-35 85.5q0 53 34.5 87t86.5 34
q54 0 87.5 -33.5t33.5 -87.5q0 -52 -34 -86t-87 -34z" />
    <glyph glyph-name="uni1EAE" unicode="&#x1eae;" horiz-adv-x="1384" 
d="M879 588l-111 719l-397 -719h508zM1274 41l49 -10l-6 -31h-547l6 31l64 10q67 11 90 33.5t16 72.5l-61 400h-537l-221 -400q-31 -51 -13 -73.5t101 -32.5l80 -10l-6 -31h-430l6 31l51 10q66 12 98 33.5t58 72.5l714 1287h162l215 -1289q7 -49 30.5 -70.5t80.5 -33.5z
M909 1540q-119 0 -186 86.5t-47 216.5h6q21 -164 236 -164q217 0 311 168h6q-37 -140 -121 -223.5t-205 -83.5zM887 1806l184 316h256v-4l-430 -312h-10z" />
    <glyph glyph-name="uni1EAF" unicode="&#x1eaf;" horiz-adv-x="1210" 
d="M340 123q54 0 120 52.5t138.5 154.5t150.5 272.5t146 386.5q-90 101 -188 101q-83 0 -172.5 -84t-156.5 -206t-111 -262t-44 -249q0 -166 117 -166zM1171 416l23 -13q-114 -200 -229.5 -311.5t-214.5 -111.5q-50 0 -69 35.5t-1 103.5l190 698h-2q-155 -425 -323 -631
t-330 -206q-101 0 -149 69t-48 191q0 120 37.5 246.5t106.5 240t158.5 203.5t203 143t230.5 53q109 0 229 -57l154 57h4l-285 -1069q148 91 315 359zM848 1233q-119 0 -186.5 86.5t-47.5 216.5h7q21 -164 235 -164q217 0 311 168h7q-37 -140 -121 -223.5t-205 -83.5z
M825 1499l185 316h256v-5l-430 -311h-11z" />
    <glyph glyph-name="uni1EB0" unicode="&#x1eb0;" horiz-adv-x="1384" 
d="M879 588l-111 719l-397 -719h508zM1274 41l49 -10l-6 -31h-547l6 31l64 10q67 11 90 33.5t16 72.5l-61 400h-537l-221 -400q-31 -51 -13 -73.5t101 -32.5l80 -10l-6 -31h-430l6 31l51 10q66 12 98 33.5t58 72.5l714 1287h162l215 -1289q7 -49 30.5 -70.5t80.5 -33.5z
M930 2122l61 -316h-10l-299 312v4h248zM909 1540q-119 0 -186 86.5t-47 216.5h6q21 -164 236 -164q217 0 311 168h6q-37 -140 -121 -223.5t-205 -83.5z" />
    <glyph glyph-name="uni1EB1" unicode="&#x1eb1;" horiz-adv-x="1210" 
d="M340 123q54 0 120 52.5t138.5 154.5t150.5 272.5t146 386.5q-90 101 -188 101q-83 0 -172.5 -84t-156.5 -206t-111 -262t-44 -249q0 -166 117 -166zM1171 416l23 -13q-114 -200 -229.5 -311.5t-214.5 -111.5q-50 0 -69 35.5t-1 103.5l190 698h-2q-155 -425 -323 -631
t-330 -206q-101 0 -149 69t-48 191q0 120 37.5 246.5t106.5 240t158.5 203.5t203 143t230.5 53q109 0 229 -57l154 57h4l-285 -1069q148 91 315 359zM868 1815l62 -316h-10l-299 311v5h247zM848 1233q-119 0 -186.5 86.5t-47.5 216.5h7q21 -164 235 -164q217 0 311 168h7
q-37 -140 -121 -223.5t-205 -83.5z" />
    <glyph glyph-name="uni1EB2" unicode="&#x1eb2;" horiz-adv-x="1384" 
d="M879 588l-111 719l-397 -719h508zM1274 41l49 -10l-6 -31h-547l6 31l64 10q67 11 90 33.5t16 72.5l-61 400h-537l-221 -400q-31 -51 -13 -73.5t101 -32.5l80 -10l-6 -31h-430l6 31l51 10q66 12 98 33.5t58 72.5l714 1287h162l215 -1289q7 -49 30.5 -70.5t80.5 -33.5z
M909 1540q-119 0 -186 86.5t-47 216.5h6q21 -164 236 -164q217 0 311 168h6q-37 -140 -121 -223.5t-205 -83.5zM1044 2257q107 0 157 -50t34 -126q-13 -64 -84 -121t-188 -88l-25 -76h-14l12 170q106 26 162.5 75t68.5 103q3 23 -11 40.5t-44 17.5q-39 0 -99.5 -23.5
t-117.5 -64.5q-11 28 -2 65q8 37 47 57.5t104 20.5z" />
    <glyph glyph-name="uni1EB3" unicode="&#x1eb3;" horiz-adv-x="1210" 
d="M340 123q54 0 120 52.5t138.5 154.5t150.5 272.5t146 386.5q-90 101 -188 101q-83 0 -172.5 -84t-156.5 -206t-111 -262t-44 -249q0 -166 117 -166zM1171 416l23 -13q-114 -200 -229.5 -311.5t-214.5 -111.5q-50 0 -69 35.5t-1 103.5l190 698h-2q-155 -425 -323 -631
t-330 -206q-101 0 -149 69t-48 191q0 120 37.5 246.5t106.5 240t158.5 203.5t203 143t230.5 53q109 0 229 -57l154 57h4l-285 -1069q148 91 315 359zM848 1233q-119 0 -186.5 86.5t-47.5 216.5h7q21 -164 235 -164q217 0 311 168h7q-37 -140 -121 -223.5t-205 -83.5z
M983 1950q107 0 157 -50t34 -126q-12 -64 -83.5 -121t-189.5 -88l-24 -76h-15l12 170q106 26 163 75t69 103q3 22 -11 39.5t-44 17.5q-39 0 -99.5 -23.5t-117.5 -64.5q-12 30 -3 66q8 37 47 57.5t105 20.5z" />
    <glyph glyph-name="uni1EB4" unicode="&#x1eb4;" horiz-adv-x="1384" 
d="M879 588l-111 719l-397 -719h508zM1274 41l49 -10l-6 -31h-547l6 31l64 10q67 11 90 33.5t16 72.5l-61 400h-537l-221 -400q-31 -51 -13 -73.5t101 -32.5l80 -10l-6 -31h-430l6 31l51 10q66 12 98 33.5t58 72.5l714 1287h162l215 -1289q7 -49 30.5 -70.5t80.5 -33.5z
M909 1540q-119 0 -186 86.5t-47 216.5h6q21 -164 236 -164q217 0 311 168h6q-37 -140 -121 -223.5t-205 -83.5zM850 2023q-38 0 -76 -24.5t-63 -65.5l-15 2q102 217 224 217q42 0 82 -22.5t67 -49t64 -49t73 -22.5q81 0 137 100l15 -2q-100 -223 -228 -223q-44 0 -85 21.5
t-67.5 48t-61 48t-66.5 21.5z" />
    <glyph glyph-name="uni1EB5" unicode="&#x1eb5;" horiz-adv-x="1210" 
d="M340 123q54 0 120 52.5t138.5 154.5t150.5 272.5t146 386.5q-90 101 -188 101q-83 0 -172.5 -84t-156.5 -206t-111 -262t-44 -249q0 -166 117 -166zM1171 416l23 -13q-114 -200 -229.5 -311.5t-214.5 -111.5q-50 0 -69 35.5t-1 103.5l190 698h-2q-155 -425 -323 -631
t-330 -206q-101 0 -149 69t-48 191q0 120 37.5 246.5t106.5 240t158.5 203.5t203 143t230.5 53q109 0 229 -57l154 57h4l-285 -1069q148 91 315 359zM848 1233q-119 0 -186.5 86.5t-47.5 216.5h7q21 -164 235 -164q217 0 311 168h7q-37 -140 -121 -223.5t-205 -83.5z
M788 1716q-38 0 -76 -24.5t-63 -65.5l-14 2q102 217 223 217q34 0 66.5 -14.5t58 -35.5t50 -42.5t53.5 -36t59 -14.5q81 0 137 100l14 -2q-100 -223 -227 -223q-36 0 -69.5 14.5t-58.5 35t-49 40.5t-50.5 34.5t-53.5 14.5z" />
    <glyph glyph-name="uni1EB6" unicode="&#x1eb6;" horiz-adv-x="1384" 
d="M879 588l-111 719l-397 -719h508zM1274 41l49 -10l-6 -31h-547l6 31l64 10q67 11 90 33.5t16 72.5l-61 400h-537l-221 -400q-31 -51 -13 -73.5t101 -32.5l80 -10l-6 -31h-430l6 31l51 10q66 12 98 33.5t58 72.5l714 1287h162l215 -1289q7 -49 30.5 -70.5t80.5 -33.5z
M909 1540q-119 0 -186 86.5t-47 216.5h6q21 -164 236 -164q217 0 311 168h6q-37 -140 -121 -223.5t-205 -83.5zM496 -379q-51 0 -86 35t-35 86q0 53 34.5 87t86.5 34q54 0 87 -33.5t33 -87.5q0 -52 -33.5 -86.5t-86.5 -34.5z" />
    <glyph glyph-name="uni1EB7" unicode="&#x1eb7;" horiz-adv-x="1210" 
d="M340 123q54 0 120 52.5t138.5 154.5t150.5 272.5t146 386.5q-90 101 -188 101q-83 0 -172.5 -84t-156.5 -206t-111 -262t-44 -249q0 -166 117 -166zM1171 416l23 -13q-114 -200 -229.5 -311.5t-214.5 -111.5q-50 0 -69 35.5t-1 103.5l190 698h-2q-155 -425 -323 -631
t-330 -206q-101 0 -149 69t-48 191q0 120 37.5 246.5t106.5 240t158.5 203.5t203 143t230.5 53q109 0 229 -57l154 57h4l-285 -1069q148 91 315 359zM848 1233q-119 0 -186.5 86.5t-47.5 216.5h7q21 -164 235 -164q217 0 311 168h7q-37 -140 -121 -223.5t-205 -83.5z
M414 -399q-51 0 -86 34.5t-35 85.5q0 53 34.5 87t86.5 34q54 0 87.5 -33.5t33.5 -87.5q0 -52 -34 -86t-87 -34z" />
    <glyph glyph-name="uni1EB8" unicode="&#x1eb8;" horiz-adv-x="1263" 
d="M557 -379q-51 0 -86 35t-35 86q0 53 34.5 87t86.5 34q54 0 87.5 -33.5t33.5 -87.5q0 -52 -34 -86.5t-87 -34.5zM229 1403l7 31h1015l-26 -441l-23 -6q-30 406 -311 406h-266l-136 -637h199q56 0 89.5 18t64.5 70t71 160h21l-115 -537h-20q6 67 6 109.5t-6 71.5t-22 42.5
t-38 19t-59 5.5h-199l-143 -674h301q88 0 156.5 19t133.5 66t122 129t114 206h23l-162 -461h-1094l7 31l67 10q31 4 50.5 9.5t41.5 17.5t36 33t20 53l237 1126q15 59 -11.5 81.5t-86.5 31.5z" />
    <glyph glyph-name="uni1EB9" unicode="&#x1eb9;" horiz-adv-x="923" 
d="M659 1085q-82 0 -165.5 -81.5t-143 -208t-84.5 -263.5q130 36 228.5 91t152.5 115.5t79.5 117t25.5 109.5q0 54 -26 87t-67 33zM436 92q100 0 205.5 87.5t187.5 236.5l23 -13q-99 -197 -235.5 -310t-282.5 -113q-97 0 -163.5 51t-96 133t-29.5 188q0 133 47.5 270
t129 249.5t203 183.5t257.5 71q109 0 171 -49.5t62 -126.5q0 -48 -23.5 -98.5t-75.5 -102.5t-126.5 -97.5t-185.5 -84t-244 -61.5q-10 -72 -10 -131q0 -127 45.5 -205t140.5 -78zM311 -399q-51 0 -86 34.5t-35 85.5q0 53 34.5 87t86.5 34q54 0 87.5 -33.5t33.5 -87.5
q0 -52 -34 -86t-87 -34z" />
    <glyph glyph-name="uni1EBA" unicode="&#x1eba;" horiz-adv-x="1263" 
d="M975 1989q106 0 156 -50t34 -127q-12 -64 -83 -120.5t-189 -87.5l-25 -76h-14l12 170q106 26 163 75t69 103q3 22 -11.5 39.5t-44.5 17.5q-39 0 -99.5 -23.5t-117.5 -64.5q-11 28 -2 66q8 37 47 57.5t105 20.5zM229 1403l7 31h1015l-26 -441l-23 -6q-30 406 -311 406
h-266l-136 -637h199q56 0 89.5 18t64.5 70t71 160h21l-115 -537h-20q6 67 6 109.5t-6 71.5t-22 42.5t-38 19t-59 5.5h-199l-143 -674h301q88 0 156.5 19t133.5 66t122 129t114 206h23l-162 -461h-1094l7 31l67 10q31 4 50.5 9.5t41.5 17.5t36 33t20 53l237 1126
q15 59 -11.5 81.5t-86.5 31.5z" />
    <glyph glyph-name="uni1EBB" unicode="&#x1ebb;" horiz-adv-x="923" 
d="M659 1085q-82 0 -165.5 -81.5t-143 -208t-84.5 -263.5q130 36 228.5 91t152.5 115.5t79.5 117t25.5 109.5q0 54 -26 87t-67 33zM436 92q100 0 205.5 87.5t187.5 236.5l23 -13q-99 -197 -235.5 -310t-282.5 -113q-97 0 -163.5 51t-96 133t-29.5 188q0 133 47.5 270
t129 249.5t203 183.5t257.5 71q109 0 171 -49.5t62 -126.5q0 -48 -23.5 -98.5t-75.5 -102.5t-126.5 -97.5t-185.5 -84t-244 -61.5q-10 -72 -10 -131q0 -127 45.5 -205t140.5 -78zM788 1659q107 0 157 -50t34 -126q-13 -64 -84 -121t-188 -88l-25 -76h-14l12 170
q106 26 162.5 75t68.5 103q3 23 -11 40.5t-44 17.5q-39 0 -99.5 -23.5t-117.5 -64.5q-11 28 -2 65q8 37 47 57.5t104 20.5z" />
    <glyph glyph-name="uni1EBC" unicode="&#x1ebc;" horiz-adv-x="1263" 
d="M727 1661q-38 0 -76 -24.5t-63 -65.5l-15 2q102 217 224 217q42 0 82 -22.5t67 -49t64 -49t73 -22.5q82 0 138 100l14 -2q-100 -223 -227 -223q-36 0 -69.5 14.5t-58.5 35t-49 40.5t-50.5 34.5t-53.5 14.5zM229 1403l7 31h1015l-26 -441l-23 -6q-30 406 -311 406h-266
l-136 -637h199q56 0 89.5 18t64.5 70t71 160h21l-115 -537h-20q6 67 6 109.5t-6 71.5t-22 42.5t-38 19t-59 5.5h-199l-143 -674h301q88 0 156.5 19t133.5 66t122 129t114 206h23l-162 -461h-1094l7 31l67 10q31 4 50.5 9.5t41.5 17.5t36 33t20 53l237 1126q15 59 -11.5 81.5
t-86.5 31.5z" />
    <glyph glyph-name="uni1EBD" unicode="&#x1ebd;" horiz-adv-x="923" 
d="M659 1085q-82 0 -165.5 -81.5t-143 -208t-84.5 -263.5q130 36 228.5 91t152.5 115.5t79.5 117t25.5 109.5q0 54 -26 87t-67 33zM436 92q100 0 205.5 87.5t187.5 236.5l23 -13q-99 -197 -235.5 -310t-282.5 -113q-97 0 -163.5 51t-96 133t-29.5 188q0 133 47.5 270
t129 249.5t203 183.5t257.5 71q109 0 171 -49.5t62 -126.5q0 -48 -23.5 -98.5t-75.5 -102.5t-126.5 -97.5t-185.5 -84t-244 -61.5q-10 -72 -10 -131q0 -127 45.5 -205t140.5 -78zM844 1235q-36 0 -69.5 14.5t-58.5 35t-49 40.5t-50.5 34.5t-53.5 14.5q-38 0 -76 -24.5
t-63 -65.5l-14 2q102 217 223 217q34 0 66.5 -14.5t58 -35.5t50 -42.5t53.5 -36t59 -14.5q81 0 137 100l14 -2q-100 -223 -227 -223z" />
    <glyph glyph-name="uni1EBE" unicode="&#x1ebe;" horiz-adv-x="1263" 
d="M1307 2034h256v-4l-430 -312h-11zM229 1403l7 31h1015l-26 -441l-23 -6q-30 406 -311 406h-266l-136 -637h199q56 0 89.5 18t64.5 70t71 160h21l-115 -537h-20q6 67 6 109.5t-6 71.5t-22 42.5t-38 19t-59 5.5h-199l-143 -674h301q88 0 156.5 19t133.5 66t122 129t114 206
h23l-162 -461h-1094l7 31l67 10q31 4 50.5 9.5t41.5 17.5t36 33t20 53l237 1126q15 59 -11.5 81.5t-86.5 31.5zM1141 1536l-246 150l-334 -150l-4 6l363 318h4l225 -316z" />
    <glyph glyph-name="uni1EBF" unicode="&#x1ebf;" horiz-adv-x="923" 
d="M659 1085q-82 0 -165.5 -81.5t-143 -208t-84.5 -263.5q130 36 228.5 91t152.5 115.5t79.5 117t25.5 109.5q0 54 -26 87t-67 33zM915 950q0 -48 -23.5 -98.5t-75.5 -102.5t-126.5 -97.5t-185.5 -84t-244 -61.5q-10 -72 -10 -131q0 -127 45.5 -205t140.5 -78
q100 0 205.5 87.5t187.5 236.5l23 -13q-99 -197 -235.5 -310t-282.5 -113q-97 0 -163.5 51t-96 133t-29.5 188q0 133 47.5 270t129 249.5t203 183.5t257.5 71q109 0 171 -49.5t62 -126.5zM385 1214l363 318h4l225 -315l-8 -9l-246 150l-334 -150zM950 1391l185 315h256v-4
l-430 -311h-11z" />
    <glyph glyph-name="uni1EC0" unicode="&#x1ec0;" horiz-adv-x="1263" 
d="M1233 1718h-10l-299 312v4h247zM229 1403l7 31h1015l-26 -441l-23 -6q-30 406 -311 406h-266l-136 -637h199q56 0 89.5 18t64.5 70t71 160h21l-115 -537h-20q6 67 6 109.5t-6 71.5t-22 42.5t-38 19t-59 5.5h-199l-143 -674h301q88 0 156.5 19t133.5 66t122 129t114 206
h23l-162 -461h-1094l7 31l67 10q31 4 50.5 9.5t41.5 17.5t36 33t20 53l237 1126q15 59 -11.5 81.5t-86.5 31.5zM1141 1536l-246 150l-334 -150l-4 6l363 318h4l225 -316z" />
    <glyph glyph-name="uni1EC1" unicode="&#x1ec1;" horiz-adv-x="923" 
d="M659 1085q-82 0 -165.5 -81.5t-143 -208t-84.5 -263.5q130 36 228.5 91t152.5 115.5t79.5 117t25.5 109.5q0 54 -26 87t-67 33zM915 950q0 -48 -23.5 -98.5t-75.5 -102.5t-126.5 -97.5t-185.5 -84t-244 -61.5q-10 -72 -10 -131q0 -127 45.5 -205t140.5 -78
q100 0 205.5 87.5t187.5 236.5l23 -13q-99 -197 -235.5 -310t-282.5 -113q-97 0 -163.5 51t-96 133t-29.5 188q0 133 47.5 270t129 249.5t203 183.5t257.5 71q109 0 171 -49.5t62 -126.5zM385 1214l363 318h4l225 -315l-8 -9l-246 150l-334 -150zM999 1706l62 -315h-10
l-299 311v4h247z" />
    <glyph glyph-name="uni1EC2" unicode="&#x1ec2;" horiz-adv-x="1263" 
d="M1245 2179q107 0 157 -50t34 -126q-12 -64 -83.5 -121t-189.5 -88l-24 -76h-15l13 170q106 26 162.5 75t68.5 103q3 23 -11 40.5t-44 17.5q-39 0 -99.5 -23.5t-117.5 -64.5q-11 28 -2 65q8 37 47 57.5t104 20.5zM229 1403l7 31h1015l-26 -441l-23 -6q-30 406 -311 406
h-266l-136 -637h199q56 0 89.5 18t64.5 70t71 160h21l-115 -537h-20q6 67 6 109.5t-6 71.5t-22 42.5t-38 19t-59 5.5h-199l-143 -674h301q88 0 156.5 19t133.5 66t122 129t114 206h23l-162 -461h-1094l7 31l67 10q31 4 50.5 9.5t41.5 17.5t36 33t20 53l237 1126
q15 59 -11.5 81.5t-86.5 31.5zM1141 1536l-246 150l-334 -150l-4 6l363 318h4l225 -316z" />
    <glyph glyph-name="uni1EC3" unicode="&#x1ec3;" horiz-adv-x="923" 
d="M659 1085q-82 0 -165.5 -81.5t-143 -208t-84.5 -263.5q130 36 228.5 91t152.5 115.5t79.5 117t25.5 109.5q0 54 -26 87t-67 33zM915 950q0 -48 -23.5 -98.5t-75.5 -102.5t-126.5 -97.5t-185.5 -84t-244 -61.5q-10 -72 -10 -131q0 -127 45.5 -205t140.5 -78
q100 0 205.5 87.5t187.5 236.5l23 -13q-99 -197 -235.5 -310t-282.5 -113q-97 0 -163.5 51t-96 133t-29.5 188q0 133 47.5 270t129 249.5t203 183.5t257.5 71q109 0 171 -49.5t62 -126.5zM385 1214l363 318h4l225 -315l-8 -9l-246 150l-334 -150zM1073 1851q107 0 157 -50
t34 -126q-12 -64 -83.5 -121t-189.5 -88l-24 -75h-15l13 170q106 26 162.5 75t68.5 103q3 22 -11 39.5t-44 17.5q-39 0 -99.5 -23.5t-117.5 -64.5q-11 28 -2 66q16 77 151 77z" />
    <glyph glyph-name="uni1EC4" unicode="&#x1ec4;" horiz-adv-x="1263" 
d="M1085 1915q-44 0 -85 21.5t-67.5 48t-61 48t-66.5 21.5q-38 0 -76 -24.5t-63 -65.5l-15 2q102 217 223 217q34 0 66.5 -14.5t58 -35.5t50 -42.5t53.5 -36t59 -14.5q81 0 137 100l15 -2q-100 -223 -228 -223zM229 1403l7 31h1015l-26 -441l-23 -6q-30 406 -311 406h-266
l-136 -637h199q56 0 89.5 18t64.5 70t71 160h21l-115 -537h-20q6 67 6 109.5t-6 71.5t-22 42.5t-38 19t-59 5.5h-199l-143 -674h301q88 0 156.5 19t133.5 66t122 129t114 206h23l-162 -461h-1094l7 31l67 10q31 4 50.5 9.5t41.5 17.5t36 33t20 53l237 1126q15 59 -11.5 81.5
t-86.5 31.5zM1141 1536l-246 150l-334 -150l-4 6l363 318h4l225 -316z" />
    <glyph glyph-name="uni1EC5" unicode="&#x1ec5;" horiz-adv-x="923" 
d="M659 1085q-82 0 -165.5 -81.5t-143 -208t-84.5 -263.5q130 36 228.5 91t152.5 115.5t79.5 117t25.5 109.5q0 54 -26 87t-67 33zM915 950q0 -48 -23.5 -98.5t-75.5 -102.5t-126.5 -97.5t-185.5 -84t-244 -61.5q-10 -72 -10 -131q0 -127 45.5 -205t140.5 -78
q100 0 205.5 87.5t187.5 236.5l23 -13q-99 -197 -235.5 -310t-282.5 -113q-97 0 -163.5 51t-96 133t-29.5 188q0 133 47.5 270t129 249.5t203 183.5t257.5 71q109 0 171 -49.5t62 -126.5zM385 1214l363 318h4l225 -315l-8 -9l-246 150l-334 -150zM913 1587q-44 0 -85 21.5
t-67.5 48t-61 48t-66.5 21.5q-38 0 -76 -24.5t-63 -65.5l-15 2q102 217 223 217q34 0 66.5 -14.5t58 -35.5t50 -42.5t53.5 -36t59 -14.5q81 0 137 100l15 -2q-100 -223 -228 -223z" />
    <glyph glyph-name="uni1EC6" unicode="&#x1ec6;" horiz-adv-x="1263" 
d="M557 -379q-51 0 -86 35t-35 86q0 53 34.5 87t86.5 34q54 0 87.5 -33.5t33.5 -87.5q0 -52 -34 -86.5t-87 -34.5zM229 1403l7 31h1015l-26 -441l-23 -6q-30 406 -311 406h-266l-136 -637h199q56 0 89.5 18t64.5 70t71 160h21l-115 -537h-20q6 67 6 109.5t-6 71.5t-22 42.5
t-38 19t-59 5.5h-199l-143 -674h301q88 0 156.5 19t133.5 66t122 129t114 206h23l-162 -461h-1094l7 31l67 10q31 4 50.5 9.5t41.5 17.5t36 33t20 53l237 1126q15 59 -11.5 81.5t-86.5 31.5zM1141 1536l-246 150l-334 -150l-4 6l363 318h4l225 -316z" />
    <glyph glyph-name="uni1EC7" unicode="&#x1ec7;" horiz-adv-x="923" 
d="M659 1085q-82 0 -165.5 -81.5t-143 -208t-84.5 -263.5q130 36 228.5 91t152.5 115.5t79.5 117t25.5 109.5q0 54 -26 87t-67 33zM915 950q0 -48 -23.5 -98.5t-75.5 -102.5t-126.5 -97.5t-185.5 -84t-244 -61.5q-10 -72 -10 -131q0 -127 45.5 -205t140.5 -78
q100 0 205.5 87.5t187.5 236.5l23 -13q-99 -197 -235.5 -310t-282.5 -113q-97 0 -163.5 51t-96 133t-29.5 188q0 133 47.5 270t129 249.5t203 183.5t257.5 71q109 0 171 -49.5t62 -126.5zM385 1214l363 318h4l225 -315l-8 -9l-246 150l-334 -150zM311 -399q-51 0 -86 34.5
t-35 85.5q0 53 34.5 87t86.5 34q54 0 87.5 -33.5t33.5 -87.5q0 -52 -34 -86t-87 -34z" />
    <glyph glyph-name="uni1EC8" unicode="&#x1ec8;" horiz-adv-x="684" 
d="M647 1989q107 0 157 -50t34 -127q-12 -64 -83.5 -120.5t-189.5 -87.5l-24 -76h-15l13 170q106 26 162.5 75t68.5 103q3 22 -11 39.5t-44 17.5q-39 0 -99.5 -23.5t-117.5 -64.5q-11 28 -2 66q8 37 47 57.5t104 20.5zM518 0h-586l7 31l67 10q31 4 50.5 9.5t41.5 17.5t36 33
t20 53l237 1126q15 59 -11.5 81.5t-86.5 31.5l-64 10l7 31h585l-6 -31l-67 -10q-62 -9 -97 -31t-51 -82l-238 -1126q-12 -60 14.5 -82t84.5 -31l63 -10z" />
    <glyph glyph-name="uni1EC9" unicode="&#x1ec9;" horiz-adv-x="647" 
d="M604 1659q107 0 157 -50t34 -126q-12 -64 -83.5 -121t-189.5 -88l-24 -76h-15l13 170q106 26 162.5 75t68.5 103q3 23 -11 40.5t-44 17.5q-39 0 -99.5 -23.5t-117.5 -64.5q-11 28 -2 65q8 37 47 57.5t104 20.5zM604 416l23 -13q-114 -200 -230 -311.5t-215 -111.5
q-50 0 -68.5 35.5t-0.5 103.5l247 930q-70 -45 -153.5 -139.5t-161.5 -219.5l-22 12q118 202 232 313t212 111q50 0 69 -35.5t1 -103.5l-248 -930q70 45 153.5 139.5t161.5 219.5z" />
    <glyph glyph-name="uni1ECA" unicode="&#x1eca;" horiz-adv-x="684" 
d="M188 -379q-51 0 -85.5 35t-34.5 86q0 53 34 87t86 34q54 0 87.5 -33.5t33.5 -87.5q0 -52 -34 -86.5t-87 -34.5zM518 0h-586l7 31l67 10q31 4 50.5 9.5t41.5 17.5t36 33t20 53l237 1126q15 59 -11.5 81.5t-86.5 31.5l-64 10l7 31h585l-6 -31l-67 -10q-62 -9 -97 -31
t-51 -82l-238 -1126q-12 -60 14.5 -82t84.5 -31l63 -10z" />
    <glyph glyph-name="uni1ECB" unicode="&#x1ecb;" horiz-adv-x="647" 
d="M168 -399q-51 0 -86 34.5t-35 85.5q0 53 34.5 87t86.5 34q54 0 87.5 -33.5t33.5 -87.5q0 -52 -34 -86t-87 -34zM537 987l-248 -930q70 45 153.5 139.5t161.5 219.5l23 -13q-114 -200 -230 -311.5t-215 -111.5q-50 0 -68.5 35.5t-0.5 103.5l247 930q-70 -45 -153.5 -139.5
t-161.5 -219.5l-22 12q118 202 232 313t212 111q50 0 69 -35.5t1 -103.5zM516 1257q-51 0 -86 35t-35 86q0 53 34.5 87t86.5 34q54 0 87.5 -33.5t33.5 -87.5q0 -52 -34 -86.5t-87 -34.5z" />
    <glyph glyph-name="uni1ECC" unicode="&#x1ecc;" horiz-adv-x="1443" 
d="M621 8q93 0 176.5 43.5t147 118t115 172t84.5 208t50.5 223.5t17.5 220q0 212 -82 322t-235 110q-87 0 -165 -37t-136.5 -99t-107.5 -144.5t-82.5 -173.5t-56.5 -186.5t-33.5 -181.5t-10.5 -161q0 -211 83.5 -322.5t234.5 -111.5zM897 1454q241 0 380.5 -151.5
t139.5 -405.5q0 -115 -28 -229.5t-78.5 -215.5t-123.5 -188t-160 -149.5t-192.5 -98.5t-216.5 -36q-238 0 -379 153t-141 406q0 173 62 339t167 293t255 205t315 78zM537 -399q-51 0 -86 34.5t-35 85.5q0 53 34.5 87t86.5 34q54 0 87 -33.5t33 -87.5q0 -52 -33.5 -86
t-86.5 -34z" />
    <glyph glyph-name="uni1ECD" unicode="&#x1ecd;" horiz-adv-x="1118" 
d="M451 12q77 0 145 51.5t116.5 134.5t84 186t52.5 208t17 199q0 147 -50 225t-148 78q-71 0 -133.5 -41t-106 -109t-78.5 -151t-55 -171.5t-30.5 -166.5t-10.5 -140q0 -144 50.5 -223.5t146.5 -79.5zM672 1126q180 0 285.5 -118t105.5 -310q0 -134 -48 -264t-129 -230
t-197 -162t-243 -62q-179 0 -284 118t-105 312q0 179 81 343.5t224 268.5t310 104zM393 -399q-51 0 -86 34.5t-35 85.5q0 53 34.5 87t86.5 34q54 0 87.5 -33.5t33.5 -87.5q0 -52 -34 -86t-87 -34z" />
    <glyph glyph-name="uni1ECE" unicode="&#x1ece;" horiz-adv-x="1443" 
d="M621 8q93 0 176.5 43.5t147 118t115 172t84.5 208t50.5 223.5t17.5 220q0 212 -82 322t-235 110q-87 0 -165 -37t-136.5 -99t-107.5 -144.5t-82.5 -173.5t-56.5 -186.5t-33.5 -181.5t-10.5 -161q0 -211 83.5 -322.5t234.5 -111.5zM897 1454q241 0 380.5 -151.5
t139.5 -405.5q0 -115 -28 -229.5t-78.5 -215.5t-123.5 -188t-160 -149.5t-192.5 -98.5t-216.5 -36q-238 0 -379 153t-141 406q0 173 62 339t167 293t255 205t315 78zM1077 1989q107 0 157 -50t34 -127q-12 -64 -83.5 -120.5t-189.5 -87.5l-24 -76h-15l13 170
q106 26 162.5 75t68.5 103q3 22 -11 39.5t-44 17.5q-39 0 -99.5 -23.5t-117.5 -64.5q-11 28 -2 66q8 37 47 57.5t104 20.5z" />
    <glyph glyph-name="uni1ECF" unicode="&#x1ecf;" horiz-adv-x="1118" 
d="M451 12q77 0 145 51.5t116.5 134.5t84 186t52.5 208t17 199q0 147 -50 225t-148 78q-71 0 -133.5 -41t-106 -109t-78.5 -151t-55 -171.5t-30.5 -166.5t-10.5 -140q0 -144 50.5 -223.5t146.5 -79.5zM672 1126q180 0 285.5 -118t105.5 -310q0 -134 -48 -264t-129 -230
t-197 -162t-243 -62q-179 0 -284 118t-105 312q0 179 81 343.5t224 268.5t310 104zM829 1659q107 0 157 -50t34 -126q-13 -64 -84 -121t-188 -88l-25 -76h-14l12 170q106 26 162.5 75t68.5 103q3 23 -11 40.5t-44 17.5q-39 0 -99.5 -23.5t-117.5 -64.5q-11 28 -2 65
q8 37 47 57.5t104 20.5z" />
    <glyph glyph-name="uni1ED0" unicode="&#x1ed0;" horiz-adv-x="1443" 
d="M621 8q93 0 176.5 43.5t147 118t115 172t84.5 208t50.5 223.5t17.5 220q0 212 -82 322t-235 110q-87 0 -165 -37t-136.5 -99t-107.5 -144.5t-82.5 -173.5t-56.5 -186.5t-33.5 -181.5t-10.5 -161q0 -211 83.5 -322.5t234.5 -111.5zM897 1454q241 0 380.5 -151.5
t139.5 -405.5q0 -115 -28 -229.5t-78.5 -215.5t-123.5 -188t-160 -149.5t-192.5 -98.5t-216.5 -36q-238 0 -379 153t-141 406q0 173 62 339t167 293t255 205t315 78zM1235 1544l-8 -8l-246 150l-334 -150l-4 6l363 318h4zM1208 1718l185 316h256v-4l-430 -312h-11z" />
    <glyph glyph-name="uni1ED1" unicode="&#x1ed1;" horiz-adv-x="1118" 
d="M451 12q77 0 145 51.5t116.5 134.5t84 186t52.5 208t17 199q0 147 -50 225t-148 78q-71 0 -133.5 -41t-106 -109t-78.5 -151t-55 -171.5t-30.5 -166.5t-10.5 -140q0 -144 50.5 -223.5t146.5 -79.5zM672 1126q180 0 285.5 -118t105.5 -310q0 -134 -48 -264t-129 -230
t-197 -162t-243 -62q-179 0 -284 118t-105 312q0 179 81 343.5t224 268.5t310 104zM1004 1217l-9 -9l-245 150l-334 -150l-4 6l362 318h4zM977 1391l184 315h256v-4l-430 -311h-10z" />
    <glyph glyph-name="uni1ED2" unicode="&#x1ed2;" horiz-adv-x="1443" 
d="M621 8q93 0 176.5 43.5t147 118t115 172t84.5 208t50.5 223.5t17.5 220q0 212 -82 322t-235 110q-87 0 -165 -37t-136.5 -99t-107.5 -144.5t-82.5 -173.5t-56.5 -186.5t-33.5 -181.5t-10.5 -161q0 -211 83.5 -322.5t234.5 -111.5zM897 1454q241 0 380.5 -151.5
t139.5 -405.5q0 -115 -28 -229.5t-78.5 -215.5t-123.5 -188t-160 -149.5t-192.5 -98.5t-216.5 -36q-238 0 -379 153t-141 406q0 173 62 339t167 293t255 205t315 78zM1235 1544l-8 -8l-246 150l-334 -150l-4 6l363 318h4zM1257 2034l62 -316h-10l-299 312v4h247z" />
    <glyph glyph-name="uni1ED3" unicode="&#x1ed3;" horiz-adv-x="1118" 
d="M451 12q77 0 145 51.5t116.5 134.5t84 186t52.5 208t17 199q0 147 -50 225t-148 78q-71 0 -133.5 -41t-106 -109t-78.5 -151t-55 -171.5t-30.5 -166.5t-10.5 -140q0 -144 50.5 -223.5t146.5 -79.5zM672 1126q180 0 285.5 -118t105.5 -310q0 -134 -48 -264t-129 -230
t-197 -162t-243 -62q-179 0 -284 118t-105 312q0 179 81 343.5t224 268.5t310 104zM1004 1217l-9 -9l-245 150l-334 -150l-4 6l362 318h4zM1026 1706l61 -315h-10l-299 311v4h248z" />
    <glyph glyph-name="uni1ED4" unicode="&#x1ed4;" horiz-adv-x="1443" 
d="M621 8q93 0 176.5 43.5t147 118t115 172t84.5 208t50.5 223.5t17.5 220q0 212 -82 322t-235 110q-87 0 -165 -37t-136.5 -99t-107.5 -144.5t-82.5 -173.5t-56.5 -186.5t-33.5 -181.5t-10.5 -161q0 -211 83.5 -322.5t234.5 -111.5zM897 1454q241 0 380.5 -151.5
t139.5 -405.5q0 -115 -28 -229.5t-78.5 -215.5t-123.5 -188t-160 -149.5t-192.5 -98.5t-216.5 -36q-238 0 -379 153t-141 406q0 173 62 339t167 293t255 205t315 78zM1235 1544l-8 -8l-246 150l-334 -150l-4 6l363 318h4zM1331 2179q107 0 157 -50t34 -126
q-12 -64 -83.5 -121t-189.5 -88l-24 -76h-15l13 170q106 26 162.5 75t68.5 103q3 23 -11 40.5t-44 17.5q-39 0 -99.5 -23.5t-117.5 -64.5q-11 28 -2 65q8 37 47 57.5t104 20.5z" />
    <glyph glyph-name="uni1ED5" unicode="&#x1ed5;" horiz-adv-x="1118" 
d="M451 12q77 0 145 51.5t116.5 134.5t84 186t52.5 208t17 199q0 147 -50 225t-148 78q-71 0 -133.5 -41t-106 -109t-78.5 -151t-55 -171.5t-30.5 -166.5t-10.5 -140q0 -144 50.5 -223.5t146.5 -79.5zM672 1126q180 0 285.5 -118t105.5 -310q0 -134 -48 -264t-129 -230
t-197 -162t-243 -62q-179 0 -284 118t-105 312q0 179 81 343.5t224 268.5t310 104zM1004 1217l-9 -9l-245 150l-334 -150l-4 6l362 318h4zM1100 1851q107 0 156.5 -49.5t33.5 -126.5q-13 -64 -84 -121t-188 -88l-25 -75h-14l12 170q106 26 163 75t69 103q3 22 -11.5 39.5
t-44.5 17.5q-39 0 -99.5 -23.5t-117.5 -64.5q-11 28 -2 66q16 77 152 77z" />
    <glyph glyph-name="uni1ED6" unicode="&#x1ed6;" horiz-adv-x="1443" 
d="M621 8q93 0 176.5 43.5t147 118t115 172t84.5 208t50.5 223.5t17.5 220q0 212 -82 322t-235 110q-87 0 -165 -37t-136.5 -99t-107.5 -144.5t-82.5 -173.5t-56.5 -186.5t-33.5 -181.5t-10.5 -161q0 -211 83.5 -322.5t234.5 -111.5zM897 1454q241 0 380.5 -151.5
t139.5 -405.5q0 -115 -28 -229.5t-78.5 -215.5t-123.5 -188t-160 -149.5t-192.5 -98.5t-216.5 -36q-238 0 -379 153t-141 406q0 173 62 339t167 293t255 205t315 78zM1235 1544l-8 -8l-246 150l-334 -150l-4 6l363 318h4zM1171 1915q-44 0 -85 21.5t-67.5 48t-61 48
t-66.5 21.5q-38 0 -76 -24.5t-63 -65.5l-15 2q102 217 224 217q42 0 82 -22.5t67 -49t64 -49t73 -22.5q81 0 137 100l15 -2q-100 -223 -228 -223z" />
    <glyph glyph-name="uni1ED7" unicode="&#x1ed7;" horiz-adv-x="1118" 
d="M451 12q77 0 145 51.5t116.5 134.5t84 186t52.5 208t17 199q0 147 -50 225t-148 78q-71 0 -133.5 -41t-106 -109t-78.5 -151t-55 -171.5t-30.5 -166.5t-10.5 -140q0 -144 50.5 -223.5t146.5 -79.5zM672 1126q180 0 285.5 -118t105.5 -310q0 -134 -48 -264t-129 -230
t-197 -162t-243 -62q-179 0 -284 118t-105 312q0 179 81 343.5t224 268.5t310 104zM1004 1217l-9 -9l-245 150l-334 -150l-4 6l362 318h4zM940 1587q-36 0 -69.5 14.5t-58.5 35t-49 40.5t-50.5 34.5t-53.5 14.5q-38 0 -76 -24.5t-63 -65.5l-14 2q102 217 223 217
q34 0 66.5 -14.5t58 -35.5t50 -42.5t53.5 -36t59 -14.5q81 0 137 100l14 -2q-100 -223 -227 -223z" />
    <glyph glyph-name="uni1ED8" unicode="&#x1ed8;" horiz-adv-x="1443" 
d="M621 8q93 0 176.5 43.5t147 118t115 172t84.5 208t50.5 223.5t17.5 220q0 212 -82 322t-235 110q-87 0 -165 -37t-136.5 -99t-107.5 -144.5t-82.5 -173.5t-56.5 -186.5t-33.5 -181.5t-10.5 -161q0 -211 83.5 -322.5t234.5 -111.5zM897 1454q241 0 380.5 -151.5
t139.5 -405.5q0 -115 -28 -229.5t-78.5 -215.5t-123.5 -188t-160 -149.5t-192.5 -98.5t-216.5 -36q-238 0 -379 153t-141 406q0 173 62 339t167 293t255 205t315 78zM1235 1544l-8 -8l-246 150l-334 -150l-4 6l363 318h4zM537 -399q-51 0 -86 34.5t-35 85.5q0 53 34.5 87
t86.5 34q54 0 87 -33.5t33 -87.5q0 -52 -33.5 -86t-86.5 -34z" />
    <glyph glyph-name="uni1ED9" unicode="&#x1ed9;" horiz-adv-x="1118" 
d="M451 12q77 0 145 51.5t116.5 134.5t84 186t52.5 208t17 199q0 147 -50 225t-148 78q-71 0 -133.5 -41t-106 -109t-78.5 -151t-55 -171.5t-30.5 -166.5t-10.5 -140q0 -144 50.5 -223.5t146.5 -79.5zM672 1126q180 0 285.5 -118t105.5 -310q0 -134 -48 -264t-129 -230
t-197 -162t-243 -62q-179 0 -284 118t-105 312q0 179 81 343.5t224 268.5t310 104zM1004 1217l-9 -9l-245 150l-334 -150l-4 6l362 318h4zM393 -399q-51 0 -86 34.5t-35 85.5q0 53 34.5 87t86.5 34q54 0 87.5 -33.5t33.5 -87.5q0 -52 -34 -86t-87 -34z" />
    <glyph glyph-name="uni1EDA" unicode="&#x1eda;" horiz-adv-x="1443" 
d="M621 8q93 0 176.5 43.5t147 118t115 172t84.5 208t50.5 223.5t17.5 220q0 212 -82 322t-235 110q-87 0 -165 -37t-136.5 -99t-107.5 -144.5t-82.5 -173.5t-56.5 -186.5t-33.5 -181.5t-10.5 -161q0 -211 83.5 -322.5t234.5 -111.5zM897 1454q255 0 397 -172q76 50 90 104
q18 84 -94 134q9 46 48.5 77t82.5 31q52 0 76 -38t12 -95q-14 -68 -65 -128.5t-133 -104.5q106 -142 106 -365q0 -115 -28 -229.5t-78.5 -215.5t-123.5 -188t-160 -149.5t-192.5 -98.5t-216.5 -36q-238 0 -379 153t-141 406q0 173 62 339t167 293t255 205t315 78zM885 1528
l184 315h256v-4l-430 -311h-10z" />
    <glyph glyph-name="uni1EDB" unicode="&#x1edb;" horiz-adv-x="1118" 
d="M451 12q77 0 145 51.5t116.5 134.5t84 186t52.5 208t17 199q0 147 -50 225t-148 78q-71 0 -133.5 -41t-106 -109t-78.5 -151t-55 -171.5t-30.5 -166.5t-10.5 -140q0 -144 50.5 -223.5t146.5 -79.5zM672 1126q202 0 311 -151q88 53 102 112q18 84 -94 134q9 46 48.5 77
t82.5 31q52 0 76 -38t12 -95q-15 -72 -69.5 -135.5t-143.5 -106.5q66 -107 66 -256q0 -134 -48 -264t-129 -230t-197 -162t-243 -62q-179 0 -284 118t-105 312q0 179 81 343.5t224 268.5t310 104zM635 1198l184 315h256v-4l-430 -311h-10z" />
    <glyph glyph-name="uni1EDC" unicode="&#x1edc;" horiz-adv-x="1443" 
d="M621 8q93 0 176.5 43.5t147 118t115 172t84.5 208t50.5 223.5t17.5 220q0 212 -82 322t-235 110q-87 0 -165 -37t-136.5 -99t-107.5 -144.5t-82.5 -173.5t-56.5 -186.5t-33.5 -181.5t-10.5 -161q0 -211 83.5 -322.5t234.5 -111.5zM897 1454q255 0 397 -172q76 50 90 104
q18 84 -94 134q9 46 48.5 77t82.5 31q52 0 76 -38t12 -95q-14 -68 -65 -128.5t-133 -104.5q106 -142 106 -365q0 -115 -28 -229.5t-78.5 -215.5t-123.5 -188t-160 -149.5t-192.5 -98.5t-216.5 -36q-238 0 -379 153t-141 406q0 173 62 339t167 293t255 205t315 78zM889 1841
l61 -315h-10l-299 311v4h248z" />
    <glyph glyph-name="uni1EDD" unicode="&#x1edd;" horiz-adv-x="1118" 
d="M451 12q77 0 145 51.5t116.5 134.5t84 186t52.5 208t17 199q0 147 -50 225t-148 78q-71 0 -133.5 -41t-106 -109t-78.5 -151t-55 -171.5t-30.5 -166.5t-10.5 -140q0 -144 50.5 -223.5t146.5 -79.5zM672 1126q202 0 311 -151q88 53 102 112q18 84 -94 134q9 46 48.5 77
t82.5 31q52 0 76 -38t12 -95q-15 -72 -69.5 -135.5t-143.5 -106.5q66 -107 66 -256q0 -134 -48 -264t-129 -230t-197 -162t-243 -62q-179 0 -284 118t-105 312q0 179 81 343.5t224 268.5t310 104zM680 1513l61 -315h-10l-299 311v4h248z" />
    <glyph glyph-name="uni1EDE" unicode="&#x1ede;" horiz-adv-x="1443" 
d="M621 8q93 0 176.5 43.5t147 118t115 172t84.5 208t50.5 223.5t17.5 220q0 212 -82 322t-235 110q-87 0 -165 -37t-136.5 -99t-107.5 -144.5t-82.5 -173.5t-56.5 -186.5t-33.5 -181.5t-10.5 -161q0 -211 83.5 -322.5t234.5 -111.5zM897 1454q255 0 397 -172q76 50 90 104
q18 84 -94 134q9 46 48.5 77t82.5 31q52 0 76 -38t12 -95q-14 -68 -65 -128.5t-133 -104.5q106 -142 106 -365q0 -115 -28 -229.5t-78.5 -215.5t-123.5 -188t-160 -149.5t-192.5 -98.5t-216.5 -36q-238 0 -379 153t-141 406q0 173 62 339t167 293t255 205t315 78zM1077 1989
q107 0 157 -50t34 -127q-12 -64 -83.5 -120.5t-189.5 -87.5l-24 -76h-15l13 170q106 26 162.5 75t68.5 103q3 22 -11 39.5t-44 17.5q-39 0 -99.5 -23.5t-117.5 -64.5q-11 28 -2 66q8 37 47 57.5t104 20.5z" />
    <glyph glyph-name="uni1EDF" unicode="&#x1edf;" horiz-adv-x="1118" 
d="M451 12q77 0 145 51.5t116.5 134.5t84 186t52.5 208t17 199q0 147 -50 225t-148 78q-71 0 -133.5 -41t-106 -109t-78.5 -151t-55 -171.5t-30.5 -166.5t-10.5 -140q0 -144 50.5 -223.5t146.5 -79.5zM672 1126q202 0 311 -151q88 53 102 112q18 84 -94 134q9 46 48.5 77
t82.5 31q52 0 76 -38t12 -95q-15 -72 -69.5 -135.5t-143.5 -106.5q66 -107 66 -256q0 -134 -48 -264t-129 -230t-197 -162t-243 -62q-179 0 -284 118t-105 312q0 179 81 343.5t224 268.5t310 104zM829 1659q107 0 157 -50t34 -126q-13 -64 -84 -121t-188 -88l-25 -76h-14
l12 170q106 26 162.5 75t68.5 103q3 23 -11 40.5t-44 17.5q-39 0 -99.5 -23.5t-117.5 -64.5q-11 28 -2 65q8 37 47 57.5t104 20.5z" />
    <glyph glyph-name="uni1EE0" unicode="&#x1ee0;" horiz-adv-x="1443" 
d="M621 8q93 0 176.5 43.5t147 118t115 172t84.5 208t50.5 223.5t17.5 220q0 212 -82 322t-235 110q-87 0 -165 -37t-136.5 -99t-107.5 -144.5t-82.5 -173.5t-56.5 -186.5t-33.5 -181.5t-10.5 -161q0 -211 83.5 -322.5t234.5 -111.5zM897 1454q255 0 397 -172q76 50 90 104
q18 84 -94 134q9 46 48.5 77t82.5 31q52 0 76 -38t12 -95q-14 -68 -65 -128.5t-133 -104.5q106 -142 106 -365q0 -115 -28 -229.5t-78.5 -215.5t-123.5 -188t-160 -149.5t-192.5 -98.5t-216.5 -36q-238 0 -379 153t-141 406q0 173 62 339t167 293t255 205t315 78zM1069 1522
q-36 0 -69.5 14.5t-58.5 35t-49 40.5t-50.5 34.5t-53.5 14.5q-38 0 -76 -24.5t-63 -65.5l-14 2q102 217 223 217q34 0 66.5 -14.5t58 -36t50 -42.5t53.5 -35.5t59 -14.5q81 0 137 100l14 -2q-100 -223 -227 -223z" />
    <glyph glyph-name="uni1EE1" unicode="&#x1ee1;" horiz-adv-x="1118" 
d="M451 12q77 0 145 51.5t116.5 134.5t84 186t52.5 208t17 199q0 147 -50 225t-148 78q-71 0 -133.5 -41t-106 -109t-78.5 -151t-55 -171.5t-30.5 -166.5t-10.5 -140q0 -144 50.5 -223.5t146.5 -79.5zM672 1126q202 0 311 -151q88 53 102 112q18 84 -94 134q9 46 48.5 77
t82.5 31q52 0 76 -38t12 -95q-15 -72 -69.5 -135.5t-143.5 -106.5q66 -107 66 -256q0 -134 -48 -264t-129 -230t-197 -162t-243 -62q-179 0 -284 118t-105 312q0 179 81 343.5t224 268.5t310 104zM836 1276q-36 0 -69.5 14.5t-58.5 35t-49 40.5t-50.5 34.5t-53.5 14.5
q-38 0 -76 -24.5t-63 -65.5l-15 2q102 217 224 217q42 0 82 -22.5t67 -49t64 -49t73 -22.5q82 0 138 100l14 -2q-100 -223 -227 -223z" />
    <glyph glyph-name="uni1EE2" unicode="&#x1ee2;" horiz-adv-x="1443" 
d="M621 8q93 0 176.5 43.5t147 118t115 172t84.5 208t50.5 223.5t17.5 220q0 212 -82 322t-235 110q-87 0 -165 -37t-136.5 -99t-107.5 -144.5t-82.5 -173.5t-56.5 -186.5t-33.5 -181.5t-10.5 -161q0 -211 83.5 -322.5t234.5 -111.5zM897 1454q255 0 397 -172q76 50 90 104
q18 84 -94 134q9 46 48.5 77t82.5 31q52 0 76 -38t12 -95q-14 -68 -65 -128.5t-133 -104.5q106 -142 106 -365q0 -115 -28 -229.5t-78.5 -215.5t-123.5 -188t-160 -149.5t-192.5 -98.5t-216.5 -36q-238 0 -379 153t-141 406q0 173 62 339t167 293t255 205t315 78zM537 -399
q-51 0 -86 34.5t-35 85.5q0 53 34.5 87t86.5 34q54 0 87 -33.5t33 -87.5q0 -52 -33.5 -86t-86.5 -34z" />
    <glyph glyph-name="uni1EE3" unicode="&#x1ee3;" horiz-adv-x="1118" 
d="M451 12q77 0 145 51.5t116.5 134.5t84 186t52.5 208t17 199q0 147 -50 225t-148 78q-71 0 -133.5 -41t-106 -109t-78.5 -151t-55 -171.5t-30.5 -166.5t-10.5 -140q0 -144 50.5 -223.5t146.5 -79.5zM672 1126q202 0 311 -151q88 53 102 112q18 84 -94 134q9 46 48.5 77
t82.5 31q52 0 76 -38t12 -95q-15 -72 -69.5 -135.5t-143.5 -106.5q66 -107 66 -256q0 -134 -48 -264t-129 -230t-197 -162t-243 -62q-179 0 -284 118t-105 312q0 179 81 343.5t224 268.5t310 104zM393 -399q-51 0 -86 34.5t-35 85.5q0 53 34.5 87t86.5 34q54 0 87.5 -33.5
t33.5 -87.5q0 -52 -34 -86t-87 -34z" />
    <glyph glyph-name="uni1EE4" unicode="&#x1ee4;" horiz-adv-x="1468" 
d="M578 -399q-51 0 -86 34.5t-35 85.5q0 53 34.5 87t86.5 34q54 0 87 -33.5t33 -87.5q0 -52 -33.5 -86t-86.5 -34zM672 -20q-124 0 -225.5 36.5t-167.5 105t-91.5 167.5t0.5 223l164 768q12 60 -12 82t-78 31l-57 10l6 31h571l-6 -31l-67 -10q-24 -4 -40 -7.5t-35 -11.5
t-31.5 -19t-23.5 -30t-16 -45l-166 -780q-27 -141 13 -242q40 -99 133 -154t221 -55q184 0 287.5 115.5t150.5 337.5l166 778q12 60 -17 82t-94 31l-67 10l6 31h457l-6 -31l-74 -10q-26 -4 -43.5 -7.5t-38.5 -11.5t-34.5 -19t-25 -30t-16.5 -45l-166 -778
q-53 -252 -196 -387t-381 -135z" />
    <glyph glyph-name="uni1EE5" unicode="&#x1ee5;" horiz-adv-x="1277" 
d="M496 -399q-51 0 -86 34.5t-35 85.5q0 53 34.5 87t86.5 34q54 0 87 -33.5t33 -87.5q0 -52 -33.5 -86t-86.5 -34zM1235 416l22 -13q-114 -200 -229.5 -311.5t-214.5 -111.5q-50 0 -69 35.5t-1 103.5l148 553q-129 -320 -288 -506t-316 -186q-92 0 -135.5 68t-14.5 177
l219 824q-70 -45 -153.5 -139.5t-161.5 -219.5l-23 12q118 202 232.5 313t212.5 111q50 0 68.5 -35.5t0.5 -103.5l-200 -745q-35 -133 65 -133q65 0 147 73t164.5 200.5t162.5 317t137 406.5h192l-282 -1051q71 46 155.5 140.5t161.5 220.5z" />
    <glyph glyph-name="uni1EE6" unicode="&#x1ee6;" horiz-adv-x="1468" 
d="M1098 1989q106 0 156 -50t34 -127q-12 -64 -83 -120.5t-189 -87.5l-25 -76h-14l12 170q106 26 163 75t69 103q3 22 -11.5 39.5t-44.5 17.5q-39 0 -99.5 -23.5t-117.5 -64.5q-11 28 -2 66q8 37 47 57.5t105 20.5zM672 -20q-124 0 -225.5 36.5t-167.5 105t-91.5 167.5
t0.5 223l164 768q12 60 -12 82t-78 31l-57 10l6 31h571l-6 -31l-67 -10q-24 -4 -40 -7.5t-35 -11.5t-31.5 -19t-23.5 -30t-16 -45l-166 -780q-27 -141 13 -242q40 -99 133 -154t221 -55q184 0 287.5 115.5t150.5 337.5l166 778q12 60 -17 82t-94 31l-67 10l6 31h457l-6 -31
l-74 -10q-26 -4 -43.5 -7.5t-38.5 -11.5t-34.5 -19t-25 -30t-16.5 -45l-166 -778q-53 -252 -196 -387t-381 -135z" />
    <glyph glyph-name="uni1EE7" unicode="&#x1ee7;" horiz-adv-x="1277" 
d="M891 1659q107 0 156.5 -49.5t33.5 -126.5q-13 -64 -84 -121t-188 -88l-25 -76h-14l12 170q106 26 163 75t69 103q3 22 -11.5 40t-44.5 18q-39 0 -99.5 -23.5t-117.5 -64.5q-11 28 -2 65q8 37 47 57.5t105 20.5zM1235 416l22 -13q-114 -200 -229.5 -311.5t-214.5 -111.5
q-50 0 -69 35.5t-1 103.5l148 553q-129 -320 -288 -506t-316 -186q-92 0 -135.5 68t-14.5 177l219 824q-70 -45 -153.5 -139.5t-161.5 -219.5l-23 12q118 202 232.5 313t212.5 111q50 0 68.5 -35.5t0.5 -103.5l-200 -745q-35 -133 65 -133q65 0 147 73t164.5 200.5
t162.5 317t137 406.5h192l-282 -1051q71 46 155.5 140.5t161.5 220.5z" />
    <glyph glyph-name="uni1EE8" unicode="&#x1ee8;" horiz-adv-x="1468" 
d="M1110 1843h256v-4l-430 -311h-10zM672 -20q-124 0 -225.5 36.5t-167.5 105t-91.5 167.5t0.5 223l164 768q12 60 -12 82t-78 31l-57 10l6 31h571l-6 -31l-67 -10q-24 -4 -40 -7.5t-35 -11.5t-31.5 -19t-23.5 -30t-16 -45l-166 -780q-27 -141 13 -242q40 -99 133 -154
t221 -55q184 0 287.5 115.5t150.5 337.5l166 778q12 60 -17 82t-94 31l-67 10l6 31h334l-6 -31q-53 -16 -74.5 -38t-34.5 -85l-8 -41q157 67 176 147q18 84 -94 134q9 46 48.5 77t82.5 31q52 0 76 -38t12 -95q-19 -90 -98.5 -163.5t-208.5 -112.5l-152 -717
q-53 -252 -196 -387t-381 -135z" />
    <glyph glyph-name="uni1EE9" unicode="&#x1ee9;" horiz-adv-x="1277" 
d="M1151 1513v-4l-430 -311h-10l184 315h256zM1235 416l22 -13q-114 -200 -229.5 -311.5t-214.5 -111.5q-50 0 -69 35.5t-1 103.5l148 553q-129 -320 -288 -506t-316 -186q-92 0 -135.5 68t-14.5 177l219 824q-70 -45 -153.5 -139.5t-161.5 -219.5l-23 12q118 202 232.5 313
t212.5 111q50 0 68.5 -35.5t0.5 -103.5l-200 -745q-35 -133 65 -133q65 0 147 73t164.5 200.5t162.5 317t137 406.5h192l-45 -164q154 62 174 145q18 84 -94 134q9 46 48.5 77t82.5 31q52 0 76 -38t12 -95q-19 -90 -97.5 -163t-207.5 -113l-231 -865q71 46 155.5 140.5
t161.5 220.5z" />
    <glyph glyph-name="uni1EEA" unicode="&#x1eea;" horiz-adv-x="1468" 
d="M1012 1526h-11l-299 311v4h248zM672 -20q-124 0 -225.5 36.5t-167.5 105t-91.5 167.5t0.5 223l164 768q12 60 -12 82t-78 31l-57 10l6 31h571l-6 -31l-67 -10q-24 -4 -40 -7.5t-35 -11.5t-31.5 -19t-23.5 -30t-16 -45l-166 -780q-27 -141 13 -242q40 -99 133 -154
t221 -55q184 0 287.5 115.5t150.5 337.5l166 778q12 60 -17 82t-94 31l-67 10l6 31h334l-6 -31q-53 -16 -74.5 -38t-34.5 -85l-8 -41q157 67 176 147q18 84 -94 134q9 46 48.5 77t82.5 31q52 0 76 -38t12 -95q-19 -90 -98.5 -163.5t-208.5 -112.5l-152 -717
q-53 -252 -196 -387t-381 -135z" />
    <glyph glyph-name="uni1EEB" unicode="&#x1eeb;" horiz-adv-x="1277" 
d="M756 1513l61 -315h-10l-299 311v4h248zM1235 416l22 -13q-114 -200 -229.5 -311.5t-214.5 -111.5q-50 0 -69 35.5t-1 103.5l148 553q-129 -320 -288 -506t-316 -186q-92 0 -135.5 68t-14.5 177l219 824q-70 -45 -153.5 -139.5t-161.5 -219.5l-23 12q118 202 232.5 313
t212.5 111q50 0 68.5 -35.5t0.5 -103.5l-200 -745q-35 -133 65 -133q65 0 147 73t164.5 200.5t162.5 317t137 406.5h192l-45 -164q154 62 174 145q18 84 -94 134q9 46 48.5 77t82.5 31q52 0 76 -38t12 -95q-19 -90 -97.5 -163t-207.5 -113l-231 -865q71 46 155.5 140.5
t161.5 220.5z" />
    </font>
</defs>
</svg>
