<?xml version="1.0" standalone="no"?>
<!DOCTYPE svg PUBLIC "-//W3C//DTD SVG 1.1//EN" "http://www.w3.org/Graphics/SVG/1.1/DTD/svg11.dtd" >
<svg xmlns="http://www.w3.org/2000/svg" xmlns:xlink="http://www.w3.org/1999/xlink" version="1.1">
<metadata>
Created by FontForge 20201107 at Fri Aug 23 08:19:02 2024
 By 
Copyright (c) 2022 by Rene Bieder. All rights reserved. Viet hoa boi STYLEno.1 Fonts
</metadata>
<defs>
<font id="SVN-RBVitruvDisplay-MediumItalic" horiz-adv-x="1228" >
  <font-face 
    font-family="SVN-RB Vitruv Display Med"
    font-weight="500"
    font-style="italic"
    font-stretch="semi-condensed"
    units-per-em="2048"
    panose-1="0 0 6 6 0 0 0 0 0 0"
    ascent="1638"
    descent="-410"
    x-height="1135"
    cap-height="1434"
    bbox="-506 -772 2513 2300"
    underline-thickness="102"
    underline-position="-204"
    slope="-12"
    unicode-range="U+000D-2715"
  />
<missing-glyph horiz-adv-x="1742" 
d="M1122 248q75 0 121.5 48.5t46.5 127.5v104q0 23 -22 23h-725q-23 0 -23 -23v-41q0 -22 23 -22h389q22 0 22 -23v-18q0 -79 46.5 -127.5t121.5 -48.5zM481 760l27 -27q16 -19 31 0l100 101q18 15 33 0l100 -101q16 -17 33 0l26 27q15 16 0 31l-100 100q-17 17 0 33
l100 100q15 18 0 33l-26 26q-17 17 -33 0l-100 -100q-15 -18 -33 0l-100 100q-15 15 -31 0l-27 -26q-17 -17 0 -33l101 -100q12 -16 0 -31l-101 -102q-15 -15 0 -31zM977 760l27 -27q16 -16 32 0l101 101q15 15 32 0l101 -101q15 -18 30 0l27 27q19 16 0 31l-100 100
q-17 17 0 33l100 100q17 16 0 33l-27 26q-15 15 -30 0l-101 -100q-17 -17 -32 0l-101 100q-16 16 -32 0l-27 -26q-15 -15 0 -33l100 -100q15 -16 0 -31l-100 -102q-15 -15 0 -31zM903 1497q350 0 564 -215.5t214 -568.5q0 -350 -214 -564.5t-564 -214.5q-229 0 -405.5 97
t-273.5 274t-97 408q0 171 55 316t154.5 248.5t245.5 161.5t321 58zM1122 344q-69 0 -69 82v39h139v-39q0 -41 -15.5 -61.5t-54.5 -20.5z" />
    <glyph glyph-name="f_b" unicode="fb" horiz-adv-x="1771" 
d="M1051 16q78 0 163 85.5t148.5 208.5t105 262t41.5 243q0 148 -102 148q-37 0 -81.5 -28.5t-99.5 -94t-110.5 -162.5t-117 -245t-117.5 -329q85 -88 170 -88zM555 1114h358l105 381q-67 90 -172 90q-96 0 -156 -99t-135 -372zM1561 1135q103 0 150.5 -71t47.5 -192
q0 -152 -60 -310.5t-160.5 -287.5t-245.5 -211.5t-302 -82.5q-164 0 -352 116l264 977h-358l-242 -897q-71 -259 -238.5 -412t-345.5 -153q-94 0 -144 35.5t-50 89.5q0 99 137 158q19 -99 69.5 -153t123.5 -54q20 0 35 7t30.5 30t27 47t28 78t30 101.5t37.5 137.5l264 985
h-155l12 41l160 19q73 229 256 377.5t389 148.5q145 0 202 -74l111 33h4l-317 -1174q146 363 296 527t296 164z" />
    <glyph glyph-name="f_f" unicode="ff" horiz-adv-x="1236" 
d="M643 88l266 985h-364l-242 -897q-39 -144 -119 -268q17 -97 87 -163.5t153 -66.5q56 0 106.5 92.5t112.5 317.5zM846 1585q-96 0 -156 -99t-135 -372h367q49 163 141 281q-20 86 -79 138t-138 52zM1493 1642q94 0 144.5 -35t50.5 -89q0 -42 -34 -85t-104 -73
q-18 100 -66 153.5t-110 53.5q-47 0 -79.5 -41.5t-61.5 -139.5l-76 -272h246l-10 -41h-246l-244 -897q-72 -263 -247 -414t-384 -151q-90 0 -157.5 38.5t-67.5 94.5v4q-74 -67 -159.5 -102t-168.5 -35q-94 0 -144 35.5t-50 89.5q0 99 137 158q19 -99 69.5 -153t123.5 -54
q20 0 35 7t30.5 30t27 47t28 78t30 101.5t37.5 137.5l264 985h-155l12 41l160 19q73 229 256 377.5t389 148.5q104 0 162.5 -36t64.5 -93q141 112 297 112z" />
    <glyph glyph-name="f_f_b" unicode="ffb" horiz-adv-x="2365" 
d="M637 88l268 985h-360l-242 -897q-36 -137 -123 -274q20 -96 89 -160t149 -64q56 0 106.5 92.5t112.5 317.5zM1647 16q78 0 163 85.5t148.5 208.5t105 262t41.5 243q0 148 -102 148q-37 0 -81.5 -28.5t-99 -94t-110.5 -162.5t-118 -245t-119 -329q88 -88 172 -88z
M846 1585q-96 0 -156 -99t-135 -372h358q46 157 150 283q-20 85 -79.5 136.5t-137.5 51.5zM1151 1114h358l105 383q-66 88 -172 88q-96 0 -156 -99t-135 -372zM2154 1135q105 0 153 -71t48 -192q0 -152 -60 -310.5t-160.5 -287.5t-245.5 -211.5t-302 -82.5q-167 0 -352 116
l264 977h-358l-244 -897q-72 -264 -246 -414.5t-385 -150.5q-90 0 -157.5 38.5t-67.5 94.5q-157 -133 -322 -133q-94 0 -144 35.5t-50 89.5q0 99 137 158q19 -99 69.5 -153t123.5 -54q20 0 35 7t30.5 30t27 47t28 78t30 101.5t37.5 137.5l264 985h-155l12 41l160 19
q73 229 256 377.5t389 148.5q104 0 163 -38t64 -95q179 133 369 133q145 0 202 -74l109 33h4l-317 -1176q75 187 153 323.5t153 216t145 116.5t140 37z" />
    <glyph glyph-name="f_f_h" unicode="ffh" horiz-adv-x="2439" 
d="M637 88l268 985h-360l-242 -897q-36 -137 -123 -274q20 -96 89 -160t149 -64q56 0 106.5 92.5t112.5 317.5zM846 1585q-96 0 -156 -99t-135 -372h358q46 157 150 283q-20 85 -79.5 136.5t-137.5 51.5zM1151 1114h358l103 383q-64 88 -170 88q-96 0 -156 -99t-135 -372z
M2406 424l23 -14q-114 -203 -233 -316.5t-224 -113.5q-59 0 -84.5 41t-5.5 114l193 715q17 60 2 90.5t-60 30.5q-85 0 -187.5 -122t-204.5 -345.5t-177 -503.5h-238l287 1073h-356l-244 -897q-72 -264 -246 -414.5t-385 -150.5q-90 0 -157.5 38.5t-67.5 94.5
q-157 -133 -322 -133q-94 0 -144 35.5t-50 89.5q0 99 137 158q19 -99 69.5 -153t123.5 -54q20 0 35 7t30.5 30t27 47t28 78t30 101.5t37.5 137.5l264 985h-155l12 41l160 19q73 229 256 377.5t389 148.5q104 0 163 -38t64 -95q179 133 369 133q145 0 202 -74l109 33h4
l-307 -1153q130 318 283.5 494t310.5 176q92 0 136 -68.5t15 -179.5l-215 -807q69 43 148.5 133t154.5 211z" />
    <glyph glyph-name="f_f_i" unicode="ffi" horiz-adv-x="1796" 
d="M637 88l268 985h-360l-242 -897q-36 -137 -123 -274q20 -96 89 -160t149 -64q56 0 106.5 92.5t112.5 317.5zM846 1585q-96 0 -156 -99t-135 -372h363q45 154 145 281q-20 85 -79.5 137.5t-137.5 52.5zM1153 1114h573l-278 -1038q71 46 151.5 136.5t153.5 211.5l23 -14
q-114 -204 -233 -317t-226 -113q-58 0 -83 41t-5 114l252 938h-340l-244 -897q-72 -264 -246 -414.5t-385 -150.5q-90 0 -157.5 38.5t-67.5 94.5q-157 -133 -322 -133q-94 0 -144 35.5t-50 89.5q0 99 137 158q19 -99 69.5 -153t123.5 -54q20 0 35 7t30.5 30t27 47t28 78
t30 101.5t37.5 137.5l264 985h-155l12 41l160 19q73 229 256 377.5t389 148.5q104 0 163 -38t64 -95q179 133 369 133q110 0 168.5 -40.5t58.5 -100.5q0 -51 -43 -99.5t-113 -72.5q-11 99 -67.5 161t-141.5 62q-39 0 -68 -12.5t-54.5 -40.5t-49.5 -83t-47.5 -129t-54.5 -190
z" />
    <glyph glyph-name="f_f_j" unicode="ffj" horiz-adv-x="1787" 
d="M637 88l268 985h-360l-242 -897q-36 -137 -123 -274q20 -96 89 -160t149 -64q56 0 106.5 92.5t112.5 317.5zM846 1585q-96 0 -156 -99t-135 -372h363q45 154 145 281q-20 85 -79.5 137.5t-137.5 52.5zM1427 1569q-39 0 -68 -12.5t-54.5 -40.5t-49.5 -83t-47.5 -129
t-54.5 -190h637l-250 -938q-34 -131 -99 -239.5t-144.5 -178.5t-167.5 -108.5t-173 -38.5q-94 0 -144 35.5t-50 89.5q0 44 33.5 85.5t103.5 72.5q19 -99 70.5 -153t124.5 -54q53 0 86.5 77t99.5 324l264 985h-403l-244 -897q-72 -264 -246 -414.5t-385 -150.5
q-90 0 -157.5 38.5t-67.5 94.5q-157 -133 -322 -133q-94 0 -144 35.5t-50 89.5q0 99 137 158q19 -99 69.5 -153t123.5 -54q20 0 35 7t30.5 30t27 47t28 78t30 101.5t37.5 137.5l264 985h-155l12 41l160 19q73 229 256 377.5t389 148.5q104 0 163 -38t64 -95q179 133 369 133
q110 0 168.5 -40.5t58.5 -100.5q0 -51 -43 -99.5t-113 -72.5q-11 99 -67.5 161t-141.5 62z" />
    <glyph glyph-name="f_f_k" unicode="ffk" horiz-adv-x="2396" 
d="M637 88l268 985h-360l-242 -897q-36 -137 -123 -274q20 -96 89 -160t149 -64q56 0 106.5 92.5t112.5 317.5zM846 1585q-96 0 -156 -99t-135 -372h358q46 157 150 283q-20 85 -79.5 136.5t-137.5 51.5zM1151 1114h358l103 383q-64 88 -170 88q-96 0 -156 -99t-135 -372z
M1939 565l105 -489q158 111 303 348l23 -14q-114 -203 -233 -316.5t-224 -113.5q-56 0 -81.5 31.5t-43.5 115.5l-64 350q406 238 406 445q0 71 -74 71q-155 0 -320.5 -269t-287.5 -724h-238l287 1073h-356l-244 -897q-72 -264 -246 -414.5t-385 -150.5q-90 0 -157.5 38.5
t-67.5 94.5q-157 -133 -322 -133q-94 0 -144 35.5t-50 89.5q0 99 137 158q19 -99 69.5 -153t123.5 -54q20 0 35 7t30.5 30t27 47t28 78t30 101.5t37.5 137.5l264 985h-155l12 41l160 19q73 229 256 377.5t389 148.5q104 0 163 -38t64 -95q179 133 369 133q145 0 202 -74
l109 33h4l-293 -1100q137 300 301.5 457.5t329.5 157.5q76 0 120 -33t44 -94q0 -98 -116 -213t-327 -228z" />
    <glyph glyph-name="f_f_l" unicode="ffl" horiz-adv-x="1810" 
d="M637 88l268 985h-360l-242 -897q-36 -137 -123 -274q20 -96 89 -160t149 -64q56 0 106.5 92.5t112.5 317.5zM846 1585q-96 0 -156 -99t-135 -372h358q46 157 150 283q-20 85 -79.5 136.5t-137.5 51.5zM1151 1114h360l103 381q-67 90 -172 90q-96 0 -156 -99t-135 -372z
M1876 1618h4l-412 -1538q69 44 149.5 134.5t154.5 209.5l22 -14q-114 -204 -233 -317t-226 -113q-58 0 -83 41t-5 114l252 938h-358l-244 -897q-72 -264 -246 -414.5t-385 -150.5q-90 0 -157.5 38.5t-67.5 94.5q-157 -133 -322 -133q-94 0 -144 35.5t-50 89.5q0 99 137 158
q19 -99 69.5 -153t123.5 -54q20 0 35 7t30.5 30t27 47t28 78t30 101.5t37.5 137.5l264 985h-155l12 41l160 19q73 229 256 377.5t389 148.5q104 0 163 -38t64 -95q179 133 369 133q145 0 202 -74z" />
    <glyph glyph-name="f_f_t" unicode="fft" horiz-adv-x="1906" 
d="M639 88l268 985h-362l-242 -897q-44 -157 -121 -272q20 -97 89 -161.5t149 -64.5q56 0 106.5 92.5t112.5 317.5zM846 1585q-96 0 -156 -99t-135 -372h365q51 164 143 283q-20 85 -79.5 136.5t-137.5 51.5zM1749 1114h276l-10 -41h-278l-271 -1030q170 72 379 381l23 -14
q-123 -204 -247.5 -317t-231.5 -113q-80 0 -116.5 48t-8.5 148l235 897h-356l-244 -897q-72 -264 -246 -414.5t-385 -150.5q-90 0 -157.5 38.5t-67.5 94.5q-157 -133 -324 -133q-94 0 -144 35.5t-50 89.5q0 99 137 158q19 -99 69.5 -153t123.5 -54q20 0 35 7t30.5 30t27 47
t28 78t30 101.5t37.5 137.5l264 985h-155l12 41l160 19q73 229 256 377.5t389 148.5q101 0 160 -36.5t67 -90.5q143 110 295 110q94 0 144.5 -35t50.5 -89q0 -42 -34 -85t-104 -73q-18 99 -67 153t-111 54q-45 0 -77.5 -42t-61.5 -139l-76 -272h219l408 219h26z" />
    <glyph glyph-name="f_h" unicode="fh" horiz-adv-x="1845" 
d="M555 1114h360l103 381q-67 90 -172 90q-96 0 -156 -99t-135 -372zM1812 424l23 -14q-114 -204 -233 -317t-226 -113q-58 0 -83 41t-5 114l193 715q27 121 -60 121q-61 0 -135 -70.5t-153 -200.5q-159 -264 -281 -700h-236l287 1073h-358l-242 -897q-71 -259 -238.5 -412
t-345.5 -153q-94 0 -144 35.5t-50 89.5q0 99 137 158q19 -99 69.5 -153t123.5 -54q20 0 35 7t30.5 30t27 47t28 78t30 101.5t37.5 137.5l264 985h-155l12 41l160 19q73 229 256 377.5t389 148.5q145 0 202 -74l109 33h4l-307 -1153q130 317 284.5 493.5t311.5 176.5
q92 0 135 -68.5t14 -179.5l-213 -807q69 44 149 134t154 210z" />
    <glyph glyph-name="f_i" unicode="fi" horiz-adv-x="1210" 
d="M1141 1114l-279 -1038q71 46 151.5 136.5t153.5 211.5l23 -14q-114 -204 -233 -317t-226 -113q-58 0 -83 41t-5 114l252 938h-350l-242 -897q-71 -259 -238.5 -412t-345.5 -153q-94 0 -144 35.5t-50 89.5q0 99 137 158q19 -99 69.5 -153t123.5 -54q20 0 35 7t30.5 30
t27 47t28 78t30 101.5t37.5 137.5l264 985h-155l12 41l162 19q76 232 256.5 379t386.5 147q110 0 168.5 -40.5t58.5 -100.5q0 -51 -43 -99.5t-113 -72.5q-11 98 -68.5 160.5t-142.5 62.5q-39 0 -68 -12.5t-54.5 -40.5t-49.5 -83t-47.5 -129t-54.5 -190h586z" />
    <glyph glyph-name="f_j" unicode="fj" horiz-adv-x="1191" 
d="M829 1569q-39 0 -68 -12.5t-54.5 -40.5t-49.5 -83t-47.5 -129t-54.5 -190h641l-250 -938q-71 -259 -238.5 -412t-345.5 -153q-94 0 -144 35.5t-50 89.5q0 99 137 158q19 -99 69.5 -153t123.5 -54q20 0 35 7t30.5 30t27 47t28 78t30 101.5t37.5 137.5l262 985h-403
l-242 -897q-71 -259 -238.5 -412t-345.5 -153q-94 0 -144 35.5t-50 89.5q0 99 137 158q19 -99 69.5 -153t123.5 -54q20 0 35 7t30.5 30t27 47t28 78t30 101.5t37.5 137.5l264 985h-155l12 41l162 19q76 232 256.5 379t386.5 147q110 0 168.5 -40.5t58.5 -100.5
q0 -51 -43 -99.5t-113 -72.5q-11 98 -68.5 160.5t-142.5 62.5z" />
    <glyph glyph-name="f_k" unicode="fk" horiz-adv-x="1800" 
d="M555 1114h360l103 381q-67 90 -172 90q-96 0 -156 -99t-135 -372zM1346 565l102 -489q71 50 150.5 139t154.5 209l23 -14q-114 -204 -233 -317t-226 -113q-55 0 -82 32.5t-41 114.5l-64 350q406 238 406 445q0 71 -74 71q-155 0 -321.5 -269t-288.5 -724h-236l287 1073
h-358l-242 -897q-71 -259 -238.5 -412t-345.5 -153q-94 0 -144 35.5t-50 89.5q0 99 137 158q19 -99 69.5 -153t123.5 -54q20 0 35 7t30.5 30t27 47t28 78t30 101.5t37.5 137.5l264 985h-155l12 41l160 19q73 229 256 377.5t389 148.5q145 0 202 -74l109 33h4l-295 -1104
q137 303 301.5 461t331.5 158q78 0 121 -33t43 -94q0 -97 -114.5 -210.5t-325.5 -230.5z" />
    <glyph glyph-name="f_l" unicode="fl" horiz-adv-x="1216" 
d="M555 1114h360l103 381q-67 90 -172 90q-96 0 -156 -99t-135 -372zM1282 1618h4l-414 -1538q70 43 150 133.5t154 210.5l22 -14q-114 -203 -233 -316.5t-224 -113.5q-59 0 -84.5 41t-5.5 114l252 938h-358l-242 -897q-71 -259 -238.5 -412t-345.5 -153q-94 0 -144 35.5
t-50 89.5q0 99 137 158q19 -99 69.5 -153t123.5 -54q20 0 35 7t30.5 30t27 47t28 78t30 101.5t37.5 137.5l264 985h-155l12 41l160 19q73 229 256 377.5t389 148.5q145 0 202 -74z" />
    <glyph glyph-name="f_t" unicode="ft" horiz-adv-x="1284" 
d="M1405 1114l-10 -41h-279l-270 -1030q174 78 379 381l22 -14q-126 -205 -249.5 -317.5t-231.5 -112.5q-78 0 -115.5 48t-9.5 148l238 897h-334l-242 -897q-71 -259 -238.5 -412t-345.5 -153q-94 0 -144 35.5t-50 89.5q0 99 137 158q19 -99 69.5 -153t123.5 -54q20 0 35 7
t30.5 30t27 47t28 78t30 101.5t37.5 137.5l264 985h-155l12 41l164 19q51 158 145.5 276t202.5 175.5t217 57.5q94 0 144 -35t50 -89q0 -42 -33.5 -85t-103.5 -73q-18 100 -66 153.5t-110 53.5q-47 0 -79.5 -41.5t-61.5 -139.5l-76 -272h195l409 219h25l-58 -219h277z" />
    <glyph glyph-name=".notdef" horiz-adv-x="1742" 
d="M1122 248q75 0 121.5 48.5t46.5 127.5v104q0 23 -22 23h-725q-23 0 -23 -23v-41q0 -22 23 -22h389q22 0 22 -23v-18q0 -79 46.5 -127.5t121.5 -48.5zM481 760l27 -27q16 -19 31 0l100 101q18 15 33 0l100 -101q16 -17 33 0l26 27q15 16 0 31l-100 100q-17 17 0 33
l100 100q15 18 0 33l-26 26q-17 17 -33 0l-100 -100q-15 -18 -33 0l-100 100q-15 15 -31 0l-27 -26q-17 -17 0 -33l101 -100q12 -16 0 -31l-101 -102q-15 -15 0 -31zM977 760l27 -27q16 -16 32 0l101 101q15 15 32 0l101 -101q15 -18 30 0l27 27q19 16 0 31l-100 100
q-17 17 0 33l100 100q17 16 0 33l-27 26q-15 15 -30 0l-101 -100q-17 -17 -32 0l-101 100q-16 16 -32 0l-27 -26q-15 -15 0 -33l100 -100q15 -16 0 -31l-100 -102q-15 -15 0 -31zM903 1497q350 0 564 -215.5t214 -568.5q0 -350 -214 -564.5t-564 -214.5q-229 0 -405.5 97
t-273.5 274t-97 408q0 171 55 316t154.5 248.5t245.5 161.5t321 58zM1122 344q-69 0 -69 82v39h139v-39q0 -41 -15.5 -61.5t-54.5 -20.5z" />
    <glyph glyph-name="uni0000" horiz-adv-x="0" 
 />
    <glyph glyph-name="uni0000" horiz-adv-x="0" 
 />
    <glyph glyph-name="uni000D" unicode="&#xd;" horiz-adv-x="512" 
 />
    <glyph glyph-name="space" unicode=" " horiz-adv-x="428" 
 />
    <glyph glyph-name="exclam" unicode="!" horiz-adv-x="520" 
d="M260 489h-20l34 742q-1 109 45.5 166t114.5 57q85 0 109.5 -73.5t-19.5 -170.5zM174 -12q-59 0 -99 40.5t-40 98.5q0 62 39.5 103.5t99.5 41.5q61 0 102 -41.5t41 -103.5q0 -58 -41 -98.5t-102 -40.5z" />
    <glyph glyph-name="quotedbl" unicode="&#x22;" horiz-adv-x="638" 
d="M289 1092h-4l-23 352q-7 96 30.5 144t94.5 48q76 0 96.5 -59t-22.5 -137zM600 1092h-4l-21 352q-7 96 30.5 144t94.5 48q74 0 95 -59t-21 -137z" />
    <glyph glyph-name="numbersign" unicode="#" horiz-adv-x="1239" 
d="M838 891h-267l-125 -342h269zM1069 549v-119h-264l-162 -450l-119 40l148 410h-269l-161 -450l-119 40l147 410h-196v119h239l123 342h-217v119h260l164 450l119 -43l-148 -407h267l163 450l119 -43l-147 -407h196v-119h-239l-125 -342h221z" />
    <glyph glyph-name="dollar" unicode="$" horiz-adv-x="1054" 
d="M762 274q0 89 -50 154t-145 133l-116 -541q35 -6 63 -6q105 0 176.5 77t71.5 183zM594 877l115 542q-6 2 -23 2h-22q-126 0 -197.5 -70t-71.5 -182q0 -94 51.5 -160.5t147.5 -131.5zM776 1735h41l-61 -283q187 -16 338 -119l-43 -293h-21q-26 155 -100 249.5t-182 121.5
l-119 -559q9 -6 26 -17q43 -28 65 -42.5t60 -43.5t59 -50.5t48 -55.5t40.5 -66.5t23.5 -75t10 -89.5q0 -185 -143.5 -308.5t-358.5 -123.5h-17l-59 -281h-41l59 283q-224 16 -393 151l29 289h20q34 -134 134 -244t221 -147l118 555q-70 48 -151 110q-178 133 -178 336
q0 100 40 181t108.5 133t157 80t187.5 28h23z" />
    <glyph glyph-name="percent" unicode="%" horiz-adv-x="1812" 
d="M559 1370q-62 0 -113 -58t-78.5 -147.5t-27.5 -187.5q0 -184 129 -184q62 0 113.5 57.5t79.5 147t28 188.5q0 184 -131 184zM233 -39l1252 1518h133l-1251 -1518h-134zM465 702q-136 0 -225.5 86t-89.5 228q0 101 36.5 186.5t96.5 140.5t133 85t149 30q136 0 225 -85
t89 -228q0 -101 -37 -187t-96.5 -140.5t-132.5 -85t-148 -30.5zM1292 70q62 0 113.5 58t79.5 147.5t28 187.5q0 186 -131 186q-62 0 -113 -58t-78.5 -147.5t-27.5 -187.5q0 -186 129 -186zM1389 737q135 0 224 -85.5t89 -227.5q0 -101 -37 -187t-96.5 -140.5t-132.5 -84.5
t-148 -30q-137 0 -226 85t-89 228q0 101 37 186.5t96.5 140.5t133 85t149.5 30z" />
    <glyph glyph-name="ampersand" unicode="&#x26;" horiz-adv-x="1509" 
d="M1571 1077q0 -75 -21 -135t-55.5 -102t-88 -75t-110.5 -53.5t-131 -37.5q15 -56 15 -117q0 -84 -28.5 -167t-86 -156.5t-135.5 -130.5t-185.5 -90t-228.5 -33q-223 0 -353 109t-130 284q0 168 127 297t375 200q-105 39 -170.5 110t-65.5 165q0 129 121 219t325 90
q147 0 238.5 -48.5t91.5 -121.5q0 -69 -98 -139q-23 117 -92 197.5t-166 80.5q-90 0 -139.5 -75t-49.5 -181q0 -73 32.5 -146t92.5 -118q92 23 152 23q82 0 82 -47q0 -52 -125 -52q-85 0 -174 25q-144 -61 -215.5 -165t-71.5 -234q0 -165 103 -263t274 -98q147 0 248 70
q101 66 156 171t55 220q0 61 -15 111q-49 -9 -129.5 -21.5t-125.5 -20.5t-94.5 -22.5t-72 -36.5t-22.5 -53q0 -91 184 -141q-8 -52 -42 -82.5t-87 -30.5q-45 0 -76.5 48t-31.5 130q0 111 49 187q38 60 106 106t145.5 72.5t162 46.5t161 34.5t138.5 30.5t98.5 40t36.5 57
q0 56 -49 90.5t-142 56.5q4 56 33.5 85.5t77.5 29.5q58 0 92.5 -50.5t34.5 -142.5z" />
    <glyph glyph-name="quotesingle" unicode="'" horiz-adv-x="325" 
d="M289 1092h-4l-23 352q-7 96 30.5 144t94.5 48q76 0 96.5 -59t-22.5 -137z" />
    <glyph glyph-name="parenleft" unicode="(" horiz-adv-x="722" 
d="M125 393q0 332 173 646.5t460 537.5h135q-151 -132 -265 -294.5t-178 -327.5t-95 -321.5t-31 -305.5q0 -368 182 -617h-131q-122 129 -186 308.5t-64 373.5z" />
    <glyph glyph-name="parenright" unicode=")" horiz-adv-x="722" 
d="M659 895q0 -331 -172.5 -646.5t-459.5 -537.5h-136q152 132 266 294.5t178.5 328t95 322t30.5 305.5q0 366 -180 616h129q122 -129 185.5 -308.5t63.5 -373.5z" />
    <glyph glyph-name="asterisk" unicode="*" horiz-adv-x="1056" 
d="M1118 1196q1 -44 -29.5 -71.5t-84.5 -32.5h-19q-58 0 -165.5 28.5t-147.5 34.5q22 -33 101 -124t104 -148q20 -49 7.5 -90t-53.5 -58q-16 -8 -36 -8q-30 0 -57 21t-44 57q-23 57 -33.5 174t-19.5 158q-19 -27 -78.5 -132.5t-105.5 -148.5q-39 -39 -86 -39q-42 0 -68 29
q-29 32 -23 74t44 79q47 43 156 94t143 72q-42 13 -159.5 32.5t-172.5 47.5q-47 25 -64.5 64t2.5 77q25 52 84 52q28 0 68 -19q55 -28 140.5 -113t115.5 -108q0 42 -7.5 114.5t-10 112.5t7.5 109q10 54 44 80.5t77 15.5q43 -8 62 -45.5t7 -91.5q-8 -47 -33 -97t-60 -108.5
t-52 -97.5q28 8 142.5 51.5t178.5 46.5q54 2 89 -23.5t36 -68.5z" />
    <glyph glyph-name="plus" unicode="+" horiz-adv-x="1177" 
d="M641 1210h145l-81 -381h385l-33 -147h-383l-80 -381h-143l79 381h-385l35 147h381z" />
    <glyph glyph-name="comma" unicode="," horiz-adv-x="436" 
d="M-129 -254l-2 10q102 31 167.5 95t65.5 133q0 93 -122 145q1 64 46 103.5t105 39.5q59 0 100 -40.5t41 -114.5q0 -69 -38.5 -133.5t-99 -110.5t-128.5 -79t-135 -48z" />
    <glyph glyph-name="hyphen" unicode="-" horiz-adv-x="737" 
d="M596 535h-504l45 180h504z" />
    <glyph glyph-name="period" unicode="." horiz-adv-x="423" 
d="M123 -12q-59 0 -99 40.5t-40 98.5q0 62 39.5 103.5t99.5 41.5q61 0 102 -41.5t41 -103.5q0 -58 -41 -98.5t-102 -40.5z" />
    <glyph glyph-name="slash" unicode="/" horiz-adv-x="841" 
d="M1004 1577l-965 -1866h-154l965 1866h154z" />
    <glyph glyph-name="zero" unicode="0" horiz-adv-x="1273" 
d="M530 18q86 0 165.5 74.5t136.5 190t100 266.5q82 294 82 547q0 319 -203 319q-169 0 -303 -264q-86 -174 -134 -399.5t-48 -413.5q0 -320 204 -320zM524 -20q-191 0 -311.5 149t-120.5 385q0 132 35.5 268t102 255.5t154.5 213.5t201 148.5t232 54.5q193 0 311.5 -147
t118.5 -387q0 -202 -79 -401t-214 -337q-196 -202 -430 -202z" />
    <glyph glyph-name="one" unicode="1" horiz-adv-x="763" 
d="M618 0h-675l6 33l76 8q48 6 77 14.5t54 32.5t34 64l211 993q14 66 -3 88t-83 22h-147l6 23l518 176h17l-277 -1302q-12 -57 20 -79.5t101 -31.5l72 -8z" />
    <glyph glyph-name="two" unicode="2" horiz-adv-x="1079" 
d="M813 0h-919l4 20q157 122 279.5 225.5t240 218.5t194.5 214.5t123.5 201.5t46.5 191q0 108 -62 167.5t-167 59.5q-216 0 -348 -215l-12 7q103 180 237 270t289 90q87 0 154 -27t105.5 -72t57.5 -96t19 -106q0 -65 -29 -137t-75 -138.5t-117.5 -141.5t-141.5 -137
t-164 -135t-166.5 -125.5t-166.5 -117.5l2 -4h428q111 0 193.5 53.5t160.5 159.5h20z" />
    <glyph glyph-name="three" unicode="3" horiz-adv-x="1079" 
d="M434 -20q-190 0 -319 71t-129 168q0 85 94 143q31 -64 72.5 -121t93.5 -107t117.5 -79.5t132.5 -29.5q103 0 174 92.5t71 222.5q0 136 -91.5 211.5t-248.5 75.5q-54 0 -127 -13l-6 25q79 39 144.5 76t135.5 87.5t118 101.5t79 114t31 127q0 85 -49 127.5t-137 42.5
q-113 0 -215 -66.5t-172 -171.5l-17 6q93 163 236.5 267t314.5 104q131 0 208 -61t77 -170q0 -60 -26 -115t-67 -99t-105.5 -88t-127 -77.5t-145.5 -71.5v-6q192 5 309 -87t117 -255q0 -124 -74 -226.5t-198.5 -160t-270.5 -57.5z" />
    <glyph glyph-name="four" unicode="4" horiz-adv-x="1144" 
d="M1090 369h-228l-45 -217q-12 -58 13 -80t83 -31l60 -8l-6 -33h-602l6 33l63 8q63 9 97.5 31t46.5 80l45 217h-617l-16 34l809 1031h254v-4l-1008 -1020h586l110 524l256 70l-125 -594h226z" />
    <glyph glyph-name="five" unicode="5" horiz-adv-x="1073" 
d="M1206 1505l-108 -288h-674l-113 -297q197 -6 339.5 -55.5t225 -149.5t82.5 -244q0 -209 -159 -350t-410 -141q-116 0 -212.5 30t-154 84.5t-57.5 122.5q0 41 22 79.5t64 63.5q67 -127 193 -227t250 -100q62 0 111.5 27t79 71.5t45 96.5t15.5 106q0 168 -147 260t-416 98
l283 742h506q166 0 219 71h16z" />
    <glyph glyph-name="six" unicode="6" horiz-adv-x="1169" 
d="M629 780q-156 0 -285 -137q-47 -174 -47 -350q0 -137 55.5 -207t147.5 -70q74 0 139 49.5t107 126.5t66 167.5t24 175.5q0 115 -52.5 180t-154.5 65zM1233 1452v-16q-159 -11 -301 -72.5t-252 -161.5t-192 -230t-130 -282q84 89 191 139t203 50q155 0 250.5 -93.5
t95.5 -253.5q0 -116 -43 -217.5t-119 -175.5t-186 -116.5t-238 -42.5q-88 0 -167 33t-140 93.5t-97 154t-36 206.5q0 144 49 277t134 238t198 192.5t242.5 146t267 92.5t270.5 39z" />
    <glyph glyph-name="seven" unicode="7" horiz-adv-x="1013" 
d="M137 1044l144 390h909v-9l-160 -206l-723 -1219h-291v4l981 1213h-524q-126 0 -193 -37.5t-122 -135.5h-21z" />
    <glyph glyph-name="eight" unicode="8" horiz-adv-x="1193" 
d="M866 279q0 43 -17.5 83t-43.5 70t-69 63.5t-79.5 56t-91 56.5t-88.5 58q-119 -52 -191.5 -147.5t-72.5 -209.5q0 -130 92.5 -211.5t235.5 -81.5q142 0 233.5 76.5t91.5 186.5zM743 821q134 54 205.5 142t71.5 200q0 120 -72.5 186t-191.5 66q-128 0 -213.5 -80
t-85.5 -188q0 -31 9.5 -60.5t20.5 -51.5t38 -49.5t42.5 -42.5t55.5 -43t56.5 -38.5t63.5 -40.5zM1171 1147q0 -124 -103.5 -210.5t-299.5 -131.5q57 -35 95.5 -61.5t83.5 -66.5t72 -78.5t45.5 -91t18.5 -110.5q0 -180 -154.5 -297.5t-398.5 -117.5q-223 0 -364 91t-141 240
q0 93 60 170t153.5 125.5t212.5 73.5q-97 69 -152 151.5t-55 192.5q0 182 144 304t364 122q187 0 303 -83t116 -222z" />
    <glyph glyph-name="nine" unicode="9" horiz-adv-x="1165" 
d="M891 791q47 174 47 350q0 140 -55 208t-148 68q-74 0 -139 -49.5t-107 -126t-66 -167t-24 -175.5q0 -115 52.5 -180.5t154.5 -65.5q155 0 285 138zM723 1454q88 0 167 -33t140 -93.5t97 -154t36 -206.5q0 -144 -49 -277t-134 -238t-198 -192.5t-242.5 -146t-267 -92.5
t-270.5 -39v16q159 11 302 72t253 161t192 230t128 282q-85 -87 -192 -137.5t-202 -50.5q-156 0 -251 93.5t-95 252.5q0 115 43.5 217t120 176t186 117t236.5 43z" />
    <glyph glyph-name="colon" unicode=":" horiz-adv-x="514" 
d="M346 1126q61 0 102 -40.5t41 -98.5q0 -62 -41 -103.5t-102 -41.5q-60 0 -100.5 41.5t-40.5 103.5q0 57 40.5 98t100.5 41zM164 -12q-61 0 -101 40.5t-40 98.5q0 62 40 103.5t101 41.5t101 -41.5t40 -103.5q0 -58 -40 -98.5t-101 -40.5z" />
    <glyph glyph-name="semicolon" unicode=";" horiz-adv-x="522" 
d="M-78 -254l-2 10q103 31 168.5 95t65.5 133q0 93 -123 145q1 64 46 103.5t105 39.5t101 -40.5t41 -114.5q0 -69 -38.5 -133.5t-99.5 -110.5t-129 -79t-135 -48zM338 1126q61 0 101 -40.5t40 -98.5q0 -62 -40 -103.5t-101 -41.5t-101 41.5t-40 103.5q0 58 40 98.5t101 40.5
z" />
    <glyph glyph-name="less" unicode="&#x3c;" horiz-adv-x="876" 
d="M129 741l6 21l735 399l-34 -182l-451 -236l348 -233l-35 -168z" />
    <glyph glyph-name="equal" unicode="=" horiz-adv-x="1200" 
d="M131 535l29 141h911l-31 -141h-909zM193 836l30 143h910l-29 -143h-911z" />
    <glyph glyph-name="greater" unicode="&#x3e;" horiz-adv-x="876" 
d="M821 762l-4 -21l-737 -399l39 184l446 234l-350 235l39 166z" />
    <glyph glyph-name="question" unicode="?" horiz-adv-x="806" 
d="M893 1159q0 -75 -35 -143t-89.5 -117.5t-126.5 -90.5t-141 -66.5t-139 -41.5l-77 -215h-21l62 422q123 26 241 80q113 55 180.5 125t67.5 137q0 51 -31.5 85t-103.5 34q-86 0 -213.5 -52.5t-241.5 -139.5q-26 75 -15 128t58 86.5t110 48.5t140 15q160 0 267.5 -77
t107.5 -218zM197 272q61 0 102 -41.5t41 -103.5q0 -58 -41 -98.5t-102 -40.5q-59 0 -99.5 40.5t-40.5 98.5q0 62 40 103.5t100 41.5z" />
    <glyph glyph-name="at" unicode="@" horiz-adv-x="2093" 
d="M831 152q47 0 106.5 47.5t128.5 144.5t146 269.5t146 396.5q-85 88 -170 88q-78 0 -163.5 -85.5t-149 -208.5t-105 -262t-41.5 -243q0 -147 102 -147zM2077 842q0 -211 -104 -388.5t-312 -295.5q-215 -120 -557 -158l223 815h-2q-81 -225 -166 -390t-167.5 -260.5
t-159.5 -140t-154 -44.5q-103 0 -151 70.5t-48 191.5q0 120 37.5 246.5t108 241.5t163 206t212.5 145t247 54q114 0 223 -50l170 50h5l-267 -996q129 10 228 51.5t164 106t107 156t59.5 194t17.5 227.5q0 294 -198.5 471t-524.5 177q-189 0 -357 -59t-294.5 -165
t-218.5 -247t-139.5 -310t-47.5 -350q0 -385 208.5 -597t598.5 -212q188 0 371.5 51.5t330.5 149.5l21 -29q-142 -99 -333.5 -154t-393.5 -55q-276 0 -483 97.5t-324 291.5t-117 463q0 240 92.5 455t249.5 369t375.5 244.5t460.5 90.5q247 0 438.5 -87t299.5 -250t108 -377z
" />
    <glyph glyph-name="A" unicode="A" horiz-adv-x="1388" 
d="M844 565l-109 703l-383 -703h492zM1282 41l45 -8l-6 -33h-586l8 33l58 8q65 11 89 33t17 71l-57 379h-520l-207 -379q-28 -51 -11 -72.5t97 -31.5l76 -8l-6 -33h-416l6 33l47 8q62 12 94 33.5t58 70.5l704 1289h184l218 -1291q7 -47 30.5 -68.5t77.5 -33.5z" />
    <glyph glyph-name="B" unicode="B" horiz-adv-x="1347" 
d="M518 719l-145 -678h192q202 0 313 112t111 285q0 134 -73 207.5t-197 73.5h-201zM1075 1155q0 115 -65 176.5t-181 61.5h-167l-136 -633h162q190 0 288.5 106t98.5 289zM860 741q175 -17 281 -106t106 -221q0 -197 -164.5 -305.5t-461.5 -108.5h-693l6 33l48 8
q86 14 116.5 35t42.5 76l240 1130q11 56 -11 77.5t-100 33.5l-45 8l6 33h641q204 0 325.5 -89t121.5 -237q0 -165 -125 -258t-334 -109z" />
    <glyph glyph-name="C" unicode="C" horiz-adv-x="1396" 
d="M754 -20q-295 0 -475.5 164.5t-180.5 453.5q0 184 70 345t189 272t279 175t337 64q249 0 487 -135l-47 -326h-20q-19 198 -130.5 313t-283.5 115q-99 0 -188.5 -40.5t-157.5 -109t-123 -157.5t-90 -189t-53.5 -201t-18.5 -194q0 -232 106 -375t283 -143q162 0 312.5 121
t224.5 307h18l-78 -366q-225 -94 -460 -94z" />
    <glyph glyph-name="D" unicode="D" horiz-adv-x="1527" 
d="M666 1393l-287 -1352h192q120 0 225.5 48t183 131t134 192.5t85 235t28.5 255.5q0 223 -100.5 356.5t-284.5 133.5h-176zM225 1401l6 33h609q151 0 275 -45t207 -126t128 -193t45 -245q0 -244 -124 -433t-337.5 -290.5t-480.5 -101.5h-625l6 33l56 8q79 12 109 34.5
t42 76.5l240 1130q11 55 -8.5 79.5t-85.5 31.5z" />
    <glyph glyph-name="E" unicode="E" horiz-adv-x="1271" 
d="M225 1401l6 33h1033l-25 -443l-22 -6q-10 90 -33 161t-63 128t-102 88t-142 31h-215l-138 -641h162q87 0 138 52.5t112 205.5h20l-120 -557h-21q13 102 0.5 159.5t-43 78t-94.5 20.5h-162l-141 -670h241q96 0 171.5 20t146 67.5t131.5 130.5t117 206h22l-162 -465h-1114
l6 33l66 10q63 9 96 30t45 79l240 1130q12 57 -13 79.5t-81 29.5z" />
    <glyph glyph-name="F" unicode="F" horiz-adv-x="1179" 
d="M225 1401l6 33h1037l-27 -443l-24 -6q-38 408 -330 408h-225l-140 -656h170q44 0 75 10.5t61.5 39t57.5 78.5t58 130h21l-117 -557h-21q10 106 -2 162t-44 76t-97 20h-170l-117 -544q-12 -58 20 -80t105 -31l72 -8l-6 -33h-660l6 33l64 8q63 9 97 31t46 80l240 1130
q12 58 -13 80t-83 31z" />
    <glyph glyph-name="G" unicode="G" horiz-adv-x="1490" 
d="M918 637l6 33h579l-6 -33l-65 -10q-62 -12 -87.5 -34t-35.5 -75l-97 -444q-222 -94 -458 -94q-295 0 -475.5 164.5t-180.5 453.5q0 184 70 345t189 272t279 175t337 64q249 0 487 -135l-47 -326h-20q-19 198 -130.5 313t-283.5 115q-99 0 -188.5 -40.5t-157.5 -109
t-123 -157.5t-90 -189t-53.5 -201t-18.5 -194q0 -232 106 -375t283 -143q119 0 242 78l92 428q12 54 -6.5 76.5t-87.5 34.5z" />
    <glyph glyph-name="H" unicode="H" horiz-adv-x="1628" 
d="M1143 1401l6 33h618l-6 -33l-61 -8q-63 -9 -97.5 -31t-46.5 -80l-239 -1130q-12 -58 12.5 -80t83.5 -31l60 -8l-9 -33h-618l6 33l63 8q63 9 97.5 31t46.5 80l121 573h-662l-121 -573q-12 -58 13.5 -80t83.5 -31l59 -8l-6 -33h-619l6 33l64 8q63 9 97 31t46 80l240 1130
q12 58 -13 80t-83 31l-60 8l6 33h619l-6 -33l-64 -8q-61 -9 -96 -31.5t-47 -79.5l-109 -516h660l108 516q16 57 -9.5 79.5t-84.5 31.5z" />
    <glyph glyph-name="I" unicode="I" horiz-adv-x="710" 
d="M547 0h-619l6 33l64 8q63 9 97 31t46 80l240 1130q12 58 -13 80t-83 31l-60 8l6 33h619l-6 -33l-64 -8q-61 -9 -96 -31.5t-47 -79.5l-240 -1130q-12 -58 13.5 -80t83.5 -31l59 -8z" />
    <glyph glyph-name="J" unicode="J" horiz-adv-x="686" 
d="M-199 -389q-74 0 -121 34.5t-47 86.5q0 44 29 89t72 79q53 -98 109.5 -152.5t101.5 -54.5q42 0 75 41.5t46 113.5l305 1434q11 54 -9 76.5t-92 34.5l-57 8l8 33h621l-8 -33l-56 -8q-77 -12 -107 -33.5t-42 -77.5l-240 -1130q-24 -109 -88.5 -211t-147 -173t-176 -114
t-176.5 -43z" />
    <glyph glyph-name="K" unicode="K" horiz-adv-x="1458" 
d="M637 1282l-240 -1130q-11 -58 14 -80t83 -31l59 -8l-6 -33h-619l6 33l64 8q63 9 97 31t46 80l240 1130q11 58 -13.5 80t-82.5 31l-60 8l6 33h619l-6 -33l-64 -8q-61 -9 -96 -31.5t-47 -79.5zM1169 1401l7 33h460l-6 -33l-63 -8q-66 -11 -124 -32.5t-89 -47.5l-496 -434
l483 -867l-2 -12h-286l-412 756l655 559q35 29 21 49.5t-74 28.5z" />
    <glyph glyph-name="L" unicode="L" horiz-adv-x="1198" 
d="M1137 481l18 -4l-166 -477h-1061l6 33l64 8q63 9 97 31t46 80l240 1130q12 58 -13 80t-83 31l-60 8l6 33h619l-6 -33l-64 -8q-61 -9 -96 -31.5t-47 -79.5l-262 -1241h258q164 0 279.5 106t224.5 334z" />
    <glyph glyph-name="M" unicode="M" horiz-adv-x="1830" 
d="M858 258l612 1176h428l-8 -33l-61 -8q-61 -9 -93.5 -31.5t-37.5 -79.5l-121 -1130q-7 -58 21 -80t88 -31l59 -8l-8 -33h-619l6 33l64 8q62 9 93.5 31t37.5 80l117 1116l-656 -1268h-159l-115 1245l-346 -1093q-19 -58 7.5 -80t92.5 -31l68 -8l-6 -33h-455l6 33l68 8
q70 9 109.5 31t58.5 80l358 1130q19 58 -6.5 80t-89.5 31l-64 8l6 33h430z" />
    <glyph glyph-name="N" unicode="N" horiz-adv-x="1529" 
d="M1239 1401l6 33h445l-7 -33l-69 -8q-68 -9 -105.5 -31.5t-48.5 -79.5l-272 -1282h-172l-586 1274l-237 -1122q-12 -58 15.5 -80t92.5 -31l64 -8l-7 -33h-444l6 33l70 8q67 9 105 31t50 80l238 1130q12 58 -11.5 80t-78.5 31l-60 8l9 33h391l561 -1176l217 1024
q12 58 -15.5 80t-90.5 31z" />
    <glyph glyph-name="O" unicode="O" horiz-adv-x="1454" 
d="M625 12q104 0 196.5 65t158 170.5t113 238t70.5 270t23 264.5q0 196 -74.5 298.5t-212.5 102.5q-102 0 -193.5 -65t-157 -171t-114 -238t-72.5 -269t-24 -262q0 -196 75.5 -300t211.5 -104zM903 1454q244 0 387.5 -152.5t143.5 -406.5q0 -174 -63.5 -340.5t-170.5 -293
t-259.5 -204t-319.5 -77.5q-242 0 -386.5 154t-144.5 407q0 112 27 223.5t77 212.5t123.5 188.5t161.5 151.5t197.5 100.5t226.5 36.5z" />
    <glyph glyph-name="P" unicode="P" horiz-adv-x="1280" 
d="M662 1397l-164 -770h159q203 0 314.5 130.5t111.5 350.5q0 133 -71 211t-193 78h-157zM225 1401l6 33h592q238 0 379 -103.5t141 -273.5q0 -224 -180 -345.5t-495 -121.5h-176l-95 -438q-12 -56 19 -77.5t133 -33.5l63 -8l-6 -33h-678l6 33l64 10q73 10 102 32.5t41 76.5
l240 1130q11 56 -10 77.5t-99 33.5z" />
    <glyph glyph-name="Q" unicode="Q" horiz-adv-x="1454" 
d="M625 12q104 0 196.5 65t158 170.5t113 238t70.5 270t23 264.5q0 196 -74.5 298.5t-212.5 102.5q-102 0 -193.5 -65t-157 -171t-114 -238t-72.5 -269t-24 -262q0 -196 75.5 -300t211.5 -104zM903 1454q244 0 387.5 -152.5t143.5 -406.5q0 -174 -63.5 -340.5t-170.5 -293
t-259.5 -204t-319.5 -77.5q-242 0 -386.5 154t-144.5 407q0 112 27 223.5t77 212.5t123.5 188.5t161.5 151.5t197.5 100.5t226.5 36.5zM279 -336q-32 -12 -76 -12q-50 0 -79.5 25t-29.5 69q0 80 84.5 138.5t181.5 58.5q131 0 293 -123q46 -34 124 -100.5t123 -98t75 -31.5
q82 0 49 110q-21 69 -80 159q48 20 84 20q51 0 84 -29.5t33 -80.5q0 -103 -92 -187t-222 -84q-62 0 -133 40.5t-132.5 98t-117.5 115.5t-106 98.5t-82 40.5q-50 0 -36 -84q12 -73 55 -143z" />
    <glyph glyph-name="R" unicode="R" horiz-adv-x="1386" 
d="M659 1393l-155 -736h158q199 0 311 129.5t112 333.5q0 124 -77 198.5t-205 74.5h-144zM1341 1044q0 -149 -109 -253t-298 -148l366 -631l-4 -12h-270l-324 616h-206l-99 -464q-12 -56 9 -77.5t92 -33.5l55 -8l-6 -33h-619l6 33l52 8q83 14 113 35t42 76l240 1130
q11 54 -8 75.5t-88 33.5l-60 10l6 33h580q242 0 386 -107t144 -283z" />
    <glyph glyph-name="S" unicode="S" horiz-adv-x="1085" 
d="M473 -20q-121 0 -240 39.5t-210 113.5l28 289h19q43 -165 176.5 -286.5t279.5 -121.5q106 0 178 77t72 183q0 54 -19.5 100.5t-52 82t-74.5 68.5t-89 63.5t-93.5 62.5t-88.5 70t-74.5 81.5t-52 102.5t-19.5 127q0 102 42 184t112.5 133t159 78t184.5 27q213 0 397 -121
l-43 -293h-21q-31 186 -129.5 283.5t-238.5 97.5q-125 0 -196.5 -70.5t-71.5 -181.5q0 -69 31 -127t81 -99.5t110 -81t120.5 -82t110.5 -91t81 -119.5t31 -157q0 -184 -143.5 -308t-356.5 -124z" />
    <glyph glyph-name="T" unicode="T" horiz-adv-x="1376" 
d="M119 975l164 459h1183l-30 -459l-23 -2q-47 420 -317 420h-99l-264 -1241q-12 -57 25 -79.5t119 -31.5l84 -8l-7 -33h-766l9 33l86 8q42 4 69.5 10t55.5 17.5t44 32.5t23 51l264 1241h-102q-270 0 -496 -420z" />
    <glyph glyph-name="U" unicode="U" horiz-adv-x="1460" 
d="M674 -20q-125 0 -228 37t-171.5 106t-95.5 169t1 226l162 764q12 58 -10 80t-76 31l-53 8l6 33h604l-8 -33l-62 -8q-61 -9 -95.5 -31.5t-45.5 -79.5l-168 -782q-21 -105 -4 -187t64.5 -139t121.5 -87t166 -30q175 0 274 112.5t144 328.5l168 784q12 58 -15.5 80t-90.5 31
l-64 8l6 33h441l-7 -33l-69 -8q-67 -9 -104.5 -31t-49.5 -80l-166 -784q-109 -518 -575 -518z" />
    <glyph glyph-name="V" unicode="V" horiz-adv-x="1333" 
d="M1151 1401l6 33h393l-6 -33l-39 -8q-27 -6 -44 -13t-42 -30t-47 -60l-737 -1290h-148l-239 1290q-11 54 -29 74t-47 29l-29 8l7 33h540l-6 -33l-61 -8q-62 -9 -86 -28.5t-17 -74.5l187 -1065l612 1065q16 29 17 48t-14.5 30t-36 16t-58.5 9z" />
    <glyph glyph-name="W" unicode="W" horiz-adv-x="2033" 
d="M1837 1401l6 33h420l-6 -33l-49 -8q-23 -5 -39 -10t-36.5 -16t-38 -31.5t-32.5 -49.5l-641 -1286h-178l-135 1182l-553 -1182h-182l-115 1286q-3 38 -14.5 61.5t-23 31.5t-30.5 14l-26 8l6 33h537l-7 -33l-61 -8q-61 -8 -88 -29.5t-23 -77.5l64 -1091l582 1239h172
l120 -1252l547 1104q27 56 1 77.5t-101 29.5z" />
    <glyph glyph-name="X" unicode="X" horiz-adv-x="1431" 
d="M1083 1401l7 33h479l-6 -33l-58 -8q-133 -22 -194 -88l-453 -484l311 -688q21 -65 129 -92l43 -8l-6 -33h-598l6 33l62 8q60 8 80 26.5t-2 65.5l-230 510l-475 -514q-22 -25 -25.5 -41t13 -25t38 -13.5t64.5 -8.5l88 -8l-6 -33h-481l8 33l53 8q131 22 189 88l516 557
l-277 614q-27 70 -129 93l-43 8l7 33h598l-9 -33l-61 -8q-24 -3 -37.5 -6.5t-27.5 -10t-19 -15.5t-4 -24.5t10 -36.5l197 -436l413 441q23 24 27 40t-12 25.5t-37.5 14t-61.5 8.5z" />
    <glyph glyph-name="Y" unicode="Y" horiz-adv-x="1325" 
d="M1114 1401l8 33h410l-6 -33l-43 -8q-57 -12 -92.5 -33.5t-67.5 -63.5l-506 -665l-100 -479q-12 -58 15.5 -80t92.5 -31l64 -8l-6 -33h-654l7 33l69 8q68 9 106 31.5t50 79.5l100 477l-285 671q-27 72 -96 93l-26 8l6 33h557l-6 -33l-72 -8q-60 -7 -79.5 -25t-0.5 -68
l250 -604l461 600q20 27 23.5 45t-11.5 28t-35.5 15t-58.5 9z" />
    <glyph glyph-name="Z" unicode="Z" horiz-adv-x="1265" 
d="M338 1434h1044l-4 -25l-1112 -1368h303q103 0 184 26.5t153.5 87t135 146.5t134.5 217h20l-197 -518h-1081l4 25l1120 1368h-303q-153 0 -274.5 -93.5t-269.5 -324.5l-21 2z" />
    <glyph glyph-name="bracketleft" unicode="[" horiz-adv-x="667" 
d="M532 1376l-311 -1460q-6 -24 -6 -39q0 -18 5 -31.5t19 -22.5t28 -14.5t42.5 -9.5t51 -6t65.5 -4l-16 -78h-408l397 1866h406l-17 -78q-50 -3 -76 -5.5t-58 -7.5t-48 -12.5t-33.5 -20.5t-26 -31.5t-14.5 -45.5z" />
    <glyph glyph-name="backslash" unicode="\" horiz-adv-x="841" 
d="M504 -289l-174 1866h145l174 -1866h-145z" />
    <glyph glyph-name="bracketright" unicode="]" horiz-adv-x="667" 
d="M186 -88l314 1460q4 32 4 39q0 27 -12 43t-40 24.5t-62.5 12.5t-91.5 8h-5l18 78h406l-398 -1866h-405l16 78q50 3 76 5.5t58 7.5t48 12.5t33.5 20.5t26 31.5t14.5 45.5z" />
    <glyph glyph-name="asciicircum" unicode="^" horiz-adv-x="962" 
d="M616 1577h177l186 -594h-158l-137 453l-326 -453h-178z" />
    <glyph glyph-name="underscore" unicode="_" horiz-adv-x="901" 
d="M721 -276h-817l26 141h820z" />
    <glyph glyph-name="grave" unicode="`" 
d="M797 1210h-11l-337 322v4h307z" />
    <glyph glyph-name="a" unicode="a" horiz-adv-x="1234" 
d="M365 152q47 0 106.5 47.5t129 144.5t146.5 269.5t146 396.5q-88 88 -172 88q-78 0 -163.5 -85.5t-149 -208.5t-105 -262t-41.5 -243q0 -147 103 -147zM1198 424l25 -14q-114 -203 -234 -316.5t-225 -113.5q-59 0 -83.5 41t-4.5 120l184 674h-2q-81 -225 -165.5 -390
t-166.5 -260.5t-159 -140t-154 -44.5q-105 0 -153 70.5t-48 191.5q0 120 37.5 246.5t108 241.5t163 206t212.5 145t247 54q112 0 226 -50l168 50h4l-281 -1055q68 43 147.5 133.5t153.5 210.5z" />
    <glyph glyph-name="b" unicode="b" horiz-adv-x="1148" 
d="M428 16q78 0 163.5 85.5t149.5 208.5t106 262t42 243q0 148 -105 148q-37 0 -81.5 -28.5t-99.5 -94t-110.5 -162.5t-117 -245t-117.5 -329q85 -88 170 -88zM938 1135q105 0 153 -71t48 -192q0 -126 -39 -255.5t-110.5 -242.5t-165.5 -202t-212.5 -140.5t-242.5 -51.5
q-166 0 -351 116l357 1334l-115 104v4l410 121h4l-326 -1208q146 359 295.5 521.5t294.5 162.5z" />
    <glyph glyph-name="c" unicode="c" horiz-adv-x="954" 
d="M367 -20q-154 0 -236 113.5t-82 293.5q0 106 28.5 213.5t84 203t130.5 170t176 118t212 43.5q143 0 217 -62t74 -147q0 -70 -48.5 -124t-131.5 -61q8 172 -29.5 262.5t-118.5 90.5q-91 0 -174.5 -101t-131.5 -253t-48 -302q0 -143 48.5 -230t147.5 -87q95 0 195 81
t174 222l23 -14q-93 -203 -224 -316.5t-286 -113.5z" />
    <glyph glyph-name="d" unicode="d" horiz-adv-x="1222" 
d="M365 152q47 0 106.5 47.5t129 144.5t146.5 269.5t146 396.5q-88 88 -172 88q-78 0 -163.5 -85.5t-149 -208.5t-105 -262t-41.5 -243q0 -147 103 -147zM1133 1018l-3 -2l-249 -936q69 44 149 134t154 210l22 -14q-114 -205 -232.5 -317.5t-225.5 -112.5q-59 0 -84 41
t-5 114l142 529q-73 -184 -150.5 -318.5t-152 -213t-145 -115.5t-140.5 -37q-105 0 -153 70.5t-48 191.5q0 99 27 204.5t75 204.5t118.5 187.5t153 154t183.5 104t205 38.5q67 0 148 -19l84 314l-117 104v4l409 121h5l-173 -641h3z" />
    <glyph glyph-name="e" unicode="e" horiz-adv-x="944" 
d="M666 1094q-79 0 -157.5 -80.5t-134.5 -203.5t-81 -259q121 34 214.5 88t145.5 113.5t77.5 116.5t25.5 108q0 54 -24.5 85.5t-65.5 31.5zM471 121q97 0 199 81t184 222l23 -14q-100 -202 -238.5 -316t-294.5 -114q-150 0 -227.5 103.5t-77.5 272.5q0 108 31 219t90.5 211
t138.5 178.5t182.5 124.5t214.5 46q120 0 187 -51t67 -132q0 -48 -23.5 -97.5t-76 -100.5t-128 -94.5t-187.5 -79.5t-246 -56q-1 -15 -4.5 -55.5t-3.5 -62.5q0 -130 47.5 -207.5t142.5 -77.5z" />
    <glyph glyph-name="f" unicode="f" horiz-adv-x="620" 
d="M893 1642q93 0 142.5 -35t49.5 -89q0 -42 -33.5 -85t-103.5 -73q-18 100 -66 153.5t-110 53.5q-47 0 -78.5 -41t-60.5 -140l-78 -272h229l-10 -41h-231l-242 -897q-44 -174 -143 -305q-96 -125 -211.5 -192.5t-229.5 -67.5q-94 0 -144 35.5t-50 89.5q0 99 137 158
q19 -99 70.5 -153t124.5 -54q53 0 86.5 77t99.5 324l264 985h-151l10 41l162 19q51 158 146 276t203.5 175.5t217.5 57.5z" />
    <glyph glyph-name="g" unicode="g" horiz-adv-x="1103" 
d="M532 485q80 0 145.5 58.5t101.5 154t36 205.5q0 85 -49.5 141t-126.5 56q-123 0 -207 -123.5t-84 -290.5q0 -88 51.5 -144.5t132.5 -56.5zM588 -43l-279 100q-16 6 -39.5 17t-29.5 14q-105 -27 -168.5 -86t-63.5 -135q0 -98 92.5 -157.5t255.5 -59.5q166 0 272.5 54
t106.5 134q0 66 -147 119zM1067 1339q60 0 89 -39.5t17 -91.5t-59 -86q-91 62 -147 62q-68 0 -129 -86q98 -37 154.5 -108t56.5 -161q0 -84 -31 -149t-81.5 -104t-115 -68t-132 -42.5t-132 -26.5t-115 -21.5t-81.5 -24.5t-31 -39q0 -21 25 -38.5t91 -41.5l275 -102
q111 -41 162 -92.5t51 -118.5q0 -151 -171 -250.5t-454 -99.5q-137 0 -250.5 28t-181 80.5t-67.5 120.5q0 93 115 164t294 96q-88 57 -88 138q0 161 354 219q-164 14 -264 96t-100 205q0 165 140.5 271t359.5 106q100 0 192 -29q73 132 133 182.5t121 50.5z" />
    <glyph glyph-name="h" unicode="h" 
d="M1196 424l23 -14q-114 -204 -233 -317t-226 -113q-58 0 -83 41t-5 114l192 715q35 121 -57 121q-84 0 -187 -122t-205 -345t-179 -504h-236l383 1430l-117 104v4l410 121h4l-320 -1192q129 317 283.5 492.5t312.5 175.5q93 0 136.5 -69t13.5 -179l-213 -807
q69 44 149 134t154 210z" />
    <glyph glyph-name="i" unicode="i" horiz-adv-x="667" 
d="M565 979l-241 -901q69 45 149.5 136t153.5 210l24 -14q-114 -203 -233.5 -316.5t-224.5 -113.5q-59 0 -85 41t-6 114l240 901q-69 -46 -148.5 -136.5t-152.5 -209.5l-23 15q117 204 236 317t223 113q59 0 83.5 -40t4.5 -116zM530 1253q-59 0 -99 40t-40 98
q0 60 39.5 99.5t99.5 39.5q61 0 100.5 -39.5t39.5 -99.5q0 -58 -39.5 -98t-100.5 -40z" />
    <glyph glyph-name="j" unicode="j" horiz-adv-x="593" 
d="M477 1135q59 0 83.5 -40t4.5 -116l-213 -803q-36 -131 -101 -239.5t-144.5 -178.5t-166.5 -108.5t-171 -38.5q-94 0 -144.5 35.5t-50.5 89.5q0 99 137 158q19 -99 69.5 -153t123.5 -54q20 0 35 7t30.5 30t27 47t28 78t30 101.5t37.5 137.5l252 948q-70 -46 -150 -136.5
t-153 -209.5l-23 15q117 204 236 317t223 113zM537 1530q60 0 99.5 -39.5t39.5 -99.5q0 -58 -40 -98t-99 -40q-61 0 -101.5 40t-40.5 98q0 60 40.5 99.5t101.5 39.5z" />
    <glyph glyph-name="k" unicode="k" horiz-adv-x="1183" 
d="M729 565l105 -489q158 111 303 348l22 -14q-114 -204 -233 -317t-226 -113q-54 0 -79 31.5t-43 115.5l-64 350q406 238 406 445q0 71 -74 71q-154 0 -319 -268t-291 -725h-236l383 1430l-117 104v4l410 121h4l-305 -1143q137 302 301.5 459.5t329.5 157.5q78 0 120.5 -33
t42.5 -94q0 -98 -115 -213t-325 -228z" />
    <glyph glyph-name="l" unicode="l" horiz-adv-x="600" 
d="M680 1659l-424 -1581q72 50 152.5 140t150.5 206l23 -14q-114 -203 -233 -316.5t-224 -113.5q-59 0 -84.5 41t-5.5 114l346 1295l-117 104l2 4l410 121h4z" />
    <glyph glyph-name="m" unicode="m" horiz-adv-x="1931" 
d="M1898 424l23 -14q-114 -203 -233 -316.5t-224 -113.5q-59 0 -84.5 41t-5.5 114l193 715q17 60 2 90.5t-60 30.5q-85 0 -187.5 -122t-204.5 -345.5t-177 -503.5h-238l230 850q17 60 2 90.5t-60 30.5q-84 0 -187 -122t-205 -345t-179 -504h-235l276 1036
q-70 -46 -150 -136.5t-153 -209.5l-23 15q117 204 236 317t223 113q59 0 83.5 -40t4.5 -116l-135 -508q130 314 283.5 489t310.5 175q92 0 135.5 -68.5t14.5 -179.5l-117 -436q131 322 288 503t314 181q92 0 136 -68.5t15 -179.5l-215 -811q72 51 152.5 141t150.5 207z" />
    <glyph glyph-name="n" unicode="n" horiz-adv-x="1296" 
d="M1264 424l24 -14q-114 -203 -234 -316.5t-225 -113.5q-59 0 -84.5 41t-5.5 114l193 715q17 60 2 90.5t-60 30.5q-61 0 -136.5 -72t-151.5 -197.5t-150.5 -308.5t-130.5 -393h-237l278 1040q-70 -46 -151 -137.5t-154 -212.5l-23 15q114 203 233 316.5t224 113.5
q61 0 85.5 -40t4.5 -116l-137 -518q33 80 69.5 156.5t96.5 175t122 170t144 122t164 50.5q93 0 137 -68.5t15 -179.5l-215 -809q69 46 150 137t153 209z" />
    <glyph glyph-name="o" unicode="o" horiz-adv-x="1138" 
d="M682 1135q186 0 297 -120t111 -315q0 -183 -82.5 -348t-230 -268.5t-322.5 -103.5q-185 0 -294.5 119t-109.5 315q0 184 83 350t229.5 268.5t318.5 102.5zM455 14q71 0 136 55.5t112 144t82.5 197t53 216.5t17.5 200q0 132 -43.5 202.5t-128.5 70.5q-71 0 -136 -55.5
t-112 -144.5t-82.5 -197.5t-53 -217t-17.5 -200.5q0 -131 44 -201t128 -70z" />
    <glyph glyph-name="p" unicode="p" horiz-adv-x="1222" 
d="M504 16q78 0 163.5 85.5t149 208.5t105 262t41.5 243q0 148 -103 148q-60 0 -145 -82q-199 -189 -383 -775v-2q88 -88 172 -88zM1012 1135q104 0 152 -71t48 -192q0 -118 -37 -244t-107 -241t-161.5 -206.5t-210 -146t-243.5 -54.5q-73 0 -150 18l-57 -215
q-17 -58 10 -80t117 -33l45 -6l-8 -33h-580l6 33l41 6q66 14 92 36t39 77l338 1255q-70 -45 -150.5 -136t-154.5 -212l-23 15q117 204 236 317t223 113q59 0 83.5 -40t4.5 -116l-141 -526q146 359 294.5 520.5t293.5 161.5z" />
    <glyph glyph-name="q" unicode="q" horiz-adv-x="1153" 
d="M365 152q47 0 106.5 47.5t129 144.5t146.5 269.5t146 396.5q-88 88 -172 88q-78 0 -163.5 -85.5t-149 -208.5t-105 -262t-41.5 -243q0 -147 103 -147zM1155 1135h10l-364 -1352q-13 -57 -1 -78t64 -33l31 -8l-8 -33h-543l8 33l62 10q76 12 107 34t44 75l238 887
q-143 -361 -293.5 -525.5t-296.5 -164.5q-105 0 -153 70.5t-48 191.5q0 99 27 204.5t75 204.5t118 187t153 154t184 104.5t205 38.5q111 0 221 -45z" />
    <glyph glyph-name="r" unicode="r" horiz-adv-x="886" 
d="M895 1133q65 0 90.5 -39.5t10.5 -98t-62 -118.5q-87 69 -162 69q-56 0 -123 -88q-141 -183 -346 -858h-237l280 1038q-68 -46 -148.5 -136.5t-156.5 -211.5l-23 15q117 204 236 317t223 113q59 0 83.5 -40t4.5 -116l-125 -469q244 623 455 623z" />
    <glyph glyph-name="s" unicode="s" horiz-adv-x="849" 
d="M276 -20q-142 0 -227.5 61t-85.5 147q0 49 30 92.5t85 67.5q31 -141 108 -227t193 -86q73 0 125.5 44t52.5 107q0 40 -21.5 80.5t-56.5 76t-76.5 72.5t-83.5 77.5t-77 83.5t-56.5 97.5t-21.5 112.5q0 146 108 247.5t287 101.5q143 0 223 -54.5t80 -128.5q0 -46 -35 -89.5
t-98 -67.5q0 68 -27 134.5t-84 113.5t-131 47q-77 0 -124.5 -49t-47.5 -119q0 -57 36.5 -109.5t105.5 -114.5q6 -6 44 -41t48 -44.5t41.5 -41.5t42.5 -47.5t32 -45.5t29 -52t15.5 -51t7.5 -58q0 -63 -29 -122t-83 -107.5t-139.5 -78t-189.5 -29.5z" />
    <glyph glyph-name="t" unicode="t" horiz-adv-x="718" 
d="M838 1114l-11 -41h-278l-270 -1030q169 71 378 381l23 -14q-123 -204 -247.5 -317t-231.5 -113q-80 0 -116.5 48t-8.5 148l235 897h-168l4 21l447 239h27l-60 -219h277z" />
    <glyph glyph-name="u" unicode="u" horiz-adv-x="1298" 
d="M1260 424l22 -14q-114 -203 -233 -316.5t-224 -113.5q-59 0 -84.5 41t-5.5 114l137 518q-26 -65 -56 -127.5t-74 -144t-94.5 -148.5t-108.5 -126.5t-126 -93t-137 -33.5q-92 0 -136 68t-15 179l215 809q-69 -46 -150 -137t-153 -209l-25 15q117 204 236 317t223 113
q63 0 87 -42t1 -120l-190 -709q-35 -121 57 -121q61 0 136.5 72t151.5 197.5t150.5 308.5t130.5 393h238l-279 -1040q73 51 154 141.5t152 208.5z" />
    <glyph glyph-name="v" unicode="v" horiz-adv-x="1097" 
d="M924 1126q83 0 124.5 -59t41.5 -160q0 -84 -27.5 -185t-77 -204t-124 -200t-161 -172t-196.5 -120.5t-223 -45.5q-96 0 -130 64.5t-6 166.5l217 823q-68 -43 -147.5 -133.5t-153.5 -210.5l-24 15q117 204 236 317t223 113q61 0 85.5 -40t4.5 -116l-219 -817
q-16 -54 -5 -78.5t58 -24.5q39 0 101.5 28t133 77.5t138.5 131t106 175.5q120 287 -86 629q53 26 111 26z" />
    <glyph glyph-name="w" unicode="w" horiz-adv-x="1738" 
d="M1565 1126q85 0 126.5 -59t41.5 -160q0 -84 -28.5 -185t-78.5 -204t-125.5 -200t-163.5 -172t-198.5 -120.5t-223.5 -45.5q-96 0 -129.5 64.5t-5.5 166.5l117 438q-22 -54 -46.5 -107.5t-61 -122t-74.5 -128t-87 -118t-99 -100t-109.5 -67.5t-118.5 -26q-92 0 -136 68
t-15 179l215 807q-70 -43 -150 -133.5t-154 -210.5l-22 15q114 203 233 316.5t224 113.5q61 0 85.5 -40t4.5 -116l-193 -715q-17 -60 -2 -90.5t60 -30.5q85 0 187.5 122t204.5 345.5t177 503.5h237l-256 -952q-16 -54 -4.5 -78.5t60.5 -24.5q64 0 174.5 63t200.5 171
q60 70 97 151.5t49.5 182.5t-17.5 223t-105 252q56 24 109 24z" />
    <glyph glyph-name="x" unicode="x" horiz-adv-x="1114" 
d="M1100 1133q58 0 89.5 -30t31.5 -79q0 -78 -78 -147q-85 69 -156 69q-63 0 -144 -90.5t-175 -298.5l41 -481q71 42 153.5 134t155.5 214l24 -14q-114 -203 -233.5 -316.5t-224.5 -113.5q-102 0 -115 147l-27 313q-52 -110 -105 -195t-96 -134t-85.5 -79.5t-73 -41
t-57.5 -10.5q-55 0 -87 32.5t-32 79.5q0 84 74 146q86 -70 157 -70q60 0 138.5 81.5t160.5 254.5l-45 534q-68 -38 -149 -129.5t-160 -218.5l-25 15q117 204 236 317t223 113q50 0 79 -33.5t36 -114.5l31 -369q55 125 110.5 220.5t100.5 150t89.5 88.5t76 45t61.5 11z" />
    <glyph glyph-name="y" unicode="y" horiz-adv-x="1198" 
d="M989 1126q88 0 132 -61t44 -168q0 -139 -47.5 -291.5t-129.5 -293.5t-196 -269.5t-242 -223.5t-274.5 -151.5t-285.5 -56.5q-125 0 -200 48.5t-75 139.5q0 73 45 121q185 -168 418 -168q134 0 271 62l-115 1224q-142 -85 -307 -348l-25 15q117 204 236 317t223 113
q55 0 82.5 -35t34.5 -121l92 -1014q142 133 225.5 314.5t83.5 369.5q0 133 -27 238.5t-82 212.5q62 26 119 26z" />
    <glyph glyph-name="z" unicode="z" horiz-adv-x="1001" 
d="M946 1130q36 0 60 -16.5t30 -42.5t-13.5 -63.5t-64.5 -75.5l-647 -533l297 -321q158 91 314 348l22 -16q-115 -206 -229.5 -318t-218.5 -112q-69 0 -154.5 57t-224.5 196q-38 -44 -48.5 -99.5t3.5 -143.5q-27 -8 -56 -8q-41 0 -69 22q-37 30 -23.5 80t74.5 102l692 572
l-262 278q-143 -82 -311 -346l-23 15q115 205 230 317.5t219 112.5q69 0 143.5 -45.5t179.5 -153.5q52 92 29 184q27 10 51 10z" />
    <glyph glyph-name="braceleft" unicode="{" horiz-adv-x="731" 
d="M125 623l8 45q178 36 215 204l94 443q27 124 136 193t290 69l-14 -64q-85 -10 -147 -57.5t-82 -142.5l-95 -439q-23 -102 -72.5 -150t-160.5 -79q78 -26 111.5 -59t33.5 -94q0 -42 -54 -282.5t-54 -287.5q0 -67 42 -103t109 -44l-14 -64q-154 0 -237.5 54.5t-83.5 152.5
q0 48 54 280t54 279q0 119 -133 146z" />
    <glyph glyph-name="bar" unicode="|" horiz-adv-x="555" 
d="M586 1577l-400 -1866h-143l399 1866h144z" />
    <glyph glyph-name="braceright" unicode="}" horiz-adv-x="731" 
d="M657 666l-8 -45q-177 -35 -215 -205l-92 -443q-27 -124 -136.5 -193t-291.5 -69l14 64q85 10 147.5 57.5t82.5 142.5l94 439q23 102 72.5 150t160.5 79q-78 26 -111.5 59.5t-33.5 94.5q0 42 55.5 282t55.5 287q0 67 -43 103t-111 44l14 64q154 0 239 -55t85 -152
q0 -48 -54.5 -279.5t-54.5 -279.5q0 -118 131 -145z" />
    <glyph glyph-name="asciitilde" unicode="~" horiz-adv-x="1089" 
d="M920 854l92 -20q-47 -151 -118 -220t-173 -69q-42 0 -92 19t-88.5 42.5t-84.5 42.5t-81 19q-51 0 -84 -25t-70 -90l-94 20q46 151 118 220t175 69q41 0 91 -19t88.5 -42.5t85 -42.5t81.5 -19q50 0 83.5 25.5t70.5 89.5z" />
    <glyph glyph-name="uni00A0" unicode="&#xa0;" horiz-adv-x="428" 
 />
    <glyph glyph-name="exclamdown" unicode="&#xa1;" horiz-adv-x="493" 
d="M244 625h20l-33 -742q0 -109 -45.5 -166t-113.5 -57q-85 0 -108 73.5t18 170.5zM330 1126q60 0 100.5 -41t40.5 -98q0 -62 -40.5 -103.5t-100.5 -41.5q-61 0 -102.5 41.5t-41.5 103.5q0 58 41.5 98.5t102.5 40.5z" />
    <glyph glyph-name="cent" unicode="&#xa2;" horiz-adv-x="1005" 
d="M346 606q0 -118 34 -200t103 -107l205 963q-90 -8 -170 -110t-126 -250.5t-46 -295.5zM1028 1094q0 -70 -48.5 -124t-131.5 -61q8 156 -23 247t-98 104l-205 -969q2 -2 10 -2h11q95 0 194.5 81t173.5 222l23 -14q-80 -179 -194 -289t-246 -135l-64 -299h-41l62 292h-27
q-154 0 -236 114t-82 294q0 130 42.5 258t117 233t187.5 174.5t243 79.5l64 302h41l-64 -299q143 0 217 -62t74 -147z" />
    <glyph glyph-name="sterling" unicode="&#xa3;" horiz-adv-x="1292" 
d="M358 213h461q116 0 215 56.5t170 156.5h25l-219 -426h-975l4 20q222 123 332 281q90 127 43 254h-324l10 41h295q-7 16 -24 50t-30.5 64.5t-23.5 59.5h-182l8 41h164q-16 62 -16 123q0 122 43.5 221t119 164t178 100t220.5 35q109 0 214.5 -27t184.5 -79l-67 -322h-21
q-16 167 -106 277t-242 110q-140 0 -221.5 -93t-81.5 -230q0 -46 15.5 -101.5t27.5 -83.5t43 -94h483l-8 -41h-459q39 -86 39 -164v-10h383l-8 -41h-379q-24 -203 -291 -342z" />
    <glyph glyph-name="currency" unicode="&#xa4;" horiz-adv-x="1253" 
d="M346 719q0 -136 85 -220.5t222 -84.5q139 0 223 84t82 221q0 137 -84 221t-221 84t-222 -84.5t-85 -220.5zM999 719q0 -146 -81 -236l237 -235l-31 -29l-235 236q-91 -82 -236 -82q-141 0 -233 80l-234 -234l-30 29l233 231q-84 104 -84 240q0 141 84 237l-233 232l30 29
l232 -232q92 80 235 80t238 -82l233 234l31 -29l-235 -234q79 -91 79 -235z" />
    <glyph glyph-name="yen" unicode="&#xa5;" horiz-adv-x="1380" 
d="M1094 1401l6 33h430l-6 -33l-51 -8q-54 -9 -93.5 -29t-76.5 -70l-443 -620h373l-8 -41h-391l-48 -221h392l-11 -41h-389l-47 -219q-12 -58 15.5 -80t91.5 -31l65 -8l-6 -33h-653l6 33l67 8q70 9 107.5 31t48.5 80l47 219h-393l8 41h393l47 221h-391l9 41h370l-233 624
q-27 71 -92 95l-29 8l8 33h537l-6 -33l-64 -8q-59 -9 -80 -27t-2 -68l217 -606l432 602q20 27 23.5 45t-11.5 28.5t-36 16t-58 9.5z" />
    <glyph glyph-name="brokenbar" unicode="&#xa6;" horiz-adv-x="419" 
d="M66 -240h-48l158 744h47zM297 854h-47l158 743h47z" />
    <glyph glyph-name="section" unicode="&#xa7;" horiz-adv-x="1384" 
d="M889 -104q90 38 142 112t52 176q0 41 -19 88.5t-41.5 83.5t-72.5 93t-78 85.5t-92 92.5q-72 71 -115 117.5t-93 110t-73.5 121t-23.5 111.5q0 37 10 82q-88 -38 -140 -112t-52 -176q0 -123 158 -291q41 -45 115 -119t123.5 -126.5t102.5 -118t80 -128t27 -121.5
q0 -36 -10 -81zM1278 354q0 -156 -115 -293t-282 -194q-43 -112 -158 -184t-270 -72q-102 0 -161 37.5t-59 91.5q0 80 115 125q20 -87 76.5 -142t140.5 -55q66 0 104 46t38 120q0 18 -5 38t-11.5 37t-21 40t-25 39t-33 41.5t-35.5 40.5t-41 43.5t-41.5 41.5t-45.5 44.5
t-45 44.5q-68 65 -114.5 114.5t-94 112t-72 123t-24.5 117.5q0 158 115 293.5t281 193.5q43 112 158 184t270 72q69 0 121 -19t75 -49.5t25 -64t-29 -67t-88 -54.5q-20 86 -76 141.5t-139 55.5q-67 0 -105 -46t-38 -120q0 -48 33.5 -106t87.5 -116.5t119 -121.5t130 -129.5
t119 -131.5t87.5 -136t33.5 -136z" />
    <glyph glyph-name="dieresis" unicode="&#xa8;" 
d="M1001 1260q-57 0 -95 37t-38 94q0 59 37.5 96t95.5 37q60 0 98 -36.5t38 -96.5q0 -57 -38 -94t-98 -37zM582 1260q-58 0 -97 37t-39 94q0 59 39 96t97 37t95.5 -37t37.5 -96q0 -57 -38 -94t-95 -37z" />
    <glyph glyph-name="copyright" unicode="&#xa9;" horiz-adv-x="1830" 
d="M948 -55q167 0 311 56.5t247 157.5t161.5 246.5t58.5 317.5q0 230 -100.5 408.5t-277.5 275t-400 96.5t-399.5 -96.5t-276.5 -274.5t-100 -409q0 -172 58.5 -317.5t161 -246.5t246 -157.5t310.5 -56.5zM993 281q-134 0 -244 52.5t-176.5 154.5t-66.5 235q0 134 66 235
t176.5 153t248.5 52q160 0 281 -63l8 -223h-16q-26 109 -100.5 181t-161.5 72q-108 0 -169 -107.5t-61 -297.5q0 -193 64 -301.5t182 -108.5q91 0 161.5 70t90.5 182h14v-221q-148 -65 -297 -65zM948 -92q-233 0 -418 100t-291 286.5t-106 428.5q0 179 61.5 331t169.5 257
t259 164t325 59q236 0 421.5 -101t290.5 -286t105 -424q0 -242 -105 -428t-290.5 -286.5t-421.5 -100.5z" />
    <glyph glyph-name="ordfeminine" unicode="&#xaa;" horiz-adv-x="1105" 
d="M444 678q26 0 58 20t74 70t84.5 125t91.5 195.5t94 269.5q-63 63 -123 63q-80 0 -164 -115.5t-135 -265t-51 -256.5q0 -106 71 -106zM1114 881l16 -13q-93 -168 -189.5 -258t-186.5 -90q-53 0 -76.5 38.5t-3.5 109.5l139 512q-230 -660 -510 -660q-85 0 -124.5 58.5
t-39.5 154.5q0 130 51.5 259.5t136.5 230.5t204.5 164t246.5 63q92 0 174 -33l148 33h4l-223 -832q107 69 233 263z" />
    <glyph glyph-name="guillemotleft" unicode="&#xab;" horiz-adv-x="948" 
d="M555 971v-2l-248 -451l72 -381l-4 -2l-291 416v4zM449 555l471 416v-2l-248 -451l71 -381l-4 -2l-290 416v4z" />
    <glyph glyph-name="uni00AD" unicode="&#xad;" horiz-adv-x="671" 
d="M631 696h-533l8 41h533z" />
    <glyph glyph-name="registered" unicode="&#xae;" horiz-adv-x="1105" 
d="M651 592q185 0 310.5 121t125.5 311t-126.5 310t-311.5 120q-119 0 -217.5 -53t-157.5 -152t-59 -225q0 -190 125.5 -311t310.5 -121zM637 1237h-31v-203h35q82 0 82 105q0 98 -86 98zM651 1485q200 0 334.5 -127.5t134.5 -333.5t-134.5 -334.5t-334.5 -128.5
q-198 0 -333.5 129t-135.5 334q0 136 63.5 242.5t170 162.5t235.5 56zM844 1143q0 -77 -90 -115l137 -184v-21h-129l-115 187h-41v-131q0 -30 35 -33h18v-23h-219v23h17q14 2 25.5 11t11.5 22v325q0 31 -37 31l-17 2v23h197q96 0 151.5 -31.5t55.5 -85.5z" />
    <glyph glyph-name="macron" unicode="&#xaf;" 
d="M1083 1305h-620l8 41h621z" />
    <glyph glyph-name="degree" unicode="&#xb0;" horiz-adv-x="712" 
d="M457 909q-107 0 -174.5 66t-67.5 174q0 132 84.5 218.5t216.5 86.5q108 0 173 -66.5t65 -177.5q0 -131 -83.5 -216t-213.5 -85zM461 950q109 0 180.5 71t71.5 183q0 96 -55.5 152.5t-147.5 56.5q-112 0 -183 -74.5t-71 -187.5q0 -91 56.5 -146t148.5 -55z" />
    <glyph glyph-name="plusminus" unicode="&#xb1;" horiz-adv-x="1083" 
d="M684 1094l-70 -330h412l-8 -41h-412l-69 -326h-41l69 326h-405l8 41h405l70 330h41zM918 156h-902l9 41h901z" />
    <glyph glyph-name="twosuperior" unicode="&#xb2;" horiz-adv-x="696" 
d="M596 573h-576l7 29q110 90 192 164.5t155.5 155t112.5 153t39 133.5q0 58 -31 87.5t-87 29.5q-118 0 -203 -129l-17 10q66 116 161 177t198 61q99 0 154 -52.5t55 -129.5q0 -62 -38.5 -127.5t-112 -130.5t-161 -124.5t-202.5 -125.5v-6h221q153 0 239 114h21z" />
    <glyph glyph-name="threesuperior" unicode="&#xb3;" horiz-adv-x="677" 
d="M328 561q-116 0 -187 39t-71 96q0 63 69 97q41 -81 99 -137t120 -56q57 0 93 53t36 123q0 81 -51 123.5t-143 42.5q-35 0 -72 -6l-4 22q129 63 214 139.5t85 153.5q0 43 -26 64.5t-70 21.5q-61 0 -117.5 -36.5t-99.5 -98.5l-17 10q61 108 157.5 171t201.5 63
q81 0 130.5 -37.5t49.5 -103.5q0 -44 -23.5 -82.5t-69 -69.5t-96 -55t-120.5 -49v-7q130 1 202 -51t72 -149q0 -119 -105 -200t-257 -81z" />
    <glyph glyph-name="acute" unicode="&#xb4;" 
d="M903 1536h314v-4l-476 -322h-8z" />
    <glyph glyph-name="paragraph" unicode="&#xb6;" horiz-adv-x="1349" 
d="M903 1434h592l-10 -41h-201l-373 -1753h-45l373 1753h-297l-373 -1753h-45l172 811h-4q-271 0 -424 121.5t-153 316.5q0 113 40.5 205t111.5 154.5t170.5 105t215.5 61.5t250 19z" />
    <glyph glyph-name="periodcentered" unicode="&#xb7;" horiz-adv-x="452" 
d="M260 582q-61 0 -101 40.5t-40 98.5q0 62 40 103.5t101 41.5t101 -41.5t40 -103.5q0 -58 -40 -98.5t-101 -40.5z" />
    <glyph glyph-name="cedilla" unicode="&#xb8;" 
d="M528 8l-71 -94q73 -21 118.5 -65t45.5 -103q0 -66 -46 -115.5t-118.5 -74t-150 -35t-152.5 -6.5l-2 75q89 -28 159 -28q72 0 115 29t43 87q0 88 -166 121l170 209h55z" />
    <glyph glyph-name="onesuperior" unicode="&#xb9;" horiz-adv-x="518" 
d="M483 573h-450l6 33l61 4q64 3 76 52l125 587q7 33 -2.5 41t-44.5 8h-84l6 27l348 119h17l-166 -782q-6 -25 8.5 -36t46.5 -16l59 -4z" />
    <glyph glyph-name="ordmasculine" unicode="&#xba;" horiz-adv-x="987" 
d="M680 1450q154 0 246 -96.5t92 -253.5q0 -109 -41 -214.5t-109.5 -186t-165.5 -130t-202 -49.5q-153 0 -243.5 96.5t-90.5 255.5q0 149 67.5 282t186.5 214.5t260 81.5zM494 549q53 0 103 47t87.5 124t65.5 166t43 181q29 166 1.5 261t-108.5 95q-65 0 -125.5 -73
t-99.5 -179.5t-62.5 -221.5t-23.5 -204q0 -196 119 -196z" />
    <glyph glyph-name="guillemotright" unicode="&#xbb;" horiz-adv-x="950" 
d="M207 971l291 -416v-4l-471 -416v2l247 451l-71 381zM567 969l4 2l291 -416v-4l-471 -416v2l248 451z" />
    <glyph glyph-name="onequarter" unicode="&#xbc;" horiz-adv-x="1640" 
d="M1544 258l-8 -37h-115l-28 -133q-6 -25 5 -35.5t38 -15.5l45 -4l-6 -33h-402l8 33l45 4q56 3 68 51l29 133h-355l-10 31l483 608h191l-2 -12l-621 -590h322l59 283l209 55l-72 -338h117zM430 610l59 -4l-6 -33h-450l6 33l61 4q64 3 76 52l125 587q7 33 -2.5 41t-44.5 8
h-84l6 27l348 119h17l-166 -782q-6 -25 8.5 -36t46.5 -16zM199 -25l-29 25l1311 1456l26 -24z" />
    <glyph glyph-name="onehalf" unicode="&#xbd;" horiz-adv-x="1648" 
d="M1554 289l-129 -289h-575l6 29q47 38 77.5 63.5t88 76t97.5 90t89 94t78.5 99t50.5 93.5t21 90q0 58 -32.5 87.5t-86.5 29.5q-119 0 -205 -129l-16 10q66 116 160.5 176.5t197.5 60.5q99 0 154 -52.5t55 -129.5q0 -62 -38.5 -127.5t-112 -130.5t-161 -124.5
t-202.5 -125.5v-6h221q154 0 240 115h22zM489 606l-6 -33h-450l6 33l61 4q64 3 76 52l125 587q7 33 -2.5 41t-44.5 8h-84l6 27l348 119h17l-166 -782q-6 -25 8.5 -36t46.5 -16zM1481 1456l26 -24l-1308 -1457l-29 25z" />
    <glyph glyph-name="threequarters" unicode="&#xbe;" horiz-adv-x="1724" 
d="M690 840q0 -119 -105 -200t-257 -81q-116 0 -187 39t-71 96q0 63 69 97q41 -82 99 -138.5t120 -56.5q58 0 93.5 53.5t35.5 124.5q0 78 -51.5 121t-142.5 43q-35 0 -72 -6l-4 24q129 63 214 139.5t85 153.5q0 43 -26 64.5t-70 21.5q-61 0 -117.5 -36.5t-99.5 -98.5l-17 8
q62 109 158.5 172.5t200.5 63.5q81 0 130.5 -37.5t49.5 -103.5q0 -44 -23.5 -82.5t-69 -69.5t-96 -55t-120.5 -49v-7q130 1 202 -51t72 -149zM283 -25l-29 25l1311 1456l26 -24zM1628 258l-8 -37h-115l-28 -133q-6 -25 5 -35.5t38 -15.5l45 -4l-6 -33h-402l8 33l45 4
q56 3 68 51l29 133h-355l-10 31l483 608h191l-2 -12l-621 -590h322l59 283l209 55l-72 -338h117z" />
    <glyph glyph-name="questiondown" unicode="&#xbf;" horiz-adv-x="792" 
d="M123 -254q85 0 214 54t241 139q26 -75 15 -128t-58 -86.5t-110 -49t-140 -15.5q-103 0 -187 32.5t-137 101t-53 161.5q0 76 34.5 144.5t88.5 117t127 89.5t141.5 66t140.5 42l78 215h21l-62 -422q-197 -38 -343 -137.5t-146 -204.5q0 -51 31 -85t104 -34zM604 1126
q61 0 101 -40.5t40 -98.5q0 -62 -40 -103.5t-101 -41.5t-101 41.5t-40 103.5q0 58 40 98.5t101 40.5z" />
    <glyph glyph-name="Agrave" unicode="&#xc0;" horiz-adv-x="1388" 
d="M844 565l-109 703l-383 -703h492zM1282 41l45 -8l-6 -33h-586l8 33l58 8q65 11 89 33t17 71l-57 379h-520l-207 -379q-28 -51 -11 -72.5t97 -31.5l76 -8l-6 -33h-416l6 33l47 8q62 12 94 33.5t58 70.5l704 1289h184l218 -1291q7 -47 30.5 -68.5t77.5 -33.5zM557 1847h307
l41 -325h-10l-338 321v4z" />
    <glyph glyph-name="Aacute" unicode="&#xc1;" horiz-adv-x="1388" 
d="M844 565l-109 703l-383 -703h492zM772 1434h184l218 -1291q7 -47 30.5 -68.5t77.5 -33.5l45 -8l-6 -33h-586l8 33l58 8q65 11 89 33t17 71l-57 379h-520l-207 -379q-28 -51 -11 -72.5t97 -31.5l76 -8l-6 -33h-416l6 33l47 8q62 12 94 33.5t58 70.5zM846 1524h-10l170 325
h313v-4z" />
    <glyph glyph-name="Acircumflex" unicode="&#xc2;" horiz-adv-x="1388" 
d="M844 565l-109 703l-383 -703h492zM1282 41l45 -8l-6 -33h-586l8 33l58 8q65 11 89 33t17 71l-57 379h-520l-207 -379q-28 -51 -11 -72.5t97 -31.5l76 -8l-6 -33h-416l6 33l47 8q62 12 94 33.5t58 70.5l704 1289h184l218 -1291q7 -47 30.5 -68.5t77.5 -33.5zM1202 1536
l-8 -8l-258 137l-348 -137l-4 6l377 332h4z" />
    <glyph glyph-name="Atilde" unicode="&#xc3;" horiz-adv-x="1388" 
d="M844 565l-109 703l-383 -703h492zM1282 41l45 -8l-6 -33h-586l8 33l58 8q65 11 89 33t17 71l-57 379h-520l-207 -379q-28 -51 -11 -72.5t97 -31.5l76 -8l-6 -33h-416l6 33l47 8q62 12 94 33.5t58 70.5l704 1289h184l218 -1291q7 -47 30.5 -68.5t77.5 -33.5zM727 1653
q-81 0 -141 -84l-13 2q102 237 240 237q42 0 85 -21t73.5 -46.5t70.5 -46.5t76 -21q82 0 139 90l13 -2q-41 -106 -104 -172.5t-140 -66.5q-44 0 -88 20.5t-74 45t-67.5 45t-69.5 20.5z" />
    <glyph glyph-name="Adieresis" unicode="&#xc4;" horiz-adv-x="1388" 
d="M844 565l-109 703l-383 -703h492zM1282 41l45 -8l-6 -33h-586l8 33l58 8q65 11 89 33t17 71l-57 379h-520l-207 -379q-28 -51 -11 -72.5t97 -31.5l76 -8l-6 -33h-416l6 33l47 8q62 12 94 33.5t58 70.5l704 1289h184l218 -1291q7 -47 30.5 -68.5t77.5 -33.5zM721 1591
q-57 0 -96 37t-39 94q0 59 38.5 96t96.5 37t95.5 -37t37.5 -96q0 -57 -38 -94t-95 -37zM1141 1591q-57 0 -95 37t-38 94q0 59 37.5 96t95.5 37q60 0 97.5 -36.5t37.5 -96.5q0 -57 -37.5 -94t-97.5 -37z" />
    <glyph glyph-name="Aring" unicode="&#xc5;" horiz-adv-x="1388" 
d="M844 565l-109 703l-383 -703h492zM940 1864q-68 0 -114 -46.5t-46 -113.5q0 -61 40 -98t102 -37q68 0 113.5 44t45.5 111q0 60 -40 100t-101 40zM1282 41l45 -8l-6 -33h-586l8 33l58 8q65 11 89 33t17 71l-57 379h-520l-207 -379q-28 -51 -11 -72.5t97 -31.5l76 -8
l-6 -33h-416l6 33l47 8q62 12 94 33.5t58 70.5l704 1289h184l218 -1291q7 -47 30.5 -68.5t77.5 -33.5zM915 1524q-80 0 -131 48.5t-51 129.5q0 87 61 147t152 60q82 0 133 -49.5t51 -128.5q0 -88 -61.5 -147.5t-153.5 -59.5z" />
    <glyph glyph-name="AE" unicode="&#xc6;" horiz-adv-x="1970" 
d="M956 715l119 555l-438 -555h319zM983 1391l-61 10l6 33h1034l-27 -443l-22 -6q-45 408 -338 408h-217l-137 -641h163q86 0 136.5 52t111.5 206h21l-119 -557h-21q8 107 -2 161t-40.5 75.5t-94.5 21.5h-164l-141 -670h242q194 0 324.5 92t240.5 332h25l-164 -465h-1114
l8 33l63 10q63 9 96.5 30t45.5 79l110 522h-344l-432 -547q-34 -38 -23 -56.5t78 -25.5l54 -4l-9 -41h-364l10 41l37 6q102 13 154 78l968 1214q-12 42 -94 52z" />
    <glyph glyph-name="Ccedilla" unicode="&#xc7;" horiz-adv-x="1396" 
d="M973 1454q249 0 487 -135l-47 -326h-20q-19 198 -130.5 313t-283.5 115q-99 0 -188.5 -40.5t-157.5 -109t-123 -157.5t-90 -189t-53.5 -201t-18.5 -194q0 -232 106 -375t283 -143q162 0 312.5 121t224.5 307h18l-78 -366q-225 -94 -460 -94q-30 0 -84 4l-52 -68
q72 -21 118 -66t46 -104q0 -66 -46.5 -115.5t-119.5 -74t-150.5 -35t-152.5 -6.5l-2 75q89 -28 160 -28q73 0 116.5 29t43.5 87q0 87 -168 121l155 191q-240 36 -380 194.5t-140 413.5q0 184 70 345t189 272t279 175t337 64z" />
    <glyph glyph-name="Egrave" unicode="&#xc8;" horiz-adv-x="1271" 
d="M225 1401l6 33h1033l-25 -443l-22 -6q-10 90 -33 161t-63 128t-102 88t-142 31h-215l-138 -641h162q87 0 138 52.5t112 205.5h20l-120 -557h-21q13 102 0.5 159.5t-43 78t-94.5 20.5h-162l-141 -670h241q96 0 171.5 20t146 67.5t131.5 130.5t117 206h22l-162 -465h-1114
l6 33l66 10q63 9 96 30t45 79l240 1130q12 57 -13 79.5t-81 29.5zM870 1847l39 -325h-8l-340 321l2 4h307z" />
    <glyph glyph-name="Eacute" unicode="&#xc9;" horiz-adv-x="1271" 
d="M287 1391l-62 10l6 33h1033l-25 -443l-22 -6q-10 90 -33 161t-63 128t-102 88t-142 31h-215l-138 -641h162q87 0 138 52.5t112 205.5h20l-120 -557h-21q13 102 0.5 159.5t-43 78t-94.5 20.5h-162l-141 -670h241q96 0 171.5 20t146 67.5t131.5 130.5t117 206h22l-162 -465
h-1114l6 33l66 10q63 9 96 30t45 79l240 1130q12 57 -13 79.5t-81 29.5zM821 1524l170 325h314v-4l-474 -321h-10z" />
    <glyph glyph-name="Ecircumflex" unicode="&#xca;" horiz-adv-x="1271" 
d="M225 1401l6 33h1033l-25 -443l-22 -6q-10 90 -33 161t-63 128t-102 88t-142 31h-215l-138 -641h162q87 0 138 52.5t112 205.5h20l-120 -557h-21q13 102 0.5 159.5t-43 78t-94.5 20.5h-162l-141 -670h241q96 0 171.5 20t146 67.5t131.5 130.5t117 206h22l-162 -465h-1114
l6 33l66 10q63 9 96 30t45 79l240 1130q12 57 -13 79.5t-81 29.5zM1157 1528l-258 137l-346 -137l-6 6l379 332h4l235 -330z" />
    <glyph glyph-name="Edieresis" unicode="&#xcb;" horiz-adv-x="1271" 
d="M225 1401l6 33h1033l-25 -443l-22 -6q-10 90 -33 161t-63 128t-102 88t-142 31h-215l-138 -641h162q87 0 138 52.5t112 205.5h20l-120 -557h-21q13 102 0.5 159.5t-43 78t-94.5 20.5h-162l-141 -670h241q96 0 171.5 20t146 67.5t131.5 130.5t117 206h22l-162 -465h-1114
l6 33l66 10q63 9 96 30t45 79l240 1130q12 57 -13 79.5t-81 29.5zM684 1591q-57 0 -95 37t-38 94q0 59 37.5 96t95.5 37q60 0 96.5 -36.5t36.5 -96.5q0 -58 -36.5 -94.5t-96.5 -36.5zM1106 1591q-57 0 -95 37t-38 94q0 59 37.5 96t95.5 37q60 0 96.5 -36.5t36.5 -96.5
q0 -58 -36.5 -94.5t-96.5 -36.5z" />
    <glyph glyph-name="Igrave" unicode="&#xcc;" horiz-adv-x="710" 
d="M547 0h-619l6 33l64 8q63 9 97 31t46 80l240 1130q12 58 -13 80t-83 31l-60 8l6 33h619l-6 -33l-64 -8q-61 -9 -96 -31.5t-47 -79.5l-240 -1130q-12 -58 13.5 -80t83.5 -31l59 -8zM602 1522h-10l-338 321v4h307z" />
    <glyph glyph-name="Iacute" unicode="&#xcd;" horiz-adv-x="710" 
d="M547 0h-619l6 33l64 8q63 9 97 31t46 80l240 1130q12 58 -13 80t-83 31l-60 8l6 33h619l-6 -33l-64 -8q-61 -9 -96 -31.5t-47 -79.5l-240 -1130q-12 -58 13.5 -80t83.5 -31l59 -8zM664 1849h313v-4l-475 -321h-8z" />
    <glyph glyph-name="Icircumflex" unicode="&#xce;" horiz-adv-x="710" 
d="M285 1393l-60 8l6 33h619l-6 -33l-64 -8q-61 -9 -96 -31.5t-47 -79.5l-240 -1130q-12 -58 13.5 -80t83.5 -31l59 -8l-6 -33h-619l6 33l64 8q63 9 97 31t46 80l240 1130q12 58 -13 80t-83 31zM639 1866h4l236 -330l-9 -8l-258 137l-348 -137l-4 6z" />
    <glyph glyph-name="Idieresis" unicode="&#xcf;" horiz-adv-x="710" 
d="M547 0h-619l6 33l64 8q63 9 97 31t46 80l240 1130q12 58 -13 80t-83 31l-60 8l6 33h619l-6 -33l-64 -8q-61 -9 -96 -31.5t-47 -79.5l-240 -1130q-12 -58 13.5 -80t83.5 -31l59 -8zM819 1591q-57 0 -96 37t-39 94q0 59 38.5 96t96.5 37t95.5 -37t37.5 -96q0 -57 -38 -94
t-95 -37zM397 1591q-57 0 -95 37t-38 94q0 59 37.5 96t95.5 37q60 0 96.5 -36.5t36.5 -96.5q0 -58 -37 -94.5t-96 -36.5z" />
    <glyph glyph-name="Eth" unicode="&#xd0;" horiz-adv-x="1529" 
d="M520 696l-139 -655h192q120 0 225.5 48t183 131t134 192.5t85 235t28.5 255.5q0 223 -100.5 356.5t-284.5 133.5h-176l-140 -656h297l-8 -41h-297zM227 1401l6 33h609q151 0 275 -45t207 -126t128 -193t45 -245q0 -244 -124 -433t-337.5 -290.5t-480.5 -101.5h-625l7 33
l55 8q79 12 109 34.5t42 76.5l115 544h-162l10 41h160l115 545q11 56 -7.5 80t-84.5 31z" />
    <glyph glyph-name="Ntilde" unicode="&#xd1;" horiz-adv-x="1529" 
d="M1239 1401l6 33h445l-7 -33l-69 -8q-68 -9 -105.5 -31.5t-48.5 -79.5l-272 -1282h-172l-586 1274l-237 -1122q-12 -58 15.5 -80t92.5 -31l64 -8l-7 -33h-444l6 33l70 8q67 9 105 31t50 80l238 1130q12 58 -11.5 80t-78.5 31l-60 8l9 33h391l561 -1176l217 1024
q12 58 -15.5 80t-90.5 31zM842 1653q-37 0 -75 -23t-65 -61l-12 2q102 237 240 237q42 0 85 -21t73.5 -46.5t70.5 -46.5t76 -21q82 0 139 90l12 -2q-42 -107 -104 -173t-139 -66q-44 0 -88.5 20.5t-74.5 45t-68 45t-70 20.5z" />
    <glyph glyph-name="Ograve" unicode="&#xd2;" horiz-adv-x="1454" 
d="M625 12q104 0 196.5 65t158 170.5t113 238t70.5 270t23 264.5q0 196 -74.5 298.5t-212.5 102.5q-102 0 -193.5 -65t-157 -171t-114 -238t-72.5 -269t-24 -262q0 -196 75.5 -300t211.5 -104zM903 1454q244 0 387.5 -152.5t143.5 -406.5q0 -174 -63.5 -340.5t-170.5 -293
t-259.5 -204t-319.5 -77.5q-242 0 -386.5 154t-144.5 407q0 112 27 223.5t77 212.5t123.5 188.5t161.5 151.5t197.5 100.5t226.5 36.5zM954 1847l39 -325h-8l-340 321l2 4h307z" />
    <glyph glyph-name="Oacute" unicode="&#xd3;" horiz-adv-x="1454" 
d="M625 12q104 0 196.5 65t158 170.5t113 238t70.5 270t23 264.5q0 196 -74.5 298.5t-212.5 102.5q-102 0 -193.5 -65t-157 -171t-114 -238t-72.5 -269t-24 -262q0 -196 75.5 -300t211.5 -104zM903 1454q244 0 387.5 -152.5t143.5 -406.5q0 -174 -63.5 -340.5t-170.5 -293
t-259.5 -204t-319.5 -77.5q-242 0 -386.5 154t-144.5 407q0 112 27 223.5t77 212.5t123.5 188.5t161.5 151.5t197.5 100.5t226.5 36.5zM885 1524l170 325h313v-4l-473 -321h-10z" />
    <glyph glyph-name="Ocircumflex" unicode="&#xd4;" horiz-adv-x="1454" 
d="M625 12q104 0 196.5 65t158 170.5t113 238t70.5 270t23 264.5q0 196 -74.5 298.5t-212.5 102.5q-102 0 -193.5 -65t-157 -171t-114 -238t-72.5 -269t-24 -262q0 -196 75.5 -300t211.5 -104zM903 1454q244 0 387.5 -152.5t143.5 -406.5q0 -174 -63.5 -340.5t-170.5 -293
t-259.5 -204t-319.5 -77.5q-242 0 -386.5 154t-144.5 407q0 112 27 223.5t77 212.5t123.5 188.5t161.5 151.5t197.5 100.5t226.5 36.5zM1249 1536l-8 -8l-258 137l-346 -137l-6 6l379 332h4z" />
    <glyph glyph-name="Otilde" unicode="&#xd5;" horiz-adv-x="1454" 
d="M625 12q104 0 196.5 65t158 170.5t113 238t70.5 270t23 264.5q0 196 -74.5 298.5t-212.5 102.5q-102 0 -193.5 -65t-157 -171t-114 -238t-72.5 -269t-24 -262q0 -196 75.5 -300t211.5 -104zM903 1454q244 0 387.5 -152.5t143.5 -406.5q0 -174 -63.5 -340.5t-170.5 -293
t-259.5 -204t-319.5 -77.5q-242 0 -386.5 154t-144.5 407q0 112 27 223.5t77 212.5t123.5 188.5t161.5 151.5t197.5 100.5t226.5 36.5zM1075 1522q-44 0 -88.5 20.5t-74.5 45t-68 45t-70 20.5q-37 0 -74.5 -23t-64.5 -61l-14 2q102 237 241 237q42 0 85 -21t73.5 -46.5
t70.5 -46.5t76 -21q83 0 140 90l12 -2q-41 -105 -105 -172t-139 -67z" />
    <glyph glyph-name="Odieresis" unicode="&#xd6;" horiz-adv-x="1454" 
d="M625 12q104 0 196.5 65t158 170.5t113 238t70.5 270t23 264.5q0 196 -74.5 298.5t-212.5 102.5q-102 0 -193.5 -65t-157 -171t-114 -238t-72.5 -269t-24 -262q0 -196 75.5 -300t211.5 -104zM903 1454q244 0 387.5 -152.5t143.5 -406.5q0 -174 -63.5 -340.5t-170.5 -293
t-259.5 -204t-319.5 -77.5q-242 0 -386.5 154t-144.5 407q0 112 27 223.5t77 212.5t123.5 188.5t161.5 151.5t197.5 100.5t226.5 36.5zM768 1591q-57 0 -95 37t-38 94q0 59 37.5 96t95.5 37q60 0 96.5 -36.5t36.5 -96.5q0 -58 -36.5 -94.5t-96.5 -36.5zM1190 1591
q-57 0 -95 37t-38 94q0 59 37.5 96t95.5 37q60 0 96.5 -36.5t36.5 -96.5q0 -58 -36.5 -94.5t-96.5 -36.5z" />
    <glyph glyph-name="multiply" unicode="&#xd7;" horiz-adv-x="958" 
d="M498 629l-457 -379l-27 39l455 377l-293 372l37 33l295 -375l453 375l26 -39l-452 -373l292 -370l-36 -31z" />
    <glyph glyph-name="Oslash" unicode="&#xd8;" horiz-adv-x="1517" 
d="M369 416v-21l845 699q-13 160 -86.5 243.5t-197.5 83.5q-102 0 -193.5 -65t-157 -171t-114 -238t-72.5 -269t-24 -262zM1217 1020v20l-846 -698q13 -160 86.5 -245t195.5 -85q104 0 197 65t158.5 170.5t113.5 238t71.5 270t23.5 264.5zM1376 1227l250 207l25 -35
l-254 -209q65 -127 65 -295q0 -174 -63 -340.5t-169.5 -293t-259 -204t-319.5 -77.5q-147 0 -261 59.5t-183 167.5l-248 -205l-22 35l249 207q-65 127 -65 297q0 134 38 267t110.5 248.5t170 205t225.5 141t267 51.5q151 0 264 -58.5t180 -168.5z" />
    <glyph glyph-name="Ugrave" unicode="&#xd9;" horiz-adv-x="1460" 
d="M674 -20q-125 0 -228 37t-171.5 106t-95.5 169t1 226l162 764q12 58 -10 80t-76 31l-53 8l6 33h604l-8 -33l-62 -8q-61 -9 -95.5 -31.5t-45.5 -79.5l-168 -782q-21 -105 -4 -187t64.5 -139t121.5 -87t166 -30q175 0 274 112.5t144 328.5l168 784q12 58 -15.5 80t-90.5 31
l-64 8l6 33h441l-7 -33l-69 -8q-67 -9 -104.5 -31t-49.5 -80l-166 -784q-109 -518 -575 -518zM1024 1522h-10l-338 321v4h307z" />
    <glyph glyph-name="Uacute" unicode="&#xda;" horiz-adv-x="1460" 
d="M674 -20q-125 0 -228 37t-171.5 106t-95.5 169t1 226l162 764q12 58 -10 80t-76 31l-53 8l6 33h604l-8 -33l-62 -8q-61 -9 -95.5 -31.5t-45.5 -79.5l-168 -782q-21 -105 -4 -187t64.5 -139t121.5 -87t166 -30q175 0 274 112.5t144 328.5l168 784q12 58 -15.5 80t-90.5 31
l-64 8l6 33h441l-7 -33l-69 -8q-67 -9 -104.5 -31t-49.5 -80l-166 -784q-109 -518 -575 -518zM1083 1849h316l-2 -4l-473 -321h-9z" />
    <glyph glyph-name="Ucircumflex" unicode="&#xdb;" horiz-adv-x="1460" 
d="M1198 1401l6 33h441l-7 -33l-69 -8q-67 -9 -104.5 -31t-49.5 -80l-166 -784q-109 -518 -575 -518q-125 0 -228 37t-171.5 106t-95.5 169t1 226l162 764q12 58 -10 80t-76 31l-53 8l6 33h604l-8 -33l-62 -8q-61 -9 -95.5 -31.5t-45.5 -79.5l-168 -782q-21 -105 -4 -187
t64.5 -139t121.5 -87t166 -30q175 0 274 112.5t144 328.5l168 784q12 58 -15.5 80t-90.5 31zM1313 1528l-258 137l-348 -137l-5 6l379 332h4l236 -330z" />
    <glyph glyph-name="Udieresis" unicode="&#xdc;" horiz-adv-x="1460" 
d="M674 -20q-125 0 -228 37t-171.5 106t-95.5 169t1 226l162 764q12 58 -10 80t-76 31l-53 8l6 33h604l-8 -33l-62 -8q-61 -9 -95.5 -31.5t-45.5 -79.5l-168 -782q-21 -105 -4 -187t64.5 -139t121.5 -87t166 -30q175 0 274 112.5t144 328.5l168 784q12 58 -15.5 80t-90.5 31
l-64 8l6 33h441l-7 -33l-69 -8q-67 -9 -104.5 -31t-49.5 -80l-166 -784q-109 -518 -575 -518zM840 1591q-57 0 -96 37t-39 94q0 59 38.5 96t96.5 37t95.5 -37t37.5 -96q0 -57 -38 -94t-95 -37zM1262 1591q-58 0 -97 37t-39 94q0 59 39 96t97 37t95.5 -37t37.5 -96
q0 -57 -38 -94t-95 -37z" />
    <glyph glyph-name="Yacute" unicode="&#xdd;" horiz-adv-x="1325" 
d="M1114 1401l8 33h410l-6 -33l-43 -8q-57 -12 -92.5 -33.5t-67.5 -63.5l-506 -665l-100 -479q-12 -58 15.5 -80t92.5 -31l64 -8l-6 -33h-654l7 33l69 8q68 9 106 31.5t50 79.5l100 477l-285 671q-27 72 -96 93l-26 8l6 33h557l-6 -33l-72 -8q-60 -7 -79.5 -25t-0.5 -68
l250 -604l461 600q20 27 23.5 45t-11.5 28t-35.5 15t-58.5 9zM1331 1849v-4l-473 -321h-10l170 325h313z" />
    <glyph glyph-name="Thorn" unicode="&#xde;" horiz-adv-x="1302" 
d="M756 1102h-158l-162 -770h158q203 0 315.5 130.5t112.5 350.5q0 133 -72 211t-194 78zM604 297h-176l-31 -145q-12 -58 22.5 -80t112.5 -31l80 -8l-6 -33h-678l6 33l64 8q63 9 97 31t46 80l240 1130q12 58 -13 80t-83 31l-60 8l6 33h678l-8 -33l-82 -8q-39 -4 -65.5 -10
t-52.5 -17.5t-41.5 -32.5t-22.5 -51l-31 -143h154q238 0 379 -103.5t141 -273.5q0 -223 -180 -344t-496 -121z" />
    <glyph glyph-name="germandbls" unicode="&#xdf;" horiz-adv-x="1351" 
d="M1346 1190q-58 -23 -100 -43t-85.5 -46t-70.5 -51t-44.5 -57t-17.5 -67q0 -52 34.5 -121t76 -127t76 -133t34.5 -139q0 -185 -127.5 -305.5t-326.5 -120.5q-124 0 -208.5 51t-84.5 123q0 81 106 141q28 -110 106 -190t163 -80q76 0 127 61t51 154q0 47 -23.5 100.5
t-57.5 103.5t-68 101t-57.5 109t-23.5 110q0 102 70.5 181t243.5 173q3 94 -9.5 177.5t-40 152t-76.5 109t-114 40.5q-119 0 -194 -114t-142 -361l-254 -946q-44 -174 -143 -305q-96 -125 -211.5 -192.5t-228.5 -67.5q-94 0 -144.5 35.5t-50.5 89.5q0 99 137 158
q19 -99 70.5 -153t124.5 -54q53 0 86.5 77t99.5 324l264 987h-163l12 41l168 14q157 508 575 508q200 0 319 -123t122 -325z" />
    <glyph glyph-name="agrave" unicode="&#xe0;" horiz-adv-x="1234" 
d="M365 152q47 0 106.5 47.5t129 144.5t146.5 269.5t146 396.5q-88 88 -172 88q-78 0 -163.5 -85.5t-149 -208.5t-105 -262t-41.5 -243q0 -147 103 -147zM1198 424l25 -14q-114 -203 -234 -316.5t-225 -113.5q-59 0 -83.5 41t-4.5 120l184 674h-2q-81 -225 -165.5 -390
t-166.5 -260.5t-159 -140t-154 -44.5q-105 0 -153 70.5t-48 191.5q0 120 37.5 246.5t108 241.5t163 206t212.5 145t247 54q112 0 226 -50l168 50h4l-281 -1055q68 43 147.5 133.5t153.5 210.5zM530 1536h308l39 -326h-9l-338 322v4z" />
    <glyph glyph-name="aacute" unicode="&#xe1;" horiz-adv-x="1234" 
d="M365 152q47 0 106.5 47.5t129 144.5t146.5 269.5t146 396.5q-88 88 -172 88q-78 0 -163.5 -85.5t-149 -208.5t-105 -262t-41.5 -243q0 -147 103 -147zM1174 1135h4l-281 -1055q68 43 147.5 133.5t153.5 210.5l25 -14q-114 -203 -234 -316.5t-225 -113.5q-59 0 -83.5 41
t-4.5 120l184 674h-2q-81 -225 -165.5 -390t-166.5 -260.5t-159 -140t-154 -44.5q-105 0 -153 70.5t-48 191.5q0 120 37.5 246.5t108 241.5t163 206t212.5 145t247 54q112 0 226 -50zM823 1210h-10l170 326h313v-4z" />
    <glyph glyph-name="acircumflex" unicode="&#xe2;" horiz-adv-x="1234" 
d="M365 152q47 0 106.5 47.5t129 144.5t146.5 269.5t146 396.5q-88 88 -172 88q-78 0 -163.5 -85.5t-149 -208.5t-105 -262t-41.5 -243q0 -147 103 -147zM1198 424l25 -14q-114 -203 -234 -316.5t-225 -113.5q-59 0 -83.5 41t-4.5 120l184 674h-2q-81 -225 -165.5 -390
t-166.5 -260.5t-159 -140t-154 -44.5q-105 0 -153 70.5t-48 191.5q0 120 37.5 246.5t108 241.5t163 206t212.5 145t247 54q112 0 226 -50l168 50h4l-281 -1055q68 43 147.5 133.5t153.5 210.5zM1149 1225l-8 -8l-258 137l-348 -137l-5 6l377 331h4z" />
    <glyph glyph-name="atilde" unicode="&#xe3;" horiz-adv-x="1234" 
d="M365 152q47 0 106.5 47.5t129 144.5t146.5 269.5t146 396.5q-88 88 -172 88q-78 0 -163.5 -85.5t-149 -208.5t-105 -262t-41.5 -243q0 -147 103 -147zM1198 424l25 -14q-114 -203 -234 -316.5t-225 -113.5q-59 0 -83.5 41t-4.5 120l184 674h-2q-81 -225 -165.5 -390
t-166.5 -260.5t-159 -140t-154 -44.5q-105 0 -153 70.5t-48 191.5q0 120 37.5 246.5t108 241.5t163 206t212.5 145t247 54q112 0 226 -50l168 50h4l-281 -1055q68 43 147.5 133.5t153.5 210.5zM672 1374q-82 0 -142 -84l-12 2q102 238 240 238q42 0 86 -21t74.5 -46.5
t70.5 -46.5t74 -21q82 0 139 90l12 -2q-42 -107 -104 -173.5t-139 -66.5q-44 0 -88 20.5t-74 45t-67.5 45t-69.5 20.5z" />
    <glyph glyph-name="adieresis" unicode="&#xe4;" horiz-adv-x="1234" 
d="M365 152q47 0 106.5 47.5t129 144.5t146.5 269.5t146 396.5q-88 88 -172 88q-78 0 -163.5 -85.5t-149 -208.5t-105 -262t-41.5 -243q0 -147 103 -147zM1198 424l25 -14q-114 -203 -234 -316.5t-225 -113.5q-59 0 -83.5 41t-4.5 120l184 674h-2q-81 -225 -165.5 -390
t-166.5 -260.5t-159 -140t-154 -44.5q-105 0 -153 70.5t-48 191.5q0 120 37.5 246.5t108 241.5t163 206t212.5 145t247 54q112 0 226 -50l168 50h4l-281 -1055q68 43 147.5 133.5t153.5 210.5zM662 1260q-57 0 -95.5 37t-38.5 94q0 59 38 96t96 37q60 0 96.5 -36.5
t36.5 -96.5q0 -57 -36.5 -94t-96.5 -37zM1083 1260q-57 0 -95 37t-38 94q0 59 37.5 96t95.5 37q60 0 97 -36.5t37 -96.5q0 -57 -37 -94t-97 -37z" />
    <glyph glyph-name="aring" unicode="&#xe5;" horiz-adv-x="1234" 
d="M365 152q47 0 106.5 47.5t129 144.5t146.5 269.5t146 396.5q-88 88 -172 88q-78 0 -163.5 -85.5t-149 -208.5t-105 -262t-41.5 -243q0 -147 103 -147zM885 1569q-67 0 -113.5 -47t-46.5 -113q0 -61 39.5 -98t101.5 -37q68 0 115 44.5t47 111.5q0 60 -40.5 99.5
t-102.5 39.5zM1198 424l25 -14q-114 -203 -234 -316.5t-225 -113.5q-59 0 -83.5 41t-4.5 120l184 674h-2q-81 -225 -165.5 -390t-166.5 -260.5t-159 -140t-154 -44.5q-105 0 -153 70.5t-48 191.5q0 120 37.5 246.5t108 241.5t163 206t212.5 145t247 54q112 0 226 -50l168 50
h4l-281 -1055q68 43 147.5 133.5t153.5 210.5zM860 1229q-80 0 -131 48.5t-51 129.5q0 87 61.5 147t153.5 60q80 0 131 -49.5t51 -128.5q0 -88 -61.5 -147.5t-153.5 -59.5z" />
    <glyph glyph-name="ae" unicode="&#xe6;" horiz-adv-x="1499" 
d="M594 336v20q0 179 82.5 355t220.5 290q-90 97 -176 97q-78 0 -163.5 -85.5t-149 -208.5t-105 -262t-41.5 -243q0 -147 103 -147q101 0 229 184zM1221 1094q-79 0 -157.5 -80.5t-134.5 -203.5t-81 -259q121 34 214.5 88t145.5 113.5t77.5 116.5t25.5 108q0 54 -24.5 85.5
t-65.5 31.5zM1026 121q97 0 199 81t184 222l23 -14q-100 -202 -238.5 -316t-294.5 -114q-132 0 -209.5 83.5t-91.5 223.5q-197 -307 -385 -307q-105 0 -153 70.5t-48 191.5q0 118 37.5 245t107.5 241.5t161.5 206t209.5 146t242 54.5q120 0 246 -56q115 56 235 56t187 -51
t67 -132q0 -48 -23.5 -97.5t-76 -100.5t-128 -94.5t-187.5 -79.5t-246 -56q-1 -15 -4.5 -55.5t-3.5 -62.5q0 -130 47.5 -207.5t142.5 -77.5z" />
    <glyph glyph-name="ccedilla" unicode="&#xe7;" horiz-adv-x="954" 
d="M971 926q0 -70 -48.5 -124t-131.5 -61q8 172 -29.5 262.5t-118.5 90.5q-91 0 -174.5 -101t-131.5 -253t-48 -302q0 -143 48.5 -230t147.5 -87q95 0 195 81t174 222l23 -14q-93 -203 -224 -316.5t-286 -113.5h-19l-47 -62q72 -22 117 -66t45 -104q0 -66 -46 -115
t-118.5 -73.5t-150 -34.5t-152.5 -6l-2 73q93 -26 160 -26q73 0 116 28.5t43 86.5q0 85 -168 122l152 183q-121 28 -184.5 136t-63.5 265q0 106 28.5 213.5t84 203t130.5 170t176 118t212 43.5q143 0 217 -62t74 -147z" />
    <glyph glyph-name="egrave" unicode="&#xe8;" horiz-adv-x="944" 
d="M666 1094q-79 0 -157.5 -80.5t-134.5 -203.5t-81 -259q121 34 214.5 88t145.5 113.5t77.5 116.5t25.5 108q0 54 -24.5 85.5t-65.5 31.5zM471 121q97 0 199 81t184 222l23 -14q-100 -202 -238.5 -316t-294.5 -114q-150 0 -227.5 103.5t-77.5 272.5q0 108 31 219t90.5 211
t138.5 178.5t182.5 124.5t214.5 46q120 0 187 -51t67 -132q0 -48 -23.5 -97.5t-76 -100.5t-128 -94.5t-187.5 -79.5t-246 -56q-1 -15 -4.5 -55.5t-3.5 -62.5q0 -130 47.5 -207.5t142.5 -77.5zM397 1536h308l40 -326h-10l-338 322v4z" />
    <glyph glyph-name="eacute" unicode="&#xe9;" horiz-adv-x="944" 
d="M666 1094q-79 0 -157.5 -80.5t-134.5 -203.5t-81 -259q121 34 214.5 88t145.5 113.5t77.5 116.5t25.5 108q0 54 -24.5 85.5t-65.5 31.5zM950 952q0 -48 -23.5 -97.5t-76 -100.5t-128 -94.5t-187.5 -79.5t-246 -56q-1 -15 -4.5 -55.5t-3.5 -62.5q0 -130 47.5 -207.5
t142.5 -77.5q97 0 199 81t184 222l23 -14q-100 -202 -238.5 -316t-294.5 -114q-150 0 -227.5 103.5t-77.5 272.5q0 108 31 219t90.5 211t138.5 178.5t182.5 124.5t214.5 46q120 0 187 -51t67 -132zM649 1210h-8l170 326h313v-4z" />
    <glyph glyph-name="ecircumflex" unicode="&#xea;" horiz-adv-x="944" 
d="M666 1094q-79 0 -157.5 -80.5t-134.5 -203.5t-81 -259q121 34 214.5 88t145.5 113.5t77.5 116.5t25.5 108q0 54 -24.5 85.5t-65.5 31.5zM950 952q0 -48 -23.5 -97.5t-76 -100.5t-128 -94.5t-187.5 -79.5t-246 -56q-1 -15 -4.5 -55.5t-3.5 -62.5q0 -130 47.5 -207.5
t142.5 -77.5q97 0 199 81t184 222l23 -14q-100 -202 -238.5 -316t-294.5 -114q-150 0 -227.5 103.5t-77.5 272.5q0 108 31 219t90.5 211t138.5 178.5t182.5 124.5t214.5 46q120 0 187 -51t67 -132zM397 1223l379 331h4l236 -329l-8 -8l-258 137l-349 -137z" />
    <glyph glyph-name="edieresis" unicode="&#xeb;" horiz-adv-x="944" 
d="M666 1094q-79 0 -157.5 -80.5t-134.5 -203.5t-81 -259q121 34 214.5 88t145.5 113.5t77.5 116.5t25.5 108q0 54 -24.5 85.5t-65.5 31.5zM950 952q0 -48 -23.5 -97.5t-76 -100.5t-128 -94.5t-187.5 -79.5t-246 -56q-1 -15 -4.5 -55.5t-3.5 -62.5q0 -130 47.5 -207.5
t142.5 -77.5q97 0 199 81t184 222l23 -14q-100 -202 -238.5 -316t-294.5 -114q-150 0 -227.5 103.5t-77.5 272.5q0 108 31 219t90.5 211t138.5 178.5t182.5 124.5t214.5 46q120 0 187 -51t67 -132zM530 1260q-57 0 -96 37t-39 94q0 59 38.5 96t96.5 37t96 -37t38 -96
q0 -57 -38.5 -94t-95.5 -37zM950 1524q60 0 97.5 -36.5t37.5 -96.5q0 -57 -37.5 -94t-97.5 -37q-57 0 -95 37t-38 94q0 59 37.5 96t95.5 37z" />
    <glyph glyph-name="igrave" unicode="&#xec;" horiz-adv-x="667" 
d="M627 424l24 -14q-114 -203 -233.5 -316.5t-224.5 -113.5q-59 0 -85 41t-6 114l240 901q-69 -46 -148.5 -136.5t-152.5 -209.5l-23 15q117 204 236 317t223 113q59 0 83.5 -40t4.5 -116l-241 -901q69 45 149.5 136t153.5 210zM498 1536l39 -326h-9l-338 322v4h308z" />
    <glyph glyph-name="iacute" unicode="&#xed;" horiz-adv-x="667" 
d="M565 979l-241 -901q69 45 149.5 136t153.5 210l24 -14q-114 -203 -233.5 -316.5t-224.5 -113.5q-59 0 -85 41t-6 114l240 901q-69 -46 -148.5 -136.5t-152.5 -209.5l-23 15q117 204 236 317t223 113q59 0 83.5 -40t4.5 -116zM473 1210l170 326h313v-4l-473 -322h-10z" />
    <glyph glyph-name="icircumflex" unicode="&#xee;" horiz-adv-x="667" 
d="M565 979l-241 -901q69 45 149.5 136t153.5 210l24 -14q-114 -203 -233.5 -316.5t-224.5 -113.5q-59 0 -85 41t-6 114l240 901q-69 -46 -148.5 -136.5t-152.5 -209.5l-23 15q117 204 236 317t223 113q59 0 83.5 -40t4.5 -116zM567 1554h4l238 -329l-8 -8l-258 137
l-348 -137l-5 6z" />
    <glyph glyph-name="idieresis" unicode="&#xef;" horiz-adv-x="667" 
d="M565 979l-241 -901q69 45 149.5 136t153.5 210l24 -14q-114 -203 -233.5 -316.5t-224.5 -113.5q-59 0 -85 41t-6 114l240 901q-69 -46 -148.5 -136.5t-152.5 -209.5l-23 15q117 204 236 317t223 113q59 0 83.5 -40t4.5 -116zM322 1260q-57 0 -95.5 37t-38.5 94
q0 59 38 96t96 37q60 0 96.5 -36.5t36.5 -96.5q0 -57 -36.5 -94t-96.5 -37zM743 1524q60 0 97 -36.5t37 -96.5q0 -57 -37 -94t-97 -37q-57 0 -95 37t-38 94q0 59 37.5 96t95.5 37z" />
    <glyph glyph-name="eth" unicode="&#xf0;" horiz-adv-x="1142" 
d="M455 14q71 0 136 55.5t112 144t82.5 197t53 218t17.5 202.5q0 130 -42.5 199.5t-127.5 69.5q-90 0 -168.5 -84.5t-128 -211t-78 -264.5t-28.5 -255q0 -130 44 -200.5t128 -70.5zM1038 1569l13 -31l-287 -121q326 -269 326 -710q0 -194 -84 -361t-231 -266.5t-320 -99.5
q-185 0 -294.5 119t-109.5 317q0 136 49.5 267t133 230.5t201 160.5t245.5 61q97 0 178 -37q-42 165 -158 293l-360 -152l-12 31l346 145q-115 112 -309 201l12 14q209 -75 358 -188z" />
    <glyph glyph-name="ntilde" unicode="&#xf1;" horiz-adv-x="1296" 
d="M1264 424l24 -14q-114 -203 -234 -316.5t-225 -113.5q-59 0 -84.5 41t-5.5 114l193 715q17 60 2 90.5t-60 30.5q-61 0 -136.5 -72t-151.5 -197.5t-150.5 -308.5t-130.5 -393h-237l278 1040q-70 -46 -151 -137.5t-154 -212.5l-23 15q114 203 233 316.5t224 113.5
q61 0 85.5 -40t4.5 -116l-137 -518q33 80 69.5 156.5t96.5 175t122 170t144 122t164 50.5q93 0 137 -68.5t15 -179.5l-215 -809q69 46 150 137t153 209zM616 1374q-79 0 -139 -84l-14 2q102 238 239 238q42 0 85.5 -21t74.5 -46.5t71.5 -46.5t76.5 -21q82 0 139 90l12 -2
q-41 -106 -104.5 -173t-138.5 -67q-44 0 -88.5 20.5t-75 45t-68.5 45t-70 20.5z" />
    <glyph glyph-name="ograve" unicode="&#xf2;" horiz-adv-x="1138" 
d="M455 14q71 0 136 55.5t112 144t82.5 197t53 216.5t17.5 200q0 132 -43.5 202.5t-128.5 70.5q-71 0 -136 -55.5t-112 -144.5t-82.5 -197.5t-53 -217t-17.5 -200.5q0 -131 44 -201t128 -70zM682 1135q186 0 297 -120t111 -315q0 -183 -82.5 -348t-230 -268.5t-322.5 -103.5
q-185 0 -294.5 119t-109.5 315q0 184 83 350t229.5 268.5t318.5 102.5zM717 1536l39 -326h-8l-340 322l2 4h307z" />
    <glyph glyph-name="oacute" unicode="&#xf3;" horiz-adv-x="1138" 
d="M455 14q71 0 136 55.5t112 144t82.5 197t53 216.5t17.5 200q0 132 -43.5 202.5t-128.5 70.5q-71 0 -136 -55.5t-112 -144.5t-82.5 -197.5t-53 -217t-17.5 -200.5q0 -131 44 -201t128 -70zM682 1135q186 0 297 -120t111 -315q0 -183 -82.5 -348t-230 -268.5t-322.5 -103.5
q-185 0 -294.5 119t-109.5 315q0 184 83 350t229.5 268.5t318.5 102.5zM672 1210l170 326h313v-4l-473 -322h-10z" />
    <glyph glyph-name="ocircumflex" unicode="&#xf4;" horiz-adv-x="1138" 
d="M455 14q71 0 136 55.5t112 144t82.5 197t53 216.5t17.5 200q0 132 -43.5 202.5t-128.5 70.5q-71 0 -136 -55.5t-112 -144.5t-82.5 -197.5t-53 -217t-17.5 -200.5q0 -131 44 -201t128 -70zM682 1135q186 0 297 -120t111 -315q0 -183 -82.5 -348t-230 -268.5t-322.5 -103.5
q-185 0 -294.5 119t-109.5 315q0 184 83 350t229.5 268.5t318.5 102.5zM1026 1225l-8 -8l-258 137l-346 -137l-4 6l376 331h5z" />
    <glyph glyph-name="otilde" unicode="&#xf5;" horiz-adv-x="1138" 
d="M455 14q71 0 136 55.5t112 144t82.5 197t53 216.5t17.5 200q0 132 -43.5 202.5t-128.5 70.5q-71 0 -136 -55.5t-112 -144.5t-82.5 -197.5t-53 -217t-17.5 -200.5q0 -131 44 -201t128 -70zM682 1135q186 0 297 -120t111 -315q0 -183 -82.5 -348t-230 -268.5t-322.5 -103.5
q-185 0 -294.5 119t-109.5 315q0 184 83 350t229.5 268.5t318.5 102.5zM862 1243q-44 0 -88.5 20.5t-74.5 45t-68 45t-70 20.5q-79 0 -139 -84l-14 2q102 238 239 238q42 0 85.5 -21t74 -46.5t71 -46.5t76.5 -21q83 0 140 90l12 -2q-41 -106 -105 -173t-139 -67z" />
    <glyph glyph-name="odieresis" unicode="&#xf6;" horiz-adv-x="1138" 
d="M682 1135q186 0 297 -120t111 -315q0 -183 -82.5 -348t-230 -268.5t-322.5 -103.5q-185 0 -294.5 119t-109.5 315q0 184 83 350t229.5 268.5t318.5 102.5zM455 14q71 0 136 55.5t112 144t82.5 197t53 216.5t17.5 200q0 132 -43.5 202.5t-128.5 70.5q-71 0 -136 -55.5
t-112 -144.5t-82.5 -197.5t-53 -217t-17.5 -200.5q0 -131 44 -201t128 -70zM963 1260q-58 0 -97 37t-39 94q0 59 39 96t97 37t95.5 -37t37.5 -96q0 -57 -38 -94t-95 -37zM541 1260q-57 0 -95 37t-38 94q0 59 37.5 96t95.5 37q60 0 96.5 -36.5t36.5 -96.5q0 -57 -37 -94
t-96 -37z" />
    <glyph glyph-name="divide" unicode="&#xf7;" horiz-adv-x="1083" 
d="M487 162q-59 0 -100 41t-41 98q0 62 40.5 103.5t100.5 41.5q61 0 102.5 -41.5t41.5 -103.5q0 -58 -41.5 -98.5t-102.5 -40.5zM639 881q-59 0 -99 40.5t-40 98.5q0 62 39.5 103.5t99.5 41.5q61 0 102 -41.5t41 -103.5q0 -58 -41 -98.5t-102 -40.5zM1012 641h-901l8 41h901
z" />
    <glyph glyph-name="oslash" unicode="&#xf8;" horiz-adv-x="1189" 
d="M481 14q82 0 156 74.5t123.5 190t81 244t39.5 245.5l-572 -475v-8q0 -131 44 -201t128 -70zM711 1100q-82 0 -156 -74t-123.5 -188.5t-81 -242.5t-39.5 -245l572 473v4q0 132 -43.5 202.5t-128.5 70.5zM1047 958l219 183l26 -33l-225 -186q47 -100 47 -222
q0 -136 -49.5 -267t-133.5 -231t-202.5 -161t-247.5 -61q-111 0 -198.5 46.5t-139.5 129.5l-223 -185l-22 35l225 187q-45 105 -45 221q0 184 83 350t229.5 268.5t318.5 102.5q231 0 338 -177z" />
    <glyph glyph-name="ugrave" unicode="&#xf9;" horiz-adv-x="1298" 
d="M1260 424l22 -14q-114 -203 -233 -316.5t-224 -113.5q-59 0 -84.5 41t-5.5 114l137 518q-26 -65 -56 -127.5t-74 -144t-94.5 -148.5t-108.5 -126.5t-126 -93t-137 -33.5q-92 0 -136 68t-15 179l215 809q-69 -46 -150 -137t-153 -209l-25 15q117 204 236 317t223 113
q63 0 87 -42t1 -120l-190 -709q-35 -121 57 -121q61 0 136.5 72t151.5 197.5t150.5 308.5t130.5 393h238l-279 -1040q73 51 154 141.5t152 208.5zM786 1536l39 -326h-8l-340 322l2 4h307z" />
    <glyph glyph-name="uacute" unicode="&#xfa;" horiz-adv-x="1298" 
d="M1260 424l22 -14q-114 -203 -233 -316.5t-224 -113.5q-59 0 -84.5 41t-5.5 114l137 518q-26 -65 -56 -127.5t-74 -144t-94.5 -148.5t-108.5 -126.5t-126 -93t-137 -33.5q-92 0 -136 68t-15 179l215 809q-69 -46 -150 -137t-153 -209l-25 15q117 204 236 317t223 113
q63 0 87 -42t1 -120l-190 -709q-35 -121 57 -121q61 0 136.5 72t151.5 197.5t150.5 308.5t130.5 393h238l-279 -1040q73 51 154 141.5t152 208.5zM1225 1536v-4l-473 -322h-11l170 326h314z" />
    <glyph glyph-name="ucircumflex" unicode="&#xfb;" horiz-adv-x="1298" 
d="M1260 424l22 -14q-114 -203 -233 -316.5t-224 -113.5q-59 0 -84.5 41t-5.5 114l137 518q-26 -65 -56 -127.5t-74 -144t-94.5 -148.5t-108.5 -126.5t-126 -93t-137 -33.5q-92 0 -136 68t-15 179l215 809q-69 -46 -150 -137t-153 -209l-25 15q117 204 236 317t223 113
q63 0 87 -42t1 -120l-190 -709q-35 -121 57 -121q61 0 136.5 72t151.5 197.5t150.5 308.5t130.5 393h238l-279 -1040q73 51 154 141.5t152 208.5zM1087 1217l-258 137l-346 -137l-4 6l377 331h4l236 -329z" />
    <glyph glyph-name="udieresis" unicode="&#xfc;" horiz-adv-x="1298" 
d="M1260 424l22 -14q-114 -203 -233 -316.5t-224 -113.5q-59 0 -84.5 41t-5.5 114l137 518q-26 -65 -56 -127.5t-74 -144t-94.5 -148.5t-108.5 -126.5t-126 -93t-137 -33.5q-92 0 -136 68t-15 179l215 809q-69 -46 -150 -137t-153 -209l-25 15q117 204 236 317t223 113
q63 0 87 -42t1 -120l-190 -709q-35 -121 57 -121q61 0 136.5 72t151.5 197.5t150.5 308.5t130.5 393h238l-279 -1040q73 51 154 141.5t152 208.5zM1032 1260q-57 0 -96 37t-39 94q0 59 38.5 96t96.5 37t95.5 -37t37.5 -96q0 -57 -38 -94t-95 -37zM610 1260q-57 0 -95 37
t-38 94q0 59 37.5 96t95.5 37q60 0 96.5 -36.5t36.5 -96.5q0 -57 -36.5 -94t-96.5 -37z" />
    <glyph glyph-name="yacute" unicode="&#xfd;" horiz-adv-x="1198" 
d="M989 1126q88 0 132 -61t44 -168q0 -139 -47.5 -291.5t-129.5 -293.5t-196 -269.5t-242 -223.5t-274.5 -151.5t-285.5 -56.5q-125 0 -200 48.5t-75 139.5q0 73 45 121q185 -168 418 -168q134 0 271 62l-115 1224q-142 -85 -307 -348l-25 15q117 204 236 317t223 113
q55 0 82.5 -35t34.5 -121l92 -1014q142 133 225.5 314.5t83.5 369.5q0 133 -27 238.5t-82 212.5q62 26 119 26zM709 1210l168 326h315l-2 -4l-473 -322h-8z" />
    <glyph glyph-name="thorn" unicode="&#xfe;" horiz-adv-x="1157" 
d="M436 16q78 0 163.5 85.5t149.5 208.5t106 262t42 243q0 148 -102 148q-37 0 -82 -28.5t-100 -94t-111.5 -162t-118 -245t-117.5 -329.5q85 -88 170 -88zM946 1135q105 0 153 -71t48 -192q0 -120 -37 -246.5t-107.5 -241t-163 -205.5t-212 -145t-246.5 -54q-76 0 -143 20
l-58 -217q-17 -60 10 -81.5t123 -33.5l33 -4l-8 -33h-582l11 33l36 8q70 12 98.5 34t41.5 77l438 1647l-119 104l2 4l410 121h4l-320 -1204q277 680 588 680z" />
    <glyph glyph-name="ydieresis" unicode="&#xff;" horiz-adv-x="1198" 
d="M989 1126q88 0 132 -61t44 -168q0 -139 -47.5 -291.5t-129.5 -293.5t-196 -269.5t-242 -223.5t-274.5 -151.5t-285.5 -56.5q-125 0 -200 48.5t-75 139.5q0 73 45 121q185 -168 418 -168q134 0 271 62l-115 1224q-142 -85 -307 -348l-25 15q117 204 236 317t223 113
q55 0 82.5 -35t34.5 -121l92 -1014q142 133 225.5 314.5t83.5 369.5q0 133 -27 238.5t-82 212.5q62 26 119 26zM596 1260q-57 0 -95 37t-38 94q0 59 37.5 96t95.5 37q60 0 97.5 -36.5t37.5 -96.5q0 -57 -37.5 -94t-97.5 -37zM1018 1260q-57 0 -95 37t-38 94q0 59 37.5 96
t95.5 37q60 0 96.5 -36.5t36.5 -96.5q0 -57 -36.5 -94t-96.5 -37z" />
    <glyph glyph-name="Amacron" unicode="&#x100;" horiz-adv-x="1388" 
d="M844 565l-109 703l-383 -703h492zM1282 41l45 -8l-6 -33h-586l8 33l58 8q65 11 89 33t17 71l-57 379h-520l-207 -379q-28 -51 -11 -72.5t97 -31.5l76 -8l-6 -33h-416l6 33l47 8q62 12 94 33.5t58 70.5l704 1289h184l218 -1291q7 -47 30.5 -68.5t77.5 -33.5zM596 1599
l8 41h621l-8 -41h-621z" />
    <glyph glyph-name="amacron" unicode="&#x101;" horiz-adv-x="1234" 
d="M365 152q47 0 106.5 47.5t129 144.5t146.5 269.5t146 396.5q-88 88 -172 88q-78 0 -163.5 -85.5t-149 -208.5t-105 -262t-41.5 -243q0 -147 103 -147zM1198 424l25 -14q-114 -203 -234 -316.5t-225 -113.5q-59 0 -83.5 41t-4.5 120l184 674h-2q-81 -225 -165.5 -390
t-166.5 -260.5t-159 -140t-154 -44.5q-105 0 -153 70.5t-48 191.5q0 120 37.5 246.5t108 241.5t163 206t212.5 145t247 54q112 0 226 -50l168 50h4l-281 -1055q68 43 147.5 133.5t153.5 210.5zM541 1305l8 41h620l-8 -41h-620z" />
    <glyph glyph-name="Abreve" unicode="&#x102;" horiz-adv-x="1388" 
d="M844 565l-109 703l-383 -703h492zM1282 41l45 -8l-6 -33h-586l8 33l58 8q65 11 89 33t17 71l-57 379h-520l-207 -379q-28 -51 -11 -72.5t97 -31.5l76 -8l-6 -33h-416l6 33l47 8q62 12 94 33.5t58 70.5l704 1289h184l218 -1291q7 -47 30.5 -68.5t77.5 -33.5zM907 1540
q-124 0 -193.5 87.5t-49.5 223.5h6q34 -149 250 -149q219 0 319 153h6q-37 -142 -124.5 -228.5t-213.5 -86.5z" />
    <glyph glyph-name="abreve" unicode="&#x103;" horiz-adv-x="1234" 
d="M365 152q47 0 106.5 47.5t129 144.5t146.5 269.5t146 396.5q-88 88 -172 88q-78 0 -163.5 -85.5t-149 -208.5t-105 -262t-41.5 -243q0 -147 103 -147zM1198 424l25 -14q-114 -203 -234 -316.5t-225 -113.5q-59 0 -83.5 41t-4.5 120l184 674h-2q-81 -225 -165.5 -390
t-166.5 -260.5t-159 -140t-154 -44.5q-105 0 -153 70.5t-48 191.5q0 120 37.5 246.5t108 241.5t163 206t212.5 145t247 54q112 0 226 -50l168 50h4l-281 -1055q68 43 147.5 133.5t153.5 210.5zM858 1241q-124 0 -193 87.5t-49 223.5h7q30 -149 249 -149q215 0 320 153h6
q-37 -142 -125.5 -228.5t-214.5 -86.5z" />
    <glyph glyph-name="Aogonek" unicode="&#x104;" horiz-adv-x="1388" 
d="M844 565l-109 703l-383 -703h492zM1282 41l45 -8l-6 -33h-387q-165 -152 -197 -209q-28 -44 -14.5 -85.5t68.5 -41.5q45 0 98 31l4 -4q-44 -57 -109 -91t-131 -34q-62 0 -96.5 30t-34.5 78q0 72 78.5 141t288.5 185h-154l8 33l58 8q65 11 89 33t17 71l-57 379h-520
l-207 -379q-28 -51 -11 -72.5t97 -31.5l76 -8l-6 -33h-416l6 33l47 8q62 12 94 33.5t58 70.5l704 1289h184l218 -1291q7 -47 30.5 -68.5t77.5 -33.5z" />
    <glyph glyph-name="aogonek" unicode="&#x105;" horiz-adv-x="1234" 
d="M365 152q47 0 106.5 47.5t129 144.5t146.5 269.5t146 396.5q-88 88 -172 88q-78 0 -163.5 -85.5t-149 -208.5t-105 -262t-41.5 -243q0 -147 103 -147zM1198 424l25 -14q-140 -246 -299 -369q-86 -67 -142 -117t-82.5 -86t-35.5 -60t-9 -50q0 -28 18.5 -46t53.5 -18
q45 0 98 31l4 -4q-44 -57 -108.5 -91t-130.5 -34q-62 0 -96.5 26.5t-34.5 71.5q0 81 85 155.5t255 164.5q-20 -4 -35 -4q-59 0 -84.5 41t-5.5 114l186 680h-2q-81 -225 -165.5 -390t-166.5 -260.5t-159 -140t-154 -44.5q-105 0 -153 70.5t-48 191.5q0 120 37.5 246.5
t108 241.5t163 206t212.5 145t247 54q112 0 226 -50l168 50h4l-283 -1059q69 45 149.5 136.5t153.5 211.5z" />
    <glyph glyph-name="Cacute" unicode="&#x106;" horiz-adv-x="1396" 
d="M754 -20q-295 0 -475.5 164.5t-180.5 453.5q0 184 70 345t189 272t279 175t337 64q249 0 487 -135l-47 -326h-20q-19 198 -130.5 313t-283.5 115q-99 0 -188.5 -40.5t-157.5 -109t-123 -157.5t-90 -189t-53.5 -201t-18.5 -194q0 -232 106 -375t283 -143q162 0 312.5 121
t224.5 307h18l-78 -366q-225 -94 -460 -94zM1167 1849h314v-4l-473 -321h-11z" />
    <glyph glyph-name="cacute" unicode="&#x107;" horiz-adv-x="954" 
d="M367 -20q-154 0 -236 113.5t-82 293.5q0 106 28.5 213.5t84 203t130.5 170t176 118t212 43.5q143 0 217 -62t74 -147q0 -70 -48.5 -124t-131.5 -61q8 172 -29.5 262.5t-118.5 90.5q-91 0 -174.5 -101t-131.5 -253t-48 -302q0 -143 48.5 -230t147.5 -87q95 0 195 81
t174 222l23 -14q-93 -203 -224 -316.5t-286 -113.5zM864 1524h314v-4l-473 -320h-11z" />
    <glyph glyph-name="Cdotaccent" unicode="&#x10a;" horiz-adv-x="1396" 
d="M754 -20q-295 0 -475.5 164.5t-180.5 453.5q0 184 70 345t189 272t279 175t337 64q249 0 487 -135l-47 -326h-20q-19 198 -130.5 313t-283.5 115q-99 0 -188.5 -40.5t-157.5 -109t-123 -157.5t-90 -189t-53.5 -201t-18.5 -194q0 -232 106 -375t283 -143q162 0 312.5 121
t224.5 307h18l-78 -366q-225 -94 -460 -94zM1053 1589q-61 0 -101.5 39.5t-40.5 97.5q0 60 40.5 100t101.5 40q60 0 99.5 -40t39.5 -100q0 -58 -40 -97.5t-99 -39.5z" />
    <glyph glyph-name="cdotaccent" unicode="&#x10b;" horiz-adv-x="954" 
d="M367 -20q-154 0 -236 113.5t-82 293.5q0 106 28.5 213.5t84 203t130.5 170t176 118t212 43.5q143 0 217 -62t74 -147q0 -70 -48.5 -124t-131.5 -61q8 172 -29.5 262.5t-118.5 90.5q-91 0 -174.5 -101t-131.5 -253t-48 -302q0 -143 48.5 -230t147.5 -87q95 0 195 81
t174 222l23 -14q-93 -203 -224 -316.5t-286 -113.5zM752 1243q-62 0 -102 38.5t-40 98.5t40 99t102 39q60 0 99.5 -39t39.5 -99t-39.5 -98.5t-99.5 -38.5z" />
    <glyph glyph-name="Ccaron" unicode="&#x10c;" horiz-adv-x="1396" 
d="M973 1454q249 0 487 -135l-47 -326h-20q-19 198 -130.5 313t-283.5 115q-99 0 -188.5 -40.5t-157.5 -109t-123 -157.5t-90 -189t-53.5 -201t-18.5 -194q0 -232 106 -375t283 -143q162 0 312.5 121t224.5 307h18l-78 -366q-225 -94 -460 -94q-295 0 -475.5 164.5
t-180.5 453.5q0 184 70 345t189 272t279 175t337 64zM1386 1855l-378 -331h-4l-236 329l8 9l258 -138l348 138z" />
    <glyph glyph-name="ccaron" unicode="&#x10d;" horiz-adv-x="954" 
d="M680 1135q143 0 217 -62t74 -147q0 -70 -48.5 -124t-131.5 -61q8 172 -29.5 262.5t-118.5 90.5q-91 0 -174.5 -101t-131.5 -253t-48 -302q0 -143 48.5 -230t147.5 -87q95 0 195 81t174 222l23 -14q-93 -203 -224 -316.5t-286 -113.5q-154 0 -236 113.5t-82 293.5
q0 106 28.5 213.5t84 203t130.5 170t176 118t212 43.5zM1096 1532l-379 -330h-4l-236 328l8 8l258 -135l349 135z" />
    <glyph glyph-name="Dcaron" unicode="&#x10e;" horiz-adv-x="1527" 
d="M666 1393l-287 -1352h192q120 0 225.5 48t183 131t134 192.5t85 235t28.5 255.5q0 223 -100.5 356.5t-284.5 133.5h-176zM225 1401l6 33h609q151 0 275 -45t207 -126t128 -193t45 -245q0 -244 -124 -433t-337.5 -290.5t-480.5 -101.5h-625l6 33l56 8q79 12 109 34.5
t42 76.5l240 1130q11 55 -8.5 79.5t-85.5 31.5zM1296 1862l4 -7l-378 -331h-4l-236 329l8 9l258 -138z" />
    <glyph glyph-name="dcaron" unicode="&#x10f;" horiz-adv-x="1259" 
d="M365 152q47 0 106.5 47.5t129 144.5t146.5 269.5t146 396.5q-88 88 -172 88q-78 0 -163.5 -85.5t-149 -208.5t-105 -262t-41.5 -243q0 -147 103 -147zM889 1534v4l409 121h5l-173 -641h3l-3 -2l-249 -936q69 44 149 134t154 210l22 -14q-114 -205 -232.5 -317.5
t-225.5 -112.5q-59 0 -84 41t-5 114l142 529q-73 -184 -150.5 -318.5t-152 -213t-145 -115.5t-140.5 -37q-105 0 -153 70.5t-48 191.5q0 99 27 204.5t75 204.5t118.5 187.5t153 154t183.5 104t205 38.5q67 0 148 -19l84 314zM1317 1204h-12l122 414h222l-4 -16z" />
    <glyph glyph-name="Dcroat" unicode="&#x110;" horiz-adv-x="1529" 
d="M520 696l-139 -655h192q120 0 225.5 48t183 131t134 192.5t85 235t28.5 255.5q0 223 -100.5 356.5t-284.5 133.5h-176l-140 -656h297l-8 -41h-297zM227 1401l6 33h609q151 0 275 -45t207 -126t128 -193t45 -245q0 -244 -124 -433t-337.5 -290.5t-480.5 -101.5h-625l7 33
l55 8q79 12 109 34.5t42 76.5l115 544h-162l10 41h160l115 545q11 56 -7.5 80t-84.5 31z" />
    <glyph glyph-name="dcroat" unicode="&#x111;" horiz-adv-x="1222" 
d="M365 152q47 0 106.5 47.5t129 144.5t146.5 269.5t146 396.5q-88 88 -172 88q-78 0 -163.5 -85.5t-149 -208.5t-105 -262t-41.5 -243q0 -147 103 -147zM1219 1346h135l-8 -41h-138l-78 -287h3l-3 -2l-249 -936q69 44 149 134t154 210l22 -14q-114 -205 -232.5 -317.5
t-225.5 -112.5q-59 0 -84 41t-5 114l142 529q-73 -184 -150.5 -318.5t-152 -213t-145 -115.5t-140.5 -37q-105 0 -153 70.5t-48 191.5q0 99 27 204.5t75 204.5t118.5 187.5t153 154t183.5 104t205 38.5q67 0 148 -19l51 189h-291l10 41h291l23 84l-117 104v4l409 121h5z" />
    <glyph glyph-name="Emacron" unicode="&#x112;" horiz-adv-x="1271" 
d="M225 1401l6 33h1033l-25 -443l-22 -6q-10 90 -33 161t-63 128t-102 88t-142 31h-215l-138 -641h162q87 0 138 52.5t112 205.5h20l-120 -557h-21q13 102 0.5 159.5t-43 78t-94.5 20.5h-162l-141 -670h241q96 0 171.5 20t146 67.5t131.5 130.5t117 206h22l-162 -465h-1114
l6 33l66 10q63 9 96 30t45 79l240 1130q12 57 -13 79.5t-81 29.5zM569 1640h619l-8 -41h-619z" />
    <glyph glyph-name="emacron" unicode="&#x113;" horiz-adv-x="944" 
d="M666 1094q-79 0 -157.5 -80.5t-134.5 -203.5t-81 -259q121 34 214.5 88t145.5 113.5t77.5 116.5t25.5 108q0 54 -24.5 85.5t-65.5 31.5zM950 952q0 -48 -23.5 -97.5t-76 -100.5t-128 -94.5t-187.5 -79.5t-246 -56q-1 -15 -4.5 -55.5t-3.5 -62.5q0 -130 47.5 -207.5
t142.5 -77.5q97 0 199 81t184 222l23 -14q-100 -202 -238.5 -316t-294.5 -114q-150 0 -227.5 103.5t-77.5 272.5q0 108 31 219t90.5 211t138.5 178.5t182.5 124.5t214.5 46q120 0 187 -51t67 -132zM1028 1305h-618l8 41h618z" />
    <glyph glyph-name="Edotaccent" unicode="&#x116;" horiz-adv-x="1271" 
d="M225 1401l6 33h1033l-25 -443l-22 -6q-10 90 -33 161t-63 128t-102 88t-142 31h-215l-138 -641h162q87 0 138 52.5t112 205.5h20l-120 -557h-21q13 102 0.5 159.5t-43 78t-94.5 20.5h-162l-141 -670h241q96 0 171.5 20t146 67.5t131.5 130.5t117 206h22l-162 -465h-1114
l6 33l66 10q63 9 96 30t45 79l240 1130q12 57 -13 79.5t-81 29.5zM897 1589q-61 0 -101 39.5t-40 97.5q0 60 40 100t101 40q60 0 99.5 -40t39.5 -100q0 -58 -40 -97.5t-99 -39.5z" />
    <glyph glyph-name="edotaccent" unicode="&#x117;" horiz-adv-x="944" 
d="M666 1094q-79 0 -157.5 -80.5t-134.5 -203.5t-81 -259q121 34 214.5 88t145.5 113.5t77.5 116.5t25.5 108q0 54 -24.5 85.5t-65.5 31.5zM471 121q97 0 199 81t184 222l23 -14q-100 -202 -238.5 -316t-294.5 -114q-150 0 -227.5 103.5t-77.5 272.5q0 108 31 219t90.5 211
t138.5 178.5t182.5 124.5t214.5 46q120 0 187 -51t67 -132q0 -48 -23.5 -97.5t-76 -100.5t-128 -94.5t-187.5 -79.5t-246 -56q-1 -15 -4.5 -55.5t-3.5 -62.5q0 -130 47.5 -207.5t142.5 -77.5zM739 1253q-61 0 -101 40t-40 98q0 60 40 99.5t101 39.5q60 0 100 -39.5t40 -99.5
q0 -57 -40.5 -97.5t-99.5 -40.5z" />
    <glyph glyph-name="Eogonek" unicode="&#x118;" horiz-adv-x="1271" 
d="M225 1401l6 33h1033l-25 -443l-22 -6q-10 90 -33 161t-63 128t-102 88t-142 31h-215l-138 -641h162q87 0 138 52.5t112 205.5h20l-120 -557h-21q13 102 0.5 159.5t-43 78t-94.5 20.5h-162l-141 -670h241q96 0 171.5 20t146 67.5t131.5 130.5t117 206h22l-162 -465
q-131 -122 -173 -174.5t-42 -97.5q0 -28 19 -46t55 -18q41 0 98 31l2 -4q-44 -57 -108.5 -91t-130.5 -34q-62 0 -96.5 30t-34.5 78q0 72 78.5 141t287.5 185h-1069l6 33l66 10q63 9 96 30t45 79l240 1130q12 57 -13 79.5t-81 29.5z" />
    <glyph glyph-name="eogonek" unicode="&#x119;" horiz-adv-x="946" 
d="M666 1094q-79 0 -157.5 -80.5t-134.5 -203.5t-81 -259q121 34 214.5 88t145.5 113.5t77.5 116.5t25.5 108q0 54 -24.5 85.5t-65.5 31.5zM471 121q97 0 199 81t184 222l23 -14q-65 -127 -129 -207q-173 -224 -233.5 -306.5t-74.5 -119.5q-20 -44 -4.5 -78.5t68.5 -34.5
q45 0 98 31l4 -4q-48 -57 -113 -91t-131 -34q-60 0 -94.5 31.5t-34.5 78.5q0 66 67 141t220 201q-77 -38 -176 -38q-150 0 -227.5 103.5t-77.5 272.5q0 108 31 219t90.5 211t138.5 178.5t182.5 124.5t214.5 46q120 0 187 -51t67 -132q0 -48 -23.5 -97.5t-76 -100.5
t-128 -94.5t-187.5 -79.5t-246 -56q-1 -15 -4.5 -55.5t-3.5 -62.5q0 -130 47.5 -207.5t142.5 -77.5z" />
    <glyph glyph-name="Ecaron" unicode="&#x11a;" horiz-adv-x="1271" 
d="M225 1401l6 33h1033l-25 -443l-22 -6q-10 90 -33 161t-63 128t-102 88t-142 31h-215l-138 -641h162q87 0 138 52.5t112 205.5h20l-120 -557h-21q13 102 0.5 159.5t-43 78t-94.5 20.5h-162l-141 -670h241q96 0 171.5 20t146 67.5t131.5 130.5t117 206h22l-162 -465h-1114
l6 33l66 10q63 9 96 30t45 79l240 1130q12 57 -13 79.5t-81 29.5zM1231 1855l-379 -331h-4l-236 329l9 9l258 -138l348 138z" />
    <glyph glyph-name="ecaron" unicode="&#x11b;" horiz-adv-x="944" 
d="M666 1094q-79 0 -157.5 -80.5t-134.5 -203.5t-81 -259q121 34 214.5 88t145.5 113.5t77.5 116.5t25.5 108q0 54 -24.5 85.5t-65.5 31.5zM950 952q0 -48 -23.5 -97.5t-76 -100.5t-128 -94.5t-187.5 -79.5t-246 -56q-1 -15 -4.5 -55.5t-3.5 -62.5q0 -130 47.5 -207.5
t142.5 -77.5q97 0 199 81t184 222l23 -14q-100 -202 -238.5 -316t-294.5 -114q-150 0 -227.5 103.5t-77.5 272.5q0 108 31 219t90.5 211t138.5 178.5t182.5 124.5t214.5 46q120 0 187 -51t67 -132zM1077 1550l6 -6l-378 -332h-5l-235 330l8 8l258 -137z" />
    <glyph glyph-name="Gbreve" unicode="&#x11e;" horiz-adv-x="1490" 
d="M918 637l6 33h579l-6 -33l-65 -10q-62 -12 -87.5 -34t-35.5 -75l-97 -444q-222 -94 -458 -94q-295 0 -475.5 164.5t-180.5 453.5q0 184 70 345t189 272t279 175t337 64q249 0 487 -135l-47 -326h-20q-19 198 -130.5 313t-283.5 115q-99 0 -188.5 -40.5t-157.5 -109
t-123 -157.5t-90 -189t-53.5 -201t-18.5 -194q0 -232 106 -375t283 -143q119 0 242 78l92 428q12 54 -6.5 76.5t-87.5 34.5zM989 1540q-124 0 -194 88t-50 223h7q34 -149 252 -149q214 0 319 153h4q-37 -142 -124.5 -228.5t-213.5 -86.5z" />
    <glyph glyph-name="gbreve" unicode="&#x11f;" horiz-adv-x="1103" 
d="M532 485q80 0 145.5 58.5t101.5 154t36 205.5q0 85 -49.5 141t-126.5 56q-123 0 -207 -123.5t-84 -290.5q0 -88 51.5 -144.5t132.5 -56.5zM588 -43l-279 100q-16 6 -39.5 17t-29.5 14q-105 -27 -168.5 -86t-63.5 -135q0 -98 92.5 -157.5t255.5 -59.5q166 0 272.5 54
t106.5 134q0 66 -147 119zM1067 1339q60 0 89 -39.5t17 -91.5t-59 -86q-91 62 -147 62q-68 0 -129 -86q98 -37 154.5 -108t56.5 -161q0 -84 -31 -149t-81.5 -104t-115 -68t-132 -42.5t-132 -26.5t-115 -21.5t-81.5 -24.5t-31 -39q0 -21 25 -38.5t91 -41.5l275 -102
q111 -41 162 -92.5t51 -118.5q0 -151 -171 -250.5t-454 -99.5q-137 0 -250.5 28t-181 80.5t-67.5 120.5q0 93 115 164t294 96q-88 57 -88 138q0 161 354 219q-164 14 -264 96t-100 205q0 165 140.5 271t359.5 106q100 0 192 -29q73 132 133 182.5t121 50.5zM719 1241
q-125 0 -195 88t-47 223h4q34 -149 252 -149q215 0 320 153h6q-38 -143 -126 -229t-214 -86z" />
    <glyph glyph-name="Gdotaccent" unicode="&#x120;" horiz-adv-x="1490" 
d="M918 637l6 33h579l-6 -33l-65 -10q-62 -12 -87.5 -34t-35.5 -75l-97 -444q-222 -94 -458 -94q-295 0 -475.5 164.5t-180.5 453.5q0 184 70 345t189 272t279 175t337 64q249 0 487 -135l-47 -326h-20q-19 198 -130.5 313t-283.5 115q-99 0 -188.5 -40.5t-157.5 -109
t-123 -157.5t-90 -189t-53.5 -201t-18.5 -194q0 -232 106 -375t283 -143q119 0 242 78l92 428q12 54 -6.5 76.5t-87.5 34.5zM1016 1589q-61 0 -101.5 39.5t-40.5 97.5q0 60 40.5 100t101.5 40q60 0 99.5 -40t39.5 -100q0 -58 -39.5 -97.5t-99.5 -39.5z" />
    <glyph glyph-name="gdotaccent" unicode="&#x121;" horiz-adv-x="1103" 
d="M532 485q80 0 145.5 58.5t101.5 154t36 205.5q0 85 -49.5 141t-126.5 56q-123 0 -207 -123.5t-84 -290.5q0 -88 51.5 -144.5t132.5 -56.5zM588 -43l-279 100q-16 6 -39.5 17t-29.5 14q-105 -27 -168.5 -86t-63.5 -135q0 -98 92.5 -157.5t255.5 -59.5q166 0 272.5 54
t106.5 134q0 66 -147 119zM1067 1339q60 0 89 -39.5t17 -91.5t-59 -86q-91 62 -147 62q-68 0 -129 -86q98 -37 154.5 -108t56.5 -161q0 -84 -31 -149t-81.5 -104t-115 -68t-132 -42.5t-132 -26.5t-115 -21.5t-81.5 -24.5t-31 -39q0 -21 25 -38.5t91 -41.5l275 -102
q111 -41 162 -92.5t51 -118.5q0 -151 -171 -250.5t-454 -99.5q-137 0 -250.5 28t-181 80.5t-67.5 120.5q0 93 115 164t294 96q-88 57 -88 138q0 161 354 219q-164 14 -264 96t-100 205q0 165 140.5 271t359.5 106q100 0 192 -29q73 132 133 182.5t121 50.5zM731 1253
q-61 0 -101 40t-40 98q0 60 40 99.5t101 39.5q60 0 99.5 -39.5t39.5 -99.5q0 -58 -40 -98t-99 -40z" />
    <glyph glyph-name="uni0122" unicode="&#x122;" horiz-adv-x="1490" 
d="M918 637l6 33h579l-6 -33l-65 -10q-62 -12 -87.5 -34t-35.5 -75l-97 -444q-222 -94 -458 -94q-295 0 -475.5 164.5t-180.5 453.5q0 184 70 345t189 272t279 175t337 64q249 0 487 -135l-47 -326h-20q-19 198 -130.5 313t-283.5 115q-99 0 -188.5 -40.5t-157.5 -109
t-123 -157.5t-90 -189t-53.5 -201t-18.5 -194q0 -232 106 -375t283 -143q119 0 242 78l92 428q12 54 -6.5 76.5t-87.5 34.5zM590 -115q55 0 91 -35.5t36 -91.5q0 -104 -91.5 -176t-232.5 -106l-4 20q71 20 110 56.5t42 74t-22.5 72t-74.5 53.5q6 60 46 96.5t100 36.5z" />
    <glyph glyph-name="uni0123" unicode="&#x123;" horiz-adv-x="1103" 
d="M532 485q80 0 145.5 58.5t101.5 154t36 205.5q0 85 -49.5 141t-126.5 56q-123 0 -207 -123.5t-84 -290.5q0 -88 51.5 -144.5t132.5 -56.5zM588 -43l-279 100q-16 6 -39.5 17t-29.5 14q-105 -27 -168.5 -86t-63.5 -135q0 -98 92.5 -157.5t255.5 -59.5q166 0 272.5 54
t106.5 134q0 66 -147 119zM1067 1339q60 0 89 -39.5t17 -91.5t-59 -86q-91 62 -147 62q-68 0 -129 -86q98 -37 154.5 -108t56.5 -161q0 -84 -31 -149t-81.5 -104t-115 -68t-132 -42.5t-132 -26.5t-115 -21.5t-81.5 -24.5t-31 -39q0 -21 25 -38.5t91 -41.5l275 -102
q111 -41 162 -92.5t51 -118.5q0 -151 -171 -250.5t-454 -99.5q-137 0 -250.5 28t-181 80.5t-67.5 120.5q0 93 115 164t294 96q-88 57 -88 138q0 161 354 219q-164 14 -264 96t-100 205q0 165 140.5 271t359.5 106q100 0 192 -29q73 132 133 182.5t121 50.5zM711 1233
q-52 0 -88.5 35.5t-36.5 91.5q0 104 93 178t230 104l4 -20q-56 -15 -93 -41t-49.5 -56t-8 -60.5t30 -56.5t65.5 -42q-8 -60 -47.5 -96.5t-99.5 -36.5z" />
    <glyph glyph-name="Hbar" unicode="&#x126;" horiz-adv-x="1630" 
d="M588 1044l-58 -278h660l57 278h-659zM1202 1393l-59 8l8 33h618l-6 -33l-63 -8q-60 -9 -94 -31t-50 -80l-40 -197h163l-10 -41h-162l-188 -892q-12 -58 12 -80t82 -31l60 -8l-7 -33h-618l6 33l61 8q63 9 97.5 31t46.5 80l121 573h-660l-121 -573q-12 -58 13.5 -80
t83.5 -31l59 -8l-6 -33h-619l7 33l63 8q63 9 97 31t46 80l189 892h-162l8 41h162l41 197q16 57 -9.5 79.5t-84.5 31.5l-60 8l6 33h619l-8 -33l-62 -8q-61 -9 -96 -31.5t-47 -79.5l-41 -197h659l41 197q12 58 -12.5 80t-83.5 31z" />
    <glyph glyph-name="hbar" unicode="&#x127;" 
d="M1196 424l23 -14q-114 -204 -233 -317t-226 -113q-58 0 -83 41t-5 114l192 715q35 121 -57 121q-84 0 -187 -122t-205 -345t-179 -504h-236l350 1305h-145l8 41h147l23 84l-117 104v4l410 121h4l-84 -313h278l-8 -41h-280l-226 -838q129 317 283.5 492.5t312.5 175.5
q93 0 136.5 -69t13.5 -179l-213 -807q69 44 149 134t154 210z" />
    <glyph glyph-name="Itilde" unicode="&#x128;" horiz-adv-x="710" 
d="M420 1653q-81 0 -141 -84l-13 2q102 237 240 237q42 0 85 -21t73.5 -46.5t70.5 -46.5t76 -21q82 0 139 90l13 -2q-41 -106 -104 -172.5t-140 -66.5q-44 0 -88 20.5t-74 45t-67.5 45t-69.5 20.5zM547 0h-619l6 33l64 8q63 9 97 31t46 80l240 1130q12 58 -13 80t-83 31
l-60 8l6 33h619l-6 -33l-64 -8q-61 -9 -96 -31.5t-47 -79.5l-240 -1130q-12 -58 13.5 -80t83.5 -31l59 -8z" />
    <glyph glyph-name="itilde" unicode="&#x129;" horiz-adv-x="667" 
d="M627 424l24 -14q-114 -203 -233.5 -316.5t-224.5 -113.5q-59 0 -85 41t-6 114l240 901q-69 -46 -148.5 -136.5t-152.5 -209.5l-23 15q117 204 236 317t223 113q59 0 83.5 -40t4.5 -116l-241 -901q69 45 149.5 136t153.5 210zM625 1243q-44 0 -88.5 20.5t-74.5 45t-68 45
t-70 20.5q-37 0 -75 -23t-65 -61l-14 2q102 238 242 238q42 0 85 -21t73.5 -46.5t70.5 -46.5t76 -21q82 0 139 90l12 -2q-41 -106 -104.5 -173t-138.5 -67z" />
    <glyph glyph-name="Imacron" unicode="&#x12a;" horiz-adv-x="710" 
d="M547 0h-619l6 33l64 8q63 9 97 31t46 80l240 1130q12 58 -13 80t-83 31l-60 8l6 33h619l-6 -33l-64 -8q-61 -9 -96 -31.5t-47 -79.5l-240 -1130q-12 -58 13.5 -80t83.5 -31l59 -8zM893 1599h-619l9 41h618z" />
    <glyph glyph-name="imacron" unicode="&#x12b;" horiz-adv-x="667" 
d="M565 979l-241 -901q69 45 149.5 136t153.5 210l24 -14q-114 -203 -233.5 -316.5t-224.5 -113.5q-59 0 -85 41t-6 114l240 901q-69 -46 -148.5 -136.5t-152.5 -209.5l-23 15q117 204 236 317t223 113q59 0 83.5 -40t4.5 -116zM201 1305l8 41h620l-8 -41h-620z" />
    <glyph glyph-name="Iogonek" unicode="&#x12e;" horiz-adv-x="710" 
d="M225 1401l6 33h619l-6 -33l-64 -8q-61 -9 -96 -31.5t-47 -79.5l-240 -1130q-12 -58 13.5 -80t83.5 -31l59 -8l-6 -33h-180q-165 -152 -197 -209q-28 -44 -15 -85.5t68 -41.5q46 0 99 31l4 -4q-44 -57 -109 -91t-131 -34q-62 0 -96.5 30t-34.5 78q0 72 78.5 141t288.5 185
h-394l6 33l64 8q63 9 97 31t46 80l240 1130q12 58 -13 80t-83 31z" />
    <glyph glyph-name="iogonek" unicode="&#x12f;" horiz-adv-x="667" 
d="M565 979l-239 -901q154 108 301 346l24 -14q-139 -242 -305 -375q-207 -161 -246 -240q-38 -74 0 -112q16 -19 52 -19q48 0 102 31l2 -4q-44 -57 -109 -91t-131 -34q-62 0 -96.5 26.5t-34.5 71.5q0 81 85.5 155.5t256.5 164.5q-20 -4 -34 -4q-59 0 -85 41t-6 114l242 901
q-69 -45 -149.5 -136t-153.5 -210l-23 15q117 204 236 317t223 113q59 0 83.5 -40t4.5 -116zM530 1253q-59 0 -99 40t-40 98q0 60 39.5 99.5t99.5 39.5q61 0 100.5 -39.5t39.5 -99.5q0 -58 -39.5 -98t-100.5 -40z" />
    <glyph glyph-name="Idotaccent" unicode="&#x130;" horiz-adv-x="710" 
d="M547 0h-619l6 33l64 8q63 9 97 31t46 80l240 1130q12 58 -13 80t-83 31l-60 8l6 33h619l-6 -33l-64 -8q-61 -9 -96 -31.5t-47 -79.5l-240 -1130q-12 -58 13.5 -80t83.5 -31l59 -8zM610 1589q-61 0 -101 39.5t-40 97.5q0 60 40 100t101 40q60 0 100 -40t40 -100
q0 -57 -40 -97t-100 -40z" />
    <glyph glyph-name="dotlessi" unicode="&#x131;" horiz-adv-x="667" 
d="M627 424l24 -14q-114 -203 -233.5 -316.5t-224.5 -113.5q-59 0 -85 41t-6 114l240 901q-69 -46 -148.5 -136.5t-152.5 -209.5l-23 15q117 204 236 317t223 113q59 0 83.5 -40t4.5 -116l-241 -901q69 45 149.5 136t153.5 210z" />
    <glyph glyph-name="uni0136" unicode="&#x136;" horiz-adv-x="1458" 
d="M494 41l59 -8l-6 -33h-619l6 33l64 8q63 9 97 31t46 80l240 1130q11 58 -13.5 80t-82.5 31l-60 8l6 33h619l-6 -33l-64 -8q-61 -9 -96 -31.5t-47 -79.5l-240 -1130q-11 -58 14 -80t83 -31zM1169 1401l7 33h460l-6 -33l-63 -8q-66 -11 -124 -32.5t-89 -47.5l-496 -434
l483 -867l-2 -12h-286l-412 756l655 559q35 29 21 49.5t-74 28.5zM674 -115q55 0 91 -35.5t36 -91.5q0 -104 -91.5 -176t-232.5 -106l-4 20q71 20 110 56.5t42 74t-22.5 72t-74.5 53.5q6 60 46 96.5t100 36.5z" />
    <glyph glyph-name="uni0137" unicode="&#x137;" horiz-adv-x="1183" 
d="M729 565l105 -489q158 111 303 348l22 -14q-114 -204 -233 -317t-226 -113q-54 0 -79 31.5t-43 115.5l-64 350q406 238 406 445q0 71 -74 71q-154 0 -319 -268t-291 -725h-236l383 1430l-117 104v4l410 121h4l-305 -1143q137 302 301.5 459.5t329.5 157.5q78 0 120.5 -33
t42.5 -94q0 -98 -115 -213t-325 -228zM373 -115q55 0 91 -35.5t36 -91.5q0 -104 -91.5 -176t-232.5 -106l-4 20q71 20 110 56.5t42 74t-22.5 72t-74.5 53.5q6 60 46 96.5t100 36.5z" />
    <glyph glyph-name="Lacute" unicode="&#x139;" horiz-adv-x="1198" 
d="M1137 481l18 -4l-166 -477h-1061l6 33l64 8q63 9 97 31t46 80l240 1130q12 58 -13 80t-83 31l-60 8l6 33h619l-6 -33l-64 -8q-61 -9 -96 -31.5t-47 -79.5l-262 -1241h258q164 0 279.5 106t224.5 334zM1030 1849v-4l-473 -321h-10l170 325h313z" />
    <glyph glyph-name="lacute" unicode="&#x13a;" horiz-adv-x="600" 
d="M266 1538l410 121h4l-424 -1581q72 50 152.5 140t150.5 206l23 -14q-114 -203 -233 -316.5t-224 -113.5q-59 0 -84.5 41t-5.5 114l346 1295l-117 104zM547 1708l170 326h313v-4l-475 -322h-8z" />
    <glyph glyph-name="uni013B" unicode="&#x13b;" horiz-adv-x="1198" 
d="M1137 481l18 -4l-166 -477h-1061l6 33l64 8q63 9 97 31t46 80l240 1130q12 58 -13 80t-83 31l-60 8l6 33h619l-6 -33l-64 -8q-61 -9 -96 -31.5t-47 -79.5l-262 -1241h258q164 0 279.5 106t224.5 334zM432 -115q54 0 89.5 -35.5t35.5 -91.5q0 -104 -91.5 -176t-232.5 -106
l-4 20q75 22 114.5 60.5t39.5 78.5q0 36 -25.5 67.5t-72.5 49.5q8 60 47.5 96.5t99.5 36.5z" />
    <glyph glyph-name="uni013C" unicode="&#x13c;" horiz-adv-x="600" 
d="M680 1659l-424 -1581q72 50 152.5 140t150.5 206l23 -14q-114 -203 -233 -316.5t-224 -113.5q-59 0 -84.5 41t-5.5 114l346 1295l-117 104l2 4l410 121h4zM141 -115q55 0 90 -35.5t35 -91.5q0 -104 -90.5 -176.5t-230.5 -105.5l-4 20q74 22 112.5 60t38.5 79
q0 36 -25.5 67.5t-72.5 49.5q8 60 47.5 96.5t99.5 36.5z" />
    <glyph glyph-name="Lcaron" unicode="&#x13d;" horiz-adv-x="1202" 
d="M375 41h258q164 0 279.5 106t224.5 334l18 -4l-166 -477h-1061l6 33l64 8q63 9 97 31t46 80l240 1130q12 58 -13 80t-83 31l-60 8l6 33h619l-6 -33l-64 -8q-61 -9 -96 -31.5t-47 -79.5zM911 1020l90 414h222l-4 -17l-295 -397h-13z" />
    <glyph glyph-name="lcaron" unicode="&#x13e;" horiz-adv-x="636" 
d="M266 1538l410 121h4l-424 -1581q72 50 152.5 140t150.5 206l23 -14q-114 -203 -233 -316.5t-224 -113.5q-59 0 -84.5 41t-5.5 114l346 1295l-117 104zM684 1204l127 414h221l-6 -16l-330 -398h-12z" />
    <glyph glyph-name="Lslash" unicode="&#x141;" horiz-adv-x="1224" 
d="M1161 481l21 -4l-166 -477h-1061l6 33l62 8q63 9 97 31t46 80l76 362l-203 -102l-14 37l229 114l152 719q12 58 -13 80t-84 31l-59 8l8 33h616l-6 -33l-61 -8q-63 -9 -97 -31t-46 -80l-121 -571l288 145l17 -41l-318 -158l-131 -616h260q161 0 277 106.5t225 333.5z" />
    <glyph glyph-name="lslash" unicode="&#x142;" horiz-adv-x="700" 
d="M524 831l-202 -755q158 111 303 348l24 -14q-114 -203 -234 -316.5t-225 -113.5q-59 0 -84.5 41t-5.5 114l138 512l-197 -127l-18 37l231 152l192 721l-116 104l2 4l409 121h4l-204 -764l184 121l23 -41z" />
    <glyph glyph-name="Nacute" unicode="&#x143;" horiz-adv-x="1529" 
d="M1239 1401l6 33h445l-7 -33l-69 -8q-68 -9 -105.5 -31.5t-48.5 -79.5l-272 -1282h-172l-586 1274l-237 -1122q-12 -58 15.5 -80t92.5 -31l64 -8l-7 -33h-444l6 33l70 8q67 9 105 31t50 80l238 1130q12 58 -11.5 80t-78.5 31l-60 8l9 33h391l561 -1176l217 1024
q12 58 -15.5 80t-90.5 31zM1477 1849v-4l-473 -321h-11l170 325h314z" />
    <glyph glyph-name="nacute" unicode="&#x144;" horiz-adv-x="1296" 
d="M1264 424l24 -14q-114 -203 -234 -316.5t-225 -113.5q-59 0 -84.5 41t-5.5 114l193 715q17 60 2 90.5t-60 30.5q-61 0 -136.5 -72t-151.5 -197.5t-150.5 -308.5t-130.5 -393h-237l278 1040q-70 -46 -151 -137.5t-154 -212.5l-23 15q114 203 233 316.5t224 113.5
q61 0 85.5 -40t4.5 -116l-137 -518q33 80 69.5 156.5t96.5 175t122 170t144 122t164 50.5q93 0 137 -68.5t15 -179.5l-215 -809q69 46 150 137t153 209zM1243 1536l-2 -4l-473 -322h-8l168 326h315z" />
    <glyph glyph-name="uni0145" unicode="&#x145;" horiz-adv-x="1529" 
d="M1239 1401l6 33h445l-7 -33l-69 -8q-68 -9 -105.5 -31.5t-48.5 -79.5l-272 -1282h-172l-586 1274l-237 -1122q-12 -58 15.5 -80t92.5 -31l64 -8l-7 -33h-444l6 33l70 8q67 9 105 31t50 80l238 1130q12 58 -11.5 80t-78.5 31l-60 8l9 33h391l561 -1176l217 1024
q12 58 -15.5 80t-90.5 31zM621 -115q55 0 91 -35.5t36 -91.5q0 -104 -91.5 -176t-232.5 -106l-4 20q71 20 110 56.5t42 74t-22.5 72t-74.5 53.5q6 60 46 96.5t100 36.5z" />
    <glyph glyph-name="uni0146" unicode="&#x146;" horiz-adv-x="1296" 
d="M1264 424l24 -14q-114 -203 -234 -316.5t-225 -113.5q-59 0 -84.5 41t-5.5 114l193 715q17 60 2 90.5t-60 30.5q-61 0 -136.5 -72t-151.5 -197.5t-150.5 -308.5t-130.5 -393h-237l278 1040q-70 -46 -151 -137.5t-154 -212.5l-23 15q114 203 233 316.5t224 113.5
q61 0 85.5 -40t4.5 -116l-137 -518q33 80 69.5 156.5t96.5 175t122 170t144 122t164 50.5q93 0 137 -68.5t15 -179.5l-215 -809q69 46 150 137t153 209zM471 -115q55 0 90 -35.5t35 -91.5q0 -104 -91 -176.5t-231 -105.5l-4 20q74 22 113 60t39 79q0 36 -25.5 67.5
t-72.5 49.5q8 60 47.5 96.5t99.5 36.5z" />
    <glyph glyph-name="Ncaron" unicode="&#x147;" horiz-adv-x="1529" 
d="M1239 1401l6 33h445l-7 -33l-69 -8q-68 -9 -105.5 -31.5t-48.5 -79.5l-272 -1282h-172l-586 1274l-237 -1122q-12 -58 15.5 -80t92.5 -31l64 -8l-7 -33h-444l6 33l70 8q67 9 105 31t50 80l238 1130q12 58 -11.5 80t-78.5 31l-60 8l9 33h391l561 -1176l217 1024
q12 58 -15.5 80t-90.5 31zM1382 1855l-376 -331h-5l-237 329l8 9l258 -138l348 138z" />
    <glyph glyph-name="ncaron" unicode="&#x148;" horiz-adv-x="1296" 
d="M1264 424l24 -14q-114 -203 -234 -316.5t-225 -113.5q-59 0 -84.5 41t-5.5 114l193 715q17 60 2 90.5t-60 30.5q-61 0 -136.5 -72t-151.5 -197.5t-150.5 -308.5t-130.5 -393h-237l278 1040q-70 -46 -151 -137.5t-154 -212.5l-23 15q114 203 233 316.5t224 113.5
q61 0 85.5 -40t4.5 -116l-137 -518q33 80 69.5 156.5t96.5 175t122 170t144 122t164 50.5q93 0 137 -68.5t15 -179.5l-215 -809q69 46 150 137t153 209zM1159 1544l-377 -332h-4l-235 330l8 8l258 -137l346 137z" />
    <glyph glyph-name="Eng" unicode="&#x14a;" horiz-adv-x="1529" 
d="M1239 1401l6 33h445l-7 -33l-69 -8q-68 -9 -105.5 -31.5t-48.5 -79.5l-235 -1110q-27 -127 -88 -233.5t-140 -176.5t-169.5 -108.5t-180.5 -38.5q-85 0 -130.5 32t-45.5 77t34 84.5t77 52.5q12 -73 71.5 -119.5t130.5 -46.5q86 0 155 80.5t69 179.5q0 84 -25 143
l-549 1186l-241 -1132q-11 -56 14 -77.5t94 -33.5l64 -8l-7 -33h-444l6 33l70 8q67 9 105 31t50 80l238 1130q11 57 -10.5 80t-79.5 31l-60 8l9 33h401l555 -1164l213 1012q11 57 -14.5 80t-91.5 31z" />
    <glyph glyph-name="eng" unicode="&#x14b;" horiz-adv-x="1224" 
d="M1024 1135q93 0 137 -68.5t15 -179.5l-189 -711q-34 -131 -99 -239.5t-144.5 -178.5t-167.5 -108.5t-173 -38.5q-94 0 -144 35.5t-50 89.5q0 44 33.5 85.5t103.5 72.5q19 -99 70.5 -153t124.5 -54q53 0 86.5 77t99.5 324l205 762q17 60 2 90.5t-60 30.5q-61 0 -136.5 -72
t-151.5 -197.5t-150.5 -308.5t-130.5 -393h-237l276 1038q-158 -111 -303 -348l-23 15q114 203 233 316.5t224 113.5q61 0 85.5 -40t4.5 -116l-137 -514q130 317 284.5 493.5t311.5 176.5z" />
    <glyph glyph-name="Omacron" unicode="&#x14c;" horiz-adv-x="1454" 
d="M625 12q104 0 196.5 65t158 170.5t113 238t70.5 270t23 264.5q0 196 -74.5 298.5t-212.5 102.5q-102 0 -193.5 -65t-157 -171t-114 -238t-72.5 -269t-24 -262q0 -196 75.5 -300t211.5 -104zM903 1454q244 0 387.5 -152.5t143.5 -406.5q0 -174 -63.5 -340.5t-170.5 -293
t-259.5 -204t-319.5 -77.5q-242 0 -386.5 154t-144.5 407q0 112 27 223.5t77 212.5t123.5 188.5t161.5 151.5t197.5 100.5t226.5 36.5zM1272 1640l-8 -41h-619l8 41h619z" />
    <glyph glyph-name="omacron" unicode="&#x14d;" horiz-adv-x="1138" 
d="M682 1135q186 0 297 -120t111 -315q0 -183 -82.5 -348t-230 -268.5t-322.5 -103.5q-185 0 -294.5 119t-109.5 315q0 184 83 350t229.5 268.5t318.5 102.5zM455 14q71 0 136 55.5t112 144t82.5 197t53 216.5t17.5 200q0 132 -43.5 202.5t-128.5 70.5q-71 0 -136 -55.5
t-112 -144.5t-82.5 -197.5t-53 -217t-17.5 -200.5q0 -131 44 -201t128 -70zM1040 1305h-620l8 41h621z" />
    <glyph glyph-name="Ohungarumlaut" unicode="&#x150;" horiz-adv-x="1454" 
d="M625 12q104 0 196.5 65t158 170.5t113 238t70.5 270t23 264.5q0 196 -74.5 298.5t-212.5 102.5q-102 0 -193.5 -65t-157 -171t-114 -238t-72.5 -269t-24 -262q0 -196 75.5 -300t211.5 -104zM903 1454q244 0 387.5 -152.5t143.5 -406.5q0 -174 -63.5 -340.5t-170.5 -293
t-259.5 -204t-319.5 -77.5q-242 0 -386.5 154t-144.5 407q0 112 27 223.5t77 212.5t123.5 188.5t161.5 151.5t197.5 100.5t226.5 36.5zM1184 1843l-420 -321h-8l172 325h258zM1487 1843l-420 -321h-8l172 325h258z" />
    <glyph glyph-name="ohungarumlaut" unicode="&#x151;" horiz-adv-x="1138" 
d="M455 14q71 0 136 55.5t112 144t82.5 197t53 216.5t17.5 200q0 132 -43.5 202.5t-128.5 70.5q-71 0 -136 -55.5t-112 -144.5t-82.5 -197.5t-53 -217t-17.5 -200.5q0 -131 44 -201t128 -70zM682 1135q186 0 297 -120t111 -315q0 -183 -82.5 -348t-230 -268.5t-322.5 -103.5
q-185 0 -294.5 119t-109.5 315q0 184 83 350t229.5 268.5t318.5 102.5zM987 1532l-422 -322h-8l172 326h258v-4zM1290 1532l-422 -322h-8l172 326h258v-4z" />
    <glyph glyph-name="OE" unicode="&#x152;" horiz-adv-x="2064" 
d="M932 152l239 1130q14 64 -15 87.5t-126 23.5q-121 0 -228 -48t-185 -131.5t-134.5 -193t-85 -235t-28.5 -255.5q0 -220 102 -354.5t283 -134.5q92 0 129 23.5t49 87.5zM1038 1434h1018l-26 -443l-23 -6q-36 408 -387 408h-168l-135 -641h162q86 0 135.5 52t111.5 206h21
l-119 -557h-20q8 106 -2 160.5t-41 76t-95 21.5h-161l-144 -670h242q137 0 234.5 36t181 130.5t149.5 257.5h25l-164 -465h-1079q-153 0 -278 47t-206.5 129.5t-125.5 193t-44 238.5q0 244 124 433.5t337 291t477 101.5z" />
    <glyph glyph-name="oe" unicode="&#x153;" horiz-adv-x="1730" 
d="M455 14q71 0 136 55.5t112 144t82.5 197t53 216.5t17.5 200q0 132 -43.5 202.5t-128.5 70.5q-71 0 -136 -55.5t-112 -144.5t-82.5 -197.5t-53 -217t-17.5 -200.5q0 -131 44 -201t128 -70zM1452 1094q-79 0 -158 -80t-135.5 -204t-81.5 -259q123 33 216.5 87.5t145 114
t76.5 116.5t25 108q0 54 -23.5 85.5t-64.5 31.5zM1255 121q97 0 200 81t185 222l23 -14q-100 -201 -240 -315.5t-293 -114.5q-191 0 -268 174q-179 -174 -407 -174q-185 0 -294.5 119t-109.5 315q0 184 83 350t229.5 268.5t318.5 102.5q125 0 218.5 -56.5t141.5 -156.5
q190 213 441 213q118 0 186 -51.5t68 -131.5q0 -48 -24 -97.5t-77 -100t-129 -94.5t-188 -80t-246 -56q-1 -15 -4.5 -55.5t-3.5 -62.5q0 -130 48 -207.5t142 -77.5z" />
    <glyph glyph-name="Racute" unicode="&#x154;" horiz-adv-x="1386" 
d="M659 1393l-155 -736h158q199 0 311 129.5t112 333.5q0 124 -77 198.5t-205 74.5h-144zM1341 1044q0 -149 -109 -253t-298 -148l366 -631l-4 -12h-270l-324 616h-206l-99 -464q-12 -56 9 -77.5t92 -33.5l55 -8l-6 -33h-619l6 33l52 8q83 14 113 35t42 76l240 1130
q11 54 -8 75.5t-88 33.5l-60 10l6 33h580q242 0 386 -107t144 -283zM877 1524h-11l170 325h314v-4z" />
    <glyph glyph-name="racute" unicode="&#x155;" horiz-adv-x="886" 
d="M895 1133q65 0 90.5 -39.5t10.5 -98t-62 -118.5q-87 69 -162 69q-56 0 -123 -88q-141 -183 -346 -858h-237l280 1038q-68 -46 -148.5 -136.5t-156.5 -211.5l-23 15q117 204 236 317t223 113q59 0 83.5 -40t4.5 -116l-125 -469q244 623 455 623zM627 1210l170 326h313v-4
l-473 -322h-10z" />
    <glyph glyph-name="uni0156" unicode="&#x156;" horiz-adv-x="1386" 
d="M659 1393l-155 -736h158q199 0 311 129.5t112 333.5q0 124 -77 198.5t-205 74.5h-144zM1341 1044q0 -149 -109 -253t-298 -148l366 -631l-4 -12h-270l-324 616h-206l-99 -464q-12 -56 9 -77.5t92 -33.5l55 -8l-6 -33h-619l6 33l52 8q83 14 113 35t42 76l240 1130
q11 54 -8 75.5t-88 33.5l-60 10l6 33h580q242 0 386 -107t144 -283zM618 -115q54 0 89.5 -35.5t35.5 -91.5q0 -104 -91 -176t-232 -106l-4 20q74 22 113.5 60t39.5 79q0 36 -25.5 67.5t-72.5 49.5q8 60 47.5 96.5t99.5 36.5z" />
    <glyph glyph-name="uni0157" unicode="&#x157;" horiz-adv-x="886" 
d="M895 1133q65 0 90.5 -39.5t10.5 -98t-62 -118.5q-87 69 -162 69q-56 0 -123 -88q-141 -183 -346 -858h-237l280 1038q-68 -46 -148.5 -136.5t-156.5 -211.5l-23 15q117 204 236 317t223 113q59 0 83.5 -40t4.5 -116l-125 -469q244 623 455 623zM141 -115q55 0 90 -35.5
t35 -91.5q0 -104 -91 -176t-232 -106l-4 20q74 22 113.5 60t39.5 79q0 36 -25.5 67.5t-72.5 49.5q8 60 47.5 96.5t99.5 36.5z" />
    <glyph glyph-name="Rcaron" unicode="&#x158;" horiz-adv-x="1386" 
d="M659 1393l-155 -736h158q199 0 311 129.5t112 333.5q0 124 -77 198.5t-205 74.5h-144zM1341 1044q0 -149 -109 -253t-298 -148l366 -631l-4 -12h-270l-324 616h-206l-99 -464q-12 -56 9 -77.5t92 -33.5l55 -8l-6 -33h-619l6 33l52 8q83 14 113 35t42 76l240 1130
q11 54 -8 75.5t-88 33.5l-60 10l6 33h580q242 0 386 -107t144 -283zM1251 1862l4 -7l-376 -331h-5l-235 329l8 9l258 -138z" />
    <glyph glyph-name="rcaron" unicode="&#x159;" horiz-adv-x="886" 
d="M895 1133q65 0 90.5 -39.5t10.5 -98t-62 -118.5q-87 69 -162 69q-56 0 -123 -88q-141 -183 -346 -858h-237l280 1038q-68 -46 -148.5 -136.5t-156.5 -211.5l-23 15q117 204 236 317t223 113q59 0 83.5 -40t4.5 -116l-125 -469q244 623 455 623zM1028 1544l-379 -332h-4
l-235 330l8 8l258 -137l348 137z" />
    <glyph glyph-name="Sacute" unicode="&#x15a;" horiz-adv-x="1085" 
d="M473 -20q-121 0 -240 39.5t-210 113.5l28 289h19q43 -165 176.5 -286.5t279.5 -121.5q106 0 178 77t72 183q0 54 -19.5 100.5t-52 82t-74.5 68.5t-89 63.5t-93.5 62.5t-88.5 70t-74.5 81.5t-52 102.5t-19.5 127q0 102 42 184t112.5 133t159 78t184.5 27q213 0 397 -121
l-43 -293h-21q-31 186 -129.5 283.5t-238.5 97.5q-125 0 -196.5 -70.5t-71.5 -181.5q0 -69 31 -127t81 -99.5t110 -81t120.5 -82t110.5 -91t81 -119.5t31 -157q0 -184 -143.5 -308t-356.5 -124zM930 1849h315l-2 -4l-473 -321h-8z" />
    <glyph glyph-name="sacute" unicode="&#x15b;" horiz-adv-x="849" 
d="M276 -20q-142 0 -227.5 61t-85.5 147q0 49 30 92.5t85 67.5q31 -141 108 -227t193 -86q73 0 125.5 44t52.5 107q0 40 -21.5 80.5t-56.5 76t-76.5 72.5t-83.5 77.5t-77 83.5t-56.5 97.5t-21.5 112.5q0 146 108 247.5t287 101.5q143 0 223 -54.5t80 -128.5q0 -46 -35 -89.5
t-98 -67.5q0 68 -27 134.5t-84 113.5t-131 47q-77 0 -124.5 -49t-47.5 -119q0 -57 36.5 -109.5t105.5 -114.5q6 -6 44 -41t48 -44.5t41.5 -41.5t42.5 -47.5t32 -45.5t29 -52t15.5 -51t7.5 -58q0 -63 -29 -122t-83 -107.5t-139.5 -78t-189.5 -29.5zM762 1536h313v-4
l-475 -322h-8z" />
    <glyph glyph-name="Scedilla" unicode="&#x15e;" horiz-adv-x="1085" 
d="M707 1454q217 0 401 -121l-43 -293h-21q-31 186 -129.5 283.5t-238.5 97.5q-125 0 -196.5 -70.5t-71.5 -181.5q0 -69 31 -127t81 -99.5t110 -81t120.5 -82t110.5 -91t81 -119.5t31 -157q0 -184 -143.5 -308t-356.5 -124h-29q-20 0 -30 2l-49 -66q71 -21 116 -66t45 -104
q0 -66 -46 -115.5t-118.5 -74t-150 -35t-152.5 -6.5l-2 75q89 -28 160 -28q73 0 116.5 29t43.5 87q0 87 -168 121l153 189q-191 28 -339 145l28 289h19q43 -165 176.5 -286.5t279.5 -121.5q106 0 178 77t72 183q0 54 -19.5 100.5t-52 82t-74.5 68.5t-89 63.5t-93.5 62.5
t-88.5 70t-74.5 81.5t-52 102.5t-19.5 127q0 100 40.5 181t109.5 133t157.5 80t186.5 28z" />
    <glyph glyph-name="scedilla" unicode="&#x15f;" horiz-adv-x="849" 
d="M559 1135q143 0 223 -54.5t80 -128.5q0 -46 -35 -89.5t-98 -67.5q0 68 -27 134.5t-84 113.5t-131 47q-77 0 -124.5 -49t-47.5 -119q0 -57 36.5 -109.5t105.5 -114.5q6 -6 44 -41t48 -44.5t41.5 -41.5t42.5 -47.5t32 -45.5t29 -52t15.5 -51t7.5 -58q0 -63 -29 -122
t-83 -107.5t-139.5 -78t-189.5 -29.5h-6l-47 -64q71 -21 116.5 -66t45.5 -104q0 -66 -46 -115.5t-118.5 -74t-150 -35t-152.5 -6.5l-2 75q89 -28 160 -28q72 0 116 29t44 87q0 87 -168 121l149 185q-115 12 -184.5 70t-69.5 134q0 49 30 92.5t85 67.5q31 -141 108 -227
t193 -86q73 0 125.5 44t52.5 107q0 40 -21.5 80.5t-56.5 76t-76.5 72.5t-83.5 77.5t-77 83.5t-56.5 97.5t-21.5 112.5q0 146 108 247.5t287 101.5z" />
    <glyph glyph-name="Scaron" unicode="&#x160;" horiz-adv-x="1085" 
d="M213 1032q0 102 42 184t112.5 133t159 78t184.5 27q213 0 397 -121l-43 -293h-21q-31 186 -129.5 283.5t-238.5 97.5q-125 0 -196.5 -70.5t-71.5 -181.5q0 -69 31 -127t81 -99.5t110 -81t120.5 -82t110.5 -91t81 -119.5t31 -157q0 -184 -143.5 -308t-356.5 -124
q-121 0 -240 39.5t-210 113.5l28 289h19q43 -165 176.5 -286.5t279.5 -121.5q106 0 178 77t72 183q0 54 -19.5 100.5t-52 82t-74.5 68.5t-89 63.5t-93.5 62.5t-88.5 70t-74.5 81.5t-52 102.5t-19.5 127zM1151 1855l-379 -331h-4l-236 329l9 9l258 -138l346 138z" />
    <glyph glyph-name="scaron" unicode="&#x161;" horiz-adv-x="849" 
d="M559 1135q143 0 223 -54.5t80 -128.5q0 -46 -35 -89.5t-98 -67.5q0 68 -27 134.5t-84 113.5t-131 47q-77 0 -124.5 -49t-47.5 -119q0 -57 36.5 -109.5t105.5 -114.5q6 -6 44 -41t48 -44.5t41.5 -41.5t42.5 -47.5t32 -45.5t29 -52t15.5 -51t7.5 -58q0 -63 -29 -122
t-83 -107.5t-139.5 -78t-189.5 -29.5q-142 0 -227.5 61t-85.5 147q0 49 30 92.5t85 67.5q31 -141 108 -227t193 -86q73 0 125.5 44t52.5 107q0 40 -21.5 80.5t-56.5 76t-76.5 72.5t-83.5 77.5t-77 83.5t-56.5 97.5t-21.5 112.5q0 146 108 247.5t287 101.5zM993 1544
l-379 -332h-4l-235 330l8 8l258 -137l346 137z" />
    <glyph glyph-name="uni0162" unicode="&#x162;" horiz-adv-x="1376" 
d="M119 975l164 459h1183l-30 -459l-23 -2q-47 420 -317 420h-99l-264 -1241q-12 -57 25 -79.5t119 -31.5l84 -8l-7 -33h-354l-63 -86q73 -21 118 -65t45 -103q0 -66 -46.5 -115.5t-119.5 -74t-150.5 -35t-152.5 -6.5v75q86 -28 158 -28t116 29t44 87q0 87 -168 121l164 201
h-357l9 33l86 8q42 4 69.5 10t55.5 17.5t44 32.5t23 51l264 1241h-102q-270 0 -496 -420z" />
    <glyph glyph-name="uni0163" unicode="&#x163;" horiz-adv-x="718" 
d="M838 1114l-11 -41h-278l-270 -1030q169 71 378 381l23 -14q-123 -204 -247.5 -317t-231.5 -113h-15q-10 0 -14 2l-51 -68q73 -21 118.5 -65t45.5 -103q0 -66 -46 -115.5t-118.5 -74t-150 -35t-152.5 -6.5l-2 75q89 -28 159 -28q72 0 115 29t43 87q0 88 -166 121l158 195
q-87 42 -49 182l235 897h-168l4 21l447 239h27l-60 -219h277z" />
    <glyph glyph-name="Tcaron" unicode="&#x164;" horiz-adv-x="1376" 
d="M119 975l164 459h1183l-30 -459l-23 -2q-47 420 -317 420h-99l-264 -1241q-12 -57 25 -79.5t119 -31.5l84 -8l-7 -33h-766l9 33l86 8q42 4 69.5 10t55.5 17.5t44 32.5t23 51l264 1241h-102q-270 0 -496 -420zM1276 1855l-377 -331h-4l-236 329l9 9l258 -138l346 138z" />
    <glyph glyph-name="tcaron" unicode="&#x165;" horiz-adv-x="718" 
d="M594 1333h27l-60 -219h277l-11 -41h-278l-270 -1030q169 71 378 381l23 -14q-123 -204 -247.5 -317t-231.5 -113q-80 0 -116.5 48t-8.5 148l235 897h-168l4 21zM664 1171l84 263h221l-4 -11l-289 -252h-12z" />
    <glyph glyph-name="Tbar" unicode="&#x166;" horiz-adv-x="1363" 
d="M113 975l163 459h1184l-30 -459l-23 -2q-47 420 -317 420h-99l-139 -656h270l-10 -41h-270l-115 -544q-12 -58 25 -80t118 -31l84 -8l-6 -33h-766l6 33l88 8q42 4 69.5 10t55 17.5t43.5 32.5t23 51l117 544h-275l8 41h275l141 656h-104q-270 0 -496 -420z" />
    <glyph glyph-name="tbar" unicode="&#x167;" horiz-adv-x="722" 
d="M840 1114l-11 -41h-278l-76 -291h219l-8 -41h-221l-184 -698q169 71 378 381l23 -14q-123 -204 -247.5 -317t-231.5 -113q-80 0 -116.5 48t-8.5 148l149 565h-149l8 41h152l75 291h-168l5 21l446 239h27l-60 -219h277z" />
    <glyph glyph-name="Utilde" unicode="&#x168;" horiz-adv-x="1460" 
d="M788 1653q-81 0 -141 -84l-12 2q102 237 239 237q42 0 85 -21t74 -46.5t71 -46.5t76 -21q82 0 139 90l12 -2q-41 -106 -104 -172.5t-140 -66.5q-44 0 -88 20.5t-74 45t-67.5 45t-69.5 20.5zM674 -20q-125 0 -228 37t-171.5 106t-95.5 169t1 226l162 764q12 58 -10 80
t-76 31l-53 8l6 33h604l-8 -33l-62 -8q-61 -9 -95.5 -31.5t-45.5 -79.5l-168 -782q-21 -105 -4 -187t64.5 -139t121.5 -87t166 -30q175 0 274 112.5t144 328.5l168 784q12 58 -15.5 80t-90.5 31l-64 8l6 33h441l-7 -33l-69 -8q-67 -9 -104.5 -31t-49.5 -80l-166 -784
q-109 -518 -575 -518z" />
    <glyph glyph-name="utilde" unicode="&#x169;" horiz-adv-x="1298" 
d="M1260 424l22 -14q-114 -203 -233 -316.5t-224 -113.5q-59 0 -84.5 41t-5.5 114l137 518q-26 -65 -56 -127.5t-74 -144t-94.5 -148.5t-108.5 -126.5t-126 -93t-137 -33.5q-92 0 -136 68t-15 179l215 809q-69 -46 -150 -137t-153 -209l-25 15q117 204 236 317t223 113
q63 0 87 -42t1 -120l-190 -709q-35 -121 57 -121q61 0 136.5 72t151.5 197.5t150.5 308.5t130.5 393h238l-279 -1040q73 51 154 141.5t152 208.5zM940 1243q-44 0 -88.5 20.5t-74.5 45t-68 45t-70 20.5q-37 0 -74.5 -23t-64.5 -61l-15 2q102 238 242 238q42 0 85 -21
t73.5 -46.5t70.5 -46.5t76 -21q82 0 139 90l13 -2q-41 -106 -105 -173t-139 -67z" />
    <glyph glyph-name="Umacron" unicode="&#x16a;" horiz-adv-x="1460" 
d="M674 -20q-125 0 -228 37t-171.5 106t-95.5 169t1 226l162 764q12 58 -10 80t-76 31l-53 8l6 33h604l-8 -33l-62 -8q-61 -9 -95.5 -31.5t-45.5 -79.5l-168 -782q-21 -105 -4 -187t64.5 -139t121.5 -87t166 -30q175 0 274 112.5t144 328.5l168 784q12 58 -15.5 80t-90.5 31
l-64 8l6 33h441l-7 -33l-69 -8q-67 -9 -104.5 -31t-49.5 -80l-166 -784q-109 -518 -575 -518zM1335 1599h-618l8 41h618z" />
    <glyph glyph-name="umacron" unicode="&#x16b;" horiz-adv-x="1298" 
d="M1260 424l22 -14q-114 -203 -233 -316.5t-224 -113.5q-59 0 -84.5 41t-5.5 114l137 518q-26 -65 -56 -127.5t-74 -144t-94.5 -148.5t-108.5 -126.5t-126 -93t-137 -33.5q-92 0 -136 68t-15 179l215 809q-69 -46 -150 -137t-153 -209l-25 15q117 204 236 317t223 113
q63 0 87 -42t1 -120l-190 -709q-35 -121 57 -121q61 0 136.5 72t151.5 197.5t150.5 308.5t130.5 393h238l-279 -1040q73 51 154 141.5t152 208.5zM498 1346h620l-8 -41h-621z" />
    <glyph glyph-name="Uring" unicode="&#x16e;" horiz-adv-x="1460" 
d="M1040 1569q68 0 115 44t47 111q0 60 -41 100t-102 40q-67 0 -113.5 -47t-46.5 -113q0 -61 39.5 -98t101.5 -37zM674 -20q-125 0 -228 37t-171.5 106t-95.5 169t1 226l162 764q12 58 -10 80t-76 31l-53 8l6 33h604l-8 -33l-62 -8q-61 -9 -95.5 -31.5t-45.5 -79.5
l-168 -782q-21 -105 -4 -187t64.5 -139t121.5 -87t166 -30q175 0 274 112.5t144 328.5l168 784q12 58 -15.5 80t-90.5 31l-64 8l6 33h441l-7 -33l-69 -8q-67 -9 -104.5 -31t-49.5 -80l-166 -784q-109 -518 -575 -518zM1034 1524q-80 0 -131 48.5t-51 129.5q0 87 61.5 147
t153.5 60q80 0 131 -49.5t51 -128.5q0 -88 -61.5 -147.5t-153.5 -59.5z" />
    <glyph glyph-name="uring" unicode="&#x16f;" horiz-adv-x="1298" 
d="M834 1569q-68 0 -114 -46.5t-46 -113.5q0 -61 39.5 -98t101.5 -37q68 0 114 44.5t46 111.5q0 60 -40 99.5t-101 39.5zM1260 424l22 -14q-114 -203 -233 -316.5t-224 -113.5q-59 0 -84.5 41t-5.5 114l137 518q-26 -65 -56 -127.5t-74 -144t-94.5 -148.5t-108.5 -126.5
t-126 -93t-137 -33.5q-92 0 -136 68t-15 179l215 809q-69 -46 -150 -137t-153 -209l-25 15q117 204 236 317t223 113q63 0 87 -42t1 -120l-190 -709q-35 -121 57 -121q61 0 136.5 72t151.5 197.5t150.5 308.5t130.5 393h238l-279 -1040q73 51 154 141.5t152 208.5zM809 1229
q-80 0 -131 48.5t-51 129.5q0 87 61 147t152 60q82 0 133 -49.5t51 -128.5q0 -88 -61.5 -147.5t-153.5 -59.5z" />
    <glyph glyph-name="Uhungarumlaut" unicode="&#x170;" horiz-adv-x="1460" 
d="M674 -20q-125 0 -228 37t-171.5 106t-95.5 169t1 226l162 764q12 58 -10 80t-76 31l-53 8l6 33h604l-8 -33l-62 -8q-61 -9 -95.5 -31.5t-45.5 -79.5l-168 -782q-21 -105 -4 -187t64.5 -139t121.5 -87t166 -30q175 0 274 112.5t144 328.5l168 784q12 58 -15.5 80t-90.5 31
l-64 8l6 33h441l-7 -33l-69 -8q-67 -9 -104.5 -31t-49.5 -80l-166 -784q-109 -518 -575 -518zM836 1522h-11l172 325h258v-4zM1139 1522h-11l172 325h259v-4z" />
    <glyph glyph-name="uhungarumlaut" unicode="&#x171;" horiz-adv-x="1298" 
d="M1233 1114l-279 -1040q73 51 154 141.5t152 208.5l22 -14q-114 -203 -233 -316.5t-224 -113.5q-59 0 -84.5 41t-5.5 114l137 518q-26 -65 -56 -127.5t-74 -144t-94.5 -148.5t-108.5 -126.5t-126 -93t-137 -33.5q-92 0 -136 68t-15 179l215 809q-69 -46 -150 -137
t-153 -209l-25 15q117 204 236 317t223 113q63 0 87 -42t1 -120l-190 -709q-35 -121 57 -121q61 0 136.5 72t151.5 197.5t150.5 308.5t130.5 393h238zM1057 1536v-4l-422 -322h-8l172 326h258zM930 1210l172 326h258v-4l-422 -322h-8z" />
    <glyph glyph-name="Uogonek" unicode="&#x172;" horiz-adv-x="1466" 
d="M1196 1401l8 33h441l-7 -33l-73 -10q-78 -12 -109 -33.5t-41 -75.5l-166 -784q-50 -224 -162 -353q-118 -142 -179 -227t-76 -120.5t-15 -69.5q0 -28 18.5 -46t53.5 -18q45 0 98 31l4 -4q-44 -57 -110 -91t-133 -34q-60 0 -93.5 31.5t-33.5 78.5q0 70 78.5 152.5
t252.5 214.5q-123 -63 -272 -63q-126 0 -229 35t-174.5 104.5t-96.5 174.5t4 245l158 743q10 54 -6 75.5t-76 33.5l-59 10l8 33h602l-6 -33l-66 -10q-71 -12 -100 -33.5t-39 -75.5l-160 -758q-23 -118 -7 -206t66 -146t122 -86.5t161 -28.5q329 0 418 441l168 784
q10 54 -10 75.5t-92 33.5z" />
    <glyph glyph-name="uogonek" unicode="&#x173;" horiz-adv-x="1298" 
d="M1260 424l22 -14q-136 -245 -297 -369q-212 -165 -250 -246q-38 -74 0 -112q16 -19 53 -19q46 0 99 31l4 -4q-44 -57 -109 -91t-131 -34q-62 0 -96.5 26.5t-34.5 71.5q0 81 85 155.5t255 164.5q-20 -4 -35 -4q-59 0 -84.5 41t-5.5 114l137 518q-26 -65 -56 -127.5
t-74 -144t-94.5 -148.5t-108.5 -126.5t-126 -93t-137 -33.5q-92 0 -136 68t-15 179l215 809q-69 -46 -150 -137t-153 -209l-25 15q117 204 236 317t223 113q63 0 87 -42t1 -120l-190 -709q-35 -121 57 -121q61 0 136.5 72t151.5 197.5t150.5 308.5t130.5 393h238l-277 -1038
q70 46 150.5 137t153.5 211z" />
    <glyph glyph-name="Wcircumflex" unicode="&#x174;" horiz-adv-x="2058" 
d="M1837 1401l6 33h420l-6 -33l-49 -8q-23 -5 -39 -10t-36.5 -16t-38 -31.5t-32.5 -49.5l-641 -1286h-178l-135 1182l-553 -1182h-182l-115 1286q-3 38 -14.5 61.5t-23 31.5t-30.5 14l-26 8l6 33h537l-7 -33l-61 -8q-61 -8 -88 -29.5t-23 -77.5l64 -1091l582 1239h172
l120 -1252l547 1104q27 56 1 77.5t-101 29.5zM1620 1528l-258 137l-348 -137l-4 6l376 332h5l237 -330z" />
    <glyph glyph-name="wcircumflex" unicode="&#x175;" horiz-adv-x="1738" 
d="M1565 1126q85 0 126.5 -59t41.5 -160q0 -84 -28.5 -185t-78.5 -204t-125.5 -200t-163.5 -172t-198.5 -120.5t-223.5 -45.5q-96 0 -129.5 64.5t-5.5 166.5l117 438q-22 -54 -46.5 -107.5t-61 -122t-74.5 -128t-87 -118t-99 -100t-109.5 -67.5t-118.5 -26q-92 0 -136 68
t-15 179l215 807q-70 -43 -150 -133.5t-154 -210.5l-22 15q114 203 233 316.5t224 113.5q61 0 85.5 -40t4.5 -116l-193 -715q-17 -60 -2 -90.5t60 -30.5q85 0 187.5 122t204.5 345.5t177 503.5h237l-256 -952q-16 -54 -4.5 -78.5t60.5 -24.5q64 0 174.5 63t200.5 171
q60 70 97 151.5t49.5 182.5t-17.5 223t-105 252q56 24 109 24zM1440 1217l-258 137l-346 -137l-7 6l379 331h4l236 -329z" />
    <glyph glyph-name="Ycircumflex" unicode="&#x176;" horiz-adv-x="1325" 
d="M1114 1401l8 33h410l-6 -33l-43 -8q-57 -12 -92.5 -33.5t-67.5 -63.5l-506 -665l-100 -479q-12 -58 15.5 -80t92.5 -31l64 -8l-6 -33h-654l7 33l69 8q68 9 106 31.5t50 79.5l100 477l-285 671q-27 72 -96 93l-26 8l6 33h557l-6 -33l-72 -8q-60 -7 -79.5 -25t-0.5 -68
l250 -604l461 600q20 27 23.5 45t-11.5 28t-35.5 15t-58.5 9zM1247 1528l-258 137l-348 -137l-4 6l377 332h4l237 -330z" />
    <glyph glyph-name="ycircumflex" unicode="&#x177;" horiz-adv-x="1198" 
d="M989 1126q88 0 132 -61t44 -168q0 -139 -47.5 -291.5t-129.5 -293.5t-196 -269.5t-242 -223.5t-274.5 -151.5t-285.5 -56.5q-125 0 -200 48.5t-75 139.5q0 73 45 121q185 -168 418 -168q134 0 271 62l-115 1224q-142 -85 -307 -348l-25 15q117 204 236 317t223 113
q55 0 82.5 -35t34.5 -121l92 -1014q142 133 225.5 314.5t83.5 369.5q0 133 -27 238.5t-82 212.5q62 26 119 26zM1075 1217l-258 137l-348 -137l-4 6l379 331h4l235 -329z" />
    <glyph glyph-name="Ydieresis" unicode="&#x178;" horiz-adv-x="1325" 
d="M1114 1401l8 33h410l-6 -33l-43 -8q-57 -12 -92.5 -33.5t-67.5 -63.5l-506 -665l-100 -479q-12 -58 15.5 -80t92.5 -31l64 -8l-6 -33h-654l7 33l69 8q68 9 106 31.5t50 79.5l100 477l-285 671q-27 72 -96 93l-26 8l6 33h557l-6 -33l-72 -8q-60 -7 -79.5 -25t-0.5 -68
l250 -604l461 600q20 27 23.5 45t-11.5 28t-35.5 15t-58.5 9zM1194 1591q-57 0 -95 37t-38 94q0 59 37.5 96t95.5 37q60 0 97.5 -36.5t37.5 -96.5q0 -57 -37.5 -94t-97.5 -37zM774 1591q-57 0 -96 37t-39 94q0 59 38.5 96t96.5 37t95.5 -37t37.5 -96q0 -57 -38 -94t-95 -37z
" />
    <glyph glyph-name="Zacute" unicode="&#x179;" horiz-adv-x="1265" 
d="M338 1434h1044l-4 -25l-1112 -1368h303q103 0 184 26.5t153.5 87t135 146.5t134.5 217h20l-197 -518h-1081l4 25l1120 1368h-303q-153 0 -274.5 -93.5t-269.5 -324.5l-21 2zM1350 1849v-4l-473 -321h-11l170 325h314z" />
    <glyph glyph-name="zacute" unicode="&#x17a;" horiz-adv-x="1001" 
d="M946 1130q36 0 60 -16.5t30 -42.5t-13.5 -63.5t-64.5 -75.5l-647 -533l297 -321q158 91 314 348l22 -16q-115 -206 -229.5 -318t-218.5 -112q-69 0 -154.5 57t-224.5 196q-38 -44 -48.5 -99.5t3.5 -143.5q-27 -8 -56 -8q-41 0 -69 22q-37 30 -23.5 80t74.5 102l692 572
l-262 278q-143 -82 -311 -346l-23 15q115 205 230 317.5t219 112.5q69 0 143.5 -45.5t179.5 -153.5q52 92 29 184q27 10 51 10zM711 1210l170 326h313v-4l-475 -322h-8z" />
    <glyph glyph-name="Zdotaccent" unicode="&#x17b;" horiz-adv-x="1265" 
d="M338 1434h1044l-4 -25l-1112 -1368h303q103 0 184 26.5t153.5 87t135 146.5t134.5 217h20l-197 -518h-1081l4 25l1120 1368h-303q-153 0 -274.5 -93.5t-269.5 -324.5l-21 2zM922 1589q-61 0 -101.5 39.5t-40.5 97.5q0 60 40.5 100t101.5 40q60 0 99.5 -40t39.5 -100
q0 -58 -39.5 -97.5t-99.5 -39.5z" />
    <glyph glyph-name="zdotaccent" unicode="&#x17c;" horiz-adv-x="1001" 
d="M946 1130q36 0 60 -16.5t30 -42.5t-13.5 -63.5t-64.5 -75.5l-647 -533l297 -321q158 91 314 348l22 -16q-115 -206 -229.5 -318t-218.5 -112q-69 0 -154.5 57t-224.5 196q-38 -44 -48.5 -99.5t3.5 -143.5q-27 -8 -56 -8q-41 0 -69 22q-37 30 -23.5 80t74.5 102l692 572
l-262 278q-143 -82 -311 -346l-23 15q115 205 230 317.5t219 112.5q69 0 143.5 -45.5t179.5 -153.5q52 92 29 184q27 10 51 10zM768 1253q-61 0 -101 40t-40 98q0 60 40 99.5t101 39.5q60 0 99.5 -39.5t39.5 -99.5q0 -58 -40 -98t-99 -40z" />
    <glyph glyph-name="Zcaron" unicode="&#x17d;" horiz-adv-x="1265" 
d="M338 1434h1044l-4 -25l-1112 -1368h303q103 0 184 26.5t153.5 87t135 146.5t134.5 217h20l-197 -518h-1081l4 25l1120 1368h-303q-153 0 -274.5 -93.5t-269.5 -324.5l-21 2zM1255 1855l-378 -331h-5l-235 329l8 9l258 -138l348 138z" />
    <glyph glyph-name="zcaron" unicode="&#x17e;" horiz-adv-x="1001" 
d="M946 1130q36 0 60 -16.5t30 -42.5t-13.5 -63.5t-64.5 -75.5l-647 -533l297 -321q158 91 314 348l22 -16q-115 -206 -229.5 -318t-218.5 -112q-69 0 -154.5 57t-224.5 196q-38 -44 -48.5 -99.5t3.5 -143.5q-27 -8 -56 -8q-41 0 -69 22q-37 30 -23.5 80t74.5 102l692 572
l-262 278q-143 -82 -311 -346l-23 15q115 205 230 317.5t219 112.5q69 0 143.5 -45.5t179.5 -153.5q52 92 29 184q27 10 51 10zM1112 1544l-379 -332h-4l-235 330l8 8l258 -137l346 137z" />
    <glyph glyph-name="florin" unicode="&#x192;" horiz-adv-x="1179" 
d="M1139 1454q76 0 121 -36t45 -91q0 -79 -88 -145q-33 75 -110 125.5t-149 50.5q-25 0 -49 -84q-15 -43 -67 -219.5t-92 -292.5h321l-10 -41h-326q-24 -68 -46.5 -126t-59 -137t-73.5 -142t-88 -128t-104 -108.5t-120 -71.5t-138 -28q-75 0 -120 36.5t-45 89.5
q0 36 23.5 75.5t66.5 70.5q35 -65 113 -120.5t143 -55.5q19 0 47.5 83.5t81.5 259t100 302.5h-297l10 41h301q25 65 47 118.5t58.5 128t72.5 132.5t85.5 119t100 101.5t114.5 66.5t131 26z" />
    <glyph glyph-name="Ohorn" unicode="&#x1a0;" horiz-adv-x="1454" 
d="M625 12q104 0 196.5 65t158 170.5t113 238t70.5 270t23 264.5q0 196 -74.5 298.5t-212.5 102.5q-102 0 -193.5 -65t-157 -171t-114 -238t-72.5 -269t-24 -262q0 -196 75.5 -300t211.5 -104zM903 1454q263 0 408 -178q90 55 102 121q8 40 -18.5 77.5t-81.5 61.5
q10 50 51.5 84.5t89.5 34.5q56 0 83 -41t15 -101q-15 -74 -73 -144t-148 -118q103 -144 103 -356q0 -174 -63.5 -340.5t-170.5 -293t-259.5 -204t-319.5 -77.5q-242 0 -386.5 154t-144.5 407q0 112 27 223.5t77 212.5t123.5 188.5t161.5 151.5t197.5 100.5t226.5 36.5z" />
    <glyph glyph-name="ohorn" unicode="&#x1a1;" horiz-adv-x="1138" 
d="M455 14q71 0 136 55.5t112 144t82.5 197t53 216.5t17.5 200q0 132 -43.5 202.5t-128.5 70.5q-71 0 -136 -55.5t-112 -144.5t-82.5 -197.5t-53 -217t-17.5 -200.5q0 -131 44 -201t128 -70zM682 1135q107 0 192 -42.5t138 -119.5q80 55 92 117q8 40 -18.5 77.5t-81.5 61.5
q10 50 51.5 84.5t89.5 34.5q56 0 83 -41t15 -101q-15 -74 -71.5 -143t-143.5 -115q62 -111 62 -248q0 -183 -82.5 -348t-230 -268.5t-322.5 -103.5q-185 0 -294.5 119t-109.5 315q0 184 83 350t229.5 268.5t318.5 102.5z" />
    <glyph glyph-name="Uhorn" unicode="&#x1af;" horiz-adv-x="1460" 
d="M674 -20q-125 0 -228 37t-171.5 106t-95.5 169t1 226l162 764q12 58 -10 80t-76 31l-53 8l6 33h604l-8 -33l-62 -8q-61 -9 -95.5 -31.5t-45.5 -79.5l-168 -782q-21 -105 -4 -187t64.5 -139t121.5 -87t166 -30q175 0 274 112.5t144 328.5l168 784q12 58 -15.5 80t-90.5 31
l-64 8l6 33h301l-6 -33q-36 -15 -53.5 -37.5t-30.5 -81.5l-10 -47q76 33 122.5 75t55.5 87q8 40 -18.5 77.5t-81.5 61.5q10 50 51.5 84.5t89.5 34.5q56 0 83 -41t15 -101q-21 -95 -105.5 -178.5t-217.5 -124.5l-150 -712q-109 -518 -575 -518z" />
    <glyph glyph-name="uhorn" unicode="&#x1b0;" horiz-adv-x="1298" 
d="M1260 424l22 -14q-114 -203 -233 -316.5t-224 -113.5q-59 0 -84.5 41t-5.5 114l137 518q-26 -65 -56 -127.5t-74 -144t-94.5 -148.5t-108.5 -126.5t-126 -93t-137 -33.5q-92 0 -136 68t-15 179l215 809q-69 -46 -150 -137t-153 -209l-25 15q117 204 236 317t223 113
q63 0 87 -42t1 -120l-190 -709q-35 -121 57 -121q61 0 136.5 72t151.5 197.5t150.5 308.5t130.5 393h238l-49 -184q74 32 119.5 74t54.5 86q8 40 -19 77t-82 62q10 50 52 84.5t90 34.5q56 0 83 -41t15 -101q-21 -95 -105.5 -178.5t-215.5 -124.5l-222 -829q73 51 154 141.5
t152 208.5z" />
    <glyph glyph-name="uni01CD" unicode="&#x1cd;" horiz-adv-x="1388" 
d="M844 565l-109 703l-383 -703h492zM1282 41l45 -8l-6 -33h-586l8 33l58 8q65 11 89 33t17 71l-57 379h-520l-207 -379q-28 -51 -11 -72.5t97 -31.5l76 -8l-6 -33h-416l6 33l47 8q62 12 94 33.5t58 70.5l704 1289h184l218 -1291q7 -47 30.5 -68.5t77.5 -33.5zM1262 1862
l4 -7l-377 -331h-4l-236 329l8 9l258 -138z" />
    <glyph glyph-name="uni01CE" unicode="&#x1ce;" horiz-adv-x="1234" 
d="M365 152q47 0 106.5 47.5t129 144.5t146.5 269.5t146 396.5q-88 88 -172 88q-78 0 -163.5 -85.5t-149 -208.5t-105 -262t-41.5 -243q0 -147 103 -147zM1198 424l25 -14q-114 -203 -234 -316.5t-225 -113.5q-59 0 -83.5 41t-4.5 120l184 674h-2q-81 -225 -165.5 -390
t-166.5 -260.5t-159 -140t-154 -44.5q-105 0 -153 70.5t-48 191.5q0 120 37.5 246.5t108 241.5t163 206t212.5 145t247 54q112 0 226 -50l168 50h4l-281 -1055q68 43 147.5 133.5t153.5 210.5zM1210 1550l4 -6l-376 -332h-4l-238 330l8 8l258 -137z" />
    <glyph glyph-name="uni0218" unicode="&#x218;" horiz-adv-x="1085" 
d="M473 -20q-121 0 -240 39.5t-210 113.5l28 289h19q43 -165 176.5 -286.5t279.5 -121.5q106 0 178 77t72 183q0 54 -19.5 100.5t-52 82t-74.5 68.5t-89 63.5t-93.5 62.5t-88.5 70t-74.5 81.5t-52 102.5t-19.5 127q0 102 42 184t112.5 133t159 78t184.5 27q213 0 397 -121
l-43 -293h-21q-31 186 -129.5 283.5t-238.5 97.5q-125 0 -196.5 -70.5t-71.5 -181.5q0 -69 31 -127t81 -99.5t110 -81t120.5 -82t110.5 -91t81 -119.5t31 -157q0 -184 -143.5 -308t-356.5 -124zM154 -524l-4 20q71 20 110 56.5t42 74t-22.5 72t-74.5 53.5q6 60 45.5 96.5
t99.5 36.5q55 0 91 -35.5t36 -91.5q0 -104 -91 -176t-232 -106z" />
    <glyph glyph-name="uni0219" unicode="&#x219;" horiz-adv-x="849" 
d="M276 -20q-142 0 -227.5 61t-85.5 147q0 49 30 92.5t85 67.5q31 -141 108 -227t193 -86q73 0 125.5 44t52.5 107q0 40 -21.5 80.5t-56.5 76t-76.5 72.5t-83.5 77.5t-77 83.5t-56.5 97.5t-21.5 112.5q0 146 108 247.5t287 101.5q143 0 223 -54.5t80 -128.5q0 -46 -35 -89.5
t-98 -67.5q0 68 -27 134.5t-84 113.5t-131 47q-77 0 -124.5 -49t-47.5 -119q0 -57 36.5 -109.5t105.5 -114.5q6 -6 44 -41t48 -44.5t41.5 -41.5t42.5 -47.5t32 -45.5t29 -52t15.5 -51t7.5 -58q0 -63 -29 -122t-83 -107.5t-139.5 -78t-189.5 -29.5zM12 -524l-4 20
q71 20 110 56.5t42 74t-22.5 72t-74.5 53.5q6 60 46 96.5t100 36.5q55 0 91 -35.5t36 -91.5q0 -104 -91.5 -176t-232.5 -106z" />
    <glyph glyph-name="uni021A" unicode="&#x21a;" horiz-adv-x="1376" 
d="M119 975l164 459h1183l-30 -459l-23 -2q-47 420 -317 420h-99l-264 -1241q-12 -57 25 -79.5t119 -31.5l84 -8l-7 -33h-766l9 33l86 8q42 4 69.5 10t55.5 17.5t44 32.5t23 51l264 1241h-102q-270 0 -496 -420zM524 -115q54 0 89.5 -35.5t35.5 -91.5q0 -104 -91 -176
t-232 -106l-4 20q74 22 113.5 60t39.5 79q0 36 -25.5 67.5t-72.5 49.5q8 60 47.5 96.5t99.5 36.5z" />
    <glyph glyph-name="uni021B" unicode="&#x21b;" horiz-adv-x="718" 
d="M838 1114l-11 -41h-278l-270 -1030q169 71 378 381l23 -14q-123 -204 -247.5 -317t-231.5 -113q-80 0 -116.5 48t-8.5 148l235 897h-168l4 21l447 239h27l-60 -219h277zM109 -115q54 0 89 -35t35 -92q0 -104 -90.5 -176.5t-230.5 -105.5l-4 20q74 22 112.5 60t38.5 79
q0 36 -25.5 67.5t-72.5 49.5q8 60 48 96.5t100 36.5z" />
    <glyph glyph-name="uni0237" unicode="&#x237;" horiz-adv-x="593" 
d="M477 1135q59 0 83.5 -40t4.5 -116l-213 -803q-36 -131 -101 -239.5t-144.5 -178.5t-166.5 -108.5t-171 -38.5q-94 0 -144.5 35.5t-50.5 89.5q0 99 137 158q19 -99 69.5 -153t123.5 -54q20 0 35 7t30.5 30t27 47t28 78t30 101.5t37.5 137.5l252 948q-70 -46 -150 -136.5
t-153 -209.5l-23 15q117 204 236 317t223 113z" />
    <glyph glyph-name="circumflex" unicode="&#x2c6;" 
d="M831 1554l236 -329l-8 -8l-258 137l-348 -137l-4 6l378 331h4z" />
    <glyph glyph-name="caron" unicode="&#x2c7;" 
d="M782 1413l346 137l5 -6l-377 -332h-4l-236 330l8 8z" />
    <glyph glyph-name="breve" unicode="&#x2d8;" 
d="M776 1241q-123 0 -192 88t-49 223h6q34 -149 250 -149q214 0 319 153h6q-37 -142 -125.5 -228.5t-214.5 -86.5z" />
    <glyph glyph-name="dotaccent" unicode="&#x2d9;" 
d="M793 1253q-61 0 -101.5 40t-40.5 98q0 60 40.5 99.5t101.5 39.5q60 0 99.5 -39.5t39.5 -99.5q0 -58 -40 -98t-99 -40z" />
    <glyph glyph-name="ring" unicode="&#x2da;" 
d="M782 1229q-80 0 -131 48.5t-51 129.5q0 87 61 147t152 60q82 0 133 -49.5t51 -128.5q0 -88 -61.5 -147.5t-153.5 -59.5zM788 1274q68 0 114 44.5t46 111.5q0 60 -40 99.5t-101 39.5q-68 0 -114 -46.5t-46 -113.5q0 -61 39.5 -98t101.5 -37z" />
    <glyph glyph-name="ogonek" unicode="&#x2db;" 
d="M221 -434q-62 0 -96.5 30t-34.5 78q0 75 85 147t317 197l10 -18q-131 -122 -173 -174.5t-42 -97.5q0 -28 18.5 -46t54.5 -18q42 0 99 31l2 -4q-44 -57 -109 -91t-131 -34z" />
    <glyph glyph-name="tilde" unicode="&#x2dc;" 
d="M897 1243q-44 0 -88.5 20.5t-74.5 45t-68 45t-70 20.5q-37 0 -74.5 -23t-64.5 -61l-15 2q102 238 242 238q42 0 85 -21t73.5 -46.5t70.5 -46.5t76 -21q82 0 139 90l13 -2q-41 -106 -105 -173t-139 -67z" />
    <glyph glyph-name="hungarumlaut" unicode="&#x2dd;" 
d="M606 1210h-10l172 326h258v-4zM909 1210h-10l172 326h258v-4z" />
    <glyph glyph-name="gravecomb" unicode="&#x300;" 
d="M797 1210h-11l-337 322v4h307z" />
    <glyph glyph-name="acutecomb" unicode="&#x301;" 
d="M903 1536h314v-4l-476 -322h-8z" />
    <glyph glyph-name="uni0302" unicode="&#x302;" 
d="M831 1554l236 -329l-8 -8l-258 137l-348 -137l-4 6l378 331h4z" />
    <glyph glyph-name="tildecomb" unicode="&#x303;" 
d="M897 1243q-44 0 -88.5 20.5t-74.5 45t-68 45t-70 20.5q-37 0 -74.5 -23t-64.5 -61l-15 2q102 238 242 238q42 0 85 -21t73.5 -46.5t70.5 -46.5t76 -21q82 0 139 90l13 -2q-41 -106 -105 -173t-139 -67z" />
    <glyph glyph-name="uni0306" unicode="&#x306;" 
d="M776 1241q-123 0 -192 88t-49 223h6q34 -149 250 -149q214 0 319 153h6q-37 -142 -125.5 -228.5t-214.5 -86.5z" />
    <glyph glyph-name="hookabovecomb" unicode="&#x309;" horiz-adv-x="671" 
d="M297 1704q114 0 169.5 -53t41.5 -133q-13 -69 -89 -132.5t-198 -91.5l-26 -75h-13l6 184q116 27 173 76t65 106q5 23 -8.5 41.5t-46.5 18.5q-40 0 -104 -26.5t-126 -70.5q-14 40 -6 72q6 39 48.5 61.5t113.5 22.5z" />
    <glyph glyph-name="uni031B" unicode="&#x31b;" horiz-adv-x="638" 
d="M162 901v23q82 32 132.5 75.5t59.5 90.5q8 40 -18.5 77.5t-81.5 61.5q10 50 51.5 84.5t89.5 34.5q56 0 83.5 -41t15.5 -101q-21 -97 -108.5 -181t-223.5 -124z" />
    <glyph glyph-name="dotbelowcomb" unicode="&#x323;" horiz-adv-x="561" 
d="M283 -424q-58 0 -97 38.5t-39 94.5q0 57 39 95t97 38t96.5 -38t38.5 -95q0 -56 -38.5 -94.5t-96.5 -38.5z" />
    <glyph glyph-name="Wgrave" unicode="&#x1e80;" horiz-adv-x="2058" 
d="M1837 1401l6 33h420l-6 -33l-49 -8q-23 -5 -39 -10t-36.5 -16t-38 -31.5t-32.5 -49.5l-641 -1286h-178l-135 1182l-553 -1182h-182l-115 1286q-3 38 -14.5 61.5t-23 31.5t-30.5 14l-26 8l6 33h537l-7 -33l-61 -8q-61 -8 -88 -29.5t-23 -77.5l64 -1091l582 1239h172
l120 -1252l547 1104q27 56 1 77.5t-101 29.5zM1290 1847l41 -325h-10l-338 321v4h307z" />
    <glyph glyph-name="wgrave" unicode="&#x1e81;" horiz-adv-x="1738" 
d="M1565 1126q85 0 126.5 -59t41.5 -160q0 -84 -28.5 -185t-78.5 -204t-125.5 -200t-163.5 -172t-198.5 -120.5t-223.5 -45.5q-96 0 -129.5 64.5t-5.5 166.5l117 438q-22 -54 -46.5 -107.5t-61 -122t-74.5 -128t-87 -118t-99 -100t-109.5 -67.5t-118.5 -26q-92 0 -136 68
t-15 179l215 807q-70 -43 -150 -133.5t-154 -210.5l-22 15q114 203 233 316.5t224 113.5q61 0 85.5 -40t4.5 -116l-193 -715q-17 -60 -2 -90.5t60 -30.5q85 0 187.5 122t204.5 345.5t177 503.5h237l-256 -952q-16 -54 -4.5 -78.5t60.5 -24.5q64 0 174.5 63t200.5 171
q60 70 97 151.5t49.5 182.5t-17.5 223t-105 252q56 24 109 24zM1137 1536l41 -326h-11l-338 322v4h308z" />
    <glyph glyph-name="Wacute" unicode="&#x1e82;" horiz-adv-x="2058" 
d="M1837 1401l6 33h420l-6 -33l-49 -8q-23 -5 -39 -10t-36.5 -16t-38 -31.5t-32.5 -49.5l-641 -1286h-178l-135 1182l-553 -1182h-182l-115 1286q-3 38 -14.5 61.5t-23 31.5t-30.5 14l-26 8l6 33h537l-7 -33l-61 -8q-61 -8 -88 -29.5t-23 -77.5l64 -1091l582 1239h172
l120 -1252l547 1104q27 56 1 77.5t-101 29.5zM1786 1849v-4l-473 -321h-10l170 325h313z" />
    <glyph glyph-name="wacute" unicode="&#x1e83;" horiz-adv-x="1738" 
d="M1565 1126q85 0 126.5 -59t41.5 -160q0 -84 -28.5 -185t-78.5 -204t-125.5 -200t-163.5 -172t-198.5 -120.5t-223.5 -45.5q-96 0 -129.5 64.5t-5.5 166.5l117 438q-22 -54 -46.5 -107.5t-61 -122t-74.5 -128t-87 -118t-99 -100t-109.5 -67.5t-118.5 -26q-92 0 -136 68
t-15 179l215 807q-70 -43 -150 -133.5t-154 -210.5l-22 15q114 203 233 316.5t224 113.5q61 0 85.5 -40t4.5 -116l-193 -715q-17 -60 -2 -90.5t60 -30.5q85 0 187.5 122t204.5 345.5t177 503.5h237l-256 -952q-16 -54 -4.5 -78.5t60.5 -24.5q64 0 174.5 63t200.5 171
q60 70 97 151.5t49.5 182.5t-17.5 223t-105 252q56 24 109 24zM1597 1536v-4l-473 -322h-10l170 326h313z" />
    <glyph glyph-name="Wdieresis" unicode="&#x1e84;" horiz-adv-x="2058" 
d="M1837 1401l6 33h420l-6 -33l-49 -8q-23 -5 -39 -10t-36.5 -16t-38 -31.5t-32.5 -49.5l-641 -1286h-178l-135 1182l-553 -1182h-182l-115 1286q-3 38 -14.5 61.5t-23 31.5t-30.5 14l-26 8l6 33h537l-7 -33l-61 -8q-61 -8 -88 -29.5t-23 -77.5l64 -1091l582 1239h172
l120 -1252l547 1104q27 56 1 77.5t-101 29.5zM1567 1591q-57 0 -95 37t-38 94q0 59 37.5 96t95.5 37q60 0 97.5 -36.5t37.5 -96.5q0 -57 -37.5 -94t-97.5 -37zM1147 1591q-57 0 -96 37t-39 94q0 59 38.5 96t96.5 37t95.5 -37t37.5 -96q0 -57 -38 -94t-95 -37z" />
    <glyph glyph-name="wdieresis" unicode="&#x1e85;" horiz-adv-x="1738" 
d="M1565 1126q85 0 126.5 -59t41.5 -160q0 -84 -28.5 -185t-78.5 -204t-125.5 -200t-163.5 -172t-198.5 -120.5t-223.5 -45.5q-96 0 -129.5 64.5t-5.5 166.5l117 438q-22 -54 -46.5 -107.5t-61 -122t-74.5 -128t-87 -118t-99 -100t-109.5 -67.5t-118.5 -26q-92 0 -136 68
t-15 179l215 807q-70 -43 -150 -133.5t-154 -210.5l-22 15q114 203 233 316.5t224 113.5q61 0 85.5 -40t4.5 -116l-193 -715q-17 -60 -2 -90.5t60 -30.5q85 0 187.5 122t204.5 345.5t177 503.5h237l-256 -952q-16 -54 -4.5 -78.5t60.5 -24.5q64 0 174.5 63t200.5 171
q60 70 97 151.5t49.5 182.5t-17.5 223t-105 252q56 24 109 24zM963 1260q-58 0 -97 37t-39 94q0 59 39 96t97 37t95.5 -37t37.5 -96q0 -57 -38 -94t-95 -37zM1384 1260q-57 0 -96 37t-39 94q0 59 38.5 96t96.5 37t96 -37t38 -96q0 -57 -38.5 -94t-95.5 -37z" />
    <glyph glyph-name="Germandbls" unicode="&#x1e9e;" horiz-adv-x="1480" 
d="M1440 1260l6 -13q-59 -40 -100.5 -75t-79.5 -79t-57 -94.5t-19 -107.5q0 -56 20 -108t49 -94.5t58 -87t49 -103t20 -123.5q0 -172 -127 -283.5t-323 -111.5q-88 0 -192 25t-171 67l27 209h21q49 -126 139.5 -198.5t191.5 -72.5q100 0 163 62.5t63 160.5q0 49 -18.5 98
t-45 91t-52.5 86t-44.5 100.5t-18.5 116.5q0 125 74 235.5t203 200.5q-64 109 -166 180.5t-207 71.5q-134 0 -229 -113.5t-137 -312.5l-179 -835q-10 -51 12 -75t91 -38l31 -6l-7 -33h-571l6 33l53 10q66 12 91.5 33.5t37.5 75.5l158 741q25 116 82.5 217.5t141 178t198 121
t244.5 44.5q146 0 282 -54t232 -140z" />
    <glyph glyph-name="uni1EA0" unicode="&#x1ea0;" horiz-adv-x="1388" 
d="M844 565l-109 703l-383 -703h492zM1282 41l45 -8l-6 -33h-586l8 33l58 8q65 11 89 33t17 71l-57 379h-520l-207 -379q-28 -51 -11 -72.5t97 -31.5l76 -8l-6 -33h-416l6 33l47 8q62 12 94 33.5t58 70.5l704 1289h184l218 -1291q7 -47 30.5 -68.5t77.5 -33.5zM508 -403
q-58 0 -96.5 38.5t-38.5 94.5q0 57 38.5 95t96.5 38t96.5 -38t38.5 -95q0 -56 -38.5 -94.5t-96.5 -38.5z" />
    <glyph glyph-name="uni1EA1" unicode="&#x1ea1;" horiz-adv-x="1234" 
d="M365 152q47 0 106.5 47.5t129 144.5t146.5 269.5t146 396.5q-88 88 -172 88q-78 0 -163.5 -85.5t-149 -208.5t-105 -262t-41.5 -243q0 -147 103 -147zM1198 424l25 -14q-114 -203 -234 -316.5t-225 -113.5q-59 0 -83.5 41t-4.5 120l184 674h-2q-81 -225 -165.5 -390
t-166.5 -260.5t-159 -140t-154 -44.5q-105 0 -153 70.5t-48 191.5q0 120 37.5 246.5t108 241.5t163 206t212.5 145t247 54q112 0 226 -50l168 50h4l-281 -1055q68 43 147.5 133.5t153.5 210.5zM406 -424q-58 0 -97 38.5t-39 94.5q0 57 39 95t97 38t96.5 -38t38.5 -95
q0 -56 -38.5 -94.5t-96.5 -38.5z" />
    <glyph glyph-name="uni1EA2" unicode="&#x1ea2;" horiz-adv-x="1388" 
d="M844 565l-109 703l-383 -703h492zM1282 41l45 -8l-6 -33h-586l8 33l58 8q65 11 89 33t17 71l-57 379h-520l-207 -379q-28 -51 -11 -72.5t97 -31.5l76 -8l-6 -33h-416l6 33l47 8q62 12 94 33.5t58 70.5l704 1289h184l218 -1291q7 -47 30.5 -68.5t77.5 -33.5zM989 2013
q114 0 169.5 -53t41.5 -133q-13 -69 -88.5 -132t-198.5 -91l-26 -76h-13l7 184q116 27 172.5 76t64.5 106q5 23 -8.5 41.5t-46.5 18.5q-40 0 -103.5 -26t-125.5 -70q-14 41 -7 71q6 39 48.5 61.5t113.5 22.5z" />
    <glyph glyph-name="uni1EA3" unicode="&#x1ea3;" horiz-adv-x="1234" 
d="M365 152q47 0 106.5 47.5t129 144.5t146.5 269.5t146 396.5q-88 88 -172 88q-78 0 -163.5 -85.5t-149 -208.5t-105 -262t-41.5 -243q0 -147 103 -147zM1198 424l25 -14q-114 -203 -234 -316.5t-225 -113.5q-59 0 -83.5 41t-4.5 120l184 674h-2q-81 -225 -165.5 -390
t-166.5 -260.5t-159 -140t-154 -44.5q-105 0 -153 70.5t-48 191.5q0 120 37.5 246.5t108 241.5t163 206t212.5 145t247 54q112 0 226 -50l168 50h4l-281 -1055q68 43 147.5 133.5t153.5 210.5zM973 1704q114 0 169.5 -53t41.5 -133q-13 -69 -89 -132.5t-198 -91.5l-27 -75
h-12l6 184q116 27 173 76t65 106q5 23 -8.5 41.5t-46.5 18.5q-40 0 -104 -26.5t-126 -70.5q-14 40 -6 72q6 39 48.5 61.5t113.5 22.5z" />
    <glyph glyph-name="uni1EA4" unicode="&#x1ea4;" horiz-adv-x="1388" 
d="M844 565l-109 703l-383 -703h492zM1282 41l45 -8l-6 -33h-586l8 33l58 8q65 11 89 33t17 71l-57 379h-520l-207 -379q-28 -51 -11 -72.5t97 -31.5l76 -8l-6 -33h-416l6 33l47 8q62 12 94 33.5t58 70.5l704 1289h184l218 -1291q7 -47 30.5 -68.5t77.5 -33.5zM1202 1536
l-8 -8l-258 137l-348 -137l-4 6l377 332h4zM1174 1710l169 326h314v-4l-473 -322h-10z" />
    <glyph glyph-name="uni1EA5" unicode="&#x1ea5;" horiz-adv-x="1234" 
d="M365 152q47 0 106.5 47.5t129 144.5t146.5 269.5t146 396.5q-88 88 -172 88q-78 0 -163.5 -85.5t-149 -208.5t-105 -262t-41.5 -243q0 -147 103 -147zM1198 424l25 -14q-114 -203 -234 -316.5t-225 -113.5q-59 0 -83.5 41t-4.5 120l184 674h-2q-81 -225 -165.5 -390
t-166.5 -260.5t-159 -140t-154 -44.5q-105 0 -153 70.5t-48 191.5q0 120 37.5 246.5t108 241.5t163 206t212.5 145t247 54q112 0 226 -50l168 50h4l-281 -1055q68 43 147.5 133.5t153.5 210.5zM1149 1225l-8 -8l-258 137l-348 -137l-5 6l377 331h4zM1120 1399l170 325h314
v-4l-474 -321h-10z" />
    <glyph glyph-name="uni1EA6" unicode="&#x1ea6;" horiz-adv-x="1388" 
d="M844 565l-109 703l-383 -703h492zM1282 41l45 -8l-6 -33h-586l8 33l58 8q65 11 89 33t17 71l-57 379h-520l-207 -379q-28 -51 -11 -72.5t97 -31.5l76 -8l-6 -33h-416l6 33l47 8q62 12 94 33.5t58 70.5l704 1289h184l218 -1291q7 -47 30.5 -68.5t77.5 -33.5zM1202 1536
l-8 -8l-258 137l-348 -137l-4 6l377 332h4zM1264 2036l41 -326h-11l-338 322v4h308z" />
    <glyph glyph-name="uni1EA7" unicode="&#x1ea7;" horiz-adv-x="1234" 
d="M365 152q47 0 106.5 47.5t129 144.5t146.5 269.5t146 396.5q-88 88 -172 88q-78 0 -163.5 -85.5t-149 -208.5t-105 -262t-41.5 -243q0 -147 103 -147zM1198 424l25 -14q-114 -203 -234 -316.5t-225 -113.5q-59 0 -83.5 41t-4.5 120l184 674h-2q-81 -225 -165.5 -390
t-166.5 -260.5t-159 -140t-154 -44.5q-105 0 -153 70.5t-48 191.5q0 120 37.5 246.5t108 241.5t163 206t212.5 145t247 54q112 0 226 -50l168 50h4l-281 -1055q68 43 147.5 133.5t153.5 210.5zM1149 1225l-8 -8l-258 137l-348 -137l-5 6l377 331h4zM1210 1724l41 -325h-10
l-338 321v4h307z" />
    <glyph glyph-name="uni1EA8" unicode="&#x1ea8;" horiz-adv-x="1388" 
d="M844 565l-109 703l-383 -703h492zM1282 41l45 -8l-6 -33h-586l8 33l58 8q65 11 89 33t17 71l-57 379h-520l-207 -379q-28 -51 -11 -72.5t97 -31.5l76 -8l-6 -33h-416l6 33l47 8q62 12 94 33.5t58 70.5l704 1289h184l218 -1291q7 -47 30.5 -68.5t77.5 -33.5zM1202 1536
l-8 -8l-258 137l-348 -137l-4 6l377 332h4zM1298 2195q114 0 169.5 -53t41.5 -133q-13 -69 -88.5 -132t-197.5 -91l-27 -76h-12l6 184q115 27 172 76t65 107q5 23 -8.5 41t-46.5 18q-40 0 -103.5 -26t-125.5 -70q-14 40 -6 71q6 39 48 61.5t113 22.5z" />
    <glyph glyph-name="uni1EA9" unicode="&#x1ea9;" horiz-adv-x="1234" 
d="M365 152q47 0 106.5 47.5t129 144.5t146.5 269.5t146 396.5q-88 88 -172 88q-78 0 -163.5 -85.5t-149 -208.5t-105 -262t-41.5 -243q0 -147 103 -147zM1198 424l25 -14q-114 -203 -234 -316.5t-225 -113.5q-59 0 -83.5 41t-4.5 120l184 674h-2q-81 -225 -165.5 -390
t-166.5 -260.5t-159 -140t-154 -44.5q-105 0 -153 70.5t-48 191.5q0 120 37.5 246.5t108 241.5t163 206t212.5 145t247 54q112 0 226 -50l168 50h4l-281 -1055q68 43 147.5 133.5t153.5 210.5zM1149 1225l-8 -8l-258 137l-348 -137l-5 6l377 331h4zM1245 1884
q114 0 169.5 -53t41.5 -133q-13 -69 -88.5 -132t-198.5 -91l-26 -76h-13l7 184q116 27 172.5 76t64.5 106q5 23 -8.5 41.5t-46.5 18.5q-40 0 -103.5 -26t-125.5 -70q-14 41 -7 71q6 39 48.5 61.5t113.5 22.5z" />
    <glyph glyph-name="uni1EAA" unicode="&#x1eaa;" horiz-adv-x="1388" 
d="M844 565l-109 703l-383 -703h492zM1282 41l45 -8l-6 -33h-586l8 33l58 8q65 11 89 33t17 71l-57 379h-520l-207 -379q-28 -51 -11 -72.5t97 -31.5l76 -8l-6 -33h-416l6 33l47 8q62 12 94 33.5t58 70.5l704 1289h184l218 -1291q7 -47 30.5 -68.5t77.5 -33.5zM1202 1536
l-8 -8l-258 137l-348 -137l-4 6l377 332h4zM811 2038q-81 0 -141 -84l-13 2q102 237 240 237q42 0 85 -21t73.5 -46.5t70.5 -46.5t76 -21q82 0 139 90l13 -2q-41 -106 -104 -172.5t-140 -66.5q-44 0 -88 20.5t-74 45t-67.5 45t-69.5 20.5z" />
    <glyph glyph-name="uni1EAB" unicode="&#x1eab;" horiz-adv-x="1234" 
d="M365 152q47 0 106.5 47.5t129 144.5t146.5 269.5t146 396.5q-88 88 -172 88q-78 0 -163.5 -85.5t-149 -208.5t-105 -262t-41.5 -243q0 -147 103 -147zM1198 424l25 -14q-114 -203 -234 -316.5t-225 -113.5q-59 0 -83.5 41t-4.5 120l184 674h-2q-81 -225 -165.5 -390
t-166.5 -260.5t-159 -140t-154 -44.5q-105 0 -153 70.5t-48 191.5q0 120 37.5 246.5t108 241.5t163 206t212.5 145t247 54q112 0 226 -50l168 50h4l-281 -1055q68 43 147.5 133.5t153.5 210.5zM1149 1225l-8 -8l-258 137l-348 -137l-5 6l377 331h4zM758 1726q-82 0 -142 -84
l-12 3q102 237 240 237q42 0 85 -21t73.5 -46.5t70.5 -46.5t76 -21q82 0 139 90l12 -2q-42 -107 -104 -173.5t-139 -66.5q-44 0 -88 20.5t-74 45t-67.5 45t-69.5 20.5z" />
    <glyph glyph-name="uni1EAC" unicode="&#x1eac;" horiz-adv-x="1388" 
d="M844 565l-109 703l-383 -703h492zM1282 41l45 -8l-6 -33h-586l8 33l58 8q65 11 89 33t17 71l-57 379h-520l-207 -379q-28 -51 -11 -72.5t97 -31.5l76 -8l-6 -33h-416l6 33l47 8q62 12 94 33.5t58 70.5l704 1289h184l218 -1291q7 -47 30.5 -68.5t77.5 -33.5zM1202 1536
l-8 -8l-258 137l-348 -137l-4 6l377 332h4zM508 -403q-58 0 -96.5 38.5t-38.5 94.5q0 57 38.5 95t96.5 38t96.5 -38t38.5 -95q0 -56 -38.5 -94.5t-96.5 -38.5z" />
    <glyph glyph-name="uni1EAD" unicode="&#x1ead;" horiz-adv-x="1234" 
d="M365 152q47 0 106.5 47.5t129 144.5t146.5 269.5t146 396.5q-88 88 -172 88q-78 0 -163.5 -85.5t-149 -208.5t-105 -262t-41.5 -243q0 -147 103 -147zM1198 424l25 -14q-114 -203 -234 -316.5t-225 -113.5q-59 0 -83.5 41t-4.5 120l184 674h-2q-81 -225 -165.5 -390
t-166.5 -260.5t-159 -140t-154 -44.5q-105 0 -153 70.5t-48 191.5q0 120 37.5 246.5t108 241.5t163 206t212.5 145t247 54q112 0 226 -50l168 50h4l-281 -1055q68 43 147.5 133.5t153.5 210.5zM1149 1225l-8 -8l-258 137l-348 -137l-5 6l377 331h4zM406 -424q-58 0 -97 38.5
t-39 94.5q0 57 39 95t97 38t96.5 -38t38.5 -95q0 -56 -38.5 -94.5t-96.5 -38.5z" />
    <glyph glyph-name="uni1EAE" unicode="&#x1eae;" horiz-adv-x="1388" 
d="M844 565l-109 703l-383 -703h492zM1282 41l45 -8l-6 -33h-586l8 33l58 8q65 11 89 33t17 71l-57 379h-520l-207 -379q-28 -51 -11 -72.5t97 -31.5l76 -8l-6 -33h-416l6 33l47 8q62 12 94 33.5t58 70.5l704 1289h184l218 -1291q7 -47 30.5 -68.5t77.5 -33.5zM907 1540
q-124 0 -193.5 87.5t-49.5 223.5h6q34 -149 250 -149q219 0 319 153h6q-37 -142 -124.5 -228.5t-213.5 -86.5zM893 1815l168 325h315l-2 -4l-473 -321h-8z" />
    <glyph glyph-name="uni1EAF" unicode="&#x1eaf;" horiz-adv-x="1234" 
d="M365 152q47 0 106.5 47.5t129 144.5t146.5 269.5t146 396.5q-88 88 -172 88q-78 0 -163.5 -85.5t-149 -208.5t-105 -262t-41.5 -243q0 -147 103 -147zM1198 424l25 -14q-114 -203 -234 -316.5t-225 -113.5q-59 0 -83.5 41t-4.5 120l184 674h-2q-81 -225 -165.5 -390
t-166.5 -260.5t-159 -140t-154 -44.5q-105 0 -153 70.5t-48 191.5q0 120 37.5 246.5t108 241.5t163 206t212.5 145t247 54q112 0 226 -50l168 50h4l-281 -1055q68 43 147.5 133.5t153.5 210.5zM858 1241q-124 0 -193 87.5t-49 223.5h7q30 -149 249 -149q215 0 320 153h6
q-37 -142 -125.5 -228.5t-214.5 -86.5zM846 1516l168 325h315l-2 -4l-473 -321h-8z" />
    <glyph glyph-name="uni1EB0" unicode="&#x1eb0;" horiz-adv-x="1388" 
d="M844 565l-109 703l-383 -703h492zM1282 41l45 -8l-6 -33h-586l8 33l58 8q65 11 89 33t17 71l-57 379h-520l-207 -379q-28 -51 -11 -72.5t97 -31.5l76 -8l-6 -33h-416l6 33l47 8q62 12 94 33.5t58 70.5l704 1289h184l218 -1291q7 -47 30.5 -68.5t77.5 -33.5zM946 2140
l41 -325h-10l-338 321v4h307zM907 1540q-124 0 -193.5 87.5t-49.5 223.5h6q34 -149 250 -149q219 0 319 153h6q-37 -142 -124.5 -228.5t-213.5 -86.5z" />
    <glyph glyph-name="uni1EB1" unicode="&#x1eb1;" horiz-adv-x="1234" 
d="M365 152q47 0 106.5 47.5t129 144.5t146.5 269.5t146 396.5q-88 88 -172 88q-78 0 -163.5 -85.5t-149 -208.5t-105 -262t-41.5 -243q0 -147 103 -147zM1198 424l25 -14q-114 -203 -234 -316.5t-225 -113.5q-59 0 -83.5 41t-4.5 120l184 674h-2q-81 -225 -165.5 -390
t-166.5 -260.5t-159 -140t-154 -44.5q-105 0 -153 70.5t-48 191.5q0 120 37.5 246.5t108 241.5t163 206t212.5 145t247 54q112 0 226 -50l168 50h4l-281 -1055q68 43 147.5 133.5t153.5 210.5zM899 1841l41 -325h-10l-338 321v4h307zM858 1241q-124 0 -193 87.5t-49 223.5h7
q30 -149 249 -149q215 0 320 153h6q-37 -142 -125.5 -228.5t-214.5 -86.5z" />
    <glyph glyph-name="uni1EB2" unicode="&#x1eb2;" horiz-adv-x="1388" 
d="M844 565l-109 703l-383 -703h492zM1282 41l45 -8l-6 -33h-586l8 33l58 8q65 11 89 33t17 71l-57 379h-520l-207 -379q-28 -51 -11 -72.5t97 -31.5l76 -8l-6 -33h-416l6 33l47 8q62 12 94 33.5t58 70.5l704 1289h184l218 -1291q7 -47 30.5 -68.5t77.5 -33.5zM907 1540
q-124 0 -193.5 87.5t-49.5 223.5h6q34 -149 250 -149q219 0 319 153h6q-37 -142 -124.5 -228.5t-213.5 -86.5zM1055 2300q114 0 169.5 -53t41.5 -133q-13 -69 -89 -132.5t-198 -91.5l-27 -75h-12l6 184q116 27 173 76t65 106q5 23 -9 41.5t-47 18.5q-40 0 -103.5 -26.5
t-125.5 -70.5q-14 40 -6 72q6 39 48.5 61.5t113.5 22.5z" />
    <glyph glyph-name="uni1EB3" unicode="&#x1eb3;" horiz-adv-x="1234" 
d="M365 152q47 0 106.5 47.5t129 144.5t146.5 269.5t146 396.5q-88 88 -172 88q-78 0 -163.5 -85.5t-149 -208.5t-105 -262t-41.5 -243q0 -147 103 -147zM1198 424l25 -14q-114 -203 -234 -316.5t-225 -113.5q-59 0 -83.5 41t-4.5 120l184 674h-2q-81 -225 -165.5 -390
t-166.5 -260.5t-159 -140t-154 -44.5q-105 0 -153 70.5t-48 191.5q0 120 37.5 246.5t108 241.5t163 206t212.5 145t247 54q112 0 226 -50l168 50h4l-281 -1055q68 43 147.5 133.5t153.5 210.5zM858 1241q-124 0 -193 87.5t-49 223.5h7q30 -149 249 -149q215 0 320 153h6
q-37 -142 -125.5 -228.5t-214.5 -86.5zM1008 2001q114 0 169.5 -53t41.5 -133q-13 -69 -89 -132.5t-198 -91.5l-27 -75h-12l6 184q116 27 173 76t65 106q5 23 -9 41.5t-47 18.5q-40 0 -103.5 -26.5t-125.5 -70.5q-14 40 -6 72q6 39 48.5 61.5t113.5 22.5z" />
    <glyph glyph-name="uni1EB4" unicode="&#x1eb4;" horiz-adv-x="1388" 
d="M844 565l-109 703l-383 -703h492zM1282 41l45 -8l-6 -33h-586l8 33l58 8q65 11 89 33t17 71l-57 379h-520l-207 -379q-28 -51 -11 -72.5t97 -31.5l76 -8l-6 -33h-416l6 33l47 8q62 12 94 33.5t58 70.5l704 1289h184l218 -1291q7 -47 30.5 -68.5t77.5 -33.5zM907 1540
q-124 0 -193.5 87.5t-49.5 223.5h6q34 -149 250 -149q219 0 319 153h6q-37 -142 -124.5 -228.5t-213.5 -86.5zM811 2025q-82 0 -141 -83l-13 2q102 237 240 237q42 0 85 -21t73.5 -46.5t70.5 -46.5t76 -21q82 0 139 90l13 -2q-42 -107 -104.5 -173.5t-139.5 -66.5
q-44 0 -88 20.5t-74 45t-67.5 45t-69.5 20.5z" />
    <glyph glyph-name="uni1EB5" unicode="&#x1eb5;" horiz-adv-x="1234" 
d="M365 152q47 0 106.5 47.5t129 144.5t146.5 269.5t146 396.5q-88 88 -172 88q-78 0 -163.5 -85.5t-149 -208.5t-105 -262t-41.5 -243q0 -147 103 -147zM1198 424l25 -14q-114 -203 -234 -316.5t-225 -113.5q-59 0 -83.5 41t-4.5 120l184 674h-2q-81 -225 -165.5 -390
t-166.5 -260.5t-159 -140t-154 -44.5q-105 0 -153 70.5t-48 191.5q0 120 37.5 246.5t108 241.5t163 206t212.5 145t247 54q112 0 226 -50l168 50h4l-281 -1055q68 43 147.5 133.5t153.5 210.5zM858 1241q-124 0 -193 87.5t-49 223.5h7q30 -149 249 -149q215 0 320 153h6
q-37 -142 -125.5 -228.5t-214.5 -86.5zM764 1726q-81 0 -141 -84l-13 3q102 237 240 237q42 0 85 -21t73.5 -46.5t70.5 -46.5t76 -21q82 0 139 90l13 -2q-42 -107 -104.5 -173.5t-139.5 -66.5q-44 0 -88 20.5t-74 45t-67.5 45t-69.5 20.5z" />
    <glyph glyph-name="uni1EB6" unicode="&#x1eb6;" horiz-adv-x="1388" 
d="M844 565l-109 703l-383 -703h492zM1282 41l45 -8l-6 -33h-586l8 33l58 8q65 11 89 33t17 71l-57 379h-520l-207 -379q-28 -51 -11 -72.5t97 -31.5l76 -8l-6 -33h-416l6 33l47 8q62 12 94 33.5t58 70.5l704 1289h184l218 -1291q7 -47 30.5 -68.5t77.5 -33.5zM907 1540
q-124 0 -193.5 87.5t-49.5 223.5h6q34 -149 250 -149q219 0 319 153h6q-37 -142 -124.5 -228.5t-213.5 -86.5zM508 -403q-58 0 -96.5 38.5t-38.5 94.5q0 57 38.5 95t96.5 38t96.5 -38t38.5 -95q0 -56 -38.5 -94.5t-96.5 -38.5z" />
    <glyph glyph-name="uni1EB7" unicode="&#x1eb7;" horiz-adv-x="1234" 
d="M365 152q47 0 106.5 47.5t129 144.5t146.5 269.5t146 396.5q-88 88 -172 88q-78 0 -163.5 -85.5t-149 -208.5t-105 -262t-41.5 -243q0 -147 103 -147zM1198 424l25 -14q-114 -203 -234 -316.5t-225 -113.5q-59 0 -83.5 41t-4.5 120l184 674h-2q-81 -225 -165.5 -390
t-166.5 -260.5t-159 -140t-154 -44.5q-105 0 -153 70.5t-48 191.5q0 120 37.5 246.5t108 241.5t163 206t212.5 145t247 54q112 0 226 -50l168 50h4l-281 -1055q68 43 147.5 133.5t153.5 210.5zM858 1241q-124 0 -193 87.5t-49 223.5h7q30 -149 249 -149q215 0 320 153h6
q-37 -142 -125.5 -228.5t-214.5 -86.5zM406 -424q-58 0 -97 38.5t-39 94.5q0 57 39 95t97 38t96.5 -38t38.5 -95q0 -56 -38.5 -94.5t-96.5 -38.5z" />
    <glyph glyph-name="uni1EB8" unicode="&#x1eb8;" horiz-adv-x="1271" 
d="M569 -403q-58 0 -96.5 38.5t-38.5 94.5q0 57 38.5 95t96.5 38t97 -38t39 -95q0 -56 -39 -94.5t-97 -38.5zM225 1401l6 33h1033l-25 -443l-22 -6q-10 90 -33 161t-63 128t-102 88t-142 31h-215l-138 -641h162q87 0 138 52.5t112 205.5h20l-120 -557h-21q13 102 0.5 159.5
t-43 78t-94.5 20.5h-162l-141 -670h241q96 0 171.5 20t146 67.5t131.5 130.5t117 206h22l-162 -465h-1114l6 33l66 10q63 9 96 30t45 79l240 1130q12 57 -13 79.5t-81 29.5z" />
    <glyph glyph-name="uni1EB9" unicode="&#x1eb9;" horiz-adv-x="944" 
d="M666 1094q-79 0 -157.5 -80.5t-134.5 -203.5t-81 -259q121 34 214.5 88t145.5 113.5t77.5 116.5t25.5 108q0 54 -24.5 85.5t-65.5 31.5zM471 121q97 0 199 81t184 222l23 -14q-100 -202 -238.5 -316t-294.5 -114q-150 0 -227.5 103.5t-77.5 272.5q0 108 31 219t90.5 211
t138.5 178.5t182.5 124.5t214.5 46q120 0 187 -51t67 -132q0 -48 -23.5 -97.5t-76 -100.5t-128 -94.5t-187.5 -79.5t-246 -56q-1 -15 -4.5 -55.5t-3.5 -62.5q0 -130 47.5 -207.5t142.5 -77.5zM303 -424q-58 0 -96.5 38.5t-38.5 94.5q0 57 38.5 95t96.5 38t96.5 -38t38.5 -95
q0 -56 -38.5 -94.5t-96.5 -38.5z" />
    <glyph glyph-name="uni1EBA" unicode="&#x1eba;" horiz-adv-x="1271" 
d="M969 2013q114 0 169.5 -53t41.5 -133q-13 -69 -88.5 -132t-198.5 -91l-27 -76h-12l6 184q116 27 173 76t65 106q5 23 -9 41.5t-47 18.5q-40 0 -103.5 -26t-125.5 -70q-14 40 -6 71q6 39 48.5 61.5t113.5 22.5zM225 1401l6 33h1033l-25 -443l-22 -6q-10 90 -33 161
t-63 128t-102 88t-142 31h-215l-138 -641h162q87 0 138 52.5t112 205.5h20l-120 -557h-21q13 102 0.5 159.5t-43 78t-94.5 20.5h-162l-141 -670h241q96 0 171.5 20t146 67.5t131.5 130.5t117 206h22l-162 -465h-1114l6 33l66 10q63 9 96 30t45 79l240 1130q12 57 -13 79.5
t-81 29.5z" />
    <glyph glyph-name="uni1EBB" unicode="&#x1ebb;" horiz-adv-x="944" 
d="M666 1094q-79 0 -157.5 -80.5t-134.5 -203.5t-81 -259q121 34 214.5 88t145.5 113.5t77.5 116.5t25.5 108q0 54 -24.5 85.5t-65.5 31.5zM471 121q97 0 199 81t184 222l23 -14q-100 -202 -238.5 -316t-294.5 -114q-150 0 -227.5 103.5t-77.5 272.5q0 108 31 219t90.5 211
t138.5 178.5t182.5 124.5t214.5 46q120 0 187 -51t67 -132q0 -48 -23.5 -97.5t-76 -100.5t-128 -94.5t-187.5 -79.5t-246 -56q-1 -15 -4.5 -55.5t-3.5 -62.5q0 -130 47.5 -207.5t142.5 -77.5zM829 1704q114 0 169.5 -53t41.5 -133q-13 -69 -88.5 -132.5t-197.5 -91.5
l-27 -75h-12l6 184q116 27 172.5 76t64.5 106q5 23 -8.5 41.5t-46.5 18.5q-40 0 -103.5 -26.5t-125.5 -70.5q-14 40 -6 72q6 39 48 61.5t113 22.5z" />
    <glyph glyph-name="uni1EBC" unicode="&#x1ebc;" horiz-adv-x="1271" 
d="M686 1653q-81 0 -141 -84l-13 2q102 237 240 237q42 0 85 -21t73.5 -46.5t70.5 -46.5t76 -21q83 0 140 90l12 -2q-41 -106 -104 -172.5t-140 -66.5q-44 0 -88 20.5t-74 45t-67.5 45t-69.5 20.5zM225 1401l6 33h1033l-25 -443l-22 -6q-10 90 -33 161t-63 128t-102 88
t-142 31h-215l-138 -641h162q87 0 138 52.5t112 205.5h20l-120 -557h-21q13 102 0.5 159.5t-43 78t-94.5 20.5h-162l-141 -670h241q96 0 171.5 20t146 67.5t131.5 130.5t117 206h22l-162 -465h-1114l6 33l66 10q63 9 96 30t45 79l240 1130q12 57 -13 79.5t-81 29.5z" />
    <glyph glyph-name="uni1EBD" unicode="&#x1ebd;" horiz-adv-x="944" 
d="M666 1094q-79 0 -157.5 -80.5t-134.5 -203.5t-81 -259q121 34 214.5 88t145.5 113.5t77.5 116.5t25.5 108q0 54 -24.5 85.5t-65.5 31.5zM471 121q97 0 199 81t184 222l23 -14q-100 -202 -238.5 -316t-294.5 -114q-150 0 -227.5 103.5t-77.5 272.5q0 108 31 219t90.5 211
t138.5 178.5t182.5 124.5t214.5 46q120 0 187 -51t67 -132q0 -48 -23.5 -97.5t-76 -100.5t-128 -94.5t-187.5 -79.5t-246 -56q-1 -15 -4.5 -55.5t-3.5 -62.5q0 -130 47.5 -207.5t142.5 -77.5zM858 1243q-44 0 -88.5 20.5t-74.5 45t-68 45t-70 20.5q-37 0 -74.5 -23
t-64.5 -61l-15 2q102 238 242 238q42 0 85 -21t73.5 -46.5t70.5 -46.5t76 -21q83 0 140 90l12 -2q-41 -106 -105 -173t-139 -67z" />
    <glyph glyph-name="uni1EBE" unicode="&#x1ebe;" horiz-adv-x="1271" 
d="M1309 2036h313v-4l-473 -322h-10zM225 1401l6 33h1033l-25 -443l-22 -6q-10 90 -33 161t-63 128t-102 88t-142 31h-215l-138 -641h162q87 0 138 52.5t112 205.5h20l-120 -557h-21q13 102 0.5 159.5t-43 78t-94.5 20.5h-162l-141 -670h241q96 0 171.5 20t146 67.5
t131.5 130.5t117 206h22l-162 -465h-1114l6 33l66 10q63 9 96 30t45 79l240 1130q12 57 -13 79.5t-81 29.5zM1157 1528l-258 137l-346 -137l-6 6l379 332h4l235 -330z" />
    <glyph glyph-name="uni1EBF" unicode="&#x1ebf;" horiz-adv-x="944" 
d="M666 1094q-79 0 -157.5 -80.5t-134.5 -203.5t-81 -259q121 34 214.5 88t145.5 113.5t77.5 116.5t25.5 108q0 54 -24.5 85.5t-65.5 31.5zM950 952q0 -48 -23.5 -97.5t-76 -100.5t-128 -94.5t-187.5 -79.5t-246 -56q-1 -15 -4.5 -55.5t-3.5 -62.5q0 -130 47.5 -207.5
t142.5 -77.5q97 0 199 81t184 222l23 -14q-100 -202 -238.5 -316t-294.5 -114q-150 0 -227.5 103.5t-77.5 272.5q0 108 31 219t90.5 211t138.5 178.5t182.5 124.5t214.5 46q120 0 187 -51t67 -132zM397 1223l379 331h4l236 -329l-8 -8l-258 137l-349 -137zM989 1399l170 325
h314v-4l-474 -321h-10z" />
    <glyph glyph-name="uni1EC0" unicode="&#x1ec0;" horiz-adv-x="1271" 
d="M1270 1710h-10l-338 322v4h307zM225 1401l6 33h1033l-25 -443l-22 -6q-10 90 -33 161t-63 128t-102 88t-142 31h-215l-138 -641h162q87 0 138 52.5t112 205.5h20l-120 -557h-21q13 102 0.5 159.5t-43 78t-94.5 20.5h-162l-141 -670h241q96 0 171.5 20t146 67.5
t131.5 130.5t117 206h22l-162 -465h-1114l6 33l66 10q63 9 96 30t45 79l240 1130q12 57 -13 79.5t-81 29.5zM1157 1528l-258 137l-346 -137l-6 6l379 332h4l235 -330z" />
    <glyph glyph-name="uni1EC1" unicode="&#x1ec1;" horiz-adv-x="944" 
d="M666 1094q-79 0 -157.5 -80.5t-134.5 -203.5t-81 -259q121 34 214.5 88t145.5 113.5t77.5 116.5t25.5 108q0 54 -24.5 85.5t-65.5 31.5zM950 952q0 -48 -23.5 -97.5t-76 -100.5t-128 -94.5t-187.5 -79.5t-246 -56q-1 -15 -4.5 -55.5t-3.5 -62.5q0 -130 47.5 -207.5
t142.5 -77.5q97 0 199 81t184 222l23 -14q-100 -202 -238.5 -316t-294.5 -114q-150 0 -227.5 103.5t-77.5 272.5q0 108 31 219t90.5 211t138.5 178.5t182.5 124.5t214.5 46q120 0 187 -51t67 -132zM397 1223l379 331h4l236 -329l-8 -8l-258 137l-349 -137zM1079 1724
l41 -325h-10l-338 321v4h307z" />
    <glyph glyph-name="uni1EC2" unicode="&#x1ec2;" horiz-adv-x="1271" 
d="M1264 2195q114 0 169.5 -53t41.5 -133q-13 -69 -88.5 -132t-198.5 -91l-27 -76h-12l6 184q116 27 173 76.5t65 106.5q5 23 -9 41t-47 18q-40 0 -103.5 -26t-125.5 -70q-14 40 -6 71q6 39 48.5 61.5t113.5 22.5zM225 1401l6 33h1033l-25 -443l-22 -6q-10 90 -33 161
t-63 128t-102 88t-142 31h-215l-138 -641h162q87 0 138 52.5t112 205.5h20l-120 -557h-21q13 102 0.5 159.5t-43 78t-94.5 20.5h-162l-141 -670h241q96 0 171.5 20t146 67.5t131.5 130.5t117 206h22l-162 -465h-1114l6 33l66 10q63 9 96 30t45 79l240 1130q12 57 -13 79.5
t-81 29.5zM1157 1528l-258 137l-346 -137l-6 6l379 332h4l235 -330z" />
    <glyph glyph-name="uni1EC3" unicode="&#x1ec3;" horiz-adv-x="944" 
d="M666 1094q-79 0 -157.5 -80.5t-134.5 -203.5t-81 -259q121 34 214.5 88t145.5 113.5t77.5 116.5t25.5 108q0 54 -24.5 85.5t-65.5 31.5zM950 952q0 -48 -23.5 -97.5t-76 -100.5t-128 -94.5t-187.5 -79.5t-246 -56q-1 -15 -4.5 -55.5t-3.5 -62.5q0 -130 47.5 -207.5
t142.5 -77.5q97 0 199 81t184 222l23 -14q-100 -202 -238.5 -316t-294.5 -114q-150 0 -227.5 103.5t-77.5 272.5q0 108 31 219t90.5 211t138.5 178.5t182.5 124.5t214.5 46q120 0 187 -51t67 -132zM397 1223l379 331h4l236 -329l-8 -8l-258 137l-349 -137zM1114 1884
q114 0 169.5 -53t41.5 -133q-13 -69 -88.5 -132t-198.5 -91l-26 -76h-13l7 184q116 27 172.5 76t64.5 106q5 23 -8.5 41.5t-46.5 18.5q-41 0 -104.5 -26.5t-125.5 -69.5q-14 40 -6 71q6 39 48.5 61.5t113.5 22.5z" />
    <glyph glyph-name="uni1EC4" unicode="&#x1ec4;" horiz-adv-x="1271" 
d="M776 2038q-81 0 -141 -84l-12 2q102 237 239 237q42 0 85 -21t73.5 -46.5t70.5 -46.5t76 -21q83 0 140 90l12 -2q-41 -106 -104 -172.5t-140 -66.5q-44 0 -88 20.5t-74 45t-67.5 45t-69.5 20.5zM225 1401l6 33h1033l-25 -443l-22 -6q-10 90 -33 161t-63 128t-102 88
t-142 31h-215l-138 -641h162q87 0 138 52.5t112 205.5h20l-120 -557h-21q13 102 0.5 159.5t-43 78t-94.5 20.5h-162l-141 -670h241q96 0 171.5 20t146 67.5t131.5 130.5t117 206h22l-162 -465h-1114l6 33l66 10q63 9 96 30t45 79l240 1130q12 57 -13 79.5t-81 29.5z
M1157 1528l-258 137l-346 -137l-6 6l379 332h4l235 -330z" />
    <glyph glyph-name="uni1EC5" unicode="&#x1ec5;" horiz-adv-x="944" 
d="M666 1094q-79 0 -157.5 -80.5t-134.5 -203.5t-81 -259q121 34 214.5 88t145.5 113.5t77.5 116.5t25.5 108q0 54 -24.5 85.5t-65.5 31.5zM950 952q0 -48 -23.5 -97.5t-76 -100.5t-128 -94.5t-187.5 -79.5t-246 -56q-1 -15 -4.5 -55.5t-3.5 -62.5q0 -130 47.5 -207.5
t142.5 -77.5q97 0 199 81t184 222l23 -14q-100 -202 -238.5 -316t-294.5 -114q-150 0 -227.5 103.5t-77.5 272.5q0 108 31 219t90.5 211t138.5 178.5t182.5 124.5t214.5 46q120 0 187 -51t67 -132zM397 1223l379 331h4l236 -329l-8 -8l-258 137l-349 -137zM627 1726
q-82 0 -142 -84l-12 3q102 237 240 237q42 0 85 -21t73.5 -46.5t70.5 -46.5t76 -21q82 0 139 90l12 -2q-42 -107 -104 -173.5t-139 -66.5q-44 0 -88 20.5t-74 45t-67.5 45t-69.5 20.5z" />
    <glyph glyph-name="uni1EC6" unicode="&#x1ec6;" horiz-adv-x="1271" 
d="M569 -403q-58 0 -96.5 38.5t-38.5 94.5q0 57 38.5 95t96.5 38t97 -38t39 -95q0 -56 -39 -94.5t-97 -38.5zM225 1401l6 33h1033l-25 -443l-22 -6q-10 90 -33 161t-63 128t-102 88t-142 31h-215l-138 -641h162q87 0 138 52.5t112 205.5h20l-120 -557h-21q13 102 0.5 159.5
t-43 78t-94.5 20.5h-162l-141 -670h241q96 0 171.5 20t146 67.5t131.5 130.5t117 206h22l-162 -465h-1114l6 33l66 10q63 9 96 30t45 79l240 1130q12 57 -13 79.5t-81 29.5zM1157 1528l-258 137l-346 -137l-6 6l379 332h4l235 -330z" />
    <glyph glyph-name="uni1EC7" unicode="&#x1ec7;" horiz-adv-x="944" 
d="M666 1094q-79 0 -157.5 -80.5t-134.5 -203.5t-81 -259q121 34 214.5 88t145.5 113.5t77.5 116.5t25.5 108q0 54 -24.5 85.5t-65.5 31.5zM950 952q0 -48 -23.5 -97.5t-76 -100.5t-128 -94.5t-187.5 -79.5t-246 -56q-1 -15 -4.5 -55.5t-3.5 -62.5q0 -130 47.5 -207.5
t142.5 -77.5q97 0 199 81t184 222l23 -14q-100 -202 -238.5 -316t-294.5 -114q-150 0 -227.5 103.5t-77.5 272.5q0 108 31 219t90.5 211t138.5 178.5t182.5 124.5t214.5 46q120 0 187 -51t67 -132zM397 1223l379 331h4l236 -329l-8 -8l-258 137l-349 -137zM303 -424
q-58 0 -96.5 38.5t-38.5 94.5q0 57 38.5 95t96.5 38t96.5 -38t38.5 -95q0 -56 -38.5 -94.5t-96.5 -38.5z" />
    <glyph glyph-name="uni1EC8" unicode="&#x1ec8;" horiz-adv-x="710" 
d="M662 2013q114 0 169 -53t41 -133q-13 -69 -88.5 -132t-197.5 -91l-27 -76h-12l6 184q116 27 173 76t65 106q5 23 -9 41.5t-47 18.5q-40 0 -103.5 -26t-125.5 -70q-14 40 -6 71q6 39 48.5 61.5t113.5 22.5zM547 0h-619l6 33l64 8q63 9 97 31t46 80l240 1130q12 58 -13 80
t-83 31l-60 8l6 33h619l-6 -33l-64 -8q-61 -9 -96 -31.5t-47 -79.5l-240 -1130q-12 -58 13.5 -80t83.5 -31l59 -8z" />
    <glyph glyph-name="uni1EC9" unicode="&#x1ec9;" horiz-adv-x="667" 
d="M604 1704q114 0 169.5 -53t41.5 -133q-13 -69 -89 -132.5t-198 -91.5l-26 -75h-13l7 184q116 27 172.5 76t64.5 106q5 23 -8.5 41.5t-46.5 18.5q-40 0 -103.5 -26.5t-125.5 -70.5q-15 42 -7 72q6 39 48.5 61.5t113.5 22.5zM627 424l24 -14q-114 -203 -233.5 -316.5
t-224.5 -113.5q-59 0 -85 41t-6 114l240 901q-69 -46 -148.5 -136.5t-152.5 -209.5l-23 15q117 204 236 317t223 113q59 0 83.5 -40t4.5 -116l-241 -901q69 45 149.5 136t153.5 210z" />
    <glyph glyph-name="uni1ECA" unicode="&#x1eca;" horiz-adv-x="710" 
d="M221 -403q-58 0 -96.5 38.5t-38.5 94.5q0 57 38.5 95t96.5 38t96.5 -38t38.5 -95q0 -56 -38.5 -94.5t-96.5 -38.5zM547 0h-619l6 33l64 8q63 9 97 31t46 80l240 1130q12 58 -13 80t-83 31l-60 8l6 33h619l-6 -33l-64 -8q-61 -9 -96 -31.5t-47 -79.5l-240 -1130
q-12 -58 13.5 -80t83.5 -31l59 -8z" />
    <glyph glyph-name="uni1ECB" unicode="&#x1ecb;" horiz-adv-x="667" 
d="M182 -424q-58 0 -96.5 38.5t-38.5 94.5q0 57 38.5 95t96.5 38t96.5 -38t38.5 -95q0 -56 -38.5 -94.5t-96.5 -38.5zM565 979l-241 -901q69 45 149.5 136t153.5 210l24 -14q-114 -203 -233.5 -316.5t-224.5 -113.5q-59 0 -85 41t-6 114l240 901q-69 -46 -148.5 -136.5
t-152.5 -209.5l-23 15q117 204 236 317t223 113q59 0 83.5 -40t4.5 -116zM530 1253q-59 0 -99 40t-40 98q0 60 39.5 99.5t99.5 39.5q61 0 100.5 -39.5t39.5 -99.5q0 -58 -39.5 -98t-100.5 -40z" />
    <glyph glyph-name="uni1ECC" unicode="&#x1ecc;" horiz-adv-x="1454" 
d="M625 12q104 0 196.5 65t158 170.5t113 238t70.5 270t23 264.5q0 196 -74.5 298.5t-212.5 102.5q-102 0 -193.5 -65t-157 -171t-114 -238t-72.5 -269t-24 -262q0 -196 75.5 -300t211.5 -104zM903 1454q244 0 387.5 -152.5t143.5 -406.5q0 -174 -63.5 -340.5t-170.5 -293
t-259.5 -204t-319.5 -77.5q-242 0 -386.5 154t-144.5 407q0 112 27 223.5t77 212.5t123.5 188.5t161.5 151.5t197.5 100.5t226.5 36.5zM528 -424q-58 0 -96.5 38.5t-38.5 94.5q0 57 38.5 95t96.5 38t97 -38t39 -95q0 -56 -39 -94.5t-97 -38.5z" />
    <glyph glyph-name="uni1ECD" unicode="&#x1ecd;" horiz-adv-x="1138" 
d="M385 -424q-58 0 -96.5 38.5t-38.5 94.5q0 57 38.5 95t96.5 38t96.5 -38t38.5 -95q0 -56 -38.5 -94.5t-96.5 -38.5zM682 1135q186 0 297 -120t111 -315q0 -183 -82.5 -348t-230 -268.5t-322.5 -103.5q-185 0 -294.5 119t-109.5 315q0 184 83 350t229.5 268.5t318.5 102.5z
M455 14q71 0 136 55.5t112 144t82.5 197t53 216.5t17.5 200q0 132 -43.5 202.5t-128.5 70.5q-71 0 -136 -55.5t-112 -144.5t-82.5 -197.5t-53 -217t-17.5 -200.5q0 -131 44 -201t128 -70z" />
    <glyph glyph-name="uni1ECE" unicode="&#x1ece;" horiz-adv-x="1454" 
d="M625 12q104 0 196.5 65t158 170.5t113 238t70.5 270t23 264.5q0 196 -74.5 298.5t-212.5 102.5q-102 0 -193.5 -65t-157 -171t-114 -238t-72.5 -269t-24 -262q0 -196 75.5 -300t211.5 -104zM903 1454q244 0 387.5 -152.5t143.5 -406.5q0 -174 -63.5 -340.5t-170.5 -293
t-259.5 -204t-319.5 -77.5q-242 0 -386.5 154t-144.5 407q0 112 27 223.5t77 212.5t123.5 188.5t161.5 151.5t197.5 100.5t226.5 36.5zM1071 2013q114 0 169.5 -53t41.5 -133q-13 -69 -88.5 -132t-198.5 -91l-26 -76h-13l7 184q116 27 172.5 76t64.5 106q5 23 -8.5 41.5
t-46.5 18.5q-41 0 -104.5 -26.5t-125.5 -69.5q-14 40 -6 71q6 39 48.5 61.5t113.5 22.5z" />
    <glyph glyph-name="uni1ECF" unicode="&#x1ecf;" horiz-adv-x="1138" 
d="M455 14q71 0 136 55.5t112 144t82.5 197t53 216.5t17.5 200q0 132 -43.5 202.5t-128.5 70.5q-71 0 -136 -55.5t-112 -144.5t-82.5 -197.5t-53 -217t-17.5 -200.5q0 -131 44 -201t128 -70zM682 1135q186 0 297 -120t111 -315q0 -183 -82.5 -348t-230 -268.5t-322.5 -103.5
q-185 0 -294.5 119t-109.5 315q0 184 83 350t229.5 268.5t318.5 102.5zM850 1704q114 0 169.5 -53t41.5 -133q-13 -69 -89 -132.5t-198 -91.5l-26 -75h-13l6 184q116 27 173 76t65 106q5 23 -8.5 41.5t-46.5 18.5q-40 0 -104 -26.5t-126 -70.5q-14 40 -6 72q6 39 48.5 61.5
t113.5 22.5z" />
    <glyph glyph-name="uni1ED0" unicode="&#x1ed0;" horiz-adv-x="1454" 
d="M625 12q104 0 196.5 65t158 170.5t113 238t70.5 270t23 264.5q0 196 -74.5 298.5t-212.5 102.5q-102 0 -193.5 -65t-157 -171t-114 -238t-72.5 -269t-24 -262q0 -196 75.5 -300t211.5 -104zM903 1454q244 0 387.5 -152.5t143.5 -406.5q0 -174 -63.5 -340.5t-170.5 -293
t-259.5 -204t-319.5 -77.5q-242 0 -386.5 154t-144.5 407q0 112 27 223.5t77 212.5t123.5 188.5t161.5 151.5t197.5 100.5t226.5 36.5zM1249 1536l-8 -8l-258 137l-346 -137l-6 6l379 332h4zM1223 1710l170 326h313v-4l-473 -322h-10z" />
    <glyph glyph-name="uni1ED1" unicode="&#x1ed1;" horiz-adv-x="1138" 
d="M455 14q71 0 136 55.5t112 144t82.5 197t53 216.5t17.5 200q0 132 -43.5 202.5t-128.5 70.5q-71 0 -136 -55.5t-112 -144.5t-82.5 -197.5t-53 -217t-17.5 -200.5q0 -131 44 -201t128 -70zM682 1135q186 0 297 -120t111 -315q0 -183 -82.5 -348t-230 -268.5t-322.5 -103.5
q-185 0 -294.5 119t-109.5 315q0 184 83 350t229.5 268.5t318.5 102.5zM1026 1225l-8 -8l-258 137l-346 -137l-4 6l376 331h5zM999 1399l170 325h314v-4l-473 -321h-11z" />
    <glyph glyph-name="uni1ED2" unicode="&#x1ed2;" horiz-adv-x="1454" 
d="M625 12q104 0 196.5 65t158 170.5t113 238t70.5 270t23 264.5q0 196 -74.5 298.5t-212.5 102.5q-102 0 -193.5 -65t-157 -171t-114 -238t-72.5 -269t-24 -262q0 -196 75.5 -300t211.5 -104zM903 1454q244 0 387.5 -152.5t143.5 -406.5q0 -174 -63.5 -340.5t-170.5 -293
t-259.5 -204t-319.5 -77.5q-242 0 -386.5 154t-144.5 407q0 112 27 223.5t77 212.5t123.5 188.5t161.5 151.5t197.5 100.5t226.5 36.5zM1249 1536l-8 -8l-258 137l-346 -137l-6 6l379 332h4zM1313 2036l41 -326h-11l-337 322v4h307z" />
    <glyph glyph-name="uni1ED3" unicode="&#x1ed3;" horiz-adv-x="1138" 
d="M455 14q71 0 136 55.5t112 144t82.5 197t53 216.5t17.5 200q0 132 -43.5 202.5t-128.5 70.5q-71 0 -136 -55.5t-112 -144.5t-82.5 -197.5t-53 -217t-17.5 -200.5q0 -131 44 -201t128 -70zM682 1135q186 0 297 -120t111 -315q0 -183 -82.5 -348t-230 -268.5t-322.5 -103.5
q-185 0 -294.5 119t-109.5 315q0 184 83 350t229.5 268.5t318.5 102.5zM1026 1225l-8 -8l-258 137l-346 -137l-4 6l376 331h5zM1090 1724l40 -325h-10l-338 321v4h308z" />
    <glyph glyph-name="uni1ED4" unicode="&#x1ed4;" horiz-adv-x="1454" 
d="M625 12q104 0 196.5 65t158 170.5t113 238t70.5 270t23 264.5q0 196 -74.5 298.5t-212.5 102.5q-102 0 -193.5 -65t-157 -171t-114 -238t-72.5 -269t-24 -262q0 -196 75.5 -300t211.5 -104zM903 1454q244 0 387.5 -152.5t143.5 -406.5q0 -174 -63.5 -340.5t-170.5 -293
t-259.5 -204t-319.5 -77.5q-242 0 -386.5 154t-144.5 407q0 112 27 223.5t77 212.5t123.5 188.5t161.5 151.5t197.5 100.5t226.5 36.5zM1249 1536l-8 -8l-258 137l-346 -137l-6 6l379 332h4zM1348 2195q114 0 169.5 -53t41.5 -133q-13 -69 -88.5 -132t-198.5 -91l-27 -76
h-12l6 184q116 27 173 76.5t65 106.5q5 23 -9 41t-47 18q-40 0 -103.5 -26t-125.5 -70q-14 40 -6 71q6 39 48.5 61.5t113.5 22.5z" />
    <glyph glyph-name="uni1ED5" unicode="&#x1ed5;" horiz-adv-x="1138" 
d="M455 14q71 0 136 55.5t112 144t82.5 197t53 216.5t17.5 200q0 132 -43.5 202.5t-128.5 70.5q-71 0 -136 -55.5t-112 -144.5t-82.5 -197.5t-53 -217t-17.5 -200.5q0 -131 44 -201t128 -70zM682 1135q186 0 297 -120t111 -315q0 -183 -82.5 -348t-230 -268.5t-322.5 -103.5
q-185 0 -294.5 119t-109.5 315q0 184 83 350t229.5 268.5t318.5 102.5zM1026 1225l-8 -8l-258 137l-346 -137l-4 6l376 331h5zM1124 1884q114 0 169.5 -53t41.5 -133q-13 -69 -88.5 -132t-197.5 -91l-27 -76h-12l6 184q116 27 172.5 76t64.5 106q5 23 -8.5 41.5t-46.5 18.5
q-40 0 -103.5 -26t-125.5 -70q-14 40 -6 71q6 39 48 61.5t113 22.5z" />
    <glyph glyph-name="uni1ED6" unicode="&#x1ed6;" horiz-adv-x="1454" 
d="M625 12q104 0 196.5 65t158 170.5t113 238t70.5 270t23 264.5q0 196 -74.5 298.5t-212.5 102.5q-102 0 -193.5 -65t-157 -171t-114 -238t-72.5 -269t-24 -262q0 -196 75.5 -300t211.5 -104zM903 1454q244 0 387.5 -152.5t143.5 -406.5q0 -174 -63.5 -340.5t-170.5 -293
t-259.5 -204t-319.5 -77.5q-242 0 -386.5 154t-144.5 407q0 112 27 223.5t77 212.5t123.5 188.5t161.5 151.5t197.5 100.5t226.5 36.5zM1249 1536l-8 -8l-258 137l-346 -137l-6 6l379 332h4zM860 2038q-81 0 -141 -84l-12 2q102 237 239 237q42 0 85 -21t73.5 -46.5
t70.5 -46.5t76 -21q83 0 140 90l12 -2q-41 -106 -104 -172.5t-140 -66.5q-44 0 -88 20.5t-74 45t-67.5 45t-69.5 20.5z" />
    <glyph glyph-name="uni1ED7" unicode="&#x1ed7;" horiz-adv-x="1138" 
d="M455 14q71 0 136 55.5t112 144t82.5 197t53 216.5t17.5 200q0 132 -43.5 202.5t-128.5 70.5q-71 0 -136 -55.5t-112 -144.5t-82.5 -197.5t-53 -217t-17.5 -200.5q0 -131 44 -201t128 -70zM682 1135q186 0 297 -120t111 -315q0 -183 -82.5 -348t-230 -268.5t-322.5 -103.5
q-185 0 -294.5 119t-109.5 315q0 184 83 350t229.5 268.5t318.5 102.5zM1026 1225l-8 -8l-258 137l-346 -137l-4 6l376 331h5zM637 1726q-81 0 -141 -84l-13 3q102 237 240 237q42 0 85 -21t73.5 -46.5t70.5 -46.5t76 -21q82 0 139 90l13 -2q-42 -107 -104.5 -173.5
t-139.5 -66.5q-44 0 -88 20.5t-74 45t-67.5 45t-69.5 20.5z" />
    <glyph glyph-name="uni1ED8" unicode="&#x1ed8;" horiz-adv-x="1454" 
d="M625 12q104 0 196.5 65t158 170.5t113 238t70.5 270t23 264.5q0 196 -74.5 298.5t-212.5 102.5q-102 0 -193.5 -65t-157 -171t-114 -238t-72.5 -269t-24 -262q0 -196 75.5 -300t211.5 -104zM903 1454q244 0 387.5 -152.5t143.5 -406.5q0 -174 -63.5 -340.5t-170.5 -293
t-259.5 -204t-319.5 -77.5q-242 0 -386.5 154t-144.5 407q0 112 27 223.5t77 212.5t123.5 188.5t161.5 151.5t197.5 100.5t226.5 36.5zM1249 1536l-8 -8l-258 137l-346 -137l-6 6l379 332h4zM528 -424q-58 0 -96.5 38.5t-38.5 94.5q0 57 38.5 95t96.5 38t97 -38t39 -95
q0 -56 -39 -94.5t-97 -38.5z" />
    <glyph glyph-name="uni1ED9" unicode="&#x1ed9;" horiz-adv-x="1138" 
d="M455 14q71 0 136 55.5t112 144t82.5 197t53 216.5t17.5 200q0 132 -43.5 202.5t-128.5 70.5q-71 0 -136 -55.5t-112 -144.5t-82.5 -197.5t-53 -217t-17.5 -200.5q0 -131 44 -201t128 -70zM682 1135q186 0 297 -120t111 -315q0 -183 -82.5 -348t-230 -268.5t-322.5 -103.5
q-185 0 -294.5 119t-109.5 315q0 184 83 350t229.5 268.5t318.5 102.5zM1026 1225l-8 -8l-258 137l-346 -137l-4 6l376 331h5zM385 -424q-58 0 -96.5 38.5t-38.5 94.5q0 57 38.5 95t96.5 38t96.5 -38t38.5 -95q0 -56 -38.5 -94.5t-96.5 -38.5z" />
    <glyph glyph-name="uni1EDA" unicode="&#x1eda;" horiz-adv-x="1454" 
d="M625 12q104 0 196.5 65t158 170.5t113 238t70.5 270t23 264.5q0 196 -74.5 298.5t-212.5 102.5q-102 0 -193.5 -65t-157 -171t-114 -238t-72.5 -269t-24 -262q0 -196 75.5 -300t211.5 -104zM903 1454q263 0 408 -178q90 55 102 121q8 40 -18.5 77.5t-81.5 61.5
q10 50 51.5 84.5t89.5 34.5q56 0 83 -41t15 -101q-15 -74 -73 -144t-148 -118q103 -144 103 -356q0 -174 -63.5 -340.5t-170.5 -293t-259.5 -204t-319.5 -77.5q-242 0 -386.5 154t-144.5 407q0 112 27 223.5t77 212.5t123.5 188.5t161.5 151.5t197.5 100.5t226.5 36.5z
M885 1524l170 325h313v-4l-473 -321h-10z" />
    <glyph glyph-name="uni1EDB" unicode="&#x1edb;" horiz-adv-x="1138" 
d="M455 14q71 0 136 55.5t112 144t82.5 197t53 216.5t17.5 200q0 132 -43.5 202.5t-128.5 70.5q-71 0 -136 -55.5t-112 -144.5t-82.5 -197.5t-53 -217t-17.5 -200.5q0 -131 44 -201t128 -70zM682 1135q107 0 192 -42.5t138 -119.5q80 55 92 117q8 40 -18.5 77.5t-81.5 61.5
q10 50 51.5 84.5t89.5 34.5q56 0 83 -41t15 -101q-15 -74 -71.5 -143t-143.5 -115q62 -111 62 -248q0 -183 -82.5 -348t-230 -268.5t-322.5 -103.5q-185 0 -294.5 119t-109.5 315q0 184 83 350t229.5 268.5t318.5 102.5zM672 1210l170 326h313v-4l-473 -322h-10z" />
    <glyph glyph-name="uni1EDC" unicode="&#x1edc;" horiz-adv-x="1454" 
d="M625 12q104 0 196.5 65t158 170.5t113 238t70.5 270t23 264.5q0 196 -74.5 298.5t-212.5 102.5q-102 0 -193.5 -65t-157 -171t-114 -238t-72.5 -269t-24 -262q0 -196 75.5 -300t211.5 -104zM903 1454q263 0 408 -178q90 55 102 121q8 40 -18.5 77.5t-81.5 61.5
q10 50 51.5 84.5t89.5 34.5q56 0 83 -41t15 -101q-15 -74 -73 -144t-148 -118q103 -144 103 -356q0 -174 -63.5 -340.5t-170.5 -293t-259.5 -204t-319.5 -77.5q-242 0 -386.5 154t-144.5 407q0 112 27 223.5t77 212.5t123.5 188.5t161.5 151.5t197.5 100.5t226.5 36.5z
M954 1847l39 -325h-8l-340 321l2 4h307z" />
    <glyph glyph-name="uni1EDD" unicode="&#x1edd;" horiz-adv-x="1138" 
d="M455 14q71 0 136 55.5t112 144t82.5 197t53 216.5t17.5 200q0 132 -43.5 202.5t-128.5 70.5q-71 0 -136 -55.5t-112 -144.5t-82.5 -197.5t-53 -217t-17.5 -200.5q0 -131 44 -201t128 -70zM682 1135q107 0 192 -42.5t138 -119.5q80 55 92 117q8 40 -18.5 77.5t-81.5 61.5
q10 50 51.5 84.5t89.5 34.5q56 0 83 -41t15 -101q-15 -74 -71.5 -143t-143.5 -115q62 -111 62 -248q0 -183 -82.5 -348t-230 -268.5t-322.5 -103.5q-185 0 -294.5 119t-109.5 315q0 184 83 350t229.5 268.5t318.5 102.5zM717 1536l39 -326h-8l-340 322l2 4h307z" />
    <glyph glyph-name="uni1EDE" unicode="&#x1ede;" horiz-adv-x="1454" 
d="M625 12q104 0 196.5 65t158 170.5t113 238t70.5 270t23 264.5q0 196 -74.5 298.5t-212.5 102.5q-102 0 -193.5 -65t-157 -171t-114 -238t-72.5 -269t-24 -262q0 -196 75.5 -300t211.5 -104zM903 1454q263 0 408 -178q90 55 102 121q8 40 -18.5 77.5t-81.5 61.5
q10 50 51.5 84.5t89.5 34.5q56 0 83 -41t15 -101q-15 -74 -73 -144t-148 -118q103 -144 103 -356q0 -174 -63.5 -340.5t-170.5 -293t-259.5 -204t-319.5 -77.5q-242 0 -386.5 154t-144.5 407q0 112 27 223.5t77 212.5t123.5 188.5t161.5 151.5t197.5 100.5t226.5 36.5z
M1071 2013q114 0 169.5 -53t41.5 -133q-13 -69 -88.5 -132t-198.5 -91l-26 -76h-13l7 184q116 27 172.5 76t64.5 106q5 23 -8.5 41.5t-46.5 18.5q-41 0 -104.5 -26.5t-125.5 -69.5q-14 40 -6 71q6 39 48.5 61.5t113.5 22.5z" />
    <glyph glyph-name="uni1EDF" unicode="&#x1edf;" horiz-adv-x="1138" 
d="M455 14q71 0 136 55.5t112 144t82.5 197t53 216.5t17.5 200q0 132 -43.5 202.5t-128.5 70.5q-71 0 -136 -55.5t-112 -144.5t-82.5 -197.5t-53 -217t-17.5 -200.5q0 -131 44 -201t128 -70zM682 1135q107 0 192 -42.5t138 -119.5q80 55 92 117q8 40 -18.5 77.5t-81.5 61.5
q10 50 51.5 84.5t89.5 34.5q56 0 83 -41t15 -101q-15 -74 -71.5 -143t-143.5 -115q62 -111 62 -248q0 -183 -82.5 -348t-230 -268.5t-322.5 -103.5q-185 0 -294.5 119t-109.5 315q0 184 83 350t229.5 268.5t318.5 102.5zM850 1704q114 0 169.5 -53t41.5 -133
q-13 -69 -89 -132.5t-198 -91.5l-26 -75h-13l6 184q116 27 173 76t65 106q5 23 -8.5 41.5t-46.5 18.5q-40 0 -104 -26.5t-126 -70.5q-14 40 -6 72q6 39 48.5 61.5t113.5 22.5z" />
    <glyph glyph-name="uni1EE0" unicode="&#x1ee0;" horiz-adv-x="1454" 
d="M625 12q104 0 196.5 65t158 170.5t113 238t70.5 270t23 264.5q0 196 -74.5 298.5t-212.5 102.5q-102 0 -193.5 -65t-157 -171t-114 -238t-72.5 -269t-24 -262q0 -196 75.5 -300t211.5 -104zM903 1454q263 0 408 -178q90 55 102 121q8 40 -18.5 77.5t-81.5 61.5
q10 50 51.5 84.5t89.5 34.5q56 0 83 -41t15 -101q-15 -74 -73 -144t-148 -118q103 -144 103 -356q0 -174 -63.5 -340.5t-170.5 -293t-259.5 -204t-319.5 -77.5q-242 0 -386.5 154t-144.5 407q0 112 27 223.5t77 212.5t123.5 188.5t161.5 151.5t197.5 100.5t226.5 36.5z
M1075 1522q-44 0 -88.5 20.5t-74.5 45t-68 45t-70 20.5q-37 0 -74.5 -23t-64.5 -61l-14 2q102 237 241 237q42 0 85 -21t73.5 -46.5t70.5 -46.5t76 -21q83 0 140 90l12 -2q-41 -105 -105 -172t-139 -67z" />
    <glyph glyph-name="uni1EE1" unicode="&#x1ee1;" horiz-adv-x="1138" 
d="M455 14q71 0 136 55.5t112 144t82.5 197t53 216.5t17.5 200q0 132 -43.5 202.5t-128.5 70.5q-71 0 -136 -55.5t-112 -144.5t-82.5 -197.5t-53 -217t-17.5 -200.5q0 -131 44 -201t128 -70zM682 1135q107 0 192 -42.5t138 -119.5q80 55 92 117q8 40 -18.5 77.5t-81.5 61.5
q10 50 51.5 84.5t89.5 34.5q56 0 83 -41t15 -101q-15 -74 -71.5 -143t-143.5 -115q62 -111 62 -248q0 -183 -82.5 -348t-230 -268.5t-322.5 -103.5q-185 0 -294.5 119t-109.5 315q0 184 83 350t229.5 268.5t318.5 102.5zM842 1284q-44 0 -88.5 20.5t-74.5 45t-68 45
t-70 20.5q-80 0 -140 -84l-14 2q102 238 240 238q42 0 85.5 -21t74 -46.5t71 -46.5t76.5 -21q82 0 139 90l12 -2q-41 -106 -104.5 -173t-138.5 -67z" />
    <glyph glyph-name="uni1EE2" unicode="&#x1ee2;" horiz-adv-x="1454" 
d="M625 12q104 0 196.5 65t158 170.5t113 238t70.5 270t23 264.5q0 196 -74.5 298.5t-212.5 102.5q-102 0 -193.5 -65t-157 -171t-114 -238t-72.5 -269t-24 -262q0 -196 75.5 -300t211.5 -104zM903 1454q263 0 408 -178q90 55 102 121q8 40 -18.5 77.5t-81.5 61.5
q10 50 51.5 84.5t89.5 34.5q56 0 83 -41t15 -101q-15 -74 -73 -144t-148 -118q103 -144 103 -356q0 -174 -63.5 -340.5t-170.5 -293t-259.5 -204t-319.5 -77.5q-242 0 -386.5 154t-144.5 407q0 112 27 223.5t77 212.5t123.5 188.5t161.5 151.5t197.5 100.5t226.5 36.5z
M528 -424q-58 0 -96.5 38.5t-38.5 94.5q0 57 38.5 95t96.5 38t97 -38t39 -95q0 -56 -39 -94.5t-97 -38.5z" />
    <glyph glyph-name="uni1EE3" unicode="&#x1ee3;" horiz-adv-x="1138" 
d="M455 14q71 0 136 55.5t112 144t82.5 197t53 216.5t17.5 200q0 132 -43.5 202.5t-128.5 70.5q-71 0 -136 -55.5t-112 -144.5t-82.5 -197.5t-53 -217t-17.5 -200.5q0 -131 44 -201t128 -70zM682 1135q107 0 192 -42.5t138 -119.5q80 55 92 117q8 40 -18.5 77.5t-81.5 61.5
q10 50 51.5 84.5t89.5 34.5q56 0 83 -41t15 -101q-15 -74 -71.5 -143t-143.5 -115q62 -111 62 -248q0 -183 -82.5 -348t-230 -268.5t-322.5 -103.5q-185 0 -294.5 119t-109.5 315q0 184 83 350t229.5 268.5t318.5 102.5zM385 -424q-58 0 -96.5 38.5t-38.5 94.5q0 57 38.5 95
t96.5 38t96.5 -38t38.5 -95q0 -56 -38.5 -94.5t-96.5 -38.5z" />
    <glyph glyph-name="uni1EE4" unicode="&#x1ee4;" horiz-adv-x="1460" 
d="M549 -424q-58 0 -96.5 38.5t-38.5 94.5q0 57 38.5 95t96.5 38t96.5 -38t38.5 -95q0 -56 -38.5 -94.5t-96.5 -38.5zM674 -20q-125 0 -228 37t-171.5 106t-95.5 169t1 226l162 764q12 58 -10 80t-76 31l-53 8l6 33h604l-8 -33l-62 -8q-61 -9 -95.5 -31.5t-45.5 -79.5
l-168 -782q-21 -105 -4 -187t64.5 -139t121.5 -87t166 -30q175 0 274 112.5t144 328.5l168 784q12 58 -15.5 80t-90.5 31l-64 8l6 33h441l-7 -33l-69 -8q-67 -9 -104.5 -31t-49.5 -80l-166 -784q-109 -518 -575 -518z" />
    <glyph glyph-name="uni1EE5" unicode="&#x1ee5;" horiz-adv-x="1298" 
d="M467 -424q-58 0 -96.5 38.5t-38.5 94.5q0 57 38.5 95t96.5 38t96.5 -38t38.5 -95q0 -56 -38.5 -94.5t-96.5 -38.5zM1260 424l22 -14q-114 -203 -233 -316.5t-224 -113.5q-59 0 -84.5 41t-5.5 114l137 518q-26 -65 -56 -127.5t-74 -144t-94.5 -148.5t-108.5 -126.5
t-126 -93t-137 -33.5q-92 0 -136 68t-15 179l215 809q-69 -46 -150 -137t-153 -209l-25 15q117 204 236 317t223 113q63 0 87 -42t1 -120l-190 -709q-35 -121 57 -121q61 0 136.5 72t151.5 197.5t150.5 308.5t130.5 393h238l-279 -1040q73 51 154 141.5t152 208.5z" />
    <glyph glyph-name="uni1EE6" unicode="&#x1ee6;" horiz-adv-x="1460" 
d="M1071 2013q114 0 169.5 -53t41.5 -133q-13 -69 -88.5 -132t-198.5 -91l-26 -76h-13l7 184q116 27 172.5 76t64.5 106q5 23 -8.5 41.5t-46.5 18.5q-41 0 -104.5 -26.5t-125.5 -69.5q-14 40 -6 71q6 39 48.5 61.5t113.5 22.5zM674 -20q-125 0 -228 37t-171.5 106t-95.5 169
t1 226l162 764q12 58 -10 80t-76 31l-53 8l6 33h604l-8 -33l-62 -8q-61 -9 -95.5 -31.5t-45.5 -79.5l-168 -782q-21 -105 -4 -187t64.5 -139t121.5 -87t166 -30q175 0 274 112.5t144 328.5l168 784q12 58 -15.5 80t-90.5 31l-64 8l6 33h441l-7 -33l-69 -8q-67 -9 -104.5 -31
t-49.5 -80l-166 -784q-109 -518 -575 -518z" />
    <glyph glyph-name="uni1EE7" unicode="&#x1ee7;" horiz-adv-x="1298" 
d="M891 1704q114 0 169.5 -53t41.5 -133q-13 -69 -89 -132.5t-198 -91.5l-27 -75h-12l6 184q116 27 173 76t65 106q5 23 -8.5 41.5t-46.5 18.5q-40 0 -104 -26.5t-126 -70.5q-14 40 -6 72q6 39 48.5 61.5t113.5 22.5zM1260 424l22 -14q-114 -203 -233 -316.5t-224 -113.5
q-59 0 -84.5 41t-5.5 114l137 518q-26 -65 -56 -127.5t-74 -144t-94.5 -148.5t-108.5 -126.5t-126 -93t-137 -33.5q-92 0 -136 68t-15 179l215 809q-69 -46 -150 -137t-153 -209l-25 15q117 204 236 317t223 113q63 0 87 -42t1 -120l-190 -709q-35 -121 57 -121
q61 0 136.5 72t151.5 197.5t150.5 308.5t130.5 393h238l-279 -1040q73 51 154 141.5t152 208.5z" />
    <glyph glyph-name="uni1EE8" unicode="&#x1ee8;" horiz-adv-x="1460" 
d="M1083 1849h316l-2 -4l-473 -321h-9zM674 -20q-125 0 -228 37t-171.5 106t-95.5 169t1 226l162 764q12 58 -10 80t-76 31l-53 8l6 33h604l-8 -33l-62 -8q-61 -9 -95.5 -31.5t-45.5 -79.5l-168 -782q-21 -105 -4 -187t64.5 -139t121.5 -87t166 -30q175 0 274 112.5
t144 328.5l168 784q12 58 -15.5 80t-90.5 31l-64 8l6 33h301l-6 -33q-36 -15 -53.5 -37.5t-30.5 -81.5l-10 -47q76 33 122.5 75t55.5 87q8 40 -18.5 77.5t-81.5 61.5q10 50 51.5 84.5t89.5 34.5q56 0 83 -41t15 -101q-21 -95 -105.5 -178.5t-217.5 -124.5l-150 -712
q-109 -518 -575 -518z" />
    <glyph glyph-name="uni1EE9" unicode="&#x1ee9;" horiz-adv-x="1298" 
d="M1225 1536v-4l-473 -322h-11l170 326h314zM1260 424l22 -14q-114 -203 -233 -316.5t-224 -113.5q-59 0 -84.5 41t-5.5 114l137 518q-26 -65 -56 -127.5t-74 -144t-94.5 -148.5t-108.5 -126.5t-126 -93t-137 -33.5q-92 0 -136 68t-15 179l215 809q-69 -46 -150 -137
t-153 -209l-25 15q117 204 236 317t223 113q63 0 87 -42t1 -120l-190 -709q-35 -121 57 -121q61 0 136.5 72t151.5 197.5t150.5 308.5t130.5 393h238l-49 -184q74 32 119.5 74t54.5 86q8 40 -19 77t-82 62q10 50 52 84.5t90 34.5q56 0 83 -41t15 -101q-21 -95 -105.5 -178.5
t-215.5 -124.5l-222 -829q73 51 154 141.5t152 208.5z" />
    <glyph glyph-name="uni1EEA" unicode="&#x1eea;" horiz-adv-x="1460" 
d="M1024 1522h-10l-338 321v4h307zM674 -20q-125 0 -228 37t-171.5 106t-95.5 169t1 226l162 764q12 58 -10 80t-76 31l-53 8l6 33h604l-8 -33l-62 -8q-61 -9 -95.5 -31.5t-45.5 -79.5l-168 -782q-21 -105 -4 -187t64.5 -139t121.5 -87t166 -30q175 0 274 112.5t144 328.5
l168 784q12 58 -15.5 80t-90.5 31l-64 8l6 33h301l-6 -33q-36 -15 -53.5 -37.5t-30.5 -81.5l-10 -47q76 33 122.5 75t55.5 87q8 40 -18.5 77.5t-81.5 61.5q10 50 51.5 84.5t89.5 34.5q56 0 83 -41t15 -101q-21 -95 -105.5 -178.5t-217.5 -124.5l-150 -712
q-109 -518 -575 -518z" />
    <glyph glyph-name="uni1EEB" unicode="&#x1eeb;" horiz-adv-x="1298" 
d="M786 1536l39 -326h-8l-340 322l2 4h307zM1260 424l22 -14q-114 -203 -233 -316.5t-224 -113.5q-59 0 -84.5 41t-5.5 114l137 518q-26 -65 -56 -127.5t-74 -144t-94.5 -148.5t-108.5 -126.5t-126 -93t-137 -33.5q-92 0 -136 68t-15 179l215 809q-69 -46 -150 -137
t-153 -209l-25 15q117 204 236 317t223 113q63 0 87 -42t1 -120l-190 -709q-35 -121 57 -121q61 0 136.5 72t151.5 197.5t150.5 308.5t130.5 393h238l-49 -184q74 32 119.5 74t54.5 86q8 40 -19 77t-82 62q10 50 52 84.5t90 34.5q56 0 83 -41t15 -101q-21 -95 -105.5 -178.5
t-215.5 -124.5l-222 -829q73 51 154 141.5t152 208.5z" />
    <glyph glyph-name="uni1EEC" unicode="&#x1eec;" horiz-adv-x="1460" 
d="M1071 2013q114 0 169.5 -53t41.5 -133q-13 -69 -88.5 -132t-198.5 -91l-26 -76h-13l7 184q116 27 172.5 76t64.5 106q5 23 -8.5 41.5t-46.5 18.5q-41 0 -104.5 -26.5t-125.5 -69.5q-14 40 -6 71q6 39 48.5 61.5t113.5 22.5zM674 -20q-125 0 -228 37t-171.5 106t-95.5 169
t1 226l162 764q12 58 -10 80t-76 31l-53 8l6 33h604l-8 -33l-62 -8q-61 -9 -95.5 -31.5t-45.5 -79.5l-168 -782q-21 -105 -4 -187t64.5 -139t121.5 -87t166 -30q175 0 274 112.5t144 328.5l168 784q12 58 -15.5 80t-90.5 31l-64 8l6 33h301l-6 -33q-36 -15 -53.5 -37.5
t-30.5 -81.5l-10 -47q76 33 122.5 75t55.5 87q8 40 -18.5 77.5t-81.5 61.5q10 50 51.5 84.5t89.5 34.5q56 0 83 -41t15 -101q-21 -95 -105.5 -178.5t-217.5 -124.5l-150 -712q-109 -518 -575 -518z" />
    </font>
</defs>
</svg>
